<svg xmlns="http://www.w3.org/2000/svg" width="960" height="640" viewBox="0 0 960 640" role="img" aria-labelledby="title desc">
  <title id="title">Mercedes parts diagram: group-003</title>
  <desc id="desc">Mercedes parts diagram: group-003</desc>
  <g id="art">
    <metadata>
    Created by potrace 1.16, written by Peter Selinger 2001-2019
    </metadata>
    <g transform="translate(0.000000,640.000000) scale(0.100000,-0.100000)"
    fill="#000000" stroke="none">
    <path d="M6093 5935 c-25 -11 -34 -23 -45 -61 l-13 -48 -58 -33 -57 -34 0 -39
    0 -40 53 -53 c151 -151 384 -288 844 -496 154 -70 372 -150 481 -176 l53 -13
    13 19 c19 27 176 63 243 55 28 -3 64 -1 79 4 l27 11 -26 27 c-16 16 -27 40
    -27 55 l0 27 -24 0 c-18 0 -25 6 -28 23 -2 15 -9 21 -21 19 -10 -2 -26 6 -35
    17 -11 13 -61 33 -142 55 -142 40 -317 98 -345 115 -49 28 -223 94 -247 94
    -18 0 -28 5 -28 14 0 8 -67 46 -162 93 -259 125 -465 251 -498 304 l-12 19 16
    9 c19 11 22 48 4 48 -7 -1 -27 -7 -45 -15z m18 -29 c-39 -46 123 -160 492
    -347 108 -55 177 -95 177 -104 0 -8 -4 -15 -10 -15 -5 0 -10 4 -10 10 0 14
    -179 102 -198 97 -10 -2 23 -23 79 -51 54 -25 99 -53 103 -61 3 -9 18 -14 38
    -13 18 0 53 -9 78 -21 74 -36 169 -70 174 -62 3 4 -47 29 -112 56 -64 27 -111
    50 -105 52 6 2 74 -22 150 -55 142 -61 439 -165 505 -177 20 -4 51 -18 69 -31
    18 -13 39 -24 46 -24 7 0 13 -4 13 -10 0 -23 -161 3 -325 53 -454 139 -1217
    543 -1214 643 l0 19 16 -22 c26 -38 36 -26 12 13 l-22 37 18 13 c25 18 41 18
    26 0z m-61 -117 c0 -36 19 -59 101 -119 206 -153 644 -368 1024 -502 230 -82
    254 -88 375 -95 97 -5 130 -14 130 -33 0 -5 -37 -8 -82 -7 -51 1 -111 -6 -156
    -17 l-73 -18 -59 11 c-88 17 -228 66 -384 133 -76 32 -141 57 -144 54 -3 -3
    19 -17 49 -30 30 -13 83 -37 119 -54 84 -38 259 -97 338 -113 34 -7 62 -17 62
    -21 0 -27 -222 40 -450 137 -281 119 -635 303 -762 395 -81 59 -208 181 -208
    200 0 9 27 -10 64 -45 63 -60 207 -168 239 -181 41 -15 11 16 -60 63 -99 64
    -238 192 -224 206 12 12 83 55 94 56 4 1 7 -8 7 -20z m233 -152 c146 -90 211
    -124 452 -237 104 -49 410 -174 485 -198 118 -39 324 -84 373 -83 36 2 47 -1
    47 -14 l0 -15 -76 0 c-115 0 -317 60 -599 177 -314 131 -633 293 -762 387 -23
    17 -58 42 -78 56 -20 14 -42 37 -50 52 l-15 27 75 -54 c42 -30 108 -74 148
    -98z"/>
    <path d="M6504 5409 l-18 -20 14 -9 c18 -11 31 -3 23 16 -4 11 5 10 42 -8 38
    -18 43 -24 26 -26 -25 -4 -18 -22 9 -22 19 0 36 29 23 41 -4 4 -29 17 -55 28
    l-46 20 -18 -20z"/>
    <path d="M6867 5664 c-13 -13 -7 -27 7 -15 15 12 46 5 46 -11 0 -5 -9 -12 -20
    -15 -11 -3 -20 -9 -20 -13 0 -4 9 -10 20 -13 11 -3 20 -13 20 -22 l0 -18 -35
    6 c-35 6 -48 -6 -19 -17 43 -16 83 8 69 41 -4 10 -8 32 -9 48 l-1 30 -25 3
    c-14 2 -29 0 -33 -4z"/>
    <path d="M6969 5654 c-10 -12 -10 -20 -1 -35 7 -11 8 -19 2 -19 -16 0 -11 -47
    6 -54 44 -17 87 10 67 42 -5 10 -8 32 -5 50 l4 32 -30 0 c-16 0 -35 -7 -43
    -16z m59 -16 c-3 -7 -13 -13 -23 -13 -10 0 -20 6 -22 13 -3 7 5 12 22 12 17 0
    25 -5 23 -12z m0 -59 c4 -19 -19 -31 -38 -19 -18 11 -4 42 17 38 10 -2 19 -10
    21 -19z"/>
    <path d="M7069 5643 c-11 -28 -5 -69 13 -90 27 -33 78 5 78 58 0 56 -72 81
    -91 32z m61 -4 c18 -32 3 -81 -23 -77 -37 5 -33 98 4 98 5 0 13 -9 19 -21z"/>
    <path d="M3437 5123 c-14 -13 -7 -22 16 -20 30 3 36 -15 9 -29 -24 -12 -19
    -24 10 -24 21 0 24 -28 4 -36 -8 -3 -24 0 -36 6 l-22 12 4 -14 c3 -7 21 -14
    41 -16 41 -4 58 17 39 48 -6 9 -7 23 -2 30 19 31 -38 69 -63 43z"/>
    <path d="M3539 5109 c-7 -14 -8 -24 -1 -31 7 -7 7 -16 0 -28 -18 -29 -3 -50
    37 -50 39 0 56 21 38 49 -7 11 -7 22 1 34 l11 18 -19 15 c-28 20 -53 17 -67
    -7z m51 -12 c0 -8 -3 -17 -7 -20 -9 -9 -34 13 -27 24 8 14 34 11 34 -4z m5
    -67 c0 -8 -10 -16 -22 -18 -18 -3 -23 2 -23 18 0 16 5 21 23 18 12 -2 22 -10
    22 -18z"/>
    <path d="M3650 5088 c0 -33 3 -39 12 -30 26 26 55 2 41 -34 -4 -12 -14 -14
    -37 -10 -22 5 -27 3 -19 -5 18 -18 65 -7 74 19 11 28 -21 65 -47 55 -12 -4
    -15 -2 -12 8 2 8 14 15 26 17 33 5 26 22 -8 22 l-30 0 0 -42z"/>
    <path d="M2277 5090 c-14 -11 -28 -35 -32 -53 -3 -17 -8 -44 -11 -59 l-5 -27
    -92 -3 -92 -3 -21 -85 c-12 -47 -51 -206 -88 -355 -62 -255 -84 -348 -137
    -575 l-22 -95 -59 -61 c-114 -119 -133 -144 -183 -231 l-50 -88 -1 -75 c0 -41
    -7 -105 -14 -142 -10 -52 -11 -76 -2 -105 14 -47 23 -166 23 -298 0 -131 23
    -220 77 -298 24 -36 124 -117 144 -117 14 0 -3 84 -20 98 l-16 12 12 108 c7
    59 12 150 13 202 l1 95 13 -30 c10 -21 14 -77 15 -192 l0 -163 -14 0 c-8 0
    -18 -5 -22 -11 -5 -8 0 -10 17 -6 14 3 32 0 42 -8 l19 -14 84 57 84 57 0 33 0
    32 41 0 42 0 83 -76 c46 -42 89 -74 94 -72 6 2 -27 37 -74 78 -91 78 -92 80
    -76 111 14 25 -3 25 -21 0 -8 -10 -31 -21 -52 -24 l-38 -6 3 27 3 27 145 16
    c84 10 149 13 155 8 5 -5 51 -9 102 -9 l93 0 0 29 0 28 60 10 c66 11 68 9 40
    -27 -13 -16 -20 -41 -20 -71 0 -33 -8 -58 -32 -95 -17 -27 -37 -65 -44 -84 -7
    -20 -20 -36 -31 -38 -10 -2 -27 -7 -38 -12 -59 -25 -89 -30 -102 -17 l-14 14
    65 17 c37 10 66 22 66 27 0 12 -3 12 -105 -16 -233 -63 -294 -81 -299 -85 -3
    -3 -18 -53 -34 -110 -17 -58 -48 -168 -71 -245 -37 -128 -49 -187 -36 -173 3
    3 14 34 24 69 74 257 101 351 112 396 l12 51 121 31 121 30 18 -17 18 -16 57
    12 c31 7 66 15 77 18 l20 5 -3 -75 -4 -75 63 -113 c50 -88 64 -122 66 -162 2
    -27 10 -57 18 -66 8 -9 15 -27 15 -41 0 -37 7 -41 126 -91 212 -90 373 -117
    487 -84 l57 16 6 28 c41 185 100 285 197 331 77 37 284 95 396 112 l84 13 17
    -21 c19 -25 36 -101 46 -217 l7 -78 46 -28 c67 -41 81 -57 81 -89 0 -26 14
    -41 40 -41 4 0 10 12 13 28 l6 27 133 34 c73 19 194 52 268 73 78 22 145 36
    159 33 17 -4 30 1 44 16 24 26 23 17 25 172 1 77 6 117 13 117 6 0 35 7 65 16
    l54 15 0 34 c0 25 5 35 20 40 29 9 25 22 -12 41 -18 9 -59 34 -90 55 -31 22
    -59 39 -62 39 -5 0 -52 29 -156 95 -19 12 -127 77 -240 145 -113 67 -277 166
    -365 220 l-160 98 -6 414 c-4 227 -11 454 -16 505 l-9 91 -32 36 c-18 20 -32
    41 -32 46 0 6 -11 10 -24 10 -18 0 -23 4 -19 18 6 25 -57 64 -131 82 l-59 14
    7 168 c4 111 3 168 -4 168 -6 0 -10 -62 -10 -168 0 -93 -3 -203 -6 -244 l-7
    -76 -56 -26 c-31 -14 -63 -26 -71 -26 -61 0 -480 195 -705 328 -229 134 -453
    300 -508 374 -12 16 -28 28 -36 28 -34 0 156 -170 304 -272 152 -105 459 -279
    610 -346 39 -17 111 -49 161 -71 50 -22 120 -47 155 -56 91 -23 94 -24 82 -36
    -48 -48 -654 240 -1027 490 -136 90 -336 271 -336 304 l0 17 19 -12 19 -11 48
    20 c27 11 48 26 46 32 -1 6 30 -15 68 -48 82 -69 259 -191 380 -263 245 -145
    772 -399 785 -379 2 5 -17 16 -43 26 -26 10 -56 24 -67 31 -11 7 -67 33 -125
    58 -103 44 -323 157 -490 250 -88 49 -337 211 -355 230 -5 6 -40 35 -77 65
    l-68 54 0 41 0 40 50 -49 c27 -27 52 -46 56 -43 3 4 -15 27 -41 51 -50 49 -59
    89 -20 95 l20 3 -15 -10 -15 -10 15 -28 c33 -60 370 -293 560 -388 19 -9 44
    -26 56 -36 11 -11 29 -21 40 -23 10 -3 96 -41 189 -86 215 -104 375 -172 375
    -159 0 5 -8 12 -17 16 -31 10 -253 113 -393 181 -74 37 -143 67 -153 68 -10 1
    -23 8 -30 16 -7 8 -37 29 -67 45 -115 63 -197 110 -250 145 -113 74 -196 134
    -231 166 -20 18 -45 39 -55 47 l-18 13 13 25 c24 44 0 60 -42 27z m-178 -174
    c7 -8 8 -16 3 -18 -5 -1 -39 -129 -76 -283 -38 -154 -83 -336 -101 -405 -18
    -69 -45 -180 -61 -247 -26 -114 -41 -143 -58 -114 -6 9 36 204 74 351 11 41
    44 179 75 305 99 416 111 451 144 411z m131 6 c0 -9 -66 -32 -88 -32 -6 0 -16
    9 -22 20 l-11 20 61 0 c33 0 60 -4 60 -8z m-35 -191 c-4 -67 -20 -258 -30
    -366 -8 -77 -17 -180 -20 -230 -7 -88 -20 -131 -47 -152 -19 -15 -217 -77
    -224 -70 -3 3 6 47 20 99 15 51 51 200 81 331 30 131 59 246 64 255 5 9 18 64
    31 122 12 58 24 108 27 113 4 7 98 -91 98 -102z m42 -33 c9 -13 -14 -334 -36
    -498 -6 -41 -13 -104 -17 -139 l-6 -64 -32 -32 c-23 -25 -60 -42 -152 -74
    -136 -46 -134 -46 -134 -28 0 7 44 29 103 50 188 68 185 65 203 264 7 81 16
    159 18 173 3 14 10 100 17 193 12 163 16 180 36 155z m73 -214 c0 -88 -3 -215
    -7 -282 l-6 -122 -16 -4 c-9 -2 -29 -7 -45 -11 l-28 -6 6 98 c7 93 30 356 42
    470 l5 53 24 -18 24 -17 1 -161z m84 98 c251 -187 917 -522 1038 -522 10 0 21
    -7 24 -15 8 -19 -114 -716 -142 -812 -2 -8 -44 11 -116 53 -166 98 -235 134
    -254 134 -10 0 -26 7 -35 16 -10 9 -90 60 -177 113 -88 53 -219 132 -291 176
    l-132 80 5 90 c4 50 9 233 13 408 3 174 8 317 11 317 3 0 28 -17 56 -38z
    m1223 -283 c75 -30 114 -52 110 -62 -4 -13 -95 -16 -139 -4 l-28 7 0 35 c0 38
    10 43 57 24z m85 -96 c55 -4 79 -10 83 -21 l5 -15 -80 6 c-44 3 -80 2 -80 -3
    0 -14 29 -20 91 -20 l59 0 0 -20 c0 -26 -29 -40 -87 -40 l-49 0 -36 38 c-20
    20 -40 50 -44 66 l-7 29 34 -7 c19 -4 69 -9 111 -13z m-158 -70 c-3 -16 -9
    -37 -14 -48 -5 -11 -20 -85 -35 -165 -14 -80 -37 -203 -51 -275 -13 -71 -42
    -233 -64 -360 -54 -312 -58 -327 -78 -303 -6 8 -7 29 -1 58 16 85 38 205 89
    495 28 160 57 315 65 345 7 30 19 90 26 133 8 52 16 77 25 77 8 0 14 5 14 10
    0 6 -16 10 -37 10 -20 0 -33 3 -29 8 6 5 80 39 94 41 1 1 0 -11 -4 -26z m271
    8 c3 -5 1 -12 -4 -15 -5 -3 -11 1 -15 9 -6 16 9 21 19 6z m-223 -18 c23 -21
    23 -33 -1 -33 -11 0 -22 -4 -25 -9 -3 -4 -26 -120 -51 -257 -25 -137 -54 -296
    -65 -354 -11 -58 -34 -186 -51 -285 -17 -99 -35 -184 -40 -190 -6 -5 -9 -4 -9
    5 0 24 89 533 105 605 9 37 29 147 45 244 28 166 57 291 68 291 3 0 14 -7 24
    -17z m253 -65 c5 -29 9 -282 10 -563 l3 -510 -162 -32 c-88 -18 -190 -39 -226
    -47 -190 -42 -407 -36 -525 14 -11 5 -63 23 -115 40 -52 18 -125 46 -163 62
    -37 17 -70 28 -74 25 -3 -4 -4 -9 -2 -10 18 -15 327 -131 396 -149 l88 -23
    155 1 155 1 175 37 c96 21 203 43 238 51 47 9 65 10 68 1 2 -6 1 -56 -3 -111
    l-8 -99 -200 -47 c-110 -25 -258 -61 -330 -79 -99 -24 -161 -33 -260 -37
    l-130 -5 -78 21 c-42 11 -131 42 -197 68 l-120 47 0 34 c0 25 15 57 56 117 31
    46 54 91 52 102 -2 12 -62 48 -188 113 -216 111 -341 184 -500 290 -63 43
    -126 83 -139 90 l-23 12 -27 -19 c-14 -11 -48 -54 -76 -96 -27 -41 -53 -76
    -56 -76 -13 -2 -110 92 -124 118 l-14 27 23 55 c27 68 74 138 138 206 l48 52
    0 -32 c1 -57 38 -118 125 -204 46 -46 92 -83 102 -83 l18 1 -25 20 c-87 70
    -123 105 -159 160 l-41 61 0 48 c0 73 20 80 58 21 53 -82 304 -299 334 -289 5
    2 -21 26 -58 53 -182 132 -293 256 -280 311 l7 25 22 -7 c12 -4 46 -33 75 -65
    100 -110 293 -252 468 -345 49 -25 107 -57 129 -70 58 -33 375 -180 475 -220
    259 -103 305 -123 309 -136 18 -54 121 -50 343 13 81 24 113 38 134 61 l29 29
    7 67 c4 37 10 261 13 497 4 237 8 436 10 443 11 32 33 9 40 -40z m-60 -423
    c-8 -376 -20 -523 -43 -554 -31 -42 -266 -113 -364 -110 -24 1 -33 4 -20 6 12
    2 22 10 22 16 0 7 41 20 103 31 219 40 248 51 260 97 8 29 -12 34 -22 6 -6
    -14 -15 -28 -20 -32 -8 -4 -8 1 -2 17 5 13 12 100 16 193 4 94 9 184 11 200
    10 75 16 483 7 515 l-10 35 -76 0 c-54 -1 -74 2 -66 10 5 5 48 10 94 10 46 0
    87 4 92 8 16 17 24 -172 18 -448z m-1485 299 c0 -69 -3 -123 -7 -121 -5 2 -45
    25 -90 52 l-82 48 29 27 c17 16 37 44 45 64 11 25 23 37 43 42 15 3 32 7 37 9
    6 2 13 4 18 4 4 1 7 -56 7 -125z m1410 -157 c0 -145 -3 -325 -7 -400 l-6 -136
    -126 -30 c-69 -17 -132 -31 -138 -31 -18 0 -16 40 7 145 11 50 43 221 70 380
    28 160 55 300 60 313 l10 22 65 0 65 0 0 -263z m-1513 69 c55 -27 322 -184
    361 -211 57 -41 2 -85 -157 -124 l-123 -31 -87 54 c-174 111 -354 276 -321
    296 57 35 102 20 334 -109 100 -55 116 -71 74 -71 -30 0 -138 -33 -138 -42 0
    -13 22 -10 109 18 l83 26 34 -18 34 -18 -23 -13 c-12 -6 -52 -19 -89 -28 -38
    -10 -66 -21 -63 -25 3 -4 49 3 102 17 l98 25 33 -17 c25 -11 33 -12 30 -3 -6
    16 -152 101 -354 204 -84 43 -154 81 -154 84 0 3 26 15 58 26 l57 21 25 -17
    c14 -10 48 -29 77 -44z m485 -289 c69 -41 188 -116 197 -124 8 -6 -43 -53 -59
    -53 -13 0 -240 129 -264 150 -8 8 31 70 45 70 4 0 40 -20 81 -43z m-22 -109
    c66 -40 120 -76 120 -80 0 -22 -60 -2 -142 48 -51 31 -105 64 -120 73 -35 20
    -35 31 -3 31 14 0 80 -33 145 -72z m-198 7 c-3 -37 -1 -55 7 -55 6 0 11 17 11
    40 0 22 3 40 7 40 9 0 212 -120 217 -129 3 -4 -21 -14 -52 -24 l-57 -18 -137
    72 c-76 39 -138 74 -138 79 0 4 26 15 58 24 31 10 62 19 67 21 6 2 13 4 16 4
    3 1 4 -24 1 -54z m-649 -22 c-31 -12 -14 -31 110 -120 l79 -56 -7 -36 c-4 -20
    -8 -36 -8 -37 -1 -1 -40 -11 -87 -23 -74 -20 -125 -42 -94 -41 13 1 185 48
    189 52 1 2 7 17 12 33 12 37 39 41 35 5 -1 -14 9 -61 23 -105 14 -44 28 -98
    31 -121 l6 -40 -78 -21 c-44 -12 -91 -24 -106 -27 -16 -4 -28 -10 -28 -15 0
    -5 16 -5 38 0 20 5 68 16 106 24 92 19 98 30 72 121 -28 95 -53 194 -50 194 3
    0 23 -12 45 -26 112 -71 491 -255 512 -248 l21 7 -19 -29 c-40 -63 -44 -67
    -77 -69 -18 -1 -67 -5 -108 -9 -47 -5 -70 -4 -62 2 l14 9 -13 22 c-8 11 -22
    21 -32 21 -11 0 -17 6 -15 13 4 11 20 15 141 33 26 3 50 11 54 17 4 7 -9 8
    -38 4 -24 -3 -68 -9 -97 -13 l-52 -7 15 43 c18 50 18 50 6 50 -6 0 -22 -38
    -37 -85 l-28 -84 25 -27 24 -26 47 4 48 3 0 -17 0 -18 -83 1 c-46 0 -90 5 -98
    9 l-14 9 42 126 c23 68 38 127 34 130 -4 2 -23 -45 -42 -106 l-34 -110 -20 7
    c-11 3 -30 6 -42 6 -23 0 -31 22 -13 33 12 8 12 200 -1 235 -5 16 -7 -19 -5
    -97 3 -73 0 -125 -6 -129 -5 -3 -13 -16 -18 -29 l-8 -22 -92 -10 c-85 -10
    -110 -17 -99 -27 3 -3 60 3 128 13 119 17 171 17 171 1 0 -13 -56 -27 -145
    -39 -44 -6 -93 -13 -110 -16 l-30 -6 -43 64 c-60 88 -138 307 -159 445 -3 17
    -10 32 -15 32 -5 0 -7 -12 -4 -27 3 -16 10 -57 17 -93 16 -93 100 -299 148
    -366 l41 -57 0 -62 0 -63 -75 -51 c-54 -37 -81 -50 -95 -46 l-20 6 0 83 c0 98
    10 206 19 206 4 0 35 -18 69 -40 59 -39 90 -51 77 -30 -3 5 -38 29 -76 51 -97
    58 -144 131 -50 78 23 -12 43 -20 46 -17 7 7 -94 70 -115 73 -8 1 -23 5 -33
    10 l-19 8 7 102 c5 71 4 105 -4 109 -26 16 -11 77 35 148 57 87 78 108 107
    107 12 0 16 -3 10 -6z m101 -53 c89 -67 322 -202 526 -307 200 -103 184 -93
    173 -104 -10 -10 -70 12 -158 58 -210 109 -270 142 -370 202 -192 117 -295
    201 -246 201 5 0 38 -23 75 -50z m996 32 c0 -5 -11 -19 -25 -32 l-25 -23 16
    -18 c9 -10 25 -21 35 -24 35 -11 19 -22 -61 -40 -44 -10 -80 -22 -80 -27 0
    -11 -1 -11 95 13 86 22 115 21 149 -4 l20 -15 -68 -15 c-38 -9 -73 -20 -79
    -26 -18 -18 22 -13 98 10 51 17 72 19 84 11 9 -6 62 -39 119 -73 l103 -61 -7
    -32 c-8 -41 -6 -40 -50 -21 -22 9 -95 38 -164 65 -69 26 -156 62 -195 80 -38
    18 -110 50 -160 72 -49 22 -92 41 -94 43 -1 2 17 9 40 15 135 35 185 54 207
    82 23 27 42 36 42 20z m160 -73 c58 -34 136 -79 174 -101 l68 -40 -6 -30 c-3
    -17 -6 -37 -6 -44 0 -22 -17 -17 -78 24 -31 22 -113 72 -182 112 -161 94 -153
    87 -133 116 23 36 48 30 163 -37z m-1442 -105 l-3 -19 -48 45 c-45 41 -77 86
    -77 109 0 5 30 -19 66 -53 45 -43 65 -69 62 -82z m21 -106 c0 -27 -3 -48 -8
    -48 -17 0 -133 113 -142 138 -7 17 -5 34 3 53 l12 28 67 -62 67 -62 1 -47z
    m2042 42 c-1 -25 -4 -46 -6 -48 -1 -1 -26 12 -54 29 -28 18 -50 34 -48 35 9 9
    84 33 97 31 11 -2 14 -13 11 -47z m-2053 -151 l-3 -24 -73 69 c-56 54 -72 75
    -72 98 l0 28 76 -73 c61 -58 75 -78 72 -98z m1974 124 c77 -45 73 -42 65 -49
    -6 -7 -109 -33 -224 -58 l-63 -14 0 19 c0 10 5 40 11 68 l10 49 62 10 c34 5
    65 10 69 11 4 0 35 -16 70 -36z m413 -133 c61 -34 133 -77 160 -95 28 -17 68
    -42 90 -55 22 -13 63 -38 90 -55 75 -48 303 -185 359 -216 l49 -27 -39 -11
    c-83 -21 -94 -23 -94 -13 0 5 -73 54 -162 107 -90 54 -194 118 -233 142 -38
    24 -139 85 -222 135 l-153 91 0 37 c0 44 8 55 29 37 9 -8 66 -42 126 -77z
    m-2489 49 c10 -12 47 -44 82 -71 l62 -50 0 -146 c0 -81 -4 -153 -9 -161 l-9
    -14 -29 21 c-48 34 -100 97 -111 133 -12 41 -23 309 -13 309 4 0 16 -9 27 -21z
    m2534 -186 c63 -39 198 -121 300 -183 102 -62 203 -124 225 -136 54 -32 53
    -32 -375 -78 -177 -20 -262 -40 -125 -31 85 6 295 29 407 45 37 6 81 10 98 10
    l31 0 -2 -120 -1 -121 -32 -13 c-29 -12 -388 -106 -405 -106 -5 0 -12 17 -16
    38 -11 57 -84 189 -122 221 -38 31 -99 51 -157 51 l-36 0 1 33 c0 17 4 55 9
    82 5 29 4 54 -1 60 -20 21 -6 32 56 44 75 13 112 28 119 47 8 22 -65 89 -116
    108 l-48 18 0 62 c0 76 4 81 44 57 17 -10 83 -50 146 -88z m-1715 -2 c3 -5 1
    -12 -4 -15 -12 -8 -41 3 -41 15 0 12 37 12 45 0z m1629 -102 l19 -18 -14 -17
    -14 -17 23 7 c13 4 22 3 22 -3 0 -11 -46 -25 -117 -36 l-43 -7 0 26 c0 13 5
    28 10 31 6 3 10 24 10 46 l0 39 43 -17 c23 -8 51 -24 61 -34z m-2370 -139 c37
    -27 46 -39 46 -63 l0 -29 -27 17 c-48 30 -82 67 -103 110 -31 64 -26 86 9 38
    16 -22 50 -55 75 -73z m2231 32 l1 -57 -206 -49 c-113 -27 -270 -64 -350 -83
    l-145 -34 -130 4 -130 4 -80 25 c-44 14 -120 43 -170 63 l-90 38 3 59 c3 40 8
    58 15 54 248 -109 403 -140 577 -117 67 9 372 74 450 95 70 20 219 55 235 55
    l20 1 0 -58z m-1314 -86 c-12 -26 -5 -97 10 -101 16 -5 16 -45 0 -45 -12 0
    -101 59 -101 67 1 23 19 36 33 25 7 -7 17 -9 20 -5 4 3 -2 12 -13 20 l-19 14
    32 65 32 66 5 -48 c3 -27 4 -53 1 -58z m-862 -70 c28 -15 45 -56 22 -56 -16 0
    -112 92 -128 124 l-16 31 45 -42 c25 -23 60 -49 77 -57z m2177 -8 c-4 -51 -8
    -94 -10 -95 -1 -2 -34 -9 -72 -17 -91 -19 -172 -41 -264 -73 -193 -66 -236
    -111 -305 -315 l-34 -103 -51 -9 c-97 -17 -257 20 -470 109 -78 33 -69 25 -76
    62 l-6 31 108 -35 c60 -19 137 -37 170 -40 l62 -6 16 25 c9 14 21 61 28 104
    19 138 -21 213 -132 249 -30 9 -103 37 -162 62 l-108 45 0 29 c0 36 -7 36 92
    -5 46 -19 124 -47 173 -63 l90 -28 140 1 140 0 140 33 c138 32 193 46 410 101
    61 15 114 28 119 29 5 1 6 -38 2 -91z m1032 -3 c45 -27 78 -51 72 -53 -12 -4
    -169 90 -170 101 0 11 1 11 98 -48z m-38 -17 c79 -46 113 -79 97 -94 -2 -2
    -25 7 -51 22 -25 14 -53 23 -62 20 -9 -3 -48 13 -91 38 l-75 45 33 9 c53 16
    54 15 149 -40z m-164 2 c5 -5 34 -22 64 -39 l54 -30 -27 -6 c-32 -8 -36 -22
    -39 -128 l-3 -78 -42 28 -43 27 0 118 c0 118 7 137 36 108z m-2173 -50 l47
    -24 0 -125 0 -126 -32 55 c-17 30 -41 71 -54 91 -19 27 -24 49 -24 98 0 34 3
    61 8 59 4 -2 28 -14 55 -28z m191 -20 c163 -68 186 -81 209 -112 39 -53 31
    -223 -12 -262 l-18 -16 -54 10 c-68 13 -213 58 -233 74 l-16 11 -2 173 c-2 94
    -1 172 1 172 3 0 59 -23 125 -50z m1275 14 c45 -9 124 -84 149 -141 37 -87 74
    -244 69 -295 -4 -46 7 -65 19 -33 7 17 102 47 330 104 89 22 169 43 178 47
    l17 7 -3 -38 -3 -38 -145 -39 c-80 -22 -194 -53 -254 -69 -60 -16 -118 -31
    -128 -35 -12 -3 -18 0 -18 10 0 9 -4 16 -10 16 -5 0 -10 -19 -10 -42 -1 -70
    -17 -22 -23 68 -17 223 -86 344 -208 360 -28 4 -49 12 -49 19 0 6 -7 26 -15
    42 -29 57 6 76 104 57z m902 -31 c44 -29 42 -38 -13 -48 l-38 -7 0 41 c0 49
    -1 48 51 14z m-64 -60 c-4 -38 -8 -117 -9 -178 l-2 -110 -6 170 c-5 180 -5
    185 12 185 7 0 9 -22 5 -67z m-957 21 c18 -47 14 -51 -82 -68 -107 -20 -247
    -65 -329 -106 -91 -46 -134 -110 -179 -265 l-26 -90 -40 -13 c-27 -10 -69 -12
    -139 -9 l-100 5 -117 41 c-170 59 -227 86 -237 113 -12 32 -3 32 70 0 188 -85
    445 -125 501 -79 8 7 25 50 38 97 45 166 83 216 206 279 81 40 327 112 417
    120 4 1 12 -11 17 -25z m926 -27 c-2 -17 -4 -92 -5 -164 0 -81 -5 -133 -11
    -133 -11 0 -14 256 -4 309 8 40 23 31 20 -12z m-752 -81 c36 -36 71 -117 82
    -188 l7 -41 -14 8 c-8 5 -31 19 -51 31 l-36 23 -8 58 c-4 32 -13 75 -20 97
    -17 46 -17 46 -4 46 5 0 25 -15 44 -34z m662 -43 c28 -18 44 -35 44 -48 l0
    -20 -107 -33 c-125 -37 -407 -111 -411 -107 -6 5 -21 119 -17 124 7 6 405 108
    429 110 10 0 38 -11 62 -26z m-566 -241 l0 -34 -32 19 c-74 44 -74 44 -70 74
    l4 28 49 -27 49 -27 0 -33z"/>
    <path d="M2080 3403 c-24 -15 -39 -28 -34 -30 15 -5 98 43 87 50 -5 3 -29 -6
    -53 -20z"/>
    <path d="M2117 3373 c-47 -32 -41 -43 8 -14 20 11 43 21 51 21 8 0 12 5 9 10
    -10 15 -27 11 -68 -17z"/>
    <path d="M2165 3343 c-21 -15 -34 -28 -27 -31 6 -2 25 6 41 17 16 12 34 21 40
    21 6 0 11 5 11 10 0 17 -24 11 -65 -17z"/>
    <path d="M2227 3330 c-14 -11 -30 -20 -35 -20 -18 0 -24 -20 -12 -35 7 -8 32
    -25 57 -37 l45 -22 16 21 c9 11 28 26 42 34 14 7 20 14 13 16 -7 3 -22 -1 -35
    -8 -13 -8 -27 -12 -32 -11 -5 2 -6 -4 -3 -13 9 -22 -12 -19 -58 10 -25 15 -33
    24 -22 25 9 0 17 4 17 10 0 5 11 12 25 16 14 3 25 12 25 20 0 19 -13 17 -43
    -6z"/>
    <path d="M2270 3300 c-16 -13 -20 -20 -10 -19 16 0 50 22 50 33 0 11 -14 6
    -40 -14z"/>
    <path d="M2353 3240 c-18 -11 -33 -25 -33 -31 0 -5 12 -2 28 9 15 10 36 24 47
    30 14 8 16 11 5 12 -8 0 -30 -9 -47 -20z"/>
    <path d="M2395 3205 c-16 -13 -25 -24 -18 -25 12 0 83 39 83 46 0 13 -39 0
    -65 -21z"/>
    <path d="M2457 3184 c-44 -29 -44 -42 -1 -19 16 8 37 15 47 15 10 0 17 5 15
    12 -7 21 -22 19 -61 -8z"/>
    <path d="M2552 3198 c8 -23 521 -248 535 -234 9 8 9 8 -82 43 -112 43 -363
    156 -405 181 -39 25 -54 28 -48 10z"/>
    <path d="M1946 3143 c-3 -4 3 -12 14 -20 26 -18 25 -33 -1 -33 -12 0 -23 8
    -26 20 -3 11 -9 17 -14 14 -17 -10 -9 -34 17 -50 l25 -17 21 20 20 21 -11 20
    c-11 21 -35 34 -45 25z"/>
    <path d="M2024 3053 c23 -77 18 -84 -57 -98 -24 -5 -35 -11 -29 -17 13 -13
    103 14 116 34 11 19 -9 98 -25 98 -6 0 -8 -8 -5 -17z"/>
    <path d="M1835 3001 c-3 -5 7 -11 22 -13 30 -3 47 -38 19 -38 -9 0 -16 -5 -16
    -11 0 -18 45 -5 48 14 7 36 -55 76 -73 48z"/>
    <path d="M1537 3003 c-4 -3 -7 -47 -7 -96 l0 -89 39 -39 c21 -22 46 -39 56
    -39 l17 0 -4 95 -4 95 -39 40 c-40 41 -47 45 -58 33z m35 -34 c30 -16 48 -71
    48 -146 l0 -68 -37 38 -38 37 -3 75 c-4 79 -3 82 30 64z"/>
    <path d="M3998 2643 c-42 -6 -34 -18 40 -59 37 -20 79 -46 94 -56 31 -21 108
    -22 115 -1 5 14 -179 124 -204 122 -10 -1 -30 -4 -45 -6z m138 -55 c76 -44 89
    -58 54 -58 -25 0 -170 78 -170 91 0 20 47 7 116 -33z"/>
    <path d="M4513 2423 l-23 -4 0 -83 0 -83 30 5 c41 6 49 22 11 22 l-31 0 0 28
    c0 15 3 44 6 65 l7 37 23 0 c13 0 24 5 24 10 0 10 -8 11 -47 3z"/>
    <path d="M4347 2403 c-4 -3 -7 -49 -7 -100 l0 -95 33 7 c34 7 54 21 45 30 -3
    3 -17 1 -31 -4 l-25 -10 -4 75 -3 74 21 0 c12 0 27 7 34 15 l12 15 -34 0 c-19
    0 -38 -3 -41 -7z"/>
    <path d="M2857 2536 c-5 -13 0 -25 19 -43 l26 -24 84 -6 84 -6 20 18 c11 10
    20 27 20 38 l0 20 -21 -27 -20 -26 -70 0 -69 0 -17 20 c-10 11 -23 20 -29 20
    -7 0 -14 8 -16 18 l-4 17 -7 -19z"/>
    <path d="M2626 2367 c-22 -33 -23 -139 -2 -171 10 -16 39 -32 81 -46 35 -12
    67 -26 70 -31 11 -17 44 -9 56 12 6 12 11 54 10 92 -1 85 17 81 26 -6 6 -61
    -10 -117 -33 -117 -8 0 -14 -4 -14 -10 0 -22 32 -8 50 23 43 69 9 209 -51 214
    -21 1 -68 18 -166 60 -6 2 -19 -6 -27 -20z m102 -32 c34 -14 70 -25 79 -25
    l18 0 3 -70 c1 -39 -2 -79 -8 -90 l-10 -19 -68 24 c-37 12 -74 26 -83 30 -26
    10 -42 88 -29 135 13 47 18 48 98 15z"/>
    <path d="M3561 4889 c-9 -10 -35 -26 -56 -35 -22 -9 -62 -26 -90 -39 -27 -12
    -60 -25 -73 -29 -36 -12 -23 -25 62 -62 92 -40 126 -43 126 -14 0 30 38 26 50
    -6 l10 -25 83 6 c120 9 118 7 43 85 -37 38 -71 82 -77 98 -13 37 -53 48 -78
    21z m49 -5 c0 -3 -8 -35 -17 -70 -13 -50 -21 -64 -36 -64 -13 0 -17 5 -14 14
    3 8 11 34 17 58 17 65 18 68 35 68 8 0 15 -3 15 -6z m-64 -56 c-4 -13 -12 -44
    -18 -70 -13 -56 -17 -57 -103 -22 -60 24 -83 44 -52 44 6 0 46 16 87 35 90 41
    94 41 86 13z m128 -116 c-37 -2 -71 1 -76 6 -6 6 -3 33 8 68 l17 59 59 -65 59
    -65 -67 -3z"/>
    <path d="M7773 4893 c-23 -9 -14 -22 13 -20 33 2 43 -18 13 -26 -22 -6 -18
    -27 7 -27 19 0 18 -29 -1 -36 -8 -4 -22 -1 -29 5 -10 8 -16 9 -21 1 -9 -14 35
    -29 60 -20 l20 7 1 49 c1 66 -17 86 -63 67z"/>
    <path d="M7880 4885 c-6 -8 -14 -32 -17 -54 l-5 -39 25 -17 c20 -13 30 -14 46
    -5 42 22 16 89 -30 77 -15 -4 -19 -2 -15 10 3 8 6 17 6 19 0 2 11 4 25 4 14 0
    25 5 25 10 0 15 -46 12 -60 -5z m50 -75 c0 -24 -26 -38 -42 -22 -16 16 -2 42
    22 42 13 0 20 -7 20 -20z"/>
    <path d="M7986 4884 c-26 -26 -21 -90 9 -110 l26 -17 20 19 21 19 -5 44 c-6
    58 -38 78 -71 45z m49 -54 l0 -45 -20 0 c-15 0 -21 8 -23 33 -4 45 4 64 25 60
    14 -3 18 -13 18 -48z"/>
    <path d="M7296 4758 c-13 -48 -39 -174 -61 -293 -25 -138 -68 -368 -125 -660
    -16 -82 -26 -152 -21 -155 4 -3 10 -13 14 -22 9 -25 48 -23 54 2 3 11 13 20
    23 20 l17 0 12 78 c7 42 28 149 46 237 19 88 55 277 80 420 26 143 53 286 62
    318 18 66 16 72 -21 55 -21 -9 -32 -9 -47 0 -24 15 -29 15 -33 0z m34 -22 c0
    -3 -34 -178 -74 -378 -13 -65 -20 -118 -15 -118 10 0 25 50 38 130 6 36 22
    127 36 203 14 76 25 142 25 146 0 5 9 11 20 14 14 4 20 0 20 -11 0 -23 -54
    -312 -133 -712 -19 -96 -41 -210 -47 -253 -12 -71 -30 -114 -30 -69 0 20 18
    126 26 155 3 9 1 17 -4 17 -5 0 -17 -44 -26 -97 -22 -121 -25 -133 -36 -133
    -24 0 -26 55 -5 150 8 36 25 126 39 200 13 74 39 214 56 310 18 96 34 178 36
    182 2 3 11 44 19 90 24 131 36 178 46 178 5 0 9 -2 9 -4z"/>
    <path d="M8193 4747 c3 -9 -1 -18 -10 -21 -8 -4 -13 -13 -9 -21 l6 -15 -21 11
    c-11 6 -23 9 -25 6 -3 -2 2 -57 11 -121 19 -144 19 -133 -5 -139 l-20 -5 -1
    -74 c-1 -40 -2 -95 -4 -123 -1 -27 -4 -192 -5 -365 -1 -173 -6 -409 -10 -525
    -5 -115 -11 -285 -15 -377 l-6 -168 20 0 c32 0 69 -21 75 -42 l5 -21 28 7 c15
    4 42 10 59 13 l32 5 6 46 c3 26 5 92 5 147 0 55 1 123 3 150 2 28 2 113 0 190
    -1 77 -2 255 -1 395 1 291 -16 650 -36 760 -7 41 -18 109 -25 150 -18 120 -20
    125 -42 139 l-21 13 6 -15z m37 -123 c5 -49 12 -110 15 -136 l6 -48 -24 0
    c-40 0 -54 21 -61 90 -3 36 -9 85 -12 109 -6 35 -4 43 7 39 13 -4 18 -28 35
    -165 3 -24 8 -43 12 -43 4 0 2 53 -4 118 -9 86 -9 119 -1 124 16 10 17 9 27
    -88z m-72 -596 l-3 -401 -13 -5 -13 -4 2 363 c3 384 5 449 20 449 5 0 8 -166
    7 -402z m47 64 c0 -174 -1 -396 -3 -492 -1 -96 -2 -236 0 -310 2 -74 2 -157 0
    -185 -1 -27 -3 -108 -3 -180 0 -71 -5 -134 -10 -139 -6 -6 -9 -4 -9 6 0 9 -9
    19 -20 23 l-20 6 6 187 c3 103 9 264 14 357 5 94 10 265 11 380 0 116 2 222 3
    238 1 15 3 122 4 239 2 170 5 210 15 200 9 -10 12 -90 12 -330z m68 283 c4
    -22 10 -198 14 -391 l6 -351 -38 -7 c-20 -4 -38 -6 -40 -4 -1 2 2 102 7 223 4
    121 5 295 2 386 -4 92 -3 172 1 179 14 23 40 5 48 -35z m-120 -807 c2 -18 3
    -35 0 -38 -7 -8 -23 24 -23 48 0 34 17 26 23 -10z m127 -42 c0 -41 5 -78 10
    -81 16 -10 3 -22 -32 -29 -42 -8 -48 3 -48 95 0 85 2 89 42 89 l28 0 0 -74z
    m-140 -258 c-7 -122 -15 -271 -17 -330 -3 -64 -9 -108 -15 -108 -7 0 -8 52 -5
    153 5 127 24 512 26 527 1 2 6 -1 12 -7 8 -8 8 -71 -1 -235z m165 30 c-8 -116
    -13 -128 -53 -128 l-23 0 3 112 3 112 25 7 c14 4 31 7 38 8 l14 1 -7 -112z
    m-15 -188 l0 -50 -27 -11 c-41 -15 -53 -5 -53 45 l0 45 33 10 c17 5 35 10 40
    10 4 1 7 -22 7 -49z m5 -127 c-2 -27 -4 -80 -5 -119 l0 -72 -37 -4 c-21 -3
    -39 -4 -41 -2 -2 1 0 54 4 118 l7 115 16 4 c9 3 26 5 38 6 l22 1 -4 -47z"/>
    <path d="M5130 4693 c-25 -8 -157 -44 -295 -79 -345 -87 -634 -162 -673 -175
    l-34 -11 7 -25 c4 -18 2 -24 -7 -21 -23 8 -47 -23 -41 -54 3 -17 1 -28 -6 -28
    -6 0 -11 -12 -11 -26 l0 -26 -15 12 c-9 7 -19 10 -23 6 -10 -11 28 -36 54 -36
    12 0 25 6 27 13 5 12 21 -3 30 -28 2 -5 83 12 183 39 98 26 287 76 419 111
    132 34 288 76 348 91 l107 29 0 27 c0 21 5 28 19 28 10 0 24 6 30 14 l12 15
    -21 11 -22 12 6 40 c5 31 3 45 -10 59 -20 23 -26 23 -84 2z m78 -26 c9 -10
    -31 -24 -196 -66 -369 -95 -685 -178 -766 -202 l-80 -22 -5 14 c-2 8 -5 16 -5
    17 -2 8 87 34 279 83 110 28 225 58 255 66 154 43 468 122 486 122 12 1 26 -5
    32 -12z m-5 -52 c8 -18 4 -20 -68 -35 -33 -7 -67 -19 -75 -27 l-14 -13 15 0
    c8 0 45 8 81 19 72 20 103 16 41 -5 -21 -7 -144 -40 -273 -73 -404 -103 -764
    -198 -782 -206 -10 -4 -18 -3 -18 3 0 5 21 15 48 22 56 15 83 36 36 27 -18 -3
    -43 -9 -56 -12 -19 -5 -27 -2 -32 11 -8 22 -4 26 38 31 19 2 93 19 163 38 70
    18 211 56 313 83 102 27 201 53 220 57 19 4 96 24 170 45 120 34 160 45 181
    49 4 0 9 -6 12 -14z m-13 -94 c0 -21 26 -13 -575 -170 -148 -39 -310 -82 -360
    -96 l-90 -25 -12 13 -13 13 167 47 c93 25 233 62 313 82 80 19 167 43 195 52
    53 17 342 91 363 92 6 1 12 -3 12 -8z"/>
    <path d="M7893 4678 l-52 -9 -21 -36 -21 -37 16 -37 c12 -26 14 -42 8 -54 -8
    -13 -4 -24 13 -43 l24 -25 0 -171 c0 -94 -5 -265 -10 -379 -5 -115 -6 -214 -4
    -220 3 -7 16 -20 29 -30 l24 -17 48 11 c26 6 53 18 60 27 7 8 19 12 27 9 9 -4
    17 -3 19 1 2 4 -2 211 -8 461 l-13 453 -28 23 -28 22 20 11 19 12 -25 20 c-28
    22 -24 21 -97 8z m77 -18 c11 -7 -1 -9 -40 -9 l-55 2 35 7 c19 4 37 8 40 9 3
    0 12 -4 20 -9z m-45 -29 c44 4 55 -8 21 -21 -30 -11 -76 -13 -100 -4 -12 5
    -13 10 -5 25 l10 19 20 -11 c11 -6 36 -9 54 -8z m73 -48 l20 -18 11 -439 c7
    -241 11 -440 9 -442 -25 -24 -48 336 -48 745 0 95 -4 142 -12 147 -11 7 -6
    -433 8 -798 l5 -117 -42 -11 c-22 -6 -42 -10 -43 -8 -2 2 0 181 4 398 6 417 6
    423 -41 475 -28 31 -47 75 -32 75 24 0 53 -33 53 -61 0 -16 5 -29 10 -29 6 0
    8 15 4 39 l-6 40 33 10 c47 13 44 13 67 -6z m-113 -119 l17 -37 -7 -384 c-5
    -275 -11 -383 -19 -380 -11 4 -11 517 0 689 l6 86 -20 30 c-12 16 -19 32 -15
    35 9 10 19 0 38 -39z"/>
    <path d="M6825 4341 c-31 -50 -32 -71 -4 -71 12 0 28 -8 35 -17 l13 -18 1 17
    c0 9 6 19 13 22 10 5 10 7 0 12 -7 3 -13 23 -13 44 0 54 -15 58 -45 11z m21
    -48 c-13 -14 -25 9 -13 28 l12 20 3 -21 c2 -12 1 -24 -2 -27z"/>
    <path d="M6933 4340 c-30 -51 -29 -70 2 -70 16 0 25 -6 25 -16 0 -8 5 -12 10
    -9 6 4 8 10 5 15 -3 4 3 11 13 15 l17 6 -17 10 c-13 7 -18 22 -18 49 0 50 -9
    50 -37 0z m27 -20 c0 -20 -5 -30 -15 -30 -18 0 -18 2 -3 35 15 32 18 32 18 -5z"/>
    <path d="M7026 4364 c-14 -36 -7 -53 22 -51 l27 2 0 -25 0 -25 -27 2 c-16 1
    -28 -2 -28 -7 0 -12 34 -22 54 -14 38 15 26 94 -14 94 -11 0 -20 5 -20 10 0 6
    11 10 25 10 14 0 25 5 25 10 0 17 -57 12 -64 -6z"/>
    <path d="M4755 4185 c-29 -28 -32 -61 -9 -93 20 -29 50 -28 69 2 23 34 4 70
    -31 63 -19 -3 -24 -1 -22 12 2 9 17 18 33 21 l30 6 -18 7 c-26 10 -25 10 -52
    -18z m50 -70 c0 -23 -34 -33 -46 -14 -10 17 9 41 30 37 9 -2 16 -12 16 -23z"/>
    <path d="M4863 4203 c-7 -2 -13 -20 -13 -39 l0 -35 21 11 c26 15 49 -3 42 -31
    l-6 -21 -28 6 c-16 3 -29 1 -29 -4 0 -15 38 -22 60 -10 39 21 16 102 -25 86
    -9 -3 -15 0 -15 9 0 9 10 15 26 15 14 0 23 4 19 10 -6 10 -31 12 -52 3z"/>
    <path d="M4652 4155 c-27 -56 -27 -55 3 -55 16 0 25 -6 25 -15 0 -8 5 -15 10
    -15 6 0 10 6 10 14 0 8 6 17 13 20 10 5 10 7 0 12 -7 3 -13 23 -13 45 0 53
    -20 51 -48 -6z m28 -10 c0 -15 -6 -25 -15 -25 l-15 0 12 25 c6 14 13 25 15 25
    1 0 3 -11 3 -25z"/>
    <path d="M5690 3975 c0 -14 -8 -29 -20 -35 -11 -6 -22 -21 -26 -34 -6 -24 -15
    -30 -95 -64 -33 -14 -50 -29 -63 -56 -9 -20 -23 -36 -31 -36 -34 0 -20 -22 48
    -72 194 -145 687 -428 746 -428 24 0 38 18 43 55 2 23 16 38 62 70 32 23 65
    53 72 66 7 14 24 30 38 37 19 8 26 19 26 39 l0 28 -141 70 c-203 100 -419 227
    -565 331 -85 61 -94 64 -94 29z m121 -70 c50 -36 117 -79 148 -97 31 -17 63
    -37 71 -44 19 -16 240 -133 352 -187 93 -44 112 -71 62 -83 -30 -8 -148 42
    -280 118 -46 26 -87 48 -89 48 -11 0 -312 194 -352 227 l-43 34 18 24 c9 14
    18 25 19 25 1 0 43 -29 94 -65z m20 -115 c114 -77 315 -192 462 -263 106 -51
    130 -71 110 -90 -3 -4 -31 7 -61 24 -29 16 -59 28 -65 26 -7 -2 14 -17 46 -33
    31 -15 57 -32 57 -36 0 -4 -20 -19 -45 -33 l-45 -27 -45 25 c-25 14 -45 22
    -45 17 0 -5 18 -20 40 -32 38 -22 51 -38 30 -38 -37 0 -436 223 -610 341 -186
    126 -184 121 -85 161 l60 25 68 -46 68 -45 -40 -24 c-23 -13 -41 -28 -41 -33
    0 -13 6 -11 42 11 18 11 41 20 51 20 9 0 17 2 17 5 0 14 -95 92 -148 122 -2 1
    -1 11 3 23 l7 21 41 -32 c23 -17 81 -57 128 -89z m-316 -41 c19 -29 374 -247
    610 -372 133 -71 175 -107 125 -107 -43 0 -491 248 -650 361 -30 21 -72 50
    -92 64 l-38 26 13 19 c13 22 23 25 32 9z"/>
    <path d="M5775 3708 c-28 -16 -41 -27 -30 -24 48 13 95 31 95 38 0 18 -20 14
    -65 -14z"/>
    <path d="M5820 3679 c-43 -26 -45 -28 -38 -35 3 -3 21 4 39 15 19 12 42 21 52
    21 10 0 15 5 12 10 -9 15 -26 12 -65 -11z"/>
    <path d="M5880 3660 c-26 -16 -3 -22 27 -6 l28 15 -20 0 c-11 1 -27 -3 -35 -9z"/>
    <path d="M5926 3635 c-11 -8 -17 -17 -15 -20 7 -6 59 18 59 28 0 12 -23 8 -44
    -8z"/>
    <path d="M5820 3625 c0 -16 78 -65 103 -65 10 0 17 7 17 16 0 11 -5 14 -16 10
    -19 -7 -74 23 -74 41 0 7 -7 13 -15 13 -8 0 -15 -7 -15 -15z"/>
    <path d="M5973 3617 c-13 -5 -23 -14 -23 -19 0 -10 39 -1 53 12 15 13 -7 18
    -30 7z"/>
    <path d="M5992 3583 c-24 -14 -41 -28 -38 -30 7 -7 96 30 96 39 0 17 -18 14
    -58 -9z"/>
    <path d="M6035 3548 c-22 -12 -35 -23 -28 -25 6 -2 25 3 42 11 16 9 37 16 46
    16 9 0 13 5 10 10 -9 15 -25 12 -70 -12z"/>
    <path d="M6095 3528 c-47 -24 -50 -26 -43 -33 3 -3 28 5 57 19 29 13 46 26 39
    29 -8 2 -31 -4 -53 -15z"/>
    <path d="M6135 3950 c-27 -44 -26 -60 6 -60 11 0 22 -7 26 -15 l5 -16 16 22
    c9 13 11 24 6 26 -5 2 -8 21 -6 43 5 54 -19 54 -53 0z m35 -15 c0 -16 -6 -25
    -15 -25 -18 0 -18 5 -5 31 14 26 20 24 20 -6z"/>
    <path d="M6242 3948 c-27 -53 -27 -58 -1 -58 12 0 28 -8 35 -17 l13 -18 1 17
    c0 9 6 19 13 22 10 5 10 7 0 12 -7 3 -13 23 -13 45 0 52 -19 50 -48 -3z m28
    -13 c0 -16 -6 -25 -15 -25 -18 0 -19 4 -3 30 16 26 18 25 18 -5z"/>
    <path d="M6330 3955 c-22 -67 37 -126 74 -73 20 28 20 57 0 86 -24 35 -60 29
    -74 -13z m60 4 c16 -29 3 -79 -21 -79 -24 0 -36 43 -20 76 13 29 27 31 41 3z"/>
    <path d="M6735 3665 c-28 -47 -26 -65 5 -65 10 0 20 -6 22 -12 3 -9 10 -8 23
    5 13 14 15 21 6 30 -6 6 -11 28 -11 49 0 50 -13 48 -45 -7z m21 -32 c-11 -11
    -17 4 -9 23 l7 19 4 -18 c2 -10 1 -21 -2 -24z"/>
    <path d="M6833 3703 c-25 -10 -12 -22 17 -16 37 7 43 -21 8 -31 l-23 -7 23 -9
    c12 -5 22 -16 22 -25 0 -20 -28 -31 -43 -16 -14 14 -27 14 -27 1 0 -19 41 -33
    66 -21 l24 10 -2 48 c-2 66 -20 85 -65 66z"/>
    <path d="M6936 3694 c-32 -32 -7 -124 33 -124 41 0 59 110 22 130 -27 14 -37
    13 -55 -6z m52 -48 c4 -43 -7 -60 -31 -50 -17 6 -25 73 -10 88 18 18 38 -1 41
    -38z"/>
    <path d="M6557 3483 c-4 -3 -7 -12 -7 -19 0 -17 -87 -104 -142 -142 -52 -36
    -57 -44 -51 -88 6 -36 -4 -57 -60 -133 l-40 -54 -2 -139 c-2 -105 1 -147 12
    -168 11 -23 13 -72 11 -233 l-3 -205 18 -19 c9 -11 17 -31 17 -46 0 -34 16
    -44 164 -102 195 -76 345 -101 452 -74 49 13 54 19 75 104 30 122 97 220 183
    270 69 39 259 91 376 102 30 3 58 10 62 17 12 18 9 65 -6 94 -18 37 -31 348
    -15 358 13 8 4 423 -9 436 -4 4 -26 2 -50 -4 -30 -7 -47 -7 -53 -1 -17 17 -49
    3 -49 -21 0 -38 -18 -51 -97 -68 -43 -9 -109 -24 -148 -33 -38 -9 -80 -18 -92
    -21 -13 -2 -23 -11 -23 -19 0 -24 -38 -18 -42 6 l-3 22 -170 64 c-93 34 -198
    77 -231 93 -67 33 -68 33 -77 23z m198 -93 c93 -39 192 -78 221 -87 38 -12 51
    -20 47 -31 -7 -17 14 -32 45 -32 15 0 26 7 29 18 l4 18 157 32 c157 32 192 48
    192 84 0 18 25 36 36 26 8 -8 -16 -61 -33 -73 -10 -8 -12 -14 -5 -19 12 -7 52
    44 52 68 0 9 12 18 28 22 15 3 32 7 39 9 8 3 13 -21 15 -79 l3 -83 -170 -38
    c-344 -76 -391 -85 -451 -85 -122 0 -263 37 -487 129 l-68 28 40 32 40 32 51
    -26 c175 -89 525 -185 586 -161 31 12 1 26 -57 26 -79 0 -186 23 -312 66 -110
    38 -247 102 -247 116 0 11 38 48 50 48 6 0 10 7 10 15 0 22 1 21 185 -55z
    m-230 -161 c295 -124 456 -131 850 -33 33 9 95 24 138 34 l78 18 6 -14 c3 -8
    1 -60 -3 -116 l-9 -102 -195 -47 c-107 -26 -233 -57 -280 -69 -290 -75 -469
    -65 -713 43 l-122 54 3 27 c2 15 23 55 48 88 48 66 59 95 50 132 -12 49 2 48
    149 -15z m1051 -261 c-3 -13 -5 -37 -5 -55 l-1 -31 -117 -27 c-178 -40 -193
    -45 -193 -57 0 -6 9 -8 23 -3 79 24 298 71 303 64 9 -15 -8 -144 -20 -154 -7
    -5 -15 -17 -18 -25 -3 -10 -31 -21 -69 -28 -99 -20 -268 -71 -327 -97 -111
    -51 -200 -171 -236 -320 -10 -38 -23 -73 -29 -77 -22 -14 -151 -8 -237 11 -97
    22 -139 36 -262 88 l-86 36 -4 39 c-2 21 -3 38 -2 38 1 0 34 -14 74 -30 190
    -78 251 -84 276 -24 18 44 19 204 0 247 -20 49 -42 63 -201 132 -146 63 -185
    87 -185 111 0 22 14 23 54 3 112 -54 296 -109 366 -109 49 1 19 16 -48 24 -71
    9 -165 39 -264 85 l-83 38 3 61 c2 34 5 62 7 62 2 0 38 -17 81 -37 42 -20 118
    -49 168 -64 70 -22 86 -30 69 -35 -30 -8 -32 -54 -3 -61 11 -3 20 -11 20 -18
    0 -25 176 -36 186 -11 3 8 14 16 25 19 23 6 25 35 4 43 -37 15 -13 31 53 37
    60 5 239 43 392 83 144 38 247 62 267 63 l23 1 -4 -22z m-798 -138 c25 0 32
    -4 32 -20 0 -11 5 -20 10 -20 6 0 5 -8 -2 -20 l-13 -20 -74 0 -74 0 -23 26
    c-28 29 -29 34 -9 34 8 0 15 7 15 16 l0 17 53 -7 c28 -3 67 -6 85 -6z m-260
    -188 c78 -32 107 -58 121 -108 22 -78 9 -216 -21 -236 -29 -18 -121 5 -250 64
    -74 34 -78 41 -67 128 3 30 7 42 8 27 2 -42 17 -64 50 -70 16 -3 58 -20 94
    -37 69 -32 92 -37 103 -19 15 25 21 81 13 116 -10 48 5 65 20 22 15 -44 14
    -99 -4 -133 -16 -29 -14 -43 3 -32 6 3 15 28 22 55 l12 50 -16 55 -16 55 -43
    12 c-23 6 -73 24 -111 40 -37 16 -69 29 -71 29 -10 0 -25 -72 -26 -124 0 -43
    -3 -55 -9 -41 -21 48 -6 159 23 177 6 4 8 10 4 14 -13 13 -36 -18 -46 -59 l-9
    -42 -1 77 -1 77 78 -35 c42 -20 105 -48 140 -62z m1072 24 c0 -8 7 -27 15 -42
    17 -33 19 -50 6 -58 -5 -3 -16 16 -25 43 -18 57 -21 85 -6 76 6 -3 10 -12 10
    -19z m-32 -39 c6 -6 13 -24 17 -38 l6 -25 -102 -18 c-170 -30 -338 -101 -394
    -167 -37 -45 -92 -158 -110 -226 -21 -80 -44 -89 -194 -81 -89 6 -150 23 -348
    100 l-103 40 0 23 0 24 44 -19 c191 -81 423 -127 515 -101 l24 7 13 59 c35
    172 120 285 260 346 56 24 296 88 335 89 15 0 31 -6 37 -13z m-1106 -22 c34
    -14 73 -25 87 -25 18 0 22 -3 14 -11 -6 -6 -9 -38 -6 -77 2 -37 0 -73 -5 -81
    l-10 -14 -63 26 c-35 14 -76 31 -90 38 l-26 13 2 66 c3 101 5 102 97 65z"/>
    <path d="M6300 2927 c0 -6 28 -23 63 -36 34 -13 79 -32 100 -41 20 -10 37 -14
    37 -9 0 5 -21 19 -47 30 -27 11 -70 31 -96 44 -57 29 -57 29 -57 12z"/>
    <path d="M6300 2871 c0 -5 12 -12 27 -16 14 -3 58 -21 97 -40 66 -31 92 -37
    70 -15 -10 9 -173 80 -186 80 -4 0 -8 -4 -8 -9z"/>
    <path d="M6937 3452 c-15 -15 -27 -36 -27 -45 0 -34 110 -58 223 -50 l77 6 0
    27 c0 16 -11 37 -28 53 l-29 28 -27 -11 c-38 -14 -96 -12 -126 5 -33 19 -32
    19 -63 -13z m154 -17 c49 0 82 -5 92 -14 20 -16 22 -41 5 -41 -7 -1 -39 -3
    -71 -7 -61 -6 -173 12 -184 30 -4 6 4 7 22 3 66 -17 88 -19 82 -9 -4 6 -24 14
    -44 18 -46 8 -55 13 -47 27 4 6 18 7 38 2 17 -5 65 -8 107 -9z"/>
    <path d="M8463 2970 c-17 -7 -23 -18 -23 -39 0 -39 87 -111 134 -111 43 0 75
    23 58 42 -8 10 -8 18 -1 25 17 17 2 32 -56 58 -73 32 -87 35 -112 25z m95 -41
    c64 -31 72 -49 23 -49 -30 0 -114 57 -105 71 8 14 16 12 82 -22z m-63 -29 c22
    -24 78 -43 105 -35 14 5 20 2 20 -9 0 -12 -10 -16 -39 -16 l-38 0 -44 40 c-24
    21 -39 39 -33 40 6 0 19 -9 29 -20z"/>
    <path d="M8724 2916 c-10 -8 -16 -18 -12 -22 4 -4 15 -1 23 6 11 9 19 10 27 2
    13 -13 2 -32 -18 -32 -8 0 -14 -4 -14 -10 0 -5 9 -10 20 -10 14 0 20 -7 20
    -21 l0 -21 -30 4 c-33 5 -40 -6 -14 -20 43 -24 65 4 60 77 -4 56 -26 73 -62
    47z"/>
    <path d="M8832 2918 c-13 -13 -17 -68 -4 -68 4 0 13 5 19 11 16 16 33 2 33
    -28 l0 -25 -31 6 c-22 4 -29 2 -27 -7 6 -17 46 -21 64 -7 30 25 11 80 -28 80
    -10 0 -18 5 -18 10 0 6 11 10 25 10 16 0 25 6 25 15 0 18 -41 20 -58 3z"/>
    <path d="M8937 2924 c-4 -4 -7 -22 -7 -41 l0 -34 18 10 c23 12 45 -1 40 -25
    -3 -15 -12 -19 -38 -17 l-35 1 24 -19 24 -20 21 14 c42 28 28 87 -20 87 -13 0
    -24 5 -24 10 0 6 14 10 31 10 20 0 29 4 27 13 -5 13 -50 22 -61 11z"/>
    <path d="M8083 2643 c-23 -9 -14 -20 12 -15 29 5 36 -24 8 -35 l-16 -6 21 -8
    c12 -5 22 -15 22 -24 0 -20 -28 -31 -43 -16 -13 13 -27 15 -27 3 0 -19 47 -34
    69 -23 22 12 28 45 11 56 -6 4 -5 13 2 25 21 33 -17 60 -59 43z"/>
    <path d="M8193 2644 c-23 -10 -14 -21 12 -16 33 6 35 -25 3 -38 -16 -6 -18 -9
    -7 -9 9 -1 22 -7 28 -15 18 -21 -11 -41 -38 -26 -23 12 -28 1 -9 -18 29 -29
    89 9 72 45 -4 10 -8 32 -8 48 -1 30 -22 42 -53 29z"/>
    <path d="M8297 2643 c-4 -3 -7 -19 -7 -35 l0 -28 25 6 c31 8 45 -20 22 -43
    l-16 -16 -15 13 -16 12 0 -15 c0 -28 42 -32 62 -7 29 36 17 62 -37 85 l-20 9
    33 4 c18 2 30 8 27 13 -7 10 -48 12 -58 2z"/>
    <path d="M2275 2441 c-11 -5 -29 -18 -39 -30 l-19 -21 6 -51 6 -52 -40 -68
    -41 -69 -7 -106 -6 -107 47 -85 c33 -58 45 -89 38 -96 -5 -5 -10 -36 -10 -68
    0 -65 1 -66 74 -47 l44 11 6 81 c10 141 6 269 -10 307 -14 33 -18 151 -11 349
    2 56 -4 65 -38 52z m21 -188 c-2 -126 1 -192 11 -225 14 -47 14 -77 6 -264
    l-5 -101 -44 -10 -44 -10 0 42 c0 29 6 47 20 60 l20 18 0 174 0 174 -15 5
    c-17 7 -21 79 -5 89 13 8 13 118 0 131 -15 15 3 58 32 78 12 9 23 16 24 16 1
    0 1 -80 0 -177z m-76 -47 c-16 -44 -12 -88 11 -112 13 -13 19 -30 15 -39 l-6
    -16 -37 25 -38 24 1 28 c1 16 14 51 29 77 29 51 42 58 25 13z m-12 -166 l32
    -20 0 -117 0 -118 -44 76 -44 75 5 62 c6 70 6 69 51 42z"/>
    <path d="M1520 2290 c-12 -8 -12 -10 -1 -10 10 0 12 -14 9 -60 l-4 -60 17 0
    c10 0 21 5 24 10 3 6 1 10 -4 10 -7 0 -11 24 -11 60 0 61 -4 67 -30 50z"/>
    <path d="M1610 2259 l0 -41 15 12 c21 18 47 5 43 -22 l-3 -23 -35 2 -35 3 19
    -15 c23 -18 31 -18 57 -5 38 21 14 102 -26 86 -9 -3 -15 0 -15 9 0 9 10 15 25
    15 14 0 25 5 25 10 0 6 -16 10 -35 10 l-35 0 0 -41z"/>
    <path d="M1720 2285 c-7 -8 -10 -25 -7 -37 3 -11 2 -29 -3 -38 -17 -32 32 -60
    70 -40 21 11 27 44 10 55 -6 3 -7 18 -4 32 10 39 -39 60 -66 28z m50 -20 c0
    -8 -9 -15 -20 -15 -11 0 -20 7 -20 15 0 8 9 15 20 15 11 0 20 -7 20 -15z m5
    -65 c0 -18 -33 -26 -47 -12 -6 6 -7 15 -3 22 10 16 50 8 50 -10z"/>
    <path d="M7187 2273 c-15 -15 -6 -23 14 -12 33 17 51 -7 22 -31 l-22 -18 19
    -5 c21 -5 27 -31 10 -42 -5 -3 -19 -1 -31 6 -17 9 -20 8 -17 -3 3 -7 18 -14
    34 -16 34 -3 63 30 44 53 -6 7 -8 20 -4 29 12 31 -45 64 -69 39z"/>
    <path d="M7297 2273 c-4 -3 -7 -19 -7 -34 0 -29 31 -56 50 -44 6 3 10 0 10 -8
    0 -18 -24 -29 -45 -21 -8 4 -15 1 -15 -5 0 -20 58 -13 70 8 14 27 13 84 -2 99
    -13 13 -50 16 -61 5z m48 -34 c0 -15 -7 -25 -18 -27 -22 -4 -33 24 -17 43 18
    21 35 13 35 -16z"/>
    <path d="M7400 2245 l0 -34 30 6 30 6 0 -27 c0 -29 -25 -45 -43 -27 -17 17
    -31 13 -17 -4 15 -18 51 -20 68 -3 27 27 7 78 -31 78 -26 0 -16 23 14 31 l24
    7 -37 1 -38 1 0 -35z"/>
    <path d="M1611 2073 c-5 -10 -33 -105 -62 -212 l-53 -195 21 -35 21 -36 122 1
    c67 0 125 5 128 10 4 5 45 10 92 12 93 3 94 4 104 45 l7 29 -21 5 c-11 3 -20
    12 -20 20 l0 15 -54 -6 -53 -7 -7 32 c-3 17 -6 45 -6 61 0 50 -29 86 -82 104
    -26 8 -48 17 -48 19 0 1 7 22 15 45 21 59 19 70 -14 76 -20 4 -28 11 -24 20 8
    22 -54 18 -66 -3z m45 -28 c4 -9 1 -29 -5 -45 -6 -17 -16 -43 -22 -60 -14 -37
    -54 -44 -44 -7 36 123 55 153 71 112z m54 -15 c0 -51 -39 -124 -57 -106 -11
    10 28 116 42 116 8 0 15 -4 15 -10z m37 -131 l28 -10 -18 -14 -19 -14 18 -31
    c14 -23 24 -30 40 -26 l22 6 5 -58 c3 -36 1 -61 -7 -67 -6 -6 -18 -24 -26 -40
    l-16 -30 -104 -6 -105 -6 -22 24 c-29 30 -29 37 3 159 l26 102 42 10 c57 13
    100 14 133 1z m57 -46 c8 -20 -15 -37 -26 -20 -12 19 -9 37 6 37 8 0 17 -8 20
    -17z m126 -153 c0 -5 -10 -10 -22 -10 -13 0 -30 -5 -38 -11 -11 -8 0 -9 43 -6
    31 2 57 1 57 -2 -1 -23 -25 -33 -95 -38 l-77 -6 11 21 c7 12 16 22 21 22 6 0
    10 6 10 14 0 10 13 16 38 19 20 2 40 4 45 5 4 1 7 -2 7 -8z"/>
    <path d="M1620 1780 c-28 -28 -25 -45 13 -74 54 -42 97 -30 97 25 0 20 -9 33
    -34 48 -41 26 -51 26 -76 1z m57 -8 c17 -11 -21 -54 -41 -46 -19 7 -19 9 -6
    35 11 20 27 24 47 11z m43 -31 c0 -21 -13 -41 -26 -41 -14 0 -19 31 -7 43 10
    10 33 8 33 -2z"/>
    <path d="M3490 2040 c0 -5 5 -10 10 -10 15 0 13 -97 -2 -103 -7 -3 -2 -6 12
    -6 l25 -1 -3 65 -4 65 -19 0 c-10 0 -19 -4 -19 -10z"/>
    <path d="M3592 2038 c-16 -16 -16 -90 0 -106 35 -35 78 -2 78 60 0 39 -15 58
    -45 58 -12 0 -26 -5 -33 -12z m56 -41 c4 -45 -13 -73 -34 -56 -14 12 -19 80
    -7 93 18 17 38 -1 41 -37z"/>
    <path d="M2477 1663 c-43 -7 -58 -41 -60 -132 l-2 -79 29 -31 29 -30 107 -25
    c135 -33 133 -33 186 11 55 45 74 79 74 134 l0 42 -34 32 c-72 67 -199 97
    -329 78z m250 -49 c110 -52 133 -122 63 -189 l-30 -29 0 73 0 73 -32 32 c-25
    24 -52 36 -110 50 -43 11 -75 23 -71 29 10 17 106 -3 180 -39z m-173 11 c172
    -44 186 -57 186 -169 0 -85 -5 -96 -45 -96 -66 0 -218 47 -242 75 l-23 26 0
    64 c0 118 12 128 124 100z"/>
    <path d="M2537 1603 c-4 -3 -7 -17 -7 -30 0 -35 44 -28 48 7 l3 25 -11 -17
    c-15 -24 -29 -23 -23 2 5 20 2 25 -10 13z"/>
    <path d="M2595 1503 c-45 -9 -134 -46 -129 -54 3 -5 15 -4 27 3 12 6 49 19 81
    28 54 15 69 32 21 23z"/>
    <path d="M2075 1487 c-30 -53 -31 -57 -4 -57 12 0 28 -8 35 -17 l13 -18 1 17
    c0 9 6 19 13 21 10 4 10 6 0 6 -9 1 -13 17 -13 46 0 56 -12 57 -45 2z m25 -22
    c0 -16 -6 -25 -15 -25 -18 0 -19 4 -3 30 16 26 18 25 18 -5z"/>
    <path d="M2165 1510 c-10 -11 -13 -20 -7 -20 6 0 14 5 17 10 9 15 45 12 45 -3
    0 -7 -16 -28 -35 -47 -46 -44 -44 -50 13 -48 36 1 39 2 15 5 -41 5 -41 13 -3
    46 32 29 37 46 18 65 -18 18 -43 15 -63 -8z"/>
    <path d="M2276 1514 c-19 -18 -21 -85 -4 -102 7 -7 21 -12 33 -12 32 0 45 20
    45 67 0 57 -40 82 -74 47z m52 -48 c4 -43 -7 -60 -31 -50 -17 6 -25 73 -10 88
    18 18 38 -1 41 -38z"/>
    <path d="M1440 1428 c-30 -113 -24 -140 60 -270 54 -83 81 -115 122 -143 l53
    -35 61 0 c34 0 76 3 93 6 l31 7 0 38 0 39 -24 0 c-15 0 -26 7 -29 19 -3 13
    -11 18 -23 16 -11 -2 -42 -6 -71 -9 l-52 -5 -50 82 c-56 91 -61 115 -36 207 8
    30 15 65 15 78 l0 22 -31 0 c-24 0 -30 4 -25 15 4 12 -3 15 -33 15 l-39 0 -22
    -82z m121 32 c15 0 19 -4 15 -15 -19 -50 -37 -144 -33 -171 6 -33 105 -201
    131 -224 12 -9 37 -10 96 -5 l80 7 0 -20 c0 -27 -3 -28 -86 -36 l-70 -7 -60
    40 c-43 29 -68 55 -93 98 -19 32 -49 81 -67 109 -24 36 -34 62 -34 90 0 48 18
    114 30 114 13 0 13 -23 -1 -37 -13 -13 5 -28 21 -18 16 10 12 65 -5 65 -17 0
    -17 2 -9 24 l6 16 28 -15 c16 -8 39 -15 51 -15z m237 -387 c3 -10 -13 -13 -57
    -13 -72 0 -91 17 -24 23 66 5 76 4 81 -10z"/>
    <path d="M1486 1344 c-10 -27 -6 -88 8 -106 20 -27 26 -22 15 15 -5 17 -7 49
    -3 70 6 37 -8 52 -20 21z"/>
    <path d="M1835 1331 c-25 -10 -32 -103 -9 -122 30 -25 89 16 65 45 -6 7 -8 22
    -4 34 3 12 0 29 -7 37 -14 17 -16 17 -45 6z m35 -32 c0 -15 -4 -19 -16 -15 -9
    3 -18 6 -20 6 -2 0 -4 7 -4 15 0 8 9 15 20 15 14 0 20 -7 20 -21z m8 -61 c3
    -13 -3 -18 -22 -18 -20 0 -26 5 -26 21 0 26 43 23 48 -3z"/>
    <path d="M1926 1309 c-7 -39 1 -54 21 -37 l15 12 13 -18 c21 -28 7 -49 -28
    -42 l-29 6 12 -15 c27 -33 70 -10 70 37 0 29 -31 55 -52 42 -6 -4 -9 -1 -6 7
    3 8 14 15 26 17 29 4 18 22 -12 22 -18 0 -25 -7 -30 -31z"/>
    <path d="M1730 1315 c8 -10 11 -33 8 -65 l-5 -50 17 0 17 0 -4 53 c-6 68 -9
    77 -29 77 l-16 0 12 -15z"/>
    <path d="M2570 1200 c-26 -51 -25 -60 5 -60 16 0 25 -6 25 -15 0 -21 17 -19
    22 3 2 9 2 38 0 65 -5 59 -24 62 -52 7z m30 -15 c0 -16 -6 -25 -15 -25 -18 0
    -19 4 -3 30 16 26 18 25 18 -5z"/>
    <path d="M2670 1230 c0 -5 5 -10 10 -10 15 0 13 -97 -2 -103 -7 -3 -2 -6 12
    -6 l25 -1 -3 65 -4 65 -19 0 c-10 0 -19 -4 -19 -10z"/>
    <path d="M2766 1218 c-20 -28 -20 -41 0 -79 12 -24 21 -30 42 -27 l27 3 9 37
    c18 73 -39 122 -78 66z m58 -4 c11 -29 6 -71 -10 -85 l-16 -13 -9 15 c-10 16
    -12 83 -2 92 11 12 31 7 37 -9z"/>
    <path d="M952 1203 c1 -16 -4 -39 -12 -53 -17 -32 -60 -201 -54 -212 3 -4 14
    -8 26 -8 l20 0 -6 -24 c-9 -35 11 -45 74 -35 30 4 76 8 103 8 l47 1 0 40 c0
    27 -5 43 -15 46 -23 9 -21 110 3 123 10 5 24 21 31 35 l14 25 -28 41 c-32 46
    -36 47 -53 20 -15 -25 -102 -30 -102 -6 0 13 -20 26 -41 26 -5 0 -8 -12 -7
    -27z m38 -18 c0 -8 -4 -17 -10 -20 -6 -4 -10 5 -10 20 0 15 4 24 10 20 6 -3
    10 -12 10 -20z m165 -55 c-13 -40 -39 -41 -65 -3 -19 28 -22 37 -11 41 7 2 20
    13 29 23 l16 19 19 -30 c11 -18 16 -37 12 -50z m-85 -2 l30 -41 0 -57 c0 -31
    5 -61 11 -67 7 -7 -15 -12 -72 -17 -45 -4 -83 -5 -85 -4 -3 3 40 184 51 216 8
    24 35 12 65 -30z m-90 1 c0 -14 -40 -171 -47 -182 -2 -4 -11 -3 -18 3 l-13 11
    14 47 c7 26 18 66 24 90 10 37 40 61 40 31z m160 -203 c0 -21 -6 -23 -102 -31
    l-88 -7 0 15 c0 19 28 25 168 35 13 1 22 -4 22 -12z"/>
    <path d="M1008 1026 c-14 -32 -4 -56 22 -56 28 0 48 43 30 65 -18 22 -39 18
    -52 -9z m42 -10 c0 -16 -24 -38 -33 -30 -8 9 11 44 23 44 6 0 10 -6 10 -14z"/>
    <path d="M1318 1068 c19 -19 15 -26 -18 -33 l-30 -7 -11 -41 c-6 -22 -12 -50
    -14 -61 -2 -21 -5 -29 -31 -95 -19 -47 -18 -60 12 -103 l26 -37 47 5 c25 4 55
    8 66 9 11 2 41 4 68 4 l47 1 19 33 c11 17 26 39 35 47 l15 16 -10 74 c-7 54
    -17 86 -37 114 l-27 38 -75 24 c-85 27 -99 29 -82 12z m112 -43 c20 -10 27
    -20 23 -34 -7 -29 14 -61 42 -61 l24 0 6 -53 7 -53 -26 -39 c-14 -21 -26 -41
    -26 -46 0 -7 -49 -15 -162 -24 l-57 -4 -22 30 c-24 34 -21 71 10 129 10 19 16
    40 14 47 -2 6 1 29 7 51 l10 40 43 15 c56 19 73 20 107 2z m70 -73 c-14 -5
    -40 29 -33 42 4 5 15 -1 25 -15 13 -15 16 -25 8 -27z"/>
    <path d="M1308 894 c-15 -32 -4 -52 45 -79 l36 -19 20 18 c32 29 27 63 -11 86
    -46 28 -76 26 -90 -6z m55 -29 c-20 -27 -36 -27 -41 -1 -6 27 17 47 39 35 l19
    -10 -17 -24z m47 -15 c0 -11 -7 -23 -15 -27 -21 -8 -28 1 -20 26 8 27 35 27
    35 1z"/>
    <path d="M2731 864 c-29 -24 -44 -74 -23 -74 5 0 14 -11 20 -24 6 -14 23 -32
    37 -42 l25 -16 29 11 c16 7 33 23 40 37 6 13 18 27 26 30 23 9 18 45 -12 76
    -37 38 -98 39 -142 2z m114 -5 c4 -6 4 -13 1 -17 -8 -7 -86 -6 -93 2 -13 12
    12 26 47 26 21 0 42 -5 45 -11z m-23 -35 l59 6 -3 -17 c-6 -33 -113 -39 -154
    -8 -25 18 -9 38 18 24 13 -7 44 -9 80 -5z m18 -62 c0 -33 -49 -41 -75 -12
    l-18 20 46 0 c26 0 47 -4 47 -8z"/>
    <path d="M865 770 c-3 -5 -1 -10 4 -10 16 0 14 -97 -1 -103 -7 -3 0 -6 17 -6
    22 -1 26 2 17 11 -7 7 -12 36 -12 65 0 49 -10 67 -25 43z"/>
    <path d="M961 763 c-5 -11 -6 -25 -1 -33 5 -7 4 -21 -2 -30 -17 -27 -3 -50 30
    -50 35 0 57 23 46 47 -4 10 -8 32 -8 48 l-1 30 -27 3 c-18 2 -30 -3 -37 -15z
    m48 -7 c8 -10 8 -16 -2 -24 -17 -14 -42 2 -34 22 8 20 21 20 36 2z m0 -55 c17
    -11 7 -41 -13 -41 -19 0 -29 17 -22 35 6 17 15 18 35 6z"/>
    <path d="M1066 758 c-30 -43 -13 -108 27 -108 34 0 47 19 47 65 0 64 -42 88
    -74 43z m60 -25 c8 -30 -11 -76 -29 -70 -20 6 -30 49 -18 79 12 33 38 28 47
    -9z"/>
    <path d="M2697 613 c-19 -31 -47 -84 -47 -88 0 -3 11 -5 24 -5 16 0 26 -7 30
    -22 l6 -23 13 25 c7 14 9 27 5 28 -4 2 -8 24 -8 48 0 39 -11 57 -23 37z m3
    -58 c0 -15 -6 -25 -15 -25 l-15 0 12 25 c6 14 13 25 15 25 1 0 3 -11 3 -25z"/>
    <path d="M2760 610 c0 -5 13 -10 30 -10 l30 0 -25 -55 c-13 -30 -19 -55 -14
    -55 9 0 37 56 53 108 l7 22 -40 0 c-23 0 -41 -4 -41 -10z"/>
    <path d="M2877 613 c-4 -3 -7 -19 -7 -34 l0 -28 29 5 c34 7 51 -21 26 -45
    l-15 -16 -21 13 c-17 11 -20 11 -17 1 2 -7 12 -17 21 -23 21 -13 57 18 57 50
    0 24 -33 50 -50 39 -6 -3 -10 1 -10 9 0 10 9 16 25 16 14 0 25 5 25 10 0 11
    -53 14 -63 3z"/>
    <path d="M1275 592 c-5 -4 -10 -35 -10 -70 l0 -62 23 0 c12 0 22 5 22 10 0 6
    -4 10 -10 10 -5 0 -10 27 -12 60 -2 37 -7 57 -13 52z"/>
    <path d="M1373 590 c-41 -17 -42 -98 0 -124 12 -8 22 -8 35 0 37 23 20 91 -20
    80 -14 -3 -18 0 -16 12 2 10 16 19 33 22 l30 6 -18 7 c-10 4 -19 7 -20 6 -1 0
    -12 -4 -24 -9z m45 -83 c2 -9 -4 -20 -13 -23 -20 -8 -50 19 -40 36 10 17 49 8
    53 -13z"/>
    <path d="M1467 582 c-33 -36 -12 -122 30 -122 39 0 58 93 25 123 -24 22 -35
    21 -55 -1z m55 -27 c15 -32 -4 -78 -30 -73 -17 3 -29 56 -18 84 9 22 35 16 48
    -11z"/>
    </g>
  </g>
  <g id="labels" font-family="Helvetica, Arial, sans-serif" fill="#111" font-size="14" text-rendering="geometricPrecision" opacity="0" pointer-events="none">
      <a id="pos-10" href="#pos-10"><text data-pos="10" x="361" y="441" text-anchor="middle" dominant-baseline="middle" font-size="12" font-weight="600">10</text></a>
      <a id="pos-50" href="#pos-50"><text data-pos="50" x="382" y="552" text-anchor="middle" dominant-baseline="middle" font-size="12" font-weight="600">50</text></a>
      <a id="pos-55" href="#pos-55"><text data-pos="55" x="449" y="574" text-anchor="middle" dominant-baseline="middle" font-size="12" font-weight="600">55</text></a>
      <a id="pos-70" href="#pos-70"><text data-pos="70" x="266" y="458" text-anchor="middle" dominant-baseline="middle" font-size="12" font-weight="600">70</text></a>
      <a id="pos-80" href="#pos-80"><text data-pos="80" x="287" y="564" text-anchor="middle" dominant-baseline="middle" font-size="12" font-weight="600">80</text></a>
      <a id="pos-85" href="#pos-85"><text data-pos="85" x="342" y="478" text-anchor="middle" dominant-baseline="middle" font-size="12" font-weight="600">85</text></a>
      <a id="pos-90" href="#pos-90"><text data-pos="90" x="681" y="334" text-anchor="middle" dominant-baseline="middle" font-size="12" font-weight="600">90</text></a>
      <a id="pos-94" href="#pos-94"><text data-pos="94" x="672" y="84" text-anchor="middle" dominant-baseline="middle" font-size="12" font-weight="600">94</text></a>
      <a id="pos-96" href="#pos-96"><text data-pos="96" x="769" y="482" text-anchor="middle" dominant-baseline="middle" font-size="12" font-weight="600">96</text></a>
      <a id="pos-98" href="#pos-98"><text data-pos="98" x="725" y="187" text-anchor="middle" dominant-baseline="middle" font-size="12" font-weight="600">98</text></a>
      <a id="pos-100" href="#pos-100"><text data-pos="100" x="414" y="465" text-anchor="middle" dominant-baseline="middle" font-size="12" font-weight="600">100</text></a>
      <a id="pos-110" href="#pos-110"><text data-pos="110" x="605" y="515" text-anchor="middle" dominant-baseline="middle" font-size="12" font-weight="600">110</text></a>
      <a id="pos-120" href="#pos-120"><text data-pos="120" x="410" y="349" text-anchor="middle" dominant-baseline="middle" font-size="12" font-weight="600">120</text></a>
      <a id="pos-122" href="#pos-122"><text data-pos="122" x="335" y="280" text-anchor="middle" dominant-baseline="middle" font-size="12" font-weight="600">122</text></a>
      <a id="pos-125" href="#pos-125"><text data-pos="125" x="414" y="331" text-anchor="middle" dominant-baseline="middle" font-size="12" font-weight="600">125</text></a>
      <a id="pos-130" href="#pos-130"><text data-pos="130" x="336" y="258" text-anchor="middle" dominant-baseline="middle" font-size="12" font-weight="600">130</text></a>
      <a id="pos-135" href="#pos-135"><text data-pos="135" x="434" y="419" text-anchor="middle" dominant-baseline="middle" font-size="12" font-weight="600">135</text></a>
      <a id="pos-139" href="#pos-139"><text data-pos="139" x="406" y="137" text-anchor="middle" dominant-baseline="middle" font-size="12" font-weight="600">139</text></a>
      <a id="pos-145" href="#pos-145"><text data-pos="145" x="817" y="371" text-anchor="middle" dominant-baseline="middle" font-size="12" font-weight="600">145</text></a>
      <a id="pos-156" href="#pos-156"><text data-pos="156" x="795" y="209" text-anchor="middle" dominant-baseline="middle" font-size="12" font-weight="600">156</text></a>
      <a id="pos-158" href="#pos-158"><text data-pos="158" x="169" y="416" text-anchor="middle" dominant-baseline="middle" font-size="12" font-weight="600">158</text></a>
      <a id="pos-160" href="#pos-160"><text data-pos="160" x="140" y="586" text-anchor="middle" dominant-baseline="middle" font-size="12" font-weight="600">160</text></a>
      <a id="pos-180" href="#pos-180"><text data-pos="180" x="103" y="567" text-anchor="middle" dominant-baseline="middle" font-size="12" font-weight="600">180</text></a>
      <a id="pos-185" href="#pos-185"><text data-pos="185" x="186" y="515" text-anchor="middle" dominant-baseline="middle" font-size="12" font-weight="600">185</text></a>
      <a id="pos-190" href="#pos-190"><text data-pos="190" x="559" y="479" text-anchor="middle" dominant-baseline="middle" font-size="12" font-weight="600">190</text></a>
      <a id="pos-220" href="#pos-220"><text data-pos="220" x="314" y="312" text-anchor="middle" dominant-baseline="middle" font-size="12" font-weight="600">220</text></a>
      <a id="pos-230" href="#pos-230"><text data-pos="230" x="327" y="561" text-anchor="middle" dominant-baseline="middle" font-size="12" font-weight="600">230</text></a>
      <a id="pos-235" href="#pos-235"><text data-pos="235" x="244" y="379" text-anchor="middle" dominant-baseline="middle" font-size="12" font-weight="600">235</text></a>
      <a id="pos-240" href="#pos-240"><text data-pos="240" x="392" y="272" text-anchor="middle" dominant-baseline="middle" font-size="12" font-weight="600">240</text></a>
      <a id="pos-255" href="#pos-255"><text data-pos="255" x="187" y="301" text-anchor="middle" dominant-baseline="middle" font-size="12" font-weight="600">255</text></a>
      <a id="pos-260" href="#pos-260"><text data-pos="260" x="134" y="314" text-anchor="middle" dominant-baseline="middle" font-size="12" font-weight="600">260</text></a>
      <a id="pos-265" href="#pos-265"><text data-pos="265" x="400" y="107" text-anchor="middle" dominant-baseline="middle" font-size="12" font-weight="600">265</text></a>
      <a id="pos-270" href="#pos-270"><text data-pos="270" x="275" y="273" text-anchor="middle" dominant-baseline="middle" font-size="12" font-weight="600">270</text></a>
      <a id="pos-275" href="#pos-275"><text data-pos="275" x="228" y="285" text-anchor="middle" dominant-baseline="middle" font-size="12" font-weight="600">275</text></a>
      <a id="pos-280" href="#pos-280"><text data-pos="280" x="264" y="95" text-anchor="middle" dominant-baseline="middle" font-size="12" font-weight="600">280</text></a>
      <a id="pos-290" href="#pos-290"><text data-pos="290" x="696" y="328" text-anchor="middle" dominant-baseline="middle" font-size="12" font-weight="600">290</text></a>
      <a id="pos-295" href="#pos-295"><text data-pos="295" x="634" y="381" text-anchor="middle" dominant-baseline="middle" font-size="12" font-weight="600">295</text></a>
      <a id="pos-300" href="#pos-300"><text data-pos="300" x="536" y="324" text-anchor="middle" dominant-baseline="middle" font-size="12" font-weight="600">300</text></a>
      <a id="pos-310" href="#pos-310"><text data-pos="310" x="647" y="515" text-anchor="middle" dominant-baseline="middle" font-size="12" font-weight="600">310</text></a>
      <a id="pos-325" href="#pos-325"><text data-pos="325" x="706" y="362" text-anchor="middle" dominant-baseline="middle" font-size="12" font-weight="600">325</text></a>
      <a id="pos-335" href="#pos-335"><text data-pos="335" x="824" y="381" text-anchor="middle" dominant-baseline="middle" font-size="12" font-weight="600">335</text></a>
      <a id="pos-355" href="#pos-355"><text data-pos="355" x="889" y="350" text-anchor="middle" dominant-baseline="middle" font-size="12" font-weight="600">355</text></a>
      <a id="pos-360" href="#pos-360"><text data-pos="360" x="794" y="155" text-anchor="middle" dominant-baseline="middle" font-size="12" font-weight="600">360</text></a>
      <a id="pos-380" href="#pos-380"><text data-pos="380" x="702" y="79" text-anchor="middle" dominant-baseline="middle" font-size="12" font-weight="600">380</text></a>
      <a id="pos-385" href="#pos-385"><text data-pos="385" x="361" y="132" text-anchor="middle" dominant-baseline="middle" font-size="12" font-weight="600">385</text></a>
      <a id="pos-395" href="#pos-395"><text data-pos="395" x="732" y="420" text-anchor="middle" dominant-baseline="middle" font-size="12" font-weight="600">395</text></a>
      <a id="pos-410" href="#pos-410"><text data-pos="410" x="268" y="521" text-anchor="middle" dominant-baseline="middle" font-size="12" font-weight="600">410</text></a>
      <a id="pos-420" href="#pos-420"><text data-pos="420" x="223" y="494" text-anchor="middle" dominant-baseline="middle" font-size="12" font-weight="600">420</text></a>
      <a id="pos-430" href="#pos-430"><text data-pos="430" x="690" y="273" text-anchor="middle" dominant-baseline="middle" font-size="12" font-weight="600">430</text></a>
      <a id="pos-440" href="#pos-440"><text data-pos="440" x="621" y="243" text-anchor="middle" dominant-baseline="middle" font-size="12" font-weight="600">440</text></a>
      <a id="pos-445" href="#pos-445"><text data-pos="445" x="694" y="207" text-anchor="middle" dominant-baseline="middle" font-size="12" font-weight="600">445</text></a>
      <a id="pos-465" href="#pos-465"><text data-pos="465" x="480" y="226" text-anchor="middle" dominant-baseline="middle" font-size="12" font-weight="600">465</text></a>
      <a id="pos-468" href="#pos-468"><text data-pos="468" x="914" y="276" text-anchor="middle" dominant-baseline="middle" font-size="12" font-weight="600">468</text></a>
      <a id="pos-469" href="#pos-469"><text data-pos="469" x="884" y="263" text-anchor="middle" dominant-baseline="middle" font-size="12" font-weight="600">469</text></a>
      <a id="pos-475" href="#pos-475"><text data-pos="475" x="279" y="584" text-anchor="middle" dominant-baseline="middle" font-size="12" font-weight="600">475</text></a>
  </g>
</svg>
