<svg xmlns="http://www.w3.org/2000/svg" width="960" height="640" viewBox="0 0 960 640" role="img" aria-labelledby="title desc">
  <title id="title">Mercedes parts diagram: group-009</title>
  <desc id="desc">Mercedes parts diagram: group-009</desc>
  <g id="art">
    <metadata>
    Created by potrace 1.16, written by Peter Selinger 2001-2019
    </metadata>
    <g transform="translate(0.000000,640.000000) scale(0.100000,-0.100000)"
    fill="#000000" stroke="none">
    <path d="M7530 6199 c-12 -8 -12 -12 -2 -16 14 -6 17 -93 2 -93 -5 0 -10 -4
    -10 -10 0 -5 14 -10 30 -10 17 0 30 5 30 10 0 6 -4 10 -10 10 -5 0 -10 24 -10
    54 0 58 -7 71 -30 55z"/>
    <path d="M7620 6200 c0 -5 11 -10 25 -10 30 0 30 3 5 -56 -32 -73 -17 -77 17
    -4 17 36 28 68 26 73 -6 11 -73 9 -73 -3z"/>
    <path d="M7730 6169 l0 -41 15 12 c21 18 47 5 43 -22 -2 -18 -9 -23 -31 -23
    -15 1 -26 -4 -24 -10 2 -5 16 -10 32 -10 22 0 30 6 38 28 11 34 -5 57 -40 57
    -33 0 -24 24 10 28 36 4 24 22 -14 22 l-29 0 0 -41z"/>
    <path d="M7915 6201 c-11 -5 -29 -18 -39 -30 l-19 -21 11 -23 c6 -12 14 -33
    18 -47 10 -40 24 -50 64 -50 44 0 56 11 65 63 4 20 11 37 16 37 17 0 9 26 -14
    48 -26 25 -73 35 -102 23z m75 -31 c0 -5 -18 -10 -40 -10 -22 0 -40 5 -40 10
    0 6 18 10 40 10 22 0 40 -4 40 -10z m30 -20 c0 -14 -61 -28 -98 -22 -52 7 -46
    19 7 14 27 -2 57 1 67 7 24 13 24 13 24 1z m-35 -50 c-28 -12 -73 -12 -80 0
    -4 6 14 10 47 9 39 0 48 -3 33 -9z m0 -41 c-7 -11 -36 -12 -62 -2 -14 6 -10 9
    17 13 39 7 53 3 45 -11z"/>
    <path d="M4795 5941 c-3 -6 -4 -23 -3 -38 1 -16 -2 -34 -6 -41 -21 -34 58 -58
    85 -26 10 12 10 20 1 34 -6 11 -9 26 -6 35 12 32 -53 65 -71 36z m55 -25 c0
    -19 -26 -27 -39 -12 -13 15 -4 26 21 26 10 0 18 -6 18 -14z m0 -62 c0 -19 -28
    -30 -42 -16 -8 8 -8 15 1 26 14 17 41 10 41 -10z"/>
    <path d="M4916 5904 c-32 -57 -32 -54 -1 -54 16 0 25 -6 25 -15 0 -8 5 -15 10
    -15 6 0 10 6 10 14 0 8 6 17 13 19 10 4 10 6 0 6 -9 1 -13 17 -13 46 0 57 -12
    57 -44 -1z m24 -19 c0 -15 -6 -25 -15 -25 l-15 0 12 25 c6 14 13 25 15 25 1 0
    3 -11 3 -25z"/>
    <path d="M4120 5840 c-17 -31 4 -60 42 -60 l31 0 -18 -20 c-10 -12 -25 -18
    -32 -16 -7 3 -13 1 -13 -4 0 -15 46 -12 59 3 18 22 24 73 12 96 -15 28 -66 29
    -81 1z m60 -5 c15 -18 5 -35 -20 -35 -10 0 -22 5 -25 10 -7 11 12 40 25 40 4
    0 13 -7 20 -15z"/>
    <path d="M4253 5853 c32 -5 33 -8 6 -68 -11 -25 -18 -49 -15 -52 4 -4 66 109
    66 122 0 3 -19 4 -42 4 -30 -2 -35 -3 -15 -6z"/>
    <path d="M7853 5809 l-43 -21 0 -33 c0 -18 7 -38 15 -45 8 -7 15 -19 15 -26 0
    -36 111 -57 179 -33 56 20 84 117 45 156 l-23 23 -73 0 c-54 0 -84 -5 -115
    -21z m172 -19 c15 -24 -101 -42 -135 -20 -19 12 -7 22 38 36 37 10 86 2 97
    -16z m-165 -13 c0 -18 43 -37 84 -37 46 0 96 19 96 37 0 16 22 13 28 -5 8 -25
    -58 -44 -139 -40 -80 3 -106 15 -96 42 8 19 27 21 27 3z m187 -62 c-26 -19
    -90 -28 -143 -20 -70 10 -59 21 19 17 40 -2 83 1 97 7 36 14 48 13 27 -4z
    m-23 -35 c-6 -6 -28 -13 -50 -15 l-39 -5 45 14 c58 18 56 18 44 6z m-99 -10
    c8 -13 -5 -13 -25 0 l-15 10 17 0 c9 0 20 -4 23 -10z"/>
    <path d="M5349 5794 c-10 -12 -10 -20 -1 -34 7 -12 8 -21 2 -25 -19 -12 -10
    -45 15 -57 l26 -12 20 21 21 21 -11 20 c-6 11 -8 28 -5 36 14 37 -41 61 -67
    30z m51 -17 c0 -19 -10 -27 -26 -20 -21 8 -17 33 6 33 11 0 20 -6 20 -13z m0
    -52 c13 -16 6 -35 -15 -35 -18 0 -28 17 -21 35 7 19 20 19 36 0z"/>
    <path d="M5457 5792 c-22 -25 -21 -74 2 -103 l18 -23 27 17 26 17 0 43 c0 64
    -37 89 -73 49z m53 -22 c11 -21 4 -66 -12 -76 -14 -9 -38 16 -38 41 0 54 29
    74 50 35z"/>
    <path d="M4522 5719 l-93 -81 15 -17 c9 -10 16 -27 16 -38 0 -35 53 -72 99
    -70 l39 2 86 70 c61 50 86 76 86 93 0 12 -3 22 -7 22 -5 0 -34 23 -66 50 -32
    28 -64 50 -70 50 -7 -1 -54 -37 -105 -81z m167 14 c31 -26 60 -50 64 -53 4 -4
    -31 -40 -78 -80 l-85 -72 -33 25 c-17 15 -47 39 -65 54 l-33 28 38 37 c36 35
    124 106 132 107 2 1 29 -20 60 -46z m-149 -195 c0 -10 -16 -2 -42 20 -30 25
    -20 34 12 10 17 -12 30 -26 30 -30z"/>
    <path d="M4597 5667 c-65 -58 -66 -61 -34 -88 31 -26 35 -25 100 32 64 56 68
    69 32 93 -33 22 -33 22 -98 -37z m94 17 l14 -17 -50 -43 c-54 -47 -66 -52 -85
    -29 l-12 14 38 33 c74 65 75 66 95 42z"/>
    <path d="M7470 5760 c0 -5 5 -10 10 -10 6 0 10 -20 10 -45 0 -25 -4 -45 -10
    -45 -5 0 -10 -4 -10 -10 0 -5 12 -10 26 -10 20 0 25 4 20 16 -3 9 -6 38 -6 65
    l0 49 -20 0 c-11 0 -20 -4 -20 -10z"/>
    <path d="M7588 5763 c17 -2 32 -6 32 -7 0 -2 -9 -24 -21 -50 -11 -26 -18 -52
    -16 -59 4 -11 35 49 51 101 l7 22 -43 -2 -43 -1 33 -4z"/>
    <path d="M7676 5748 c-35 -50 -4 -117 47 -104 31 7 40 38 20 66 -11 16 -22 20
    -40 15 l-24 -6 10 20 c6 11 21 22 33 24 l23 4 -27 2 c-17 1 -32 -7 -42 -21z
    m59 -63 c0 -21 -31 -33 -46 -18 -5 5 -7 17 -3 27 9 24 49 17 49 -9z"/>
    <path d="M3068 5742 l-18 -3 15 -15 c20 -20 19 -73 -2 -96 l-16 -18 34 0 c19
    0 29 4 22 8 -7 4 -13 34 -15 67 l-3 60 -17 -3z"/>
    <path d="M3166 5706 c-33 -57 -33 -66 4 -66 17 0 30 -5 30 -11 0 -6 8 -3 17 7
    13 13 14 19 5 22 -7 2 -12 20 -12 42 0 55 -14 57 -44 6z m34 -21 c0 -16 -6
    -25 -15 -25 -18 0 -18 5 -5 31 14 26 20 24 20 -6z"/>
    <path d="M3266 5734 c-24 -23 -21 -100 3 -114 42 -22 71 3 71 60 0 55 -42 86
    -74 54z m50 -29 c9 -38 -3 -75 -25 -75 -13 0 -21 9 -26 29 -12 56 37 100 51
    46z"/>
    <path d="M5028 5723 c-93 -73 -258 -216 -258 -224 0 -17 10 -10 151 111 77 66
    146 120 152 120 14 0 337 -258 337 -269 0 -3 -35 -36 -77 -71 -43 -36 -98 -83
    -123 -105 -25 -23 -101 -88 -170 -145 -69 -58 -165 -140 -215 -182 -49 -43
    -96 -78 -103 -78 -19 0 -332 251 -332 266 0 6 26 32 58 57 31 25 109 90 172
    145 63 56 118 98 122 96 17 -11 6 -34 -27 -60 -19 -14 -35 -30 -35 -35 0 -4
    25 -28 55 -53 63 -51 70 -51 130 5 22 21 52 47 68 59 15 12 27 27 27 35 0 16
    -93 95 -111 95 -20 -1 -65 -37 -56 -46 4 -4 15 0 25 9 41 37 58 5 22 -40 -38
    -49 20 -74 65 -29 14 14 27 20 31 15 3 -6 4 -12 3 -13 -32 -29 -134 -106 -141
    -106 -4 0 -28 16 -53 34 l-45 35 27 25 c35 32 37 32 62 -1 14 -19 20 -23 21
    -12 0 8 -27 55 -61 105 -71 104 -67 99 -75 91 -4 -4 5 -25 20 -47 14 -22 26
    -41 26 -44 0 -2 -76 -70 -169 -151 -93 -80 -172 -153 -175 -161 -8 -22 1 -36
    51 -74 25 -19 67 -53 93 -75 57 -49 188 -149 198 -152 6 -2 117 87 214 173 15
    13 49 40 75 60 26 20 52 42 58 48 5 7 37 35 70 62 154 126 290 249 293 265 2
    11 -24 38 -75 78 -43 35 -109 88 -148 120 -74 60 -119 91 -133 91 -5 0 -24
    -12 -44 -27z m-133 -323 c-18 -20 -45 -27 -45 -11 0 5 7 14 15 21 8 7 15 20
    15 28 l0 16 17 -17 17 -16 -19 -21z"/>
    <path d="M4161 5684 l-31 -26 0 -42 c0 -23 9 -61 20 -84 l20 -42 38 0 38 0 28
    43 c16 23 31 59 33 79 l6 37 -31 31 c-39 38 -79 40 -121 4z m112 -25 c25 -34
    11 -64 -34 -74 -62 -14 -115 56 -67 89 32 23 77 16 101 -15z m-22 -90 c38 13
    38 -3 0 -18 l-28 -12 -37 15 c-20 8 -36 19 -36 25 0 6 15 4 36 -5 27 -11 43
    -13 65 -5z m-1 -51 c0 -13 -40 -19 -60 -8 -28 15 -26 16 20 15 22 0 40 -3 40
    -7z"/>
    <path d="M7937 5163 c-4 -252 -7 -624 -8 -828 0 -203 -4 -419 -8 -480 -7 -88
    -6 -114 5 -130 8 -11 30 -42 49 -69 20 -27 35 -60 35 -76 0 -15 7 -44 15 -63
    29 -70 -5 -166 -76 -215 l-34 -24 -60 5 c-67 5 -107 22 -160 68 -25 22 -35 27
    -35 16 0 -18 46 -55 107 -86 49 -24 140 -28 181 -8 15 8 49 25 76 38 52 25
    102 88 113 142 7 33 -9 32 148 2 72 -14 140 -25 153 -25 12 0 32 -10 45 -22
    l22 -23 80 0 80 1 60 29 c42 21 64 39 75 62 10 21 42 48 100 84 118 74 286
    190 345 238 35 29 55 39 71 35 59 -15 124 54 124 132 l0 53 -20 6 c-12 4 -20
    15 -20 28 -1 122 -15 325 -22 334 -6 7 -8 20 -4 28 7 19 -26 252 -58 417 -37
    185 -51 197 -311 253 -94 20 -177 38 -185 40 -8 2 -157 33 -330 69 -173 35
    -357 74 -409 85 -52 12 -96 21 -98 21 -12 0 5 -24 18 -26 27 -4 654 -134 844
    -174 105 -22 215 -45 245 -51 92 -18 148 -48 171 -91 l9 -17 -69 -55 c-84 -67
    -268 -187 -371 -243 -41 -22 -98 -53 -125 -69 -164 -94 -267 -109 -445 -66
    -201 49 -271 63 -283 59 -17 -7 -11 -8 216 -62 l199 -48 68 7 c94 8 211 60
    412 182 49 30 90 54 93 54 9 0 224 147 266 182 l47 38 16 -67 c38 -162 71
    -431 55 -448 -3 -2 -11 46 -18 108 -14 121 -49 346 -57 358 -2 5 -33 -11 -67
    -35 -34 -24 -87 -58 -117 -75 -30 -18 -74 -44 -97 -59 -39 -25 -291 -175 -355
    -211 -33 -18 -32 -13 -13 -157 8 -61 19 -174 25 -250 l11 -139 -22 -17 c-33
    -27 -39 -14 -39 80 0 113 -20 344 -31 357 -12 12 -11 -30 0 -130 5 -44 12
    -137 16 -206 l6 -127 -59 -7 -60 -7 -118 32 c-273 73 -410 103 -392 84 3 -3
    57 -18 119 -34 63 -17 159 -41 214 -56 157 -40 195 -44 267 -29 34 7 71 17 81
    21 l19 7 -4 -24 c-2 -18 -13 -26 -43 -35 -77 -24 -170 -16 -340 26 -198 50
    -179 45 -248 65 -56 16 -82 14 -61 -4 18 -16 440 -113 514 -118 47 -3 95 1
    128 10 l52 14 0 -107 0 -107 -31 -7 c-59 -12 -154 -6 -229 15 -140 38 -351 89
    -367 89 -34 0 2 -16 85 -37 387 -99 434 -106 528 -78 84 25 382 209 597 368
    l119 89 -3 118 c-2 65 -1 122 4 126 6 6 9 -56 9 -196 0 -16 -1 -39 -1 -50 -1
    -22 -160 -153 -276 -228 -38 -24 -79 -52 -90 -62 -25 -23 -253 -163 -317 -196
    -27 -13 -74 -27 -106 -30 l-57 -6 -195 46 c-194 46 -239 57 -272 71 -12 5 -18
    3 -18 -7 0 -10 54 -26 188 -58 103 -24 204 -49 226 -57 55 -19 143 -16 202 6
    44 17 329 188 409 246 87 63 225 168 263 200 51 44 58 24 8 -27 -42 -43 -59
    -74 -52 -96 5 -13 -13 -32 -67 -72 -75 -56 -308 -213 -365 -246 l-32 -18 -16
    22 c-19 27 -37 28 -78 3 -56 -34 -135 -54 -186 -48 -54 6 -80 -11 -80 -52 0
    -17 -4 -21 -17 -17 -10 3 -61 12 -113 21 -134 23 -233 46 -247 57 -7 6 -13 7
    -13 4 0 -4 -9 -2 -20 4 -16 9 -20 21 -20 61 0 59 -19 109 -59 155 l-29 33 4
    858 c2 472 6 886 8 921 2 34 0 62 -4 62 -3 0 -10 -206 -13 -457z m1351 -460
    c12 -76 26 -181 32 -233 l11 -94 -23 -18 c-155 -124 -322 -234 -541 -360 -94
    -54 -97 -55 -90 -28 3 11 0 62 -6 113 -31 253 -42 367 -36 376 7 12 302 191
    314 191 17 0 52 -172 72 -355 11 -97 29 -165 29 -109 0 36 -29 248 -50 364
    l-20 115 17 13 c47 35 249 162 259 162 7 0 20 -54 32 -137z m42 -373 c0 -14
    -27 -40 -82 -81 -46 -34 -85 -64 -88 -68 -6 -8 -88 -61 -94 -61 -2 0 -6 6 -9
    13 -3 9 33 41 100 88 58 41 119 86 137 101 37 33 36 33 36 8z m10 -150 l0 -99
    -127 -96 c-70 -52 -130 -95 -134 -95 -3 0 -9 44 -13 97 l-8 98 19 13 c10 7 68
    51 128 97 61 45 116 83 123 84 9 1 12 -25 12 -99z m-300 -60 c0 -20 -80 -79
    -213 -156 -38 -21 -86 -49 -107 -62 l-38 -22 -5 20 -5 21 75 42 c41 23 123 72
    182 109 58 37 107 67 109 67 1 1 2 -8 2 -19z m10 -162 l0 -87 -47 -33 c-64
    -44 -141 -90 -240 -145 l-83 -45 0 105 0 104 178 105 c117 70 179 102 184 94
    4 -6 8 -50 8 -98z m370 40 c0 -6 -10 -23 -22 -36 l-23 -24 23 6 22 7 0 -19 c0
    -24 -63 -82 -89 -82 -17 0 -31 18 -31 39 0 4 20 29 45 56 25 28 45 53 45 58 0
    4 7 7 15 7 8 0 15 -5 15 -12z m-1440 -301 c0 -6 -9 0 -20 13 -11 13 -20 25
    -20 28 0 3 9 -3 20 -13 11 -10 20 -23 20 -28z m810 -156 c26 -49 -30 -102
    -137 -127 -108 -26 -178 -4 -171 55 l3 26 78 1 79 2 56 30 c70 36 79 37 92 13z
    m-672 -56 c12 -12 -26 -94 -59 -127 -42 -43 -71 -52 -40 -12 19 24 39 111 32
    143 -2 11 5 12 30 7 18 -3 35 -8 37 -11z"/>
    <path d="M2903 5558 c-29 -14 -29 -24 -1 -32 18 -4 20 -8 11 -17 -10 -10 -17
    -9 -32 5 l-20 18 -42 -28 -42 -29 -34 -89 c-33 -86 -34 -116 -3 -95 10 7 11
    12 4 15 -13 6 49 167 67 173 28 9 26 -26 -7 -89 -26 -52 -33 -75 -28 -99 9
    -45 18 -46 79 -11 l55 31 0 29 c0 15 16 62 36 104 l37 77 -11 25 c-12 26 -33
    29 -69 12z m54 -25 c4 -10 -8 -45 -30 -88 -20 -39 -37 -83 -37 -98 0 -21 -8
    -31 -40 -47 -23 -11 -45 -18 -50 -15 -14 8 -13 35 1 35 6 0 8 7 5 16 -3 8 6
    36 20 60 19 33 25 53 20 74 -6 34 16 43 32 13 l10 -17 26 17 c28 18 33 32 16
    42 -12 7 -4 25 11 25 5 0 13 -8 16 -17z"/>
    <path d="M2851 5402 c-16 -30 -14 -52 5 -52 10 0 14 6 11 14 -3 7 0 19 6 25 8
    8 8 14 0 22 -8 8 -14 6 -22 -9z"/>
    <path d="M3190 5500 c0 -5 5 -10 10 -10 14 0 12 -84 -2 -98 -9 -9 -5 -12 20
    -12 18 0 32 5 32 10 0 6 -4 10 -10 10 -5 0 -10 25 -10 55 l0 55 -20 0 c-11 0
    -20 -4 -20 -10z"/>
    <path d="M3285 5501 c-4 -7 5 -9 25 -5 36 8 44 -21 9 -34 l-21 -8 26 -12 c14
    -6 26 -16 26 -22 0 -17 -31 -24 -51 -11 -11 6 -19 8 -19 3 0 -14 23 -32 40
    -32 23 0 54 36 44 51 -4 6 -7 26 -8 43 l-1 31 -32 3 c-17 2 -34 -2 -38 -7z"/>
    <path d="M3417 5503 l31 -4 -24 -55 c-27 -60 -27 -64 -16 -64 8 0 62 104 62
    120 0 6 -19 9 -42 8 l-43 -1 32 -4z"/>
    <path d="M4350 5497 c-35 -18 -49 -61 -27 -85 12 -13 15 -28 11 -48 -13 -64
    72 -77 91 -14 5 19 18 47 28 62 23 34 15 63 -23 83 -35 18 -48 18 -80 2z m71
    -17 c27 -15 25 -58 -3 -69 -29 -11 -69 0 -82 23 l-11 17 24 20 c26 21 44 24
    72 9z m-13 -124 c-2 -15 -11 -22 -30 -24 l-28 -3 0 29 0 29 31 -5 c24 -4 29
    -9 27 -26z"/>
    <path d="M4405 5460 c-4 -6 -16 -8 -27 -4 -15 4 -19 2 -16 -7 3 -8 17 -15 31
    -17 22 -3 27 1 27 17 0 23 -5 27 -15 11z"/>
    <path d="M4099 5468 c-1 -2 -3 -29 -5 -60 l-3 -58 24 -6 c47 -12 80 20 57 56
    -6 10 -7 23 -2 31 13 20 -8 39 -41 39 -16 0 -29 -1 -30 -2z m49 -25 c-2 -10
    -10 -18 -18 -18 -8 0 -16 8 -18 18 -2 12 3 17 18 17 15 0 20 -5 18 -17z m10
    -60 c4 -16 -22 -27 -43 -19 -22 8 -6 38 18 34 11 -2 22 -9 25 -15z"/>
    <path d="M4204 5456 c-3 -9 -3 -23 0 -32 3 -8 1 -24 -4 -34 -19 -35 42 -69 68
    -37 5 6 9 35 8 62 l-1 50 -33 3 c-22 2 -34 -2 -38 -12z m54 -13 c-2 -10 -10
    -18 -18 -18 -8 0 -16 8 -18 18 -2 12 3 17 18 17 15 0 20 -5 18 -17z m0 -66 c3
    -12 -3 -17 -22 -17 -25 0 -35 18 -19 34 12 12 38 2 41 -17z"/>
    <path d="M3006 5340 c-63 -41 -85 -127 -40 -156 34 -23 68 -11 104 36 39 49
    44 82 19 114 -24 31 -44 33 -83 6z m18 -19 c-17 -10 -40 -38 -52 -62 -11 -24
    -21 -38 -22 -31 -1 38 58 111 90 112 8 0 1 -9 -16 -19z m66 -23 c0 -45 -51
    -108 -88 -108 l-25 0 6 38 c11 68 107 131 107 70z"/>
    <path d="M3017 5272 c-21 -23 -22 -48 -2 -56 20 -7 55 28 55 54 0 26 -31 27
    -53 2z m26 -24 c-10 -11 -19 -15 -21 -8 -5 15 18 41 30 34 5 -3 1 -15 -9 -26z"/>
    <path d="M7830 5322 c0 -11 33 -22 68 -22 12 0 22 5 22 10 0 6 -10 10 -22 10
    -13 0 -33 3 -45 6 -13 4 -23 2 -23 -4z"/>
    <path d="M3430 5300 c-10 -6 -11 -10 -2 -10 8 0 12 -17 12 -50 0 -29 -5 -50
    -11 -50 -5 0 -7 -4 -4 -10 11 -18 58 -12 51 6 -3 9 -6 40 -6 70 0 55 -8 64
    -40 44z"/>
    <path d="M3532 5298 c-20 -20 -13 -32 7 -14 20 19 41 14 41 -8 0 -7 -16 -29
    -36 -50 -19 -20 -32 -41 -29 -46 8 -13 72 -13 80 0 4 6 -9 10 -31 10 l-38 0
    37 34 c20 18 37 40 37 48 0 19 -20 38 -40 38 -9 0 -21 -5 -28 -12z"/>
    <path d="M3642 5302 c-7 -5 -12 -22 -12 -38 0 -16 -1 -40 -2 -53 -4 -28 26
    -43 60 -30 23 9 30 43 12 54 -6 4 -7 13 -1 23 19 35 -22 66 -57 44z m48 -27
    c0 -21 -19 -28 -36 -15 -10 9 -11 16 -3 26 12 15 39 8 39 -11z m0 -66 c0 -12
    -7 -19 -20 -19 -24 0 -38 29 -20 40 19 12 40 1 40 -21z"/>
    <path d="M5418 5289 c-38 -28 -35 -39 24 -79 36 -24 54 -44 60 -66 28 -109
    156 -113 170 -6 l6 43 -22 26 -22 26 -32 -17 c-39 -20 -39 -20 -45 3 -4 16
    -92 91 -107 90 -3 0 -17 -9 -32 -20z m28 -15 c-3 -8 0 -22 8 -30 19 -18 24
    -18 28 2 l3 16 25 -20 24 -20 -13 -16 c-15 -17 -26 -13 -76 27 l-29 25 13 16
    c17 20 25 21 17 0z m208 -87 l11 -18 -20 -15 -20 -15 -17 23 c-12 17 -14 26
    -6 36 14 17 38 12 52 -11z m-104 -22 c0 -14 13 -34 31 -50 23 -19 29 -29 21
    -37 -29 -29 -108 76 -81 108 15 18 29 9 29 -21z m46 -33 c-9 -8 -26 10 -26 26
    l1 17 14 -19 c8 -11 13 -21 11 -24z m64 -11 c0 -13 -29 -35 -37 -28 -7 8 15
    37 28 37 5 0 9 -4 9 -9z"/>
    <path d="M4050 5280 c0 -5 5 -10 10 -10 6 0 10 -20 10 -45 0 -25 -4 -45 -10
    -45 -5 0 -10 -4 -10 -10 0 -5 12 -10 27 -10 21 0 24 3 15 12 -7 7 -12 36 -12
    65 0 40 -4 53 -15 53 -8 0 -15 -4 -15 -10z"/>
    <path d="M4147 5284 c-4 -4 -7 -14 -7 -23 0 -12 3 -12 12 -3 16 16 48 15 48
    -1 0 -7 -16 -27 -35 -44 -47 -42 -44 -53 11 -53 30 0 43 4 38 11 -3 6 -17 9
    -30 6 -32 -6 -30 3 7 36 40 35 37 71 -6 75 -17 2 -34 0 -38 -4z"/>
    <path d="M4250 5255 l0 -35 26 6 c34 9 49 -13 27 -38 -12 -14 -20 -15 -35 -7
    -16 9 -19 8 -16 -3 7 -21 59 -16 74 7 l14 21 -16 22 c-8 12 -24 22 -35 22 -12
    0 -19 5 -16 13 2 6 13 11 25 9 11 -2 23 2 27 8 4 6 -9 10 -34 10 l-41 0 0 -35z"/>
    <path d="M5782 5198 c-28 -28 2 -84 39 -73 10 4 19 2 19 -3 0 -13 -21 -29 -45
    -35 l-20 -5 25 -1 c33 -1 47 9 60 43 11 30 5 66 -14 78 -17 12 -51 9 -64 -4z
    m56 -24 c3 -22 -21 -39 -39 -28 -11 6 -12 38 -2 48 13 13 38 1 41 -20z"/>
    <path d="M5890 5194 l0 -16 15 12 c16 14 35 6 35 -16 0 -8 -9 -14 -20 -14 -11
    0 -20 -4 -20 -10 0 -5 6 -10 13 -10 19 0 36 -20 30 -36 -6 -17 -35 -18 -52 -1
    l-13 12 4 -15 c3 -10 17 -15 39 -15 l34 0 1 45 c2 68 -3 80 -37 80 -20 0 -29
    -5 -29 -16z"/>
    <path d="M3120 5190 c0 -26 30 -80 44 -80 9 0 16 -3 16 -7 0 -5 16 -19 35 -32
    67 -46 75 -56 69 -88 l-6 -30 34 -27 c44 -33 50 -33 92 4 41 36 71 103 57 128
    -17 31 -63 51 -91 39 -14 -5 -35 -9 -47 -8 -12 1 -28 -7 -37 -20 -8 -13 -18
    -20 -22 -16 -11 11 5 39 26 44 11 3 17 9 14 14 -9 14 -22 10 -44 -13 -21 -23
    -36 -19 -27 7 4 8 16 15 27 15 27 0 25 14 -5 34 -28 18 -58 10 -69 -19 -8 -22
    -28 -8 -21 15 4 12 0 20 -12 24 -10 3 -1 4 20 1 45 -5 50 10 6 19 -44 9 -59 8
    -59 -4z m110 -59 c-5 -11 -15 -23 -20 -26 -14 -9 -12 19 2 33 19 19 30 14 18
    -7z m82 -83 l-22 -22 0 16 c0 9 8 21 17 27 27 15 29 3 5 -21z m93 22 c-3 -5 3
    -10 14 -10 17 0 21 -6 21 -31 l0 -31 -15 12 c-8 7 -12 16 -9 21 3 5 0 9 -5 9
    -6 0 -11 -5 -11 -10 0 -6 -12 -22 -26 -35 -20 -19 -23 -25 -11 -25 11 0 14 -5
    10 -17 -4 -11 -3 -14 5 -9 7 4 12 13 12 21 0 12 29 30 37 21 9 -9 -50 -66 -69
    -66 l-20 0 4 33 c3 17 8 40 13 50 4 10 3 17 -3 17 -5 0 -17 -17 -25 -37 l-15
    -38 -8 19 c-7 18 12 62 44 99 16 18 68 25 57 7z"/>
    <path d="M3960 5165 c0 -15 -63 -327 -75 -370 -7 -27 -16 -71 -20 -97 -7 -56
    -14 -62 -44 -42 l-22 16 14 17 c23 25 54 196 38 205 -4 3 -36 -20 -72 -51
    l-64 -56 -12 -56 c-32 -153 -28 -165 37 -112 42 35 34 52 -10 21 l-31 -22 7
    29 c28 127 34 143 46 143 6 0 6 -6 -2 -15 -25 -30 30 -61 58 -33 9 9 12 8 12
    -4 0 -17 -25 -48 -39 -48 -4 0 -12 5 -19 12 -6 6 -15 8 -19 4 -5 -5 3 -16 17
    -25 13 -9 39 -29 57 -45 38 -32 63 -29 63 9 0 14 4 45 10 68 5 23 26 128 46
    232 19 105 38 192 40 194 2 2 12 -4 23 -13 11 -10 21 -13 25 -7 3 5 -6 19 -20
    30 -26 20 -44 27 -44 16z m-131 -347 c9 -25 -11 -58 -34 -58 -21 0 -26 42 -8
    62 21 24 32 23 42 -4z"/>
    <path d="M4036 5118 c-30 -42 -13 -65 106 -142 23 -15 28 -24 24 -43 -8 -30 9
    -63 33 -63 41 0 111 87 111 138 0 32 -26 47 -57 33 -20 -9 -29 -9 -43 1 -10 7
    -43 32 -73 56 -64 48 -80 51 -101 20z m47 -6 c3 -4 -3 -17 -13 -30 -21 -26
    -36 -13 -20 18 11 21 25 26 33 12z m20 -46 c-10 -13 -21 -22 -26 -19 -11 7 12
    43 29 43 l15 0 -18 -24z m47 -3 c0 -5 -7 -16 -15 -27 -18 -24 -39 -12 -25 15
    10 18 40 27 40 12z m34 -22 c7 -10 -32 -47 -40 -38 -7 7 14 47 26 47 5 0 11
    -4 14 -9z m104 -39 c2 -15 -2 -22 -12 -22 -9 0 -16 7 -16 16 0 8 -4 12 -10 9
    -5 -3 -10 -14 -10 -24 0 -11 -10 -22 -22 -26 -14 -4 -18 -8 -10 -12 6 -2 12
    -12 12 -21 1 -12 5 -9 15 9 15 28 45 46 45 28 0 -16 -56 -69 -73 -69 -34 0
    -23 70 18 114 29 32 59 31 63 -2z m-88 -2 c-6 -11 -15 -20 -21 -20 -6 0 -6 7
    1 20 6 11 15 20 21 20 6 0 6 -7 -1 -20z"/>
    <path d="M5329 5039 c-16 -18 -27 -34 -25 -36 3 -3 1 -15 -4 -28 -16 -41 38
    -105 103 -120 37 -10 68 0 100 29 l27 25 0 49 c0 74 -45 112 -132 112 l-40 0
    -29 -31z m125 7 c66 -28 85 -89 39 -126 l-28 -22 -44 6 c-95 13 -133 109 -57
    142 40 17 49 17 90 0z m-25 -162 c10 -9 -45 -3 -59 6 -11 7 -5 8 20 4 19 -4
    37 -8 39 -10z"/>
    <path d="M5392 5008 c-27 -27 -6 -68 34 -68 31 0 48 24 35 48 -16 31 -49 40
    -69 20z m51 -33 c-4 -15 -36 -12 -41 3 -3 9 3 13 19 10 13 -1 23 -7 22 -13z"/>
    <path d="M3655 4955 c-16 -13 -53 -42 -82 -64 l-51 -40 -7 -43 c-3 -24 -9 -57
    -12 -75 -4 -25 -1 -34 16 -43 l22 -11 80 67 c44 37 82 77 84 88 20 84 22 117
    8 131 -19 20 -23 19 -58 -10z m43 -4 c-6 -16 -139 -123 -145 -117 -8 8 -1 15
    74 77 56 46 79 59 71 40z m-2 -79 l-11 -49 -63 -52 c-35 -29 -65 -51 -67 -49
    -2 2 1 24 6 50 8 35 19 53 45 73 19 14 46 37 61 51 37 34 42 30 29 -24z m-151
    -104 c-8 -56 -11 -65 -21 -55 -10 9 7 107 18 107 6 0 7 -19 3 -52z"/>
    <path d="M3660 4854 c0 -8 5 -12 10 -9 6 3 10 10 10 16 0 5 -4 9 -10 9 -5 0
    -10 -7 -10 -16z"/>
    <path d="M3590 4800 c0 -5 4 -10 9 -10 6 0 13 5 16 10 3 6 -1 10 -9 10 -9 0
    -16 -4 -16 -10z"/>
    <path d="M4985 4970 c-3 -5 -1 -10 4 -10 15 0 14 -83 -1 -98 -9 -9 -4 -12 22
    -12 26 0 31 3 22 12 -7 7 -12 36 -12 65 0 39 -4 53 -14 53 -8 0 -18 -4 -21
    -10z"/>
    <path d="M5096 4943 c3 -21 7 -46 9 -55 2 -10 -1 -18 -6 -18 -5 0 -9 -4 -9
    -10 0 -5 11 -10 25 -10 14 0 25 5 25 10 0 6 -4 10 -10 10 -5 0 -10 25 -10 55
    0 41 -4 55 -14 55 -11 0 -14 -9 -10 -37z"/>
    <path d="M5191 4966 c-18 -21 -10 -97 12 -110 28 -18 52 4 55 53 3 46 -10 71
    -38 71 -10 0 -23 -6 -29 -14z m50 -23 c14 -37 4 -73 -21 -73 -12 0 -22 9 -25
    23 -7 26 10 77 25 77 6 0 15 -12 21 -27z"/>
    <path d="M5641 4941 c-9 -6 -10 -11 -2 -15 15 -10 14 -103 -1 -109 -7 -3 0 -6
    16 -6 22 -1 26 2 18 12 -6 7 -12 38 -14 70 -2 44 -6 55 -17 48z"/>
    <path d="M5736 4929 c-42 -33 -25 -119 23 -119 50 0 65 115 17 133 -8 3 -26
    -3 -40 -14z m50 -24 c9 -38 -3 -75 -25 -75 -13 0 -21 9 -26 29 -12 56 37 100
    51 46z"/>
    <path d="M5875 4942 c-13 -9 -55 -80 -55 -93 0 -5 13 -9 29 -9 20 0 31 -6 34
    -17 l5 -18 1 18 c0 9 6 17 12 17 8 0 8 4 1 13 -6 7 -12 31 -14 54 -2 27 -7 40
    -13 35z m-3 -84 c-21 -21 -32 3 -14 30 l17 26 3 -23 c2 -13 -1 -28 -6 -33z"/>
    <path d="M4558 4875 c-4 -11 -10 -41 -14 -67 -3 -27 -8 -48 -10 -48 -2 0 -24
    16 -50 35 -82 63 -83 62 -434 -235 -42 -36 -142 -121 -223 -190 -158 -133
    -171 -152 -144 -204 28 -53 29 -79 7 -209 -24 -146 -25 -142 60 -205 l59 -43
    88 -15 c48 -8 111 -17 138 -19 l50 -5 37 22 c20 13 110 86 199 163 446 384
    423 359 434 470 4 39 12 76 17 82 6 7 11 43 12 80 l1 67 -102 83 c-57 47 -108
    81 -113 78 -6 -4 8 -20 32 -38 24 -18 72 -54 106 -81 l62 -49 0 -31 0 -32
    -125 -109 c-69 -60 -125 -113 -125 -118 0 -12 42 21 145 113 49 44 93 80 97
    80 16 0 8 -22 -14 -41 -144 -121 -288 -245 -399 -340 -74 -63 -161 -137 -193
    -163 l-59 -48 -31 6 c-36 7 -60 23 -215 143 -63 48 -117 94 -119 102 -3 8 14
    -1 37 -19 22 -18 44 -30 48 -27 6 7 -65 76 -79 77 -17 1 -48 42 -48 63 0 25 1
    25 245 232 77 65 164 139 194 164 194 165 254 211 276 211 23 0 108 -50 120
    -71 11 -16 -4 -10 -47 21 -68 49 -87 44 -213 -66 -60 -53 -210 -180 -332 -282
    -232 -194 -247 -212 -205 -247 194 -162 312 -245 346 -245 18 0 164 119 465
    380 182 159 221 195 221 211 0 18 -110 119 -129 119 -16 -1 -9 -8 78 -83 62
    -54 21 -39 -51 18 -103 82 -98 79 -98 67 0 -6 36 -40 79 -74 44 -35 80 -66 80
    -70 2 -18 -26 -4 -92 47 -39 30 -74 55 -79 55 -19 0 -3 -18 57 -63 96 -73 95
    -65 4 -141 l-81 -68 -62 16 c-93 23 -61 41 -319 -176 -96 -82 -181 -148 -188
    -148 -7 0 -38 22 -68 48 -31 26 -75 62 -98 81 -45 34 -55 55 -25 49 9 -2 16
    -11 16 -21 -1 -9 0 -17 3 -17 12 0 132 102 177 150 l49 52 -7 -27 c-5 -20 -3
    -26 6 -23 7 3 15 20 18 39 4 24 10 33 21 31 10 -1 19 7 23 20 5 14 9 18 13 11
    8 -22 23 -14 23 11 0 14 5 28 10 31 6 3 10 -3 10 -14 0 -12 5 -21 10 -21 9 0
    14 21 11 47 -1 7 11 20 26 29 72 43 132 88 182 134 49 46 82 65 66 40 -6 -10
    -45 -259 -45 -287 0 -7 4 -13 8 -13 8 0 43 230 42 278 0 30 10 28 48 -11 l32
    -33 -10 -53 c-12 -66 -13 -81 -1 -81 5 0 12 26 16 58 3 31 18 119 31 194 14
    76 24 148 22 160 l-4 23 -6 -20z m-77 -142 c27 -20 49 -41 49 -45 0 -16 -26
    -6 -60 22 -37 33 -80 39 -100 15 -7 -8 -18 -15 -25 -15 -7 0 -40 -27 -74 -60
    -34 -33 -79 -72 -99 -87 -84 -62 -192 -153 -276 -230 -48 -46 -94 -83 -101
    -83 -8 0 -23 -12 -34 -27 -12 -14 -24 -23 -28 -19 -9 8 13 28 376 335 199 169
    280 231 298 231 14 0 48 -17 74 -37z m-6 -45 c24 -18 44 -39 45 -45 0 -19 -7
    -16 -51 19 l-39 31 -24 -11 -24 -11 -6 16 c-7 18 9 33 37 33 10 0 38 -15 62
    -32z m-110 -8 c4 -6 -5 -10 -20 -10 -15 0 -24 4 -20 10 3 6 12 10 20 10 8 0
    17 -4 20 -10z m-50 -75 c-52 -46 -69 -53 -81 -34 -11 18 66 78 101 79 l29 0
    -49 -45z m-80 -55 c3 -5 -8 -16 -24 -25 -54 -27 -84 -14 -38 18 25 18 53 21
    62 7z m-85 -55 c0 -2 -32 -31 -72 -65 -52 -43 -75 -57 -82 -49 -8 8 -1 18 24
    37 19 15 48 39 65 54 26 24 65 38 65 23z m585 -167 c-10 -85 -31 -121 -104
    -179 -36 -29 -95 -79 -131 -111 -131 -118 -346 -301 -382 -325 l-38 -25 -122
    17 c-140 20 -156 27 -223 88 l-49 44 22 112 c11 63 24 116 27 119 3 3 18 -6
    33 -20 15 -14 78 -64 141 -111 l113 -87 44 0 c47 0 70 14 169 97 110 92 335
    285 415 356 47 42 86 76 88 76 1 1 0 -23 -3 -51z m-751 34 c3 -5 -12 -26 -33
    -46 -50 -48 -68 -30 -20 20 34 35 44 40 53 26z m471 -48 c59 -10 59 -12 13
    -51 -24 -19 -63 -52 -88 -73 -299 -255 -311 -263 -370 -223 -36 24 -36 23 -23
    31 6 4 44 35 84 69 41 34 128 106 194 162 67 55 127 98 135 96 8 -2 33 -7 55
    -11z m-555 -43 c0 -19 -61 -54 -72 -43 -8 8 -4 17 13 31 25 21 59 28 59 12z
    m-82 -58 c2 -8 -5 -13 -17 -13 -12 0 -21 6 -21 16 0 18 31 15 38 -3z"/>
    <path d="M4945 4786 c-48 -48 -43 -180 9 -205 33 -15 73 -3 82 26 3 10 11 28
    16 40 15 31 4 119 -17 143 -24 27 -61 25 -90 -4z m80 -12 c17 -17 16 -35 -2
    -41 -7 -3 -9 4 -6 16 3 12 1 21 -6 21 -6 0 -11 -4 -11 -10 0 -18 -18 -10 -23
    10 -6 25 24 28 48 4z m-68 -13 c0 -11 -5 -18 -9 -15 -4 3 -5 11 -1 19 7 21 12
    19 10 -4z m46 -53 l37 2 0 -30 c0 -34 -12 -43 -52 -42 -40 1 -58 18 -58 54 l0
    30 18 -8 c9 -4 34 -7 55 -6z m17 -98 c0 -5 -15 -10 -34 -10 -19 0 -38 5 -41
    10 -4 6 10 10 34 10 23 0 41 -4 41 -10z"/>
    <path d="M5348 4789 c-9 -5 -25 -36 -34 -69 -11 -39 -24 -65 -39 -74 -16 -11
    -27 -33 -36 -72 l-13 -57 32 -28 c62 -56 124 -36 148 47 l16 55 -17 26 -17 26
    12 58 13 59 -18 20 c-20 23 -23 23 -47 9z m40 -32 c2 -11 -3 -17 -17 -17 -23
    0 -35 15 -26 31 10 15 39 6 43 -14z m-12 -55 l-15 -15 -15 13 c-24 19 -19 27
    15 22 l31 -5 -16 -15z m4 -33 c0 -14 -19 -21 -40 -14 -33 10 -24 32 10 27 17
    -2 30 -8 30 -13z m-13 -44 c-5 -14 -50 -12 -54 2 -3 8 6 12 26 10 17 -1 29 -6
    28 -12z m-83 -19 c-13 -54 60 -75 84 -23 14 28 32 28 32 0 0 -63 -108 -72
    -129 -11 -8 22 -8 35 0 44 16 20 20 17 13 -10z m71 -26 c-3 -5 -15 -10 -25
    -10 -10 0 -22 5 -25 10 -4 6 7 10 25 10 18 0 29 -4 25 -10z m-98 -62 c-3 -7
    -5 -2 -5 12 0 14 2 19 5 13 2 -7 2 -19 0 -25z m123 -9 c-7 -11 -14 -18 -17
    -15 -3 3 0 12 7 21 18 21 23 19 10 -6z m-62 5 c12 -4 22 -13 22 -20 0 -16 -37
    -19 -59 -5 -7 5 -10 14 -7 20 8 13 12 13 44 5z"/>
    <path d="M3155 4771 c-3 -5 -1 -12 5 -16 15 -9 13 -92 -2 -98 -7 -3 3 -5 22
    -5 19 0 29 2 23 5 -9 3 -13 26 -13 64 0 45 -3 59 -14 59 -8 0 -17 -4 -21 -9z"/>
    <path d="M3252 4768 c-7 -7 -12 -19 -12 -27 0 -11 6 -9 21 7 11 12 24 20 30
    17 18 -12 9 -41 -21 -70 -41 -39 -38 -45 18 -43 l47 1 -39 4 -39 4 38 39 39
    39 -19 21 c-20 23 -45 26 -63 8z"/>
    <path d="M3362 4768 c-7 -7 -12 -34 -12 -60 l0 -48 25 -6 c43 -11 55 1 55 54
    0 50 -12 72 -40 72 -9 0 -21 -5 -28 -12z m53 -37 c6 -30 -8 -71 -25 -71 -17 0
    -31 41 -25 71 4 19 13 29 25 29 12 0 21 -10 25 -29z"/>
    <path d="M2139 4716 c-55 -17 -69 -33 -69 -81 l0 -42 25 -13 c14 -7 26 -20 26
    -29 1 -9 2 -22 3 -30 2 -22 30 -35 60 -27 l26 6 -3 35 c-3 23 0 35 8 35 42 0
    64 109 26 130 -43 22 -67 26 -102 16z m89 -32 c29 -20 15 -41 -34 -50 -19 -3
    -34 -11 -34 -16 0 -11 41 -7 73 7 10 4 17 3 17 -4 0 -14 -60 -41 -92 -41 -41
    0 -65 25 -64 67 1 27 6 39 19 41 20 4 24 -24 5 -31 -7 -2 8 -6 35 -8 35 -3 46
    -1 42 8 -2 7 3 13 11 13 8 0 13 4 10 8 -3 5 -18 7 -34 4 -16 -2 -33 1 -36 7
    -11 17 56 13 82 -5z m-45 -131 c-7 -2 -21 -2 -30 0 -10 3 -4 5 12 5 17 0 24
    -2 18 -5z m7 -33 c0 -5 -11 -10 -25 -10 -14 0 -25 5 -25 10 0 6 11 10 25 10
    14 0 25 -4 25 -10z"/>
    <path d="M7340 4720 c0 -11 22 -17 234 -65 88 -20 164 -39 169 -42 26 -16 167
    -40 167 -29 0 8 -80 30 -212 60 -117 26 -241 56 -275 67 -70 22 -83 23 -83 9z"/>
    <path d="M793 4665 c-42 -18 -43 -47 -3 -76 l29 -22 -2 -82 c-1 -62 3 -92 17
    -123 23 -51 28 -52 49 -7 23 48 21 55 -7 42 -18 -9 -22 -15 -14 -24 6 -8 7
    -13 1 -13 -8 0 -33 41 -33 55 0 2 8 1 18 -2 10 -2 29 5 43 16 13 11 19 20 12
    21 -6 0 -9 9 -6 21 l6 21 -20 -13 c-11 -7 -28 -9 -38 -5 -22 8 -9 23 24 28 14
    1 26 9 29 16 l4 14 -20 -13 c-11 -7 -27 -9 -38 -4 l-19 8 38 9 c26 7 37 16 37
    28 0 10 9 22 20 25 24 8 42 38 34 59 -13 34 -105 46 -161 21z m132 -22 l17
    -17 -22 -18 c-39 -31 -140 -19 -140 17 0 36 114 50 145 18z m-40 -83 c-3 -5
    -17 -10 -31 -10 -13 0 -24 5 -24 10 0 6 14 10 31 10 17 0 28 -4 24 -10z m-5
    -120 c0 -5 -11 -10 -25 -10 -14 0 -25 5 -25 10 0 6 11 10 25 10 14 0 25 -4 25
    -10z"/>
    <path d="M827 4638 c2 -5 -1 -8 -6 -8 -6 0 -11 -5 -11 -11 0 -7 9 -9 22 -6 12
    3 30 2 40 -4 14 -7 18 -6 18 6 0 8 5 15 10 15 6 0 10 3 10 8 0 4 -20 7 -44 7
    -24 0 -42 -3 -39 -7z"/>
    <path d="M5452 4641 l-14 -8 16 -6 c18 -7 23 -97 6 -97 -5 0 -10 -4 -10 -10 0
    -5 11 -10 25 -10 14 0 25 5 25 10 0 6 -4 10 -10 10 -6 0 -10 27 -10 60 0 60
    -4 67 -28 51z"/>
    <path d="M5546 4635 c-22 -23 -21 -80 3 -104 27 -27 58 -16 71 25 21 63 -32
    120 -74 79z m54 -20 c8 -9 10 -28 6 -51 l-7 -35 -22 3 c-17 2 -23 11 -25 36
    -6 58 19 82 48 47z"/>
    <path d="M5656 4634 c-17 -17 -21 -80 -7 -103 5 -7 21 -13 36 -13 33 0 45 16
    45 63 0 56 -42 86 -74 53z m52 -44 c3 -42 -10 -65 -32 -57 -16 7 -23 76 -9 91
    17 17 38 -1 41 -34z"/>
    <path d="M3360 4530 c-10 -6 -11 -10 -2 -10 8 0 12 -17 12 -50 0 -27 -4 -50
    -10 -50 -5 0 -10 -4 -10 -10 0 -5 11 -10 25 -10 14 0 25 5 25 10 0 6 -4 10
    -10 10 -5 0 -10 27 -12 60 l-3 59 -15 -9z"/>
    <path d="M3460 4529 l-15 -9 14 0 c10 0 12 -14 9 -60 l-4 -60 17 0 c10 0 21 5
    24 10 3 6 1 10 -4 10 -7 0 -11 23 -11 54 0 58 -7 70 -30 55z"/>
    <path d="M3540 4530 c0 -5 14 -10 30 -10 36 0 35 3 10 -56 -32 -73 -16 -77 18
    -4 16 36 28 68 25 73 -7 11 -83 9 -83 -3z"/>
    <path d="M1830 4515 c-7 -9 -9 -19 -5 -23 4 -4 10 -1 12 6 3 6 13 12 24 12 29
    0 23 -32 -12 -63 -17 -15 -29 -32 -27 -39 6 -17 53 -22 75 -9 l18 10 -40 1
    -39 0 38 39 38 39 -11 21 c-14 25 -53 28 -71 6z"/>
    <path d="M1930 4521 c0 -6 13 -11 30 -13 l29 -3 -20 -44 c-11 -24 -18 -49 -16
    -55 4 -10 37 57 52 103 l6 21 -40 0 c-23 0 -41 -4 -41 -9z"/>
    <path d="M530 4509 c-12 -7 -12 -9 -2 -9 10 0 13 -14 10 -55 l-3 -55 25 1 c14
    0 19 3 13 6 -8 3 -13 25 -13 58 0 57 -7 69 -30 54z"/>
    <path d="M636 4474 c-32 -56 -32 -54 -1 -54 13 0 28 -7 32 -15 l9 -14 12 19
    c7 12 8 20 2 20 -5 0 -10 20 -10 45 0 57 -12 57 -44 -1z m34 -13 c0 -20 -17
    -37 -27 -28 -7 8 7 47 18 47 5 0 9 -9 9 -19z"/>
    <path d="M4931 4506 c-6 -7 -14 -45 -18 -82 l-6 -69 -34 -29 c-41 -37 -42 -68
    -4 -107 23 -23 38 -29 71 -29 33 0 48 6 71 29 36 36 36 51 3 91 l-27 31 13 70
    12 70 -18 20 c-20 22 -47 25 -63 5z m57 -23 c2 -8 -6 -13 -22 -13 -17 0 -26 5
    -26 16 0 19 41 16 48 -3z m-8 -51 c0 -16 -42 -12 -47 4 -2 7 6 11 22 10 14 0
    25 -7 25 -14z m-2 -43 c-2 -5 -6 -9 -10 -9 -5 0 -15 0 -23 0 -8 0 -15 6 -15
    14 0 9 8 12 25 8 14 -2 25 -8 23 -13z m-11 -44 c-5 -14 -39 -13 -44 2 -3 9 4
    12 21 11 15 -1 25 -7 23 -13z m-59 -55 c14 -24 54 -26 72 -5 16 20 27 19 32
    -3 15 -56 -52 -90 -118 -58 -36 17 -46 50 -22 74 16 16 21 15 36 -8z m62 11
    c0 -12 -29 -23 -41 -15 -18 10 -9 24 16 24 14 0 25 -4 25 -9z"/>
    <path d="M2124 4438 c1 -30 11 -70 23 -93 l21 -39 21 34 c11 19 21 41 21 48 0
    14 -17 17 -22 3 -6 -17 -42 -17 -46 1 -2 12 5 17 30 20 l33 3 3 40 3 40 -12
    -12 c-15 -15 -59 -17 -59 -3 0 6 -4 10 -9 10 -5 0 -8 -24 -7 -52z m62 -4 c-10
    -7 -24 -10 -32 -7 -24 9 -15 18 18 19 l32 1 -18 -13z m-6 -74 c0 -5 -4 -10
    -10 -10 -5 0 -10 5 -10 10 0 6 5 10 10 10 6 0 10 -4 10 -10z"/>
    <path d="M915 4284 c-82 -42 -161 -83 -175 -92 -14 -9 -59 -34 -100 -55 -41
    -21 -84 -47 -95 -57 -11 -10 -85 -61 -165 -113 -180 -119 -178 -117 -191 -157
    l-12 -32 19 -18 c18 -17 94 -42 381 -126 l122 -36 73 42 c170 99 337 195 398
    227 36 19 152 87 258 150 l192 115 0 28 c0 40 -8 44 -195 100 -94 28 -203 62
    -244 75 -40 14 -83 25 -95 25 -11 0 -88 -34 -171 -76z m354 2 c102 -30 215
    -66 251 -79 l65 -25 -33 -18 c-19 -11 -81 -47 -139 -81 -58 -35 -111 -63 -117
    -63 -7 0 -39 9 -72 21 -32 11 -130 42 -218 68 -105 32 -151 50 -137 54 11 3
    21 11 21 17 0 7 -6 10 -13 7 -8 -3 -20 -1 -28 4 -10 6 -15 3 -19 -10 l-5 -19
    -30 13 -30 13 155 76 c85 41 157 76 159 76 2 0 88 -25 190 -54z m-461 -135
    c31 -10 147 -47 257 -81 110 -34 207 -64 215 -67 l15 -6 -16 -4 c-9 -2 -68 12
    -130 31 -63 19 -182 56 -266 82 -84 26 -150 51 -147 56 7 11 6 11 72 -11z
    m781 -13 c-8 -5 -54 -34 -104 -65 -49 -30 -124 -74 -165 -96 -41 -22 -82 -45
    -90 -52 -8 -6 -46 -29 -85 -50 -125 -68 -140 -77 -150 -85 -5 -5 -37 -23 -70
    -41 -33 -18 -93 -52 -133 -76 -86 -52 -117 -53 -40 -1 49 33 70 45 188 113 25
    14 73 38 107 55 33 16 63 33 65 38 5 13 142 92 160 92 9 0 24 7 32 16 32 32
    291 182 295 171 2 -6 -2 -15 -10 -19z m-639 -73 c112 -36 219 -68 237 -71 44
    -8 49 -19 14 -34 -17 -6 -44 -23 -62 -36 -31 -22 -62 -24 -94 -5 -5 3 -12 6
    -15 7 -3 0 -43 12 -90 26 -47 15 -134 41 -195 58 -60 18 -125 40 -143 49 l-32
    17 52 31 c67 41 71 40 328 -42z m-215 -71 c99 -30 219 -67 268 -82 48 -14 84
    -29 80 -33 -5 -4 -53 8 -108 27 -55 19 -174 57 -264 85 -151 45 -190 59 -165
    59 5 0 90 -25 189 -56z m-75 -8 c63 -20 158 -49 210 -66 52 -17 113 -37 135
    -44 l40 -13 -40 -20 c-22 -12 -83 -46 -134 -77 -52 -31 -104 -56 -115 -56 -12
    0 -79 18 -151 41 -71 22 -178 54 -238 72 -59 17 -106 34 -105 38 3 8 130 94
    208 141 25 15 52 25 60 23 8 -3 67 -20 130 -39z m-242 -200 c97 -30 211 -64
    252 -76 l74 -22 -23 -12 -23 -13 -201 59 c-251 73 -287 86 -280 104 7 19 2 20
    201 -40z m-29 -51 c193 -56 302 -95 296 -105 -3 -5 -33 1 -68 12 -34 11 -132
    40 -217 65 -139 41 -219 73 -181 73 8 0 84 -20 170 -45z"/>
    <path d="M1000 4276 c-36 -13 -64 -53 -55 -78 8 -21 54 -44 113 -57 134 -28
    250 17 227 89 -16 52 -190 80 -285 46z m229 -24 c86 -42 30 -97 -99 -97 -124
    0 -196 40 -155 85 37 41 182 48 254 12z"/>
    <path d="M1373 4198 c2 -7 14 -13 27 -13 13 0 25 6 28 13 2 8 -7 12 -28 12
    -21 0 -30 -4 -27 -12z"/>
    <path d="M510 3988 c0 -4 5 -8 10 -8 6 0 10 -4 10 -10 0 -5 -16 -10 -35 -10
    -72 0 -129 -49 -111 -95 9 -26 96 -58 166 -62 l65 -4 44 23 c77 40 79 69 11
    116 -22 14 -48 22 -76 22 -24 0 -44 5 -44 10 0 6 5 10 10 10 6 0 10 4 10 8 0
    5 -13 9 -30 9 -16 0 -30 -4 -30 -9z m144 -67 c88 -43 43 -91 -85 -91 -80 0
    -141 15 -163 39 -22 24 -7 40 55 62 67 23 130 20 193 -10z"/>
    <path d="M610 3769 c0 -10 40 -19 56 -12 25 9 15 19 -21 19 -19 0 -35 -3 -35
    -7z"/>
    <path d="M5234 4328 c-4 -6 -2 -14 4 -16 15 -5 16 -92 2 -92 -5 0 -10 -4 -10
    -10 0 -5 11 -10 25 -10 14 0 25 5 25 10 0 6 -4 10 -10 10 -6 0 -10 27 -10 60
    0 57 -10 75 -26 48z"/>
    <path d="M5340 4325 c-10 -12 -10 -15 0 -15 9 0 11 -15 8 -55 l-5 -55 24 0
    c13 0 23 5 23 10 0 6 -4 10 -10 10 -6 0 -10 27 -10 60 0 61 -8 72 -30 45z"/>
    <path d="M2810 4310 c-22 -22 -26 -70 -10 -101 12 -21 50 -25 68 -7 31 31 -3
    87 -42 72 -9 -3 -16 -2 -16 3 0 15 23 33 43 33 10 0 15 5 12 10 -10 16 -33 12
    -55 -10z m48 -73 c4 -20 -25 -34 -40 -19 -15 15 -1 44 19 40 10 -2 19 -11 21
    -21z"/>
    <path d="M2911 4317 c-21 -26 -24 -75 -7 -102 33 -50 81 -22 81 47 0 55 -46
    88 -74 55z m57 -36 c6 -39 -7 -71 -28 -71 l-20 0 0 43 c0 24 3 47 7 51 14 13
    38 0 41 -23z"/>
    <path d="M5120 4320 c0 -5 5 -10 10 -10 6 0 10 -20 10 -45 0 -25 -4 -45 -10
    -45 -5 0 -10 -4 -10 -10 0 -5 14 -10 32 -10 25 0 29 3 20 12 -7 7 -12 36 -12
    65 l0 53 -20 0 c-11 0 -20 -4 -20 -10z"/>
    <path d="M2123 4243 c-29 -6 -73 -51 -73 -75 0 -11 13 -33 29 -49 l29 -29 62
    0 c106 0 153 36 136 104 -11 43 -96 66 -183 49z m145 -29 c53 -37 4 -84 -90
    -84 -88 0 -131 51 -70 84 36 20 131 20 160 0z"/>
    <path d="M2163 4212 c-46 -7 -31 -62 18 -62 21 0 51 28 44 41 -10 15 -39 25
    -62 21z m37 -32 c0 -5 -9 -10 -20 -10 -11 0 -20 5 -20 10 0 6 9 10 20 10 11 0
    20 -4 20 -10z"/>
    <path d="M5580 4231 c0 -6 5 -13 10 -16 18 -11 12 -93 -7 -98 -10 -3 -5 -5 12
    -6 l30 -1 -3 65 -4 65 -19 0 c-10 0 -19 -4 -19 -9z"/>
    <path d="M5685 4230 c-3 -5 -1 -10 5 -10 8 0 11 -18 8 -55 l-3 -55 25 1 c14 0
    19 3 13 6 -9 3 -13 26 -13 64 0 45 -3 59 -14 59 -8 0 -18 -4 -21 -10z"/>
    <path d="M5786 4224 c-3 -9 -6 -24 -6 -35 l0 -18 29 5 c33 7 47 -14 27 -41
    l-13 -18 -22 13 -23 12 4 -14 c3 -7 19 -14 36 -16 59 -6 70 73 11 85 -37 7
    -38 30 -1 36 l27 4 -31 2 c-21 0 -34 -5 -38 -15z"/>
    <path d="M1823 4214 c-7 -3 -13 -12 -13 -20 l0 -14 20 12 c14 9 22 10 31 1 8
    -8 1 -21 -25 -51 -45 -50 -45 -52 7 -50 l42 1 -34 4 -34 4 33 34 c48 49 30
    102 -27 79z"/>
    <path d="M1920 4205 c-11 -13 -11 -21 -3 -34 9 -14 8 -22 -4 -34 l-16 -16 13
    -16 c9 -11 26 -15 49 -13 l36 3 -3 25 c-1 14 -3 41 -5 60 l-2 35 -26 3 c-15 2
    -31 -4 -39 -13z m54 -14 c8 -12 -21 -34 -34 -26 -17 11 -11 35 9 35 11 0 22
    -4 25 -9z m1 -71 c0 -22 -39 -19 -43 3 -3 15 1 18 20 15 12 -2 23 -10 23 -18z"/>
    <path d="M7340 4163 c0 -5 69 -25 153 -46 83 -21 210 -53 280 -71 70 -18 130
    -29 133 -25 3 5 -8 11 -23 15 -15 3 -48 12 -73 20 -46 14 -453 114 -464 114
    -3 0 -6 -3 -6 -7z"/>
    <path d="M5358 4078 c-40 -35 -108 -92 -152 -128 -43 -36 -113 -94 -155 -130
    -42 -36 -156 -132 -254 -215 -97 -82 -177 -154 -177 -160 0 -5 12 -18 25 -28
    l25 -18 78 66 c42 37 129 110 192 163 63 53 176 148 250 212 74 63 170 144
    213 179 81 65 89 82 50 108 l-21 14 -74 -63z m101 18 c0 -10 -124 -118 -363
    -314 -56 -46 -123 -103 -151 -127 -27 -23 -102 -86 -165 -139 l-114 -96 -15
    15 c-8 8 -13 16 -10 18 2 2 78 67 169 143 91 77 217 183 280 235 63 52 126
    105 140 117 166 143 231 186 229 148z"/>
    <path d="M7300 4111 c0 -4 21 -13 48 -19 26 -6 157 -38 292 -72 135 -33 252
    -59 260 -57 l15 4 -15 6 c-8 3 -89 24 -180 46 -91 23 -217 54 -280 71 -125 32
    -140 34 -140 21z"/>
    <path d="M2720 3984 c-80 -68 -146 -130 -148 -137 -4 -20 116 -81 133 -67 11
    9 16 7 25 -10 l11 -21 15 12 c21 17 21 16 42 -120 l19 -123 -26 -23 c-14 -13
    -47 -41 -73 -62 -88 -72 -273 -230 -300 -256 -41 -38 -38 -78 10 -115 143
    -112 355 -240 257 -156 l-30 26 27 -16 c30 -18 52 -21 43 -7 -10 17 -115 72
    -124 66 -6 -3 -31 10 -56 29 -25 20 -53 39 -61 44 l-16 9 24 24 c12 13 31 30
    40 37 l17 14 48 -28 c26 -15 85 -49 129 -76 86 -51 94 -54 94 -38 0 5 -21 21
    -47 36 -27 14 -86 49 -133 77 -47 27 -88 51 -91 53 -3 2 -25 -15 -48 -36 -39
    -36 -72 -52 -70 -32 0 4 41 41 90 82 50 41 138 116 197 166 59 51 108 91 109
    90 4 -4 34 -228 31 -230 -27 -16 -127 -110 -123 -116 7 -11 83 -50 98 -50 7 0
    48 31 93 68 178 148 177 146 101 183 l-45 22 -41 -33 c-51 -41 -51 -48 -3 -46
    44 2 62 12 62 32 0 18 10 17 37 -4 l21 -17 -109 -92 c-60 -51 -114 -93 -119
    -93 -6 0 -24 7 -41 15 -32 17 -30 40 2 30 26 -8 49 11 49 41 0 28 18 41 26 20
    10 -25 27 -19 20 7 -4 12 -13 67 -21 122 -28 201 -46 332 -55 410 -6 51 -15
    84 -25 91 -8 6 -15 20 -15 30 0 14 2 16 9 6 9 -15 151 98 151 121 0 8 3 7 9
    -2 17 -27 44 -4 37 31 -4 22 -2 34 11 43 9 7 13 17 9 24 -9 14 -107 71 -121
    71 -5 -1 -75 -57 -155 -126z m205 79 c25 -16 45 -30 45 -34 0 -7 -198 -174
    -247 -208 l-35 -25 -44 24 c-24 14 -43 27 -42 31 3 5 270 237 275 239 1 0 23
    -12 48 -27z m35 -89 c0 -8 -5 -12 -10 -9 -6 4 -8 11 -5 16 9 14 15 11 15 -7z
    m-90 -74 c-25 -22 -54 -45 -65 -51 -11 -5 5 12 35 40 30 28 60 50 65 51 6 0
    -10 -18 -35 -40z m-87 -483 c-198 -177 -371 -318 -378 -307 -13 20 -2 30 289
    277 l121 102 3 -19 c2 -12 -11 -32 -35 -53z m189 -169 c-7 -7 -12 -8 -12 -2 0
    6 3 14 7 17 3 4 9 5 12 2 2 -3 -1 -11 -7 -17z m-160 -130 c-7 -7 -12 -8 -12
    -2 0 6 3 14 7 17 3 4 9 5 12 2 2 -3 -1 -11 -7 -17z"/>
    <path d="M4319 4093 c-24 -29 -179 -157 -212 -176 -41 -23 -68 -16 -135 35
    -63 47 -81 44 -27 -4 54 -47 75 -57 122 -58 l42 0 120 101 c67 56 121 106 121
    110 0 14 -17 10 -31 -8z"/>
    <path d="M5454 3922 c-50 -42 -138 -117 -195 -167 -57 -49 -136 -117 -175
    -150 -226 -189 -423 -356 -433 -369 -13 -16 -28 -100 -96 -556 -63 -425 -63
    -420 -55 -425 18 -11 400 -115 885 -240 138 -36 257 -69 265 -74 9 -5 30 -12
    48 -15 32 -8 72 -47 72 -73 0 -34 -37 -76 -147 -169 -65 -54 -147 -124 -183
    -154 -307 -264 -329 -280 -410 -304 -97 -29 -269 -13 -375 34 -11 5 -60 18
    -110 30 -49 12 -187 48 -305 80 -118 32 -293 78 -388 101 -95 23 -179 47 -186
    53 l-14 11 28 190 c16 105 33 217 40 250 22 121 35 202 60 400 6 44 13 88 16
    98 4 13 1 18 -10 15 -12 -2 -347 -283 -500 -419 -50 -44 -161 -138 -328 -279
    l-125 -105 -7 -50 c-5 -31 -16 -59 -30 -75 l-24 -25 -6 -135 c-4 -74 -11 -223
    -16 -330 -7 -149 -6 -198 3 -206 7 -6 86 -28 177 -49 91 -20 199 -46 240 -57
    41 -10 170 -41 285 -68 408 -94 621 -207 750 -400 l43 -65 61 -18 61 -18 93
    78 c50 43 129 110 175 150 l83 72 22 -8 c12 -5 112 -30 221 -55 191 -45 245
    -51 218 -24 -7 7 -12 24 -12 40 l0 27 128 106 c70 57 160 133 201 167 210 179
    192 168 268 168 52 0 75 5 113 27 l48 27 248 -62 c137 -34 344 -84 459 -112
    116 -27 280 -68 365 -90 165 -42 180 -45 180 -32 0 4 -39 18 -87 30 -119 29
    -119 29 -177 46 -28 8 -85 22 -126 30 -70 15 -178 41 -475 114 -66 17 -181 45
    -256 62 l-136 33 -45 -27 c-34 -20 -58 -26 -102 -26 -95 0 -80 11 -481 -335
    -39 -33 -82 -69 -96 -80 -39 -31 -62 -71 -54 -95 l7 -22 -19 6 c-10 3 -63 16
    -118 30 -55 13 -143 35 -195 49 -106 27 -112 26 -170 -29 -19 -18 -89 -79
    -155 -134 l-120 -102 -45 7 c-63 10 -66 14 -29 41 73 54 231 209 249 245 36
    70 17 160 -46 222 -71 71 -148 87 -410 87 -240 0 -301 8 -439 55 -108 37 -370
    106 -503 133 l-82 17 106 90 c153 128 270 228 338 287 32 28 75 63 95 76 l36
    25 160 -40 c296 -75 670 -173 730 -192 279 -87 380 -98 513 -56 l79 25 159
    136 c87 75 196 166 240 203 215 175 243 202 253 238 12 44 -5 91 -41 115 -26
    17 -294 91 -683 188 -132 33 -249 65 -260 70 -11 5 -74 23 -140 40 -66 17
    -123 32 -127 33 -7 2 24 30 212 193 252 218 273 234 300 234 29 0 343 -64 510
    -103 201 -48 271 -80 397 -180 153 -121 276 -164 452 -155 178 9 316 79 553
    282 l57 48 43 -6 c77 -12 75 -16 -61 -129 -133 -111 -167 -144 -160 -152 3 -2
    75 -20 160 -40 84 -19 163 -39 174 -44 11 -5 130 -37 265 -70 135 -34 252 -63
    260 -65 31 -10 537 -138 582 -148 l47 -10 77 63 c42 35 72 65 65 67 -6 2 -32
    -13 -57 -35 -26 -21 -57 -46 -69 -56 l-24 -18 -238 61 c-131 33 -350 89 -488
    124 -352 90 -557 141 -649 163 l-78 18 108 95 c60 53 126 108 147 124 21 16
    36 33 34 39 -3 9 -47 26 -107 41 -19 5 -34 25 -60 79 -53 108 -157 208 -288
    275 -177 91 -297 107 -916 122 -237 6 -431 12 -433 14 -2 1 1 16 6 32 11 35
    128 454 170 609 24 88 51 227 51 259 0 18 -35 -4 -116 -72z m89 6 c-6 -51 -42
    -198 -79 -323 -15 -49 -52 -185 -83 -302 l-57 -212 -62 -42 c-92 -62 -179
    -160 -219 -245 -18 -40 -33 -77 -33 -83 0 -5 -75 -75 -167 -154 -93 -80 -204
    -176 -248 -215 -44 -39 -80 -69 -81 -69 -1 1 14 99 32 217 18 118 49 325 69
    460 l36 245 57 54 c31 29 156 137 277 239 121 102 225 190 230 196 6 6 30 27
    55 46 25 19 61 49 80 66 19 18 58 50 85 72 28 21 61 51 74 66 34 36 40 33 34
    -16z m312 -868 c411 -12 526 -22 670 -61 150 -41 233 -87 326 -179 70 -70 139
    -177 139 -216 0 -33 -213 -194 -348 -263 -107 -55 -167 -71 -277 -71 -155 0
    -257 38 -395 147 -128 101 -293 171 -496 211 -54 11 -174 35 -266 53 l-168 32
    0 21 c0 67 100 197 219 287 l64 49 96 0 c53 0 249 -5 436 -10z m-2092 -682
    c-7 -46 -20 -126 -28 -178 -8 -52 -19 -124 -25 -160 -5 -36 -19 -126 -30 -200
    -12 -74 -25 -173 -31 -220 l-10 -85 -42 -38 c-23 -21 -65 -57 -93 -80 -28 -23
    -144 -122 -257 -220 -118 -101 -215 -177 -226 -177 -34 0 -126 -39 -191 -81
    -34 -22 -63 -39 -64 -37 -2 3 5 183 20 497 l6 133 24 21 c18 15 24 31 24 62
    l0 41 38 36 c20 19 75 68 122 108 115 97 529 454 659 567 58 51 108 92 111 93
    3 0 0 -37 -7 -82z m-589 -1398 c139 -25 327 -74 430 -112 137 -50 209 -60 491
    -67 l260 -6 68 -33 c100 -49 145 -128 124 -214 -7 -29 -32 -60 -106 -130 -104
    -100 -189 -173 -195 -167 -2 2 -13 23 -25 46 -52 104 -222 231 -421 314 -72
    30 -406 118 -702 184 -178 39 -318 77 -318 85 0 14 104 73 166 95 84 30 93 30
    228 5z"/>
    <path d="M2093 3923 c-62 -46 -70 -63 -32 -63 l19 0 -6 -24 -6 -25 39 -10 c21
    -5 53 -12 71 -16 l32 -7 30 32 c21 22 35 30 49 25 44 -14 73 73 31 95 -11 6
    -36 8 -55 4 -27 -5 -35 -3 -35 9 0 14 -30 27 -60 26 -8 0 -43 -21 -77 -46z
    m155 -11 c54 5 53 -1 -5 -36 l-47 -28 -58 12 c-32 7 -58 16 -58 20 0 4 21 22
    48 39 l47 31 16 -21 16 -21 41 4z m70 -34 c-2 -18 -11 -24 -38 -26 -20 -2 -40
    -12 -48 -23 -15 -21 -48 -24 -106 -8 -54 15 -32 30 25 17 l46 -11 54 37 c63
    42 72 44 67 14z"/>
    <path d="M2140 3889 c0 -12 32 -20 51 -14 31 10 22 22 -16 21 -19 -1 -35 -4
    -35 -7z"/>
    <path d="M1802 3898 c-20 -20 -14 -33 7 -14 20 19 41 14 41 -8 0 -7 -13 -25
    -30 -41 -42 -40 -39 -55 10 -55 22 0 40 5 40 10 0 6 -15 10 -32 10 l-33 0 33
    31 c40 37 41 72 2 77 -14 2 -31 -3 -38 -10z"/>
    <path d="M1902 3898 c-30 -30 -1 -74 43 -66 14 3 25 2 25 -1 0 -13 -24 -31
    -42 -31 -10 0 -18 -4 -18 -10 0 -14 43 -13 58 2 7 7 12 30 12 53 0 46 -13 65
    -45 65 -12 0 -26 -5 -33 -12z m58 -14 l13 -15 -16 -17 -17 -16 -17 16 -16 17
    13 15 c7 9 16 16 20 16 4 0 13 -7 20 -16z"/>
    <path d="M7326 3902 c-6 -11 218 -66 237 -59 16 6 5 10 -108 37 -49 11 -97 23
    -107 26 -9 3 -19 1 -22 -4z"/>
    <path d="M7573 3830 c-42 -25 -60 -55 -68 -111 l-7 -46 -56 14 c-89 21 -128
    27 -117 16 8 -8 62 -25 186 -59 l17 -5 -5 44 c-7 55 16 106 58 131 l31 18 66
    -7 67 -8 -40 -17 -40 -18 -12 15 c-7 9 -19 13 -28 10 -18 -7 -20 -33 -4 -43 9
    -5 10 -92 5 -335 -5 -224 -4 -329 3 -334 7 -4 12 100 13 331 l3 337 50 13 c69
    18 103 17 154 -6 53 -24 51 -24 51 0 0 26 -26 36 -153 61 -121 24 -134 24
    -174 -1z"/>
    <path d="M7320 3836 c0 -4 111 -40 164 -52 21 -5 27 -3 24 6 -6 18 -188 62
    -188 46z"/>
    <path d="M2936 3767 c-86 -71 -111 -96 -104 -102 4 -4 39 20 78 54 39 33 78
    61 85 61 13 0 122 -90 240 -198 22 -21 79 -70 126 -110 78 -65 98 -92 99 -128
    0 -10 -404 -362 -460 -401 l-21 -15 -20 18 -19 17 13 15 c6 9 53 50 103 91 49
    42 130 110 180 153 49 42 100 85 114 96 l24 20 -163 171 c-90 94 -171 171
    -180 171 -22 0 -182 -130 -175 -142 4 -5 13 -4 22 4 10 8 45 37 78 66 34 29
    66 52 71 52 4 0 64 -57 133 -126 69 -70 118 -123 110 -119 -8 5 -68 44 -134
    87 -65 43 -127 78 -138 78 -22 0 -139 -91 -132 -102 6 -9 38 12 88 56 16 14
    36 26 45 26 9 0 82 -44 163 -98 80 -53 155 -102 165 -108 l18 -11 -50 -45
    c-27 -25 -82 -72 -122 -104 -39 -32 -109 -92 -156 -131 -85 -73 -103 -83 -124
    -62 -9 9 -34 -12 -98 -79 -48 -50 -92 -90 -98 -89 -7 1 -12 -7 -12 -18 0 -13
    8 -21 24 -23 25 -4 44 15 36 35 -2 7 2 10 11 6 8 -3 30 9 52 28 20 19 51 44
    67 56 18 14 24 22 15 23 -8 0 -40 -20 -70 -45 -30 -24 -56 -42 -59 -39 -7 7
    111 124 125 124 7 0 79 -65 160 -145 82 -80 154 -145 160 -145 15 0 74 63 74
    80 0 8 -18 -3 -40 -25 l-40 -39 -83 82 -82 83 45 37 c48 39 163 137 271 230
    73 63 129 156 129 216 l0 33 -182 164 c-312 280 -296 271 -362 216z m486 -524
    c-23 -43 -372 -348 -400 -348 -36 0 -12 27 118 138 74 63 171 146 215 184 44
    39 81 69 83 68 2 -2 -5 -20 -16 -42z"/>
    <path d="M8589 3720 c-3 -41 -4 -77 -2 -79 10 -13 14 15 11 80 l-3 74 -6 -75z"/>
    <path d="M7030 3710 l-20 -20 0 -71 c0 -48 3 -68 11 -64 7 5 8 25 4 56 -8 60
    12 99 50 99 28 0 33 -14 37 -100 4 -76 22 -69 26 10 l3 65 -21 23 c-26 27 -64
    28 -90 2z"/>
    <path d="M7591 3693 c-28 -53 -20 -210 11 -230 7 -4 9 4 4 23 -15 62 -18 143
    -6 179 13 40 8 58 -9 28z"/>
    <path d="M7732 3676 c-84 -46 -83 -173 3 -258 94 -93 215 -50 215 76 0 127
    -127 233 -218 182z m154 -61 c64 -73 63 -179 -1 -217 l-31 -17 -39 12 c-79 24
    -135 115 -120 194 16 87 126 103 191 28z"/>
    <path d="M3488 3659 c-10 -5 -18 -17 -18 -26 l0 -16 19 17 c20 18 41 14 41 -8
    0 -6 -16 -27 -35 -46 -19 -18 -32 -37 -29 -42 7 -12 84 -10 84 2 0 6 -14 10
    -32 10 l-32 0 32 33 c34 35 39 56 20 75 -14 14 -27 15 -50 1z"/>
    <path d="M3590 3650 c-38 -38 -18 -120 29 -120 45 0 65 98 26 126 -25 18 -31
    18 -55 -6z m56 -35 c8 -33 -4 -65 -26 -65 -19 0 -30 19 -30 54 0 47 45 56 56
    11z"/>
    <path d="M2728 3596 c-48 -49 -181 -164 -302 -259 -43 -34 -97 -79 -119 -100
    -22 -20 -67 -61 -100 -90 l-60 -52 24 -6 c13 -4 33 -5 45 -2 13 3 36 -9 66
    -34 55 -47 317 -271 337 -290 l15 -13 -87 -89 c-48 -48 -87 -91 -87 -94 0 -2
    67 -71 150 -153 l149 -147 -34 -39 c-19 -21 -35 -43 -35 -50 0 -15 90 72 90
    87 0 5 -68 75 -151 155 l-151 145 84 90 85 89 18 -28 18 -28 -16 -28 c-21 -35
    -22 -79 -2 -86 8 -3 41 16 79 48 188 156 253 214 249 221 -4 7 -47 -27 -217
    -170 -42 -34 -67 -50 -62 -38 15 34 18 64 12 89 -6 25 -188 186 -209 185 -7 0
    12 -21 42 -47 117 -101 151 -138 151 -166 0 -33 -26 -96 -39 -96 -6 0 -4 15 5
    35 26 64 20 89 -38 137 -28 24 -77 66 -107 94 -31 28 -70 61 -87 75 -17 13
    -70 57 -118 97 l-87 74 -25 -6 c-15 -4 -23 -3 -20 2 18 29 49 19 121 -39 41
    -33 77 -65 80 -70 8 -11 25 -12 25 -1 0 5 -39 42 -87 82 l-88 73 49 49 c26 26
    53 48 58 48 10 0 77 55 177 145 31 28 79 69 106 90 74 58 156 143 145 150 -5
    3 -29 -14 -52 -39z"/>
    <path d="M941 3581 c-9 -6 -10 -11 -2 -15 14 -9 15 -96 0 -96 -5 0 -7 -4 -4
    -10 3 -5 14 -10 24 -10 l18 0 -5 58 c-5 68 -12 84 -31 73z"/>
    <path d="M1035 3576 c-26 -19 -26 -94 1 -113 24 -17 30 -17 54 7 24 24 26 67
    4 98 -18 26 -33 28 -59 8z m49 -22 c12 -31 6 -75 -10 -81 -20 -7 -44 21 -44
    52 0 39 42 61 54 29z"/>
    <path d="M1835 3580 c-4 -6 7 -10 24 -10 37 0 37 2 10 -61 -12 -27 -19 -52
    -16 -56 8 -7 67 119 61 129 -7 12 -72 10 -79 -2z"/>
    <path d="M1962 3574 c-26 -18 -31 -94 -7 -114 36 -30 82 23 70 80 -9 40 -35
    54 -63 34z m42 -20 c15 -40 -3 -97 -28 -88 -20 8 -28 48 -16 78 11 29 35 34
    44 10z"/>
    <path d="M2130 3527 c-44 -34 -44 -42 3 -53 17 -3 43 -15 56 -25 33 -26 78
    -23 131 10 l45 27 0 35 0 34 -98 1 -97 1 -40 -30z m105 3 l20 -8 -15 -6 c-8
    -3 -22 -5 -30 -4 -8 1 -24 0 -35 -1 l-20 -1 15 -10 c8 -5 23 -7 33 -4 11 3 17
    0 17 -10 0 -21 18 -21 22 0 l3 15 19 -14 c11 -8 16 -19 12 -25 -11 -19 -61
    -14 -81 8 -10 11 -29 20 -42 20 -31 0 -29 12 5 32 30 19 47 21 77 8z m120 -9
    c0 -18 -52 -57 -62 -47 -5 5 2 15 15 23 27 19 30 38 3 23 -30 -16 -49 -12 -26
    6 24 18 70 15 70 -5z"/>
    <path d="M4050 3550 c0 -5 5 -10 10 -10 6 0 10 -20 10 -45 0 -25 -4 -45 -10
    -45 -5 0 -10 -4 -10 -10 0 -5 11 -10 24 -10 l23 0 -4 53 c-3 28 -6 58 -8 65
    -5 14 -35 16 -35 2z"/>
    <path d="M4160 3550 c0 -5 3 -10 8 -10 11 0 2 -82 -10 -97 -8 -10 -3 -13 23
    -13 26 0 30 3 21 12 -7 7 -12 36 -12 65 0 40 -4 53 -15 53 -8 0 -15 -4 -15
    -10z"/>
    <path d="M4257 3553 c-15 -14 -6 -23 12 -13 27 14 31 13 31 -10 0 -11 -7 -20
    -15 -20 -8 0 -15 -4 -15 -10 0 -5 6 -10 14 -10 21 0 30 -19 16 -35 -9 -11 -17
    -12 -30 -5 -27 14 -34 12 -20 -5 29 -35 96 -3 73 34 -7 11 -8 23 -1 35 17 31
    -40 65 -65 39z"/>
    <path d="M7070 3490 l0 -70 -75 0 c-43 0 -75 -4 -75 -10 0 -9 57 -15 123 -13
    l27 1 0 -90 0 -90 -17 5 c-10 2 -67 20 -126 38 -123 38 -142 35 -142 -22 l0
    -34 70 -18 c39 -10 104 -29 145 -42 41 -13 154 -44 250 -69 96 -25 205 -55
    242 -66 75 -23 119 -35 323 -87 77 -19 147 -39 155 -43 25 -12 40 0 41 33 l2
    32 4 -28 c6 -35 23 -25 23 13 l0 29 -42 11 c-24 6 -54 15 -68 20 -14 5 -108
    30 -210 55 -102 25 -210 53 -240 62 -30 9 -59 18 -65 20 -5 1 -81 21 -167 44
    l-158 42 0 174 c0 109 -4 173 -10 173 -6 0 -10 -30 -10 -70z m5 -291 c121 -33
    258 -70 305 -83 47 -13 157 -43 245 -66 197 -52 277 -74 333 -89 l42 -12 -10
    -18 c-5 -10 -6 -21 -3 -25 13 -13 44 -21 -552 138 -115 30 -230 62 -255 70
    -25 8 -106 31 -180 51 -198 53 -200 54 -200 76 0 30 33 25 275 -42z"/>
    <path d="M2921 3478 c-46 -37 -62 -58 -45 -58 3 0 28 18 55 40 l48 41 48 -25
    c27 -13 86 -47 133 -75 47 -28 91 -54 99 -59 12 -7 6 -16 -25 -45 -43 -40 -59
    -44 -89 -23 -47 32 -248 136 -253 131 -9 -9 7 -19 103 -70 50 -27 95 -51 100
    -55 34 -26 88 -49 98 -43 27 17 106 97 102 104 -9 14 -302 179 -318 179 -3 0
    -27 -19 -56 -42z"/>
    <path d="M6577 3483 c-14 -14 -6 -19 23 -15 34 5 43 -17 10 -25 -11 -3 -20 -9
    -20 -13 0 -4 9 -10 20 -13 23 -6 27 -35 5 -43 -8 -4 -23 0 -32 7 l-16 14 5
    -15 c6 -21 52 -24 68 -5 10 12 10 21 2 40 -7 15 -8 26 -2 30 17 11 -9 45 -34
    45 -12 0 -26 -3 -29 -7z"/>
    <path d="M6680 3475 c-15 -19 -5 -34 12 -17 15 15 48 16 48 1 0 -5 -16 -25
    -36 -43 -43 -40 -41 -66 5 -66 16 0 33 5 36 10 3 6 -4 10 -18 10 -37 0 -39 10
    -6 37 39 33 38 76 -2 81 -14 2 -31 -4 -39 -13z"/>
    <path d="M6792 3478 c-7 -7 -12 -16 -12 -22 0 -6 5 -5 12 2 16 16 48 16 48 0
    0 -7 -17 -29 -37 -50 l-38 -39 15 -9 c20 -13 67 -13 75 0 4 6 -7 10 -24 10
    -38 0 -40 14 -6 36 30 20 44 62 24 75 -20 12 -43 11 -57 -3z"/>
    <path d="M3350 3397 c0 -10 7 -13 20 -10 21 6 28 -12 8 -20 -7 -2 -10 -7 -7
    -11 13 -14 40 7 37 28 -4 25 -58 37 -58 13z"/>
    <path d="M1980 3302 l-115 -98 -3 -38 c-2 -21 1 -43 7 -49 8 -8 11 -6 11 5 0
    9 14 25 30 35 17 9 30 21 30 25 0 4 8 8 19 8 22 0 121 78 121 96 0 7 14 24 32
    38 l32 25 -12 25 c-6 14 -17 26 -24 25 -7 0 -65 -44 -128 -97z m140 59 c0 -8
    -66 -71 -75 -71 -33 0 -31 15 7 46 42 33 68 43 68 25z m-80 -93 c0 -18 -69
    -58 -101 -58 l-34 1 40 34 c37 32 95 46 95 23z m-140 -88 c0 -5 -4 -10 -9 -10
    -6 0 -13 5 -16 10 -3 6 1 10 9 10 9 0 16 -4 16 -10z"/>
    <path d="M1620 3255 c-7 -9 -9 -19 -5 -23 4 -4 10 -1 12 6 7 17 32 15 40 -4 4
    -11 -6 -27 -32 -48 -23 -20 -35 -37 -31 -44 9 -15 86 -16 86 -2 0 6 -14 10
    -32 10 l-32 0 32 33 c34 35 39 56 20 75 -17 17 -43 15 -58 -3z"/>
    <path d="M1730 3250 c-26 -26 -26 -81 -2 -103 34 -31 72 -14 72 30 0 25 -30
    46 -54 37 -11 -4 -16 -1 -16 10 0 10 11 19 30 23 34 6 41 23 10 23 -11 0 -29
    -9 -40 -20z m49 -64 c9 -10 8 -16 -4 -26 -17 -14 -45 -7 -45 13 0 29 30 37 49
    13z"/>
    <path d="M3426 3090 c-26 -29 -36 -49 -36 -74 0 -18 -7 -39 -15 -46 -8 -7 -15
    -19 -15 -26 0 -8 -18 -32 -40 -54 -45 -45 -49 -61 -20 -90 29 -29 51 -25 95
    20 23 23 49 40 61 40 13 0 25 4 28 9 3 4 23 11 45 15 28 4 48 16 71 43 l32 36
    -5 46 -5 46 -42 38 c-33 29 -51 37 -80 37 l-38 0 -36 -40z m138 -5 c28 -26 46
    -64 46 -95 0 -21 -59 -93 -60 -74 0 7 -16 15 -35 18 -40 8 -79 53 -88 103 l-6
    32 26 21 c35 28 84 26 117 -5z m-72 -160 c39 -18 47 -25 29 -25 -52 0 -122 68
    -120 117 0 10 9 -1 19 -25 l19 -43 53 -24z m-57 -34 l-14 -15 -21 19 c-19 18
    -27 55 -13 68 3 4 19 -8 34 -25 l27 -33 -13 -14z m-35 -28 c0 -20 -28 -16 -40
    7 -16 30 -2 45 21 24 10 -9 19 -23 19 -31z m-30 -35 c0 -5 -9 -4 -20 2 -11 6
    -20 18 -20 27 l0 16 20 -18 c11 -10 20 -22 20 -27z m-33 -8 l26 -20 -20 0
    c-19 0 -43 17 -43 32 0 13 10 9 37 -12z"/>
    <path d="M3460 3072 c0 -5 11 -14 25 -20 14 -7 38 -32 54 -57 16 -25 32 -42
    35 -37 8 13 -47 93 -75 108 -28 16 -39 17 -39 6z"/>
    <path d="M3707 3024 c-12 -12 4 -25 18 -14 19 16 49 2 34 -16 -6 -8 -18 -14
    -25 -14 -23 0 -16 -18 8 -22 13 -2 24 -11 26 -22 l4 -19 -36 6 c-36 6 -50 -6
    -20 -17 44 -17 87 10 67 42 -5 10 -8 32 -5 50 l4 32 -34 0 c-19 0 -38 -3 -41
    -6z"/>
    <path d="M3832 2989 c-28 -52 -28 -59 3 -59 16 0 25 -6 25 -15 0 -8 5 -15 10
    -15 6 0 10 7 10 15 0 8 5 15 12 15 9 0 9 3 0 12 -7 7 -12 29 -12 50 0 51 -20
    49 -48 -3z m28 -14 c0 -15 -6 -25 -15 -25 l-15 0 12 25 c6 14 13 25 15 25 1 0
    3 -11 3 -25z"/>
    <path d="M2755 2950 c-14 -16 -15 -20 -4 -20 16 0 39 19 39 32 0 14 -16 9 -35
    -12z"/>
    <path d="M1764 2837 c-224 -192 -304 -259 -370 -315 -41 -34 -74 -68 -74 -74
    0 -14 15 -3 160 122 67 58 135 115 152 126 16 12 35 28 41 36 26 32 167 139
    176 134 17 -11 62 -96 56 -106 -12 -20 -31 -9 -44 25 -7 19 -18 35 -25 35 -15
    0 -92 -58 -218 -165 -52 -44 -140 -118 -195 -165 -96 -80 -115 -100 -95 -100
    5 0 76 57 158 128 253 216 333 282 342 282 5 0 14 -12 21 -27 17 -36 -3 -56
    -25 -25 l-15 22 -22 -12 -22 -12 33 -8 c17 -5 32 -13 32 -18 0 -5 -15 -19 -32
    -31 -18 -13 -60 -46 -93 -75 l-60 -52 -17 22 -16 21 -18 -17 -18 -18 21 0 c42
    0 33 -20 -34 -75 -74 -61 -75 -61 -93 -40 -9 11 -17 12 -31 4 -24 -12 -25 -32
    -1 -25 31 10 45 -8 22 -29 l-20 -18 -18 16 c-23 21 -38 21 -46 1 -4 -11 -1
    -14 12 -10 9 3 23 2 30 -3 10 -6 -1 -21 -42 -57 -31 -27 -56 -52 -56 -56 0
    -12 17 -9 32 5 142 132 505 437 521 437 8 0 20 7 27 15 7 8 18 15 24 15 10 0
    83 -55 201 -151 28 -22 88 -70 135 -106 47 -35 90 -69 95 -75 7 -6 -5 -23 -35
    -49 -72 -63 -189 -159 -195 -159 -3 0 -24 14 -47 30 -52 38 -88 38 -129 2
    l-32 -29 7 -27 c5 -22 39 -52 81 -70 6 -3 1 -12 -9 -20 -29 -23 -227 -191
    -317 -268 l-79 -68 -24 10 c-14 5 -62 39 -108 76 -46 36 -122 97 -171 136 -48
    38 -94 83 -102 99 l-15 28 41 56 c45 59 54 66 46 35 -6 -22 25 -46 43 -35 16
    10 12 35 -5 29 l-15 -6 -1 183 c-1 107 -5 171 -9 154 -4 -16 -8 -49 -9 -72
    l-1 -42 -75 -61 -75 -61 -14 -52 c-49 -180 -69 -308 -56 -356 15 -58 50 -131
    61 -131 6 0 43 27 83 60 40 33 76 60 81 60 4 0 51 -26 104 -59 169 -103 204
    -116 254 -89 12 6 78 59 146 117 69 58 188 160 266 226 78 66 186 158 239 204
    l97 84 -3 35 -3 36 -61 50 c-33 28 -131 106 -217 174 -118 93 -167 138 -197
    182 -24 36 -48 60 -58 59 -9 0 -44 -24 -78 -52z m-535 -514 c-23 -21 -49 -43
    -58 -49 l-16 -12 19 -51 c17 -47 16 -71 -3 -71 -5 0 -16 28 -25 63 l-16 62 68
    62 c41 38 68 56 70 48 2 -8 -16 -31 -39 -52z m1141 49 c0 -5 -55 -55 -122
    -113 -192 -164 -428 -362 -457 -383 -14 -11 -51 -43 -81 -71 -101 -97 -115
    -97 -274 -4 -66 39 -152 90 -191 112 -38 22 -80 49 -92 60 -34 30 -57 115 -49
    181 9 65 21 79 30 33 3 -17 17 -56 31 -85 l24 -52 -14 -40 c-17 -47 -4 -54 17
    -10 l15 30 176 -140 c209 -166 208 -166 296 -87 33 28 132 113 221 187 89 74
    228 192 308 262 143 123 162 137 162 120z m-1097 -95 c-3 -4 -11 -3 -18 3 -9
    7 -16 6 -24 -4 l-12 -14 28 -7 28 -7 -34 -30 -35 -31 -15 31 -14 31 44 40 44
    39 6 -21 c3 -12 4 -26 2 -30z m803 -60 l36 -33 -39 -26 -39 -26 -18 13 c-10 8
    -24 11 -31 9 -16 -7 -45 22 -44 44 0 13 3 11 11 -5 6 -13 15 -23 20 -23 10 0
    10 11 -1 29 -15 24 6 51 39 51 20 0 42 -11 66 -33z m-966 -211 c10 -24 28 -50
    40 -59 l21 -15 -19 -13 c-10 -8 -28 -34 -39 -59 l-20 -45 -11 40 c-13 44 -15
    101 -6 158 8 47 11 47 34 -7z m124 -109 l18 -13 -43 -35 c-23 -18 -54 -45 -68
    -59 -32 -32 -38 -15 -16 50 22 67 65 89 109 57z"/>
    <path d="M1977 2224 c-3 -4 -2 -15 4 -25 11 -21 73 -27 84 -9 11 17 -5 32 -21
    19 -16 -13 -48 -4 -39 11 7 11 -18 14 -28 4z"/>
    <path d="M2853 2817 c-106 -93 -110 -97 -96 -97 14 0 193 150 193 162 0 16
    -17 5 -97 -65z"/>
    <path d="M1206 2849 c-19 -15 -26 -30 -26 -55 0 -33 28 -74 50 -74 5 0 10 -35
    12 -77 l3 -78 34 -3 c45 -4 55 14 52 93 l-2 60 25 24 c26 24 35 72 18 97 -25
    39 -124 46 -166 13z m135 -9 c23 -13 25 -36 2 -44 -20 -8 -37 15 -20 26 14 9
    4 11 -35 8 -14 -1 -29 3 -33 9 -8 14 60 15 86 1z m-98 -7 c4 -3 1 -13 -6 -21
    l-12 -15 27 5 c16 3 36 -1 45 -8 l18 -13 -17 -1 c-10 0 -18 -5 -18 -10 0 -11
    42 -4 72 12 25 12 12 -19 -13 -32 -23 -13 -95 -13 -120 0 -24 13 -25 30 -2 30
    l17 0 -19 14 -19 14 13 16 c14 17 24 20 34 9z m67 -124 c0 -5 -13 -9 -30 -9
    -39 0 -39 15 0 16 17 1 30 -3 30 -7z m5 -39 c-3 -5 -17 -10 -30 -10 -13 0 -27
    5 -30 10 -4 6 8 10 30 10 22 0 34 -4 30 -10z m-7 -42 c-3 -7 -13 -13 -23 -13
    -10 0 -20 6 -22 13 -3 7 5 12 22 12 17 0 25 -5 23 -12z m-3 -48 c-3 -5 -12
    -10 -20 -10 -8 0 -17 5 -20 10 -4 6 5 10 20 10 15 0 24 -4 20 -10z"/>
    <path d="M1741 2717 c-17 -17 -13 -22 14 -22 14 0 25 5 25 11 0 17 -26 24 -39
    11z"/>
    <path d="M1689 2673 l-14 -17 17 7 c10 3 20 2 23 -4 4 -5 11 -7 16 -3 6 4 6
    11 -2 20 -15 18 -24 18 -40 -3z"/>
    <path d="M1965 2670 c-27 -10 -48 -36 -40 -50 10 -16 40 -12 58 8 29 32 19 56
    -18 42z m10 -29 c-3 -6 -14 -11 -23 -11 l-17 1 19 14 c21 16 32 13 21 -4z"/>
    <path d="M970 2640 c0 -5 11 -10 25 -10 30 0 31 -11 5 -69 -11 -24 -18 -46
    -15 -49 6 -7 4 -9 38 61 15 32 25 62 22 68 -8 12 -75 12 -75 -1z"/>
    <path d="M1647 2639 c-26 -15 -21 -26 13 -26 32 0 38 8 17 25 -8 7 -18 7 -30
    1z"/>
    <path d="M1081 2627 c-6 -8 -9 -21 -5 -30 3 -8 1 -24 -5 -35 -8 -15 -6 -23 8
    -36 35 -32 93 -8 75 31 -4 10 -8 32 -8 48 l-1 30 -26 3 c-14 2 -31 -3 -38 -11z
    m53 -12 c3 -9 -1 -18 -10 -22 -19 -7 -39 11 -30 26 10 16 33 13 40 -4z m4 -66
    c4 -19 -27 -34 -41 -20 -14 14 0 43 20 39 10 -2 19 -10 21 -19z"/>
    <path d="M3055 2599 c-19 -17 -35 -39 -35 -49 0 -10 -9 -37 -20 -61 -38 -86
    -14 -114 63 -74 25 14 55 25 66 25 11 0 34 14 51 32 l32 31 -6 31 c-8 39 -63
    96 -93 96 -12 0 -38 -14 -58 -31z m119 -38 l19 -32 -11 -25 c-16 -34 -56 -32
    -93 5 -28 29 -36 55 -21 77 22 33 80 19 106 -25z m-77 -85 c28 -15 20 -22 -12
    -10 -17 7 -45 55 -44 76 0 7 7 -1 15 -19 7 -18 26 -39 41 -47z m-45 -3 c25
    -22 23 -30 -11 -47 -39 -21 -55 -4 -32 35 19 34 19 34 43 12z"/>
    <path d="M1935 2556 c-5 -3 -27 -7 -49 -11 -21 -3 -49 -17 -62 -30 -58 -58 -7
    -127 121 -164 l78 -22 51 12 c131 30 160 88 81 157 -43 38 -179 74 -220 58z
    m172 -48 c117 -59 75 -148 -70 -148 -70 0 -162 27 -149 43 5 7 9 35 9 64 0 28
    4 57 8 63 13 21 145 6 202 -22z m-227 -33 c0 -62 -21 -84 -46 -50 -21 29 -17
    62 12 84 35 28 34 29 34 -34z"/>
    <path d="M1537 2543 c-4 -3 -7 -11 -7 -17 0 -6 4 -6 11 1 6 6 18 9 27 6 10 -4
    13 -2 8 5 -8 13 -29 16 -39 5z"/>
    <path d="M1487 2503 c-14 -13 -6 -20 18 -15 14 2 22 8 19 13 -6 11 -28 12 -37
    2z"/>
    <path d="M2213 2395 c-8 -21 14 -36 47 -33 17 2 25 9 25 23 0 27 -62 35 -72
    10z m60 -12 c-7 -2 -21 -2 -30 0 -10 3 -4 5 12 5 17 0 24 -2 18 -5z"/>
    <path d="M1333 2373 c-7 -2 -13 -9 -13 -15 0 -6 7 -8 15 -5 8 4 17 2 20 -4 4
    -5 11 -7 16 -3 6 4 6 11 -2 20 -12 15 -16 16 -36 7z"/>
    <path d="M3116 2294 c-19 -18 -21 -85 -4 -102 31 -31 82 -3 76 40 -2 18 -10
    24 -35 26 -18 2 -33 7 -33 12 0 13 33 28 49 22 8 -3 11 0 7 7 -10 16 -42 14
    -60 -5z m52 -72 l3 -22 -25 0 c-19 0 -26 5 -26 18 0 39 43 43 48 4z"/>
    <path d="M3220 2274 l0 -36 16 12 15 13 16 -16 c25 -25 9 -51 -28 -43 -22 4
    -29 2 -27 -7 3 -6 19 -13 36 -15 l32 -3 10 27 c12 31 -9 64 -42 64 -10 0 -18
    5 -18 10 0 6 11 10 24 10 14 0 28 5 31 10 4 6 -8 10 -29 10 l-36 0 0 -36z"/>
    <path d="M1554 2286 c-68 -30 -80 -82 -31 -131 103 -103 390 -78 362 32 -10
    41 -42 70 -102 93 -63 24 -181 27 -229 6z m140 -2 c11 -4 -6 -23 -60 -70 -42
    -35 -80 -64 -85 -64 -18 0 -41 50 -35 75 7 29 31 43 89 55 55 10 72 11 91 4z
    m116 -35 c106 -60 59 -142 -81 -142 -57 0 -149 20 -149 33 0 3 32 34 72 68 80
    69 99 74 158 41z"/>
    <path d="M2579 2181 c-39 -40 -38 -74 5 -117 41 -41 77 -44 111 -9 36 35 32
    64 -18 113 -51 50 -60 51 -98 13z m90 -32 c47 -47 49 -54 21 -69 -30 -16 -84
    4 -99 36 -14 31 -6 61 17 67 9 3 18 5 18 6 1 0 20 -18 43 -40z"/>
    <path d="M2612 2158 c-7 -7 -12 -18 -12 -25 0 -18 47 -46 65 -39 24 9 17 24
    -9 19 -25 -5 -46 25 -25 37 6 5 7 10 2 13 -6 4 -15 1 -21 -5z"/>
    <path d="M1370 2185 c-19 -22 5 -45 46 -45 27 0 34 4 34 20 0 35 -57 53 -80
    25z m53 -22 c-7 -2 -21 -2 -30 0 -10 3 -4 5 12 5 17 0 24 -2 18 -5z"/>
    <path d="M2854 2155 l-19 -15 28 6 c31 7 40 -22 10 -33 l-16 -6 21 -8 c25 -10
    29 -37 7 -45 -8 -4 -22 -1 -30 6 -9 7 -19 10 -23 6 -9 -10 26 -36 48 -36 9 0
    21 5 28 12 15 15 16 58 2 58 -6 0 -5 8 2 21 l13 20 -19 15 c-25 18 -28 18 -52
    -1z"/>
    <path d="M2972 2159 c-16 -6 -23 -16 -21 -31 1 -13 -1 -31 -6 -40 -16 -39 37
    -75 70 -48 17 14 20 46 5 55 -7 4 -7 12 0 25 7 14 6 23 -6 34 -8 9 -16 16 -17
    15 -1 0 -12 -4 -25 -10z m34 -20 c9 -16 -18 -30 -33 -17 -7 6 -10 14 -7 19 7
    13 31 11 40 -2z m-12 -45 c23 -9 20 -44 -3 -44 -23 0 -35 15 -27 35 6 17 8 17
    30 9z"/>
    <path d="M1303 2124 c-7 -20 13 -34 49 -34 32 0 44 15 28 35 -17 20 -69 19
    -77 -1z m60 -11 c-7 -2 -21 -2 -30 0 -10 3 -4 5 12 5 17 0 24 -2 18 -5z"/>
    <path d="M1468 2099 l-18 -10 13 -19 c17 -29 77 -28 77 0 0 13 -10 24 -26 30
    -30 12 -25 12 -46 -1z m47 -19 c3 -5 -3 -10 -14 -10 -12 0 -21 5 -21 10 0 6 6
    10 14 10 8 0 18 -4 21 -10z"/>
    <path d="M1249 2074 l-13 -16 19 -14 c26 -19 64 -18 72 2 13 35 -53 58 -78 28z
    m54 -21 c-7 -2 -19 -2 -25 0 -7 3 -2 5 12 5 14 0 19 -2 13 -5z"/>
    <path d="M1405 2046 l-18 -13 27 -18 27 -18 26 12 26 12 -14 13 c-23 22 -54
    27 -74 12z m50 -16 c8 -13 -15 -13 -35 0 l-15 10 22 0 c12 0 25 -4 28 -10z"/>
    <path d="M2452 2027 c-22 -12 -92 -108 -92 -124 1 -4 17 -18 37 -31 l36 -23
    28 12 c122 50 149 102 80 152 -44 30 -56 32 -89 14z m80 -35 c39 -36 35 -48
    -35 -90 l-55 -33 -30 18 -31 19 29 46 c47 75 73 83 122 40z"/>
    <path d="M2492 1973 c2 -10 11 -19 21 -21 23 -5 21 10 -4 26 l-21 13 4 -18z"/>
    <path d="M1563 2023 c-21 -8 -15 -33 11 -43 50 -18 91 16 47 40 -21 11 -38 12
    -58 3z m52 -23 c8 -13 -25 -13 -45 0 -12 8 -9 10 12 10 15 0 30 -4 33 -10z"/>
    <path d="M1341 2001 l-15 -9 13 -16 c16 -20 81 -22 81 -3 0 32 -47 48 -79 28z
    m59 -21 c0 -13 -20 -13 -40 0 -12 8 -9 10 13 10 15 0 27 -4 27 -10z"/>
    <path d="M1503 1964 c-8 -21 24 -46 52 -42 23 4 33 37 13 49 -22 14 -58 10
    -65 -7z m57 -14 c0 -13 -11 -13 -30 0 l-15 10 23 0 c12 0 22 -4 22 -10z"/>
    <path d="M1670 1924 c0 -15 35 -28 50 -19 19 11 10 23 -20 27 -20 3 -30 0 -30
    -8z"/>
    <path d="M1442 1917 c-10 -11 -9 -17 0 -24 38 -31 93 -20 72 14 -14 23 -57 28
    -72 10z m58 -17 c0 -5 -6 -10 -14 -10 -8 0 -18 5 -21 10 -3 6 3 10 14 10 12 0
    21 -4 21 -10z"/>
    <path d="M2667 1924 c-15 -15 -6 -24 18 -18 29 7 36 -19 8 -34 l-16 -10 21 -6
    c12 -4 22 -14 22 -22 0 -20 -27 -29 -45 -14 -21 18 -32 3 -13 -17 32 -31 95
    11 72 49 -4 7 -8 26 -8 43 l-1 30 -25 3 c-14 2 -29 0 -33 -4z"/>
    <path d="M2771 1917 c-25 -31 -24 -73 2 -103 l26 -29 18 11 c29 18 40 77 19
    108 -18 28 -47 34 -65 13z m54 -57 l0 -45 -20 0 c-15 0 -21 8 -23 33 -4 45 4
    64 25 60 14 -3 18 -13 18 -48z"/>
    <path d="M1582 1898 c-18 -18 4 -46 43 -54 59 -11 89 32 40 54 -33 15 -68 15
    -83 0z m86 -25 c2 -8 -6 -13 -21 -13 -32 0 -57 9 -57 22 0 14 73 5 78 -9z"/>
    <path d="M1544 1839 c-9 -16 21 -43 40 -36 9 4 16 11 16 18 0 6 -7 9 -15 5 -9
    -3 -15 0 -15 9 0 18 -16 20 -26 4z"/>
    <path d="M2234 1840 c-12 -5 -34 -24 -49 -44 l-27 -35 7 -33 c23 -103 132
    -153 196 -89 l29 29 0 45 c0 53 -34 101 -87 123 -37 16 -40 16 -69 4z m77 -25
    c34 -18 69 -69 69 -102 0 -60 -76 -82 -130 -36 -90 75 -39 189 61 138z m-81
    -150 c13 -14 21 -25 18 -25 -2 0 -15 11 -28 25 -13 14 -21 25 -18 25 2 0 15
    -11 28 -25z"/>
    <path d="M2263 1773 c-18 -7 -16 -48 1 -63 8 -6 25 -10 38 -8 32 4 36 41 6 62
    -24 17 -26 17 -45 9z m45 -36 c2 -11 -3 -17 -16 -17 -20 0 -36 23 -24 34 11
    12 37 1 40 -17z"/>
    <path d="M2491 1660 c-38 -61 -38 -60 -1 -60 20 0 30 -5 30 -15 0 -8 5 -15 10
    -15 6 0 10 7 10 15 0 8 5 15 12 15 9 0 9 3 0 12 -7 7 -12 29 -12 49 0 56 -14
    55 -49 -1z m29 -15 c0 -15 -6 -25 -15 -25 l-15 0 12 25 c6 14 13 25 15 25 1 0
    3 -11 3 -25z"/>
    <path d="M2598 1703 c-9 -2 -19 -11 -22 -19 -7 -17 -2 -18 24 -2 15 10 22 10
    32 0 9 -9 4 -20 -25 -50 -49 -50 -48 -62 9 -62 27 0 43 4 39 10 -3 6 -17 10
    -31 10 -31 0 -30 6 6 37 34 28 39 58 11 73 -11 5 -21 9 -23 9 -2 -1 -10 -3
    -20 -6z"/>
    <path d="M2043 1609 c-43 -27 -49 -86 -12 -124 30 -30 55 -9 52 45 l-2 41 17
    -3 c21 -5 20 -45 -2 -88 -17 -35 -17 -35 29 -16 62 26 69 94 13 141 -36 30
    -53 31 -95 4z m87 -19 c34 -34 34 -110 0 -110 -13 0 -12 16 2 39 16 26 -4 71
    -31 71 -24 0 -44 -32 -34 -56 4 -12 3 -15 -5 -10 -16 9 -15 59 0 74 18 18 45
    15 68 -8z"/>
    <path d="M1543 1603 c32 -5 33 -8 6 -68 -11 -25 -18 -49 -15 -52 8 -8 9 -7 34
    54 29 69 28 73 -15 72 l-38 -2 28 -4z"/>
    <path d="M1638 1600 c-47 -28 -23 -124 29 -118 56 7 55 69 -1 76 -14 2 -26 7
    -26 11 0 16 28 31 44 25 9 -3 16 -1 16 5 0 14 -39 14 -62 1z m40 -59 c19 -11
    11 -45 -11 -49 -19 -4 -32 20 -23 43 6 17 15 19 34 6z"/>
    <path d="M2273 1470 c-29 -50 -29 -60 2 -60 17 0 25 -6 25 -17 l0 -17 22 24
    c15 16 18 25 10 28 -7 2 -12 21 -12 43 0 51 -18 51 -47 -1z m27 -15 c0 -15 -6
    -25 -15 -25 l-15 0 12 25 c6 14 13 25 15 25 1 0 3 -11 3 -25z"/>
    <path d="M2360 1500 c0 -5 7 -7 15 -4 8 4 22 3 30 0 l16 -6 -16 -30 c-25 -48
    -35 -80 -26 -80 7 0 61 111 61 126 0 2 -18 4 -40 4 -22 0 -40 -4 -40 -10z"/>
    <path d="M1898 1443 c-67 -10 -88 -95 -38 -150 l30 -33 39 0 c45 0 70 28 78
    91 l6 38 -31 31 c-17 16 -36 29 -44 29 -7 -1 -25 -4 -40 -6z m69 -35 c15 -14
    23 -33 23 -55 l0 -33 -32 0 c-59 0 -104 74 -60 99 26 16 44 13 69 -11z m-106
    -35 l-10 -18 -1 16 c0 17 10 32 18 25 2 -3 -1 -13 -7 -23z m33 -49 c20 -19 21
    -34 3 -34 -18 0 -49 34 -40 43 10 11 20 8 37 -9z m71 -34 c-3 -5 -15 -10 -26
    -10 -11 0 -17 5 -14 10 3 6 15 10 26 10 11 0 17 -4 14 -10z"/>
    <path d="M1907 1403 c-13 -12 -7 -21 11 -16 10 2 25 -3 32 -12 l14 -17 -14 -8
    c-8 -5 -11 -12 -8 -15 20 -20 36 23 22 59 -6 16 -45 22 -57 9z"/>
    <path d="M2097 1283 c-4 -3 -7 -22 -7 -41 l0 -34 15 12 c20 17 45 5 45 -20 0
    -25 -25 -37 -45 -20 l-15 12 0 -15 c0 -24 39 -28 61 -6 10 10 19 25 19 33 0
    21 -30 48 -46 42 -8 -3 -14 1 -14 9 0 8 9 15 19 15 11 0 23 5 26 10 7 11 -47
    14 -58 3z"/>
    <path d="M2203 1283 c-23 -9 -14 -22 13 -20 34 3 43 -20 13 -32 l-24 -8 23 -7
    c12 -4 22 -14 22 -22 0 -20 -27 -29 -45 -14 -16 14 -31 8 -21 -8 12 -19 46
    -20 69 -2 l22 19 -12 19 c-6 11 -8 24 -3 32 19 31 -19 59 -57 43z"/>
    </g>
  </g>
  <g id="labels" font-family="Helvetica, Arial, sans-serif" fill="#111" font-size="14" text-rendering="geometricPrecision" opacity="0" pointer-events="none">
      <a id="pos-10" href="#pos-10"><text data-pos="10" x="187" y="167" text-anchor="middle" dominant-baseline="middle" font-size="12" font-weight="600">10</text></a>
      <a id="pos-14" href="#pos-14"><text data-pos="14" x="180" y="82" text-anchor="middle" dominant-baseline="middle" font-size="12" font-weight="600">14</text></a>
      <a id="pos-20" href="#pos-20"><text data-pos="20" x="440" y="212" text-anchor="middle" dominant-baseline="middle" font-size="12" font-weight="600">20</text></a>
      <a id="pos-26" href="#pos-26"><text data-pos="26" x="256" y="221" text-anchor="middle" dominant-baseline="middle" font-size="12" font-weight="600">26</text></a>
      <a id="pos-27" href="#pos-27"><text data-pos="27" x="290" y="110" text-anchor="middle" dominant-baseline="middle" font-size="12" font-weight="600">27</text></a>
      <a id="pos-28" href="#pos-28"><text data-pos="28" x="289" y="135" text-anchor="middle" dominant-baseline="middle" font-size="12" font-weight="600">28</text></a>
      <a id="pos-29" href="#pos-29"><text data-pos="29" x="277" y="164" text-anchor="middle" dominant-baseline="middle" font-size="12" font-weight="600">29</text></a>
      <a id="pos-30" href="#pos-30"><text data-pos="30" x="325" y="378" text-anchor="middle" dominant-baseline="middle" font-size="12" font-weight="600">30</text></a>
      <a id="pos-34" href="#pos-34"><text data-pos="34" x="487" y="261" text-anchor="middle" dominant-baseline="middle" font-size="12" font-weight="600">34</text></a>
      <a id="pos-38" href="#pos-38"><text data-pos="38" x="337" y="364" text-anchor="middle" dominant-baseline="middle" font-size="12" font-weight="600">38</text></a>
      <a id="pos-42" href="#pos-42"><text data-pos="42" x="301" y="400" text-anchor="middle" dominant-baseline="middle" font-size="12" font-weight="600">42</text></a>
      <a id="pos-47" href="#pos-47"><text data-pos="47" x="282" y="422" text-anchor="middle" dominant-baseline="middle" font-size="12" font-weight="600">47</text></a>
      <a id="pos-53" href="#pos-53"><text data-pos="53" x="259" y="445" text-anchor="middle" dominant-baseline="middle" font-size="12" font-weight="600">53</text></a>
      <a id="pos-60" href="#pos-60"><text data-pos="60" x="397" y="141" text-anchor="middle" dominant-baseline="middle" font-size="12" font-weight="600">60</text></a>
      <a id="pos-65" href="#pos-65"><text data-pos="65" x="364" y="327" text-anchor="middle" dominant-baseline="middle" font-size="12" font-weight="600">65</text></a>
      <a id="pos-70" href="#pos-70"><text data-pos="70" x="287" y="195" text-anchor="middle" dominant-baseline="middle" font-size="12" font-weight="600">70</text></a>
      <a id="pos-76" href="#pos-76"><text data-pos="76" x="157" y="482" text-anchor="middle" dominant-baseline="middle" font-size="12" font-weight="600">76</text></a>
      <a id="pos-77" href="#pos-77"><text data-pos="77" x="527" y="214" text-anchor="middle" dominant-baseline="middle" font-size="12" font-weight="600">77</text></a>
      <a id="pos-78" href="#pos-78"><text data-pos="78" x="453" y="98" text-anchor="middle" dominant-baseline="middle" font-size="12" font-weight="600">78</text></a>
      <a id="pos-80" href="#pos-80"><text data-pos="80" x="299" y="261" text-anchor="middle" dominant-baseline="middle" font-size="12" font-weight="600">80</text></a>
      <a id="pos-84" href="#pos-84"><text data-pos="84" x="211" y="225" text-anchor="middle" dominant-baseline="middle" font-size="12" font-weight="600">84</text></a>
      <a id="pos-88" href="#pos-88"><text data-pos="88" x="155" y="269" text-anchor="middle" dominant-baseline="middle" font-size="12" font-weight="600">88</text></a>
      <a id="pos-93" href="#pos-93"><text data-pos="93" x="314" y="302" text-anchor="middle" dominant-baseline="middle" font-size="12" font-weight="600">93</text></a>
      <a id="pos-97" href="#pos-97"><text data-pos="97" x="151" y="227" text-anchor="middle" dominant-baseline="middle" font-size="12" font-weight="600">97</text></a>
      <a id="pos-100" href="#pos-100"><text data-pos="100" x="245" y="379" text-anchor="middle" dominant-baseline="middle" font-size="12" font-weight="600">100</text></a>
      <a id="pos-104" href="#pos-104"><text data-pos="104" x="244" y="325" text-anchor="middle" dominant-baseline="middle" font-size="12" font-weight="600">104</text></a>
      <a id="pos-110" href="#pos-110"><text data-pos="110" x="247" y="342" text-anchor="middle" dominant-baseline="middle" font-size="12" font-weight="600">110</text></a>
      <a id="pos-111" href="#pos-111"><text data-pos="111" x="211" y="405" text-anchor="middle" dominant-baseline="middle" font-size="12" font-weight="600">111</text></a>
      <a id="pos-113" href="#pos-113"><text data-pos="113" x="149" y="448" text-anchor="middle" dominant-baseline="middle" font-size="12" font-weight="600">113</text></a>
      <a id="pos-115" href="#pos-115"><text data-pos="115" x="693" y="159" text-anchor="middle" dominant-baseline="middle" font-size="12" font-weight="600">115</text></a>
      <a id="pos-117" href="#pos-117"><text data-pos="117" x="79" y="344" text-anchor="middle" dominant-baseline="middle" font-size="12" font-weight="600">117</text></a>
      <a id="pos-120" href="#pos-120"><text data-pos="120" x="50" y="320" text-anchor="middle" dominant-baseline="middle" font-size="12" font-weight="600">120</text></a>
      <a id="pos-125" href="#pos-125"><text data-pos="125" x="156" y="284" text-anchor="middle" dominant-baseline="middle" font-size="12" font-weight="600">125</text></a>
      <a id="pos-128" href="#pos-128"><text data-pos="128" x="42" y="298" text-anchor="middle" dominant-baseline="middle" font-size="12" font-weight="600">128</text></a>
      <a id="pos-137" href="#pos-137"><text data-pos="137" x="25" y="276" text-anchor="middle" dominant-baseline="middle" font-size="12" font-weight="600">137</text></a>
      <a id="pos-140" href="#pos-140"><text data-pos="140" x="30" y="207" text-anchor="middle" dominant-baseline="middle" font-size="12" font-weight="600">140</text></a>
      <a id="pos-145" href="#pos-145"><text data-pos="145" x="118" y="355" text-anchor="middle" dominant-baseline="middle" font-size="12" font-weight="600">145</text></a>
      <a id="pos-150" href="#pos-150"><text data-pos="150" x="474" y="141" text-anchor="middle" dominant-baseline="middle" font-size="12" font-weight="600">150</text></a>
      <a id="pos-160" href="#pos-160"><text data-pos="160" x="129" y="547" text-anchor="middle" dominant-baseline="middle" font-size="12" font-weight="600">160</text></a>
      <a id="pos-165" href="#pos-165"><text data-pos="165" x="619" y="143" text-anchor="middle" dominant-baseline="middle" font-size="12" font-weight="600">165</text></a>
      <a id="pos-169" href="#pos-169"><text data-pos="169" x="95" y="504" text-anchor="middle" dominant-baseline="middle" font-size="12" font-weight="600">169</text></a>
      <a id="pos-172" href="#pos-172"><text data-pos="172" x="139" y="424" text-anchor="middle" dominant-baseline="middle" font-size="12" font-weight="600">172</text></a>
      <a id="pos-175" href="#pos-175"><text data-pos="175" x="764" y="26" text-anchor="middle" dominant-baseline="middle" font-size="11" font-weight="600">175</text></a>
      <a id="pos-176" href="#pos-176"><text data-pos="176" x="767" y="68" text-anchor="middle" dominant-baseline="middle" font-size="12" font-weight="600">176</text></a>
      <a id="pos-178" href="#pos-178"><text data-pos="178" x="403" y="65" text-anchor="middle" dominant-baseline="middle" font-size="12" font-weight="600">178</text></a>
      <a id="pos-180" href="#pos-180"><text data-pos="180" x="446" y="535" text-anchor="middle" dominant-baseline="middle" font-size="12" font-weight="600">180</text></a>
      <a id="pos-200" href="#pos-200"><text data-pos="200" x="408" y="309" text-anchor="middle" dominant-baseline="middle" font-size="12" font-weight="600">200</text></a>
      <a id="pos-220" href="#pos-220"><text data-pos="220" x="318" y="222" text-anchor="middle" dominant-baseline="middle" font-size="12" font-weight="600">220</text></a>
      <a id="pos-225" href="#pos-225"><text data-pos="225" x="326" y="267" text-anchor="middle" dominant-baseline="middle" font-size="12" font-weight="600">225</text></a>
      <a id="pos-230" href="#pos-230"><text data-pos="230" x="319" y="283" text-anchor="middle" dominant-baseline="middle" font-size="12" font-weight="600">230</text></a>
      <a id="pos-234" href="#pos-234"><text data-pos="234" x="277" y="466" text-anchor="middle" dominant-baseline="middle" font-size="12" font-weight="600">234</text></a>
      <a id="pos-238" href="#pos-238"><text data-pos="238" x="469" y="450" text-anchor="middle" dominant-baseline="middle" font-size="12" font-weight="600">238</text></a>
      <a id="pos-250" href="#pos-250"><text data-pos="250" x="707" y="194" text-anchor="middle" dominant-baseline="middle" font-size="12" font-weight="600">250</text></a>
      <a id="pos-256" href="#pos-256"><text data-pos="256" x="354" y="348" text-anchor="middle" dominant-baseline="middle" font-size="12" font-weight="600">256</text></a>
      <a id="pos-262" href="#pos-262"><text data-pos="262" x="787" y="482" text-anchor="middle" dominant-baseline="middle" font-size="12" font-weight="600">262</text></a>
      <a id="pos-274" href="#pos-274"><text data-pos="274" x="802" y="168" text-anchor="middle" dominant-baseline="middle" font-size="12" font-weight="600">274</text></a>
      <a id="pos-280" href="#pos-280"><text data-pos="280" x="733" y="464" text-anchor="middle" dominant-baseline="middle" font-size="12" font-weight="600">280</text></a>
      <a id="pos-286" href="#pos-286"><text data-pos="286" x="238" y="455" text-anchor="middle" dominant-baseline="middle" font-size="12" font-weight="600">286</text></a>
      <a id="pos-292" href="#pos-292"><text data-pos="292" x="388" y="552" text-anchor="middle" dominant-baseline="middle" font-size="12" font-weight="600">292</text></a>
      <a id="pos-307" href="#pos-307"><text data-pos="307" x="843" y="237" text-anchor="middle" dominant-baseline="middle" font-size="12" font-weight="600">307</text></a>
      <a id="pos-322" href="#pos-322"><text data-pos="322" x="667" y="294" text-anchor="middle" dominant-baseline="middle" font-size="12" font-weight="600">322</text></a>
  </g>
</svg>
