<svg xmlns="http://www.w3.org/2000/svg" width="960" height="640" viewBox="0 0 960 640" role="img" aria-labelledby="title desc">
  <title id="title">Mercedes parts diagram: group-020</title>
  <desc id="desc">Mercedes parts diagram: group-020</desc>
  <g id="art">
    <metadata>
    Created by potrace 1.16, written by Peter Selinger 2001-2019
    </metadata>
    <g transform="translate(0.000000,640.000000) scale(0.100000,-0.100000)"
    fill="#000000" stroke="none">
    <path d="M6145 6244 c-55 -13 -125 -28 -155 -35 -30 -6 -65 -15 -77 -20 -13
    -5 -87 -22 -165 -38 -318 -67 -384 -82 -413 -92 -16 -6 -140 -34 -275 -64
    -135 -29 -301 -67 -370 -84 -69 -17 -215 -51 -325 -76 -474 -106 -703 -165
    -805 -206 -173 -69 -231 -115 -232 -184 0 -11 -13 -72 -28 -135 -16 -63 -34
    -146 -41 -185 -14 -78 -26 -101 -80 -162 -38 -42 -54 -89 -51 -148 13 -211 13
    -214 -2 -244 -27 -51 -21 -96 20 -140 l35 -40 -38 -9 c-197 -49 -364 -88 -633
    -147 -91 -20 -169 -41 -175 -46 -17 -16 37 -10 130 16 50 13 173 42 275 65
    102 22 212 47 245 56 87 22 315 76 500 117 333 75 691 158 720 167 141 44 315
    67 315 41 0 -8 -175 -51 -207 -51 -12 0 -23 -4 -25 -9 -6 -18 -311 -94 -380
    -95 -79 -1 -97 -12 -35 -21 49 -8 70 -4 262 49 150 41 145 41 145 21 0 -10
    -21 -21 -60 -32 -33 -9 -60 -20 -60 -25 0 -9 33 -3 92 18 41 14 48 11 48 -22
    0 -35 10 -54 29 -54 29 0 91 -77 91 -112 0 -7 -8 1 -19 17 -32 52 -56 68 -106
    67 -53 -1 -170 -34 -203 -58 -27 -19 -66 -79 -75 -114 l-6 -25 -68 2 c-67 2
    -253 40 -253 52 0 3 4 12 9 19 l8 14 67 -21 c50 -16 73 -18 92 -10 l27 10 -6
    52 c-8 65 -32 88 -110 106 -31 7 -59 17 -62 22 -4 5 -12 9 -18 9 -9 0 -12 -19
    -9 -70 4 -73 3 -76 -26 -61 -61 33 -182 83 -192 79 -7 -2 38 -28 99 -57 84
    -39 111 -57 111 -71 l0 -19 -39 14 c-22 7 -83 37 -135 65 -53 29 -101 50 -108
    48 -6 -2 22 -22 63 -45 169 -92 348 -153 472 -161 95 -5 101 -8 91 -46 l-6
    -25 -54 -7 c-137 -17 -368 62 -610 207 -45 27 -88 49 -95 49 -21 -1 12 -23
    157 -106 189 -107 358 -164 488 -164 l65 0 12 -42 c15 -57 70 -110 142 -136
    32 -12 65 -22 75 -22 115 0 222 124 222 255 -1 107 -37 159 -142 201 -60 24
    -60 31 -3 40 60 9 88 -11 121 -84 45 -99 50 -107 65 -103 8 3 118 33 246 68
    l231 64 103 -78 c56 -43 121 -91 143 -107 23 -15 52 -38 66 -51 23 -20 156
    -123 440 -339 58 -44 111 -86 118 -93 8 -7 35 -27 60 -45 26 -18 85 -62 132
    -98 82 -64 207 -160 395 -303 50 -38 151 -114 225 -170 74 -55 166 -125 203
    -155 38 -30 71 -51 74 -48 4 3 4 8 2 9 -19 17 -392 302 -539 413 -177 134
    -288 218 -553 422 -67 52 -166 127 -220 168 -54 41 -104 79 -110 85 -7 5 -35
    27 -62 47 -28 20 -108 82 -179 137 -71 55 -192 148 -270 207 -77 59 -154 117
    -170 130 -17 13 -55 41 -86 63 -99 72 -188 145 -194 161 -4 12 -13 14 -29 10
    -12 -4 -49 -14 -82 -22 -33 -8 -68 -17 -78 -20 -14 -4 -18 -1 -15 12 2 13 29
    24 113 45 61 15 149 39 197 53 l87 24 7 -34 c9 -51 1 -61 -61 -75 -31 -7 -58
    -16 -61 -21 -8 -12 17 -10 69 6 l47 14 0 -18 c0 -12 -10 -21 -30 -25 -16 -4
    -30 -11 -30 -15 0 -5 6 -8 13 -6 6 3 24 7 40 10 l27 6 0 -39 c0 -22 5 -43 10
    -46 6 -4 10 13 10 44 0 28 5 51 10 51 6 0 10 5 10 11 0 6 -7 9 -15 5 -10 -3
    -15 1 -15 12 0 14 16 22 73 35 61 15 206 56 257 74 10 3 11 7 3 10 -9 3 -171
    -37 -300 -76 l-33 -10 0 49 0 48 73 16 c87 19 394 104 422 116 l20 9 -17 0
    c-17 1 -245 -56 -412 -103 -50 -14 -90 -25 -91 -23 -14 22 -49 397 -39 406 5
    5 173 50 374 101 201 50 409 103 464 117 54 13 171 42 260 63 309 74 611 150
    663 165 28 9 143 38 255 65 111 27 228 56 258 64 30 8 56 14 57 12 9 -9 35
    -168 40 -243 3 -51 10 -93 14 -93 15 0 10 -22 -8 -36 l-18 -13 16 -1 c36 0 24
    -80 -12 -80 -5 0 -9 -5 -9 -11 0 -6 7 -8 16 -5 29 11 38 -6 13 -25 -13 -10
    -21 -21 -17 -25 4 -4 15 -1 24 7 l17 14 -5 -113 c-5 -101 1 -145 15 -110 4 10
    6 10 6 0 1 -7 -10 -17 -23 -21 -25 -10 -36 -30 -36 -66 0 -25 -48 -50 -155
    -80 -33 -9 -114 -34 -180 -55 -140 -45 -343 -100 -367 -100 -10 0 -19 11 -23
    30 -8 37 -58 80 -94 80 -41 0 -174 -36 -220 -60 -41 -20 -68 -60 -95 -138
    l-12 -35 -73 -24 c-40 -13 -141 -41 -224 -63 -84 -22 -183 -48 -222 -59 -38
    -11 -147 -41 -242 -67 -95 -26 -170 -51 -167 -55 2 -4 19 -3 37 2 17 4 118 31
    222 59 105 28 197 53 205 55 8 3 93 26 189 52 l175 47 4 -14 c3 -8 21 -31 41
    -50 45 -43 223 -107 268 -96 57 15 108 54 142 110 l33 56 -3 72 c-5 87 -28
    127 -89 154 -44 20 -37 34 15 34 42 0 73 -25 95 -76 21 -48 25 -49 67 -33 15
    6 123 37 238 70 254 73 371 112 450 151 73 37 65 29 75 72 l8 36 -20 26 -21
    26 -2 167 c-1 92 -7 183 -13 202 -6 19 -13 63 -16 99 -13 127 -47 273 -77 326
    -49 87 -175 186 -325 255 -244 112 -348 129 -539 83z m277 -5 c154 -33 371
    -143 495 -249 38 -33 111 -145 101 -156 -7 -7 -156 -46 -373 -100 -99 -24
    -207 -51 -240 -60 -33 -8 -240 -60 -460 -115 -220 -54 -445 -110 -500 -125
    -55 -14 -230 -58 -390 -99 -159 -40 -333 -84 -385 -98 -52 -14 -175 -44 -273
    -67 -166 -39 -203 -53 -180 -69 5 -3 20 -95 32 -204 l23 -199 -19 -13 -18 -14
    23 -1 c49 0 21 -28 -40 -39 -35 -7 -103 -23 -153 -36 -49 -14 -140 -36 -202
    -49 -158 -35 -184 -24 -131 57 l30 47 -12 15 c-7 8 -17 15 -23 15 -17 0 -309
    147 -357 179 -44 30 -110 42 -110 21 0 -5 14 -10 30 -10 17 0 47 -10 68 -23
    67 -42 286 -154 325 -167 48 -15 54 -31 28 -73 -12 -19 -21 -42 -21 -51 l0
    -16 -47 19 c-27 11 -81 35 -120 55 -94 46 -145 67 -150 62 -8 -7 161 -93 240
    -122 83 -31 91 -44 34 -56 l-36 -7 -76 34 c-43 20 -115 58 -161 85 -47 28 -87
    50 -90 50 -3 0 -19 9 -35 21 -16 11 -34 19 -41 17 -10 -4 100 -77 170 -112 35
    -18 38 -26 21 -43 -9 -9 -9 -23 -1 -52 11 -47 11 -48 -26 -22 -15 10 -57 35
    -93 54 -36 20 -77 45 -90 56 l-24 19 -8 99 c-14 183 -6 221 59 272 13 10 24
    24 24 30 0 10 29 -6 165 -89 152 -93 377 -197 502 -231 l78 -22 85 6 c102 7
    156 21 165 45 3 9 1 93 -6 186 -15 197 -16 200 -106 210 -100 11 -298 82 -478
    171 -216 107 -295 157 -295 188 0 74 236 175 603 258 78 17 232 53 342 80 110
    26 236 55 280 64 44 8 152 33 240 55 88 22 274 64 414 95 140 31 257 58 261
    60 4 2 115 27 246 55 229 48 270 58 429 99 82 22 183 26 257 10z m-3004 -915
    c1 -27 -1 -83 -5 -124 l-8 -75 -50 -27 c-27 -15 -54 -29 -60 -31 -5 -3 -8 -7
    -5 -10 8 -9 113 39 127 59 7 10 13 39 13 64 0 66 12 170 19 170 6 0 -7 -226
    -15 -268 -4 -18 -9 -22 -22 -17 -9 4 -23 9 -29 12 -7 3 -13 1 -13 -4 0 -5 154
    -85 343 -178 l342 -170 -3 -20 c-6 -34 -18 -39 -78 -27 -77 16 -359 131 -448
    183 -281 166 -270 157 -261 208 9 50 34 157 51 211 7 25 18 64 24 88 l11 43
    32 -18 32 -19 3 -50z m64 -82 c-5 -105 4 -121 59 -98 19 8 69 22 111 31 43 9
    76 21 73 26 -3 4 -11 6 -18 4 -58 -17 -199 -46 -204 -41 -6 6 -4 148 2 155 2
    2 41 -16 86 -39 163 -84 366 -164 466 -185 l32 -6 -4 -42 c-2 -23 -10 -99 -16
    -169 -6 -71 -13 -128 -14 -128 -3 0 -599 291 -601 293 -1 1 2 52 7 112 15 181
    28 238 21 87z m1201 -172 c9 -80 18 -172 21 -205 l5 -60 -205 -54 c-113 -29
    -207 -51 -210 -49 -2 3 -13 81 -24 174 -11 93 -22 183 -24 201 l-4 31 111 31
    c99 27 310 79 313 77 1 -1 9 -66 17 -146z m-496 -4 c12 -12 40 -324 30 -349
    -11 -29 -60 -30 -103 -2 l-40 26 12 112 c7 62 13 137 13 168 1 31 4 58 7 62 9
    9 67 -3 81 -17z m2943 -46 c0 -10 -9 -24 -21 -31 l-21 -11 7 21 c4 14 2 21 -7
    22 -7 0 -4 4 7 9 30 13 35 12 35 -10z m-994 -209 c-3 -5 13 -11 35 -14 140
    -19 148 -251 11 -338 -74 -47 -140 -33 -177 35 -11 20 -23 36 -27 36 -12 0 -9
    -25 4 -38 16 -16 7 -23 -20 -16 -12 4 -31 23 -43 43 -13 21 -24 31 -26 23 -3
    -7 1 -19 7 -27 8 -10 9 -15 2 -15 -6 0 -24 17 -41 37 l-31 38 47 15 47 15 21
    55 c32 82 51 106 108 135 50 25 93 33 83 16z m-2016 -121 c12 -7 8 -10 -17
    -10 l-33 0 0 20 0 21 18 -10 c9 -6 24 -15 32 -21z m447 -76 c2 -7 -9 -14 -24
    -17 -15 -3 -72 -18 -126 -33 l-99 -28 -9 15 c-7 11 2 17 39 27 26 7 74 22 107
    32 65 20 106 22 112 4z m99 -75 l64 -51 0 -97 0 -98 -113 -31 c-146 -41 -144
    -41 -158 11 -18 69 -61 138 -101 163 -30 19 -38 30 -38 54 l0 29 53 15 c98 28
    202 55 216 55 7 1 42 -22 77 -50z m-1453 -48 c29 -21 62 -44 75 -50 31 -16 21
    -27 -34 -36 l-47 -7 -37 37 c-39 38 -55 71 -39 81 5 3 9 15 9 28 0 33 14 42
    18 12 2 -18 20 -39 55 -65z m119 -19 c51 -29 60 -42 28 -42 -19 0 -157 84
    -172 105 -19 25 -4 23 45 -5 28 -17 73 -43 99 -58z m106 42 c-5 -28 -28 -29
    -28 -1 0 13 3 27 7 31 10 10 25 -10 21 -30z m119 -16 l28 -11 -25 -7 c-51 -16
    -65 -12 -76 24 l-11 35 29 -15 c15 -8 40 -19 55 -26z m-81 -26 c-9 -8 -26 10
    -26 26 l1 17 14 -19 c8 -11 13 -21 11 -24z m-26 -12 c0 -5 -4 -10 -10 -10 -5
    0 -10 5 -10 10 0 6 5 10 10 10 6 0 10 -4 10 -10z m1393 -54 c37 -28 64 -53 60
    -57 -7 -6 -137 -49 -149 -49 -2 0 -4 38 -4 85 l0 86 13 -8 c8 -4 44 -30 80
    -57z m-1057 3 c55 -14 71 -33 76 -89 l3 -45 -39 2 c-21 2 -55 11 -75 20 l-36
    18 -3 59 -3 59 17 -7 c9 -3 36 -11 60 -17z m454 -80 l0 -19 39 0 c111 0 161
    -148 94 -278 -72 -142 -226 -161 -288 -37 -13 27 -20 35 -23 23 -2 -9 2 -27 8
    -39 10 -17 9 -20 -1 -17 -20 7 -67 70 -74 100 l-7 27 26 7 c30 7 36 26 33 104
    -2 65 23 109 79 138 46 23 114 18 114 -9z"/>
    <path d="M4510 5163 c-58 -14 -134 -35 -170 -47 l-65 -22 -3 -34 c-7 -72 19
    -288 37 -304 l17 -16 165 41 c100 25 171 48 183 59 l19 19 -12 108 c-20 176
    -23 193 -38 208 -8 8 -17 14 -21 14 -4 -1 -54 -12 -112 -26z m132 -28 c16 -60
    32 -275 21 -286 -12 -12 -332 -93 -339 -86 -3 3 -9 40 -15 83 -5 44 -13 111
    -18 149 -7 51 -6 73 2 82 13 13 302 92 326 90 8 -1 18 -15 23 -32z"/>
    <path d="M6100 4714 c-58 -50 -77 -123 -45 -183 54 -105 222 11 191 132 -19
    76 -87 100 -146 51z m96 -2 c75 -50 13 -208 -81 -204 -49 2 -72 90 -40 152 23
    45 89 74 121 52z"/>
    <path d="M4220 4222 c-51 -25 -80 -74 -80 -137 l0 -52 25 -23 c72 -67 185 7
    185 121 l0 41 -34 34 c-39 39 -48 41 -96 16z m85 -27 c19 -19 25 -35 25 -71
    l0 -46 -39 -39 c-85 -86 -164 -12 -116 109 27 67 88 90 130 47z"/>
    <path d="M7947 4743 c-14 -13 -7 -22 16 -20 30 3 36 -16 8 -29 l-22 -12 25 -6
    c29 -7 35 -33 10 -43 -9 -3 -25 -1 -35 6 -11 6 -19 7 -19 1 0 -5 9 -14 21 -20
    35 -19 93 34 60 54 -4 3 -6 17 -3 32 6 34 -38 61 -61 37z"/>
    <path d="M8050 4735 l-12 -15 31 6 c38 8 45 -21 9 -35 l-23 -8 23 -7 c12 -4
    22 -14 22 -22 0 -20 -27 -29 -45 -14 -10 8 -15 9 -15 2 0 -6 9 -16 21 -22 28
    -15 74 13 63 38 -4 9 -7 28 -6 42 1 46 -41 68 -68 35z"/>
    <path d="M7353 4672 c-66 -22 -71 -27 -46 -55 11 -12 26 -33 33 -46 l13 -24
    -32 -26 c-39 -33 -40 -57 -1 -79 35 -20 39 -33 9 -25 -16 4 -20 2 -17 -8 2 -8
    18 -16 34 -17 33 -4 140 26 154 43 10 12 4 45 -9 45 -3 0 -17 9 -31 20 l-25
    19 34 29 34 28 -12 34 c-29 84 -45 91 -138 62z m106 -36 c28 -45 26 -57 -14
    -84 -45 -29 -44 -42 5 -72 22 -14 40 -27 40 -31 0 -3 -24 -13 -54 -22 l-53
    -17 -37 33 c-43 40 -43 38 -6 75 l30 30 -11 31 c-6 17 -15 34 -20 37 -16 10
    -10 32 11 37 11 3 18 1 14 -4 -3 -5 6 -9 20 -9 18 0 24 4 20 15 -12 31 34 15
    55 -19z"/>
    <path d="M7353 4503 c-13 -2 -23 -9 -23 -15 0 -6 10 -8 23 -4 12 3 28 6 35 6
    6 0 12 5 12 10 0 10 -8 11 -47 3z"/>
    <path d="M7005 4540 c-4 -6 -4 -14 0 -18 4 -4 10 -1 12 6 3 6 13 12 24 12 30
    0 23 -32 -16 -70 -19 -18 -32 -37 -29 -42 8 -12 84 -10 84 3 0 7 -12 10 -30 7
    -38 -6 -38 1 0 37 40 38 37 69 -7 73 -17 2 -34 -2 -38 -8z"/>
    <path d="M7112 4538 c-28 -28 -1 -75 39 -65 15 4 19 1 17 -11 -2 -10 -15 -18
    -31 -20 -32 -4 -37 -22 -4 -22 44 0 71 46 57 100 -7 28 -56 40 -78 18z m55 -9
    c16 -16 5 -39 -17 -39 -23 0 -32 13 -24 34 7 19 25 21 41 5z"/>
    <path d="M1460 4500 c-80 -21 -213 -56 -296 -78 -154 -41 -194 -55 -194 -72 0
    -5 -13 -15 -28 -23 l-28 -14 -31 15 -31 15 -52 -17 c-28 -9 -147 -41 -263 -70
    -225 -57 -315 -84 -333 -98 -15 -11 -25 -623 -11 -696 7 -39 7 -56 -2 -65 -6
    -6 -11 -30 -11 -54 l0 -42 132 -79 c73 -44 194 -116 268 -162 234 -144 244
    -150 276 -156 38 -7 327 62 637 152 10 3 25 16 33 30 l16 24 -17 26 c-24 37
    -13 39 35 9 70 -44 83 -46 162 -25 40 11 181 47 313 80 256 65 275 74 275 131
    0 15 -4 31 -10 34 -13 8 -13 49 0 89 15 50 35 648 22 672 -6 11 -80 62 -164
    114 -457 279 -493 300 -523 299 -16 0 -95 -18 -175 -39z m343 -66 c78 -48 198
    -121 267 -162 165 -100 227 -140 234 -151 10 -16 -13 -643 -25 -685 -8 -31 -8
    -49 2 -79 16 -50 6 -66 -51 -84 -113 -35 -548 -143 -576 -143 -17 0 -56 14
    -87 30 l-56 31 14 32 c18 44 33 673 17 704 -6 11 -25 26 -42 33 -31 13 -36 25
    -21 49 7 11 25 4 87 -33 l78 -48 35 5 c33 5 298 71 330 82 8 3 11 8 8 11 -3 3
    -86 -13 -183 -37 l-177 -43 -56 30 c-31 17 -120 69 -198 117 -147 90 -153 93
    -153 78 0 -5 34 -29 76 -52 l77 -42 -27 -14 -28 -15 -156 95 -157 94 -3 43
    c-2 32 -8 43 -23 47 -22 6 -24 16 -6 31 6 5 107 33 222 61 116 28 219 56 230
    61 35 16 129 38 168 39 l39 1 141 -86z m-909 -135 c16 -8 22 -17 19 -27 -4 -8
    2 -21 12 -28 l18 -14 -8 -212 c-4 -117 -7 -225 -8 -240 0 -60 -39 -48 -222 66
    -156 98 -198 121 -193 105 8 -23 340 -218 372 -218 52 -1 246 50 246 64 0 11
    -12 9 -55 -6 -30 -10 -62 -19 -71 -19 l-16 0 3 225 c1 124 -1 228 -4 232 -4 3
    -7 -23 -7 -58 -1 -157 -13 -405 -21 -413 -5 -6 -9 90 -9 225 l0 236 18 16 17
    15 155 -95 c85 -53 167 -103 183 -112 15 -9 25 -21 23 -28 -3 -7 6 -20 20 -30
    l24 -18 -10 -290 c-6 -159 -15 -294 -21 -300 -5 -5 -28 -16 -52 -25 -55 -20
    -53 -37 10 -80 42 -27 53 -41 53 -62 0 -18 7 -29 21 -33 22 -7 39 7 39 33 0 6
    8 12 18 12 9 0 27 3 38 6 l22 6 -11 -41 -11 -40 17 -19 c39 -42 25 -51 -176
    -103 -84 -22 -213 -56 -287 -75 -84 -22 -148 -34 -170 -31 -31 4 -285 151
    -595 344 l-80 50 -1 29 c0 16 6 37 14 46 11 13 13 29 8 60 -13 77 -7 682 7
    694 7 7 57 24 112 38 55 14 183 48 285 75 197 52 235 58 274 40z m116 2 c0
    -11 -38 -21 -56 -14 -26 10 -14 23 21 23 19 0 35 -4 35 -9z m-44 -48 c-8 -8
    -36 5 -36 17 0 7 6 7 21 0 11 -7 18 -14 15 -17z m44 17 c0 -5 -4 -10 -10 -10
    -5 0 -10 5 -10 10 0 6 5 10 10 10 6 0 10 -4 10 -10z m425 -227 l17 -6 -23 -13
    c-17 -9 -29 -9 -43 -2 l-19 10 14 9 c17 10 32 11 54 2z m-40 -43 c3 -5 -1 -10
    -9 -10 -9 0 -16 5 -16 10 0 6 4 10 9 10 6 0 13 -4 16 -10z m57 -2 c-9 -9 -15
    -9 -24 0 -9 9 -7 12 12 12 19 0 21 -3 12 -12z m-33 -210 c-4 -106 -7 -248 -8
    -315 l-1 -123 18 -1 c10 0 12 -3 5 -6 -7 -2 -13 -9 -13 -14 0 -6 5 -7 11 -3 8
    4 9 -1 4 -16 -9 -28 13 -18 23 11 5 12 12 15 21 10 19 -12 -3 -51 -29 -51 -18
    0 -36 -17 -28 -26 11 -10 68 19 83 43 l17 25 -19 13 c-10 8 -30 19 -45 26
    l-28 11 0 157 c0 86 3 220 7 298 l6 143 36 -22 c20 -12 40 -25 45 -29 10 -9 9
    -581 0 -635 l-6 -31 -54 -12 c-42 -10 -54 -17 -54 -32 0 -10 -4 -19 -10 -19
    -5 0 -10 13 -10 29 l0 28 -57 36 -58 36 25 9 25 9 10 -20 c11 -23 35 -35 35
    -18 0 6 -4 11 -10 11 -5 0 -10 4 -10 10 0 5 7 7 15 4 8 -4 15 -1 15 5 0 6 -4
    11 -10 11 -5 0 -10 5 -10 10 0 6 6 10 13 10 15 0 27 225 27 481 0 114 5 153
    19 145 3 -2 3 -91 0 -198z"/>
    <path d="M1648 3553 c-2 -154 0 -284 5 -306 13 -53 -2 -68 -44 -44 -34 19 -49
    22 -49 9 0 -12 75 -45 90 -40 15 5 25 648 11 648 -5 0 -10 -120 -13 -267z"/>
    <path d="M970 3674 c0 -34 4 -53 10 -49 6 4 8 -7 5 -30 -5 -40 17 -46 23 -7 4
    24 10 26 30 14 19 -13 4 -39 -30 -51 -16 -6 -27 -15 -24 -20 9 -13 66 7 73 26
    l6 15 8 -13 c13 -22 -19 -48 -67 -55 -34 -5 -44 -11 -44 -25 0 -11 -4 -19 -10
    -19 -5 0 -10 13 -10 30 l0 29 -50 34 c-39 26 -47 36 -35 41 25 9 35 7 35 -8 0
    -8 7 -17 16 -20 23 -9 34 -7 34 4 0 6 -7 10 -15 10 -8 0 -15 4 -15 10 0 5 7 7
    15 4 8 -4 15 -1 15 5 0 6 -6 11 -12 11 -10 0 -10 2 -1 8 6 4 14 29 18 56 l8
    49 -14 -5 c-8 -2 -15 -20 -17 -40 l-3 -35 -46 -24 c-26 -13 -48 -28 -50 -34
    -1 -5 20 -24 47 -42 l49 -32 3 -33 c4 -41 46 -55 55 -19 4 15 18 25 49 32 53
    14 66 28 62 71 l-3 33 -53 30 -52 30 6 38 c4 23 2 37 -5 37 -7 0 -11 -22 -11
    -56z"/>
    <path d="M871 3243 c0 -109 4 -207 8 -218 19 -48 -7 -57 -61 -20 -20 14 -39
    21 -43 16 -8 -13 80 -63 102 -59 l18 3 -3 45 c-2 25 -2 132 -2 238 1 131 -2
    192 -9 192 -8 0 -11 -63 -10 -197z"/>
    <path d="M550 3226 c0 -2 7 -6 15 -10 8 -3 15 -1 15 4 0 6 -7 10 -15 10 -8 0
    -15 -2 -15 -4z"/>
    <path d="M7915 4480 c-57 -19 -176 -52 -430 -119 -60 -16 -141 -38 -180 -49
    -38 -11 -124 -34 -190 -52 -70 -18 -125 -38 -132 -47 -21 -27 -16 -70 10 -88
    30 -21 84 -56 127 -81 19 -12 73 -45 120 -74 47 -29 164 -101 260 -160 96 -59
    209 -128 250 -154 90 -56 99 -56 260 -10 69 20 233 64 365 99 132 35 296 79
    365 98 69 19 137 37 153 41 l27 6 0 33 0 32 -68 39 c-37 22 -85 52 -107 66
    -22 15 -125 78 -230 140 -104 63 -257 156 -340 207 -162 101 -168 102 -260 73z
    m169 -42 c39 -23 119 -71 177 -107 132 -81 155 -96 408 -248 112 -67 206 -125
    208 -127 6 -6 -117 -42 -372 -108 -126 -33 -322 -85 -435 -114 -118 -31 -215
    -52 -229 -48 -13 3 -72 36 -130 73 -58 37 -133 84 -166 103 -33 19 -121 73
    -195 118 -74 46 -183 112 -242 147 -60 36 -108 68 -108 73 0 10 -11 6 190 60
    85 23 193 53 240 66 47 13 181 49 298 80 118 30 223 59 235 64 37 15 48 12
    121 -32z m-844 -413 c52 -32 158 -97 235 -145 390 -244 370 -235 472 -201 32
    11 155 45 273 75 118 31 307 80 420 109 113 30 217 57 233 61 19 4 27 3 27 -7
    0 -9 -69 -31 -212 -67 -117 -29 -220 -57 -228 -61 -8 -5 -107 -31 -220 -60
    -113 -28 -232 -60 -265 -71 -33 -10 -78 -21 -100 -25 l-41 -5 -79 49 c-44 27
    -113 70 -153 94 -40 24 -110 67 -155 96 -45 28 -120 74 -167 101 -166 97 -275
    170 -278 186 -3 16 7 11 238 -129z"/>
    <path d="M8289 4214 l-13 -16 19 -14 c44 -33 135 -6 105 31 -17 21 -94 20
    -111 -1z m91 -14 c0 -5 -18 -10 -40 -10 -22 0 -40 5 -40 10 0 6 18 10 40 10
    22 0 40 -4 40 -10z"/>
    <path d="M2752 4220 c-31 -29 -29 -80 3 -110 l24 -23 -5 -211 c-3 -116 -9
    -292 -15 -390 -5 -99 -9 -220 -9 -270 l0 -91 -20 -13 c-29 -18 -28 -95 1 -116
    l22 -15 -7 -100 -7 -101 25 -11 c13 -6 36 -9 50 -5 l26 6 0 105 0 105 24 15
    c15 10 26 29 29 53 l6 36 -25 27 -24 26 11 474 11 474 24 20 c32 28 33 83 1
    113 -32 30 -114 31 -145 2z m132 -10 c16 -15 -21 -40 -59 -40 -38 0 -75 25
    -59 40 21 20 97 19 118 0z m-104 -71 c0 -11 -4 -19 -9 -19 -10 0 -21 24 -21
    47 l0 15 15 -12 c8 -7 15 -21 15 -31z m110 6 c0 -14 -4 -25 -10 -25 -11 0 -14
    33 -3 43 11 11 13 8 13 -18z m-32 -12 l3 -23 -35 0 c-35 0 -50 23 -29 44 16
    16 58 1 61 -21z m-8 -287 c0 -131 -3 -242 -5 -246 -2 -3 -5 -106 -6 -228 l-1
    -222 -35 0 -35 0 6 63 c3 34 8 246 12 470 l7 408 29 -3 30 -3 -2 -239z m-20
    -738 c0 -13 -53 -6 -57 8 -2 7 8 9 27 6 16 -2 30 -9 30 -14z m-27 -26 c15 -2
    34 1 42 8 9 7 19 10 23 6 12 -13 -31 -30 -68 -27 -19 1 -42 10 -50 18 l-15 16
    20 -8 c11 -4 32 -10 48 -13z m-53 -43 c0 -12 -4 -19 -10 -17 -5 2 -10 6 -10
    11 0 4 0 14 0 23 0 8 5 12 10 9 6 -3 10 -15 10 -26z m116 -16 c-5 -12 -10 -13
    -17 -6 -8 8 -7 18 2 34 l13 24 4 -18 c2 -10 1 -25 -2 -34z m-36 7 c0 -16 -7
    -20 -30 -20 -23 0 -30 4 -30 20 0 16 7 20 30 20 23 0 30 -4 30 -20z m0 -60 c0
    -5 -13 -10 -30 -10 -16 0 -30 5 -30 10 0 6 14 10 30 10 17 0 30 -4 30 -10z m0
    -39 c0 -13 -27 -21 -45 -15 -25 10 -17 24 15 24 17 0 30 -4 30 -9z m0 -40 c0
    -13 -27 -21 -45 -15 -25 10 -17 24 15 24 17 0 30 -4 30 -9z m0 -50 c0 -19 -42
    -23 -58 -7 l-16 16 37 0 c20 0 37 -4 37 -9z m-10 -47 c0 -11 -8 -14 -27 -12
    -39 4 -42 28 -4 28 21 0 31 -5 31 -16z"/>
    <path d="M3009 3618 c0 -2 -1 -31 -2 -66 l-2 -62 20 0 20 0 -3 65 c-3 48 -7
    65 -18 65 -8 0 -14 -1 -15 -2z"/>
    <path d="M3103 3614 c-7 -3 -13 -13 -13 -21 l0 -16 19 17 c20 18 41 14 41 -6
    0 -7 -16 -26 -35 -44 -48 -43 -45 -54 13 -52 36 1 39 2 15 5 -41 5 -41 9 -1
    50 l33 34 -11 17 c-11 18 -40 25 -61 16z"/>
    <path d="M7205 3368 c-29 -16 -35 -28 -35 -74 0 -59 30 -84 101 -84 l56 0 21
    23 c31 33 30 90 -3 122 -27 28 -102 34 -140 13z m130 -22 l18 -13 -19 -20
    c-25 -25 -106 -25 -132 1 l-17 17 19 15 c25 18 106 18 131 0z m-125 -88 c0
    -14 -18 -9 -24 8 -11 28 -6 39 9 20 8 -11 15 -23 15 -28z m131 -1 c-17 -17
    -24 -1 -10 25 l13 23 4 -19 c2 -10 -1 -23 -7 -29z m-47 17 c17 -6 22 -39 8
    -48 -20 -12 -82 7 -82 24 0 26 38 38 74 24z"/>
    <path d="M7220 3337 c0 -34 83 -36 87 -2 2 11 0 14 -3 8 -7 -16 -56 -17 -72
    -1 -9 9 -12 8 -12 -5z"/>
    <path d="M7485 3360 c-3 -5 -1 -10 4 -10 15 0 14 -83 -1 -98 -9 -9 -6 -12 15
    -12 15 0 27 5 27 10 0 6 -4 10 -10 10 -5 0 -10 25 -10 55 0 51 -10 69 -25 45z"/>
    <path d="M7580 3335 c0 -33 14 -48 22 -23 6 18 38 1 38 -20 0 -29 -20 -43 -43
    -31 -15 9 -18 8 -15 -3 6 -18 46 -23 64 -8 30 25 11 80 -28 80 -10 0 -18 5
    -18 10 0 6 9 10 19 10 11 0 23 5 26 10 4 6 -8 10 -29 10 l-36 0 0 -35z"/>
    <path d="M7202 3140 c-32 -14 -45 -53 -27 -87 45 -86 209 -36 181 55 -12 37
    -97 54 -154 32z m135 -37 c12 -30 -34 -51 -97 -43 -19 2 -15 4 15 9 l40 6 -2
    26 -1 27 20 -6 c11 -2 22 -11 25 -19z m-64 -13 c-9 -9 -95 -19 -87 -10 3 3 22
    10 42 16 38 11 60 8 45 -6z m10 -57 c-13 -2 -33 -2 -45 0 -13 2 -3 4 22 4 25
    0 35 -2 23 -4z"/>
    <path d="M7470 3125 c-7 -9 -9 -19 -5 -23 4 -4 10 -1 12 6 6 16 43 16 43 -1 0
    -7 -13 -26 -30 -42 -44 -42 -40 -65 10 -65 22 0 40 5 40 10 0 6 -13 10 -30 10
    -39 0 -38 6 6 47 l37 33 -18 20 c-22 24 -48 26 -65 5z"/>
    <path d="M7576 3118 c-31 -43 -9 -118 34 -118 25 0 40 29 40 77 0 62 -43 86
    -74 41z m54 -18 c11 -21 4 -66 -12 -76 -14 -9 -38 16 -38 41 0 54 29 74 50 35z"/>
    <path d="M7250 2929 c0 -17 4 -28 10 -24 6 3 10 17 10 31 0 13 -4 24 -10 24
    -5 0 -10 -14 -10 -31z"/>
    <path d="M7300 2900 c-184 -48 -389 -105 -394 -111 -2 -2 -6 -19 -8 -38 l-3
    -35 90 -57 c50 -32 115 -72 145 -89 74 -43 241 -146 491 -302 113 -70 215
    -128 227 -128 12 0 79 16 149 36 71 19 189 52 263 73 l135 37 3 36 3 36 -78
    48 c-43 26 -157 96 -253 154 -96 59 -264 162 -374 229 -109 67 -210 128 -225
    135 l-26 13 -145 -37z m181 -2 c42 -23 47 -33 24 -42 -9 -3 -19 3 -25 14 -7
    13 -21 20 -38 20 -33 0 -120 -26 -138 -41 -11 -9 -18 -8 -30 2 l-16 13 24 9
    c17 7 116 36 157 46 2 1 21 -9 42 -21z m-31 -42 c-18 -17 -76 -36 -84 -29 -17
    18 25 40 79 42 l19 1 -14 -14z m-215 -6 c-3 -5 4 -10 17 -11 l23 -1 -30 -9
    c-16 -5 -37 -7 -45 -4 -21 7 -122 -22 -131 -37 -4 -7 -4 -18 2 -24 7 -8 -2
    -14 -32 -22 l-41 -10 -28 16 c-15 9 -29 21 -31 26 -2 5 61 26 141 47 168 43
    163 42 155 29z m486 -99 c90 -55 195 -119 233 -143 38 -24 91 -55 118 -71 27
    -15 75 -44 106 -65 31 -21 66 -42 77 -46 l20 -8 -22 -10 -22 -11 -77 49 c-117
    74 -219 136 -329 202 -293 172 -328 198 -279 201 6 1 85 -44 175 -98z m-383
    72 c0 -5 -23 -13 -51 -20 -64 -15 -67 -15 -67 -4 0 9 101 41 111 35 4 -2 7 -7
    7 -11z m214 -30 c35 -20 72 -45 84 -55 11 -10 24 -18 27 -18 4 0 76 -42 160
    -93 84 -52 201 -123 260 -159 l108 -66 -51 -12 c-48 -12 -61 -22 -40 -35 18
    -11 10 -20 -30 -33 -53 -16 -60 -15 -86 9 l-22 20 -43 -11 c-24 -6 -56 -20
    -71 -31 l-28 -20 -28 15 c-16 8 -34 22 -41 30 -8 9 -19 16 -25 17 -6 0 -49 25
    -96 54 -47 29 -125 77 -175 106 -49 29 -130 78 -180 109 -49 31 -110 70 -135
    85 l-44 28 23 9 c13 4 80 22 149 38 70 17 141 34 157 39 50 15 61 13 127 -26z
    m-355 0 c4 -11 -42 -23 -90 -23 -41 0 -24 16 28 29 46 10 57 9 62 -6z m-159
    -110 c59 -37 161 -99 227 -139 66 -39 170 -102 230 -139 61 -37 158 -96 216
    -131 100 -59 130 -86 110 -99 -5 -2 -19 4 -32 14 -13 10 -51 33 -84 52 -33 18
    -134 80 -225 138 -91 57 -201 125 -245 151 -236 138 -325 196 -325 211 0 18
    25 7 128 -58z m91 6 c58 -33 218 -131 332 -204 36 -24 84 -52 106 -63 96 -50
    224 -140 207 -146 -12 -4 -44 10 -93 40 -42 26 -112 68 -156 94 -126 74 -458
    277 -480 294 l-20 15 24 1 c13 0 49 -14 80 -31z m1206 -310 c20 -12 34 -23 31
    -26 -4 -5 -5 -5 -314 -84 l-204 -52 -34 17 c-50 23 -34 40 30 32 40 -5 82 1
    196 29 175 43 197 51 217 82 19 28 32 29 78 2z m-100 2 c6 -11 -55 -31 -92
    -31 -36 0 -27 17 15 28 50 13 70 14 77 3z m145 -65 c0 -8 -8 -17 -17 -20 -10
    -3 -88 -23 -173 -46 -85 -22 -192 -52 -238 -66 -80 -25 -112 -26 -112 -5 0 13
    25 20 300 91 263 68 240 64 240 46z m-405 -5 c6 -11 -56 -31 -98 -31 -36 0
    -26 17 16 29 43 12 75 13 82 2z"/>
    <path d="M7240 2700 c0 -29 4 -40 13 -37 6 2 12 19 12 37 0 18 -6 35 -12 38
    -9 2 -13 -9 -13 -38z"/>
    <path d="M2787 2713 c-4 -3 -7 -15 -7 -25 0 -10 -6 -21 -14 -24 -8 -3 -17 -15
    -20 -28 -4 -17 -20 -26 -64 -40 -156 -46 -134 -100 83 -207 l60 -29 68 19 c91
    25 107 41 107 105 0 28 -4 56 -8 62 -12 18 -172 117 -179 110 -8 -8 -12 -5 82
    -65 44 -28 74 -51 67 -51 -7 0 -30 11 -52 25 -22 14 -44 25 -50 25 -23 0 -7
    -17 41 -43 69 -38 63 -55 -28 -87 -40 -14 -78 -31 -85 -37 -7 -7 -17 -13 -22
    -13 -12 0 -116 67 -156 99 l-25 21 19 15 c11 8 22 11 25 6 9 -13 140 -101 151
    -101 24 0 5 18 -65 60 -41 25 -75 48 -75 51 0 3 25 11 56 18 l56 13 13 31 14
    32 1 -62 c0 -35 4 -63 10 -63 6 0 10 38 10 95 0 95 -1 101 -13 88z m193 -212
    c0 -16 3 -36 6 -44 11 -30 -121 -84 -174 -70 -48 12 -13 32 106 63 l42 11 0
    34 c0 19 5 35 10 35 6 0 10 -13 10 -29z"/>
    <path d="M3160 2595 c-9 -10 -9 -15 -1 -15 6 0 11 -18 11 -45 0 -25 -4 -45
    -10 -45 -5 0 -10 -4 -10 -10 0 -5 14 -10 30 -10 17 0 30 5 30 10 0 6 -4 10
    -10 10 -5 0 -10 24 -10 54 0 58 -10 75 -30 51z"/>
    <path d="M3263 2603 c-7 -2 -13 -12 -13 -20 l0 -15 15 12 c11 9 19 10 27 2 13
    -13 2 -32 -18 -32 -23 0 -16 -18 9 -22 37 -5 27 -33 -11 -31 l-33 1 12 -14
    c29 -35 91 3 73 44 -4 9 -6 25 -5 35 4 34 -24 54 -56 40z"/>
    <path d="M2820 2535 c-14 -17 -60 -21 -60 -5 0 6 -4 10 -10 10 -16 0 -11 -27
    6 -34 33 -13 66 -6 71 13 l5 20 40 -25 c22 -14 45 -23 51 -21 12 4 -64 57 -82
    57 -5 0 -14 -7 -21 -15z"/>
    <path d="M6916 2514 c-25 -24 -21 -100 5 -114 54 -29 96 63 49 110 -24 24 -34
    25 -54 4z m48 -29 c9 -37 -3 -75 -24 -75 -12 0 -21 10 -25 29 -12 56 36 100
    49 46z"/>
    <path d="M6820 2505 c8 -10 11 -33 8 -65 l-5 -50 17 0 17 0 -4 53 c-6 68 -9
    77 -29 77 l-16 0 12 -15z"/>
    <path d="M7238 2378 l-3 -62 -185 -50 c-102 -28 -191 -55 -197 -59 -7 -5 -13
    -21 -13 -38 0 -19 -5 -29 -15 -29 -30 0 -35 -39 -35 -253 l0 -215 -35 -168
    c-19 -93 -46 -218 -60 -279 l-26 -110 -6 -243 -6 -243 49 3 49 3 7 230 7 230
    37 170 c83 385 81 370 88 618 8 236 4 269 -27 238 -14 -14 -37 -14 -37 -1 0 5
    7 7 15 4 12 -5 15 2 15 29 l0 35 53 17 c66 22 241 71 287 80 54 11 60 21 60
    91 0 82 -18 84 -22 2z m-368 -294 c6 -11 -25 -18 -46 -10 -8 3 -13 9 -10 14 6
    11 50 8 56 -4z m5 -44 c-3 -5 -17 -10 -30 -10 -13 0 -27 5 -30 10 -4 6 8 10
    30 10 22 0 34 -4 30 -10z m0 -40 c-3 -5 -17 -10 -30 -10 -13 0 -27 5 -30 10
    -4 6 8 10 30 10 22 0 34 -4 30 -10z m-2 -184 c-3 -83 -9 -155 -14 -160 -4 -5
    -20 -5 -34 -2 l-27 7 6 37 c3 20 6 91 6 157 l0 121 35 -4 34 -4 -6 -152z m-11
    -203 c-5 -10 -12 -34 -15 -53 -19 -116 -98 -475 -106 -483 -19 -19 -46 -3 -45
    28 1 27 89 482 99 513 3 6 20 12 40 12 l36 0 -9 -17z m-116 -662 c-3 -57 -6
    -131 -6 -163 l0 -59 -32 3 c-19 2 -33 8 -32 16 1 6 2 79 3 160 l1 149 36 -1
    37 -1 -7 -104z m-6 -250 c0 -16 -20 -23 -46 -17 -36 9 -29 26 11 26 19 0 35
    -4 35 -9z m0 -40 c3 -1 -2 -6 -11 -11 -16 -10 -62 -2 -55 9 4 5 44 6 66 2z"/>
    <path d="M2745 2251 c-45 -11 -73 -29 -80 -51 -15 -48 32 -54 77 -10 19 20 40
    30 59 30 l30 0 -6 -20 c-5 -15 -2 -20 11 -20 34 0 2 -14 -38 -17 -41 -3 -68
    -17 -68 -35 0 -18 123 -4 152 17 80 58 -19 134 -137 106z m-10 -41 c-16 -16
    -35 -30 -42 -30 -39 0 19 56 61 59 6 1 -3 -12 -19 -29z m133 14 c26 -18 29
    -46 5 -65 l-17 -14 7 18 c7 18 -9 55 -28 69 -20 15 11 8 33 -8z m-58 -84 c0
    -5 -12 -10 -27 -9 l-28 0 20 9 c27 12 35 12 35 0z"/>
    <path d="M3021 2227 c-16 -21 0 -29 20 -11 19 17 39 12 39 -10 0 -6 -16 -27
    -35 -46 -45 -44 -44 -50 11 -50 27 0 43 4 39 10 -3 6 -18 10 -33 10 l-26 0 32
    29 c17 17 32 36 32 43 0 34 -56 52 -79 25z"/>
    <path d="M3130 2225 c-7 -8 -10 -18 -6 -22 3 -4 12 2 20 12 l14 19 16 -13 17
    -14 -36 -37 c-48 -49 -45 -60 13 -60 34 0 43 3 32 10 -8 5 -26 10 -39 10 l-24
    0 39 34 39 34 -11 19 c-14 23 -57 28 -74 8z"/>
    <path d="M2215 1925 c-22 -8 -125 -40 -230 -70 -104 -30 -230 -68 -280 -83
    l-90 -29 -3 -318 c-1 -175 2 -340 6 -366 l9 -48 -41 -7 c-43 -7 -116 -39 -116
    -52 0 -41 24 -81 61 -101 22 -13 44 -34 49 -47 5 -13 16 -24 24 -24 24 0 46
    12 40 21 -3 5 -3 18 1 28 l6 19 90 -51 c49 -29 111 -64 136 -79 27 -15 47 -34
    48 -45 4 -42 19 -64 56 -84 22 -11 44 -31 49 -44 7 -18 17 -25 35 -25 l25 0 0
    30 c0 40 12 38 101 -11 126 -69 96 -72 449 33 362 107 330 93 330 149 0 23 -5
    39 -11 39 -9 0 -9 16 -3 58 5 31 9 205 8 385 l0 328 -20 18 c-10 10 -44 32
    -74 48 -30 17 -89 50 -130 75 -41 24 -100 58 -130 75 -30 16 -77 44 -105 60
    -27 16 -85 51 -127 76 -94 56 -112 61 -163 42z m141 -54 c290 -162 568 -326
    583 -344 9 -12 11 -96 7 -359 -4 -322 -5 -378 -2 -453 l1 -30 -70 -22 c-266
    -82 -411 -126 -486 -145 l-86 -22 -82 48 -82 49 23 11 c38 19 34 49 -9 69 -21
    9 -42 27 -48 39 -13 30 -72 36 -131 13 l-42 -16 -128 73 -127 73 26 9 c49 18
    46 51 -7 80 -50 27 -55 62 -63 423 -6 334 -4 373 25 373 9 0 69 17 132 36 260
    80 447 133 471 134 14 0 57 -17 95 -39z m-779 -941 l15 0 -13 17 -14 17 18 -7
    c19 -7 24 9 5 16 -7 3 0 6 15 6 16 1 26 -3 22 -9 -3 -5 1 -10 9 -10 19 0 21
    -16 4 -23 -7 -2 -10 -8 -6 -12 4 -4 14 -2 22 4 12 10 20 9 40 -4 35 -23 33
    -28 -16 -45 -34 -12 -45 -22 -53 -47 -9 -34 -25 -45 -25 -18 0 8 -19 27 -42
    42 -52 34 -58 41 -58 75 0 20 7 29 28 36 l27 9 3 -24 c2 -13 10 -23 19 -23z
    m504 -227 c1 -10 0 -25 -1 -33 -1 -12 1 -12 10 -3 10 9 20 8 46 -5 43 -20 39
    -32 -15 -50 l-42 -14 -6 -29 c-6 -30 -23 -40 -23 -14 0 8 -23 29 -50 46 -57
    35 -75 73 -45 96 28 20 55 16 55 -7 0 -14 6 -20 23 -19 12 0 17 3 11 5 -7 3
    -10 14 -7 24 7 25 43 27 44 3z"/>
    <path d="M2060 1453 c0 -23 205 -133 247 -133 32 0 314 78 327 91 23 22 -9 18
    -96 -11 -51 -17 -124 -40 -162 -51 l-70 -19 -50 25 c-28 13 -84 42 -123 65
    -40 23 -73 38 -73 33z"/>
    <path d="M2306 865 c1 -132 4 -250 4 -263 3 -35 -4 -36 -53 -8 -48 28 -57 31
    -57 16 0 -10 91 -60 109 -60 24 0 33 41 21 103 -6 34 -15 150 -19 257 l-9 195
    4 -240z"/>
    <path d="M1622 894 c-12 -8 -22 -25 -22 -37 l1 -22 20 28 c11 15 27 27 35 27
    8 0 14 5 14 10 0 15 -22 12 -48 -6z"/>
    <path d="M2063 624 c-14 -14 -22 -28 -19 -31 3 -4 15 3 26 15 12 12 27 22 35
    22 8 0 15 5 15 10 0 19 -31 10 -57 -16z"/>
    <path d="M8310 1815 c-63 -19 -200 -58 -305 -86 -104 -28 -217 -59 -250 -70
    -33 -10 -161 -45 -285 -78 -388 -102 -485 -131 -497 -148 -10 -13 -13 -104
    -13 -373 l0 -357 18 -15 c9 -8 85 -56 167 -105 83 -50 180 -109 217 -132 37
    -23 70 -41 73 -41 3 0 52 -29 109 -65 57 -36 124 -74 150 -86 l47 -20 132 10
    c73 6 193 16 267 21 74 6 218 19 320 30 102 10 236 24 299 30 99 10 419 76
    477 100 l21 8 6 139 c4 76 18 246 32 378 14 132 25 274 25 317 l0 76 -87 47
    c-95 51 -334 186 -478 270 -49 29 -127 74 -173 100 -45 26 -87 56 -93 66 -14
    27 -45 24 -179 -16z m160 10 c0 -7 -264 -83 -485 -140 -38 -10 -78 -22 -88
    -27 -9 -5 -119 -35 -245 -67 -125 -33 -285 -76 -357 -96 -71 -20 -154 -43
    -182 -51 -60 -16 -70 -41 -30 -69 22 -16 232 -141 402 -240 50 -29 137 -80
    195 -114 57 -33 111 -61 120 -61 9 0 72 16 140 36 69 19 216 59 327 89 112 30
    207 56 211 59 8 4 251 71 648 176 78 21 147 34 154 30 7 -4 -6 -12 -32 -18
    -259 -69 -716 -193 -773 -211 -33 -11 -71 -22 -85 -25 -34 -9 -373 -99 -489
    -131 -116 -31 -127 -31 -176 2 -22 15 -125 77 -230 138 -291 171 -498 299
    -502 311 -5 16 27 27 224 79 94 24 184 50 199 55 15 6 73 22 128 35 104 26
    295 77 424 114 40 12 141 39 226 61 84 22 169 46 187 55 32 13 89 20 89 10z
    m195 -130 c38 -23 102 -59 140 -80 39 -21 114 -64 167 -97 54 -32 100 -58 102
    -58 3 0 40 -21 83 -47 l77 -47 -24 -7 c-14 -3 -34 -1 -45 6 -11 6 -47 28 -80
    47 -58 35 -125 74 -265 154 -36 21 -121 71 -190 111 -69 41 -132 78 -140 82
    -8 5 -17 16 -18 25 l-4 17 64 -32 c34 -17 94 -51 133 -74z m-215 86 c0 -10 -6
    -12 -77 -31 -24 -6 -43 -15 -43 -19 0 -5 25 -3 56 6 31 8 66 13 77 11 14 -2
    -4 -11 -45 -22 -38 -11 -68 -23 -68 -28 0 -4 11 -6 25 -2 14 3 33 7 43 8 l17
    1 6 -65 c4 -36 12 -132 18 -215 6 -82 14 -175 17 -206 l6 -55 -79 -23 c-43
    -12 -91 -26 -108 -30 -16 -5 -120 -32 -230 -60 -110 -29 -215 -57 -233 -63
    l-32 -12 -33 19 c-17 11 -46 26 -63 35 -17 8 -76 42 -131 75 l-100 60 -7 90
    c-4 49 -11 94 -16 99 -14 14 -100 -4 -121 -25 -19 -19 -27 -65 -9 -54 6 3 10
    15 10 25 0 13 11 22 38 29 55 16 71 14 76 -11 7 -33 13 -138 9 -138 -8 0 -267
    148 -292 167 -3 2 5 10 17 19 12 8 22 22 22 31 l0 16 -23 -21 c-13 -12 -34
    -22 -46 -22 l-23 0 23 21 24 20 -37 -6 c-83 -13 -31 14 85 44 203 54 269 72
    332 92 33 10 150 41 260 69 110 28 225 60 255 70 30 10 109 33 175 51 66 17
    140 37 165 45 56 16 60 16 60 5z m128 -94 c37 -24 99 -61 137 -82 39 -21 108
    -61 155 -89 47 -29 129 -77 182 -107 54 -29 98 -56 98 -59 0 -3 -71 -24 -157
    -47 -87 -23 -232 -61 -323 -86 -91 -25 -167 -43 -169 -41 -4 4 -17 139 -46
    471 l-6 71 18 5 c36 9 45 6 111 -36z m-1479 -367 c61 -38 142 -87 179 -109 37
    -21 127 -73 201 -116 74 -42 151 -89 171 -104 20 -15 56 -35 79 -45 l41 -19 0
    -334 -1 -333 -20 0 c-22 0 -108 41 -154 74 -16 11 -39 26 -50 32 -25 13 -319
    189 -448 267 -54 32 -102 67 -107 77 -9 18 -15 680 -6 680 2 0 54 -31 115 -70z
    m2203 -67 l-3 -68 -107 -29 c-59 -16 -152 -41 -207 -56 -55 -15 -163 -44 -240
    -64 -77 -20 -149 -41 -160 -46 -11 -5 -119 -37 -240 -70 -525 -146 -505 -141
    -505 -117 -1 6 -11 35 -24 62 -26 55 -25 58 39 70 22 3 96 22 165 42 69 19
    199 55 290 79 91 24 212 58 270 75 58 17 188 53 290 80 102 26 239 63 305 82
    66 19 122 34 125 32 3 -2 4 -34 2 -72z m-7 -135 c-3 -24 -12 -110 -21 -193
    -19 -191 -28 -253 -40 -264 -5 -5 -49 -19 -99 -30 -49 -12 -126 -33 -170 -47
    -44 -13 -163 -47 -265 -75 -102 -27 -234 -64 -295 -81 -60 -17 -168 -46 -240
    -65 -147 -38 -145 -38 -165 -46 -29 -12 -179 -47 -200 -47 -12 0 -19 4 -16 9
    3 4 12 59 20 122 8 63 22 171 32 240 l18 126 205 56 c250 67 584 161 666 187
    33 10 150 42 260 70 110 28 216 57 235 65 19 8 45 14 58 14 l23 1 -6 -42z
    m-1480 -308 l16 -50 -16 -132 c-32 -252 -34 -253 -30 -8 5 288 3 272 30 190z
    m1418 -360 c-18 -15 -364 -89 -443 -95 -77 -6 -175 -16 -415 -45 -108 -13
    -414 -40 -445 -39 -14 0 40 18 120 41 220 61 964 266 1140 313 l45 12 3 -90
    c1 -50 -1 -93 -5 -97z"/>
    <path d="M7860 1484 c-30 -9 -58 -21 -63 -27 -11 -17 -6 -176 6 -184 7 -4 8
    23 4 81 l-6 87 35 15 c19 8 54 17 78 20 l44 6 7 -98 c7 -108 10 -124 23 -124
    9 0 5 123 -7 195 l-6 40 -30 2 c-17 1 -55 -5 -85 -13z"/>
    <path d="M7601 1414 c-67 -21 -71 -27 -71 -115 0 -102 18 -103 22 -2 l3 76 58
    20 c32 10 60 17 63 14 2 -2 7 -34 11 -71 3 -36 10 -66 16 -66 10 0 4 110 -8
    143 -8 20 -33 20 -94 1z"/>
    <path d="M7160 1182 c0 -5 18 -22 41 -37 22 -16 44 -36 50 -46 16 -31 5 -499
    -12 -499 -5 0 -31 14 -57 30 -27 17 -52 30 -56 30 -19 0 1 -19 55 -54 l60 -39
    15 14 c11 12 16 66 21 265 l6 249 -24 26 c-29 31 -99 75 -99 61z"/>
    <path d="M7430 1011 c0 -5 25 -24 55 -41 l55 -31 0 -260 c0 -142 -2 -259 -5
    -259 -4 0 -19 7 -35 15 -18 9 -30 11 -30 5 0 -16 69 -46 79 -34 5 5 12 119 15
    254 7 278 8 275 -68 327 -50 34 -66 40 -66 24z"/>
    <path d="M8729 962 c-76 -28 -79 -32 -94 -144 -4 -28 -2 -48 3 -48 5 0 13 28
    16 63 4 34 13 69 19 78 10 12 95 49 115 49 3 0 1 -40 -2 -90 -5 -54 -4 -90 2
    -90 13 0 23 172 10 188 -13 15 -11 15 -69 -6z"/>
    <path d="M8446 888 c-47 -13 -66 -51 -66 -133 0 -80 17 -67 25 19 l7 74 52 20
    c28 11 55 17 59 15 5 -3 7 -33 5 -67 -2 -35 1 -62 7 -63 6 -2 10 26 10 70 l0
    72 -30 2 c-16 1 -47 -3 -69 -9z"/>
    <path d="M8235 823 c-72 -21 -85 -40 -85 -131 0 -95 10 -87 19 15 l6 78 50 17
    c77 25 75 27 75 -58 0 -47 4 -73 10 -69 6 3 10 37 10 75 l0 69 -17 9 c-12 6
    -36 4 -68 -5z"/>
    <path d="M7983 757 c-56 -21 -62 -33 -67 -142 -3 -63 -2 -89 3 -70 5 17 9 51
    10 77 0 26 5 58 11 72 9 26 65 56 101 56 l19 0 1 -87 1 -88 10 49 c5 27 8 70
    6 95 l-3 46 -30 2 c-16 1 -44 -3 -62 -10z"/>
    <path d="M6648 1763 l-28 -4 0 -37 c0 -28 3 -33 12 -24 18 18 36 14 43 -9 5
    -13 1 -27 -8 -37 l-16 -15 -16 13 c-8 7 -18 11 -20 8 -12 -12 26 -30 50 -24
    36 9 45 54 16 77 -12 10 -29 15 -36 12 -9 -3 -15 1 -15 11 0 10 9 16 25 16 14
    0 25 5 25 10 0 6 -1 9 -2 9 -2 -1 -15 -4 -30 -6z"/>
    <path d="M6510 1745 c-8 -9 -9 -15 -2 -15 6 0 14 5 17 10 3 6 13 10 21 10 24
    0 16 -35 -16 -65 -43 -41 -39 -55 16 -55 27 0 43 4 39 10 -3 6 -20 10 -38 10
    l-31 0 37 34 c20 18 37 38 37 43 0 31 -58 44 -80 18z"/>
    <path d="M1030 1413 c-56 -21 -70 -99 -25 -147 l24 -26 3 -82 3 -83 18 -3 c10
    -2 29 -1 43 2 l24 6 0 83 0 84 25 23 c25 24 35 90 17 116 -19 29 -89 43 -132
    27z m110 -33 c12 -7 12 -13 4 -27 -9 -14 -24 -18 -69 -18 -45 0 -60 4 -69 18
    -16 25 7 37 69 37 28 0 57 -5 65 -10z m-126 -66 c4 -9 4 -19 2 -21 -8 -8 -26
    8 -26 23 0 19 16 18 24 -2z m133 -21 l-17 -17 0 20 c0 26 11 37 24 24 7 -7 5
    -16 -7 -27z m-43 21 c9 -3 16 -15 16 -25 l0 -19 -45 0 c-30 0 -45 4 -45 13 0
    30 37 45 74 31z m1 -74 c-3 -5 -17 -10 -31 -10 -13 0 -24 5 -24 10 0 6 14 10
    31 10 17 0 28 -4 24 -10z m-1 -45 c-4 -8 -17 -15 -30 -15 -15 0 -24 6 -24 15
    0 10 10 15 30 15 22 0 28 -4 24 -15z m-6 -45 c-4 -18 -36 -26 -50 -12 -15 15
    -3 27 26 27 18 0 26 -5 24 -15z m2 -50 c0 -19 -31 -23 -48 -6 l-16 16 32 0
    c18 0 32 -5 32 -10z"/>
    <path d="M725 1235 l0 -65 25 0 c19 0 21 3 12 12 -7 7 -12 36 -12 65 0 36 -4
    53 -12 53 -9 0 -13 -20 -13 -65z"/>
    <path d="M833 1293 c32 -5 33 -14 7 -72 -23 -49 -23 -51 -12 -51 5 0 19 26 33
    57 13 32 25 61 27 65 2 4 -16 7 -40 7 -29 -2 -34 -3 -15 -6z"/>
    <path d="M1070 901 l0 -68 -48 -6 c-64 -7 -130 -35 -143 -59 -7 -13 -7 -35 2
    -73 l12 -55 46 -29 c104 -65 137 -80 159 -74 12 3 22 13 22 23 0 23 14 33 85
    59 33 13 65 27 72 33 18 15 16 51 -4 69 -31 26 -153 90 -153 80 0 -5 24 -23
    54 -40 73 -41 74 -45 8 -64 -31 -9 -71 -25 -89 -36 l-32 -20 -3 -40 -3 -39
    -70 42 -70 43 -13 38 c-7 21 -10 40 -8 43 3 2 37 -14 77 -37 39 -23 74 -39 77
    -36 3 3 3 7 1 9 -14 12 -143 86 -151 86 -14 0 0 18 24 31 14 7 18 7 14 0 -6
    -9 136 -101 156 -101 23 0 0 19 -67 58 -41 23 -75 46 -75 50 0 11 97 35 110
    27 5 -3 10 -17 10 -31 0 -13 5 -24 10 -24 6 0 10 42 10 105 0 63 -4 105 -10
    105 -6 0 -10 -30 -10 -69z m210 -222 c0 -12 -36 -30 -99 -49 -52 -15 -63 -24
    -75 -63 -9 -28 -26 -10 -26 28 0 43 19 61 83 79 89 25 117 26 117 5z"/>
    <path d="M1427 864 c-3 -3 -56 -18 -117 -34 -105 -27 -142 -40 -109 -40 30 0
    269 63 269 71 0 10 -33 12 -43 3z"/>
    <path d="M616 761 c-4 -5 -2 -12 4 -16 13 -8 13 -95 -1 -95 -5 0 -8 -4 -5 -9
    3 -4 17 -6 32 -3 14 2 21 8 16 11 -6 4 -12 31 -14 60 -3 51 -18 75 -32 52z"/>
    <path d="M713 763 c-25 -10 -12 -22 17 -16 37 7 42 -18 8 -35 l-23 -11 23 -7
    c12 -3 22 -13 22 -20 0 -21 -28 -28 -47 -13 l-16 14 5 -15 c3 -9 17 -15 39
    -15 l34 0 1 50 c1 67 -17 87 -63 68z"/>
    <path d="M1030 762 c0 -30 68 -44 89 -19 15 19 3 28 -20 14 -15 -9 -23 -9 -39
    1 -23 14 -30 15 -30 4z"/>
    <path d="M6313 574 c-7 -3 -13 -13 -13 -21 l0 -16 18 15 c19 17 42 13 42 -6 0
    -7 -16 -27 -35 -46 -41 -39 -37 -50 16 -50 24 0 38 4 34 10 -3 6 -18 10 -33
    10 l-26 0 34 35 35 36 -11 17 c-11 18 -40 25 -61 16z"/>
    <path d="M6412 568 c-7 -7 -12 -30 -12 -53 0 -46 13 -65 47 -65 27 0 43 27 43
    72 0 39 -15 58 -45 58 -12 0 -26 -5 -33 -12z m56 -52 l-3 -41 -20 0 c-24 0
    -32 42 -15 74 18 35 41 15 38 -33z"/>
    <path d="M6640 533 c-27 -14 -36 -25 -38 -48 l-2 -30 13 18 c8 9 19 17 26 17
    6 0 20 5 30 12 11 6 26 8 37 3 15 -6 10 -10 -24 -16 -55 -10 -62 -15 -62 -44
    0 -41 90 -47 146 -10 27 18 34 75 10 94 -25 21 -98 23 -136 4z m20 -18 c-33
    -19 -50 -18 -26 0 11 8 27 15 35 15 10 -1 7 -6 -9 -15z m104 -1 c9 -8 13 -20
    10 -26 -8 -13 -68 -38 -91 -38 -11 1 -6 6 13 14 42 19 51 36 29 53 l-19 13 21
    0 c12 0 29 -7 37 -16z m-14 -74 c-8 -5 -37 -9 -65 -8 l-50 1 55 7 c30 4 60 7
    65 8 6 1 3 -3 -5 -8z"/>
    <path d="M1046 409 c-49 -12 -78 -36 -74 -63 5 -33 41 -31 76 3 33 34 100 46
    89 17 -3 -8 -1 -16 5 -18 25 -9 -4 -27 -33 -21 -28 5 -69 -17 -69 -37 0 -31
    126 -11 160 25 56 60 -44 121 -154 94z m24 -16 c-8 -3 -23 -14 -34 -25 -22
    -20 -46 -24 -46 -8 0 12 57 39 80 39 l15 -1 -15 -5z m101 -9 c36 -18 36 -49 0
    -73 l-25 -16 18 27 18 28 -16 6 c-9 3 -14 10 -11 14 3 5 -3 13 -12 19 -28 16
    -5 13 28 -5z m-51 -84 c11 -7 4 -10 -25 -10 -29 0 -36 3 -25 10 8 5 20 10 25
    10 6 0 17 -5 25 -10z"/>
    <path d="M687 394 c-15 -15 -6 -24 13 -12 15 9 22 10 31 1 9 -9 4 -21 -20 -50
    -42 -51 -40 -63 9 -63 22 0 40 5 40 10 0 6 -14 10 -32 10 l-32 0 34 35 35 36
    -11 17 c-11 18 -55 28 -67 16z"/>
    <path d="M790 386 c-15 -19 -7 -20 20 -4 15 10 22 10 32 0 9 -9 4 -20 -25 -50
    -48 -49 -47 -62 3 -62 22 0 40 5 40 10 0 6 -11 10 -25 10 -32 0 -31 7 1 32 34
    27 30 72 -7 76 -14 2 -31 -4 -39 -12z"/>
    <path d="M6653 350 c-46 -18 -57 -89 -22 -134 l20 -26 58 0 58 0 21 23 c29 31
    30 99 2 127 -22 22 -95 27 -137 10z m93 -9 c5 -1 19 -7 29 -15 l20 -14 -19
    -21 c-36 -40 -166 -21 -141 20 10 15 65 37 84 34 9 -2 21 -4 27 -4z m35 -114
    c-8 -8 -11 -4 -11 14 0 33 14 47 18 19 2 -12 -1 -27 -7 -33z m-131 17 c0 -8
    -4 -12 -10 -9 -5 3 -10 13 -10 21 0 8 5 12 10 9 6 -3 10 -13 10 -21z m101 -11
    l8 -23 -44 0 -45 0 0 19 c0 38 68 40 81 4z"/>
    <path d="M6666 305 c7 -17 69 -21 79 -4 11 17 -2 21 -24 7 -16 -10 -23 -10
    -33 0 -17 17 -29 15 -22 -3z"/>
    <path d="M6317 324 c-4 -4 -2 -13 4 -21 7 -8 10 -34 7 -63 l-5 -50 23 0 c13 0
    24 5 24 10 0 6 -4 10 -10 10 -5 0 -10 26 -12 57 -3 52 -14 73 -31 57z"/>
    <path d="M6417 323 c-4 -3 -7 -19 -7 -34 l0 -28 31 6 31 6 -4 -29 -3 -29 -27
    2 c-35 2 -37 -14 -3 -23 35 -9 57 12 53 50 l-3 31 -27 3 c-36 4 -38 32 -2 32
    14 0 23 4 19 10 -7 11 -48 14 -58 3z"/>
    </g>
  </g>
  <g id="labels" font-family="Helvetica, Arial, sans-serif" fill="#111" font-size="14"></g>
</svg>
