<svg xmlns="http://www.w3.org/2000/svg" width="960" height="640" viewBox="0 0 960 640" role="img" aria-labelledby="title desc">
  <title id="title">Mercedes parts diagram: group-011</title>
  <desc id="desc">Mercedes parts diagram: group-011</desc>
  <g id="art">
    <metadata>
    Created by potrace 1.16, written by Peter Selinger 2001-2019
    </metadata>
    <g transform="translate(0.000000,640.000000) scale(0.100000,-0.100000)"
    fill="#000000" stroke="none">
    <path d="M4597 6003 c-49 -82 -50 -93 -10 -93 14 0 23 -6 23 -15 0 -8 5 -15
    10 -15 6 0 10 6 10 14 0 8 6 17 13 19 10 4 10 6 0 6 -9 1 -13 17 -13 46 0 33
    -4 45 -14 45 -8 0 -17 -3 -19 -7z m4 -76 c-18 -18 -25 2 -10 30 l14 26 3 -22
    c2 -13 -1 -28 -7 -34z"/>
    <path d="M4670 5991 c-15 -29 -12 -77 6 -95 18 -19 28 -20 55 -6 19 11 27 68
    13 104 -9 23 -61 21 -74 -3z m55 -41 l0 -45 -22 -3 -23 -3 0 44 c0 48 6 59 30
    55 11 -2 15 -16 15 -48z"/>
    <path d="M4017 5923 c-4 -3 -7 -19 -7 -35 0 -15 -4 -28 -10 -28 -6 0 -10 -36
    -10 -88 l0 -87 28 -12 c15 -7 75 -40 132 -74 231 -135 345 -202 555 -324 121
    -71 252 -147 292 -171 39 -23 74 -40 77 -37 3 4 6 115 6 247 l0 241 -73 41
    c-147 85 -285 153 -392 194 -60 23 -124 48 -141 56 -89 39 -437 98 -457 77z
    m287 -48 c116 -26 176 -49 176 -66 0 -7 9 -9 21 -6 37 10 308 -109 482 -211
    l77 -46 0 -228 0 -228 -42 21 c-42 21 -85 46 -468 272 -107 63 -215 126 -240
    139 -25 14 -74 43 -110 65 -36 21 -96 56 -134 77 l-69 38 7 67 c4 36 11 70 17
    76 5 5 9 22 9 38 l0 29 86 -7 c47 -4 132 -17 188 -30z"/>
    <path d="M4106 5804 c-3 -9 -6 -35 -6 -60 l0 -44 73 -36 c39 -20 108 -57 152
    -83 44 -26 118 -70 165 -98 47 -28 105 -61 130 -73 25 -12 78 -43 118 -67 89
    -53 217 -113 244 -113 l19 0 -3 57 -3 58 -120 60 c-66 33 -147 76 -180 96 -95
    58 -124 74 -225 130 -52 28 -106 60 -120 69 -32 23 -219 120 -230 120 -4 0
    -11 -7 -14 -16z m87 -32 c29 -16 138 -78 242 -139 105 -61 208 -120 230 -132
    22 -12 60 -34 85 -48 25 -15 86 -47 135 -72 l90 -46 3 -42 c2 -34 0 -43 -13
    -43 -17 0 -144 62 -185 90 -14 9 -54 33 -90 52 -36 20 -130 73 -210 118 -140
    80 -278 156 -330 183 l-25 13 -3 47 c-4 56 1 57 71 19z"/>
    <path d="M3998 5236 c3 -85 -2 -178 -12 -253 -8 -65 -20 -221 -26 -348 -6
    -126 -15 -282 -20 -345 -19 -218 -33 -876 -28 -1293 l6 -418 33 -32 c39 -37
    157 -108 474 -285 44 -25 87 -50 95 -57 8 -7 49 -31 90 -53 41 -22 161 -90
    265 -150 l190 -109 19 16 19 16 -7 500 c-3 275 -7 824 -8 1220 -1 396 -5 809
    -8 918 l-5 198 -60 33 c-94 51 -208 116 -358 202 -294 169 -336 193 -452 258
    -66 37 -137 79 -157 92 -21 13 -41 24 -45 24 -5 0 -6 -60 -5 -134z m62 84 c14
    -11 28 -20 32 -20 4 0 60 -31 125 -69 65 -37 200 -115 301 -172 100 -57 230
    -132 290 -166 59 -35 142 -81 185 -103 l77 -40 0 -428 c0 -235 3 -866 7 -1402
    l6 -975 -16 -13 -16 -13 -38 24 c-21 13 -76 45 -123 71 -91 50 -185 104 -455
    261 -93 54 -186 107 -205 118 -19 10 -46 27 -60 37 -14 10 -57 34 -97 55 -39
    20 -85 51 -102 69 l-31 32 -6 365 c-8 479 24 1542 57 1909 6 63 13 192 15 285
    5 213 5 213 54 175z"/>
    <path d="M4082 5198 c-7 -7 -12 -33 -12 -59 l0 -47 113 -61 c140 -77 299 -168
    354 -204 24 -15 46 -27 51 -27 4 0 51 -25 103 -56 115 -69 257 -137 270 -129
    14 9 11 111 -3 123 -7 5 -38 20 -68 33 -30 12 -91 44 -135 70 -77 45 -136 79
    -238 137 -27 15 -83 47 -125 71 -74 42 -292 161 -296 161 -1 0 -7 -5 -14 -12z
    m250 -135 c112 -64 237 -135 278 -158 41 -23 100 -56 130 -75 30 -18 84 -46
    120 -62 80 -36 100 -54 100 -88 0 -55 -16 -54 -149 17 -69 37 -175 95 -234
    130 -60 35 -110 63 -111 63 -2 0 -46 25 -97 56 -52 31 -105 62 -119 68 -14 6
    -55 28 -92 49 l-68 39 0 39 0 39 19 0 c11 0 111 -52 223 -117z"/>
    <path d="M4077 4988 c-10 -31 4 -2424 15 -2451 12 -30 68 -60 93 -51 l15 6 0
    1217 0 1217 -16 22 c-28 40 -98 66 -107 40z m57 -19 c14 -7 29 -19 33 -28 9
    -18 17 -2441 8 -2441 -21 0 -65 34 -69 53 -9 38 -13 2427 -5 2427 5 0 19 -5
    33 -11z"/>
    <path d="M4239 4883 l-14 -16 3 -270 c3 -314 4 -319 84 -369 122 -78 377 -218
    396 -218 41 0 43 15 40 307 l-3 280 -26 34 c-17 21 -76 62 -158 109 -72 41
    -163 94 -203 117 -80 47 -99 51 -119 26z m208 -100 c92 -53 185 -106 205 -117
    20 -11 45 -34 55 -51 l18 -30 3 -271 3 -270 -14 -12 c-15 -13 -36 -4 -132 55
    -94 57 -210 126 -262 155 l-53 29 -15 51 c-12 40 -15 105 -15 282 0 241 4 276
    26 276 7 0 89 -43 181 -97z"/>
    <path d="M4271 4850 c-1 -17 46 -140 77 -205 10 -22 27 -64 38 -92 17 -51 43
    -77 28 -30 -25 82 -143 349 -143 327z"/>
    <path d="M4617 4513 c-71 -60 -101 -98 -59 -74 29 17 147 129 142 134 -3 3
    -40 -24 -83 -60z"/>
    <path d="M4345 4410 c-109 -123 -104 -144 5 -25 73 79 81 83 115 61 13 -9 32
    -16 42 -16 11 0 1 11 -27 30 -25 16 -49 30 -55 29 -5 0 -41 -36 -80 -79z"/>
    <path d="M4606 4239 c48 -96 89 -169 91 -162 6 16 -149 325 -165 331 -7 2 26
    -74 74 -169z"/>
    <path d="M4814 4569 c-3 -6 -6 -561 -5 -1232 l2 -1222 14 -15 c8 -8 30 -24 50
    -34 l36 -20 10 15 c12 19 12 2420 0 2452 -9 24 -67 67 -89 67 -6 0 -14 -5 -18
    -11z m46 -24 c16 -8 34 -24 40 -35 11 -21 17 -2416 6 -2427 -11 -12 -68 21
    -77 44 -9 25 -13 2433 -3 2433 3 0 18 -7 34 -15z"/>
    <path d="M4327 4153 c-12 -11 -8 -1742 3 -1763 13 -24 75 -54 95 -46 l15 5 0
    860 c0 534 -4 869 -10 885 -14 38 -84 78 -103 59z m46 -24 c14 -6 30 -22 36
    -36 8 -17 11 -274 11 -879 l0 -855 -22 6 c-13 4 -30 14 -38 21 l-15 15 -2 869
    c-1 479 0 870 2 870 2 0 15 -5 28 -11z"/>
    <path d="M4572 4007 c-13 -15 -14 -1710 -1 -1744 4 -12 27 -34 49 -49 l42 -28
    9 15 c10 16 11 1711 0 1749 -4 14 -22 35 -40 47 -39 27 -45 27 -59 10z m66
    -40 l22 -20 0 -864 c0 -475 -3 -863 -6 -863 -12 0 -50 24 -61 39 -13 17 -20
    1721 -7 1734 8 8 21 1 52 -26z"/>
    <path d="M5410 5241 c0 -5 5 -13 10 -16 14 -9 13 -78 -2 -93 -9 -9 -4 -12 23
    -12 19 0 29 4 22 8 -6 4 -13 32 -15 62 -2 43 -7 56 -20 58 -10 2 -18 -1 -18
    -7z"/>
    <path d="M5510 5240 c0 -5 5 -10 10 -10 15 0 13 -97 -2 -103 -7 -3 3 -5 22 -5
    19 0 29 2 23 5 -9 3 -13 26 -13 64 l0 59 -20 0 c-11 0 -20 -4 -20 -10z"/>
    <path d="M5617 5244 c-4 -4 -7 -14 -7 -22 l0 -15 19 17 c19 17 41 15 41 -5 0
    -5 -16 -26 -35 -46 -45 -48 -44 -53 11 -53 27 0 43 4 39 10 -3 6 -20 10 -38
    10 l-32 0 38 31 c47 39 48 72 2 77 -17 2 -34 0 -38 -4z"/>
    <path d="M5517 5003 c-4 -3 -7 -757 -7 -1675 l1 -1668 30 -16 c17 -8 48 -17
    68 -19 l38 -4 -4 1657 c-3 911 -6 1663 -9 1671 -3 9 -15 12 -34 9 -22 -3 -30
    0 -30 10 0 24 -39 49 -53 35z m49 -864 c0 -437 2 -1156 3 -1599 2 -443 2 -825
    2 -850 l-1 -44 -16 16 -16 16 -6 1637 -5 1638 18 -11 19 -10 2 -793z m33 649
    c-1 -79 -5 -170 -9 -203 -5 -42 -7 1 -9 143 0 129 3 202 9 202 6 0 10 -53 9
    -142z m23 -1503 c3 -998 2 -1338 -2 -870 -8 881 -12 2520 -6 2514 2 -2 6 -742
    8 -1644z m-24 -490 c2 -632 2 -1148 -1 -1145 -2 3 -7 619 -9 1370 -3 751 -2
    1266 1 1145 3 -121 8 -737 9 -1370z"/>
    <path d="M6242 4795 c-27 -56 -27 -55 3 -55 16 0 25 -6 25 -15 0 -8 5 -15 10
    -15 6 0 10 7 10 15 0 8 5 15 12 15 9 0 9 3 0 12 -7 7 -12 29 -12 50 0 52 -21
    49 -48 -7z m28 -15 c0 -11 -7 -20 -15 -20 -13 0 -14 4 -5 20 6 11 13 20 15 20
    3 0 5 -9 5 -20z"/>
    <path d="M6330 4820 c-19 -36 -3 -63 34 -58 l33 4 -4 -17 c-5 -19 -30 -32 -44
    -23 -5 3 -9 1 -9 -5 0 -19 21 -23 45 -7 25 17 34 70 19 110 -9 24 -61 21 -74
    -4z m63 -14 c7 -19 -18 -40 -38 -32 -15 6 -20 28 -8 39 12 12 41 7 46 -7z"/>
    <path d="M3618 4679 c-10 -5 -18 -14 -18 -20 0 -5 9 -4 20 3 15 10 22 10 32 0
    9 -9 4 -20 -26 -51 -21 -22 -35 -44 -32 -50 9 -14 76 -15 76 -1 0 6 -11 10
    -25 10 -32 0 -31 6 5 37 34 28 39 58 11 73 -23 12 -22 12 -43 -1z"/>
    <path d="M3715 4670 c-10 -11 -13 -20 -7 -20 6 0 14 5 17 10 3 6 13 10 21 10
    24 0 16 -35 -16 -65 -42 -40 -39 -55 10 -55 22 0 40 5 40 10 0 6 -14 10 -32
    10 l-32 0 32 33 c30 31 44 77 23 77 -5 0 -16 2 -23 5 -8 3 -23 -3 -33 -15z"/>
    <path d="M6135 3045 l0 -1604 70 -39 c39 -21 122 -69 187 -106 l116 -68 20 11
    c12 6 31 11 45 11 40 0 38 11 -6 34 l-42 21 -3 1568 c-1 1128 -5 1567 -13
    1567 -10 0 -49 22 -184 103 -44 27 -186 107 -189 107 0 0 -1 -722 -1 -1605z
    m157 1498 c73 -42 152 -87 176 -101 l42 -24 0 -1584 c0 -871 -4 -1584 -8
    -1584 -4 0 -32 15 -62 34 -30 19 -77 47 -105 62 -27 14 -80 44 -117 66 l-68
    40 0 1584 c0 871 2 1584 5 1584 2 0 64 -35 137 -77z m258 -3268 l12 -15 -21 0
    c-12 0 -21 6 -21 15 0 8 4 15 9 15 5 0 14 -7 21 -15z"/>
    <path d="M6223 4483 c-10 -4 -13 -313 -13 -1499 0 -1561 -1 -1511 40 -1484
    l15 10 -17 0 -18 0 0 1478 0 1478 28 11 27 11 -25 0 c-14 0 -31 -2 -37 -5z"/>
    <path d="M6432 4368 c-9 -9 -12 -355 -12 -1495 l0 -1483 19 0 c11 0 23 5 26
    10 3 5 -1 10 -9 10 l-16 0 0 1475 0 1474 18 10 17 10 -15 1 c-9 0 -21 -5 -28
    -12z"/>
    <path d="M6892 4430 c-9 -15 -11 -68 -6 -221 l7 -200 21 -15 c11 -7 35 -14 53
    -14 24 0 32 -5 35 -21 2 -13 25 -32 68 -55 36 -20 76 -43 90 -51 13 -9 74 -44
    135 -78 60 -35 209 -120 330 -190 121 -70 258 -150 305 -176 l85 -48 8 141 7
    142 -27 39 c-80 115 -389 378 -626 533 -178 117 -200 130 -279 173 -86 46 -93
    47 -115 25 -21 -21 -58 -14 -58 10 0 27 -18 30 -33 6z m308 -123 c173 -102
    312 -199 334 -232 9 -14 21 -23 26 -20 21 13 327 -259 413 -366 l38 -47 -3
    -130 -3 -129 -105 60 c-58 33 -174 100 -258 149 -84 48 -157 88 -162 88 -6 0
    -10 3 -10 8 0 4 -21 18 -47 32 -27 13 -95 52 -153 86 -58 33 -136 79 -175 100
    l-70 40 -3 232 -2 233 22 -12 c13 -6 84 -48 158 -92z m-265 50 c3 -18 5 -106
    3 -196 l-3 -165 -17 18 -18 17 0 184 0 184 15 -5 c8 -3 17 -20 20 -37z m64
    -164 c-1 -134 -4 -183 -10 -153 -9 55 -12 334 -2 343 3 4 8 7 10 7 2 0 2 -89
    2 -197z m-30 -5 c-1 -130 -4 -180 -10 -153 -12 58 -11 345 1 345 6 0 10 -70 9
    -192z"/>
    <path d="M7071 4096 c-17 -20 -10 -107 9 -117 19 -9 222 -124 360 -202 58 -33
    123 -70 145 -82 22 -12 69 -39 105 -59 134 -76 243 -127 256 -122 10 4 14 23
    14 61 l0 56 -82 39 c-83 39 -154 78 -238 129 -25 16 -76 45 -115 66 -38 21
    -103 58 -144 83 -79 47 -287 162 -294 162 -3 0 -10 -6 -16 -14z m138 -70 c136
    -76 250 -140 296 -169 22 -13 83 -48 135 -77 52 -29 115 -66 140 -80 25 -15
    67 -36 93 -45 67 -25 95 -72 67 -115 l-10 -15 -102 54 c-57 30 -120 65 -141
    78 -49 31 -98 58 -161 91 -28 14 -62 33 -76 43 -22 15 -209 121 -325 184 l-40
    21 -3 42 -3 42 17 0 c9 0 60 -24 113 -54z"/>
    <path d="M7602 4318 c-18 -18 -15 -33 3 -18 11 9 19 10 27 2 13 -13 2 -32 -18
    -32 -8 0 -14 -4 -14 -10 0 -5 9 -10 20 -10 14 0 20 -7 20 -21 l0 -21 -31 6
    c-22 4 -29 2 -27 -7 3 -6 19 -13 36 -15 35 -4 62 29 43 52 -6 6 -7 23 -4 36 9
    35 -31 62 -55 38z"/>
    <path d="M7705 4310 c-3 -5 -1 -10 6 -10 8 0 10 -17 7 -55 l-5 -55 26 0 c19 0
    22 3 13 12 -7 7 -12 36 -12 65 0 39 -4 53 -14 53 -8 0 -18 -4 -21 -10z"/>
    <path d="M6890 3688 c0 -6 -6 -16 -14 -22 l-15 -11 9 -930 c5 -511 12 -1100
    16 -1308 l7 -378 27 -14 c15 -8 37 -11 49 -8 17 4 24 1 28 -15 7 -29 46 -54
    398 -252 55 -31 161 -92 235 -135 74 -43 160 -92 190 -108 30 -17 72 -41 93
    -54 82 -52 124 -71 157 -75 l34 -3 9 55 c7 47 5 227 -5 485 -2 33 3 150 11
    260 l13 200 -12 325 c-6 179 -13 348 -15 375 -2 28 -9 120 -15 205 -11 147
    -18 206 -41 345 -23 136 -31 207 -37 330 l-7 129 -60 35 c-33 19 -103 59 -155
    89 -52 30 -132 76 -177 103 -45 27 -84 49 -86 49 -2 0 -91 50 -198 112 -107
    61 -229 131 -272 156 l-78 45 -19 -18 c-21 -19 -71 -12 -51 8 15 15 14 24 -4
    31 -8 3 -15 0 -15 -6z m31 -424 c13 -794 20 -2224 11 -2224 -29 0 -30 53 -36
    1220 -4 657 -9 1225 -12 1261 -6 74 2 122 20 116 8 -3 13 -112 17 -373z m289
    258 c52 -30 138 -79 190 -108 87 -48 550 -315 576 -332 7 -4 14 -56 18 -132 7
    -134 18 -238 34 -310 6 -25 18 -121 26 -215 9 -93 18 -188 21 -210 16 -140 29
    -497 27 -780 -1 -355 -1 -520 -1 -795 0 -96 -3 -189 -6 -207 l-6 -31 -32 2
    c-18 2 -86 34 -157 76 -69 40 -156 91 -195 113 -75 43 -211 120 -382 219 -60
    33 -151 88 -204 120 l-97 58 -6 918 c-3 504 -8 1090 -11 1302 -3 212 -2 395 1
    407 l6 21 51 -30 c29 -17 95 -56 147 -86z m-256 -267 c9 -561 14 -2235 7
    -2115 -4 58 -8 368 -10 690 -1 322 -6 851 -10 1175 -6 526 -5 633 4 623 2 -2
    6 -169 9 -373z m30 -230 c11 -1117 14 -2004 6 -1735 -9 303 -24 2347 -17 2340
    3 -3 8 -275 11 -605z"/>
    <path d="M7064 3487 c-3 -8 -4 -34 -2 -58 l3 -43 55 -31 c613 -351 786 -445
    820 -445 l21 0 -3 58 -3 57 -65 34 c-36 18 -105 56 -155 83 -49 28 -108 61
    -130 73 -22 12 -71 40 -110 62 -38 22 -137 79 -220 126 -162 93 -201 108 -211
    84z m153 -68 c59 -34 171 -99 248 -144 171 -101 308 -177 397 -221 37 -18 72
    -43 78 -55 13 -23 6 -69 -10 -69 -13 0 -201 96 -305 156 -44 26 -105 60 -135
    77 -30 16 -59 33 -65 37 -21 16 -299 172 -321 181 l-24 9 0 45 c0 59 5 58 137
    -16z"/>
    <path d="M7082 3292 l-12 -8 8 -1135 c5 -624 12 -1142 16 -1151 11 -25 73 -61
    92 -54 l16 6 -7 1133 c-4 622 -11 1142 -16 1154 -5 13 -23 32 -41 43 -37 23
    -38 23 -56 12z m58 -39 l31 -28 9 -1124 c5 -618 7 -1128 4 -1133 -9 -13 -64
    21 -74 47 -5 13 -11 448 -15 972 -3 521 -8 1023 -10 1114 -6 196 -3 204 55
    152z"/>
    <path d="M7247 3172 l-16 -17 -2 -266 -2 -265 16 -29 c19 -37 49 -65 107 -97
    25 -14 106 -60 180 -103 191 -110 181 -105 201 -94 29 15 32 44 31 304 l-2
    249 -22 45 -23 44 -120 70 c-187 108 -313 177 -323 177 -5 0 -16 -8 -25 -18z
    m113 -46 c41 -23 131 -75 200 -115 136 -78 164 -102 179 -159 14 -49 14 -487
    1 -513 -17 -30 -36 -24 -180 60 -74 43 -165 95 -203 115 -37 20 -74 47 -82 60
    l-15 23 43 49 c25 27 58 64 74 83 l30 35 37 -22 c39 -23 56 -27 56 -14 0 8
    -80 52 -96 52 -5 0 -39 -36 -75 -79 -35 -44 -67 -80 -71 -80 -4 -1 -9 14 -12
    32 -8 51 -2 491 7 505 13 19 27 15 107 -32z"/>
    <path d="M7260 3143 c0 -4 7 -21 15 -36 8 -16 38 -91 66 -167 28 -77 55 -137
    60 -134 5 3 2 22 -7 42 -17 40 -38 95 -82 216 -15 44 -33 81 -40 84 -7 2 -12
    0 -12 -5z"/>
    <path d="M7601 2794 c-52 -35 -87 -64 -77 -64 16 0 170 102 181 121 13 19 -13
    5 -104 -57z"/>
    <path d="M7520 2706 c0 -4 101 -188 174 -318 19 -35 36 -49 36 -30 0 4 -25 50
    -56 101 -30 52 -73 129 -95 173 -21 43 -44 78 -49 78 -6 0 -10 -2 -10 -4z"/>
    <path d="M7823 2854 c-3 -9 -3 -285 1 -613 3 -328 9 -837 12 -1131 l6 -535 16
    -23 c10 -13 34 -33 55 -45 l39 -22 15 20 15 20 -6 375 c-3 206 -8 710 -12
    1120 -3 481 -9 755 -16 772 -17 45 -113 93 -125 62z m63 -24 c47 -30 52 -57
    58 -325 10 -417 19 -1995 12 -1995 -18 0 -66 32 -85 56 l-21 27 -1 586 c-1
    322 -4 825 -8 1116 -4 292 -5 536 -3 543 5 16 9 15 48 -8z"/>
    <path d="M7330 2439 c-8 -14 -10 -133 -6 -402 3 -210 9 -562 12 -782 l5 -400
    17 -19 c24 -26 70 -48 84 -40 15 10 5 1572 -11 1601 -9 17 -72 63 -86 63 -2 0
    -9 -9 -15 -21z m65 -33 l30 -24 8 -772 c5 -491 5 -776 -1 -782 -19 -19 -71 19
    -76 55 -3 17 -8 373 -11 790 l-7 757 14 0 c7 0 27 -11 43 -24z"/>
    <path d="M7581 2303 c-12 -22 -3 -1546 10 -1589 7 -22 22 -36 53 -52 l44 -21
    12 14 c14 16 2 1570 -12 1598 -8 15 -79 67 -92 67 -3 0 -9 -8 -15 -17z m66
    -37 l28 -24 6 -219 c11 -347 10 -1353 0 -1353 -18 0 -71 35 -75 50 -3 8 -8
    365 -12 793 l-6 777 15 0 c9 0 29 -11 44 -24z"/>
    <path d="M2186 2513 c-3 -4 -6 -15 -6 -25 0 -11 -7 -18 -20 -18 -14 0 -21 -9
    -26 -35 -11 -60 -36 -41 321 -241 83 -46 175 -98 205 -115 288 -162 353 -199
    355 -199 2 0 38 -20 81 -45 44 -25 87 -45 96 -45 9 0 19 -6 21 -12 3 -7 6 1 6
    18 1 20 -5 34 -14 38 -8 3 -15 12 -15 21 0 9 7 18 15 21 9 4 15 19 15 38 l0
    32 -102 56 c-97 52 -164 89 -453 253 -66 37 -163 91 -215 120 -52 29 -119 66
    -148 83 -81 49 -109 62 -116 55z m93 -62 c63 -37 171 -97 476 -266 77 -43 154
    -86 170 -96 17 -9 85 -48 153 -85 67 -38 122 -74 122 -81 0 -9 -12 -6 -37 10
    -21 13 -78 45 -128 72 -49 26 -97 54 -106 61 -8 8 -18 14 -22 14 -4 0 -66 34
    -139 76 -73 42 -166 94 -207 116 -40 21 -90 50 -110 62 -20 13 -64 37 -98 54
    -61 31 -153 90 -153 98 0 9 17 2 79 -35z m-8 -37 c46 -26 118 -66 159 -89 41
    -23 100 -56 130 -73 30 -16 87 -48 125 -70 39 -21 133 -74 210 -117 228 -127
    298 -169 286 -173 -6 -2 -28 6 -49 19 -20 12 -84 48 -142 79 -107 58 -240 133
    -455 255 -66 38 -163 91 -215 120 -118 64 -140 78 -140 87 0 12 2 11 91 -38z
    m49 -70 c85 -47 193 -107 240 -134 47 -27 112 -63 145 -82 76 -42 130 -72 318
    -179 116 -65 153 -90 155 -107 2 -12 -2 -22 -8 -22 -12 0 -111 52 -190 100
    -25 15 -79 45 -120 67 -67 35 -185 101 -380 214 -65 37 -136 77 -262 147 -52
    28 -68 42 -68 60 0 12 4 22 8 22 4 0 77 -39 162 -86z"/>
    <path d="M2714 2475 c-4 -8 -4 -24 -1 -35 3 -11 1 -23 -4 -26 -35 -21 14 -69
    56 -54 l20 7 1 49 c0 27 -4 55 -9 62 -13 17 -56 15 -63 -3z m46 -35 c-21 -13
    -44 8 -28 27 l11 14 16 -16 16 -16 -15 -9z m15 -50 c0 -23 -49 -20 -53 3 l-4
    18 29 -3 c17 -2 28 -9 28 -18z"/>
    <path d="M2820 2450 l0 -40 20 12 c25 16 45 -1 35 -31 -7 -22 -41 -29 -47 -9
    -3 9 -6 9 -12 0 -5 -8 1 -16 16 -21 33 -13 63 9 63 45 l0 29 -32 10 c-41 12
    -43 25 -3 25 17 0 30 5 30 10 0 6 -16 10 -35 10 l-35 0 0 -40z"/>
    <path d="M8166 2480 l-20 -7 17 -6 c19 -7 25 -97 7 -97 -5 0 -10 -4 -10 -10 0
    -5 10 -10 23 -10 l24 0 -5 58 c-5 70 -11 81 -36 72z"/>
    <path d="M8264 2475 l-19 -14 29 2 c34 2 48 -22 17 -30 -27 -7 -27 -23 -1 -23
    13 0 20 -7 20 -20 0 -22 -28 -28 -47 -9 -8 8 -13 8 -17 0 -11 -17 41 -33 64
    -21 l19 10 -3 51 c-5 65 -25 82 -62 54z"/>
    <path d="M940 2320 c0 -13 -10 -24 -25 -30 l-25 -10 0 -44 0 -45 88 -47 c48
    -26 107 -59 132 -74 25 -15 77 -44 115 -65 39 -21 75 -41 80 -45 6 -5 55 -33
    110 -63 169 -92 349 -192 375 -209 66 -41 144 -78 157 -74 7 3 13 1 13 -4 0
    -6 5 -10 10 -10 16 0 12 40 -5 46 -20 8 -19 41 1 52 10 6 14 19 12 37 -3 31
    -16 40 -168 122 -41 22 -149 82 -240 133 -194 110 -290 163 -437 244 -59 33
    -124 70 -143 83 -42 28 -50 29 -50 3z m211 -116 c92 -52 170 -94 174 -94 4 0
    19 -8 33 -19 15 -10 110 -65 212 -121 348 -194 409 -230 385 -230 -15 0 -79
    34 -320 172 -236 134 -322 182 -537 302 -76 43 -141 82 -144 88 -12 19 20 3
    197 -98z m-52 -10 c75 -43 165 -94 201 -114 36 -21 97 -55 136 -76 228 -124
    513 -289 505 -292 -14 -5 -188 89 -556 298 -60 35 -135 77 -165 93 -71 39
    -284 159 -289 163 -2 2 4 4 13 4 10 0 80 -34 155 -76z m-139 34 c19 -11 98
    -56 175 -98 77 -43 172 -96 210 -118 254 -144 477 -268 522 -291 40 -20 63
    -46 63 -70 0 -19 -23 -12 -82 23 -31 19 -97 56 -145 82 -48 26 -95 52 -103 59
    -8 7 -49 30 -90 52 -41 21 -149 81 -240 133 -91 51 -185 104 -210 117 -116 62
    -150 87 -150 110 0 28 6 29 50 1z"/>
    <path d="M1107 1809 c-47 -27 -40 -129 8 -129 26 0 55 24 55 45 0 25 -30 45
    -56 39 -19 -5 -23 -3 -18 10 7 17 39 30 54 21 5 -3 10 -2 10 3 0 6 -7 13 -16
    16 -19 7 -15 8 -37 -5z m38 -84 c0 -25 -40 -33 -49 -10 -9 24 2 37 27 33 14
    -2 22 -10 22 -23z"/>
    <path d="M1190 1810 c0 -5 11 -10 25 -10 30 0 31 -5 4 -65 -11 -25 -18 -49
    -15 -52 7 -8 66 119 59 130 -7 11 -73 9 -73 -3z"/>
    <path d="M4070 1701 c-5 -11 -10 -27 -10 -35 0 -19 36 -40 56 -32 8 3 14 -1
    14 -9 0 -8 -15 -19 -32 -24 l-33 -9 32 -1 c22 -1 36 5 43 18 14 27 13 84 -2
    99 -18 18 -56 14 -68 -7z m60 -32 c0 -12 -7 -19 -20 -19 -26 0 -36 25 -20 45
    16 19 40 2 40 -26z"/>
    <path d="M4195 1677 c-32 -55 -31 -57 5 -57 22 0 30 -5 31 -17 0 -14 2 -15 6
    -3 3 8 11 18 17 22 8 5 7 8 -1 8 -9 0 -13 16 -13 45 0 56 -12 57 -45 2z m35
    -17 c0 -23 -4 -30 -20 -30 -24 0 -25 4 -4 35 21 32 24 31 24 -5z"/>
    <path d="M3801 1586 c-5 -13 -19 -26 -30 -29 l-21 -5 0 -40 0 -41 28 -19 c15
    -11 72 -43 127 -72 55 -29 107 -58 115 -65 8 -6 40 -24 70 -40 30 -16 66 -34
    80 -42 14 -7 35 -13 48 -13 12 0 22 -5 22 -11 0 -5 5 -7 10 -4 17 11 11 43
    -10 50 -24 8 -26 31 -4 43 10 6 14 19 12 41 l-3 33 -160 90 c-159 90 -266 148
    -272 148 -2 0 -8 -11 -12 -24z m45 -15 c5 -4 47 -28 94 -53 47 -25 113 -62
    148 -83 35 -20 83 -45 108 -56 36 -16 59 -39 39 -39 -5 0 -206 109 -220 120
    -5 4 -52 29 -102 55 -51 26 -93 52 -93 56 0 11 13 11 26 0z m244 -176 c138
    -75 135 -73 128 -80 -5 -5 -120 53 -231 117 -37 21 -94 53 -127 70 -33 16 -60
    35 -60 40 0 9 47 -15 290 -147z m-196 65 c45 -26 115 -65 156 -87 135 -72 150
    -83 150 -110 l0 -25 -72 41 c-40 22 -137 76 -215 118 l-143 78 0 23 0 23 22
    -7 c12 -3 58 -28 102 -54z"/>
    <path d="M2447 1453 c-4 -3 -7 -14 -7 -24 0 -11 -9 -19 -22 -21 l-23 -3 -3
    -38 c-4 -51 3 -57 122 -121 55 -29 151 -81 211 -115 61 -33 120 -61 133 -61
    12 0 22 -4 22 -10 0 -5 5 -10 10 -10 18 0 11 39 -12 62 l-21 21 17 13 c12 8
    16 23 14 46 l-3 33 -75 41 c-41 22 -137 75 -214 117 -154 86 -140 79 -149 70z
    m110 -72 c82 -45 259 -142 292 -160 8 -4 17 -14 19 -21 3 -8 -12 -4 -39 12
    -24 14 -115 65 -202 113 -138 77 -182 105 -163 105 3 0 45 -22 93 -49z m-59
    -7 c26 -15 117 -65 202 -112 173 -95 165 -90 158 -98 -3 -3 -73 32 -154 77
    -82 45 -174 95 -204 111 -62 34 -80 48 -61 48 6 0 33 -12 59 -26z m39 -67 c45
    -26 84 -47 87 -47 2 0 47 -25 100 -55 52 -30 100 -55 105 -55 6 0 11 -13 11
    -29 l0 -29 -67 35 c-38 20 -79 44 -93 53 -14 10 -63 37 -110 60 -137 70 -160
    87 -160 116 l0 26 23 -14 c12 -8 59 -36 104 -61z"/>
    <path d="M8627 1388 c-50 -13 -65 -43 -48 -98 15 -51 34 -61 93 -48 73 17 87
    79 31 140 -18 20 -22 20 -76 6z m73 -27 c5 -11 10 -37 9 -58 l-1 -38 -10 35
    c-5 19 -14 45 -19 58 -11 27 6 30 21 3z m-24 -46 c3 -19 2 -40 -2 -47 -6 -9
    -11 0 -15 27 -3 22 -10 49 -14 60 l-9 20 17 -14 c9 -7 19 -28 23 -46z m-37 -4
    c10 -33 11 -45 2 -54 -18 -18 -41 19 -41 66 0 51 20 45 39 -12z"/>
    <path d="M2332 1088 c-31 -31 3 -87 42 -72 9 3 16 2 16 -4 0 -13 -20 -29 -45
    -35 -16 -4 -14 -5 7 -6 50 -2 76 58 48 110 -12 21 -50 25 -68 7z m54 -43 c-3
    -9 -14 -15 -23 -13 -22 4 -30 38 -11 49 18 11 43 -15 34 -36z"/>
    <path d="M2449 1053 l-30 -48 31 -3 c18 -2 30 -9 30 -18 0 -8 5 -14 10 -14 6
    0 10 6 10 14 0 8 6 17 13 19 10 4 10 6 0 6 -9 1 -13 17 -13 46 0 57 -13 57
    -51 -2z m31 -18 c0 -18 -5 -25 -20 -25 l-20 0 16 25 c9 14 18 25 20 25 2 0 4
    -11 4 -25z"/>
    <path d="M8520 1080 c0 -5 5 -10 10 -10 14 0 12 -84 -2 -98 -9 -9 -5 -12 18
    -11 16 0 23 3 17 6 -9 3 -13 26 -13 64 0 46 -3 59 -15 59 -8 0 -15 -4 -15 -10z"/>
    <path d="M8616 1074 c-9 -24 -7 -29 6 -16 16 16 48 15 48 -1 0 -8 -12 -24 -26
    -38 -14 -13 -30 -32 -35 -41 l-10 -18 48 2 c37 1 40 2 16 5 -39 5 -42 17 -8
    39 30 19 41 50 25 69 -16 20 -56 19 -64 -1z"/>
    <path d="M8720 1071 c-14 -27 -13 -84 2 -99 7 -7 21 -12 33 -12 32 0 45 19 45
    65 0 23 -5 46 -12 53 -18 18 -56 14 -68 -7z m60 -46 c0 -48 -13 -64 -35 -45
    -18 15 -20 71 -4 87 22 22 39 2 39 -42z"/>
    <path d="M4813 1050 c-3 -11 -17 -22 -34 -25 l-29 -7 0 -52 0 -52 123 -68 c67
    -38 176 -99 242 -136 66 -37 188 -104 270 -150 83 -45 162 -91 176 -100 14
    -10 57 -34 95 -53 38 -19 104 -56 147 -81 43 -25 82 -46 87 -46 6 0 10 -4 10
    -10 0 -5 9 -10 20 -10 30 0 26 44 -5 64 -14 9 -25 21 -25 26 0 6 11 16 25 22
    18 8 25 19 25 39 l0 28 -42 24 c-24 13 -90 50 -148 82 -167 93 -358 199 -450
    252 -46 26 -118 66 -160 89 -41 22 -131 73 -199 112 l-123 71 -5 -19z m222
    -125 c77 -43 221 -124 320 -180 99 -56 264 -148 368 -205 103 -56 187 -109
    187 -116 0 -9 -9 -7 -32 7 -18 12 -143 82 -278 157 -135 74 -279 155 -320 178
    -41 24 -104 59 -140 78 -167 91 -304 172 -308 184 -2 8 8 6 30 -7 18 -10 96
    -54 173 -96z m-188 64 c21 -12 67 -38 103 -59 36 -20 128 -72 205 -115 77 -43
    169 -94 205 -115 36 -21 97 -55 135 -75 39 -21 75 -41 80 -45 6 -4 51 -29 100
    -56 50 -26 101 -55 115 -64 14 -10 44 -27 68 -39 38 -19 56 -41 33 -41 -4 0
    -62 30 -127 66 -65 37 -164 91 -219 122 -55 30 -140 78 -190 107 -49 29 -157
    90 -240 135 -200 111 -335 190 -335 195 0 11 32 3 67 -16z m-29 -32 c20 -13
    73 -43 117 -66 44 -24 105 -58 135 -76 30 -18 118 -67 195 -110 77 -43 190
    -106 250 -140 61 -34 133 -74 160 -89 28 -15 84 -46 125 -69 l75 -42 3 -29 4
    -28 -104 55 c-57 30 -161 87 -233 127 -71 39 -175 97 -230 127 -55 30 -107 61
    -115 68 -8 7 -40 25 -70 40 -89 45 -354 197 -362 209 -11 16 -10 46 2 46 6 0
    27 -11 48 -23z"/>
    <path d="M5484 963 l28 -5 -5 -21 c-2 -12 -12 -39 -21 -59 -9 -21 -12 -38 -8
    -38 7 0 62 110 62 125 0 3 -19 4 -42 4 -32 -2 -36 -3 -14 -6z"/>
    <path d="M5576 948 c-32 -46 -11 -113 34 -106 53 7 50 73 -4 73 -14 -1 -26 4
    -26 11 0 18 28 37 45 30 8 -3 15 -1 15 4 0 19 -49 10 -64 -12z m52 -62 c5 -24
    -10 -38 -31 -30 -17 6 -23 35 -10 48 12 12 38 1 41 -18z"/>
    <path d="M3470 895 c-5 -14 -16 -25 -24 -25 -17 0 -27 -34 -19 -70 l5 -27 141
    -78 c208 -115 383 -213 457 -255 247 -143 450 -252 450 -243 0 4 5 2 12 -5 18
    -18 28 -15 28 8 0 11 -9 25 -20 32 -24 15 -26 36 -5 44 9 4 15 19 15 39 l0 33
    -147 82 c-82 46 -173 97 -203 115 -30 17 -122 69 -205 115 -129 71 -226 126
    -422 236 -51 30 -51 30 -63 -1z m87 -31 c26 -15 85 -49 131 -75 45 -27 86 -49
    90 -49 4 0 23 -10 42 -23 19 -13 76 -45 125 -72 50 -26 119 -65 155 -85 36
    -21 124 -70 195 -110 161 -91 208 -120 202 -127 -3 -2 -52 21 -109 53 -57 32
    -137 76 -178 99 -136 75 -514 288 -545 306 -16 10 -63 36 -102 59 -40 23 -73
    43 -73 46 0 10 22 2 67 -22z m-18 -33 c25 -16 98 -57 161 -92 156 -85 265
    -145 390 -216 58 -33 168 -95 245 -138 159 -88 150 -83 142 -91 -3 -3 -34 10
    -69 29 -35 19 -88 48 -118 65 -30 16 -107 59 -170 94 -63 36 -164 93 -224 127
    -61 34 -115 66 -120 70 -6 4 -45 26 -86 47 -69 35 -219 121 -229 130 -19 17
    42 -2 78 -25z m-2 -42 c21 -12 178 -99 348 -194 348 -193 556 -312 568 -325 5
    -4 7 -17 5 -29 l-3 -21 -120 68 c-66 38 -200 113 -298 168 -98 54 -240 134
    -315 176 -75 43 -167 93 -203 112 -50 26 -68 41 -71 60 -7 34 1 39 28 21 13
    -8 40 -24 61 -36z"/>
    <path d="M3596 398 c-9 -36 -8 -38 24 -31 l30 6 0 -32 c0 -34 -24 -43 -49 -18
    l-13 12 4 -14 c12 -41 60 -38 80 3 14 31 -3 56 -38 56 -34 0 -31 28 4 33 l27
    4 -31 2 c-25 1 -33 -4 -38 -21z"/>
    <path d="M3701 393 c1 -16 -1 -38 -5 -51 -10 -30 10 -54 42 -50 31 4 48 29 37
    54 -4 11 -7 31 -6 47 l3 27 -37 0 -37 0 3 -27z m55 6 c9 -16 -18 -30 -33 -17
    -7 6 -10 14 -7 19 7 13 31 11 40 -2z m2 -68 c-2 -9 -11 -17 -21 -19 -21 -4
    -35 27 -17 38 19 12 42 0 38 -19z"/>
    </g>
  </g>
  <g id="labels" font-family="Helvetica, Arial, sans-serif" fill="#111" font-size="14" text-rendering="geometricPrecision" opacity="0" pointer-events="none">
      <a id="pos-13" href="#pos-13"><text data-pos="13" x="824" y="398" text-anchor="middle" dominant-baseline="middle" font-size="12" font-weight="600">13</text></a>
      <a id="pos-22" href="#pos-22"><text data-pos="22" x="369" y="177" text-anchor="middle" dominant-baseline="middle" font-size="12" font-weight="600">22</text></a>
      <a id="pos-31" href="#pos-31"><text data-pos="31" x="767" y="214" text-anchor="middle" dominant-baseline="middle" font-size="12" font-weight="600">31</text></a>
      <a id="pos-40" href="#pos-40"><text data-pos="40" x="465" y="45" text-anchor="middle" dominant-baseline="middle" font-size="12" font-weight="600">40</text></a>
      <a id="pos-49" href="#pos-49"><text data-pos="49" x="631" y="162" text-anchor="middle" dominant-baseline="middle" font-size="12" font-weight="600">49</text></a>
      <a id="pos-58" href="#pos-58"><text data-pos="58" x="368" y="603" text-anchor="middle" dominant-baseline="middle" font-size="12" font-weight="600">58</text></a>
      <a id="pos-67" href="#pos-67"><text data-pos="67" x="117" y="465" text-anchor="middle" dominant-baseline="middle" font-size="12" font-weight="600">67</text></a>
      <a id="pos-76" href="#pos-76"><text data-pos="76" x="555" y="549" text-anchor="middle" dominant-baseline="middle" font-size="12" font-weight="600">76</text></a>
      <a id="pos-85" href="#pos-85"><text data-pos="85" x="280" y="398" text-anchor="middle" dominant-baseline="middle" font-size="12" font-weight="600">85</text></a>
      <a id="pos-94" href="#pos-94"><text data-pos="94" x="241" y="537" text-anchor="middle" dominant-baseline="middle" font-size="12" font-weight="600">94</text></a>
      <a id="pos-112" href="#pos-112"><text data-pos="112" x="555" y="121" text-anchor="middle" dominant-baseline="middle" font-size="12" font-weight="600">112</text></a>
      <a id="pos-120" href="#pos-120"><text data-pos="120" x="865" y="537" text-anchor="middle" dominant-baseline="middle" font-size="12" font-weight="600">120</text></a>
  </g>
</svg>
