<svg xmlns="http://www.w3.org/2000/svg" width="960" height="640" viewBox="0 0 960 640" role="img" aria-labelledby="title desc">
  <title id="title">Mercedes parts diagram: group-002</title>
  <desc id="desc">Mercedes parts diagram: group-002</desc>
  <g id="art">
    <metadata>
    Created by potrace 1.16, written by Peter Selinger 2001-2019
    </metadata>
    <g transform="translate(0.000000,640.000000) scale(0.100000,-0.100000)"
    fill="#000000" stroke="none">
    <path d="M6015 4881 c-3 -5 -1 -12 5 -16 15 -9 13 -92 -2 -98 -9 -3 -7 -7 5
    -12 9 -4 25 -4 35 0 11 5 13 9 5 12 -9 3 -13 26 -13 64 0 45 -3 59 -14 59 -8
    0 -17 -4 -21 -9z"/>
    <path d="M6110 4849 l0 -41 15 12 c20 16 45 6 45 -19 0 -24 -39 -39 -51 -20
    -4 7 -11 10 -14 7 -23 -22 36 -41 64 -21 39 27 21 83 -27 83 -13 0 -20 4 -17
    10 3 6 17 10 31 10 13 0 24 5 24 10 0 6 -16 10 -35 10 l-35 0 0 -41z"/>
    <path d="M5455 4780 c-3 -5 -1 -10 6 -10 8 0 10 -17 7 -55 l-5 -55 26 1 c14 0
    20 3 14 6 -9 3 -13 26 -13 64 0 45 -3 59 -14 59 -8 0 -18 -4 -21 -10z"/>
    <path d="M5550 4755 c0 -37 8 -43 28 -23 10 10 16 8 29 -5 l17 -16 -19 -21
    c-14 -15 -21 -17 -32 -9 -15 13 -28 6 -18 -10 3 -6 17 -11 29 -11 53 0 65 82
    14 88 -16 2 -28 9 -28 17 0 8 12 16 28 18 l27 4 -37 2 -38 1 0 -35z"/>
    <path d="M6088 4451 l5 -238 -24 -6 c-45 -12 -63 -7 -241 79 l-178 85 -28 -13
    c-15 -7 -26 -17 -24 -21 1 -4 2 -17 2 -30 l0 -23 133 -63 132 -62 -25 -13
    c-14 -7 -83 -28 -154 -47 -71 -18 -124 -35 -118 -37 9 -3 305 68 395 94 9 3
    17 2 17 -3 0 -9 -54 -24 -335 -97 -93 -24 -178 -47 -187 -51 -10 -4 -18 -3
    -18 2 0 10 65 33 94 33 l16 0 0 272 c0 149 -3 269 -6 266 -3 -3 -5 -121 -4
    -262 l1 -255 -28 -7 c-15 -3 -45 -10 -66 -16 -51 -12 -74 -4 -125 48 -26 26
    -79 61 -130 86 -116 56 -240 126 -275 155 -16 13 -41 23 -57 23 -31 0 -189
    -36 -198 -45 -14 -14 11 -11 97 12 61 16 102 22 120 17 l26 -7 -20 -4 c-109
    -21 -265 -70 -228 -72 10 -1 150 36 216 56 12 4 17 0 17 -14 l0 -20 -167 -43
    -168 -43 -88 -87 c-48 -47 -90 -84 -93 -81 -3 3 -5 -3 -3 -13 6 -28 26 -31 34
    -4 9 28 120 144 158 164 31 17 356 104 387 104 12 0 17 -5 14 -14 -3 -8 -56
    -27 -129 -45 -198 -50 -222 -61 -303 -146 -40 -42 -72 -82 -72 -90 0 -9 -6
    -12 -16 -8 -12 4 -15 2 -12 -8 7 -20 41 -17 44 3 7 52 132 163 213 190 107 36
    272 78 304 78 74 -1 52 -17 -61 -44 -64 -16 -151 -42 -193 -58 l-76 -29 -69
    -73 c-101 -108 -107 -116 -79 -116 8 0 15 7 15 16 0 28 137 160 183 177 43 16
    320 94 347 98 8 1 28 -1 44 -6 l29 -8 -154 -43 c-85 -24 -170 -48 -190 -54
    -33 -9 -148 -114 -192 -174 -8 -12 -19 -16 -26 -11 -9 5 -12 2 -9 -10 5 -30
    26 -28 42 2 8 15 48 61 89 101 l74 73 194 50 194 51 31 -15 c111 -53 196 -139
    167 -168 -12 -12 -80 -32 -268 -80 -66 -16 -129 -34 -140 -39 -48 -21 -166
    -43 -241 -44 l-80 -1 -60 36 c-32 20 -96 55 -142 78 l-83 42 7 22 c14 47 35
    74 106 143 l73 72 58 12 57 13 0 65 c0 36 -3 62 -7 58 -4 -4 -7 -19 -8 -33 l0
    -27 -41 -12 c-22 -6 -55 -19 -72 -28 -42 -21 -212 -211 -212 -236 0 -11 -11
    -27 -25 -36 -14 -9 -25 -26 -25 -39 l0 -22 136 -73 137 -73 -119 -34 c-65 -19
    -130 -38 -144 -42 l-25 -9 20 -1 c11 -1 92 19 180 44 87 25 166 45 174 45 30
    0 -3 -15 -77 -36 -42 -12 -115 -33 -162 -47 -47 -14 -100 -28 -117 -32 l-33
    -7 -2 269 -3 268 -2 -253 -3 -253 -24 -8 c-12 -5 -44 -12 -69 -16 l-46 -7 -57
    32 c-31 17 -58 29 -61 27 -5 -6 8 -14 235 -143 346 -198 453 -259 542 -306 36
    -19 107 -59 158 -88 51 -29 95 -50 98 -47 3 2 -45 33 -106 67 -61 35 -113 66
    -115 70 -2 4 37 17 88 29 51 13 117 31 147 42 30 10 58 19 62 19 4 0 8 -124 8
    -275 0 -177 4 -275 10 -275 11 0 14 291 3 467 -4 80 -9 110 -17 104 -6 -5 -63
    -23 -126 -41 -63 -17 -136 -37 -162 -45 -36 -10 -51 -10 -63 -1 l-16 12 103
    32 c126 39 411 112 416 107 14 -14 -15 -35 -62 -46 -61 -13 -78 -31 -22 -22
    19 3 46 3 60 -1 l26 -6 0 -440 c0 -242 4 -440 9 -440 4 0 6 198 3 440 l-4 440
    30 0 c16 0 54 -15 84 -32 29 -18 73 -42 96 -52 l42 -19 2 -91 2 -91 3 88 4 87
    41 -21 42 -21 11 15 c8 11 15 13 29 5 l19 -11 -5 45 c-6 49 8 94 35 117 l17
    13 0 -37 c0 -21 3 -35 8 -31 8 9 10 116 2 116 -3 0 -23 -29 -45 -65 -22 -35
    -43 -64 -47 -65 -23 -1 1 44 77 144 l84 113 63 18 c204 59 307 85 335 85 51 0
    232 -135 210 -156 -3 -3 -31 15 -62 41 -32 25 -75 58 -96 72 l-39 25 -132 -27
    c-73 -15 -161 -36 -196 -47 l-63 -19 -34 -47 c-41 -55 -47 -83 -7 -32 15 19
    36 44 47 55 25 26 132 52 148 36 6 -6 21 -11 34 -11 l23 0 0 -255 c0 -163 4
    -255 10 -255 6 0 10 92 10 255 l0 255 41 0 c28 0 68 -14 132 -46 112 -56 117
    -60 118 -93 l2 -26 4 23 c5 25 14 27 44 10 17 -10 23 -10 26 -1 3 8 14 11 29
    7 l24 -6 0 29 c0 18 -9 38 -22 50 -13 11 -36 35 -53 53 -16 18 -53 48 -82 68
    -29 19 -53 36 -53 37 0 7 252 67 258 61 4 -4 8 -114 10 -244 1 -130 4 -250 6
    -267 1 -16 4 100 4 258 l2 288 -17 -5 c-10 -3 -45 -12 -79 -20 -34 -9 -79 -23
    -100 -32 -24 -11 -71 -18 -123 -19 -47 -1 -76 2 -65 6 54 21 451 128 477 129
    36 0 13 -34 -30 -45 -66 -16 -60 -22 33 -30 l87 -7 108 -50 109 -51 3 -171 c2
    -120 3 -88 5 110 l2 282 40 16 c27 11 71 16 131 16 l90 0 62 -29 c270 -126
    277 -128 277 -86 0 17 -9 29 -30 40 -39 20 -31 49 11 40 l29 -7 0 27 c0 43
    -50 82 -192 146 -73 33 -170 78 -215 100 -87 42 -93 44 -93 30 0 -4 60 -34
    133 -66 72 -31 143 -64 156 -72 14 -9 49 -26 80 -38 40 -17 55 -28 56 -43 3
    -36 -16 -32 -145 30 -69 33 -146 68 -172 78 -26 11 -95 44 -155 73 -59 30
    -119 58 -132 62 -14 4 -76 32 -139 61 -62 30 -141 66 -175 80 -84 35 -267 125
    -267 131 0 5 34 1 110 -15 42 -9 141 -51 473 -202 78 -36 137 -69 137 -76 0
    -8 5 -14 10 -14 6 0 10 45 10 114 0 66 -4 117 -10 121 -6 4 -10 -28 -10 -89 0
    -55 -4 -96 -10 -96 -9 0 -101 42 -431 196 -77 36 -148 62 -165 62 -16 -1 -40
    4 -52 11 -24 13 -102 -2 -102 -19 0 -5 -17 -8 -37 -7 l-38 2 -3 -36 -3 -36 96
    -43 c53 -24 98 -47 101 -51 4 -7 -40 -22 -179 -60 -22 -6 -37 -13 -34 -15 3
    -3 75 13 160 35 86 23 164 41 174 41 l18 -1 -16 -9 c-20 -12 -317 -90 -341
    -90 l-18 0 0 244 c0 135 -4 247 -9 250 -5 3 -6 -97 -3 -233z m352 -91 c96 -45
    216 -100 265 -122 50 -22 113 -51 140 -65 28 -13 93 -43 145 -65 52 -22 140
    -62 195 -88 55 -27 131 -62 169 -79 38 -17 67 -33 64 -36 -5 -5 -100 38 -502
    224 -120 55 -220 101 -222 101 -1 0 -55 25 -119 55 -65 30 -119 55 -121 55
    -12 0 -214 100 -214 106 0 8 -11 12 200 -86z m-190 58 c19 -9 96 -44 170 -78
    74 -34 178 -81 230 -105 52 -23 120 -54 150 -68 136 -62 356 -164 478 -219 72
    -34 132 -64 132 -69 0 -4 -19 2 -42 13 -24 12 -90 42 -148 68 -181 82 -383
    176 -445 207 -33 17 -71 34 -84 38 -14 4 -68 28 -120 53 -53 25 -148 68 -212
    97 -64 28 -127 59 -140 68 -27 20 -21 19 31 -5z m26 -42 c55 -24 111 -49 124
    -56 l25 -14 -25 -6 c-31 -8 -233 81 -238 105 -5 22 2 20 114 -29z m-471 -97
    c82 -39 170 -83 195 -97 25 -15 103 -52 173 -83 71 -32 134 -62 140 -67 7 -5
    68 -36 137 -67 69 -32 141 -68 160 -81 19 -13 40 -24 47 -24 14 0 210 -88 230
    -103 18 -13 5 -28 -15 -17 -34 18 -412 201 -612 295 -113 54 -223 108 -245
    120 -22 13 -89 46 -150 74 -138 63 -244 120 -225 121 8 0 82 -32 165 -71z
    m-24 -26 l159 -77 -20 -8 c-35 -13 -310 118 -310 148 0 20 -5 22 171 -63z
    m-1157 13 c-3 -8 -29 -20 -57 -27 l-52 -12 -74 -71 c-41 -40 -82 -90 -93 -113
    -18 -41 -38 -57 -38 -30 0 21 37 70 122 160 l83 88 45 8 c65 13 70 12 64 -3z
    m1871 -25 c-16 -13 -365 -100 -381 -94 -37 14 -12 23 296 101 70 18 108 15 85
    -7z m157 -37 c68 -31 168 -76 223 -100 55 -24 114 -52 132 -61 33 -17 35 -33
    4 -33 -18 0 -232 92 -358 154 -40 20 -89 42 -108 50 -31 13 -50 46 -26 46 6 0
    65 -25 133 -56z m-149 9 c-7 -2 -19 -2 -25 0 -7 3 -2 5 12 5 14 0 19 -2 13 -5z
    m141 -62 c44 -21 109 -50 143 -65 34 -14 91 -40 125 -58 l63 -32 -30 -8 c-17
    -4 -96 -25 -176 -46 l-146 -38 -34 15 c-38 17 -172 79 -329 154 l-105 49 20 9
    c11 4 63 22 115 38 l95 31 89 -6 88 -5 82 -38z m-564 29 c-19 -13 -30 -13 -30
    0 0 6 10 10 23 10 l22 0 -15 -10z m-82 -62 c-5 -14 -35 -24 -203 -67 -60 -16
    -150 -41 -198 -55 -61 -18 -94 -23 -105 -17 l-17 10 15 5 c113 36 181 56 320
    92 183 48 193 49 188 32z m276 -104 c265 -128 267 -129 237 -139 -22 -7 -49 5
    -333 143 -117 56 -158 81 -158 94 0 10 3 18 6 18 4 0 115 -52 248 -116z m-13
    -52 c110 -53 196 -99 192 -103 -5 -4 -62 -21 -128 -39 -66 -17 -161 -42 -211
    -56 l-92 -26 -117 61 c-65 34 -129 61 -144 61 -25 0 -221 89 -221 101 0 3 46
    17 103 32 56 15 136 38 178 50 59 17 94 21 158 19 l83 -4 199 -96z m-709 -29
    c93 -48 165 -89 160 -91 -11 -3 -328 154 -337 168 -11 18 6 11 177 -77z m1532
    68 c3 -5 -4 -11 -17 -15 -111 -30 -407 -106 -416 -106 -6 0 -11 4 -11 8 0 4
    44 19 98 32 53 13 149 39 212 57 133 37 127 36 134 24z m-2644 -87 c182 -106
    164 -99 275 -98 l100 2 130 35 c341 92 401 110 410 118 11 11 45 12 45 1 0
    -15 -266 -132 -321 -141 -114 -19 -256 -34 -324 -35 l-72 -1 26 -16 c14 -8 91
    -50 171 -91 341 -177 386 -202 410 -223 31 -27 276 -155 298 -155 11 0 13 -3
    6 -10 -10 -10 -274 118 -339 164 -16 12 -77 44 -135 71 -58 27 -112 54 -120
    61 -8 6 -67 38 -130 71 -286 148 -580 305 -580 309 0 16 51 -5 150 -62z m2670
    53 c0 -13 -150 -60 -192 -61 l-18 0 0 -63 c0 -73 0 -73 -85 -34 -65 30 -65 28
    23 51 23 6 42 15 42 21 0 11 -6 9 -93 -18 -34 -11 -54 -13 -70 -6 l-22 10 100
    31 c107 34 282 81 303 82 6 0 12 -6 12 -13z m182 -56 c86 -41 117 -61 118 -75
    0 -21 10 -25 -153 50 -95 44 -127 63 -127 77 0 24 13 20 162 -52z m-2912 -2
    c52 -28 118 -64 147 -79 37 -20 47 -30 36 -34 -10 -4 -59 17 -122 52 -58 32
    -121 65 -138 73 -18 7 -33 20 -33 26 0 19 7 17 110 -38z m1171 -9 c107 -54
    137 -80 93 -80 -19 0 -207 98 -216 114 -9 13 -10 26 -3 26 3 0 59 -27 126 -60z
    m-141 42 c0 -9 -190 -102 -256 -126 -62 -22 -381 -59 -389 -46 -4 6 109 23
    245 36 96 9 163 31 280 90 109 55 120 60 120 46z m1720 -12 c12 -8 9 -10 -12
    -10 -16 0 -28 5 -28 10 0 13 20 13 40 0z m-1721 -24 c-16 -15 -233 -115 -269
    -124 -71 -19 -340 -48 -328 -36 6 6 99 19 208 30 96 10 166 32 277 88 90 45
    133 61 112 42z m2056 4 c-3 -5 -11 -10 -16 -10 -6 0 -7 5 -4 10 3 6 11 10 16
    10 6 0 7 -4 4 -10z m-1934 -60 l73 -38 -72 -22 c-54 -16 -79 -30 -102 -56
    l-30 -35 -89 48 -88 47 106 52 c58 28 111 49 117 47 6 -2 44 -22 85 -43z
    m1049 12 c0 -8 -450 -131 -505 -138 -57 -7 111 47 295 96 199 52 210 54 210
    42z m-770 -31 c0 -5 -15 -12 -32 -16 -55 -12 -242 -67 -261 -77 -37 -19 -177
    -208 -176 -236 l2 -27 4 24 c3 14 40 68 84 122 l79 98 124 40 c67 22 143 43
    167 46 l44 5 -45 -14 c-25 -8 -77 -24 -117 -35 -138 -40 -148 -46 -239 -155
    -46 -55 -84 -105 -84 -111 0 -13 77 73 127 142 39 54 59 66 166 97 69 21 48 5
    -26 -19 l-62 -20 -83 -100 c-86 -103 -104 -138 -82 -158 10 -10 12 -8 8 9 -4
    15 10 40 44 85 27 35 63 83 81 106 33 46 53 56 197 94 47 12 90 25 95 29 25
    18 75 21 97 6 15 -11 17 -16 8 -16 -22 0 -240 -69 -275 -86 -65 -34 -218 -264
    -175 -264 5 0 7 6 4 14 -8 20 54 107 146 208 l35 38 147 41 148 42 30 -15 30
    -15 -82 -22 c-46 -12 -113 -31 -150 -42 l-67 -19 -68 -82 c-37 -45 -78 -96
    -90 -112 -23 -30 -31 -76 -14 -76 5 0 7 8 4 18 -5 20 139 208 179 234 34 22
    294 90 331 86 l32 -3 -80 -22 c-44 -11 -120 -31 -169 -44 l-88 -23 -44 -55
    c-63 -81 -142 -190 -147 -204 -3 -8 -49 11 -133 53 l-129 66 -3 38 -3 38 72
    95 c88 116 91 118 247 164 126 37 192 48 192 30z m955 -56 c86 -41 135 -70
    135 -80 0 -8 -5 -15 -10 -15 -26 0 -270 131 -270 145 0 21 -4 22 145 -50z
    m700 53 c35 -16 31 -29 -5 -15 -16 6 -30 15 -30 19 0 11 4 10 35 -4z m-837
    -45 c-10 -2 -26 -2 -35 0 -10 3 -2 5 17 5 19 0 27 -2 18 -5z m-1327 -49 c50
    -26 88 -49 85 -51 -3 -3 -47 18 -98 46 -116 63 -107 67 13 5z m494 36 c-11 -5
    -27 -9 -35 -9 -9 0 -8 4 5 9 11 5 27 9 35 9 9 0 8 -4 -5 -9z m-531 -46 c50
    -25 95 -49 100 -54 5 -6 -10 -31 -37 -64 -30 -34 -47 -64 -47 -80 0 -34 1 -34
    -105 23 -49 27 -141 75 -202 106 -62 31 -113 60 -113 65 0 4 42 11 93 15 50 3
    112 11 138 16 l45 10 76 -41 c85 -45 148 -73 148 -65 0 2 -31 21 -70 40 -82
    41 -139 75 -126 75 5 0 50 -21 100 -46z m-624 28 c0 -15 -45 -30 -208 -72 -86
    -23 -179 -48 -206 -55 -31 -10 -54 -11 -65 -6 l-16 10 25 9 c14 6 116 33 225
    62 110 28 201 53 204 56 8 7 41 4 41 -4z m150 -62 c74 -38 186 -96 248 -127
    61 -32 112 -61 112 -65 0 -26 -83 7 -230 92 -36 20 -103 57 -150 80 -87 45
    -120 67 -120 82 0 12 -7 15 140 -62z m20 -58 c58 -30 144 -76 192 -101 48 -25
    85 -48 82 -50 -10 -10 -88 -34 -264 -81 l-184 -48 -57 28 c-32 15 -90 48 -131
    72 -40 25 -113 67 -161 94 l-88 48 68 24 c37 12 115 36 173 52 l105 28 80 -5
    80 -5 105 -56z m-600 40 c0 -12 -89 -33 -103 -25 -7 4 7 12 33 19 56 15 70 16
    70 6z m1975 -25 c12 -7 48 -32 80 -57 33 -24 62 -46 64 -47 2 -2 2 -6 -1 -9
    -6 -6 -52 16 -158 74 l-64 36 24 7 c34 10 33 10 55 -4z m36 -81 c80 -42 145
    -81 147 -90 3 -12 -20 -5 -90 27 -188 88 -253 130 -207 136 3 1 70 -32 150
    -73z m-191 44 c11 -7 1 -10 -35 -9 -37 0 -45 3 -30 9 27 12 47 12 65 0z m380
    -125 c0 -9 -6 -12 -15 -9 -8 4 -12 10 -9 15 8 14 24 10 24 -6z m-1220 -4 c0
    -15 -515 -160 -526 -148 -8 8 52 27 280 86 125 33 231 62 234 65 8 8 12 7 12
    -3z m216 -117 c97 -50 164 -91 164 -100 0 -8 -3 -14 -7 -14 -18 0 -333 177
    -333 188 0 19 2 18 176 -74z m-173 39 c-7 -2 -19 -2 -25 0 -7 3 -2 5 12 5 14
    0 19 -2 13 -5z m387 -133 c0 -5 -7 -7 -15 -4 -8 4 -15 8 -15 10 0 2 7 4 15 4
    8 0 15 -4 15 -10z"/>
    <path d="M5595 3672 c-38 -33 -178 -213 -171 -220 4 -4 12 1 17 11 14 25 104
    134 153 185 39 41 40 58 1 24z"/>
    <path d="M5623 3583 c-92 -105 -126 -150 -121 -164 2 -6 12 1 23 17 22 35 96
    125 144 177 19 20 30 37 24 37 -5 0 -37 -30 -70 -67z"/>
    <path d="M6897 4604 c-4 -4 -7 -12 -7 -18 0 -6 5 -5 12 2 18 18 38 14 38 -8 0
    -11 -7 -20 -15 -20 -20 0 -19 -9 5 -28 14 -12 17 -21 10 -32 l-9 -15 -22 13
    c-11 7 -24 11 -27 7 -9 -9 19 -25 45 -25 23 0 48 32 35 44 -3 4 -6 24 -7 44
    l0 37 -25 3 c-14 2 -29 0 -33 -4z"/>
    <path d="M6996 4588 c-33 -46 -6 -112 42 -106 l27 3 9 37 c17 68 -42 117 -78
    66z m52 0 c14 -14 16 -67 3 -87 -18 -28 -41 -4 -41 42 0 56 12 71 38 45z"/>
    <path d="M4520 4575 c-18 -22 -5 -31 15 -11 9 9 21 14 26 11 17 -11 9 -35 -21
    -62 -42 -37 -40 -63 4 -63 19 0 38 5 41 10 4 6 -7 10 -24 10 -39 0 -39 10 -1
    38 17 13 30 31 30 40 0 38 -46 56 -70 27z"/>
    <path d="M4632 4577 c-36 -43 -19 -117 27 -117 33 0 41 14 41 69 0 54 -40 82
    -68 48z m50 -24 c7 -32 -6 -78 -24 -81 -21 -4 -33 35 -24 73 7 29 41 34 48 8z"/>
    <path d="M5702 4568 c-19 -19 -14 -33 7 -14 17 15 51 13 51 -3 0 -4 -16 -22
    -35 -41 -46 -45 -45 -60 5 -60 22 0 40 5 40 10 0 6 -12 10 -27 10 l-27 0 28
    29 c35 36 33 75 -4 79 -14 2 -31 -3 -38 -10z"/>
    <path d="M5804 4556 c-8 -33 2 -49 25 -37 22 12 44 -1 39 -25 -3 -15 -12 -19
    -37 -17 l-34 1 16 -15 c22 -22 65 -9 73 22 8 31 -11 55 -42 55 -13 0 -24 5
    -24 10 0 6 11 10 24 10 14 0 28 5 31 10 4 6 -8 10 -29 10 l-36 0 -6 -24z"/>
    <path d="M4248 4412 l-28 -3 0 -36 0 -35 15 12 c21 18 47 5 43 -22 -2 -18 -9
    -23 -31 -23 -32 1 -31 -18 2 -23 28 -4 51 14 51 42 0 27 -18 46 -42 46 -29 0
    -21 28 10 32 15 2 23 5 17 8 -5 3 -22 4 -37 2z"/>
    <path d="M4125 4400 c-3 -5 -1 -10 4 -10 6 0 11 -20 11 -45 0 -25 -4 -45 -10
    -45 -5 0 -10 -4 -10 -10 0 -5 14 -10 32 -10 25 0 29 3 20 12 -7 7 -12 36 -12
    65 0 39 -4 53 -14 53 -8 0 -18 -4 -21 -10z"/>
    <path d="M3830 4330 c0 -5 5 -10 10 -10 15 0 13 -97 -2 -103 -7 -3 3 -6 22 -6
    l35 0 -17 10 c-14 8 -18 23 -18 64 0 42 -4 55 -15 55 -8 0 -15 -4 -15 -10z"/>
    <path d="M3930 4305 l0 -35 25 6 c31 8 45 -20 22 -43 l-16 -16 -17 14 -17 14
    5 -15 c9 -27 61 -19 72 12 11 31 -5 58 -35 58 -30 0 -22 28 9 33 l27 4 -37 2
    -38 1 0 -35z"/>
    <path d="M3521 4271 c-9 -6 -10 -11 -2 -15 14 -9 15 -96 1 -96 -5 0 -10 -4
    -10 -10 0 -5 11 -10 25 -10 14 0 25 5 25 10 0 6 -4 10 -10 10 -5 0 -10 27 -12
    60 -2 47 -6 58 -17 51z"/>
    <path d="M3607 4273 c-4 -3 -7 -19 -7 -34 l0 -28 30 5 c36 8 52 -18 28 -43
    l-16 -15 -22 12 c-27 15 -24 -7 3 -24 21 -14 47 1 58 32 10 27 -22 65 -46 56
    -10 -4 -15 0 -15 10 0 10 9 16 25 16 14 0 25 5 25 10 0 11 -53 14 -63 3z"/>
    <path d="M3920 3940 c0 -99 -2 -180 -4 -180 -7 0 -120 62 -130 71 -11 10 -57
    12 -80 3 -9 -4 -16 -18 -16 -34 l0 -28 112 -63 c61 -35 113 -69 115 -75 4 -11
    -80 -44 -110 -44 -7 0 -49 20 -93 45 -43 25 -87 48 -96 51 l-18 5 0 170 c0
    106 -4 169 -10 169 -6 0 -10 -60 -10 -160 l0 -160 -47 30 c-73 46 -123 40
    -123 -16 l0 -34 43 -21 c23 -12 61 -35 85 -51 l42 -29 0 -33 0 -32 -137 -37
    c-164 -44 -144 -43 -193 -11 -21 14 -45 24 -51 22 -13 -4 95 -75 141 -93 25
    -10 278 -154 350 -200 19 -12 61 -38 93 -56 32 -19 79 -46 105 -61 26 -16 79
    -44 117 -64 39 -20 89 -50 112 -65 51 -35 53 -35 53 -4 0 24 -15 35 -22 16 -3
    -9 -168 78 -168 89 0 8 50 27 113 43 l57 15 0 -14 c0 -8 5 -14 10 -14 6 0 10
    14 10 30 0 33 -5 36 -24 17 -7 -7 -57 -23 -110 -36 l-98 -23 -14 13 -13 14
    187 49 c244 64 232 61 232 43 0 -10 -19 -21 -57 -32 -98 -27 -97 -30 9 -30
    l103 0 73 -45 72 -45 0 -172 c0 -95 4 -173 9 -173 4 0 6 117 3 260 l-5 260 64
    0 64 0 145 -84 c113 -65 147 -81 153 -70 5 9 17 12 33 8 l24 -6 0 30 c0 37
    -12 47 -40 32 l-20 -11 -58 33 c-166 93 -201 113 -247 140 -27 17 -81 47 -120
    68 -114 60 -429 244 -455 265 -23 19 -130 65 -130 56 0 -4 12 -14 28 -21 l27
    -12 -20 -8 c-44 -16 -45 -10 -45 241 0 153 -4 239 -10 239 -6 0 -10 -67 -10
    -180z m-74 -161 c41 -23 74 -49 74 -56 0 -9 -17 -3 -52 17 -29 17 -72 41 -95
    53 -45 22 -58 43 -22 34 11 -3 54 -25 95 -48z m22 -56 c33 -17 52 -34 52 -45
    l0 -19 -31 17 c-33 17 -182 104 -188 109 -1 2 0 9 4 15 4 7 24 0 58 -19 29
    -17 76 -42 105 -58z m-288 -46 l0 -17 -27 16 c-74 45 -102 67 -97 76 9 14 124
    -54 124 -75z m-2 -46 l3 -20 -75 42 c-51 28 -76 48 -76 60 l0 19 73 -41 c47
    -26 73 -47 75 -60z m117 -3 c48 -29 103 -62 123 -73 105 -57 417 -235 485
    -277 43 -26 81 -48 84 -48 16 0 143 -85 143 -96 0 -21 -2 -20 -114 51 -57 36
    -112 68 -122 72 -23 8 -259 142 -402 227 -142 85 -190 112 -244 138 -30 14
    -48 30 -48 41 0 23 -2 24 95 -35z m-36 -29 c28 -18 48 -36 45 -40 -8 -14 -24
    -11 -55 12 -16 11 -29 16 -29 11 0 -5 10 -17 23 -25 l22 -16 -17 0 c-10 -1
    -18 -6 -18 -12 0 -6 7 -8 17 -5 52 20 132 29 112 12 -2 -1 -65 -19 -139 -39
    -74 -20 -166 -45 -205 -57 -38 -11 -77 -17 -85 -14 -9 4 4 12 35 21 28 7 81
    23 119 35 38 11 79 21 92 21 l24 0 0 63 c0 35 2 64 4 64 3 0 27 -14 55 -31z
    m326 22 c25 10 61 11 51 2 -7 -7 -76 -33 -88 -33 -5 0 -8 10 -8 21 0 16 3 19
    13 11 7 -5 21 -6 32 -1z m-55 -29 c0 -11 -92 -32 -104 -24 -5 3 8 11 30 18 48
    15 74 17 74 6z m128 -4 c-6 -17 -162 -58 -179 -47 -19 12 -12 16 71 37 92 24
    113 26 108 10z m100 -29 c42 -23 97 -54 122 -70 25 -15 70 -41 100 -58 30 -17
    81 -46 113 -63 31 -18 57 -36 57 -40 0 -25 -58 3 -270 127 -58 34 -129 75
    -157 90 -29 16 -53 34 -53 42 0 18 2 18 88 -28z m-73 -9 c4 -6 -9 -10 -32 -10
    -28 0 -34 3 -23 10 20 13 47 13 55 0z m125 -71 c41 -25 121 -72 178 -103 57
    -32 101 -61 97 -64 -3 -4 -27 -12 -53 -19 -26 -7 -56 -15 -67 -18 -13 -4 -35
    4 -60 21 -22 15 -85 51 -140 82 -89 48 -137 76 -225 131 l-25 15 23 5 c12 4
    62 4 110 1 l87 -6 75 -45z m-432 29 c-3 -7 -33 -20 -69 -30 -35 -9 -120 -33
    -188 -53 -82 -23 -128 -32 -135 -25 -13 13 -22 10 179 67 191 55 219 60 213
    41z m163 -69 c79 -44 148 -84 154 -88 5 -5 37 -23 70 -41 33 -18 69 -39 79
    -46 l19 -13 -14 -6 c-14 -5 -40 8 -204 100 -152 85 -255 150 -255 162 0 18 -9
    22 151 -68z m-47 -25 c39 -20 91 -49 116 -64 25 -15 79 -47 120 -71 l75 -43
    -35 -10 c-19 -5 -84 -24 -145 -43 -60 -19 -128 -36 -150 -39 l-40 -6 -125 72
    c-247 143 -280 163 -280 170 0 4 39 17 88 29 48 13 98 26 112 31 14 5 63 9
    109 9 l85 1 70 -36z m691 -101 c16 -5 -92 -39 -190 -59 -65 -14 -7 15 80 39
    50 14 91 26 92 26 1 1 9 -2 18 -6z m25 -38 c0 -13 -19 -22 -61 -28 -8 -2 -18
    -5 -24 -9 -32 -19 -130 -19 -110 0 8 8 153 50 178 51 9 1 17 -6 17 -14z m243
    -113 c110 -61 139 -103 35 -51 -96 48 -252 140 -260 152 -17 27 7 23 65 -10
    34 -20 106 -61 160 -91z m-213 72 c0 -2 -12 -4 -27 -4 -21 0 -24 3 -14 9 13 8
    41 5 41 -5z m-330 1 c0 -2 -26 -12 -57 -21 -32 -8 -76 -22 -98 -30 -76 -26
    -277 -74 -288 -67 -6 3 63 26 154 50 90 24 184 50 209 58 47 14 80 18 80 10z
    m220 -40 c0 -28 -7 -30 -34 -10 -21 16 -13 35 15 35 14 0 19 -7 19 -25z m-90
    -43 c52 -29 86 -55 88 -66 l4 -19 -43 25 c-24 14 -68 38 -96 53 -29 16 -53 34
    -53 42 0 19 6 17 100 -35z m-97 1 c-7 -2 -21 -2 -30 0 -10 3 -4 5 12 5 17 0
    24 -2 18 -5z m657 -53 c0 -5 -4 -10 -9 -10 -6 0 -13 5 -16 10 -3 6 1 10 9 10
    9 0 16 -4 16 -10z"/>
    <path d="M5106 4053 l3 -68 -12 57 c-7 31 -15 59 -18 63 -7 6 -2 -70 7 -112 5
    -24 33 -32 35 -10 3 42 -4 123 -11 130 -4 5 -6 -22 -4 -60z"/>
    <path d="M5150 4113 c0 -5 5 -15 10 -23 l10 -15 0 23 c0 12 -4 22 -10 22 -5 0
    -10 -3 -10 -7z"/>
    <path d="M3075 4100 c-3 -5 -1 -10 4 -10 14 0 14 -83 0 -97 -13 -13 5 -28 24
    -20 18 7 10 137 -8 137 -8 0 -17 -4 -20 -10z"/>
    <path d="M3165 4079 c-8 -36 0 -47 23 -33 36 23 60 -19 27 -46 -12 -10 -18
    -10 -30 0 -17 14 -31 8 -20 -9 12 -20 63 -13 76 10 15 29 -3 69 -31 69 -11 0
    -20 5 -20 10 0 6 11 10 25 10 14 0 25 5 25 10 0 6 -15 10 -34 10 l-34 0 -7
    -31z"/>
    <path d="M4990 4081 c5 -11 10 -45 10 -76 l0 -56 23 3 22 3 3 40 c4 48 -6 105
    -18 105 -6 0 -6 -10 0 -26 13 -33 13 -101 0 -109 -6 -4 -10 13 -10 45 0 52
    -13 90 -31 90 -6 0 -6 -7 1 -19z"/>
    <path d="M4944 4075 c14 -39 19 -122 7 -129 -7 -5 -11 8 -11 41 0 30 -6 57
    -16 69 l-16 19 7 -20 c4 -11 9 -44 12 -73 5 -42 9 -52 22 -50 21 5 23 130 2
    150 l-14 13 7 -20z"/>
    <path d="M5195 4052 c3 -18 2 -33 -4 -37 -7 -3 -11 2 -11 14 0 12 -4 21 -10
    21 -17 0 -11 -50 6 -57 29 -11 50 66 23 83 -8 4 -9 -3 -4 -24z"/>
    <path d="M3682 4048 c-7 -7 -12 -19 -12 -27 0 -11 5 -8 16 7 13 18 19 21 30
    11 20 -16 18 -22 -22 -63 -19 -20 -32 -41 -29 -46 8 -13 72 -13 80 0 4 6 -9
    10 -32 10 l-38 0 38 35 c20 18 37 40 37 47 0 19 -20 38 -40 38 -9 0 -21 -5
    -28 -12z"/>
    <path d="M3787 4053 c-4 -3 -7 -22 -7 -41 l0 -34 15 12 c20 17 45 5 45 -20 0
    -25 -25 -37 -45 -20 l-15 12 0 -15 c0 -21 35 -27 59 -10 36 25 22 83 -21 83
    -10 0 -18 5 -18 10 0 6 11 10 25 10 14 0 25 5 25 10 0 11 -53 14 -63 3z"/>
    <path d="M4860 4041 c13 -25 13 -121 0 -121 -5 0 -10 26 -12 57 -2 31 -8 58
    -13 60 -7 2 -7 -18 -1 -62 l10 -66 21 3 20 3 3 52 c3 52 -10 93 -29 93 -6 0
    -6 -7 1 -19z"/>
    <path d="M3348 3979 c-10 -6 -18 -14 -18 -20 0 -5 9 -4 20 3 15 10 22 10 32 0
    9 -9 4 -20 -26 -51 -44 -46 -41 -61 15 -61 24 0 38 4 34 10 -3 6 -17 10 -31
    10 -31 0 -30 6 7 41 33 31 34 45 3 65 -13 9 -24 10 -36 3z"/>
    <path d="M3447 3983 c-4 -3 -7 -22 -7 -41 l0 -34 15 12 c19 16 45 6 45 -18 0
    -29 -24 -46 -40 -27 -7 8 -16 12 -22 9 -14 -9 12 -34 36 -34 30 0 46 18 46 52
    0 28 -31 55 -50 43 -6 -3 -10 1 -10 9 0 10 9 16 25 16 14 0 25 5 25 10 0 11
    -53 14 -63 3z"/>
    <path d="M3168 3900 c-5 -8 -9 -95 -10 -192 l-3 -178 -91 55 -91 54 -29 -8
    -29 -7 -3 -36 c-2 -27 1 -37 15 -42 31 -12 223 -129 223 -136 0 -4 -35 -15
    -78 -24 l-77 -18 -75 45 c-41 25 -112 67 -158 92 l-84 47 -34 -6 -34 -7 0 -28
    c0 -30 16 -49 70 -78 129 -71 170 -96 175 -103 3 -4 -36 -18 -87 -30 -124 -30
    -191 -50 -185 -56 3 -3 83 15 179 40 96 25 181 46 188 46 36 0 -16 -20 -130
    -49 -69 -18 -155 -41 -192 -51 l-68 -18 -1 36 c-1 20 -4 28 -6 17 -2 -11 -14
    -25 -26 -30 -16 -7 -22 -19 -22 -40 l0 -29 31 -9 32 -9 162 47 162 47 78 -11
    78 -10 104 -57 c125 -70 250 -145 246 -150 -2 -1 -66 -19 -143 -39 -186 -47
    -185 -47 -185 -90 l0 -34 -52 -16 c-59 -17 -127 -35 -333 -91 -147 -40 -151
    -41 -143 -49 5 -5 278 65 408 105 36 11 79 22 95 26 17 4 35 11 41 16 6 4 18
    6 26 3 7 -3 86 13 173 36 88 23 165 42 170 42 6 0 22 -1 38 -1 l27 -2 0 -366
    c0 -274 3 -363 12 -358 8 5 10 98 5 361 l-6 353 32 0 c19 0 62 -17 107 -43
    l75 -43 3 -172 c2 -117 6 -172 14 -172 7 0 8 54 3 190 l-7 190 14 0 c19 0 98
    -57 98 -70 0 -15 -11 -12 -48 10 -37 22 -42 24 -42 11 0 -8 84 -61 96 -61 2 0
    4 14 4 30 0 18 6 33 15 37 21 7 33 -6 16 -16 -7 -5 -10 -14 -7 -20 14 -21 26
    -11 26 22 l0 33 -85 48 -85 47 0 41 0 40 18 -7 c9 -4 40 -9 69 -12 l52 -6 128
    -76 128 -77 5 -120 6 -119 2 135 2 135 -24 1 c-13 1 -48 17 -77 36 -30 19 -93
    56 -141 83 -76 42 -110 75 -78 75 9 0 237 -130 280 -160 16 -12 36 -16 53 -13
    16 3 27 1 27 -6 0 -6 -5 -11 -11 -11 -5 0 -7 -4 -4 -10 13 -20 25 -9 25 23 0
    21 -7 36 -20 45 l-20 12 0 -21 c0 -16 -3 -19 -12 -11 -7 6 -15 10 -18 9 -11
    -2 -294 159 -313 178 -7 7 -33 21 -58 32 -25 11 -72 37 -104 57 -117 73 -472
    276 -483 276 -3 0 3 -9 12 -19 13 -15 14 -20 4 -24 -7 -3 5 -6 27 -7 44 -1 34
    -13 -22 -25 l-33 -7 -2 269 c-2 147 -6 261 -10 253z m-103 -334 c49 -28 91
    -60 93 -69 2 -12 -27 1 -102 44 -98 57 -125 80 -93 79 6 -1 52 -25 102 -54z
    m-14 -38 c75 -43 109 -68 109 -81 l0 -18 -27 16 c-16 9 -66 38 -113 64 -47 27
    -86 56 -88 65 -5 24 0 22 119 -46z m-216 -85 c91 -54 208 -120 259 -148 51
    -27 111 -62 132 -76 22 -14 55 -34 74 -44 44 -22 223 -127 230 -135 3 -3 43
    -24 90 -47 93 -47 138 -78 128 -88 -4 -4 -56 21 -115 55 -59 34 -133 76 -163
    92 -94 52 -402 229 -460 265 -30 19 -100 60 -155 90 -192 107 -205 115 -200
    124 9 13 1 17 180 -88z m-50 -14 c50 -27 101 -59 115 -69 l25 -20 -25 0 c-14
    0 -79 31 -145 68 -95 53 -121 72 -123 91 l-4 24 34 -22 c18 -12 74 -44 123
    -72z m379 -48 c8 -12 -125 -44 -136 -33 -6 6 13 15 49 25 71 18 80 19 87 8z
    m116 -5 c0 -8 -8 -17 -17 -20 -10 -2 -51 -14 -91 -27 -49 -15 -76 -19 -83 -12
    -10 10 28 27 126 56 65 19 65 19 65 3z m58 -14 c15 -10 59 -36 97 -57 189
    -102 326 -189 308 -196 -10 -4 -31 1 -48 11 -16 9 -64 37 -105 62 -41 25 -97
    57 -125 72 -125 69 -175 101 -175 113 0 18 17 16 48 -5z m-38 -32 c0 -13 -11
    -13 -30 0 l-15 10 23 0 c12 0 22 -4 22 -10z m-16 -20 c66 -10 104 -26 221 -97
    28 -16 80 -47 118 -67 37 -20 67 -41 67 -45 0 -5 -24 -15 -52 -21 -29 -7 -59
    -16 -67 -20 -16 -9 -93 30 -281 140 -63 37 -128 74 -145 83 l-30 15 35 10 c46
    13 53 13 134 2z m-310 -30 c-5 -4 -79 -26 -164 -48 -85 -22 -176 -47 -202 -56
    l-48 -15 0 18 c0 12 10 21 28 25 15 3 108 28 207 55 159 43 208 48 179 21z
    m101 -19 c85 -46 272 -154 338 -194 l49 -30 -16 -9 c-12 -7 -33 1 -74 25 -77
    46 -331 192 -359 206 -21 11 -33 41 -15 41 4 0 39 -18 77 -39z m-75 -11 l15
    -10 -15 1 c-8 0 -24 4 -35 9 l-20 9 20 0 c11 0 27 -4 35 -9z m-460 -60 c0 -5
    -4 -10 -10 -10 -5 0 -10 5 -10 10 0 6 5 10 10 10 6 0 10 -4 10 -10z m1255
    -100 c-3 -5 -15 -10 -25 -10 -11 0 -54 -11 -96 -25 -42 -14 -83 -25 -90 -25
    -24 0 -15 20 9 20 12 1 54 12 92 25 74 25 120 32 110 15z m25 -34 c0 -19 -57
    -39 -64 -23 -3 9 -7 8 -15 -2 -16 -25 -82 -39 -110 -25 l-24 12 54 15 c30 8
    70 19 89 25 51 14 70 14 70 -2z m-310 -44 c0 -4 -44 -19 -97 -31 -54 -13 -143
    -37 -198 -52 -109 -31 -124 -34 -110 -20 8 8 246 80 340 104 33 8 65 8 65 -1z
    m323 1 c-7 -2 -21 -2 -30 0 -10 3 -4 5 12 5 17 0 24 -2 18 -5z m-293 -30 c0
    -14 -19 -23 -83 -40 -45 -12 -139 -37 -209 -56 l-128 -35 0 16 c0 13 24 24 98
    44 53 15 144 40 202 56 127 37 120 36 120 15z m210 -8 c0 -30 -15 -31 -54 -6
    l-29 19 19 5 c48 12 64 8 64 -18z m-99 -46 c91 -54 106 -66 97 -74 -7 -8 -50
    12 -128 58 -78 47 -73 43 -65 56 8 14 1 18 96 -40z m-107 12 c4 -5 -3 -7 -14
    -4 -23 6 -26 13 -6 13 8 0 17 -4 20 -9z m296 -71 c51 -28 60 -36 42 -38 -13
    -2 -39 6 -58 17 -19 12 -42 21 -50 21 -8 0 -14 9 -14 21 0 11 3 19 8 17 4 -1
    36 -19 72 -38z m-735 10 c3 -5 -1 -10 -9 -10 -9 0 -16 5 -16 10 0 6 4 10 9 10
    6 0 13 -4 16 -10z"/>
    <path d="M2817 3833 c-15 -14 -6 -22 13 -11 15 10 22 10 31 1 9 -9 4 -21 -24
    -53 -47 -51 -46 -60 3 -60 22 0 40 5 40 10 0 6 -12 10 -26 10 l-26 0 32 36
    c18 21 29 43 26 51 -3 8 -6 17 -6 19 0 7 -56 5 -63 -3z"/>
    <path d="M2920 3804 l0 -36 15 12 c19 16 45 6 45 -18 0 -28 -20 -43 -42 -31
    -11 6 -18 6 -18 0 0 -16 20 -23 45 -17 47 12 41 86 -6 86 -30 0 -22 28 9 33
    l27 4 -37 2 -38 1 0 -36z"/>
    <path d="M2430 3755 c-19 -22 -3 -31 19 -11 l18 17 13 -16 13 -16 -36 -37
    c-47 -49 -47 -52 11 -50 36 1 39 2 15 5 -41 5 -41 13 -3 41 31 24 38 50 18 70
    -17 17 -53 15 -68 -3z"/>
    <path d="M2547 3763 c-4 -3 -7 -19 -7 -34 l0 -28 27 2 c22 2 29 -3 31 -21 4
    -27 -22 -40 -45 -21 l-16 14 5 -15 c6 -19 45 -25 64 -10 32 27 10 80 -34 80
    -13 0 -20 4 -17 10 3 6 17 10 31 10 13 0 24 5 24 10 0 11 -53 14 -63 3z"/>
    <path d="M6935 3735 c10 -9 34 -21 52 -27 18 -7 33 -16 33 -20 0 -12 -16 -10
    -57 7 -20 8 -38 13 -41 11 -2 -3 12 -12 32 -20 20 -8 36 -22 36 -30 0 -19 -13
    -20 -42 -5 -11 6 -22 8 -25 6 -3 -3 14 -15 36 -27 l41 -21 7 16 c4 12 13 15
    29 11 l24 -6 0 30 0 30 -60 30 c-63 32 -99 40 -65 15z"/>
    <path d="M2326 3481 c-3 -5 1 -11 9 -15 18 -7 21 -76 3 -94 -9 -9 -5 -12 18
    -11 16 0 23 3 17 6 -9 3 -13 26 -13 64 0 45 -3 59 -14 59 -8 0 -17 -4 -20 -9z"/>
    <path d="M2427 3483 c-4 -3 -7 -19 -7 -34 l0 -28 30 5 c36 8 52 -18 28 -43
    l-16 -15 -22 12 -22 12 4 -14 c6 -18 46 -23 64 -8 30 25 11 80 -28 80 -10 0
    -18 5 -18 10 0 6 9 10 19 10 11 0 23 5 26 10 7 11 -47 14 -58 3z"/>
    <path d="M6225 3310 c-20 -23 -14 -26 15 -8 15 10 22 10 32 0 9 -9 4 -20 -25
    -50 -20 -21 -37 -43 -37 -50 0 -15 76 -17 85 -2 4 6 -7 10 -24 10 -39 0 -39
    10 -1 38 34 26 39 57 11 72 -27 14 -35 13 -56 -10z"/>
    <path d="M6337 3323 c-4 -3 -7 -22 -7 -41 l0 -34 15 12 c20 17 45 5 45 -20 0
    -26 -25 -36 -46 -19 l-16 13 3 -19 c5 -25 42 -31 63 -10 29 29 16 75 -22 78
    -31 2 -28 27 3 27 14 0 25 5 25 10 0 11 -53 14 -63 3z"/>
    <path d="M5724 3246 c-10 -8 -16 -18 -11 -22 4 -4 13 -2 19 4 7 7 18 12 25 12
    24 0 13 -33 -22 -67 -20 -19 -33 -39 -30 -44 8 -12 85 -12 85 1 0 6 -15 10
    -32 10 l-33 0 33 31 c34 31 40 57 20 77 -16 16 -30 15 -54 -2z"/>
    <path d="M5835 3246 c-38 -28 -18 -126 25 -126 3 0 15 6 25 14 38 28 18 126
    -25 126 -3 0 -15 -6 -25 -14z m43 -18 c31 -31 0 -105 -33 -78 -25 21 -14 90
    15 90 3 0 11 -5 18 -12z"/>
    <path d="M6830 3230 c-10 -6 -11 -10 -2 -10 8 0 12 -17 12 -49 0 -30 -5 -51
    -12 -54 -7 -3 3 -5 22 -5 19 0 29 2 23 5 -9 3 -13 26 -13 64 0 60 -4 66 -30
    49z"/>
    <path d="M6926 3224 c-9 -23 -7 -64 2 -64 4 0 13 5 19 11 15 15 33 3 33 -22 0
    -25 -26 -35 -47 -18 l-16 14 5 -15 c8 -25 65 -25 78 0 15 27 -11 70 -41 70
    -11 0 -17 5 -14 10 3 6 15 10 26 10 10 0 19 5 19 10 0 17 -57 12 -64 -6z"/>
    <path d="M4566 3132 c21 -19 106 -72 115 -72 5 0 9 -4 9 -10 0 -17 -30 -11
    -76 16 -62 37 -66 24 -4 -16 64 -41 70 -73 7 -35 -47 27 -62 31 -52 15 12 -20
    105 -61 105 -47 0 9 9 12 28 9 l28 -4 -4 35 -4 34 -74 42 c-70 39 -100 51 -78
    33z"/>
    <path d="M6440 3101 c0 -6 5 -11 10 -11 14 0 12 -84 -2 -98 -9 -9 -4 -12 23
    -12 19 0 29 4 22 8 -6 4 -13 32 -15 62 -2 43 -7 56 -20 58 -10 2 -18 -1 -18
    -7z"/>
    <path d="M6540 3091 c0 -11 -3 -26 -6 -35 l-6 -16 31 6 c23 5 32 2 37 -11 9
    -23 -21 -54 -38 -37 -17 17 -33 15 -18 -3 20 -24 59 -19 72 11 15 33 1 58 -36
    62 -35 4 -29 25 10 33 l29 7 -37 1 -38 1 0 -19z"/>
    <path d="M4150 3056 c0 -14 5 -26 10 -26 6 0 10 9 10 19 0 11 -4 23 -10 26 -6
    4 -10 -5 -10 -19z"/>
    <path d="M5377 3004 c-15 -15 -6 -24 13 -12 15 10 22 10 31 1 9 -9 4 -22 -24
    -57 -21 -24 -37 -47 -37 -50 0 -3 20 -6 45 -6 25 0 45 5 45 10 0 6 -14 10 -32
    10 l-32 0 33 34 c40 42 39 70 -4 74 -17 2 -34 0 -38 -4z"/>
    <path d="M5486 2988 c-9 -36 -8 -38 24 -31 l30 6 0 -33 0 -32 -30 6 c-36 7
    -41 -11 -5 -20 33 -8 55 11 55 47 0 29 -31 56 -50 44 -6 -3 -10 1 -10 9 0 8
    12 16 28 19 l27 4 -31 2 c-25 1 -33 -4 -38 -21z"/>
    <path d="M5955 2915 c-28 -47 -26 -65 5 -65 10 0 20 -6 23 -12 3 -9 9 -7 20 7
    9 11 11 22 6 23 -5 2 -9 24 -9 48 0 56 -12 56 -45 -1z m25 -20 c0 -16 -6 -25
    -15 -25 -18 0 -19 4 -3 30 16 26 18 25 18 -5z"/>
    <path d="M6050 2920 l0 -40 20 12 21 13 9 -15 c5 -8 10 -17 10 -20 0 -3 -5
    -12 -10 -20 l-9 -15 -21 13 c-25 16 -31 15 -24 -2 16 -42 78 -17 72 29 l-3 30
    -27 3 c-35 4 -38 32 -4 32 14 0 28 5 31 10 4 6 -8 10 -29 10 l-36 0 0 -40z"/>
    <path d="M2345 2740 c-38 -10 -142 -37 -230 -60 -88 -23 -178 -47 -200 -53
    -61 -15 -66 -23 -63 -86 l3 -56 23 -3 c12 -2 22 -10 22 -18 0 -21 19 -18 185
    27 83 22 208 56 278 74 120 31 159 45 127 45 -21 0 -377 -89 -439 -110 -31
    -10 -73 -22 -94 -25 l-38 -7 3 53 3 53 185 48 c431 113 398 103 388 113 -5 5
    -171 -37 -458 -114 -123 -33 -140 -36 -140 -23 0 8 85 32 392 110 81 21 150
    41 154 45 11 11 -24 6 -101 -13z m-447 -199 c-4 -50 -22 -45 -26 6 l-3 43 16
    -6 c12 -5 15 -17 13 -43z"/>
    <path d="M4978 2709 c15 -17 16 -91 0 -107 -9 -9 -5 -12 21 -12 26 0 31 3 23
    13 -6 7 -12 35 -14 62 l-3 50 -20 3 -20 4 13 -13z"/>
    <path d="M5070 2685 l0 -36 21 12 c25 13 43 0 37 -27 -2 -13 -12 -19 -31 -19
    -34 1 -30 -19 6 -23 31 -4 52 27 43 64 -5 17 -13 24 -31 24 -34 0 -32 28 3 33
    l27 4 -37 2 -38 1 0 -35z"/>
    <path d="M4435 2545 l0 -65 30 0 c22 0 26 3 17 12 -7 7 -12 36 -12 65 l0 53
    -17 0 -18 0 0 -65z"/>
    <path d="M4530 2574 l0 -36 15 12 c20 17 45 5 45 -20 0 -25 -25 -37 -44 -21
    -17 14 -29 2 -15 -16 27 -31 84 4 77 49 -2 18 -10 24 -35 26 -20 2 -33 9 -33
    17 0 8 14 15 33 18 l32 4 -37 1 -38 2 0 -36z"/>
    <path d="M4085 2435 l0 -65 23 0 c12 0 22 5 22 10 0 6 -4 10 -10 10 -5 0 -10
    25 -10 55 0 37 -4 55 -12 55 -9 0 -13 -20 -13 -65z"/>
    <path d="M4170 2470 l0 -29 29 5 c34 7 51 -20 27 -44 l-15 -15 -16 13 c-20 17
    -32 5 -15 -15 27 -32 70 -11 70 36 0 31 -23 54 -45 45 -9 -3 -15 0 -15 9 0 7
    12 16 28 18 l27 4 -37 2 -38 1 0 -30z"/>
    <path d="M5763 2435 l-52 -63 -48 -11 c-60 -14 -85 -7 -203 58 -51 28 -96 48
    -101 45 -5 -3 -9 -18 -9 -34 0 -41 -63 -56 -104 -25 -34 26 -46 19 -46 -27 l0
    -43 65 -38 c72 -42 79 -54 38 -63 -61 -12 -71 -21 -75 -64 -4 -43 4 -56 50
    -79 l23 -12 57 17 c33 10 91 18 137 18 l80 0 63 -33 62 -34 83 19 82 20 3 44
    c3 33 -1 47 -14 57 l-18 13 20 0 c24 0 174 139 174 161 0 8 -10 25 -22 36 -33
    29 -161 103 -179 102 -8 0 -37 -29 -66 -64z m135 14 c31 -17 64 -38 72 -46
    l15 -14 -77 -75 c-43 -41 -78 -77 -78 -81 0 -3 14 -3 32 1 26 5 30 4 20 -6 -7
    -7 -29 -12 -50 -13 l-37 0 -3 -34 c-3 -24 3 -40 19 -57 26 -28 27 -27 -27 -42
    -65 -19 -74 -17 -68 17 l6 29 -38 25 -39 24 -90 -4 -90 -4 18 14 18 15 -33 5
    c-18 2 -35 1 -36 -4 -6 -16 -22 2 -22 24 0 57 -20 95 -63 120 l-42 25 28 7
    c21 6 43 1 80 -16 l50 -24 86 0 c47 0 100 4 116 8 l30 8 -12 -12 c-23 -23 -14
    -36 42 -68 59 -33 65 -35 65 -23 0 5 -22 21 -50 36 -27 15 -50 30 -50 33 0 10
    133 163 142 163 5 0 35 -14 66 -31z m-473 -34 c22 -13 63 -35 90 -48 l50 -25
    -45 5 c-60 7 -150 52 -150 75 0 23 7 23 55 -7z m-151 -49 c75 -42 86 -50 86
    -67 0 -29 -11 -27 -76 9 -49 28 -64 42 -64 60 0 27 1 27 54 -2z m696 -50 c-25
    -24 -56 -47 -70 -51 -20 -6 -13 5 35 54 40 41 62 58 69 51 7 -7 -4 -25 -34
    -54z m-580 -78 l0 -37 -42 -11 c-67 -17 -68 -18 -68 -45 0 -14 -4 -25 -8 -25
    -16 0 -32 25 -32 51 0 28 5 31 68 44 41 8 62 29 62 63 0 21 2 24 10 12 5 -8
    10 -32 10 -52z m448 -60 c13 -13 16 -58 4 -58 -15 0 -32 24 -32 47 0 25 10 29
    28 11z m-363 -18 c28 -6 78 -9 111 -6 l61 6 23 -18 c15 -12 21 -26 18 -46 l-3
    -28 -37 26 c-70 47 -153 57 -263 31 -78 -19 -77 -19 -73 12 5 43 47 49 163 23z"/>
    <path d="M5472 2310 l-23 -10 3 -37 3 -37 33 -10 c43 -12 78 4 85 41 3 16 0
    33 -6 40 -17 18 -68 24 -95 13z m73 -19 c6 -11 -22 -19 -47 -13 -10 2 -18 8
    -18 13 0 12 57 12 65 0z m-51 -52 c-8 -13 -24 -1 -24 18 l0 15 15 -12 c8 -7
    12 -16 9 -21z m56 12 c0 -14 -18 -23 -31 -15 -8 4 -7 9 2 15 18 11 29 11 29 0z"/>
    <path d="M5656 2241 c-5 -8 -18 -10 -33 -6 -18 4 -24 2 -21 -7 6 -16 38 -21
    57 -9 7 5 11 15 9 22 l-4 13 -8 -13z"/>
    <path d="M5710 2160 c20 -13 57 -13 65 0 4 6 -11 10 -37 10 -31 0 -39 -3 -28
    -10z"/>
    <path d="M3680 2390 c0 -5 5 -10 10 -10 15 0 13 -97 -2 -103 -7 -3 0 -6 16 -6
    22 -1 27 3 22 15 -3 9 -6 38 -6 65 l0 49 -20 0 c-11 0 -20 -4 -20 -10z"/>
    <path d="M3780 2365 l0 -34 30 6 30 6 0 -28 0 -27 -30 4 c-19 3 -29 1 -27 -6
    2 -6 17 -11 33 -11 22 0 31 6 38 27 11 31 -5 58 -35 58 -11 0 -19 5 -19 10 0
    6 11 10 25 10 14 0 25 5 25 10 0 6 -16 10 -35 10 l-35 0 0 -35z"/>
    <path d="M1810 2350 c-10 -6 -11 -10 -2 -10 15 0 17 -86 2 -95 -19 -12 -10
    -25 16 -25 l26 0 -6 23 c-3 12 -6 43 -6 70 0 48 -4 54 -30 37z"/>
    <path d="M1900 2334 c-15 -39 -13 -44 22 -42 l33 3 3 -23 4 -24 -29 2 c-44 3
    -49 0 -29 -15 25 -19 41 -19 60 1 27 27 20 64 -14 77 -36 14 -39 27 -5 27 14
    0 25 5 25 10 0 6 -14 10 -30 10 -24 0 -33 -6 -40 -26z"/>
    <path d="M3516 2163 c-3 -4 -6 -21 -6 -39 0 -45 -12 -49 -69 -20 l-49 25 -6
    -16 c-12 -30 5 -80 30 -92 28 -12 31 -29 7 -37 -10 -3 -37 -14 -60 -24 l-42
    -19 6 -38 c5 -40 34 -73 63 -73 9 0 53 11 96 25 110 35 171 33 245 -6 l59 -32
    67 25 67 25 -3 44 c-1 25 -9 48 -17 52 -24 14 -15 24 34 37 64 18 68 22 64 75
    l-4 47 -24 -6 c-18 -5 -24 -2 -24 9 0 24 -81 1 -128 -35 -18 -15 -40 -20 -86
    -20 l-61 0 -35 29 c-43 35 -115 72 -124 64z m52 -37 c15 -8 44 -28 66 -45 l39
    -31 61 0 61 0 37 25 c41 28 106 46 94 27 -4 -7 -14 -12 -22 -12 -8 0 -17 -6
    -20 -14 -14 -36 -197 -55 -231 -23 -11 9 -35 17 -55 17 -54 0 -68 9 -68 41 0
    33 2 34 38 15z m-98 -65 c0 -3 -4 -12 -9 -20 l-10 -15 -25 12 c-18 8 -26 19
    -26 37 l0 25 35 -17 c19 -9 35 -19 35 -22z m520 0 l0 -28 -27 -7 c-16 -3 -38
    -8 -50 -12 l-22 -6 8 28 c14 53 91 74 91 25z m-458 -29 c-4 -38 12 -62 40 -62
    11 0 16 -4 12 -11 -3 -6 -15 -9 -25 -6 -22 6 -26 -8 -4 -17 20 -7 45 3 45 19
    0 8 10 15 23 17 12 2 26 13 31 25 l10 21 80 4 c45 3 90 8 101 13 l20 8 -19
    -21 c-10 -12 -21 -41 -23 -64 l-5 -43 38 -19 39 -19 -35 -13 c-53 -19 -60 -17
    -60 15 0 19 -8 35 -20 44 l-21 15 26 6 c14 4 25 14 25 22 l0 16 -15 -12 c-8
    -7 -22 -10 -30 -6 -9 3 -15 0 -15 -8 0 -9 -7 -12 -18 -9 -10 2 -31 -3 -47 -11
    -36 -19 -135 -21 -157 -3 -10 7 -18 36 -22 75 l-7 64 18 -4 c14 -3 17 -11 15
    -36z m98 8 c-20 -13 -57 -13 -65 0 -4 6 11 10 37 10 31 0 39 -3 28 -10z m-144
    -78 c-16 -16 -26 17 -14 44 l13 29 3 -34 c2 -18 1 -36 -2 -39z m102 40 c3 -9
    -2 -13 -14 -10 -9 1 -19 9 -22 16 -3 9 2 13 14 10 9 -1 19 -9 22 -16z m50 6
    c-6 -18 -28 -21 -28 -4 0 9 7 16 16 16 9 0 14 -5 12 -12z m242 -53 c29 -15 43
    -55 20 -55 -21 0 -70 31 -70 44 0 28 12 31 50 11z m-434 -4 c-3 -4 -19 -11
    -36 -14 -21 -5 -30 -12 -30 -27 0 -11 -7 -20 -15 -20 -31 0 -17 46 18 58 41
    13 70 15 63 3z m79 -36 l50 -24 -27 -1 c-14 0 -54 -9 -87 -19 l-61 -19 0 33 0
    33 38 10 c20 5 37 10 37 11 0 0 23 -10 50 -24z m230 3 c18 -8 25 -19 25 -40 0
    -33 -1 -33 -43 -11 -18 9 -45 19 -62 23 l-30 6 30 16 c38 20 48 21 80 6z"/>
    <path d="M3698 1993 c-16 -2 -28 -9 -28 -14 0 -15 63 -6 68 9 2 6 0 11 -5 11
    -4 -1 -20 -4 -35 -6z"/>
    <path d="M5611 1874 c-33 -53 -32 -64 5 -64 15 0 24 -6 24 -15 0 -21 20 -19
    21 3 3 39 -3 108 -11 116 -5 5 -22 -13 -39 -40z m29 -14 c0 -20 -5 -30 -15
    -30 -18 0 -18 2 -3 35 15 32 18 32 18 -5z"/>
    <path d="M5711 1904 c-24 -17 -30 -91 -9 -112 32 -32 78 1 78 56 0 59 -30 83
    -69 56z m49 -29 c12 -31 -3 -75 -25 -75 -8 0 -17 11 -21 25 -8 34 3 75 21 75
    9 0 20 -11 25 -25z"/>
    <path d="M3705 1720 c-11 -18 3 -24 20 -10 13 10 18 11 28 1 9 -10 7 -17 -12
    -32 -16 -13 -18 -19 -8 -19 25 0 40 -25 23 -39 -11 -10 -20 -10 -37 -1 l-21
    12 4 -14 c3 -7 19 -13 39 -13 l34 0 0 60 0 60 -32 3 c-17 2 -34 -2 -38 -8z"/>
    <path d="M3816 1714 c-3 -9 -6 -24 -6 -35 l0 -18 30 6 30 6 0 -26 c0 -31 -16
    -43 -36 -26 -8 6 -18 9 -21 5 -9 -9 16 -26 39 -26 20 0 48 26 48 46 0 23 -38
    54 -56 47 -12 -4 -15 -2 -12 8 3 8 18 17 34 20 l29 7 -36 1 c-25 1 -39 -4 -43
    -15z"/>
    </g>
  </g>
  <g id="labels" font-family="Helvetica, Arial, sans-serif" fill="#111" font-size="14" text-rendering="geometricPrecision" opacity="0" pointer-events="none">
      <a id="pos-15" href="#pos-15"><text data-pos="15" x="693" y="324" text-anchor="middle" dominant-baseline="middle" font-size="12" font-weight="600">15</text></a>
      <a id="pos-20" href="#pos-20"><text data-pos="20" x="580" y="318" text-anchor="middle" dominant-baseline="middle" font-size="12" font-weight="600">20</text></a>
      <a id="pos-25" href="#pos-25"><text data-pos="25" x="628" y="314" text-anchor="middle" dominant-baseline="middle" font-size="12" font-weight="600">25</text></a>
      <a id="pos-30" href="#pos-30"><text data-pos="30" x="697" y="186" text-anchor="middle" dominant-baseline="middle" font-size="12" font-weight="600">30</text></a>
      <a id="pos-35" href="#pos-35"><text data-pos="35" x="379" y="473" text-anchor="middle" dominant-baseline="middle" font-size="12" font-weight="600">35</text></a>
      <a id="pos-40" href="#pos-40"><text data-pos="40" x="569" y="454" text-anchor="middle" dominant-baseline="middle" font-size="12" font-weight="600">40</text></a>
      <a id="pos-45" href="#pos-45"><text data-pos="45" x="596" y="351" text-anchor="middle" dominant-baseline="middle" font-size="12" font-weight="600">45</text></a>
      <a id="pos-50" href="#pos-50"><text data-pos="50" x="569" y="93" text-anchor="middle" dominant-baseline="middle" font-size="12" font-weight="600">50</text></a>
      <a id="pos-60" href="#pos-60"><text data-pos="60" x="520" y="106" text-anchor="middle" dominant-baseline="middle" font-size="12" font-weight="600">60</text></a>
      <a id="pos-70" href="#pos-70"><text data-pos="70" x="774" y="82" text-anchor="middle" dominant-baseline="middle" font-size="12" font-weight="600">70</text></a>
      <a id="pos-75" href="#pos-75"><text data-pos="75" x="696" y="67" text-anchor="middle" dominant-baseline="middle" font-size="12" font-weight="600">75</text></a>
      <a id="pos-80" href="#pos-80"><text data-pos="80" x="606" y="563" text-anchor="middle" dominant-baseline="middle" font-size="12" font-weight="600">80</text></a>
      <a id="pos-85" href="#pos-85"><text data-pos="85" x="711" y="529" text-anchor="middle" dominant-baseline="middle" font-size="12" font-weight="600">85</text></a>
  </g>
</svg>
