<svg xmlns="http://www.w3.org/2000/svg" width="960" height="640" viewBox="0 0 960 640" role="img" aria-labelledby="title desc">
  <title id="title">Mercedes parts diagram: group-013</title>
  <desc id="desc">Mercedes parts diagram: group-013</desc>
  <g id="art">
    <metadata>
    Created by potrace 1.16, written by Peter Selinger 2001-2019
    </metadata>
    <g transform="translate(0.000000,640.000000) scale(0.100000,-0.100000)"
    fill="#000000" stroke="none">
    <path d="M5820 6301 c-100 -57 -205 -118 -315 -181 -243 -138 -484 -276 -535
    -306 -112 -66 -518 -299 -616 -354 -56 -30 -108 -61 -115 -67 -8 -6 -50 -31
    -94 -56 -91 -50 -212 -120 -433 -248 -84 -49 -160 -89 -168 -89 -9 0 -43 7
    -76 16 -95 24 -102 10 -9 -19 l84 -26 56 33 c31 19 79 46 106 61 53 29 243
    140 362 212 40 23 75 43 77 43 2 0 51 28 108 61 57 34 137 80 178 103 41 23
    136 78 210 121 199 116 383 221 485 278 50 27 101 58 115 67 14 9 50 30 80 47
    66 36 229 129 400 229 69 40 133 76 143 80 l17 6 0 -206 c0 -131 4 -206 10
    -206 6 0 10 80 10 220 0 121 -3 220 -7 220 -5 -1 -37 -18 -73 -39z"/>
    <path d="M5100 6209 l0 -41 15 12 c18 15 45 6 45 -13 0 -25 -28 -41 -45 -27
    -17 14 -31 8 -20 -9 9 -15 58 -14 73 1 29 29 7 78 -35 78 -13 0 -23 5 -23 10
    0 6 11 10 24 10 14 0 28 5 31 10 4 6 -8 10 -29 10 l-36 0 0 -41z"/>
    <path d="M5207 6244 c-15 -16 -6 -24 14 -13 17 8 23 8 30 -2 10 -16 2 -29 -17
    -29 -21 0 -17 -18 6 -25 11 -3 20 -13 20 -21 0 -21 -27 -29 -47 -13 l-16 14 5
    -15 c2 -8 18 -16 35 -18 37 -4 44 12 35 78 l-7 45 -25 3 c-14 2 -29 0 -33 -4z"/>
    <path d="M4940 6120 c-27 -6 -37 -32 -39 -99 -1 -25 -7 -52 -15 -60 -26 -28
    -27 -69 -3 -86 25 -17 128 -21 158 -5 26 15 26 74 -1 93 l-19 13 5 48 c10 78
    -21 112 -86 96z m55 -20 c4 -6 -8 -10 -30 -10 -22 0 -34 4 -30 10 3 6 17 10
    30 10 13 0 27 -4 30 -10z m5 -90 l0 -70 -24 0 c-49 0 -56 8 -56 70 l0 59 38 4
    c20 2 38 4 40 5 1 1 2 -29 2 -68z m-86 -75 c7 -20 79 -20 96 0 10 12 16 13 24
    5 17 -17 -12 -30 -69 -30 -47 0 -75 12 -75 32 0 14 18 9 24 -7z m86 -40 c43 5
    52 4 43 -5 -26 -28 -153 -20 -153 10 0 6 10 6 28 -1 15 -6 50 -8 82 -4z"/>
    <path d="M8720 6081 c-30 -16 -80 -31 -110 -34 -60 -7 -21 12 -832 -391 l-498
    -247 -45 -45 c-52 -53 -114 -172 -118 -229 -2 -22 3 -110 10 -195 26 -322 43
    -698 49 -1075 3 -214 10 -403 15 -420 12 -37 12 -324 -1 -362 -5 -15 -14 -149
    -20 -298 -6 -148 -15 -315 -21 -370 -15 -155 -48 -480 -59 -580 -14 -127 -15
    -120 35 -139 25 -10 45 -24 45 -31 0 -7 7 -15 15 -19 20 -7 45 3 45 19 0 7 48
    41 108 75 59 34 168 98 242 141 74 43 173 100 220 125 47 26 113 64 147 85 34
    22 65 39 69 39 5 0 76 41 329 190 44 26 112 64 150 85 39 21 102 57 140 81 39
    23 80 43 90 45 l19 4 13 90 c7 50 22 155 34 235 11 80 26 185 33 234 l11 90
    31 8 c46 12 52 25 55 115 3 85 -4 106 -43 119 l-21 6 7 88 c5 63 3 91 -5 96
    -16 10 -3 202 17 231 9 15 17 78 25 198 l11 176 -16 40 -16 39 0 434 0 434 30
    6 c40 7 44 20 35 122 l-7 86 -33 14 c-42 17 -43 18 -50 204 -13 337 -25 484
    -43 498 -22 17 -29 15 -92 -17z m67 3 c-15 -16 9 -3 -860 -443 -372 -188 -683
    -341 -690 -338 -6 2 150 85 348 185 452 226 904 455 1060 536 107 56 161 79
    142 60z m32 -181 c6 -87 14 -184 17 -215 l6 -58 -19 -6 c-10 -3 -29 -11 -43
    -19 -14 -7 -133 -69 -265 -137 -442 -230 -548 -285 -850 -438 -165 -84 -319
    -163 -341 -176 l-42 -24 -6 22 c-3 13 -6 48 -6 78 0 30 -4 73 -9 95 -5 22 -12
    88 -16 146 l-7 106 394 198 c216 109 564 285 773 391 209 106 385 193 391 194
    7 0 15 -55 23 -157z m-429 8 c-129 -65 -442 -222 -694 -350 -252 -127 -461
    -230 -463 -228 -17 18 146 107 691 377 683 338 641 318 676 319 14 1 -81 -52
    -210 -118z m417 -376 c-5 -12 -136 -82 -582 -310 -115 -59 -232 -120 -260
    -135 -27 -15 -189 -98 -358 -184 l-308 -157 3 37 3 38 365 189 c201 103 466
    240 590 304 124 63 266 137 315 163 50 27 122 64 160 84 l70 36 3 -26 c2 -14
    1 -32 -1 -39z m41 -105 l3 -83 -13 10 c-16 13 -56 -1 -64 -22 -4 -8 -3 -49 1
    -90 l7 -74 36 -3 37 -3 3 -98 c2 -64 -1 -96 -7 -92 -6 3 -63 -22 -128 -56 -65
    -34 -149 -79 -188 -99 -399 -209 -1037 -542 -1101 -575 -45 -22 -89 -46 -98
    -54 -20 -17 -23 -111 -3 -111 10 0 173 84 657 338 69 36 184 95 255 132 72 37
    238 124 369 193 132 70 241 126 242 124 1 -1 4 -130 6 -287 l3 -284 -70 -39
    c-97 -53 -392 -211 -500 -267 -87 -46 -272 -144 -460 -245 -49 -27 -184 -99
    -300 -161 l-210 -113 -7 322 c-3 177 -11 423 -17 547 -15 303 -20 440 -14 413
    2 -13 7 -23 10 -23 4 0 302 152 598 305 77 40 232 120 345 178 442 226 565
    290 575 298 21 20 30 -2 33 -81z m66 -59 c3 -5 -5 -11 -19 -13 -17 -4 -25 -1
    -25 8 0 15 36 19 44 5z m-84 -31 c0 -5 -7 -10 -15 -10 -11 0 -15 -18 -18 -77
    l-3 -78 -2 82 c-1 57 2 83 11 86 20 9 27 8 27 -3z m100 -34 c0 -8 -10 -16 -22
    -18 l-23 -3 -3 -37 -3 -38 25 0 c14 0 26 -4 26 -9 0 -14 -53 -23 -84 -15 l-26
    6 0 59 0 58 48 4 c26 2 50 4 55 5 4 1 7 -4 7 -12z m-1721 -216 c6 -102 18
    -273 26 -380 16 -216 35 -806 35 -1084 l0 -178 -22 6 c-13 3 -29 6 -35 6 -10
    0 -13 42 -13 178 0 217 -26 913 -41 1109 -6 78 -11 208 -12 290 l-2 148 23 49
    c12 27 24 47 26 45 2 -2 9 -87 15 -189z m35 -85 c9 -132 16 -262 15 -290 l-2
    -50 -7 80 c-7 71 -21 258 -35 470 -3 46 -2 63 4 50 5 -11 16 -128 25 -260z
    m1684 243 c-5 -32 -28 -35 -28 -4 0 17 5 26 16 26 10 0 14 -7 12 -22z m-88
    -331 l0 -33 -37 -21 c-62 -34 -180 -96 -318 -168 -262 -136 -802 -419 -855
    -447 -185 -100 -277 -148 -283 -148 -4 0 -7 17 -7 38 l0 38 172 90 c167 86
    319 166 483 253 44 24 148 78 230 121 196 101 399 207 505 264 102 55 110 56
    110 13z m-1545 -997 l7 -445 15 -53 16 -53 -6 -167 c-4 -111 -11 -180 -21
    -207 -16 -42 -23 -250 -8 -259 7 -4 2 -73 -32 -466 -20 -219 -63 -591 -71
    -598 -8 -8 -6 7 16 203 11 99 24 239 29 310 5 72 12 143 15 159 17 98 35 378
    24 397 -13 25 -3 233 13 263 5 10 14 95 19 189 l9 171 -14 31 c-10 23 -15 120
    -20 430 -3 220 -8 452 -11 515 -3 85 -2 103 5 70 5 -25 12 -245 15 -490z
    m1585 346 c0 -2 3 -11 6 -19 5 -15 -48 -52 -166 -113 -30 -15 -104 -56 -165
    -90 -60 -34 -132 -72 -159 -84 -28 -12 -61 -30 -75 -40 -14 -9 -96 -55 -181
    -100 -85 -46 -195 -105 -245 -133 -49 -28 -121 -67 -160 -87 -38 -20 -138 -73
    -221 -118 -160 -88 -169 -91 -178 -66 -13 33 -4 42 77 82 45 23 89 46 97 52 8
    5 76 42 150 81 74 40 189 101 255 137 122 65 202 108 425 225 69 36 213 113
    320 171 174 95 220 116 220 102z m6 -213 c-10 -196 -12 -203 -106 -257 -125
    -71 -475 -264 -645 -356 -38 -20 -115 -62 -170 -92 -55 -30 -172 -95 -260
    -143 -191 -105 -358 -194 -365 -195 -12 0 10 354 22 366 7 6 78 47 158 89 156
    84 315 169 475 257 55 30 222 120 370 200 149 80 324 175 390 212 66 36 124
    66 129 66 5 0 6 -63 2 -147z m-47 -328 c-2 -42 -6 -79 -9 -84 -5 -9 -222 -133
    -430 -246 -69 -37 -174 -96 -235 -130 -60 -34 -135 -76 -165 -92 -30 -17 -127
    -71 -215 -120 -88 -49 -187 -104 -220 -123 -33 -18 -104 -57 -158 -88 -54 -30
    -100 -52 -103 -49 -3 3 -3 44 1 91 l7 85 132 72 c72 40 165 91 206 114 41 23
    107 59 145 80 39 21 140 76 225 123 85 47 193 105 240 130 47 24 110 59 140
    77 30 18 87 49 125 69 39 21 122 66 185 101 63 36 119 65 123 65 5 0 7 -34 6
    -75z m4 -122 c8 -7 -32 -31 -473 -275 -179 -99 -370 -206 -425 -237 -55 -31
    -117 -65 -137 -76 -70 -38 -213 -118 -293 -165 -130 -75 -193 -105 -202 -96
    -11 10 16 29 112 78 44 22 85 44 90 48 12 10 478 270 625 350 58 31 155 85
    215 120 61 34 151 84 200 111 50 26 128 70 175 98 86 50 101 56 113 44z m1
    -136 c-4 -51 -11 -96 -17 -102 -7 -7 -8 -6 -3 3 12 21 -24 26 -44 6 -13 -14
    -19 -42 -24 -103 l-6 -83 19 5 c45 12 46 2 12 -265 -36 -287 -48 -366 -50
    -325 -1 37 -16 35 -102 -16 -41 -24 -139 -81 -219 -127 -161 -91 -275 -158
    -425 -245 -55 -33 -147 -86 -205 -119 -58 -32 -150 -85 -205 -117 -55 -32
    -138 -79 -185 -105 -47 -26 -102 -57 -123 -71 l-37 -23 6 57 c3 32 12 96 19
    143 8 47 19 150 25 230 6 80 18 226 26 325 l15 180 22 18 c12 10 45 29 72 44
    28 14 95 51 150 83 55 31 177 99 270 150 94 51 220 121 280 155 61 34 173 97
    250 140 77 43 178 99 225 125 47 26 121 68 165 92 44 25 84 43 88 41 4 -3 5
    -46 1 -96z m-1579 -43 c9 -9 14 -18 12 -20 -6 -7 -54 13 -62 25 -10 17 32 13
    50 -5z m1643 -55 l5 -14 -14 13 c-7 6 -21 12 -31 12 -18 0 -24 11 -11 23 8 9
    46 -16 51 -34z m-1615 4 c4 -2 6 -48 5 -101 l-2 -97 -3 77 -4 77 -20 6 c-33
    11 -40 -7 -37 -91 l3 -79 28 -3 27 -3 0 -28 c0 -38 -8 -43 -41 -25 l-29 15 0
    135 0 136 33 -7 c17 -4 35 -9 40 -12z m1590 -20 c-7 -2 -19 -2 -25 0 -7 3 -2
    5 12 5 14 0 19 -2 13 -5z m-106 -70 c-3 -10 -5 -2 -5 17 0 19 2 27 5 18 2 -10
    2 -26 0 -35z m128 37 c-3 -5 -12 -10 -20 -10 -14 0 -25 -21 -25 -51 0 -13 7
    -19 21 -19 45 0 10 -25 -39 -28 l-52 -3 0 45 c0 70 5 76 67 76 33 0 52 -4 48
    -10z m-1640 -97 c-3 -24 -10 -43 -14 -43 -8 0 -3 106 7 130 9 24 15 -37 7 -87z
    m1635 53 c0 -8 -4 -18 -10 -21 -5 -3 -10 3 -10 14 0 12 5 21 10 21 6 0 10 -6
    10 -14z m-1635 -196 c29 -11 29 -37 0 -32 -37 7 -66 22 -60 32 8 13 27 13 60
    0z m0 -52 c2 -2 -2 -63 -8 -137 -7 -95 -7 -138 0 -150 8 -12 8 -55 2 -142 -27
    -363 -78 -879 -88 -891 -3 -4 -21 0 -38 7 l-33 14 0 33 c1 18 5 65 10 103 40
    295 80 811 80 1041 0 72 3 133 6 136 5 5 62 -7 69 -14z m1445 -455 l-1 -28
    -107 -60 c-59 -33 -143 -80 -187 -103 -44 -24 -87 -50 -95 -57 -8 -7 -51 -32
    -95 -55 -44 -24 -96 -53 -116 -66 -20 -12 -87 -51 -150 -87 -213 -120 -332
    -188 -564 -325 -153 -90 -155 -91 -155 -59 0 31 30 55 145 117 44 24 123 69
    176 102 54 32 100 58 103 58 3 0 56 30 118 66 128 75 177 103 403 234 88 51
    194 112 235 135 41 24 118 68 170 99 109 64 120 66 120 29z"/>
    <path d="M7387 3188 c-10 -7 -19 -26 -20 -43 -3 -43 27 -46 48 -4 l17 31 -14
    14 -14 14 -17 -12z m4 -51 c-8 -8 -11 -7 -11 4 0 20 13 34 18 19 3 -7 -1 -17
    -7 -23z"/>
    <path d="M824 5985 c-4 -8 -3 -22 0 -31 3 -8 1 -24 -5 -35 -15 -29 6 -51 45
    -47 l31 3 0 50 c1 28 -1 56 -3 63 -6 17 -61 15 -68 -3z m51 -15 c0 -22 -29
    -18 -33 3 -3 14 1 18 15 15 10 -2 18 -10 18 -18z m0 -66 c0 -10 -8 -20 -18
    -22 -22 -4 -35 27 -16 39 20 12 34 5 34 -17z"/>
    <path d="M940 5990 c0 -5 5 -10 10 -10 15 0 13 -97 -2 -103 -7 -3 0 -6 17 -6
    22 -1 26 2 17 11 -7 7 -12 36 -12 65 0 40 -4 53 -15 53 -8 0 -15 -4 -15 -10z"/>
    <path d="M2386 5958 c-33 -47 -13 -108 34 -108 23 0 31 5 36 25 8 31 -10 55
    -42 55 -17 0 -22 4 -18 15 4 8 17 15 31 15 13 0 21 4 18 10 -11 17 -43 11 -59
    -12z m54 -68 c0 -24 -26 -38 -42 -22 -16 16 -2 42 22 42 13 0 20 -7 20 -20z"/>
    <path d="M2490 5965 c-7 -9 -9 -19 -5 -23 4 -4 10 -1 12 6 6 17 43 15 43 -3 0
    -8 -16 -30 -35 -49 -19 -20 -35 -38 -35 -41 0 -3 21 -4 48 -4 l47 2 -33 6 -34
    6 31 29 c33 32 39 54 19 74 -17 17 -43 15 -58 -3z"/>
    <path d="M1480 5950 c-47 -47 -5 -139 49 -110 39 20 16 92 -25 76 -11 -4 -14
    -1 -12 12 2 9 13 18 26 20 12 2 22 8 22 13 0 16 -40 9 -60 -11z m55 -75 c0
    -23 -34 -33 -45 -14 -13 20 1 40 24 37 13 -2 21 -10 21 -23z"/>
    <path d="M1570 5960 c0 -5 14 -10 30 -10 34 0 35 -1 16 -38 -21 -41 -28 -72
    -18 -72 8 0 62 110 62 126 0 2 -20 4 -45 4 -25 0 -45 -4 -45 -10z"/>
    <path d="M6195 5850 c-20 -23 -14 -26 15 -8 15 10 22 10 31 1 9 -9 4 -21 -24
    -53 -47 -51 -46 -60 3 -60 22 0 40 5 40 10 0 6 -11 10 -25 10 -14 0 -25 4 -25
    9 0 5 11 16 25 25 41 27 31 86 -14 86 -4 0 -16 -9 -26 -20z"/>
    <path d="M6317 5858 c-55 -43 -25 -146 36 -122 42 16 25 90 -19 81 -19 -3 -24
    -1 -20 10 3 8 6 17 6 19 0 2 12 4 26 4 14 0 23 4 19 10 -8 14 -28 13 -48 -2z
    m41 -86 c3 -16 -2 -22 -17 -22 -24 0 -35 15 -27 36 9 23 40 13 44 -14z"/>
    <path d="M6414 5855 l-19 -15 33 6 32 7 0 -18 c0 -9 -9 -19 -20 -22 -11 -3
    -20 -9 -20 -13 0 -4 9 -10 20 -13 11 -3 20 -13 20 -22 l0 -17 -37 6 -38 6 19
    -15 c23 -18 31 -18 56 -5 l19 10 -3 51 c-5 65 -25 82 -62 54z"/>
    <path d="M867 5789 c-59 -34 -62 -188 -4 -189 7 0 22 -3 34 -6 14 -4 28 1 41
    14 l19 19 78 -22 c88 -26 102 -24 112 13 9 39 -7 54 -90 79 l-77 24 0 24 c0
    41 -71 68 -113 44z m43 -19 c0 -5 -9 -10 -21 -10 -11 0 -17 5 -14 10 3 6 13
    10 21 10 8 0 14 -4 14 -10z m58 -27 c2 -9 -7 -13 -27 -13 -18 0 -34 -7 -40
    -17 l-10 -18 -1 17 c0 34 67 61 78 31z m-88 -17 c-2 -27 -26 -65 -37 -58 -19
    12 3 83 22 75 8 -3 15 -10 15 -17z m51 -47 l-10 -24 0 26 c-1 14 2 29 6 33 12
    12 14 -9 4 -35z m43 -3 c-7 -30 -24 -35 -24 -8 0 18 20 45 27 38 2 -2 1 -15
    -3 -30z m-63 -33 c23 -6 25 -21 3 -30 -21 -8 -34 14 -32 52 l1 30 4 -24 c3
    -13 13 -26 24 -28z m105 31 c-3 -9 -6 -22 -6 -30 0 -8 -4 -14 -10 -14 -11 0
    -14 43 -3 53 12 13 25 7 19 -9z m38 -28 c-7 -29 -19 -34 -28 -11 -5 14 22 51
    31 42 2 -3 1 -16 -3 -31z m49 -6 c-6 -22 -21 -35 -30 -27 -2 3 -2 15 2 26 8
    28 35 28 28 1z m27 -15 c0 -14 -4 -25 -10 -25 -11 0 -14 33 -3 43 11 11 13 8
    13 -18z m-265 5 c3 -5 2 -10 -4 -10 -5 0 -13 5 -16 10 -3 6 -2 10 4 10 5 0 13
    -4 16 -10z"/>
    <path d="M3667 5793 c-4 -3 -7 -19 -7 -34 l0 -28 30 6 30 6 0 -26 c0 -28 -26
    -43 -46 -26 -11 9 -14 8 -14 -4 0 -31 42 -32 67 -2 l24 27 -14 22 c-8 11 -24
    21 -36 20 -12 0 -21 5 -21 13 0 7 11 13 25 13 14 0 25 5 25 10 0 11 -53 14
    -63 3z"/>
    <path d="M3770 5780 c-8 -16 -8 -25 0 -35 7 -9 8 -15 0 -20 -17 -11 -11 -44
    10 -55 39 -21 85 18 63 52 -4 7 -8 27 -8 43 l0 30 -27 3 c-19 2 -30 -3 -38
    -18z m50 -13 c0 -19 -10 -27 -26 -20 -21 8 -17 33 6 33 11 0 20 -6 20 -13z
    m-6 -43 c21 -8 20 -30 -1 -38 -21 -8 -38 8 -30 28 7 18 9 18 31 10z"/>
    <path d="M5855 5710 c-65 -37 -121 -72 -123 -78 -3 -11 80 -42 115 -42 28 0
    80 25 172 84 36 23 75 46 85 49 11 5 16 11 10 16 -9 9 -116 42 -131 40 -4 0
    -62 -31 -128 -69z m191 37 l42 -12 -113 -68 -114 -68 -46 12 c-25 6 -44 16
    -43 21 5 13 200 128 218 128 8 0 34 -6 56 -13z"/>
    <path d="M6006 5741 c-3 -5 -16 -7 -28 -3 -14 3 -19 2 -14 -6 9 -14 52 -16 61
    -3 3 5 1 12 -4 15 -5 4 -12 2 -15 -3z"/>
    <path d="M5815 5650 c-8 -13 -6 -16 20 -24 25 -7 50 8 40 23 -5 8 -11 9 -19 2
    -9 -7 -16 -7 -23 0 -8 8 -13 7 -18 -1z"/>
    <path d="M2241 5724 l-175 -44 -80 -78 c-81 -79 -198 -158 -215 -147 -5 3 -58
    18 -118 34 -59 16 -141 39 -182 51 -41 11 -80 19 -88 16 -7 -3 -13 1 -13 10 0
    8 5 12 10 9 6 -3 10 0 10 8 0 8 38 37 85 65 l85 50 0 -32 0 -33 -51 -27 c-61
    -34 -58 -47 4 -16 56 28 83 22 36 -8 -42 -27 -16 -29 29 -2 38 23 39 26 11 49
    l-21 17 7 33 c4 17 15 37 26 44 24 15 24 24 -1 32 -18 6 -153 -59 -222 -107
    -15 -10 -45 -29 -68 -42 l-42 -24 -29 15 c-16 8 -39 13 -51 11 -18 -3 -13 -7
    22 -17 l44 -13 -57 -35 -57 -36 0 -68 0 -69 26 -6 c29 -7 55 3 128 50 28 18
    80 49 116 69 l65 35 146 -37 146 -37 -125 -59 c-81 -39 -127 -67 -132 -80 -31
    -83 -43 -265 -17 -265 9 0 18 27 26 76 l12 75 37 16 c128 56 267 126 306 152
    24 17 52 31 61 31 24 0 379 -91 388 -100 5 -4 -39 -30 -96 -58 l-104 -51 -7
    -43 c-4 -24 -11 -60 -17 -81 l-10 -38 -32 6 c-18 4 -45 2 -60 -4 l-27 -11 0
    -38 0 -38 -127 -33 -128 -33 -67 12 c-38 7 -68 16 -68 21 0 16 103 90 117 84
    8 -3 21 -5 29 -5 10 0 14 -13 14 -46 0 -27 4 -43 10 -39 14 9 12 89 -2 103
    -25 25 -71 13 -129 -33 -62 -49 -68 -63 -60 -145 l6 -54 78 -14 77 -14 68 20
    c37 12 105 30 152 42 106 27 110 31 110 94 0 58 -6 70 -37 80 -49 15 -7 43 46
    31 l29 -6 4 -45 c2 -34 0 -44 -12 -44 l-15 0 14 -9 c27 -17 38 0 51 73 l12 73
    62 26 c34 15 119 59 190 98 l127 71 66 -16 c36 -9 68 -15 71 -12 3 3 -1 7 -9
    10 -8 2 -50 15 -94 29 -47 14 -80 30 -80 37 0 7 -6 15 -14 18 -9 3 -11 -1 -7
    -16 4 -13 1 -22 -9 -26 -26 -10 -6 -27 23 -20 21 5 16 -1 -21 -25 -26 -17 -50
    -31 -52 -31 -3 0 -5 24 -5 53 l0 52 68 42 67 42 3 -44 c5 -65 24 -65 94 3 l60
    57 -7 60 c-3 32 -9 63 -12 68 -2 4 -39 -25 -81 -65 -43 -40 -108 -92 -147
    -115 l-70 -42 -135 34 c-74 18 -171 45 -215 59 -44 14 -87 26 -95 26 -8 0 -28
    7 -44 15 -20 11 -33 12 -40 5 -7 -7 -6 -10 2 -10 7 0 12 -5 12 -11 0 -5 -4 -7
    -10 -4 -5 3 -10 -3 -10 -14 0 -24 18 -28 26 -6 6 15 44 22 44 7 0 -8 -100 -76
    -105 -70 -2 1 -5 25 -6 51 l-3 49 62 39 c74 47 82 48 82 9 0 -16 4 -30 9 -30
    5 0 7 18 4 41 l-6 41 54 54 c29 30 56 54 60 54 4 0 9 -21 11 -47 l3 -47 -53
    -53 c-30 -29 -48 -53 -40 -53 8 0 32 18 53 41 55 56 67 61 260 109 94 24 173
    48 177 54 4 6 8 37 8 69 l0 57 -27 -1 c-16 0 -106 -21 -202 -45z m199 -26 l-5
    -53 -177 -45 -176 -46 -4 52 -3 52 50 16 c75 26 266 74 295 75 l26 1 -6 -52z
    m-890 13 c-25 -15 -83 -50 -130 -76 -47 -27 -118 -68 -159 -92 -74 -43 -113
    -54 -49 -13 98 63 355 209 368 209 8 0 -5 -12 -30 -28z m-197 -193 c-2 -4 -43
    -29 -91 -54 -101 -55 -97 -52 -89 -60 3 -4 37 11 74 33 37 22 85 48 106 58 22
    10 41 24 44 30 4 13 43 9 43 -4 0 -3 -21 -17 -47 -31 -27 -14 -84 -46 -128
    -71 -97 -57 -115 -54 -115 21 l0 49 28 -1 c26 -1 145 63 159 86 8 11 23 -43
    16 -56z m1255 -173 l-53 -49 -5 44 -6 45 56 58 55 58 3 -53 3 -53 -53 -50z
    m-838 25 l0 -50 -116 -55 c-65 -30 -119 -55 -120 -55 -2 0 -4 24 -4 54 l0 54
    98 41 c53 23 104 46 112 51 26 17 30 11 30 -40z m600 -148 l0 -47 -108 -53
    c-59 -29 -110 -53 -114 -52 -5 0 -8 24 -8 54 l0 53 78 34 c42 18 91 41 107 50
    39 22 45 17 45 -39z m-851 -24 c-1 -7 -5 -24 -9 -38 l-8 -25 -1 38 c-1 20 4
    37 9 37 6 0 10 -6 9 -12z m604 -180 c-3 -18 -10 -44 -14 -58 l-7 -25 -1 26
    c-1 38 10 89 20 89 5 0 6 -15 2 -32z m-108 -68 c-3 -5 -13 -10 -21 -10 -8 0
    -14 5 -14 10 0 6 9 10 21 10 11 0 17 -4 14 -10z m15 -64 l0 -45 -52 -15 c-29
    -8 -101 -27 -160 -42 l-107 -27 -70 12 -71 13 0 45 0 45 33 -6 c116 -21 99
    -23 307 37 47 14 93 25 103 26 l17 1 0 -44z"/>
    <path d="M1703 4824 c-3 -8 -1 -25 5 -37 l11 -22 0 38 c1 39 -5 48 -16 21z"/>
    <path d="M3318 5732 l-98 -36 0 -82 c0 -86 4 -94 51 -94 15 0 19 7 19 33 l0
    32 68 20 c37 11 82 19 100 17 17 -1 32 2 32 8 0 17 -86 11 -140 -10 -64 -25
    -60 -26 -60 15 l0 35 -25 0 c-14 0 -25 3 -25 8 0 6 95 45 165 69 6 2 9 -14 7
    -42 -3 -28 0 -45 7 -45 6 0 11 19 11 45 0 25 2 45 5 45 16 0 125 -34 124 -39
    0 -3 -17 -33 -37 -66 l-38 -60 -55 3 c-60 4 -75 -5 -81 -47 l-3 -25 -179 -36
    -178 -37 -67 -69 c-80 -83 -171 -140 -312 -195 -135 -53 -139 -57 -132 -123 3
    -28 9 -55 13 -60 14 -14 281 100 338 145 l23 18 47 -15 c55 -16 62 -17 62 -5
    0 13 -154 53 -174 45 -26 -10 -19 -27 9 -20 75 19 -40 -57 -150 -99 -39 -15
    -87 -33 -107 -40 l-38 -14 0 49 0 49 53 25 c28 14 77 34 107 46 99 38 184 92
    257 163 l72 69 4 -43 4 -44 1 53 c1 28 4 52 5 52 2 0 69 14 148 31 79 17 165
    34 192 38 l47 8 0 -49 0 -48 -25 -10 c-14 -5 -103 -26 -197 -46 l-173 -36 -58
    -57 c-31 -31 -52 -58 -46 -60 6 -2 36 21 68 52 l56 54 179 37 c196 41 216 48
    216 75 0 25 9 31 35 21 38 -15 58 -2 98 64 l37 62 0 80 0 80 -70 22 c-87 27
    -76 28 -192 -16z m217 -208 c-41 -73 -47 -77 -90 -66 l-30 8 -3 32 c-2 19 -12
    38 -23 45 -10 6 -19 15 -19 18 0 12 41 17 71 9 43 -13 54 -5 91 58 l33 57 3
    -48 3 -48 -36 -65z m-258 74 c4 -48 -4 -62 -31 -52 -12 4 -16 20 -16 56 l0 49
    22 -3 21 -3 4 -47z"/>
    <path d="M3470 5505 c0 -19 5 -35 10 -35 6 0 10 16 10 35 0 19 -4 35 -10 35
    -5 0 -10 -16 -10 -35z"/>
    <path d="M4944 5759 c-3 -6 -3 -59 0 -118 4 -58 4 -114 1 -123 -4 -10 -37 -34
    -73 -54 -37 -20 -103 -58 -147 -84 -44 -26 -105 -61 -135 -77 -30 -17 -86 -49
    -125 -71 -236 -137 -472 -271 -545 -311 -47 -26 -103 -58 -125 -72 -22 -14
    -65 -39 -95 -56 -30 -16 -93 -52 -140 -80 -47 -28 -132 -76 -190 -108 -114
    -64 -150 -95 -150 -131 0 -14 -10 -30 -25 -40 -30 -20 -32 -54 -5 -79 15 -13
    20 -33 22 -84 l3 -66 30 0 30 0 3 72 3 73 19 10 c26 14 26 56 0 70 -30 16 -15
    37 59 79 183 106 299 172 462 265 57 32 145 83 194 111 221 129 283 164 335
    193 30 16 120 67 200 112 261 149 352 200 356 200 12 0 98 66 110 84 9 16 16
    64 21 150 l6 128 -14 9 c-20 12 -76 11 -85 -2z m66 -15 c0 -2 -12 -4 -27 -4
    -21 0 -24 3 -14 9 13 8 41 5 41 -5z m18 -38 c2 -10 1 -29 -2 -42 l-7 -25 -32
    3 -32 3 -3 41 -3 41 38 -2 c28 0 39 -6 41 -19z m-18 -141 c0 -71 -14 -100 -64
    -128 -23 -13 -93 -53 -156 -89 -63 -36 -252 -144 -420 -240 -168 -96 -339
    -193 -380 -217 -118 -66 -159 -90 -245 -141 -106 -62 -266 -153 -378 -215
    l-91 -50 -8 -32 c-5 -20 -15 -33 -25 -33 l-16 0 6 36 c7 45 29 69 87 100 25
    13 106 60 180 103 74 44 173 101 220 127 47 26 123 70 170 98 47 29 114 67
    150 85 36 19 76 42 90 51 28 19 230 135 327 187 34 18 102 57 152 86 50 28
    138 79 197 112 58 33 117 69 131 81 l26 21 5 56 4 57 19 0 19 0 0 -55z m-1780
    -1155 l15 -10 -22 0 c-13 0 -23 5 -23 10 0 13 11 13 30 0z m60 0 c0 -5 -8 -10
    -17 -10 l-18 0 15 10 c19 12 20 12 20 0z m3 -31 c-17 -17 -68 -21 -87 -6 l-20
    14 58 1 c35 0 55 -3 49 -9z m-31 -58 c7 -47 -3 -101 -18 -101 -11 0 -14 16
    -14 65 0 49 3 65 14 65 8 0 16 -13 18 -29z"/>
    <path d="M2737 5723 c-4 -3 -7 -22 -7 -41 l0 -34 15 12 c21 18 47 5 43 -22 -2
    -18 -9 -23 -31 -21 -15 1 -27 -2 -27 -7 0 -15 38 -22 60 -10 39 21 16 102 -25
    86 -9 -3 -15 0 -15 9 0 9 10 15 25 15 14 0 25 5 25 10 0 11 -53 14 -63 3z"/>
    <path d="M2847 5719 c-13 -8 -17 -18 -13 -35 4 -14 2 -33 -4 -44 l-10 -19 23
    -16 c19 -12 31 -13 51 -6 26 11 36 44 16 56 -7 4 -7 12 0 25 19 35 -25 61 -63
    39z m43 -24 c0 -8 -9 -15 -20 -15 -11 0 -20 7 -20 15 0 8 9 15 20 15 11 0 20
    -7 20 -15z m5 -65 c0 -19 -35 -26 -46 -9 -4 7 -5 17 -2 22 8 14 48 3 48 -13z"/>
    <path d="M6162 5588 c-20 -20 -13 -32 7 -14 20 18 41 14 41 -8 0 -6 -16 -27
    -35 -46 -46 -44 -44 -50 13 -48 36 1 39 2 15 5 -39 5 -42 17 -9 38 29 19 39
    41 31 66 -7 22 -45 25 -63 7z"/>
    <path d="M6260 5565 c0 -34 12 -46 25 -25 10 15 23 12 34 -9 7 -13 6 -24 -3
    -37 l-14 -18 -16 13 c-18 15 -32 9 -21 -8 3 -6 17 -11 29 -11 53 0 65 82 13
    88 -33 4 -31 24 4 33 l24 7 -37 1 -38 1 0 -35z"/>
    <path d="M6367 5593 c-2 -5 -5 -31 -5 -60 l-1 -52 20 -6 c50 -16 89 21 57 53
    -8 8 -8 15 2 27 10 12 10 18 0 30 -13 15 -66 21 -73 8z m53 -23 c0 -11 -6 -20
    -14 -20 -18 0 -29 16 -21 30 11 18 35 11 35 -10z m-6 -46 c20 -8 21 -33 1 -40
    -23 -9 -48 15 -34 32 13 16 12 16 33 8z"/>
    <path d="M5880 5484 c-119 -76 -143 -95 -133 -103 15 -14 93 -32 106 -25 42
    23 217 140 217 146 0 6 -88 39 -99 37 -3 -1 -44 -25 -91 -55z m110 26 l15 -10
    -22 0 c-13 0 -23 -4 -23 -10 0 -14 43 -13 58 2 6 6 14 9 17 6 5 -4 -139 -98
    -151 -98 -3 0 -3 4 1 9 3 5 -9 11 -27 13 l-33 3 70 47 c78 53 75 51 95 38z
    m-170 -100 c0 -5 12 -13 26 -16 l27 -7 -17 -9 c-18 -10 -76 -2 -76 11 0 10 22
    31 32 31 4 0 8 -4 8 -10z"/>
    <path d="M6207 5374 c-4 -4 -7 -14 -7 -22 l0 -15 19 17 c20 18 41 14 41 -6 0
    -7 -16 -26 -35 -44 -46 -41 -44 -54 5 -54 22 0 40 5 40 10 0 6 -11 10 -25 10
    -32 0 -32 4 8 40 l32 29 -11 18 c-11 19 -54 29 -67 17z"/>
    <path d="M6310 5345 c0 -33 14 -48 22 -23 7 21 40 0 36 -24 -2 -18 -9 -23 -31
    -21 -18 1 -27 -2 -24 -10 2 -7 17 -12 33 -12 22 0 31 6 38 27 11 31 -5 58 -35
    58 -30 0 -22 28 9 33 l27 4 -37 2 -38 1 0 -35z"/>
    <path d="M6416 5358 c-33 -46 -6 -112 42 -106 l27 3 9 37 c17 68 -42 117 -78
    66z m62 -46 c-2 -30 -8 -38 -25 -40 l-23 -3 0 44 c0 51 6 60 32 46 15 -8 18
    -19 16 -47z"/>
    <path d="M5871 5267 l-112 -72 3 -35 3 -35 60 -7 c67 -7 63 -8 187 69 120 75
    128 81 128 108 0 32 -14 39 -91 42 l-65 2 -113 -72z m165 46 c-2 -2 -39 -26
    -83 -53 -43 -26 -86 -56 -96 -65 -14 -12 -25 -14 -44 -8 l-26 9 49 29 c27 15
    63 39 79 51 48 36 85 52 106 47 11 -3 18 -8 15 -10z m54 3 c0 -6 -175 -115
    -196 -122 -10 -4 26 23 81 60 91 60 115 73 115 62z m18 -38 c-13 -20 -181
    -128 -199 -128 -20 0 -7 22 29 45 143 97 168 112 175 108 5 -3 2 -14 -5 -25z
    m-244 -109 c14 12 26 5 26 -16 0 -9 -16 -13 -55 -13 l-55 0 0 19 0 19 36 -9
    c24 -7 39 -7 48 0z"/>
    <path d="M3430 5260 c-28 -28 -13 -64 29 -68 41 -4 36 -26 -7 -30 -37 -4 -34
    -22 3 -22 51 0 76 94 33 124 -29 20 -34 20 -58 -4z m44 -6 c21 -8 20 -40 -1
    -48 -9 -4 -23 0 -31 8 l-15 15 13 15 c14 18 13 18 34 10z"/>
    <path d="M3534 5255 c-22 -33 -10 -59 30 -63 35 -4 28 -25 -10 -33 l-29 -6 18
    -8 c27 -11 63 9 71 41 7 27 -9 84 -24 84 -5 0 -15 3 -23 6 -10 3 -22 -4 -33
    -21z m54 -29 c-2 -13 -10 -21 -23 -21 -23 0 -33 34 -14 45 20 13 40 -1 37 -24z"/>
    <path d="M2863 5235 c0 -22 2 -30 4 -17 2 12 2 30 0 40 -3 9 -5 -1 -4 -23z"/>
    <path d="M3011 5211 c-56 -59 -69 -175 -25 -210 36 -28 55 -26 87 7 35 37 57
    92 57 147 0 82 -66 113 -119 56z m97 -25 l14 -27 -12 -50 c-16 -66 -45 -101
    -79 -97 l-26 3 -3 34 c-6 55 6 94 39 134 35 42 48 43 67 3z"/>
    <path d="M3047 5142 c-24 -26 -23 -72 2 -72 26 0 43 24 39 56 -4 34 -19 40
    -41 16z m23 -32 c-6 -11 -13 -20 -15 -20 -3 0 -5 9 -5 20 0 11 7 20 15 20 13
    0 14 -4 5 -20z"/>
    <path d="M2780 5210 c0 -5 4 -10 9 -10 6 0 13 5 16 10 3 6 -1 10 -9 10 -9 0
    -16 -4 -16 -10z"/>
    <path d="M2710 5150 c0 -25 4 -39 10 -35 6 3 10 19 10 35 0 16 -4 32 -10 35
    -6 4 -10 -10 -10 -35z"/>
    <path d="M3230 5146 c-16 -9 -32 -33 -43 -65 l-18 -51 16 -29 c17 -34 88 -61
    114 -44 52 33 78 130 45 171 -24 28 -80 37 -114 18z m55 -17 c-8 -12 -35 -12
    -35 0 0 11 22 20 33 14 4 -2 5 -9 2 -14z m49 -61 c0 -75 -48 -127 -71 -76 -11
    26 7 105 28 119 30 19 44 5 43 -43z m-86 5 l-3 -38 -22 -3 c-25 -4 -26 0 -17
    47 5 22 12 31 26 31 l19 0 -3 -37z m-10 -75 c19 -19 14 -30 -8 -18 -11 6 -20
    15 -20 20 0 14 14 12 28 -2z"/>
    <path d="M3292 5078 c-15 -15 -16 -64 -1 -73 16 -10 23 3 10 18 -9 11 -6 20
    10 41 21 27 6 39 -19 14z"/>
    <path d="M2620 4914 c-76 -76 -114 -101 -229 -148 -78 -31 -191 -96 -338 -194
    -86 -56 -128 -77 -177 -89 -35 -8 -85 -22 -112 -31 l-49 -18 -3 -67 -3 -67 19
    0 c11 0 65 13 121 29 94 27 174 68 266 136 17 12 62 39 100 60 39 21 88 48
    110 60 22 13 83 42 135 65 l95 42 78 76 77 77 0 72 c0 40 -3 73 -8 73 -4 0
    -41 -34 -82 -76z m72 -6 l-4 -53 -62 -63 -61 -63 -5 48 -6 48 65 68 c36 37 68
    67 72 67 3 0 4 -24 1 -52z m-152 -152 l0 -53 -72 -33 c-40 -18 -88 -39 -105
    -46 l-33 -14 0 53 0 54 63 30 c106 50 132 62 140 62 4 1 7 -23 7 -53z m-242
    -162 c-7 -6 -39 -26 -71 -44 l-58 -33 3 59 3 58 65 38 65 37 3 -51 c2 -33 -2
    -56 -10 -64z m-148 -34 l0 -49 -90 -61 c-49 -33 -92 -60 -95 -60 -3 0 -5 22
    -5 50 l0 50 93 60 c50 33 93 60 95 60 1 0 2 -22 2 -50z m-210 -138 l0 -48 -87
    -23 c-49 -13 -96 -26 -106 -29 l-18 -5 3 54 3 54 80 22 c44 12 90 22 103 22
    l22 1 0 -48z"/>
    <path d="M2216 4614 c-8 -29 8 -55 23 -38 5 5 11 20 13 34 5 36 -27 40 -36 4z"/>
    <path d="M5830 4973 c-25 -10 -30 -25 -30 -107 l0 -78 -25 -30 c-27 -32 -29
    -37 -17 -54 35 -54 191 -39 192 18 0 3 -11 20 -25 36 l-25 30 0 86 0 85 -19
    11 c-21 11 -28 11 -51 3z m45 -23 c4 -6 -5 -10 -19 -10 -14 0 -26 5 -26 10 0
    6 9 10 19 10 11 0 23 -4 26 -10z m-9 -30 c8 0 14 -5 14 -11 0 -15 -53 -6 -58
    10 -3 10 0 12 12 8 10 -4 24 -7 32 -7z m14 -50 c0 -19 -31 -23 -48 -6 l-16 16
    32 0 c18 0 32 -5 32 -10z m-2 -42 c-3 -7 -15 -13 -28 -13 -13 0 -25 6 -27 13
    -3 8 6 12 27 12 21 0 30 -4 28 -12z m2 -48 c0 -5 -13 -10 -30 -10 -16 0 -30 5
    -30 10 0 6 14 10 30 10 17 0 30 -4 30 -10z m-29 -30 c15 0 31 5 34 11 8 13 45
    -18 45 -37 0 -35 -117 -51 -148 -20 l-15 15 17 26 c13 20 21 24 29 16 6 -6 23
    -11 38 -11z"/>
    <path d="M1673 4935 c0 -22 2 -30 4 -17 2 12 2 30 0 40 -3 9 -5 -1 -4 -23z"/>
    <path d="M2842 4878 c-27 -27 -6 -68 35 -68 13 0 23 -4 23 -9 0 -16 -27 -31
    -44 -25 -9 3 -16 1 -16 -5 0 -15 55 -14 67 2 48 59 -13 157 -65 105z m61 -14
    c10 -10 -12 -44 -28 -44 -18 0 -28 17 -21 35 5 15 37 20 49 9z"/>
    <path d="M2960 4880 c0 -5 5 -10 10 -10 14 0 12 -84 -2 -98 -9 -9 -6 -12 17
    -12 23 0 26 3 17 12 -7 7 -12 36 -12 65 0 40 -4 53 -15 53 -8 0 -15 -4 -15
    -10z"/>
    <path d="M4222 4825 c-27 -56 -27 -55 3 -55 16 0 25 -6 25 -15 0 -23 14 -18
    27 10 6 14 7 25 2 25 -5 0 -9 18 -9 40 0 54 -20 52 -48 -5z m28 -15 c0 -11 -7
    -20 -15 -20 -13 0 -14 4 -5 20 6 11 13 20 15 20 3 0 5 -9 5 -20z"/>
    <path d="M4314 4856 c-3 -9 -3 -23 0 -31 3 -9 0 -24 -6 -35 -25 -39 41 -69 76
    -34 18 17 20 27 9 38 -5 4 -8 22 -8 39 l0 32 -33 3 c-22 2 -34 -2 -38 -12z
    m56 -22 c0 -17 -26 -19 -36 -3 -7 12 15 31 28 23 4 -3 8 -12 8 -20z m8 -56 c3
    -13 -3 -18 -21 -18 -29 0 -37 7 -30 27 8 19 47 12 51 -9z"/>
    <path d="M5412 4858 c-7 -7 -12 -16 -12 -22 0 -6 5 -5 12 2 16 16 48 16 48 0
    0 -7 -16 -29 -36 -49 -20 -21 -33 -42 -30 -48 9 -14 73 -14 81 -1 4 6 -7 10
    -26 10 l-33 0 32 33 c43 44 39 87 -8 87 -9 0 -21 -5 -28 -12z"/>
    <path d="M5510 4829 l0 -41 15 12 c20 17 45 5 45 -20 0 -25 -25 -37 -45 -20
    -8 7 -15 8 -15 2 0 -41 72 -34 83 8 7 26 -27 64 -49 56 -8 -3 -14 1 -14 9 0 9
    10 15 25 15 14 0 25 5 25 10 0 6 -16 10 -35 10 l-35 0 0 -41z"/>
    <path d="M5635 4827 c-11 -23 -21 -45 -23 -49 -2 -5 7 -8 21 -8 17 0 27 -7 31
    -22 l6 -23 13 25 c7 14 9 27 5 28 -4 2 -8 24 -8 48 0 57 -18 57 -45 1z m25
    -22 c0 -16 -6 -25 -15 -25 -18 0 -19 4 -3 30 16 26 18 25 18 -5z"/>
    <path d="M410 4800 c0 -5 11 -10 25 -10 30 0 30 3 5 -56 -30 -69 -18 -79 13
    -10 36 77 35 86 -8 86 -19 0 -35 -4 -35 -10z"/>
    <path d="M510 4801 c0 -6 13 -11 30 -13 l29 -3 -20 -44 c-11 -24 -18 -49 -15
    -55 4 -11 56 95 56 114 0 6 -18 10 -40 10 -22 0 -40 -4 -40 -9z"/>
    <path d="M6333 4748 c10 -89 16 -356 23 -980 l6 -596 -21 -11 -21 -12 0 -54
    c0 -29 -4 -56 -9 -60 -20 -12 -23 -94 -7 -172 9 -43 17 -94 19 -113 1 -26 6
    -34 18 -32 l16 2 -4 -187 c-5 -259 -31 -759 -48 -928 -7 -77 -21 -211 -31
    -298 -18 -168 -14 -195 24 -171 l17 11 17 159 c32 297 78 1064 82 1361 1 74
    14 92 51 75 31 -14 55 -15 55 -3 0 4 -20 14 -45 21 l-45 13 0 78 0 79 26 16
    c43 29 52 60 55 196 4 131 -2 155 -34 142 l-17 -6 0 -113 c0 -62 -3 -120 -6
    -129 -13 -34 -19 -13 -16 59 2 47 0 75 -7 75 -12 0 -15 99 -29 957 -6 336 -13
    620 -16 631 -4 10 -18 24 -32 31 l-26 12 5 -53z m33 10 c4 -6 11 -212 15 -457
    4 -245 11 -602 14 -793 5 -224 4 -348 -2 -348 -11 0 -20 320 -29 1080 -4 272
    -10 499 -15 505 -5 5 -9 13 -9 17 0 12 18 10 26 -4z m129 -1714 c-3 -25 -15
    -50 -30 -64 l-25 -23 0 18 c0 10 7 26 16 36 12 13 17 45 21 121 2 57 7 110 11
    118 9 20 15 -153 7 -206z m-115 4 c0 -63 -4 -98 -9 -89 -6 9 -18 11 -35 7 -31
    -8 -34 6 -11 61 8 19 15 55 15 79 l0 44 20 0 20 0 0 -102z m36 -105 c-7 -192
    -9 -213 -22 -200 -10 10 8 397 19 397 7 0 8 -66 3 -197z m-86 -19 c0 -8 -4
    -12 -10 -9 -5 3 -10 10 -10 16 0 5 5 9 10 9 6 0 10 -7 10 -16z m50 -94 l0 -90
    -18 0 c-14 0 -20 13 -28 63 -6 34 -14 69 -18 77 -5 12 2 19 26 26 18 6 34 12
    36 13 1 0 2 -39 2 -89z m14 -288 c-15 -485 -78 -1369 -100 -1391 -13 -13 -13
    20 1 160 8 85 22 225 30 313 17 172 30 448 41 839 l6 247 13 -10 c10 -8 12
    -47 9 -158z"/>
    <path d="M924 4676 l-19 -15 12 -20 c8 -13 9 -22 3 -26 -17 -10 -11 -44 9 -55
    13 -6 28 -7 45 -1 l25 10 -3 51 c-3 67 -30 87 -72 56z m56 -15 c0 -6 -5 -13
    -10 -16 -15 -9 -43 3 -35 15 8 13 45 13 45 1z m-16 -47 c23 -9 20 -44 -3 -44
    -23 0 -35 15 -27 35 6 17 8 17 30 9z"/>
    <path d="M1036 4674 c-15 -15 -18 -25 -18 -59 0 -36 3 -45 20 -54 28 -15 61
    -2 68 25 8 32 -12 54 -48 54 l-30 0 12 15 c7 8 23 15 37 15 14 0 21 4 18 10
    -9 15 -42 12 -59 -6z m44 -60 l13 -15 -16 -17 -17 -16 -17 16 -16 17 13 15 c7
    9 16 16 20 16 4 0 13 -7 20 -16z"/>
    <path d="M461 4594 c-46 -33 -70 -145 -37 -173 26 -21 85 -25 105 -7 l18 16
    67 -20 c83 -26 108 -23 120 12 13 38 -2 51 -89 77 l-75 23 0 23 c0 41 -73 74
    -109 49z m39 -24 c-20 -13 -43 -13 -35 0 3 6 16 10 28 10 l22 0 -15 -10z m50
    -4 c0 -2 3 -12 7 -22 l6 -17 -22 6 c-15 3 -28 -1 -41 -16 -26 -27 -25 -52 0
    -70 l20 -14 -14 -12 c-11 -9 -17 -6 -30 14 l-16 24 16 41 c9 22 26 47 37 55
    21 15 37 19 37 11z m-80 -25 c0 -24 -24 -71 -37 -71 -14 0 -11 47 4 73 6 10
    33 9 33 -2z m58 -46 c-12 -27 -28 -34 -28 -12 0 14 20 37 32 37 4 0 2 -11 -4
    -25z m38 -7 c-3 -13 -6 -29 -6 -36 0 -7 -4 -10 -10 -7 -11 7 -14 48 -3 58 14
    15 25 6 19 -15z m40 -14 c-3 -9 -6 -23 -6 -31 l0 -15 -15 12 c-11 9 -12 17 -4
    31 12 23 34 26 25 3z m39 -21 c-9 -36 -14 -41 -25 -23 -10 16 5 50 21 50 7 0
    9 -10 4 -27z m41 -9 c-3 -9 -6 -20 -6 -25 0 -5 -4 -9 -10 -9 -11 0 -14 33 -3
    43 12 13 25 7 19 -9z m-226 -15 c0 -4 -7 -6 -15 -3 -8 4 -15 10 -15 15 0 4 7
    6 15 3 8 -4 15 -10 15 -15z m256 -15 c-3 -8 -10 -12 -16 -9 -7 4 -6 14 2 28
    12 24 24 8 14 -19z"/>
    <path d="M5929 4592 c-16 -11 -47 -17 -94 -18 l-70 -2 -79 -36 c-43 -20 -115
    -54 -160 -75 -45 -21 -160 -76 -256 -121 -166 -78 -399 -188 -575 -270 -44
    -21 -134 -64 -200 -95 -70 -33 -136 -71 -159 -93 -44 -42 -90 -135 -100 -202
    -7 -43 5 -322 24 -555 5 -60 7 -112 5 -114 -3 -2 -30 3 -61 12 -31 9 -61 14
    -65 11 -5 -3 -9 -43 -9 -89 l0 -83 33 -11 c17 -5 50 -15 73 -20 l41 -11 6
    -257 c14 -540 -2 -1414 -29 -1610 l-6 -43 -27 6 c-14 4 -28 8 -30 10 -2 2 -10
    -1 -18 -7 -9 -8 -13 -35 -13 -84 l0 -72 41 -16 41 -16 -6 -38 c-3 -21 -17
    -139 -30 -263 -14 -124 -27 -232 -31 -241 -12 -30 10 -62 51 -74 l39 -11 3
    -27 c2 -19 12 -31 28 -38 32 -12 27 -13 60 19 16 15 72 49 124 76 52 27 106
    57 120 66 14 9 70 41 125 70 55 29 116 63 135 75 20 13 65 37 100 55 70 35
    450 246 617 341 56 33 104 59 108 59 19 0 245 134 249 148 3 10 14 89 26 177
    12 88 25 176 30 195 8 31 20 144 50 470 5 58 9 132 9 165 -2 177 4 302 16 325
    35 67 -3 1743 -51 2238 l-6 62 -27 15 -28 14 -24 -17z m41 -18 c0 -3 -30 -19
    -67 -36 -77 -34 -148 -68 -455 -214 -120 -57 -255 -121 -300 -143 -46 -22
    -234 -112 -420 -200 -293 -140 -406 -189 -388 -168 4 5 289 142 565 272 264
    124 752 356 1005 477 36 17 60 22 60 12z m-130 -27 c-14 -6 -92 -43 -175 -83
    -245 -117 -346 -165 -420 -199 -38 -18 -133 -62 -210 -99 -77 -37 -162 -78
    -190 -91 -27 -13 -126 -60 -220 -105 -312 -151 -338 -160 -281 -101 26 27 106
    66 956 467 475 223 473 223 520 223 l45 0 -25 -12z m154 -64 c3 -43 10 -118
    16 -168 29 -274 58 -1550 35 -1574 -17 -17 -1603 -817 -1608 -811 -2 3 -7 154
    -9 335 -3 182 -4 320 -1 308 2 -13 9 -23 14 -23 9 0 981 479 1369 675 l225
    113 3 42 c2 23 1 48 -2 56 -4 10 -140 -54 -503 -236 -576 -288 -1091 -540
    -1104 -540 -5 0 -9 31 -9 70 l0 70 40 25 40 25 0 74 c0 77 -25 176 -44 176 -6
    0 -21 -7 -33 -15 l-21 -15 -6 73 c-7 81 -36 578 -36 618 l0 26 133 63 c195 93
    358 171 487 233 63 30 198 94 300 142 284 133 431 204 569 272 69 34 129 62
    133 62 3 1 9 -34 12 -76z m-1680 -859 c27 -304 44 -644 32 -644 -1 0 -16 5
    -33 10 l-30 11 -18 304 c-10 167 -15 331 -12 364 6 51 35 137 44 128 1 -2 9
    -79 17 -173z m30 104 c21 -222 45 -821 27 -658 -5 41 -11 122 -15 180 -3 58
    -10 193 -16 300 -6 107 -13 205 -15 218 -3 12 -1 22 4 22 5 0 12 -28 15 -62z
    m1674 -344 l-3 -36 -271 -137 c-149 -75 -374 -187 -500 -248 -126 -62 -356
    -175 -511 -252 l-283 -140 0 37 0 37 676 335 c371 184 721 358 777 387 56 28
    106 52 110 52 5 1 7 -15 5 -35z m-1575 -326 c-6 -7 -13 -20 -16 -28 -3 -9 -6
    -3 -6 13 -1 19 4 27 15 27 12 0 14 -4 7 -12z m17 -53 c-7 -8 -18 -15 -26 -15
    -9 0 -5 8 9 23 23 23 37 17 17 -8z m-198 -21 c54 -15 98 -32 97 -38 -3 -27 3
    -35 29 -38 37 -4 35 -31 -3 -38 -21 -4 -31 -11 -33 -28 l-3 -22 -27 7 c-115
    28 -117 29 -117 50 0 28 -10 37 -31 29 l-17 -7 19 -15 19 -15 -20 3 -20 3 -3
    68 c-2 37 0 67 4 67 4 0 52 -12 106 -26z m216 -66 l-3 -62 -40 -23 c-45 -26
    -65 -29 -65 -10 0 7 14 18 30 24 l30 11 0 36 0 36 -30 0 c-31 0 -43 20 -12 20
    9 1 28 7 42 15 46 26 51 20 48 -47z m-130 -117 c11 -6 15 -104 23 -458 7 -351
    12 -460 24 -492 15 -44 12 -300 -5 -371 -5 -19 -14 -53 -19 -75 -13 -48 -14
    -229 -3 -253 8 -16 -2 -231 -12 -257 -3 -10 -14 -10 -46 -2 l-42 12 6 65 c22
    251 31 595 31 1183 l0 657 15 0 c8 0 21 -4 28 -9z m59 -412 c2 -229 9 -425 16
    -469 7 -44 11 -154 9 -268 l-2 -194 -17 -31 -16 -32 6 -161 c7 -177 -1 -334
    -15 -334 -6 0 -9 55 -8 133 2 72 2 188 2 256 -1 95 3 129 14 147 20 29 25 373
    7 479 -17 103 -29 894 -13 879 9 -9 13 -118 17 -405z m1653 324 c0 -5 3 -18 6
    -31 l6 -22 -45 -20 c-24 -11 -186 -94 -359 -184 -174 -90 -434 -223 -579 -296
    -145 -73 -346 -175 -447 -227 -143 -73 -183 -90 -187 -78 -3 8 -7 21 -9 29 -7
    21 -33 8 1109 586 165 84 343 174 395 200 99 51 110 55 110 43z m7 -237 c-4
    -91 -12 -175 -18 -188 -7 -17 -70 -55 -211 -128 -111 -58 -245 -128 -297 -156
    -167 -88 -507 -267 -766 -401 -137 -72 -267 -140 -288 -152 -21 -11 -39 -21
    -40 -21 -4 0 20 391 24 394 2 2 110 58 239 124 225 115 356 181 1025 522 165
    84 304 156 310 161 25 24 28 3 22 -155z m-37 -298 c0 -29 -3 -70 -7 -91 l-6
    -38 -126 -65 c-69 -36 -144 -75 -166 -87 -143 -78 -249 -134 -380 -202 -82
    -43 -179 -94 -215 -113 -226 -121 -713 -373 -715 -370 -1 2 0 44 3 95 l4 92
    266 138 c146 76 304 159 351 184 123 65 704 370 846 444 66 35 126 63 133 64
    8 1 12 -16 12 -51z m0 -160 c0 -7 -89 -59 -198 -116 -108 -56 -249 -130 -312
    -164 -63 -34 -239 -126 -390 -206 -447 -234 -511 -268 -600 -316 -47 -25 -91
    -46 -97 -46 -44 -1 28 44 272 170 112 58 347 182 515 271 85 45 196 103 245
    129 50 26 169 89 265 141 295 157 300 159 300 137z m5 -80 c-3 -29 -10 -102
    -15 -163 -5 -60 -14 -146 -19 -190 -6 -44 -15 -125 -21 -180 -22 -194 -62
    -460 -72 -470 -6 -6 -7 7 -3 36 4 26 2 49 -2 52 -5 3 -38 -11 -73 -32 -36 -20
    -108 -60 -160 -88 -180 -96 -316 -170 -570 -313 -140 -79 -302 -168 -360 -198
    -57 -30 -120 -65 -140 -77 -19 -12 -79 -43 -132 -68 -69 -33 -101 -54 -112
    -74 l-15 -28 -1 42 c0 23 4 75 10 115 9 71 23 198 36 328 l6 65 42 21 c48 25
    54 42 54 154 0 104 -7 126 -41 122 l-27 -3 0 43 c0 24 3 59 6 79 l6 36 77 39
    c42 21 110 57 151 80 66 36 175 93 445 234 39 20 205 108 370 195 165 87 331
    174 369 193 37 18 94 49 125 68 31 19 60 34 64 34 5 0 6 -24 2 -52z m-145
    -965 c0 -46 20 -33 -410 -269 -118 -64 -271 -149 -340 -187 -69 -38 -172 -94
    -230 -125 -58 -30 -121 -65 -140 -77 -19 -12 -96 -55 -170 -95 -74 -40 -159
    -86 -188 -102 l-53 -29 3 38 3 37 75 43 c41 24 104 58 140 77 36 18 119 64
    185 101 66 37 210 117 320 178 110 60 259 142 330 182 72 40 157 87 190 104
    33 18 107 58 165 90 124 69 120 68 120 34z m-1435 -13 c-3 -5 -10 -10 -16 -10
    -5 0 -9 5 -9 10 0 6 7 10 16 10 8 0 12 -4 9 -10z m10 -49 c-3 -12 -13 -21 -21
    -21 -18 0 -18 5 3 30 20 23 27 20 18 -9z m-246 -56 c7 -3 11 2 11 14 0 25 4
    26 74 4 41 -13 56 -22 58 -37 2 -15 12 -22 31 -24 38 -5 33 -36 -7 -40 -18 -2
    -30 -11 -33 -23 -6 -23 -3 -23 -73 -3 l-56 16 0 21 c1 15 -6 23 -21 25 l-23 3
    0 38 c0 44 11 60 21 32 4 -10 12 -22 18 -26z m201 19 c0 -2 -9 -4 -21 -4 -11
    0 -18 4 -14 10 5 8 35 3 35 -6z m23 -131 c-32 -26 -73 -30 -73 -8 0 8 9 15 19
    15 27 0 51 27 51 56 l0 25 -26 -3 c-15 -2 -29 3 -31 10 -3 7 4 12 19 12 13 0
    33 6 44 14 l19 15 3 -57 3 -57 -28 -22z m-233 37 c0 -5 -4 -10 -9 -10 -6 0
    -13 5 -16 10 -3 6 1 10 9 10 9 0 16 -4 16 -10z m109 -67 l23 -6 -6 -66 c-4
    -36 -13 -109 -21 -161 -19 -129 -35 -271 -35 -306 0 -46 -11 -56 -47 -43 -17
    6 -33 16 -36 22 -2 7 6 102 18 212 13 110 26 235 30 278 l7 77 21 0 c12 0 33
    -3 46 -7z m56 -55 c-3 -24 -12 -106 -21 -183 -35 -320 -42 -369 -54 -398 l-9
    -22 0 34 c-1 18 3 61 9 95 9 57 19 144 41 360 12 118 19 156 30 156 5 0 6 -19
    4 -42z m-38 -575 c-3 -10 -5 -2 -5 17 0 19 2 27 5 18 2 -10 2 -26 0 -35z"/>
    <path d="M5660 3943 c-173 -85 -425 -209 -560 -275 -135 -66 -347 -170 -472
    -231 l-228 -111 0 -47 c0 -27 4 -50 9 -53 4 -3 134 57 287 133 153 76 342 169
    419 206 77 38 312 153 522 256 l383 188 -6 33 c-9 50 -12 58 -26 57 -7 0 -155
    -70 -328 -156z m330 103 l0 -33 -152 -76 c-213 -105 -749 -368 -893 -437 -66
    -32 -209 -101 -317 -153 -109 -53 -199 -93 -201 -89 -3 4 -7 19 -11 34 l-6 27
    21 6 c11 4 181 86 377 182 197 97 398 194 447 218 50 23 216 104 370 179 298
    146 359 176 363 176 1 0 2 -15 2 -34z"/>
    <path d="M4166 2982 c-2 -4 2 -16 10 -27 l15 -20 9 15 c5 9 5 19 -2 27 -12 15
    -25 17 -32 5z"/>
    <path d="M4217 2934 c-6 -6 16 -34 27 -34 3 0 6 9 6 20 0 19 -20 27 -33 14z"/>
    <path d="M4250 820 c6 -11 15 -18 20 -15 13 8 0 35 -16 35 -12 0 -12 -4 -4
    -20z"/>
    <path d="M837 4472 c-23 -25 -37 -68 -37 -111 0 -52 18 -73 59 -69 45 4 72 42
    79 106 l4 50 -21 21 c-26 26 -62 27 -84 3z m7 -39 c-7 -16 -14 -48 -14 -73
    l-1 -45 -10 18 c-15 25 11 127 32 127 4 0 1 -12 -7 -27z m74 -3 l4 -24 -17 14
    -16 13 -13 -14 c-20 -20 -27 -52 -16 -69 l9 -15 21 13 c25 15 26 1 1 -29 l-19
    -23 -17 14 c-34 29 3 156 43 148 9 -2 19 -14 20 -28z m-18 -32 c0 -19 -18 -43
    -25 -36 -9 9 4 48 16 48 5 0 9 -6 9 -12z"/>
    <path d="M2289 4424 c-7 -9 -13 -31 -13 -49 0 -55 48 -87 82 -53 30 30 -3 84
    -45 73 l-24 -6 10 20 c6 11 23 22 38 24 l28 4 -31 2 c-18 0 -37 -6 -45 -15z
    m57 -59 c4 -8 1 -22 -6 -30 l-13 -16 -18 17 c-14 13 -16 20 -8 31 15 17 38 17
    45 -2z"/>
    <path d="M2397 4433 c-4 -3 -7 -17 -7 -29 l0 -23 28 2 27 2 3 -27 c4 -31 -23
    -39 -46 -16 -9 9 -12 8 -12 -5 0 -21 45 -33 65 -17 37 31 24 80 -21 80 -34 0
    -31 28 4 33 l27 4 -31 2 c-17 0 -34 -2 -37 -6z"/>
    <path d="M955 4370 c3 -5 13 -10 21 -10 25 0 16 -13 -63 -92 -52 -53 -72 -79
    -62 -82 23 -8 93 -26 102 -26 24 0 0 18 -39 29 l-46 14 71 69 c76 74 84 92 49
    102 -33 8 -40 7 -33 -4z"/>
    <path d="M1305 4305 c-61 -37 -100 -54 -121 -53 -45 2 -54 -8 -54 -55 l0 -43
    -30 -11 -30 -11 0 37 c0 51 -6 54 -51 28 -45 -26 -48 -32 -56 -115 l-6 -63 29
    -11 29 -11 0 -95 0 -95 17 -11 c23 -14 37 2 15 18 l-17 13 0 87 0 86 21 0 c11
    0 33 6 47 14 15 8 39 19 55 25 18 7 27 18 27 33 0 31 10 44 40 51 14 4 60 27
    103 52 l77 45 0 33 c0 17 3 49 6 70 4 20 3 37 -2 37 -5 0 -49 -25 -99 -55z
    m76 -63 c-9 -17 -137 -102 -154 -102 -9 0 -9 82 1 96 4 6 41 30 82 52 l75 42
    3 -35 c2 -19 -1 -43 -7 -53z m-181 -32 l0 -30 -25 22 c-14 12 -25 25 -25 30 0
    4 11 8 25 8 l25 0 0 -30z m-150 -51 l0 -31 -27 7 c-39 9 -41 14 -14 36 32 26
    41 24 41 -12z m120 21 c0 -5 -4 -10 -10 -10 -5 0 -10 5 -10 10 0 6 5 10 10 10
    6 0 10 -4 10 -10z m0 -68 l0 -49 -64 -27 c-47 -20 -73 -26 -95 -21 -39 8 -42
    14 -35 67 l6 44 52 -4 c40 -3 62 1 92 16 21 12 40 21 42 22 1 0 2 -22 2 -48z"/>
    <path d="M2810 4160 c-27 -27 -40 -62 -40 -109 0 -59 32 -76 88 -47 l28 14 74
    -20 c82 -22 99 -18 111 26 9 33 -9 46 -101 70 l-65 17 -20 32 c-25 39 -48 44
    -75 17z m57 -23 c8 -17 7 -25 -4 -36 -9 -8 -13 -26 -11 -47 l4 -33 -25 -11
    c-33 -15 -43 2 -38 63 6 72 52 113 74 64z m27 -71 c-7 -30 -24 -35 -24 -8 0
    18 20 45 27 38 2 -2 1 -15 -3 -30z m47 -14 c-8 -31 -24 -36 -29 -9 -4 20 16
    49 28 42 5 -3 5 -17 1 -33z m37 -13 c-7 -20 -14 -27 -20 -21 -13 13 0 52 17
    52 l14 0 -11 -31z m41 9 c0 -7 -4 -22 -8 -32 -10 -26 -25 -3 -16 24 7 22 25
    28 24 8z m41 -17 c0 -19 -17 -38 -25 -29 -7 7 7 48 16 48 5 0 9 -9 9 -19z"/>
    <path d="M3480 4130 c0 -5 5 -10 10 -10 14 0 12 -84 -2 -98 -9 -9 -4 -12 22
    -11 19 0 29 3 23 6 -9 3 -13 26 -13 64 l0 59 -20 0 c-11 0 -20 -4 -20 -10z"/>
    <path d="M3582 4128 c-16 -16 -16 -90 0 -106 46 -46 101 36 68 99 -12 21 -50
    25 -68 7z m53 -48 c0 -52 -27 -69 -45 -28 -15 32 3 81 28 76 13 -3 17 -13 17
    -48z"/>
    <path d="M3680 4105 c0 -36 8 -43 27 -24 16 16 33 2 33 -28 l0 -25 -30 6 c-33
    6 -42 -9 -10 -19 54 -17 93 42 51 76 -12 10 -29 15 -36 12 -9 -3 -15 1 -15 10
    0 10 12 17 33 20 l32 4 -42 1 -43 2 0 -35z"/>
    <path d="M3192 4100 c-26 -11 -42 -47 -42 -98 0 -42 41 -92 76 -92 12 0 27 -7
    34 -15 32 -38 119 6 133 68 l9 37 -26 44 c-14 24 -33 46 -42 50 -31 12 -119
    16 -142 6z m63 -20 c-4 -6 -15 -8 -26 -5 -13 4 -19 2 -19 -9 0 -9 -4 -16 -10
    -16 -11 0 -14 23 -3 33 11 12 65 8 58 -3z m49 1 c7 -11 -38 -41 -61 -40 -14 0
    -13 2 5 9 12 5 22 16 22 25 0 16 25 21 34 6z m61 -51 c26 -51 20 -76 -29 -109
    l-43 -30 -22 23 -23 24 7 45 7 44 31 16 c45 22 55 21 72 -13z m-123 -40 c-5
    -43 -22 -65 -22 -27 l0 27 -25 0 c-25 0 -29 7 -19 33 4 10 14 12 37 8 l32 -7
    -3 -34z"/>
    <path d="M3330 4000 c-11 -21 -6 -40 12 -40 5 0 8 7 5 15 -4 8 -2 17 3 20 13
    8 13 25 0 25 -5 0 -14 -9 -20 -20z"/>
    <path d="M3271 3968 c-10 -26 -3 -51 11 -42 5 3 7 12 4 20 -3 8 1 14 9 14 9 0
    12 6 9 15 -9 22 -23 18 -33 -7z"/>
    <path d="M715 4020 c3 -5 17 -10 31 -10 l24 0 -20 -41 c-12 -22 -20 -48 -18
    -57 4 -17 58 85 58 107 0 6 -18 11 -41 11 -24 0 -38 -4 -34 -10z"/>
    <path d="M840 4019 c-10 -6 -11 -9 -2 -9 8 0 12 -17 12 -49 0 -30 -5 -51 -12
    -54 -7 -3 3 -5 22 -5 19 0 29 2 23 5 -8 3 -13 25 -13 58 0 57 -7 69 -30 54z"/>
    <path d="M2600 3890 c-12 -8 -12 -10 -1 -10 10 0 12 -14 9 -58 l-4 -58 24 4
    c17 3 20 8 13 15 -6 6 -11 35 -11 64 0 54 -4 60 -30 43z"/>
    <path d="M2694 3874 c-14 -20 -15 -33 -8 -62 l9 -37 31 -3 30 -3 12 26 c17 37
    15 62 -8 85 -27 27 -46 25 -66 -6z m56 -38 c0 -25 -5 -48 -10 -51 -18 -11 -40
    16 -40 50 0 36 6 45 32 45 l18 0 0 -44z"/>
    <path d="M2805 3887 c-13 -10 -16 -21 -11 -40 l6 -27 30 0 c17 0 30 -3 30 -7
    0 -17 -16 -31 -40 -36 l-25 -4 33 -2 33 -1 13 32 c27 64 -19 121 -69 85z m55
    -27 c0 -24 -26 -38 -42 -22 -16 16 -2 42 22 42 13 0 20 -7 20 -20z"/>
    <path d="M1157 3838 c10 -47 10 -82 -2 -88 -5 -3 -8 16 -6 46 l2 51 -20 6
    c-36 9 -67 -73 -51 -134 10 -36 28 -49 73 -49 28 0 57 58 57 117 l0 52 -22 15
    c-33 23 -38 20 -31 -16z m-52 -63 c-8 -27 -14 -41 -14 -29 -1 21 19 88 24 82
    2 -2 -3 -25 -10 -53z m82 -7 c-2 -13 -4 -3 -4 22 0 25 2 35 4 23 2 -13 2 -33
    0 -45z m-54 6 c-7 -40 11 -61 34 -42 10 8 13 7 13 -5 0 -20 -27 -40 -45 -33
    -22 8 -21 116 1 116 2 0 0 -16 -3 -36z"/>
    <path d="M1304 3803 c-12 -10 -29 -40 -37 -67 l-16 -48 14 -29 c16 -29 82 -56
    111 -45 45 17 75 156 39 186 -25 21 -88 23 -111 3z m51 -13 c-3 -5 -13 -10
    -21 -10 -8 0 -14 5 -14 10 0 6 9 10 21 10 11 0 17 -4 14 -10z m60 -73 c-6 -43
    -31 -87 -49 -87 -40 0 -32 113 9 144 l20 15 13 -17 c9 -11 11 -31 7 -55z m-89
    38 c11 -26 -5 -65 -26 -65 -25 0 -29 9 -18 48 9 33 34 43 44 17z m-16 -95 c8
    -5 11 -12 7 -16 -4 -4 -15 0 -24 9 -18 18 -8 23 17 7z"/>
    <path d="M1370 3729 c-14 -25 -9 -61 7 -67 9 -2 11 5 7 28 -5 23 -2 34 12 45
    l19 14 -17 1 c-10 0 -22 -9 -28 -21z"/>
    <path d="M3465 3801 c-3 -5 -1 -12 5 -16 13 -8 13 -82 0 -90 -18 -11 -10 -25
    12 -22 l22 4 -3 59 c-1 32 -5 62 -7 66 -7 11 -22 10 -29 -1z"/>
    <path d="M3562 3798 c-7 -7 -12 -16 -12 -22 0 -6 5 -5 12 2 16 16 48 15 48 -1
    0 -8 -16 -30 -36 -51 -19 -20 -32 -41 -29 -46 8 -13 72 -13 80 0 4 6 -7 10
    -26 10 l-33 0 32 33 c43 44 39 87 -8 87 -9 0 -21 -5 -28 -12z"/>
    <path d="M3660 3781 c-16 -40 -4 -90 26 -103 31 -14 51 2 60 48 13 71 -60 118
    -86 55z m60 -16 c10 -26 -2 -75 -18 -75 -25 0 -45 73 -25 93 14 14 34 6 43
    -18z"/>
    <path d="M3158 3784 c-113 -61 -3 -180 131 -144 132 35 94 161 -48 160 -31 -1
    -68 -7 -83 -16z m77 -14 c-3 -5 -21 -10 -38 -10 l-32 -1 19 -11 19 -11 -24
    -13 -24 -13 38 -1 c25 0 37 -5 37 -14 0 -18 -65 -5 -88 17 -18 19 -8 35 32 53
    37 16 70 18 61 4z m80 -4 c41 -18 48 -52 13 -65 -56 -20 -78 -22 -78 -5 0 13
    6 15 30 11 29 -6 42 6 18 16 -8 4 -4 8 9 12 13 4 20 11 17 17 -3 5 -14 6 -23
    3 -21 -6 -51 3 -51 16 0 13 26 11 65 -5z m-59 -38 c-20 -11 -44 1 -25 12 6 5
    19 6 27 3 l14 -6 -16 -9z"/>
    <path d="M6765 3734 c-9 -9 -13 -19 -10 -22 3 -3 11 0 17 6 7 7 18 12 25 12
    23 0 14 -35 -17 -65 -42 -40 -39 -55 10 -55 22 0 40 5 40 10 0 6 -15 10 -32
    10 l-33 1 33 28 c36 31 42 65 13 81 -25 13 -27 13 -46 -6z"/>
    <path d="M6874 3735 l-19 -15 33 6 32 7 0 -18 c0 -9 -9 -19 -20 -22 -11 -3
    -20 -9 -20 -14 0 -5 9 -9 20 -9 14 0 20 -7 20 -21 l0 -21 -30 6 c-36 7 -41
    -11 -5 -20 40 -10 55 10 50 69 -5 64 -24 80 -61 52z"/>
    <path d="M6982 3734 c-38 -27 -23 -124 19 -124 34 0 49 22 49 70 0 39 -4 52
    -19 60 -25 13 -22 13 -49 -6z m50 -29 c13 -30 -3 -75 -27 -75 -8 0 -17 11 -21
    25 -8 34 3 75 21 75 9 0 21 -11 27 -25z"/>
    <path d="M956 3574 c-30 -30 -6 -82 33 -71 17 4 21 2 19 -11 -2 -9 -17 -20
    -33 -24 l-30 -6 35 1 35 2 9 37 c17 68 -27 114 -68 72z m52 -28 c-2 -13 -10
    -21 -23 -21 -23 0 -33 34 -14 45 20 13 40 -1 37 -24z"/>
    <path d="M1058 3566 c-6 -14 -8 -32 -4 -41 l6 -17 15 12 c21 18 47 4 43 -22
    l-3 -23 -33 3 c-21 1 -31 -2 -27 -8 10 -16 61 -12 75 6 21 24 1 68 -33 72 -33
    4 -26 22 9 22 13 0 24 5 24 10 0 22 -60 10 -72 -14z"/>
    <path d="M3455 3570 c-3 -5 -1 -10 4 -10 16 0 14 -97 -1 -103 -7 -3 3 -5 22
    -5 19 0 29 2 23 5 -9 3 -13 26 -13 64 0 45 -3 59 -14 59 -8 0 -18 -4 -21 -10z"/>
    <path d="M3566 3571 c-4 -5 -2 -12 4 -16 15 -9 13 -92 -2 -98 -7 -3 3 -6 22
    -6 19 0 30 3 23 7 -6 4 -13 32 -15 61 -3 51 -18 75 -32 52z"/>
    <path d="M3665 3564 c-11 -12 -15 -30 -13 -63 l3 -46 34 0 c63 0 69 66 7 73
    -14 2 -26 7 -26 11 0 14 29 33 40 26 5 -3 10 -1 10 4 0 17 -37 13 -55 -5z m50
    -79 c0 -30 -39 -27 -43 3 l-4 24 24 -4 c15 -2 23 -10 23 -23z"/>
    <path d="M3132 3544 c-53 -37 -14 -92 70 -101 60 -6 158 27 158 53 0 20 -54
    18 -71 -2 -13 -16 -100 -16 -115 -1 -17 16 14 27 77 26 70 -1 98 9 85 30 -11
    18 -177 14 -204 -5z m41 -11 c-47 -32 -15 -64 65 -65 l47 0 -25 -10 c-31 -12
    -94 -1 -121 20 -25 21 -17 47 19 61 38 13 40 12 15 -6z"/>
    <path d="M2633 3475 l-122 -73 -78 19 -78 20 -13 -18 c-35 -48 -20 -93 30 -93
    11 0 18 -6 17 -12 -1 -7 -1 -47 0 -89 l1 -77 36 -6 c45 -9 90 6 183 61 58 34
    80 43 102 38 42 -9 69 10 69 48 1 18 7 43 15 57 22 39 20 162 -3 183 -25 23
    -22 24 -159 -58z m141 47 c17 -28 -232 -188 -309 -199 -25 -3 -45 -3 -45 0 0
    3 33 24 73 47 39 23 115 68 167 100 101 62 106 64 114 52z m7 -155 c-8 -8 -11
    4 -11 40 0 77 14 100 18 29 2 -32 -2 -64 -7 -69z m-31 31 l0 -52 -12 16 c-29
    36 -49 37 -100 6 l-48 -30 0 -44 c0 -32 5 -46 16 -51 12 -4 4 -13 -30 -34 -25
    -16 -48 -29 -51 -29 -3 0 -5 31 -5 69 l0 69 108 65 c59 36 110 66 115 66 4 1
    7 -22 7 -51z m-311 -2 l45 -12 -37 -22 c-26 -15 -46 -20 -67 -15 -38 7 -43 15
    -30 48 8 20 15 25 28 20 9 -4 37 -13 61 -19z m261 -31 c0 -7 -57 -35 -72 -35
    -7 0 1 9 17 20 28 19 55 26 55 15z m-70 -81 c0 -13 -4 -24 -10 -24 -5 0 -10
    14 -10 31 0 17 4 28 10 24 6 -3 10 -17 10 -31z m41 27 c-8 -5 -12 -18 -8 -30
    3 -12 1 -21 -4 -21 -5 0 -9 14 -9 30 0 22 5 30 18 30 13 0 14 -2 3 -9z m-247
    -7 c12 -5 16 -21 16 -74 l0 -68 -20 5 -20 5 0 69 c0 38 2 69 4 69 2 0 11 -3
    20 -6z m86 -64 c0 -38 -4 -70 -9 -70 -5 0 -16 -3 -25 -6 l-16 -6 0 70 c0 69 5
    79 38 81 8 1 12 -19 12 -69z m201 32 c-7 -2 -18 1 -23 6 -8 8 -4 9 13 5 13 -4
    18 -8 10 -11z"/>
    <path d="M6858 3529 l-18 -10 0 -139 0 -140 -86 -57 c-169 -113 -169 -113
    -169 -136 0 -30 36 -34 81 -8 19 12 43 21 52 21 31 0 192 102 208 131 15 29
    15 313 0 337 -9 15 -45 15 -68 1z m62 -177 c0 -159 -1 -161 -88 -215 -68 -42
    -77 -44 -86 -19 -3 9 -8 22 -11 27 -3 6 24 25 60 44 l65 34 0 134 0 133 30 0
    30 0 0 -138z m-180 -260 l0 -16 -15 20 c-19 25 -19 40 0 24 8 -7 15 -20 15
    -28z m-37 6 c4 -14 -39 -48 -60 -48 -23 0 -13 29 15 44 34 19 39 19 45 4z
    m-83 -59 c0 -5 -4 -9 -10 -9 -5 0 -10 7 -10 16 0 8 5 12 10 9 6 -3 10 -10 10
    -16z"/>
    <path d="M1337 3512 c-21 -23 -21 -36 -1 -57 11 -11 25 -14 41 -10 l24 6 -11
    -21 c-6 -12 -21 -20 -36 -20 -14 0 -22 -4 -19 -10 18 -30 68 3 80 53 15 57
    -42 99 -78 59z m58 -27 c0 -13 -8 -21 -22 -23 l-23 -3 0 26 0 26 23 -3 c14 -2
    22 -10 22 -23z"/>
    <path d="M1446 3514 c-33 -32 -8 -82 34 -69 l22 7 -4 -19 c-2 -12 -12 -18 -31
    -18 -29 1 -32 -18 -3 -23 49 -10 82 103 37 128 -27 14 -37 13 -55 -6z m51 -15
    c16 -16 5 -39 -17 -39 -23 0 -34 16 -26 35 6 18 28 19 43 4z"/>
    <path d="M3033 3280 c-18 -11 -35 -31 -39 -45 -7 -30 -9 -30 -96 -6 -38 10
    -68 15 -68 10 0 -7 57 -26 130 -44 l26 -6 -4 -134 -4 -135 16 -6 c23 -9 75 15
    88 40 16 30 24 297 9 324 -14 27 -18 27 -58 2z m47 -41 c0 -22 -7 -32 -25 -41
    l-26 -12 3 -100 3 -101 21 1 c29 1 20 -30 -12 -45 -45 -20 -46 -18 -42 140 l3
    151 28 24 c34 29 47 24 47 -17z m0 -139 l0 -90 -15 0 -15 0 0 83 c0 46 3 87 7
    90 18 18 23 0 23 -83z"/>
    <path d="M3242 3229 l-23 -20 3 -116 3 -116 40 -13 c22 -7 59 -18 83 -24 48
    -12 56 -30 13 -30 -39 0 -53 -20 -49 -71 l3 -43 30 -8 c33 -8 127 28 151 60
    10 12 13 58 14 163 l0 147 -17 20 c-12 13 -54 30 -114 46 -116 31 -110 31
    -137 5z m136 -20 c105 -26 112 -31 112 -80 l0 -38 -43 -26 c-24 -14 -57 -25
    -73 -24 l-29 1 25 7 25 8 -25 5 -25 5 28 2 c32 1 78 23 97 46 l13 15 -17 19
    c-9 10 -56 28 -104 41 -84 22 -125 40 -89 40 10 0 57 -10 105 -21z m-14 -37
    c44 -15 82 -32 84 -39 4 -15 -56 -53 -73 -47 -6 3 -24 0 -38 -5 l-27 -11 0
    -39 c0 -43 18 -61 59 -61 12 0 21 -4 21 -10 0 -13 -4 -13 -82 7 l-68 17 0 108
    0 108 23 -1 c12 0 58 -12 101 -27z m126 -207 l0 -105 -47 -31 c-58 -36 -106
    -37 -111 -1 l-3 22 31 0 c17 0 42 7 55 16 l25 16 0 57 c0 68 -3 73 -38 60 -32
    -12 -72 -4 -72 16 0 11 8 13 29 9 19 -4 43 2 77 20 27 14 50 25 52 26 1 0 2
    -47 2 -105z m-70 -20 c0 -19 -4 -35 -10 -35 -11 0 -14 53 -3 63 11 12 13 8 13
    -28z"/>
    <path d="M2156 3203 c-33 -48 -34 -73 -2 -73 13 0 26 -6 29 -12 3 -9 9 -7 20
    7 9 11 11 22 6 23 -5 2 -9 21 -9 42 0 53 -14 57 -44 13z m24 -28 c0 -16 -6
    -25 -15 -25 -18 0 -18 5 -5 31 14 26 20 24 20 -6z"/>
    <path d="M2246 3218 c-32 -46 -13 -108 33 -108 48 0 68 73 31 110 -26 26 -45
    25 -64 -2z m52 -42 c4 -46 -10 -65 -33 -46 -15 13 -21 71 -8 84 18 18 38 -1
    41 -38z"/>
    <path d="M2739 3134 l-14 -17 33 7 32 8 0 -21 c0 -15 -6 -21 -21 -21 -11 0
    -17 -4 -14 -10 3 -5 15 -10 26 -10 14 0 19 -5 17 -17 -3 -13 -13 -18 -36 -17
    -17 1 -29 -2 -26 -7 8 -14 60 -10 74 6 6 8 8 19 4 26 -4 6 -7 28 -8 48 l-1 36
    -26 3 c-15 2 -32 -4 -40 -14z"/>
    <path d="M2840 3140 c0 -5 11 -10 25 -10 31 0 32 -17 5 -70 -11 -22 -16 -40
    -10 -40 11 0 60 92 60 115 0 11 -11 15 -40 15 -22 0 -40 -4 -40 -10z"/>
    <path d="M3550 3103 c0 -5 69 -28 153 -51 83 -22 202 -54 262 -71 119 -33 134
    -36 119 -22 -12 12 -141 50 -344 102 -91 23 -171 44 -177 46 -7 3 -13 1 -13
    -4z"/>
    <path d="M2651 2943 l-22 -18 3 -134 3 -135 85 -23 c47 -13 127 -35 179 -48
    l94 -24 29 15 c19 10 28 22 28 40 l0 25 38 -2 c45 -3 62 5 62 32 0 10 4 19 9
    19 19 0 23 41 7 59 -9 10 -16 25 -16 34 0 22 -17 30 -62 29 l-38 -2 0 20 c0
    31 -33 45 -206 89 -189 48 -167 45 -193 24z m144 -28 c122 -31 197 -55 210
    -66 14 -14 0 -11 -119 22 -61 17 -135 38 -163 46 -51 14 -67 23 -40 23 7 0 57
    -11 112 -25z m98 -62 l97 -26 0 -28 c0 -32 14 -39 85 -39 l52 0 7 -41 c9 -58
    -3 -69 -80 -69 l-64 0 0 -29 c0 -37 -11 -44 -47 -30 -15 6 -81 24 -146 40 -65
    16 -127 34 -138 39 l-19 11 0 113 c0 62 2 115 6 118 3 3 37 -3 77 -14 40 -11
    116 -31 170 -45z m135 -40 c-5 -25 -28 -28 -28 -4 0 12 6 21 16 21 9 0 14 -7
    12 -17z m45 -30 c-7 -2 -21 -2 -30 0 -10 3 -4 5 12 5 17 0 24 -2 18 -5z m-53
    -170 c0 -20 -3 -24 -11 -16 -7 7 -9 19 -6 27 10 24 17 19 17 -11z"/>
    <path d="M2690 2870 c0 -5 7 -10 16 -10 11 0 15 -6 11 -20 -3 -12 0 -20 8 -20
    20 0 26 28 9 45 -17 17 -44 20 -44 5z"/>
    <path d="M2810 2760 c0 -5 5 -9 11 -7 6 1 14 -4 16 -10 3 -7 0 -13 -6 -13 -6
    0 -11 -4 -11 -10 0 -5 7 -10 15 -10 10 0 15 10 15 30 0 23 -4 30 -20 30 -11 0
    -20 -4 -20 -10z"/>
    <path d="M2697 2724 c-4 -4 1 -13 11 -20 l17 -14 -14 -9 c-8 -5 -9 -11 -3 -15
    17 -10 37 23 26 42 -12 19 -27 25 -37 16z"/>
    <path d="M6546 2751 c-20 -22 -18 -60 4 -72 8 -5 40 -15 71 -24 l57 -15 6 -25
    c13 -53 94 -60 130 -12 29 39 30 132 2 153 -26 19 -85 18 -92 -1 -8 -19 -36
    -19 -98 0 -61 19 -59 19 -80 -4z m221 -5 c-4 -11 1 -14 21 -13 l27 2 3 -45 c2
    -29 -3 -52 -12 -65 l-15 -20 -1 26 c0 14 6 31 12 37 9 9 10 15 2 20 -6 4 -14
    14 -17 22 -3 9 -6 4 -6 -12 -1 -15 -8 -33 -16 -42 -19 -18 -19 -26 -1 -26 19
    0 30 -32 14 -42 -21 -12 -40 22 -33 60 4 19 2 32 -5 32 -5 0 -10 -18 -10 -40
    0 -38 -12 -52 -25 -29 -12 18 5 96 26 123 22 28 45 35 36 12z m-199 -29 c-7
    -14 -13 -17 -16 -9 -6 19 6 44 18 37 7 -4 6 -14 -2 -28z m47 -4 c-8 -35 -13
    -39 -26 -26 -8 8 -8 17 0 32 17 31 35 27 26 -6z m41 1 c-3 -9 -6 -22 -6 -30 0
    -8 -4 -14 -10 -14 -11 0 -14 43 -3 53 12 13 25 7 19 -9z m30 -30 c-5 -19 -10
    -24 -17 -17 -8 8 -7 18 1 33 15 28 24 19 16 -16z"/>
    <path d="M3385 2680 c-20 -23 -14 -26 15 -8 15 9 22 10 31 1 8 -8 2 -20 -25
    -47 -48 -49 -47 -66 3 -66 22 0 43 5 46 10 4 6 -7 10 -24 10 -37 0 -40 14 -6
    36 33 22 42 54 19 71 -25 18 -38 16 -59 -7z"/>
    <path d="M3490 2685 l-12 -15 31 6 c37 8 45 -20 9 -32 l-23 -7 23 -8 c27 -10
    31 -49 4 -49 -10 0 -23 5 -30 12 -9 9 -12 8 -12 -4 0 -22 34 -32 59 -19 l20
    11 -1 51 c-2 62 -37 91 -68 54z"/>
    <path d="M2663 2494 c-13 -6 -18 -34 -7 -34 4 0 12 7 19 17 13 17 35 10 35
    -11 0 -7 -13 -25 -30 -41 -42 -40 -39 -55 11 -55 24 0 38 4 34 10 -3 6 -18 10
    -33 10 l-26 0 32 30 c40 37 41 74 2 77 -14 1 -31 -1 -37 -3z"/>
    <path d="M2762 2480 c-37 -60 20 -144 66 -98 16 16 16 90 0 106 -18 18 -52 14
    -66 -8z m56 -43 l3 -47 -20 0 c-26 0 -38 42 -22 77 17 37 36 23 39 -30z"/>
    <path d="M6688 2476 c-10 -7 -18 -19 -18 -26 0 -9 6 -8 20 5 18 17 50 15 50
    -3 0 -4 -16 -23 -35 -42 -46 -45 -45 -60 5 -60 22 0 40 5 40 10 0 6 -15 10
    -32 10 l-33 1 33 27 c35 30 44 75 16 86 -21 8 -26 7 -46 -8z"/>
    <path d="M6792 2478 c-19 -19 -14 -30 8 -18 21 11 40 6 40 -11 0 -5 -10 -13
    -22 -18 l-22 -8 22 -12 c12 -6 22 -19 22 -27 l0 -16 -37 6 -38 6 19 -15 c23
    -18 31 -18 56 -5 15 8 18 20 17 60 -3 62 -33 90 -65 58z"/>
    <path d="M6902 2478 c-18 -18 -14 -30 7 -19 14 8 22 7 32 -5 l12 -15 -21 -6
    c-28 -7 -28 -19 -1 -26 34 -9 16 -32 -22 -30 l-34 1 19 -14 c11 -8 25 -14 32
    -14 21 0 46 31 38 49 -4 9 -6 27 -5 40 2 42 -31 65 -57 39z"/>
    <path d="M8258 2074 c3 -41 1 -59 -9 -65 -10 -6 -3 -9 21 -9 26 0 31 3 22 12
    -7 7 -12 36 -12 65 0 37 -4 53 -13 53 -10 0 -13 -14 -9 -56z"/>
    <path d="M8347 2123 c-4 -3 -7 -20 -7 -36 l0 -29 18 7 c31 12 36 10 40 -14 5
    -33 -11 -46 -38 -31 l-22 12 4 -14 c3 -7 19 -14 36 -16 l32 -3 12 25 11 26
    -18 20 c-10 11 -26 20 -37 20 -32 0 -20 28 15 33 l32 4 -36 1 c-20 1 -39 -1
    -42 -5z"/>
    <path d="M3258 1973 c-20 -5 -33 -44 -24 -69 4 -10 7 -102 7 -206 l0 -189 25
    -11 25 -12 -3 -218 c-2 -169 0 -218 10 -218 6 0 12 3 12 8 0 4 19 16 41 27 23
    10 43 25 46 31 9 23 -16 52 -51 58 -38 7 -59 26 -29 26 10 0 35 -5 56 -11 l38
    -10 -3 -47 -3 -46 -40 -23 c-25 -15 -53 -22 -75 -21 l-35 3 3 19 4 20 -16 -13
    c-37 -31 -5 -101 46 -101 10 0 18 -4 18 -10 0 -14 -26 -12 -90 9 l-55 17 0
    104 1 105 19 -1 c11 0 32 -3 48 -7 15 -4 27 -3 27 2 0 6 -16 13 -35 17 -19 3
    -35 11 -35 16 0 6 14 8 35 4 19 -4 35 -3 35 2 0 18 -62 23 -87 7 l-23 -15 0
    -125 0 -124 43 -11 c23 -6 59 -16 80 -21 39 -10 51 -29 18 -29 -42 0 -51 -10
    -51 -61 l0 -49 25 -12 c31 -14 82 1 133 39 l32 24 0 163 c0 183 3 176 -75 198
    l-50 14 -3 132 c-2 81 1 132 7 132 36 0 59 126 31 170 -5 8 -5 19 -1 25 5 5
    11 70 14 143 l5 133 -18 9 c-19 10 -51 11 -82 3z m72 -23 c0 -5 -16 -10 -35
    -10 -19 0 -35 5 -35 10 0 6 16 10 35 10 19 0 35 -4 35 -10z m10 -39 c0 -14
    -40 -20 -66 -11 -36 14 -29 20 21 20 25 0 45 -4 45 -9z m-20 -126 l0 -95 -30
    0 -30 0 0 95 0 95 30 0 30 0 0 -95z m-8 -137 c-11 -11 -55 -1 -47 11 2 5 16 6
    30 3 17 -3 23 -8 17 -14z m8 -68 c0 -27 0 -53 0 -57 0 -5 -12 -8 -27 -8 l-28
    0 -3 58 -3 57 31 0 30 0 0 -50z m57 -447 c5 -14 -53 -46 -67 -38 -11 7 -14 58
    -4 68 9 8 67 -16 71 -30z m39 -136 c-3 -23 -5 -65 -5 -94 l-1 -52 -45 -26
    c-55 -33 -108 -32 -113 3 l-3 22 34 0 c20 0 46 9 61 21 l26 20 0 60 c0 63 -1
    65 -32 48 -26 -14 -88 -3 -88 16 0 10 9 12 33 9 22 -4 46 2 77 19 l45 24 8
    -13 c4 -8 6 -33 3 -57z m-66 -52 c0 -19 -4 -35 -10 -35 -11 0 -14 53 -3 63 11
    12 13 8 13 -28z m-25 -65 c-3 -5 -11 -10 -16 -10 -6 0 -7 5 -4 10 3 6 11 10
    16 10 6 0 7 -4 4 -10z"/>
    <path d="M3442 1948 c-19 -19 -14 -29 8 -16 15 10 22 10 32 0 9 -9 4 -20 -25
    -50 -47 -49 -47 -52 11 -50 36 1 39 2 15 5 -41 5 -41 13 -3 41 42 32 36 82
    -10 82 -9 0 -21 -5 -28 -12z"/>
    <path d="M3540 1950 c0 -5 11 -10 25 -10 30 0 30 3 5 -56 -11 -26 -18 -49 -15
    -52 6 -7 5 -9 37 59 15 32 24 60 21 63 -10 10 -73 7 -73 -4z"/>
    <path d="M6653 1700 c-73 -11 -92 -42 -48 -82 l24 -23 3 -100 3 -100 28 -3
    c49 -6 57 11 57 114 l0 94 25 10 c26 10 36 62 15 75 -24 15 -67 21 -107 15z
    m82 -26 c29 -19 32 -39 8 -48 -19 -8 -34 10 -26 31 3 9 -3 13 -20 13 -14 0
    -33 3 -43 7 -13 5 -16 3 -11 -10 3 -9 2 -17 -3 -17 -6 0 -10 -5 -10 -11 0 -6
    11 -8 28 -4 21 4 33 1 43 -11 l14 -17 -43 5 c-69 10 -95 44 -49 66 33 16 84
    14 112 -4z m-35 -84 c0 -5 -9 -10 -19 -10 -11 0 -23 5 -26 10 -4 6 5 10 19 10
    14 0 26 -4 26 -10z m0 -37 c0 -7 -11 -13 -25 -13 -14 0 -25 6 -25 13 0 6 11
    12 25 12 14 0 25 -6 25 -12z m-2 -45 c-3 -7 -13 -13 -23 -13 -10 0 -20 6 -22
    13 -3 7 5 12 22 12 17 0 25 -5 23 -12z m2 -39 c0 -14 -20 -20 -40 -14 -30 9
    -24 22 10 22 17 0 30 -4 30 -8z m-2 -41 c-3 -7 -15 -13 -28 -13 -13 0 -25 6
    -27 13 -3 8 6 12 27 12 21 0 30 -4 28 -12z"/>
    <path d="M6845 1550 c-20 -23 -14 -26 15 -8 15 10 22 10 32 0 9 -9 4 -20 -25
    -50 -20 -21 -37 -43 -37 -50 0 -15 76 -17 85 -2 4 6 -9 10 -31 10 l-38 0 37
    34 c41 38 44 47 21 70 -21 21 -37 20 -59 -4z"/>
    <path d="M6965 1527 c-31 -53 -31 -67 -4 -67 12 0 27 -7 33 -15 l11 -15 12 25
    c6 14 7 25 2 25 -5 0 -9 20 -9 45 0 56 -12 57 -45 2z m25 -22 c0 -16 -6 -25
    -15 -25 -18 0 -19 4 -3 30 16 26 18 25 18 -5z"/>
    <path d="M7062 1558 c-7 -7 -12 -18 -12 -26 0 -10 3 -10 16 2 43 44 52 3 10
    -44 -46 -51 -45 -60 4 -60 22 0 40 5 40 10 0 6 -14 10 -32 10 l-32 0 37 34
    c41 38 44 47 21 70 -19 19 -36 20 -52 4z"/>
    <path d="M2759 1503 l-30 -48 31 -3 c18 -2 30 -9 30 -18 0 -8 5 -14 10 -14 6
    0 10 6 10 14 0 8 6 17 13 19 10 4 10 6 0 6 -9 1 -13 17 -13 46 0 57 -13 57
    -51 -2z m31 -18 c0 -15 -6 -25 -15 -25 l-15 0 12 25 c6 14 13 25 15 25 1 0 3
    -11 3 -25z"/>
    <path d="M2850 1530 c-11 -20 3 -30 15 -10 8 13 45 13 45 0 0 -5 -16 -27 -35
    -49 -45 -49 -44 -51 13 -50 l47 2 -40 6 -40 6 32 24 c18 14 35 33 39 43 13 43
    -55 68 -76 28z"/>
    <path d="M3750 1467 c-46 -23 -36 -126 15 -149 l25 -11 55 27 55 27 0 37 c0
    59 -22 82 -78 82 -26 0 -58 -6 -72 -13z m76 -74 c3 -18 3 -41 -2 -50 -5 -13
    -9 -4 -14 32 -4 28 -10 59 -14 70 l-8 20 16 -19 c9 -11 19 -34 22 -53z m44 47
    c15 -28 9 -75 -9 -75 -8 0 -16 13 -18 29 -2 16 -9 38 -14 48 l-10 18 20 0 c11
    0 25 -9 31 -20z m-84 -25 c17 -41 18 -71 3 -81 -19 -11 -41 22 -46 70 l-6 46
    17 0 c10 0 23 -15 32 -35z"/>
    <path d="M3032 1430 c-9 -11 -19 -32 -22 -47 -4 -21 -21 -36 -73 -66 l-67 -39
    0 -28 c0 -60 46 -59 138 3 l42 28 34 -12 34 -12 25 16 c30 20 43 67 26 99 -37
    72 -101 99 -137 58z m92 -19 c37 -41 38 -111 1 -125 -21 -8 -53 8 -36 18 30
    19 -5 82 -40 73 -26 -7 -31 6 -13 31 19 27 65 29 88 3z m-46 -74 c5 -23 -10
    -21 -26 4 l-13 21 18 -4 c10 -2 19 -11 21 -21z m-38 -12 c12 -14 6 -35 -9 -35
    -4 0 -13 11 -19 25 -13 29 6 36 28 10z m-40 -24 c7 -14 7 -22 -1 -26 -11 -8
    -40 25 -33 37 9 14 23 9 34 -11z m-36 -27 c10 -26 -5 -39 -21 -19 -7 11 -13
    22 -13 27 0 15 28 8 34 -8z m-46 -16 c17 -17 15 -38 -3 -38 -16 0 -38 34 -28
    44 9 9 18 7 31 -6z"/>
    <path d="M6686 1308 l-86 -50 0 -48 0 -48 69 -21 c86 -26 91 -26 132 2 19 12
    55 35 82 50 l47 28 0 27 c-1 44 -38 79 -101 95 l-56 14 -87 -49z m157 13 c12
    -12 -124 -93 -142 -85 -11 4 -12 8 -3 11 20 7 14 21 -10 25 l-23 3 55 32 c52
    30 98 36 123 14z m57 -41 c0 -17 -133 -93 -148 -84 -24 16 -19 23 53 67 65 41
    95 46 95 17z m5 -49 c-11 -10 -46 -33 -79 -51 -81 -45 -67 -15 15 33 69 40 95
    48 64 18z m-212 -14 c39 -17 61 -42 54 -61 l-6 -14 -60 15 -61 15 0 29 c0 33
    20 38 73 16z"/>
    <path d="M6765 1310 c3 -5 15 -10 25 -10 10 0 22 5 25 10 4 6 -7 10 -25 10
    -18 0 -29 -4 -25 -10z"/>
    <path d="M7010 1351 c-8 -6 -11 -13 -7 -17 3 -4 13 -1 21 5 17 14 36 7 36 -13
    0 -6 -16 -27 -35 -46 -41 -40 -37 -51 18 -48 l42 1 -32 4 c-41 5 -41 9 -1 50
    l33 34 -11 17 c-13 20 -43 26 -64 13z"/>
    <path d="M7115 1351 c-3 -6 7 -9 22 -8 36 3 38 -24 3 -34 l-25 -6 28 -11 c15
    -6 27 -18 27 -26 0 -19 -30 -29 -47 -15 -15 13 -28 6 -18 -10 9 -16 61 -13 75
    4 10 12 10 22 2 39 -6 13 -7 29 -2 37 5 8 4 19 -2 26 -12 15 -54 17 -63 4z"/>
    <path d="M7220 1345 c-10 -12 -10 -19 -2 -27 8 -8 8 -15 1 -24 -6 -7 -9 -23
    -7 -36 l3 -23 40 0 c42 0 55 17 39 53 -3 9 -7 28 -8 42 -1 30 -45 40 -66 15z
    m50 -9 c0 -8 -5 -18 -11 -22 -14 -8 -33 11 -25 25 10 16 36 13 36 -3z m8 -69
    c4 -20 -25 -34 -40 -19 -15 15 -1 44 19 40 10 -2 19 -11 21 -21z"/>
    <path d="M3859 1210 c-13 -10 -19 -19 -13 -20 5 0 15 5 21 11 13 13 43 5 43
    -10 0 -6 -16 -25 -35 -42 -48 -44 -46 -59 11 -59 27 0 43 4 39 10 -3 6 -17 10
    -31 10 -31 0 -30 2 6 38 35 35 38 57 11 72 -26 13 -25 13 -52 -10z"/>
    <path d="M3968 1219 c-40 -23 -4 -91 39 -75 11 5 13 2 9 -10 -3 -8 -6 -18 -6
    -20 0 -2 -11 -4 -25 -4 -14 0 -25 -4 -25 -10 0 -17 46 -11 63 8 17 19 23 78 9
    98 -11 17 -45 24 -64 13z m47 -34 c0 -13 -8 -21 -22 -23 l-23 -3 0 26 0 26 23
    -3 c14 -2 22 -10 22 -23z"/>
    <path d="M4076 1218 c-3 -7 -7 -23 -9 -36 l-5 -23 28 6 c20 4 29 2 33 -9 15
    -38 -23 -61 -52 -33 l-13 12 4 -14 c7 -25 36 -37 56 -25 37 24 21 101 -20 91
    -11 -3 -18 0 -18 9 0 8 10 14 25 14 14 0 25 5 25 10 0 15 -50 12 -54 -2z"/>
    <path d="M2828 1209 c-14 -8 -18 -24 -18 -77 l0 -67 -30 -17 -30 -17 0 -108
    c0 -59 -3 -118 -6 -131 l-6 -22 34 -14 c60 -26 239 -67 259 -61 11 4 24 17 29
    30 l9 24 53 3 53 3 3 28 c2 15 8 27 13 27 5 0 9 -62 9 -145 0 -80 3 -145 8
    -145 4 1 23 9 42 19 l34 19 21 -14 c15 -10 30 -11 51 -5 16 4 38 5 50 1 36
    -14 79 13 92 57 7 23 18 46 26 52 17 14 10 44 -15 67 -14 12 -22 14 -32 6 -8
    -7 -29 -9 -51 -5 -49 8 -81 -10 -100 -56 -8 -21 -21 -43 -30 -50 -9 -8 -16
    -19 -16 -26 0 -6 -12 -18 -27 -26 -16 -7 -31 -15 -35 -17 -3 -2 -5 66 -5 151
    l2 155 -17 19 c-10 11 -18 25 -18 31 0 20 -38 33 -81 26 l-42 -7 6 31 c8 40 2
    44 -128 77 l-110 29 3 68 c3 48 8 71 18 75 15 5 20 23 7 23 -5 0 -16 -5 -25
    -11z m127 -210 c101 -36 50 -28 -70 11 -49 16 -72 26 -50 23 22 -3 76 -19 120
    -34z m-42 -16 l97 -26 0 -118 c0 -70 -4 -120 -10 -124 -6 -4 -29 0 -53 8 -23
    9 -63 21 -89 27 l-47 12 11 18 c6 9 8 25 5 34 -7 17 -47 23 -47 6 0 -5 9 -10
    20 -10 24 0 25 -6 6 -26 -31 -31 -36 -15 -36 112 l0 126 23 -7 c12 -3 66 -18
    120 -32z m131 -50 c0 -15 -5 -28 -11 -30 -5 -2 -8 9 -5 27 5 37 18 40 16 3z
    m76 -33 c0 -5 -15 -9 -32 -9 l-33 1 30 8 c17 4 31 8 33 9 1 0 2 -3 2 -9z m40
    0 c0 -5 -4 -10 -10 -10 -5 0 -10 5 -10 10 0 6 5 10 10 10 6 0 10 -4 10 -10z
    m-2 -82 l-3 -53 -64 0 -64 0 1 48 c0 26 1 49 1 52 1 3 30 5 67 5 l65 0 -3 -52z
    m-114 -89 c-3 -5 -10 -7 -15 -3 -5 3 -7 10 -3 15 3 5 10 7 15 3 5 -3 7 -10 3
    -15z m369 -36 c-7 -2 -19 -2 -25 0 -7 3 -2 5 12 5 14 0 19 -2 13 -5z m101 -10
    c9 -23 -12 -43 -24 -23 -5 8 -10 21 -10 28 0 18 27 15 34 -5z m-45 -17 c13
    -23 9 -46 -7 -46 -15 0 -41 59 -29 64 21 8 23 7 36 -18z m-74 8 c25 -10 47
    -62 40 -95 -9 -38 -26 -38 -19 1 8 36 -18 80 -46 80 -11 0 -20 5 -20 10 0 11
    20 13 45 4z m-11 -40 c9 -8 16 -26 16 -40 0 -29 -15 -32 -17 -3 -1 12 -10 30
    -19 40 -21 23 -2 26 20 3z m-14 -58 l0 -21 -20 33 c-25 41 -25 50 0 27 11 -10
    20 -28 20 -39z m-30 5 c7 -14 7 -22 0 -26 -13 -8 -40 13 -40 31 0 21 28 17 40
    -5z m130 -2 c-7 -11 -14 -19 -16 -16 -7 7 7 37 17 37 6 0 5 -9 -1 -21z"/>
    <path d="M2785 979 c-8 -25 3 -39 15 -19 5 8 12 11 16 7 4 -3 1 -13 -6 -22
    l-12 -15 16 0 c25 0 31 28 11 50 -23 25 -32 25 -40 -1z"/>
    <path d="M2857 894 c-14 -14 -7 -25 13 -19 22 7 26 -5 8 -23 -9 -9 -7 -12 11
    -12 l22 0 -3 28 c-3 26 -34 43 -51 26z"/>
    <path d="M3518 1200 c-26 -22 -18 -27 12 -7 l21 12 9 -15 c6 -10 -1 -25 -26
    -52 -45 -50 -43 -58 12 -58 27 0 43 4 39 10 -3 6 -17 10 -31 10 -31 0 -30 5 8
    39 34 30 34 52 -1 70 -15 8 -24 6 -43 -9z"/>
    <path d="M3633 1209 c-33 -12 -28 -20 7 -12 37 7 43 -23 8 -36 l-23 -9 28 -11
    c37 -15 29 -36 -13 -34 l-33 1 16 -15 c10 -10 24 -13 41 -9 l25 6 -1 56 c-2
    61 -17 78 -55 63z"/>
    <path d="M6770 1101 c-25 -15 -67 -40 -93 -56 -57 -31 -54 -38 29 -59 96 -25
    97 -24 264 82 l25 15 -70 23 c-90 30 -101 30 -155 -5z m122 -3 c32 -7 58 -15
    58 -18 0 -3 -36 -27 -79 -53 l-79 -47 -29 11 c-15 6 -22 13 -15 16 6 3 12 9
    12 14 0 13 -48 11 -52 -3 -3 -7 -12 -9 -23 -4 l-20 7 55 31 c30 17 64 37 75
    44 25 16 27 16 97 2z"/>
    <path d="M6830 1080 l-25 -7 17 -7 c9 -4 24 -3 34 2 22 12 5 21 -26 12z"/>
    <path d="M7275 1121 c-13 -12 -2 -21 25 -21 l30 0 -24 -54 c-13 -30 -21 -57
    -18 -61 6 -5 62 108 62 125 0 9 -68 19 -75 11z"/>
    <path d="M7065 1104 c-21 -21 -13 -29 14 -12 15 9 23 10 32 1 8 -8 1 -22 -27
    -52 -42 -47 -37 -64 17 -59 42 4 44 21 4 28 l-30 6 27 18 c33 21 44 52 28 71
    -16 20 -45 19 -65 -1z"/>
    <path d="M7186 1076 c-31 -54 -32 -56 -5 -56 12 0 27 -7 33 -15 l11 -15 13 20
    c7 12 8 20 2 20 -5 0 -10 20 -10 45 0 57 -11 57 -44 1z m24 -21 c0 -16 -6 -25
    -15 -25 -18 0 -19 4 -3 30 16 26 18 25 18 -5z"/>
    <path d="M6145 1020 c-19 -21 -8 -29 13 -8 8 8 15 8 27 -2 l16 -13 -41 -42
    c-22 -23 -37 -44 -34 -48 11 -11 84 -8 84 3 0 6 -14 10 -32 10 l-32 0 37 34
    c39 36 41 58 6 76 -23 13 -23 13 -44 -10z"/>
    <path d="M6258 1029 c-10 -5 -18 -17 -18 -26 l0 -16 19 17 c20 18 41 14 41 -8
    0 -6 -16 -27 -35 -46 -45 -44 -44 -50 10 -50 25 0 45 5 45 10 0 6 -15 10 -32
    10 l-33 1 33 28 c36 31 42 65 13 81 -23 12 -22 12 -43 -1z"/>
    <path d="M6357 1033 c-10 -9 -9 -73 1 -73 4 0 13 5 19 11 16 16 33 2 33 -28
    l0 -25 -30 6 c-36 7 -41 -11 -5 -20 33 -8 55 11 55 47 0 30 -24 50 -49 41 -8
    -3 -12 1 -9 9 3 8 17 15 31 17 15 2 25 8 22 13 -7 10 -58 12 -68 2z"/>
    <path d="M3540 1012 c0 -5 24 -14 53 -21 117 -30 386 -103 441 -122 67 -22 76
    -23 76 -10 0 12 -22 18 -245 76 -99 25 -189 50 -200 55 -64 27 -125 38 -125
    22z"/>
    <path d="M2507 954 c-4 -4 -7 -14 -7 -22 l0 -15 19 17 c20 18 41 14 41 -8 0
    -6 -16 -27 -35 -46 -46 -44 -44 -50 13 -48 36 1 39 2 15 5 -41 5 -41 9 -1 50
    l33 34 -11 17 c-11 18 -55 28 -67 16z"/>
    <path d="M2612 948 c-17 -17 -15 -84 4 -102 36 -37 74 -8 74 56 0 52 -45 79
    -78 46z m58 -24 c7 -18 7 -34 -3 -52 -16 -34 -29 -34 -41 -1 -20 58 23 110 44
    53z"/>
    <path d="M5610 611 c0 -6 5 -13 10 -16 6 -3 10 -24 10 -46 0 -21 -4 -39 -10
    -39 -5 0 -10 -4 -10 -10 0 -5 12 -10 27 -10 21 0 24 3 15 12 -7 7 -12 36 -12
    65 0 40 -4 53 -15 53 -8 0 -15 -4 -15 -9z"/>
    <path d="M5707 602 c-33 -37 -15 -112 27 -112 32 0 50 25 49 66 -2 60 -42 84
    -76 46z m59 -26 c13 -54 -27 -97 -48 -52 -6 14 -8 36 -4 50 8 34 43 35 52 2z"/>
    <path d="M3380 430 c0 -6 10 -8 25 -4 33 8 35 -23 3 -35 l-23 -8 23 -7 c27 -9
    30 -46 4 -46 -10 0 -23 5 -30 12 -9 9 -12 8 -12 -4 0 -17 20 -28 50 -28 25 0
    45 36 31 54 -6 7 -9 25 -8 42 l2 29 -32 3 c-19 2 -33 -1 -33 -8z"/>
    <path d="M3485 430 c-10 -17 3 -26 17 -12 7 7 18 12 25 12 25 0 13 -34 -23
    -66 -20 -18 -33 -38 -29 -44 8 -13 85 -13 85 0 0 6 -14 10 -32 10 l-32 0 33
    34 c41 42 39 70 -6 74 -17 2 -34 -2 -38 -8z"/>
    </g>
  </g>
  <g id="labels" font-family="Helvetica, Arial, sans-serif" fill="#111" font-size="14"></g>
</svg>
