<svg xmlns="http://www.w3.org/2000/svg" width="960" height="640" viewBox="0 0 960 640" role="img" aria-labelledby="title desc">
  <title id="title">Mercedes parts diagram: group-010</title>
  <desc id="desc">Mercedes parts diagram: group-010</desc>
  <g id="art">
    <metadata>
    Created by potrace 1.16, written by Peter Selinger 2001-2019
    </metadata>
    <g transform="translate(0.000000,640.000000) scale(0.100000,-0.100000)"
    fill="#000000" stroke="none">
    <path d="M7580 6333 c-51 -9 -197 -56 -265 -86 l-70 -30 -820 -6 c-503 -4
    -820 -10 -820 -15 0 -11 1149 -10 1423 1 118 4 162 3 162 -6 0 -6 -4 -11 -9
    -11 -24 0 -104 -78 -149 -144 -37 -57 -53 -91 -62 -141 -9 -50 -18 -70 -39
    -86 -14 -11 -39 -39 -54 -62 l-28 -41 2 -81 c2 -99 -9 -171 -27 -186 -20 -16
    -17 -63 4 -82 36 -33 62 -16 62 38 0 41 11 55 41 55 36 0 36 -5 2 -34 l-27
    -23 -3 -64 -4 -64 23 -40 c13 -22 40 -49 60 -60 l37 -19 48 12 c60 16 94 39
    113 78 l15 30 100 -24 c55 -14 102 -27 104 -29 6 -4 -21 -41 -257 -358 -183
    -246 -267 -359 -616 -824 -81 -107 -146 -199 -146 -205 1 -12 50 42 78 84 9
    14 91 124 182 245 309 411 485 647 545 730 33 46 80 109 104 142 25 32 89 119
    144 193 197 266 250 335 268 349 28 20 25 53 -3 49 -16 -2 -24 -11 -26 -28 -2
    -14 -59 -101 -128 -193 l-125 -168 -32 6 c-18 4 -47 11 -64 16 l-33 11 0 29 0
    30 20 -6 c11 -3 20 -2 20 3 0 5 -9 12 -20 15 -11 3 -20 10 -20 17 0 7 8 9 20
    5 11 -4 20 -2 20 4 0 6 -9 11 -20 11 l-20 0 0 55 0 55 22 0 22 0 -20 15 -19
    15 15 10 15 10 -15 10 c-8 5 -20 10 -27 10 -6 0 -18 3 -27 6 -9 3 -16 1 -16
    -5 0 -6 12 -16 26 -21 29 -11 24 -31 -6 -23 -11 3 -20 0 -20 -6 0 -6 7 -11 15
    -11 11 0 15 -12 15 -49 l0 -50 -22 -4 -23 -3 28 -12 c38 -16 35 -35 -4 -27
    -22 5 -29 4 -25 -4 4 -6 16 -11 27 -11 14 0 19 -7 19 -30 0 -35 5 -34 -70 -13
    l-60 16 -7 26 c-10 44 -43 105 -68 126 -14 12 -25 34 -27 55 l-3 35 23 -1 c27
    -1 29 12 2 19 -22 6 -28 27 -7 27 8 0 8 3 -2 9 l-15 9 12 136 c13 145 18 166
    36 166 6 -1 56 -11 111 -24 l100 -22 2 -25 3 -24 -11 21 c-12 23 -152 61 -194
    53 l-20 -4 -8 -104 c-9 -125 -12 -121 100 -148 l82 -20 16 17 c10 11 16 39 17
    81 l2 64 6 -70 6 -70 2 46 c1 25 5 80 8 122 l7 77 -18 0 c-10 0 -16 2 -13 5 5
    5 128 -20 268 -56 47 -11 153 -36 235 -55 83 -19 219 -50 303 -70 l152 -37 0
    -46 c0 -25 3 -147 7 -270 l6 -223 -19 5 c-10 3 -57 15 -103 27 l-83 21 -25
    -16 c-14 -9 -31 -32 -39 -51 -8 -19 -15 -34 -17 -34 -1 0 -36 10 -77 21 -165
    45 -425 108 -429 104 -8 -8 1 -11 94 -34 50 -12 97 -24 105 -26 189 -52 322
    -84 333 -79 10 3 13 -8 14 -44 2 -148 177 -246 229 -128 l13 31 1 -306 c0
    -356 10 -729 20 -729 3 0 4 227 2 504 l-5 505 36 14 c19 9 39 23 44 32 l10 16
    143 -36 c80 -21 177 -48 217 -61 113 -37 165 -27 232 44 32 34 164 119 306
    197 28 16 59 34 70 41 11 8 32 14 47 14 l27 0 3 -177 c2 -98 5 -328 6 -512 1
    -184 5 -337 7 -340 3 -2 5 235 5 527 0 293 4 532 8 532 22 0 43 96 25 114 -5
    4 -8 110 -9 234 0 275 -13 370 -55 412 -41 41 -62 47 -404 120 -42 9 -474 105
    -660 146 -60 13 -175 38 -255 54 -80 17 -180 39 -222 50 -73 19 -199 25 -268
    13z m315 -42 c195 -39 347 -71 356 -76 3 -3 114 -27 245 -54 132 -27 268 -57
    304 -66 82 -22 189 -45 355 -79 173 -36 189 -41 225 -82 54 -62 17 -107 -171
    -213 -63 -35 -121 -69 -129 -76 -43 -36 -172 -95 -207 -95 -41 0 -245 42 -461
    94 -73 18 -135 29 -138 24 -7 -10 -3 -11 136 -42 63 -14 176 -39 250 -57 74
    -17 163 -33 198 -36 l62 -5 -1 -191 c-1 -106 -4 -230 -7 -276 l-7 -85 -35 -20
    c-18 -11 -52 -23 -75 -26 -32 -4 -41 -10 -43 -27 -2 -13 -5 -23 -7 -23 -8 0
    -372 91 -402 101 -24 8 -35 19 -44 47 -6 20 -16 39 -20 42 -10 7 -13 654 -4
    692 5 19 2 27 -11 32 -24 9 -53 -19 -36 -36 13 -13 17 -68 4 -68 -11 0 -313
    67 -387 86 -33 8 -157 37 -275 64 -118 28 -242 57 -275 65 -33 9 -100 26 -150
    38 l-90 22 -9 27 -10 28 41 47 c22 27 58 62 81 78 22 17 41 36 41 43 1 15 212
    17 241 2 13 -7 21 -5 31 6 l12 15 -16 17 c-13 13 -19 14 -29 4 -7 -7 -39 -12
    -77 -12 -78 0 -71 8 42 46 180 60 284 65 492 25z m-855 -326 c9 -8 41 -24 71
    -34 30 -11 47 -20 39 -20 -8 0 -32 6 -52 13 l-37 13 -6 -18 c-3 -10 -12 -81
    -19 -159 -8 -77 -16 -144 -20 -147 -3 -3 0 -13 7 -21 8 -11 9 -16 1 -19 -7 -2
    -10 -20 -6 -49 l5 -45 -50 7 -50 6 -22 -23 c-11 -12 -21 -26 -21 -31 0 -4 -4
    -8 -10 -8 -5 0 -10 9 -10 20 0 11 5 20 10 20 6 0 10 7 10 15 0 8 -4 15 -9 15
    -11 0 -1 43 12 51 5 4 2 18 -8 33 -23 34 -16 40 24 20 18 -9 35 -14 37 -11 3
    3 -10 13 -30 22 -20 10 -36 24 -36 32 l0 14 22 -15 c37 -26 44 -18 11 12 -39
    33 -36 66 9 109 l31 28 -7 -39 -7 -38 22 -24 c44 -47 46 -44 70 149 9 73 9
    101 0 110 -25 25 -8 36 19 12z m-41 -145 c-10 -58 -18 -111 -19 -119 l0 -13
    -16 13 c-18 15 -15 65 10 140 7 24 17 57 20 73 4 16 11 25 16 20 4 -5 0 -56
    -11 -114z m204 83 c-7 -2 -19 -2 -25 0 -7 3 -2 5 12 5 14 0 19 -2 13 -5z m-5
    -44 l64 -11 -4 -103 c-1 -57 -6 -106 -9 -109 -3 -3 -41 4 -85 16 l-79 23 -3
    30 -3 31 86 38 c47 22 85 43 85 47 0 16 -23 9 -87 -26 -35 -19 -68 -35 -73
    -35 -11 0 -13 43 -4 90 l7 32 21 -6 c12 -3 50 -11 84 -17z m2226 -103 l7 -69
    -15 12 c-8 7 -19 10 -24 7 -20 -12 -24 82 -5 108 24 32 29 24 37 -58z m-61
    -58 c4 -46 7 -163 7 -260 l0 -177 -27 -19 c-38 -25 -141 -82 -150 -82 -5 0 -8
    120 -7 266 l1 266 74 44 c41 23 79 43 85 44 7 0 14 -33 17 -82z m-189 -144 c4
    -64 4 -183 0 -265 l-7 -150 -107 -64 c-106 -64 -148 -79 -137 -51 3 7 9 128
    13 268 l7 255 101 60 c56 34 106 62 112 62 7 1 14 -40 18 -115z m255 -16 l-2
    -123 -9 110 c-8 102 -6 135 7 135 3 0 4 -55 4 -122z m-32 20 c-3 -7 -5 -2 -5
    12 0 14 2 19 5 13 2 -7 2 -19 0 -25z m-2374 -100 l40 -12 23 -50 c13 -28 24
    -58 23 -66 0 -8 -6 -1 -12 15 -29 73 -55 96 -134 114 l-38 9 29 1 c16 1 47 -4
    69 -11z m2374 -130 c-2 -29 -3 -8 -3 47 0 55 1 79 3 53 2 -26 2 -71 0 -100z
    m-2352 78 c13 -13 29 -42 35 -65 6 -22 18 -44 27 -49 12 -7 14 -18 9 -46 -10
    -51 -37 -76 -85 -76 l-39 0 -35 39 c-63 70 -60 172 6 205 43 21 54 20 82 -8z
    m-189 2 c11 -17 12 -48 3 -48 -12 0 -39 42 -33 52 7 12 22 10 30 -4z m2594
    -140 c-1 -13 -7 -34 -15 -48 l-14 -25 -1 48 c0 35 4 47 15 47 9 0 15 -9 15
    -22z m-2287 6 c19 -7 11 -37 -16 -61 l-20 -18 6 25 c4 14 7 33 7 43 0 19 2 20
    23 11z m2235 -56 c-2 -21 -8 -33 -18 -33 -19 0 -26 45 -8 56 23 15 29 10 26
    -23z m-50 -19 c-2 -13 -21 -31 -48 -46 -25 -14 -56 -33 -70 -43 -14 -9 -78
    -47 -144 -84 l-119 -68 -13 14 -14 13 78 46 c229 138 318 189 325 189 5 0 7
    -9 5 -21z m-1209 -60 c97 -27 111 -39 110 -98 l0 -46 -10 25 c-13 32 -56 78
    -91 96 -37 19 -68 17 -98 -6 -45 -35 -67 -18 -34 28 19 27 29 27 123 1z m39
    -61 c53 -50 71 -158 31 -194 -86 -78 -231 76 -174 186 24 46 97 50 143 8z
    m111 -98 c0 -19 -4 -42 -9 -50 -7 -10 -10 6 -9 55 0 72 17 67 18 -5z m41 -30
    c-9 -17 -30 -28 -30 -16 0 16 15 36 26 36 12 0 12 -4 4 -20z m610 -15 l0 -24
    -64 -31 -64 -30 -26 10 c-14 5 -26 15 -26 22 0 22 16 39 31 33 8 -3 41 8 74
    24 66 31 75 31 75 -4z"/>
    <path d="M8829 5310 c-14 -113 -24 -207 -22 -209 12 -16 23 34 38 169 26 246
    14 276 -16 40z"/>
    <path d="M8813 5062 c-18 -2 -33 -6 -33 -10 -1 -4 -5 -26 -9 -49 -10 -54 -2
    -67 37 -58 32 7 36 13 46 77 7 41 4 45 -41 40z m22 -24 c10 -26 -11 -73 -33
    -76 -25 -4 -29 18 -12 62 10 27 37 35 45 14z"/>
    <path d="M3105 6254 c-132 -10 -375 -46 -430 -64 -16 -6 -91 -26 -165 -46
    -198 -52 -507 -159 -638 -219 -29 -14 -54 -25 -57 -25 -20 0 -459 -220 -500
    -250 -5 -4 -39 -23 -75 -42 -161 -85 -351 -218 -553 -388 -75 -63 -271 -251
    -293 -280 -5 -9 -33 -47 -61 -85 -105 -145 -171 -312 -144 -364 21 -39 70 -69
    143 -86 40 -9 132 -34 203 -55 72 -21 193 -55 270 -74 77 -20 169 -45 205 -55
    36 -11 117 -33 180 -50 63 -17 165 -45 225 -62 61 -17 169 -46 240 -65 321
    -86 421 -113 436 -119 13 -5 18 2 23 34 l6 39 107 -29 c60 -16 113 -29 120
    -29 7 0 14 21 18 48 56 428 225 636 862 1060 81 54 203 131 271 172 67 40 122
    74 122 77 0 2 -10 7 -22 12 l-22 8 24 13 c14 8 40 13 59 11 31 -2 113 32 150
    63 8 6 55 34 105 61 137 75 132 71 118 87 l-12 15 25 11 c14 6 37 9 52 6 21
    -4 61 12 167 66 l139 72 37 -6 c20 -3 80 -19 133 -35 120 -37 177 -48 161 -32
    -6 7 -72 28 -145 47 -165 42 -159 40 -129 52 14 5 63 28 110 50 114 53 191 78
    326 107 136 30 156 30 212 5 53 -24 54 -4 1 22 -56 28 -484 135 -774 193 -148
    30 -290 60 -315 65 -187 45 -693 80 -915 64z m490 -20 c44 -4 103 -10 130 -15
    28 -5 109 -18 180 -29 161 -25 372 -64 485 -90 396 -90 610 -146 590 -153 -8
    -3 -35 -10 -60 -15 -168 -36 -316 -94 -585 -229 -155 -78 -219 -105 -245 -104
    -37 1 -110 -26 -110 -41 0 -4 5 -8 10 -8 27 0 4 -23 -57 -56 -38 -20 -108 -61
    -158 -90 l-90 -52 -32 5 c-50 8 -134 -49 -87 -59 16 -3 6 -10 -141 -103 -132
    -83 -314 -202 -351 -230 -23 -16 -79 -57 -125 -90 -274 -196 -452 -392 -526
    -580 -30 -78 -73 -258 -73 -309 0 -32 2 -32 -116 -1 -126 33 -134 33 -134 -5
    0 -17 -5 -30 -12 -30 -21 0 -788 204 -898 238 -36 12 -121 35 -190 52 -69 17
    -179 47 -245 67 -134 39 -222 63 -370 99 -55 14 -117 36 -139 50 l-39 26 5 73
    5 72 45 86 c155 291 540 628 1051 919 140 80 450 235 522 261 22 8 96 37 165
    65 240 97 590 201 795 237 50 8 113 20 142 25 129 26 413 32 658 14z"/>
    <path d="M1202 5928 c-13 -13 -17 -68 -4 -68 4 0 13 5 20 12 17 17 45 -12 36
    -36 -5 -14 -14 -17 -36 -12 -21 4 -28 2 -26 -7 6 -18 53 -20 67 -3 22 27 10
    71 -21 74 -36 4 -38 32 -3 32 14 0 25 5 25 10 0 14 -43 13 -58 -2z"/>
    <path d="M5480 5906 c-144 -39 -200 -60 -365 -136 -38 -18 -81 -36 -95 -42
    -52 -19 -240 -133 -240 -145 0 -7 7 -10 16 -6 12 5 15 1 11 -13 -3 -10 -8
    -334 -11 -719 -3 -385 -8 -950 -11 -1255 -3 -305 -6 -928 -7 -1385 l-3 -830
    16 -3 c9 -1 54 19 100 47 46 27 161 94 254 149 94 54 244 143 335 197 91 54
    190 112 220 130 30 17 73 44 94 58 21 15 47 27 57 27 10 0 21 5 25 11 3 6 10
    113 15 238 4 124 13 348 18 496 19 502 21 591 12 560 -5 -16 -14 -181 -21
    -365 -25 -699 -38 -930 -52 -930 -5 0 -8 37 -5 87 2 49 10 223 16 388 6 165
    15 386 21 490 5 105 9 228 8 275 l-1 85 -8 -55 c-9 -64 -48 -964 -49 -1122 0
    -59 -4 -118 -9 -131 -9 -22 -145 -114 -241 -162 -19 -10 -65 -37 -102 -61 -37
    -24 -70 -44 -73 -44 -4 0 -19 -8 -33 -19 -24 -17 -123 -75 -456 -268 -61 -34
    -114 -63 -119 -63 -8 0 0 2673 9 2890 1 30 2 328 3 662 l1 607 153 80 c83 43
    199 98 257 121 58 23 121 48 140 57 64 29 164 53 217 53 l52 0 26 -37 c101
    -150 184 -654 225 -1383 11 -187 14 -834 4 -975 l-7 -108 -18 -4 c-10 -3 -17
    -9 -14 -13 2 -4 73 3 157 16 84 13 159 24 166 24 6 0 12 5 12 11 0 12 -6 12
    -220 -25 l-25 -5 0 582 c0 807 -27 1160 -124 1587 -59 265 -89 335 -165 381
    -39 24 -60 23 -166 -5z m197 -42 c85 -96 185 -567 217 -1024 3 -41 11 -145 18
    -230 16 -198 17 -1225 2 -1240 -8 -8 -9 114 -6 410 3 263 0 497 -7 623 -19
    327 -41 595 -57 702 -77 500 -129 698 -202 755 -13 11 -40 20 -59 20 -102 0
    -391 -111 -663 -254 -81 -43 -114 -50 -89 -20 6 8 15 14 19 14 4 0 49 23 99
    51 51 28 127 66 169 84 42 18 97 41 122 52 140 62 300 105 365 98 30 -4 48
    -14 72 -41z"/>
    <path d="M7282 5585 c0 -16 2 -22 5 -12 2 9 2 23 0 30 -3 6 -5 -1 -5 -18z"/>
    <path d="M4590 5511 l-35 -19 -5 -499 c-3 -274 -6 -1213 -8 -2088 l-3 -1590
    13 -17 13 -17 43 19 42 19 0 563 c0 310 2 766 5 1013 3 248 7 937 10 1532 l5
    1082 -19 11 c-24 12 -19 13 -61 -9z m20 -21 c-8 -5 -19 -10 -25 -10 -5 0 -3 5
    5 10 8 5 20 10 25 10 6 0 3 -5 -5 -10z m34 -2077 c-4 -1143 -9 -2081 -13
    -2085 -3 -4 -19 -10 -34 -14 l-28 -6 5 638 c4 352 9 853 11 1114 l6 475 14 8
    c8 4 15 15 15 24 l0 17 -15 -20 -16 -19 3 958 3 959 19 14 c11 8 24 14 28 14
    5 0 5 -935 2 -2077z m-77 1000 c-1 -65 -3 -14 -3 112 0 127 2 180 3 118 2 -62
    2 -165 0 -230z m-10 -2661 c-1 -240 -2 -41 -2 443 0 484 1 681 2 437 2 -244 2
    -640 0 -880z"/>
    <path d="M4610 5354 c0 -8 5 -12 10 -9 6 3 10 10 10 16 0 5 -4 9 -10 9 -5 0
    -10 -7 -10 -16z"/>
    <path d="M4616 5001 c-4 -7 -5 -15 -2 -18 9 -9 19 4 14 18 l-4 13 -8 -13z"/>
    <path d="M4612 4270 c0 -14 2 -19 5 -12 2 6 2 18 0 25 -3 6 -5 1 -5 -13z"/>
    <path d="M4606 3921 c-4 -7 -5 -15 -2 -18 9 -9 19 4 14 18 l-4 13 -8 -13z"/>
    <path d="M4606 3211 c-4 -7 -5 -15 -2 -18 9 -9 19 4 14 18 l-4 13 -8 -13z"/>
    <path d="M4600 2855 c0 -8 5 -15 10 -15 6 0 10 7 10 15 0 8 -4 15 -10 15 -5 0
    -10 -7 -10 -15z"/>
    <path d="M4607 2494 c-4 -4 -7 -14 -7 -23 0 -11 3 -12 11 -4 6 6 10 16 7 23
    -2 6 -7 8 -11 4z"/>
    <path d="M4600 2110 c0 -5 5 -10 10 -10 6 0 10 5 10 10 0 6 -4 10 -10 10 -5 0
    -10 -4 -10 -10z"/>
    <path d="M4597 1753 c-10 -9 -9 -23 2 -23 5 0 11 7 15 15 5 15 -5 20 -17 8z"/>
    <path d="M4590 1391 c0 -6 5 -13 10 -16 6 -3 10 1 10 9 0 9 -4 16 -10 16 -5 0
    -10 -4 -10 -9z"/>
    <path d="M3745 5151 c-27 -15 -81 -46 -120 -68 -135 -76 -218 -130 -413 -263
    -147 -100 -306 -238 -413 -358 -142 -158 -220 -441 -289 -1052 -11 -102 -25
    -212 -30 -245 -19 -110 -58 -824 -62 -1115 -6 -410 1 -1332 11 -1485 6 -88 13
    -209 17 -268 l6 -108 24 -9 24 -10 48 34 c69 48 158 97 165 89 4 -3 14 0 23 8
    l17 14 -8 331 -7 332 54 34 c29 19 134 80 233 137 99 57 191 111 205 120 60
    41 142 83 148 76 4 -4 9 -147 12 -318 l5 -312 22 -3 c12 -2 27 5 35 17 8 11
    59 45 113 77 55 31 118 69 140 84 22 15 60 37 84 50 l44 22 -6 2106 c-6 1674
    -10 2108 -20 2109 -6 2 -34 -10 -62 -26z m65 5 c0 -2 -53 -35 -117 -74 -252
    -149 -387 -237 -503 -326 -394 -302 -488 -432 -551 -758 -35 -182 -39 -201
    -58 -338 -44 -305 -75 -599 -91 -880 -6 -96 -15 -249 -21 -340 -23 -348 -15
    -1778 11 -1945 5 -33 11 -113 14 -177 l6 -118 -14 0 c-14 0 -17 22 -36 270
    -27 346 -20 1921 10 2200 5 52 17 194 26 315 24 334 80 776 120 945 71 307 84
    346 149 445 52 81 205 231 344 339 132 103 351 253 389 267 15 6 34 17 42 24
    19 17 261 155 272 155 5 0 8 -2 8 -4z m0 -2109 l0 -2074 -170 -103 c-94 -56
    -172 -101 -174 -99 -2 2 -6 146 -9 319 l-4 315 -19 0 c-11 1 -25 4 -31 8 -15
    10 -13 10 -238 -124 -99 -59 -234 -139 -300 -178 -66 -39 -127 -74 -135 -79
    -8 -6 -12 -12 -9 -16 3 -3 68 31 145 77 151 91 400 238 478 282 27 15 47 22
    44 15 -4 -12 -69 -52 -353 -215 -49 -28 -112 -65 -140 -82 -27 -17 -84 -51
    -125 -75 l-75 -44 -5 -334 -5 -334 -82 -47 c-46 -27 -83 -47 -84 -46 -4 12 -8
    64 -18 252 -61 1218 -20 2541 99 3200 11 61 31 178 45 260 41 249 77 345 178
    480 74 99 347 331 513 437 33 21 113 73 179 115 116 74 272 162 288 163 4 0 7
    -933 7 -2073z m-372 -1955 c-1 -158 -4 -254 -5 -214 -6 109 -22 86 -26 -35 -1
    -60 -4 34 -5 208 -2 309 2 350 30 333 4 -3 7 -134 6 -292z m-715 -449 c4 -207
    3 -323 -3 -323 -6 0 -10 121 -10 327 0 179 2 324 4 322 2 -2 6 -149 9 -326z"/>
    <path d="M3988 5068 c-7 -13 -13 -40 -14 -61 l-2 -37 23 -6 c25 -6 65 10 65
    26 0 13 -6 13 -29 -2 -11 -7 -26 -8 -37 -3 l-19 9 32 4 c47 5 57 23 36 61 -21
    37 -38 39 -55 9z m39 -23 c8 -21 -1 -28 -27 -20 l-21 7 12 14 c15 18 28 18 36
    -1z"/>
    <path d="M4150 5040 c0 -5 5 -10 10 -10 14 0 12 -84 -2 -98 -9 -9 -7 -12 13
    -12 l24 0 -3 65 -4 65 -19 0 c-10 0 -19 -4 -19 -10z"/>
    <path d="M4265 4985 l0 -65 25 0 c19 0 21 3 12 12 -7 7 -12 36 -12 65 0 36 -4
    53 -12 53 -9 0 -13 -20 -13 -65z"/>
    <path d="M4356 5025 c-9 -34 -2 -43 27 -38 30 6 42 -20 20 -42 -11 -12 -19
    -13 -26 -6 -14 14 -27 14 -27 1 0 -16 49 -23 65 -10 34 28 1 107 -35 85 -6 -3
    -10 1 -10 9 0 8 12 16 28 19 l27 4 -31 2 -32 1 -6 -25z"/>
    <path d="M3965 4902 l2 -58 -28 -17 c-31 -17 -39 -59 -19 -97 23 -44 146 -48
    175 -7 29 41 10 104 -35 119 -8 2 -12 24 -12 62 0 41 -4 54 -11 47 -14 -14
    -57 -14 -57 -1 0 6 -4 10 -8 10 -5 0 -8 -26 -7 -58z m75 7 c0 -5 -13 -9 -30
    -9 -18 0 -30 5 -30 13 0 9 10 12 30 9 17 -2 30 -8 30 -13z m-15 -48 l-15 -15
    -15 15 -16 16 31 0 31 0 -16 -16z m10 -31 c-3 -5 -15 -10 -25 -10 -10 0 -22 5
    -25 10 -4 6 7 10 25 10 18 0 29 -4 25 -10z m-69 -27 c-1 -20 43 -39 68 -30 9
    4 16 16 16 27 0 24 13 26 31 4 l13 -16 -19 -14 c-22 -16 -98 -19 -126 -4 -22
    12 -25 36 -6 43 21 9 25 7 23 -10z m68 -5 c-7 -11 -54 -11 -54 0 0 5 13 9 30
    9 16 0 27 -4 24 -9z m20 -54 c23 10 36 11 36 4 0 -36 -107 -53 -142 -21 -30
    27 -21 33 26 17 l44 -15 36 15z"/>
    <path d="M340 4113 c-16 -32 -20 -112 -8 -130 5 -6 5 -14 -1 -17 -6 -4 -8 -13
    -5 -21 4 -8 -6 -29 -20 -46 -34 -40 -33 -65 4 -84 45 -23 102 -19 134 10 33
    30 33 40 0 70 -29 27 -40 30 -49 15 -3 -5 -15 -10 -26 -10 -10 0 -19 5 -19 10
    0 6 6 10 13 10 21 0 58 30 51 42 -4 7 -9 6 -14 -2 -4 -6 -20 -10 -36 -8 l-29
    4 20 8 c60 23 66 27 59 38 -6 9 -9 9 -12 0 -5 -15 -48 -16 -57 -2 -3 6 4 10
    17 10 13 0 28 4 34 8 13 9 17 82 4 82 -5 0 -12 9 -15 20 -9 28 -29 25 -45 -7z
    m50 -34 c0 -5 -11 -9 -25 -9 -27 0 -32 9 -13 28 12 12 38 -1 38 -19z m10 -38
    c0 -11 -30 -19 -47 -14 -24 8 -13 23 17 23 17 0 30 -4 30 -9z m50 -186 c0 -32
    -100 -46 -138 -19 l-22 15 11 21 c9 16 18 19 42 15 18 -2 41 -1 52 3 21 8 55
    -13 55 -35z"/>
    <path d="M990 4087 c22 -13 124 -43 630 -187 80 -22 197 -57 260 -77 63 -19
    121 -37 128 -39 7 -2 12 -22 12 -52 l0 -49 -187 54 c-104 30 -275 79 -382 109
    -107 30 -219 64 -250 74 -31 10 -92 28 -136 40 -43 12 -85 24 -92 27 -7 3 -13
    1 -13 -4 0 -10 128 -51 353 -113 81 -22 164 -47 185 -55 20 -8 98 -30 172 -50
    74 -20 186 -52 248 -71 130 -40 152 -39 152 12 0 23 -4 33 -11 28 -6 -3 -9
    -15 -6 -25 3 -11 1 -19 -4 -19 -5 0 -9 23 -9 50 l0 50 -22 10 c-13 6 -106 33
    -207 61 -102 27 -192 54 -200 58 -9 5 -99 31 -201 59 -102 28 -225 64 -275 81
    -49 16 -108 32 -130 36 l-40 6 25 -14z"/>
    <path d="M7335 4091 c10 -10 128 -41 775 -206 118 -30 221 -58 229 -60 l15 -6
    -20 -18 -19 -19 -265 68 c-146 37 -363 93 -482 124 -205 53 -259 64 -246 50 3
    -3 75 -23 160 -44 84 -22 266 -69 403 -105 494 -130 465 -124 465 -101 0 8 5
    18 10 21 6 4 10 -10 10 -34 0 -32 -3 -39 -15 -35 -8 4 -13 10 -10 14 3 5 -9 7
    -27 4 -20 -3 -70 6 -123 21 -49 14 -142 39 -205 54 -63 16 -176 45 -250 64
    -461 121 -420 112 -420 99 0 -5 28 -16 63 -25 34 -9 177 -45 317 -81 140 -36
    284 -73 320 -83 l65 -18 3 -28 3 -27 -100 0 c-135 0 -142 -18 -9 -22 l103 -3
    3 -27 c3 -22 -2 -30 -22 -38 -31 -11 -34 -30 -6 -30 11 0 20 4 20 9 0 13 39
    21 46 9 3 -5 1 -15 -5 -21 -7 -7 -7 -14 1 -24 6 -7 9 -16 6 -19 -8 -7 -58 14
    -58 26 0 5 -7 10 -15 10 -29 0 -15 -26 24 -43 54 -24 71 -15 71 39 l0 44 -25
    10 -25 10 0 60 0 60 23 -5 c12 -3 68 -16 124 -30 56 -14 111 -25 121 -25 l19
    0 -4 58 c-2 31 -7 60 -11 63 -7 6 -103 31 -587 154 -137 34 -277 72 -310 83
    -79 25 -154 38 -140 23z"/>
    <path d="M9255 4034 l-16 -16 3 -126 3 -126 75 -53 c55 -38 83 -52 105 -50
    l30 2 3 36 c2 27 9 38 23 42 l19 5 0 71 c0 53 -3 71 -14 71 -16 0 -29 80 -15
    95 15 15 11 22 -28 45 l-38 22 -18 -12 c-14 -8 -22 -9 -30 -1 -17 17 -83 13
    -102 -5z m125 -31 c34 -20 65 -46 69 -57 10 -31 1 -266 -10 -266 -6 0 -7 44
    -3 114 9 151 7 158 -66 198 -33 18 -60 36 -60 41 0 11 5 9 70 -30z m51 16 c28
    -15 14 -31 -16 -17 -13 6 -22 15 -19 19 7 11 11 11 35 -2z m-76 -37 l60 -38 0
    -126 c0 -70 -3 -129 -6 -133 -4 -3 -39 15 -79 41 l-73 47 7 66 c3 36 6 92 6
    124 0 68 4 69 85 19z m125 -204 c-7 -18 -9 -9 -8 37 l0 60 9 -37 c5 -22 5 -47
    -1 -60z"/>
    <path d="M1480 3770 l0 -30 -59 0 c-33 0 -63 -4 -66 -10 -4 -6 18 -10 59 -10
    l66 0 0 -25 c0 -14 5 -25 10 -25 6 0 10 28 10 65 0 37 -4 65 -10 65 -5 0 -10
    -13 -10 -30z"/>
    <path d="M1130 3730 c-12 -8 -12 -10 -1 -10 10 0 12 -14 9 -60 l-4 -60 16 0
    16 0 -4 63 c-5 69 -10 81 -32 67z"/>
    <path d="M1230 3728 c0 -7 -3 -23 -6 -35 l-6 -22 28 2 29 2 3 -29 4 -29 -34 7
    -33 6 17 -17 17 -17 26 12 c19 9 25 19 25 41 0 31 -30 58 -50 46 -6 -3 -10 1
    -10 9 0 10 9 16 25 16 14 0 25 5 25 10 0 6 -13 10 -30 10 -17 0 -30 -5 -30
    -12z"/>
    <path d="M7632 3698 c-20 -20 -13 -32 7 -14 20 19 41 14 41 -8 0 -7 -12 -23
    -26 -37 -14 -13 -30 -32 -35 -41 l-10 -18 48 1 48 2 -40 6 -40 6 32 24 c18 14
    35 33 39 43 11 37 -36 64 -64 36z"/>
    <path d="M7737 3703 c-4 -3 -7 -13 -7 -21 l0 -15 19 17 18 17 12 -15 12 -15
    -35 -39 c-45 -50 -45 -52 7 -51 l42 2 -35 6 -35 6 26 20 c36 28 49 56 38 77
    -9 18 -49 25 -62 11z"/>
    <path d="M267 3692 c-14 -3 -16 -7 -6 -18 7 -9 10 -33 7 -64 l-5 -50 23 0 c13
    0 24 5 24 10 0 6 -4 10 -10 10 -5 0 -10 26 -12 58 l-3 57 -18 -3z"/>
    <path d="M356 3678 c-39 -55 1 -136 53 -108 l21 11 0 49 c0 39 -4 52 -19 60
    -28 15 -38 13 -55 -12z m54 -19 c16 -29 3 -79 -20 -79 -22 0 -33 40 -20 74 12
    31 25 33 40 5z"/>
    <path d="M1452 3620 l3 -55 25 0 25 0 3 33 c2 17 -1 32 -6 32 -5 0 -7 -11 -4
    -25 3 -20 0 -25 -15 -25 l-19 0 -3 42 c-1 23 -4 45 -7 47 -3 3 -4 -19 -2 -49z"/>
    <path d="M9260 3560 c0 -5 5 -10 10 -10 15 0 13 -97 -2 -103 -7 -3 3 -5 22 -5
    19 0 29 2 23 5 -9 3 -13 26 -13 64 l0 59 -20 0 c-11 0 -20 -4 -20 -10z"/>
    <path d="M9360 3535 l0 -34 30 6 30 6 0 -26 c0 -28 -19 -40 -41 -26 -22 14
    -33 11 -19 -6 26 -32 80 -12 80 30 0 28 -18 45 -48 45 -33 0 -23 23 14 31 l29
    7 -37 1 -38 1 0 -35z"/>
    <path d="M9467 3563 c-15 -15 -6 -23 14 -12 32 16 46 -4 21 -29 l-20 -20 19
    -5 c10 -3 19 -12 19 -21 0 -21 -28 -32 -43 -17 -17 17 -31 13 -17 -4 13 -16
    47 -20 67 -7 14 9 14 91 0 110 -10 13 -49 17 -60 5z"/>
    <path d="M6278 3450 c3 -32 0 -55 -8 -65 l-12 -15 33 1 c19 0 28 3 22 6 -9 3
    -13 26 -13 64 0 43 -4 59 -14 59 -10 0 -12 -12 -8 -50z"/>
    <path d="M6362 3488 c-15 -15 -16 -72 -2 -99 24 -44 80 -7 80 52 0 40 -15 59
    -45 59 -12 0 -26 -5 -33 -12z m54 -24 c8 -30 -6 -79 -21 -79 -20 1 -36 52 -25
    79 12 34 38 33 46 0z"/>
    <path d="M6462 3468 c-16 -61 17 -116 55 -92 23 14 35 66 23 98 -7 20 -16 26
    -39 26 l-30 0 -9 -32z m56 10 c25 -25 6 -103 -23 -92 -10 4 -15 20 -15 48 0
    55 13 69 38 44z"/>
    <path d="M6092 3319 c-16 -6 -22 -16 -22 -38 0 -23 4 -29 15 -25 17 7 20 24 5
    24 -5 0 -10 5 -10 10 0 6 7 10 16 10 12 0 14 -9 12 -42 -2 -34 -7 -43 -20 -42
    -10 1 -18 -4 -18 -12 0 -8 9 -14 21 -14 16 0 20 -5 17 -27 -3 -30 -28 -44 -29
    -16 l0 18 -8 -20 c-11 -25 -5 -35 20 -35 23 0 25 -19 4 -46 l-14 -19 -1 18 c0
    24 -20 22 -20 -3 0 -13 7 -20 20 -20 16 0 20 -7 20 -30 0 -16 -4 -30 -10 -30
    -5 0 -10 7 -10 15 0 8 -4 15 -10 15 -5 0 -10 -11 -10 -25 0 -18 5 -25 20 -25
    16 0 20 -7 20 -30 0 -16 -4 -30 -10 -30 -5 0 -10 5 -10 10 0 6 -4 10 -10 10
    -5 0 -10 -10 -10 -21 0 -16 5 -20 20 -16 l20 5 0 -27 c0 -36 -10 -45 -26 -23
    l-13 17 -1 -28 0 -28 20 6 c16 5 20 2 20 -14 0 -24 -10 -27 -28 -9 -9 9 -12 7
    -12 -11 0 -18 4 -22 20 -18 l20 5 0 -34 c0 -24 -5 -34 -16 -34 -8 0 -13 4 -9
    9 3 5 1 12 -5 16 -6 4 -10 -5 -10 -20 l0 -26 20 6 20 6 0 -29 c0 -33 -26 -51
    -33 -24 -3 10 -5 5 -6 -10 -1 -19 4 -28 14 -28 10 0 15 -10 15 -29 0 -36 -17
    -50 -23 -19 -3 17 -5 15 -6 -9 -1 -25 2 -31 14 -27 12 5 15 -2 15 -27 l-1 -34
    -13 18 -14 18 -5 -27 -5 -26 19 5 19 5 0 -28 c0 -36 -17 -48 -23 -18 -3 16 -5
    13 -6 -11 -1 -26 2 -32 14 -27 11 4 15 -2 15 -24 0 -17 -4 -30 -10 -30 -5 0
    -10 8 -10 17 0 12 -3 14 -11 6 -16 -16 -6 -49 14 -45 12 2 17 -4 17 -23 0 -28
    -16 -34 -23 -7 l-4 17 -8 -17 c-10 -25 2 -51 20 -44 11 4 15 -2 15 -19 0 -14
    -4 -25 -10 -25 -5 0 -10 5 -10 10 0 6 -4 10 -10 10 -5 0 -10 -9 -10 -20 0 -13
    7 -20 20 -20 11 0 20 -7 20 -16 0 -11 -6 -14 -20 -9 -14 4 -20 2 -20 -9 0 -26
    16 -27 67 -3 l50 22 7 365 c3 201 9 457 12 570 l6 205 -39 31 c-30 24 -43 29
    -61 23z m63 -49 l18 -20 -7 -512 c-7 -525 -11 -598 -30 -610 -31 -21 -34 -8
    -31 115 2 67 6 330 11 585 4 254 10 462 14 462 4 0 15 -9 25 -20z"/>
    <path d="M6130 3240 c0 -5 5 -10 10 -10 6 0 10 5 10 10 0 6 -4 10 -10 10 -5 0
    -10 -4 -10 -10z"/>
    <path d="M6130 2885 c0 -8 5 -15 10 -15 6 0 10 7 10 15 0 8 -4 15 -10 15 -5 0
    -10 -7 -10 -15z"/>
    <path d="M6122 2529 c3 -8 8 -13 11 -11 9 3 7 11 -5 18 -6 4 -8 0 -6 -7z"/>
    <path d="M6115 2160 c-3 -5 -2 -10 4 -10 5 0 13 5 16 10 3 6 2 10 -4 10 -5 0
    -13 -4 -16 -10z"/>
    <path d="M4200 3115 c-10 -12 -10 -15 0 -15 9 0 11 -15 8 -55 l-5 -55 26 0
    c19 0 22 3 13 12 -7 7 -12 36 -12 64 0 57 -10 73 -30 49z"/>
    <path d="M4307 3119 c-23 -14 -23 -33 1 -20 21 11 48 -2 38 -18 -4 -6 -14 -11
    -22 -11 -21 0 -17 -17 6 -23 11 -3 20 -13 20 -22 l0 -18 -36 6 -36 6 12 -14
    c30 -36 88 -6 74 37 -4 13 -7 33 -5 45 3 27 -27 45 -52 32z"/>
    <path d="M4407 3123 c-4 -3 -7 -21 -7 -40 l0 -34 21 12 c17 9 23 8 30 -2 17
    -27 5 -44 -29 -42 l-33 1 12 -14 c26 -31 79 -10 79 31 0 27 -18 45 -47 45 -33
    0 -28 19 7 26 16 4 27 10 24 15 -6 11 -48 12 -57 2z"/>
    <path d="M1340 2856 c-19 -13 -75 -46 -125 -73 -149 -83 -159 -92 -224 -194
    l-61 -96 -62 -38 c-34 -21 -69 -46 -79 -56 -10 -10 -32 -25 -48 -34 -41 -21
    -39 -32 7 -44 54 -16 63 -14 118 21 27 17 85 52 129 78 44 26 154 90 244 143
    l163 97 74 -20 c74 -20 113 -25 101 -14 -3 3 -45 16 -94 28 l-88 22 -3 95 c-2
    51 -6 97 -10 101 -4 4 -23 -3 -42 -16z m30 -93 l0 -86 -18 16 c-21 19 -32 13
    -32 -15 l0 -18 28 6 c15 4 24 3 20 -1 -15 -16 -537 -325 -549 -325 -16 0 -10
    49 9 66 9 9 37 28 63 43 33 21 63 55 114 130 l68 101 56 32 c31 18 94 56 140
    85 47 29 89 53 93 53 4 0 8 -39 8 -87z m-574 -421 c-3 -6 -16 -8 -27 -5 l-22
    6 18 14 c20 14 42 3 31 -15z"/>
    <path d="M857 2413 c-4 -3 -7 -16 -6 -27 l0 -21 10 24 c10 24 8 36 -4 24z"/>
    <path d="M1855 2820 c-4 -6 -4 -21 -1 -33 3 -12 1 -29 -4 -37 -21 -34 27 -62
    74 -44 16 6 22 45 9 58 -4 4 -7 19 -8 34 l0 27 -32 3 c-17 2 -34 -2 -38 -8z
    m51 -11 c10 -17 -13 -36 -27 -22 -12 12 -4 33 11 33 5 0 12 -5 16 -11z m7 -63
    c3 -8 -1 -20 -9 -27 l-15 -12 -16 15 c-8 9 -12 21 -9 27 10 16 43 14 49 -3z"/>
    <path d="M1967 2823 c-10 -10 -8 -63 2 -63 5 0 11 5 13 12 7 21 38 0 38 -26 0
    -31 -14 -40 -41 -25 -17 9 -20 8 -17 -3 8 -23 54 -22 71 3 21 29 4 69 -30 69
    -12 0 -23 5 -23 10 0 6 11 10 25 10 14 0 25 5 25 10 0 11 -53 14 -63 3z"/>
    <path d="M6326 2648 c-28 -47 -26 -58 10 -58 16 0 24 -6 25 -17 0 -14 2 -15 6
    -3 3 8 11 19 17 23 8 6 7 10 -1 14 -8 2 -13 22 -13 44 0 50 -13 49 -44 -3z
    m34 -8 c0 -23 -4 -30 -20 -30 l-19 0 17 30 c21 37 22 37 22 0z"/>
    <path d="M6415 2680 c-10 -17 3 -26 17 -12 7 7 18 12 25 12 24 0 13 -36 -22
    -70 -19 -18 -32 -37 -29 -42 7 -12 84 -10 84 2 0 6 -11 10 -25 10 -32 0 -32
    10 0 40 35 33 30 64 -12 68 -17 2 -34 -2 -38 -8z"/>
    <path d="M1618 2623 c-10 -2 -18 -8 -18 -12 0 -15 56 -59 84 -65 l29 -7 -11
    14 c-14 16 -6 47 12 47 6 0 11 -14 11 -32 l0 -32 80 -25 80 -26 3 -22 c13 -89
    112 -21 112 77 0 62 -40 92 -71 54 -9 -11 -22 -14 -43 -9 -17 3 -49 9 -71 11
    l-41 6 -16 -34 -17 -33 0 28 c-1 15 4 27 9 27 19 0 10 18 -12 25 -31 9 -99 14
    -120 8z m72 -10 c0 -20 -13 -53 -20 -53 -4 0 -10 9 -13 21 -3 12 -10 18 -16
    14 -6 -3 -11 -2 -11 4 0 8 9 12 53 20 4 0 7 -2 7 -6z m205 -55 c2 -2 1 -15 -2
    -29 l-5 -26 -41 10 c-23 5 -48 11 -54 13 -13 3 -18 46 -7 56 5 5 101 -16 109
    -24z m90 3 c10 -48 -37 -134 -65 -116 -15 9 -12 45 4 45 8 0 17 -6 19 -12 3
    -7 6 -2 6 11 1 14 9 33 19 44 l17 20 -17 -6 c-9 -3 -19 -1 -22 6 -2 7 -5 2 -5
    -9 -1 -12 -8 -27 -16 -34 l-15 -12 0 21 c0 60 63 95 75 42z"/>
    <path d="M2192 2318 c-5 -7 -10 -33 -10 -58 0 -52 11 -70 43 -70 31 0 49 24
    39 52 -4 13 -7 31 -5 41 5 38 -44 63 -67 35z m51 -14 c9 -10 -4 -34 -18 -34
    -17 0 -28 17 -20 30 7 11 28 13 38 4z m2 -74 c0 -8 -10 -16 -22 -18 -22 -3
    -32 16 -16 32 12 11 38 2 38 -14z"/>
    <path d="M2308 2316 c-27 -20 -34 -71 -14 -101 20 -30 46 -32 71 -5 l18 19
    -17 27 c-14 20 -23 24 -42 20 -13 -4 -24 -3 -24 2 0 14 23 32 43 32 10 0 15 5
    12 10 -8 14 -26 12 -47 -4z m47 -81 c0 -13 -8 -21 -23 -23 -26 -4 -42 25 -21
    39 22 14 44 6 44 -16z"/>
    <path d="M694 2209 c-12 -19 -13 -103 -2 -116 14 -17 40 -16 64 1 l19 15 -12
    19 c-6 11 -9 29 -6 41 10 38 -43 71 -63 40z m44 -32 c2 -10 -3 -17 -12 -17
    -18 0 -29 16 -21 31 9 14 29 6 33 -14z m10 -54 c4 -16 -22 -27 -43 -19 -22 8
    -6 38 18 34 11 -2 22 -9 25 -15z"/>
    <path d="M813 2175 l-32 -50 29 -3 c23 -3 30 -8 30 -25 l0 -22 13 25 c7 14 10
    27 6 30 -4 3 -9 26 -11 50 l-3 45 -32 -50z m27 -15 c0 -20 -5 -30 -15 -30 -18
    0 -18 2 -3 35 15 32 18 32 18 -5z"/>
    <path d="M5710 1858 c-129 -77 -260 -153 -290 -169 -48 -26 -110 -63 -305
    -181 -27 -17 -66 -40 -85 -50 -19 -11 -59 -33 -88 -50 l-53 -30 3 -26 c2 -20
    11 -29 33 -35 l31 -9 84 50 c47 27 135 79 195 114 115 68 333 197 470 278 44
    25 103 60 130 77 28 17 77 46 110 65 62 35 76 61 38 66 -13 2 -23 10 -23 17 0
    8 -4 16 -8 19 -4 2 -113 -59 -242 -136z m225 104 c-15 -13 -195 -122 -201
    -122 -3 0 -36 -20 -72 -44 -37 -24 -137 -84 -222 -133 -158 -92 -191 -111
    -334 -197 -140 -85 -199 -117 -203 -112 -3 2 6 11 19 19 12 7 52 32 88 54 70
    43 149 90 385 228 83 48 186 109 230 135 45 27 102 60 129 75 26 15 76 44 109
    66 56 35 97 53 72 31z m33 -37 c-3 -3 -13 -2 -22 1 -14 5 -15 9 -4 15 13 8 36
    -6 26 -16z m-41 -13 c8 -5 -10 -20 -50 -42 -34 -18 -85 -48 -114 -66 -40 -26
    -54 -30 -62 -20 -8 9 16 27 97 74 117 67 112 65 129 54z m-240 -140 c9 -5 -10
    -21 -55 -46 -37 -22 -84 -50 -104 -64 -22 -14 -44 -22 -54 -18 -22 9 -18 12
    94 78 107 63 102 61 119 50z m-233 -140 c3 -5 -43 -37 -102 -72 -244 -144
    -342 -200 -352 -200 -26 0 -4 21 63 61 118 70 131 76 152 72 15 -3 16 -2 6 5
    -9 7 16 27 95 75 108 66 128 74 138 59z m-476 -284 c-3 -7 -18 -14 -34 -16
    l-29 -2 19 15 c24 18 49 20 44 3z"/>
    <path d="M1715 1646 c-32 -32 -51 -99 -39 -134 l10 -27 32 2 c42 1 65 21 58
    47 -6 24 9 54 21 43 4 -5 6 -24 4 -43 l-3 -34 19 0 c11 0 24 -5 30 -11 8 -8
    11 -2 10 21 -1 19 3 35 11 37 10 4 12 -3 7 -30 -5 -24 -3 -37 6 -43 15 -9 107
    -9 116 -1 10 11 -39 78 -53 73 -7 -3 -16 -1 -20 5 -3 6 -12 8 -20 5 -8 -3 -14
    -1 -14 4 0 6 -9 10 -19 10 -11 0 -22 4 -26 10 -3 5 -12 7 -19 4 -8 -3 -17 3
    -21 14 -8 27 -44 72 -56 72 -6 0 -21 -11 -34 -24z m56 -20 c9 -19 8 -29 -5
    -47 -9 -13 -16 -34 -16 -46 0 -28 -38 -52 -51 -32 -20 32 -3 113 28 137 24 17
    32 15 44 -12z m65 -103 c-5 -12 -10 -13 -17 -6 -8 8 -7 18 2 34 l13 24 4 -18
    c2 -10 1 -25 -2 -34z m80 1 c-3 -9 -6 -23 -6 -32 0 -12 -3 -13 -11 -5 -13 13
    -3 53 13 53 5 0 7 -7 4 -16z m48 -19 c3 -9 -1 -18 -10 -22 -19 -7 -28 2 -21
    22 8 19 23 19 31 0z"/>
    <path d="M3980 1560 c-12 -8 -12 -10 -1 -10 10 0 12 -14 9 -60 l-4 -60 23 0
    c24 0 31 14 12 25 -6 4 -10 26 -9 49 3 72 1 76 -30 56z"/>
    <path d="M4082 1558 c-7 -7 -12 -19 -12 -27 l0 -14 19 17 c19 17 41 15 41 -4
    0 -5 -16 -25 -35 -45 -20 -19 -33 -40 -30 -45 8 -13 75 -13 75 0 0 6 -14 10
    -32 10 l-31 0 39 34 38 33 -12 27 c-12 27 -40 34 -60 14z"/>
    <path d="M4187 1552 c-21 -23 -22 -86 -1 -106 48 -49 100 42 58 102 -18 27
    -36 28 -57 4z m48 -52 l0 -45 -20 0 c-15 0 -21 8 -23 33 -4 45 4 64 25 60 14
    -3 18 -13 18 -48z"/>
    <path d="M5570 1521 c0 -6 13 -11 30 -13 l30 -3 -25 -52 c-13 -29 -20 -53 -14
    -53 9 0 59 103 59 121 0 5 -18 9 -40 9 -22 0 -40 -4 -40 -9z"/>
    <path d="M5690 1515 c-7 -8 -10 -22 -6 -30 3 -9 0 -25 -6 -35 l-13 -20 22 -22
    22 -22 26 12 c25 12 37 62 15 62 -6 0 -5 8 2 19 23 38 -33 70 -62 36z m50 -14
    c0 -6 -5 -13 -10 -16 -15 -9 -43 3 -35 15 8 13 45 13 45 1z m1 -57 l13 -16
    -15 -9 c-8 -5 -16 -9 -19 -9 -3 0 -11 4 -19 9 l-15 9 13 16 c8 9 17 16 21 16
    4 0 13 -7 21 -16z"/>
    <path d="M2142 1478 c-34 -34 -2 -118 45 -118 26 0 56 69 47 105 l-6 25 -37 0
    c-20 0 -42 -5 -49 -12z m24 -33 c-7 -19 -15 -38 -19 -41 -10 -11 -8 21 3 50
    15 39 29 31 16 -9z m53 -7 l-2 -33 -4 28 c-5 30 -23 27 -23 -4 0 -10 -4 -19
    -10 -19 -13 0 -13 3 2 35 16 36 38 32 37 -7z m-19 -53 c-7 -8 -16 -12 -21 -9
    -13 8 -1 24 18 24 l15 0 -12 -15z"/>
    <path d="M2046 1471 c15 -13 74 -31 74 -21 0 4 -14 13 -31 19 -39 13 -57 14
    -43 2z"/>
    <path d="M2240 1411 c0 -5 24 -17 54 -25 63 -19 66 -19 66 -7 0 5 -24 17 -54
    25 -63 19 -66 19 -66 7z"/>
    <path d="M4115 1337 c-33 -21 -51 -40 -53 -56 l-4 -24 18 7 c14 6 13 1 -6 -19
    l-24 -26 22 -6 c16 -4 22 -13 22 -33 0 -16 7 -36 16 -44 l15 -16 32 16 c18 9
    44 25 60 36 l27 19 0 46 c0 56 -18 110 -39 117 -9 3 -21 8 -26 11 -6 3 -33
    -10 -60 -28z m41 -12 c-10 -8 -24 -16 -30 -18 -8 -3 -7 -11 2 -26 17 -30 16
    -131 -2 -131 -20 0 -26 23 -26 99 l0 67 33 16 c37 18 51 13 23 -7z m53 1 c-10
    -9 -69 -36 -69 -32 0 7 52 35 64 36 5 0 7 -2 5 -4z m15 -42 c18 -46 -11 -114
    -48 -114 -18 0 -14 109 4 120 22 14 37 12 44 -6z"/>
    <path d="M1445 1340 c-3 -5 -1 -10 5 -10 8 0 11 -18 8 -55 l-3 -55 30 1 c17 0
    24 3 18 6 -9 3 -13 26 -13 64 l0 59 -19 0 c-11 0 -23 -4 -26 -10z"/>
    <path d="M1552 1338 c-20 -20 -13 -32 7 -14 11 10 25 15 30 11 18 -11 12 -34
    -12 -50 -13 -8 -29 -26 -35 -40 l-12 -25 48 2 c36 1 40 2 15 5 -41 5 -41 16
    -3 43 46 33 38 80 -14 80 -7 0 -17 -5 -24 -12z"/>
    <path d="M1667 1306 c-27 -49 -26 -56 10 -56 15 0 23 -6 24 -17 0 -14 2 -15 6
    -3 3 8 11 19 17 23 8 6 7 10 -1 14 -8 2 -13 22 -13 44 0 51 -13 49 -43 -5z
    m33 -6 c0 -20 -5 -30 -15 -30 -18 0 -18 2 -3 35 15 32 18 32 18 -5z"/>
    <path d="M1975 1210 c-3 -5 -1 -10 4 -10 16 0 14 -97 -1 -103 -7 -3 3 -6 22
    -6 26 -1 31 2 22 11 -7 7 -12 36 -12 65 0 39 -4 53 -14 53 -8 0 -18 -4 -21
    -10z"/>
    <path d="M2077 1214 c-4 -4 -7 -14 -7 -22 l0 -15 19 17 c20 18 41 14 41 -6 0
    -7 -16 -26 -35 -44 -46 -42 -45 -54 8 -53 29 2 34 3 15 6 -35 5 -35 13 -3 43
    34 32 31 74 -5 78 -14 2 -29 0 -33 -4z"/>
    <path d="M2180 1205 c-9 -11 -10 -19 -2 -27 7 -7 7 -17 0 -34 -15 -33 -4 -54
    30 -54 37 0 56 22 46 52 -4 13 -8 34 -8 48 -1 30 -45 40 -66 15z m58 -12 c5
    -17 -26 -29 -40 -15 -6 6 -7 15 -3 22 9 14 37 9 43 -7z m-9 -52 c17 -11 7 -41
    -13 -41 -19 0 -29 17 -22 35 6 17 15 18 35 6z"/>
    <path d="M4270 1166 c-260 -150 -265 -153 -268 -178 l-3 -25 40 -12 c47 -14
    34 -19 201 80 63 38 134 80 158 94 47 27 48 40 3 50 -16 3 -32 13 -35 21 -8
    20 -13 19 -96 -30z m80 19 c0 -6 -78 -58 -140 -92 -30 -17 -84 -47 -119 -67
    -66 -38 -94 -43 -44 -9 15 11 63 39 105 62 42 23 103 57 134 76 60 36 64 38
    64 30z m54 -36 c-3 -5 -16 -6 -30 -3 -23 6 -36 -10 -13 -18 6 -2 -25 -23 -68
    -48 -43 -24 -106 -61 -141 -82 -63 -38 -95 -47 -107 -28 -6 10 7 14 34 11 7
    -2 10 2 7 7 -7 12 3 20 78 62 33 18 56 28 52 22 -4 -7 -1 -12 9 -12 9 0 15 6
    12 13 -7 19 119 95 148 89 14 -2 22 -8 19 -13z"/>
    <path d="M3780 879 c-52 -32 -125 -75 -162 -95 -36 -20 -69 -42 -72 -51 -9
    -24 11 -50 44 -57 36 -7 42 -4 160 69 47 28 115 69 153 89 75 41 82 54 36 63
    -19 3 -34 14 -36 25 -8 26 -18 23 -123 -43z m100 32 c0 -5 -15 -18 -32 -29
    -210 -127 -272 -162 -281 -159 -6 2 33 30 88 62 97 57 143 85 195 118 30 19
    30 19 30 8z m54 -29 c4 -7 -102 -75 -199 -128 -11 -6 -39 -22 -62 -37 -41 -26
    -93 -36 -93 -18 0 13 27 21 45 15 10 -4 13 -2 10 8 -4 10 27 33 102 76 59 33
    117 68 128 76 22 17 61 21 69 8z"/>
    <path d="M4300 889 c-8 -15 -8 -24 0 -34 7 -9 8 -15 0 -20 -38 -23 20 -76 61
    -55 20 11 26 45 9 55 -7 4 -7 12 0 25 7 14 6 23 -6 34 -22 22 -51 20 -64 -5z
    m56 -10 c7 -12 -15 -31 -28 -23 -4 3 -8 12 -8 20 0 17 26 19 36 3z m4 -69 c0
    -21 -33 -29 -45 -10 -9 15 4 30 26 30 12 0 19 -7 19 -20z"/>
    <path d="M4412 898 c-7 -7 -12 -19 -12 -27 l0 -14 20 18 c11 10 26 15 36 11
    l16 -6 -41 -45 c-23 -25 -39 -50 -36 -55 8 -13 85 -13 85 0 0 6 -13 10 -30 10
    -16 0 -30 4 -30 8 0 4 14 16 30 25 44 26 37 87 -10 87 -9 0 -21 -5 -28 -12z"/>
    <path d="M2275 453 c1 -202 -1 -363 -6 -363 -5 0 -9 58 -9 128 0 189 -12 583
    -18 577 -3 -3 -4 -117 -3 -255 l2 -250 -38 -1 c-42 0 -129 -16 -100 -18 l17
    -1 0 -50 c0 -30 4 -50 11 -50 7 0 9 16 4 50 l-7 50 55 0 54 0 7 -52 c3 -29 6
    -72 6 -94 0 -53 20 -72 57 -55 l26 12 -7 317 c-4 174 -11 337 -16 362 -4 25
    -6 -110 -2 -312 4 -268 2 -358 -6 -358 -9 0 -12 71 -13 263 -1 144 -5 307 -9
    362 -5 64 -7 -29 -5 -262z"/>
    <path d="M3668 543 c38 -5 38 -2 7 -63 -28 -54 -29 -60 -16 -60 7 0 21 28 58
    118 4 9 -7 12 -38 10 l-44 -1 33 -4z"/>
    <path d="M3750 535 c-10 -11 -10 -19 -2 -27 7 -7 7 -17 0 -34 -13 -29 4 -54
    36 -54 44 0 49 19 37 123 -2 13 -58 7 -71 -8z m56 -6 c3 -6 1 -16 -4 -21 -13
    -13 -45 8 -36 23 7 12 31 11 40 -2z m4 -75 c0 -16 -36 -19 -45 -4 -4 6 -1 17
    5 26 14 16 40 2 40 -22z"/>
    <path d="M2005 312 c-11 -11 -5 -82 8 -82 24 0 57 13 57 21 0 5 -11 7 -25 3
    l-25 -6 0 27 0 27 20 -5 c11 -3 20 -2 20 3 0 9 -47 20 -55 12z"/>
    <path d="M1925 140 c-3 -5 1 -10 9 -10 24 0 23 -97 -1 -103 l-18 -4 18 -8 c9
    -4 25 -4 35 0 11 5 13 9 5 12 -9 3 -13 26 -13 64 0 45 -3 59 -14 59 -8 0 -18
    -4 -21 -10z"/>
    <path d="M2052 138 c-11 -15 -42 -75 -42 -83 0 -3 11 -5 25 -5 13 0 28 -8 34
    -17 18 -32 26 -6 23 75 -2 43 -19 56 -40 30z m18 -43 c0 -16 -6 -25 -15 -25
    -18 0 -19 4 -3 30 16 26 18 25 18 -5z"/>
    <path d="M2132 138 c-7 -7 -12 -30 -12 -53 0 -46 13 -65 45 -65 32 0 45 20 45
    67 0 54 -45 84 -78 51z m46 -10 c17 -17 15 -73 -3 -88 -22 -18 -35 -3 -35 44
    0 55 12 70 38 44z"/>
    </g>
  </g>
  <g id="labels" font-family="Helvetica, Arial, sans-serif" fill="#111" font-size="14" text-rendering="geometricPrecision" opacity="0" pointer-events="none">
      <a id="pos-5" href="#pos-5"><text data-pos="5" x="132" y="58" text-anchor="middle" dominant-baseline="middle" font-size="12" font-weight="600">5</text></a>
      <a id="pos-8" href="#pos-8"><text data-pos="8" x="208" y="266" text-anchor="middle" dominant-baseline="middle" font-size="12" font-weight="600">8</text></a>
      <a id="pos-10" href="#pos-10"><text data-pos="10" x="36" y="278" text-anchor="middle" dominant-baseline="middle" font-size="12" font-weight="600">10</text></a>
      <a id="pos-12" href="#pos-12"><text data-pos="12" x="174" y="295" text-anchor="middle" dominant-baseline="middle" font-size="12" font-weight="600">12</text></a>
      <a id="pos-15" href="#pos-15"><text data-pos="15" x="120" y="268" text-anchor="middle" dominant-baseline="middle" font-size="12" font-weight="600">15</text></a>
      <a id="pos-22" href="#pos-22"><text data-pos="22" x="772" y="278" text-anchor="middle" dominant-baseline="middle" font-size="12" font-weight="600">22</text></a>
      <a id="pos-42" href="#pos-42"><text data-pos="42" x="637" y="382" text-anchor="middle" dominant-baseline="middle" font-size="12" font-weight="600">42</text></a>
      <a id="pos-78" href="#pos-78"><text data-pos="78" x="375" y="591" text-anchor="middle" dominant-baseline="middle" font-size="12" font-weight="600">78</text></a>
      <a id="pos-82" href="#pos-82"><text data-pos="82" x="432" y="557" text-anchor="middle" dominant-baseline="middle" font-size="12" font-weight="600">82</text></a>
      <a id="pos-84" href="#pos-84"><text data-pos="84" x="84" y="425" text-anchor="middle" dominant-baseline="middle" font-size="12" font-weight="600">84</text></a>
      <a id="pos-85" href="#pos-85"><text data-pos="85" x="201" y="361" text-anchor="middle" dominant-baseline="middle" font-size="12" font-weight="600">85</text></a>
      <a id="pos-86" href="#pos-86"><text data-pos="86" x="225" y="413" text-anchor="middle" dominant-baseline="middle" font-size="12" font-weight="600">86</text></a>
      <a id="pos-92" href="#pos-92"><text data-pos="92" x="457" y="582" text-anchor="middle" dominant-baseline="middle" font-size="12" font-weight="600">92</text></a>
      <a id="pos-94" href="#pos-94"><text data-pos="94" x="323" y="525" text-anchor="middle" dominant-baseline="middle" font-size="12" font-weight="600">94</text></a>
      <a id="pos-96" href="#pos-96"><text data-pos="96" x="533" y="594" text-anchor="middle" dominant-baseline="middle" font-size="12" font-weight="600">96</text></a>
      <a id="pos-100" href="#pos-100"><text data-pos="100" x="638" y="297" text-anchor="middle" dominant-baseline="middle" font-size="12" font-weight="600">100</text></a>
      <a id="pos-108" href="#pos-108"><text data-pos="108" x="635" y="480" text-anchor="middle" dominant-baseline="middle" font-size="12" font-weight="600">108</text></a>
      <a id="pos-115" href="#pos-115"><text data-pos="115" x="426" y="142" text-anchor="middle" dominant-baseline="middle" font-size="12" font-weight="600">115</text></a>
      <a id="pos-120" href="#pos-120"><text data-pos="120" x="409" y="492" text-anchor="middle" dominant-baseline="middle" font-size="12" font-weight="600">120</text></a>
      <a id="pos-124" href="#pos-124"><text data-pos="124" x="157" y="505" text-anchor="middle" dominant-baseline="middle" font-size="12" font-weight="600">124</text></a>
      <a id="pos-128" href="#pos-128"><text data-pos="128" x="225" y="532" text-anchor="middle" dominant-baseline="middle" font-size="12" font-weight="600">128</text></a>
      <a id="pos-135" href="#pos-135"><text data-pos="135" x="430" y="331" text-anchor="middle" dominant-baseline="middle" font-size="12" font-weight="600">135</text></a>
      <a id="pos-140" href="#pos-140"><text data-pos="140" x="211" y="618" text-anchor="middle" dominant-baseline="middle" font-size="10" font-weight="600">140</text></a>
      <a id="pos-153" href="#pos-153"><text data-pos="153" x="937" y="287" text-anchor="middle" dominant-baseline="middle" font-size="12" font-weight="600">153</text></a>
      <a id="pos-167" href="#pos-167"><text data-pos="167" x="684" y="574" text-anchor="middle" dominant-baseline="middle" font-size="12" font-weight="600">167</text></a>
      <a id="pos-177" href="#pos-177"><text data-pos="177" x="593" y="296" text-anchor="middle" dominant-baseline="middle" font-size="12" font-weight="600">177</text></a>
      <a id="pos-187" href="#pos-187"><text data-pos="187" x="521" y="312" text-anchor="middle" dominant-baseline="middle" font-size="12" font-weight="600">187</text></a>
      <a id="pos-217" href="#pos-217"><text data-pos="217" x="770" y="401" text-anchor="middle" dominant-baseline="middle" font-size="12" font-weight="600">217</text></a>
      <a id="pos-227" href="#pos-227"><text data-pos="227" x="268" y="448" text-anchor="middle" dominant-baseline="middle" font-size="12" font-weight="600">227</text></a>
      <a id="pos-240" href="#pos-240"><text data-pos="240" x="198" y="339" text-anchor="middle" dominant-baseline="middle" font-size="12" font-weight="600">240</text></a>
      <a id="pos-245" href="#pos-245"><text data-pos="245" x="329" y="318" text-anchor="middle" dominant-baseline="middle" font-size="12" font-weight="600">245</text></a>
      <a id="pos-250" href="#pos-250"><text data-pos="250" x="264" y="259" text-anchor="middle" dominant-baseline="middle" font-size="12" font-weight="600">250</text></a>
  </g>
</svg>
