<svg xmlns="http://www.w3.org/2000/svg" width="960" height="640" viewBox="0 0 960 640" role="img" aria-labelledby="title desc">
  <title id="title">Mercedes parts diagram: group-017</title>
  <desc id="desc">Mercedes parts diagram: group-017</desc>
  <g id="art">
    <metadata>
    Created by potrace 1.16, written by Peter Selinger 2001-2019
    </metadata>
    <g transform="translate(0.000000,640.000000) scale(0.100000,-0.100000)"
    fill="#000000" stroke="none">
    <path d="M3738 6173 c-10 -2 -18 -8 -18 -13 0 -4 8 -11 18 -15 17 -7 -106 -43
    -510 -147 l-198 -51 -19 17 -19 18 -134 -37 c-73 -19 -225 -60 -338 -90 -113
    -30 -241 -66 -285 -80 -44 -14 -172 -50 -285 -79 -340 -90 -550 -146 -640
    -172 -47 -14 -150 -42 -230 -64 -211 -56 -314 -85 -415 -115 -251 -76 -376
    -180 -442 -368 l-25 -72 4 -80 c8 -134 67 -257 187 -387 49 -53 69 -68 91 -68
    22 0 39 -12 74 -52 l45 -51 15 12 c10 9 12 20 6 42 -7 22 -5 29 6 29 13 0 19
    -25 15 -59 -2 -8 2 -10 11 -5 7 5 20 9 28 9 17 0 25 52 11 74 l-8 13 -57 -13
    c-51 -11 -76 -29 -41 -29 9 0 15 -9 15 -22 l-1 -23 -39 45 c-22 25 -40 55 -40
    69 0 15 -23 48 -65 93 -256 277 -181 596 170 723 28 10 55 21 60 25 6 4 30 12
    55 19 225 58 432 114 465 126 22 8 123 35 225 60 102 26 205 53 230 62 25 8
    153 43 285 78 352 93 607 163 715 195 52 16 151 43 220 60 124 31 155 44 144
    61 -8 14 25 24 296 94 287 73 453 117 459 121 2 2 -2 10 -9 19 l-12 15 15 0
    c9 0 19 5 22 10 6 10 -24 12 -57 3z m-734 -229 c13 -35 5 -42 -71 -62 -298
    -80 -386 -103 -448 -122 -38 -11 -137 -39 -220 -61 -82 -22 -163 -44 -180 -49
    -16 -4 -140 -38 -275 -74 -135 -36 -306 -82 -380 -102 -74 -20 -191 -52 -260
    -71 -69 -19 -215 -59 -325 -89 -319 -87 -450 -165 -522 -311 l-28 -58 0 -115
    0 -115 33 -68 c19 -38 60 -96 93 -132 l60 -64 -19 -19 -20 -20 -39 42 c-141
    148 -200 302 -174 458 35 213 181 345 466 422 55 15 145 40 200 56 166 49 498
    139 720 196 116 30 237 63 270 74 33 11 130 37 215 59 85 22 187 50 225 62 39
    11 138 39 220 61 225 59 335 88 385 103 60 18 67 18 74 -1z m-2516 -1538 c-7
    -8 -16 -12 -21 -9 -11 7 2 23 19 23 l15 0 -13 -14z m197 -71 c0 -10 -6 -20
    -12 -22 -8 -3 -13 5 -13 22 0 17 5 25 13 23 6 -3 12 -13 12 -23z"/>
    <path d="M3883 6035 c-102 -26 -189 -68 -205 -99 -6 -12 -26 -33 -44 -49 -18
    -15 -36 -41 -39 -58 -6 -24 -17 -35 -51 -50 l-43 -20 -48 37 -47 36 -39 -6
    c-50 -8 -80 -45 -87 -104 l-5 -44 -135 -55 c-74 -30 -184 -68 -244 -84 -113
    -31 -144 -43 -161 -65 -8 -11 -251 -84 -277 -84 -5 0 -8 26 -8 58 l0 57 -37
    24 -36 23 -40 -6 c-25 -4 -50 -17 -64 -33 l-24 -25 -47 13 c-78 22 -263 16
    -352 -10 -108 -33 -127 -45 -202 -123 l-68 -70 -1 -42 c-1 -22 -1 -46 0 -53 1
    -6 -7 -9 -18 -6 -26 7 -76 -24 -90 -54 -16 -35 -13 -61 9 -83 26 -26 26 -27
    -14 -34 -44 -8 -67 -36 -73 -88 -9 -78 34 -180 85 -203 l22 -10 0 -157 0 -156
    28 -22 c15 -11 37 -29 49 -38 l22 -17 11 -90 c35 -307 42 -343 72 -368 25 -21
    23 -24 -27 -32 l-40 -7 -115 124 c-63 67 -167 177 -230 243 -64 66 -141 147
    -172 179 l-55 59 -39 -11 c-21 -6 -92 -26 -156 -45 -110 -31 -150 -47 -118
    -47 13 0 267 65 294 76 16 6 25 -3 156 -141 52 -56 163 -172 245 -259 83 -88
    156 -167 163 -177 17 -24 29 -24 147 6 135 35 234 68 213 73 l-16 3 9 31 c7
    25 5 34 -9 44 l-17 13 26 1 c41 0 53 -23 50 -97 l-2 -65 19 -19 c11 -10 22
    -24 24 -31 l5 -13 51 14 51 13 35 -37 34 -38 35 7 c19 4 38 14 41 22 l6 16 15
    -12 c25 -21 18 -27 -65 -59 -95 -37 -105 -38 -150 -8 -87 59 -242 148 -252
    145 -10 -4 85 -66 214 -140 56 -32 72 -49 46 -47 -7 0 -40 17 -73 39 -128 82
    -237 142 -243 135 -4 -4 -2 -9 3 -12 42 -16 285 -173 274 -177 -8 -3 -59 -21
    -113 -41 -116 -41 -297 -95 -320 -95 -9 0 -34 12 -56 26 l-40 27 -62 -16 c-34
    -9 -66 -13 -70 -11 -29 18 -158 -45 -158 -77 0 -36 36 -78 101 -118 l71 -44
    53 12 c35 8 55 18 57 28 2 10 21 21 48 27 l45 11 5 29 5 29 260 85 259 85 54
    -29 54 -29 -5 -51 c-7 -67 10 -94 59 -94 l35 0 17 30 c10 18 23 28 32 25 8 -3
    38 2 65 9 28 8 120 33 205 56 85 23 214 58 285 77 72 20 229 62 350 94 121 32
    339 90 485 129 146 40 366 98 489 130 123 32 228 63 233 68 5 5 8 24 6 43 l-3
    33 -71 43 -71 44 38 137 c21 75 44 155 52 177 l14 39 89 28 c49 15 130 37 180
    48 60 14 98 28 110 42 l19 20 3 108 4 109 25 16 c45 30 68 98 67 200 l-1 90
    136 39 c75 22 233 65 351 96 293 78 333 91 347 108 6 8 76 31 155 51 104 26
    143 40 143 51 0 8 7 20 15 27 l15 12 -20 1 c-11 0 -27 -5 -35 -10 l-15 -10 14
    -9 c10 -6 1 -12 -30 -19 -24 -6 -60 -15 -79 -21 -144 -41 -153 -42 -161 -30
    -7 12 -111 -12 -384 -88 -294 -82 -413 -114 -438 -116 l-28 -2 -20 55 c-26 73
    -81 155 -124 182 -37 24 -51 78 -21 78 8 0 18 5 21 10 9 14 -4 70 -17 70 -5 0
    -7 -12 -3 -30 4 -19 3 -30 -4 -30 -6 0 -11 6 -11 13 0 8 -9 22 -20 32 -16 14
    -17 20 -8 27 23 14 54 8 76 -15 23 -25 29 -47 11 -47 -5 0 -7 -5 -4 -10 4 -6
    10 -8 14 -6 4 3 30 8 57 10 27 3 81 14 119 25 111 30 354 98 545 151 96 27
    234 63 305 81 86 21 135 38 145 50 8 10 48 27 88 38 63 16 110 46 97 60 -9 8
    -55 -11 -55 -23 0 -17 -103 -39 -146 -31 -17 3 -75 -7 -139 -24 -60 -17 -180
    -48 -265 -71 -85 -23 -195 -53 -245 -67 -49 -14 -173 -48 -275 -75 l-184 -50
    -34 16 c-39 19 -46 20 -36 5 4 -8 1 -8 -13 -1 -22 12 -113 -4 -113 -19 0 -5
    11 -15 25 -21 14 -6 25 -14 25 -18 0 -18 -16 -17 -48 5 -45 31 -52 22 -52 -62
    0 -35 -4 -63 -9 -63 -12 0 -21 77 -14 126 l5 41 74 17 c41 10 81 16 88 13 7
    -3 89 15 182 40 93 25 250 66 349 93 289 76 409 112 425 125 19 16 87 35 104
    29 7 -3 23 0 37 6 18 8 6 9 -57 6 -44 -3 -85 -1 -90 4 -6 6 -97 -13 -239 -51
    -467 -123 -713 -189 -810 -217 -55 -16 -117 -32 -137 -36 l-38 -7 8 23 c5 13
    8 41 7 64 l-1 41 -60 67 c-71 80 -124 108 -253 136 -121 26 -213 24 -328 -5z
    m177 -4 c0 -8 -29 -83 -35 -89 -1 -2 -30 13 -63 33 -71 41 -88 43 -96 10 -3
    -13 -11 -36 -16 -50 l-10 -27 -44 26 c-49 28 -56 31 -56 17 0 -5 34 -29 75
    -53 41 -23 75 -46 75 -49 0 -3 -36 -13 -80 -23 l-81 -19 -24 23 c-60 56 -12
    130 110 170 103 33 245 52 245 31z m191 -17 c31 -7 71 -20 88 -27 l32 -14 -66
    -16 -66 -17 -80 47 c-43 25 -79 48 -79 51 0 7 108 -8 171 -24z m-63 -65 l22
    -17 -37 -9 c-23 -5 -42 -17 -49 -31 -16 -32 -19 -34 -48 -26 -21 5 -25 11 -20
    26 3 11 1 24 -5 27 -8 5 -7 21 5 54 l16 47 46 -27 c26 -15 57 -34 70 -44z
    m1542 46 c0 -8 -16 -19 -39 -25 -22 -6 -79 -21 -128 -34 -48 -13 -180 -49
    -293 -79 -113 -30 -263 -71 -334 -91 -71 -21 -137 -35 -147 -33 -22 6 -171
    -31 -180 -44 -3 -5 -34 -18 -70 -28 -35 -10 -72 -22 -81 -26 -27 -11 -21 7 10
    31 15 11 61 29 102 39 41 10 138 36 215 57 77 22 237 64 355 94 118 30 238 62
    265 71 60 19 295 81 313 82 6 1 12 -6 12 -14z m-1758 -46 c47 -29 67 -47 64
    -56 -4 -8 -6 -18 -6 -21 0 -4 -28 -8 -63 -9 l-62 -3 -26 23 -27 22 19 43 c11
    23 23 42 26 42 4 0 38 -19 75 -41z m391 -20 c-28 -47 -36 -50 -68 -25 l-29 24
    49 15 c69 21 68 21 48 -14z m1627 12 c0 -21 8 -18 -325 -105 -115 -31 -273
    -73 -350 -95 -77 -22 -189 -53 -250 -69 -60 -16 -125 -34 -143 -40 l-33 -11 3
    22 3 21 255 69 c140 38 354 95 475 127 121 32 252 68 290 79 39 11 71 20 73
    20 1 1 2 -7 2 -18z m-1566 -16 c47 -72 -17 -140 -171 -180 -85 -22 -132 -19
    -168 10 l-30 24 20 1 c15 0 25 11 34 35 7 19 16 35 20 35 4 0 38 -20 75 -45
    38 -25 73 -45 77 -45 19 0 8 20 -18 34 -53 29 -53 29 -39 69 18 52 16 52 93 7
    78 -45 103 -51 59 -16 l-29 24 22 36 c27 43 33 44 55 11z m-209 -42 c-10 -41
    -19 -46 -55 -28 -44 23 -24 46 49 54 10 1 11 -6 6 -26z m-573 -47 c-16 -136
    338 -234 610 -168 156 38 228 89 228 161 l1 36 14 -19 c37 -49 6 -110 -78
    -153 -113 -57 -152 -65 -323 -70 l-161 -5 -94 27 c-186 53 -255 117 -217 200
    16 35 25 31 20 -9z m125 -68 c154 -83 500 -73 635 19 21 14 40 34 43 44 8 26
    25 24 25 -2 0 -12 -19 -41 -42 -64 -64 -64 -143 -86 -334 -92 l-150 -5 -85 21
    c-133 35 -199 82 -199 144 l0 28 29 -34 c16 -18 51 -45 78 -59z m243 63 c16
    -30 12 -33 -19 -16 -41 20 -47 35 -17 35 15 0 30 -8 36 -19z m73 12 c-7 -2
    -21 -2 -30 0 -10 3 -4 5 12 5 17 0 24 -2 18 -5z m-160 -45 c-9 -24 -19 -46
    -23 -51 -8 -10 -122 25 -127 39 -2 6 29 20 69 31 103 29 100 30 81 -19z m171
    17 c-7 -16 -54 -21 -54 -6 0 5 10 12 23 14 12 2 25 5 29 6 4 0 5 -6 2 -14z
    m-4 -85 c0 -8 -154 1 -163 10 -5 4 -2 24 7 44 l15 36 70 -42 c39 -24 71 -45
    71 -48z m-671 66 c9 -10 9 -16 1 -21 -13 -8 -70 13 -70 26 0 15 57 10 69 -5z
    m-50 -30 c14 -8 41 -11 67 -8 l44 5 1 -84 c1 -50 4 -74 8 -59 5 19 20 29 65
    44 l58 19 27 -17 c174 -114 475 -141 710 -64 l65 21 43 -23 43 -23 -4 -31
    c-14 -93 -16 -184 -4 -193 21 -17 68 -21 106 -11 l35 10 -5 69 c-3 38 -3 69
    -1 69 8 0 96 -53 166 -98 l67 -45 0 -27 0 -28 -29 11 c-36 13 -61 -3 -61 -39
    0 -28 41 -58 68 -50 l19 6 -4 -207 c-5 -243 -4 -237 -37 -221 -32 14 -56 -3
    -56 -42 0 -29 38 -57 71 -52 13 2 16 -2 12 -18 -7 -27 7 -22 -213 -79 -107
    -28 -271 -71 -365 -96 -93 -25 -201 -52 -240 -61 -38 -9 -78 -20 -87 -26 -10
    -5 -129 -38 -265 -73 -137 -36 -297 -78 -357 -94 l-108 -30 7 22 c21 70 22 86
    6 132 -9 27 -24 53 -34 59 l-18 11 -25 -29 c-30 -34 -28 -70 4 -74 12 -2 22
    -9 22 -15 -1 -23 -38 -92 -61 -114 -24 -21 -45 -28 -414 -126 -115 -31 -246
    -68 -290 -82 -44 -13 -94 -28 -112 -31 l-32 -6 -84 51 c-47 28 -92 51 -101 51
    -12 0 -16 9 -16 35 l0 35 26 0 c36 0 99 64 113 115 14 52 14 170 0 237 -29
    135 -126 281 -195 294 -46 9 -164 -24 -196 -54 -48 -45 -61 -96 -55 -224 l4
    -113 32 -74 c17 -41 37 -82 44 -90 7 -8 8 -12 2 -9 -206 122 -311 192 -318
    210 -11 31 4 299 17 303 6 2 37 11 69 20 69 20 81 38 80 118 -2 106 -52 181
    -123 182 -27 0 -30 4 -30 36 0 14 11 25 35 35 l36 15 44 -31 c75 -51 212 -89
    333 -91 l57 -1 -36 -10 -37 -10 -5 -31 c-4 -24 2 -43 23 -77 16 -24 28 -46 26
    -47 -2 -2 -52 27 -112 63 -60 37 -134 82 -164 100 -30 19 -58 34 -62 34 -15 0
    -8 -15 11 -25 33 -17 264 -158 293 -178 14 -11 31 -17 36 -13 6 3 20 -7 32
    -24 34 -47 50 -39 50 25 0 37 4 55 13 55 6 0 22 3 35 6 l22 6 0 -81 c0 -44 3
    -81 8 -81 4 0 7 19 7 43 1 23 4 75 7 115 l6 73 41 31 c57 41 44 48 -14 8 l-47
    -32 -32 17 -33 18 -36 -12 c-49 -16 -53 -27 -19 -45 33 -17 60 -46 43 -46 -6
    0 -11 4 -11 9 0 5 -10 9 -22 9 -47 1 -88 15 -88 29 0 10 6 12 20 8 22 -7 27 4
    9 22 -19 19 78 41 261 58 19 2 57 12 83 21 l48 17 25 -13 c33 -18 31 -24 -19
    -37 -24 -7 -71 -32 -105 -57 -72 -53 -69 -53 -75 -23 -2 12 -5 -10 -6 -49 0
    -39 -4 -86 -7 -103 -4 -20 -3 -31 5 -31 7 0 11 24 11 68 l0 67 68 49 c109 80
    109 80 91 -53 -8 -62 -8 -85 1 -96 18 -22 74 -29 107 -13 l28 13 -1 45 c-1 25
    -2 71 -3 103 l-1 59 -30 11 c-52 20 -33 33 83 62 132 32 132 32 115 53 l-13
    15 23 -12 c12 -6 22 -17 22 -24 0 -9 24 -12 88 -10 l88 2 -9 -81 -9 -80 13 -9
    c29 -18 83 -22 108 -7 l26 14 -3 94 c-2 52 -8 103 -14 113 l-10 19 -45 -5
    c-64 -7 -40 7 50 28 77 19 95 32 57 42 -28 7 -25 14 20 46 22 16 40 33 40 38
    0 5 -24 -8 -52 -29 -29 -22 -62 -42 -73 -47 l-20 -7 25 -10 25 -11 -58 -15
    -58 -14 -19 20 -19 21 32 7 c18 3 48 18 67 33 19 15 54 40 78 55 33 23 42 35
    42 57 0 33 5 34 40 14 34 -19 147 -19 184 0 35 18 36 18 36 0 0 -8 5 -15 10
    -15 6 0 10 7 10 15 0 18 13 19 54 4 l31 -11 65 21 65 21 23 -17 c13 -10 23
    -22 21 -28 -8 -20 -141 -46 -202 -40 -69 7 -71 -9 -3 -19 27 -4 70 -1 117 10
    l73 17 33 -13 c40 -14 117 -4 110 14 -10 27 24 48 112 71 50 13 101 21 112 18
    l20 -6 -7 -99 -7 -100 14 -9 c16 -10 90 -12 113 -3 l16 6 0 100 c0 55 -4 107
    -10 117 l-9 18 76 7 c42 3 119 6 172 6 112 0 124 5 119 51 l-3 34 -75 -3
    c-297 -9 -439 -33 -462 -76 -6 -11 -11 -23 -11 -26 1 -3 -32 -13 -73 -23 l-75
    -18 -47 16 c-25 9 -52 21 -59 27 -15 12 -78 3 -108 -16 -26 -16 -109 -37 -127
    -32 -7 2 -25 7 -40 10 l-28 6 0 35 c0 62 -57 94 -170 96 l-55 1 80 21 80 22
    38 -20 37 -20 10 15 c5 8 10 47 10 85 0 49 -3 65 -10 55 -5 -8 -10 -41 -10
    -74 l0 -58 -17 7 c-10 4 -26 10 -35 12 l-18 5 0 83 0 84 18 4 c9 3 19 5 22 5
    3 1 16 -5 29 -12z m221 -7 c0 -10 -59 -39 -81 -39 -23 0 -1 25 32 37 43 15 49
    15 49 2z m911 -36 c-94 -176 -656 -201 -848 -39 -48 41 -40 52 12 16 110 -76
    248 -105 450 -97 172 8 310 51 370 117 22 25 29 26 16 3z m-897 -8 c6 -17 4
    -18 -63 -35 -72 -19 -69 7 4 34 51 19 52 19 59 1z m1266 -67 c0 -23 -16 -16
    -23 11 -3 14 -1 18 9 14 8 -3 14 -14 14 -25z m-1592 -20 l-3 -22 -90 -23
    c-135 -35 -152 -19 -30 27 120 46 127 47 123 18z m1318 6 c-3 -9 -6 -22 -6
    -30 0 -19 -76 -18 -110 0 l-24 14 44 12 c25 6 50 13 55 15 27 10 47 4 41 -11z
    m112 -93 c3 -75 -2 -82 -37 -53 l-21 17 6 68 7 67 21 -13 21 -14 3 -72z m47
    52 c-2 -10 -4 -49 -4 -86 -1 -43 -5 -66 -11 -62 -17 10 -13 165 4 165 8 0 13
    -8 11 -17z m-166 -22 c22 -14 -6 -24 -47 -16 l-37 7 20 8 c27 11 47 12 64 1z
    m-1485 -28 c4 -4 -3 -15 -16 -24 l-23 -18 -3 -75 -4 -75 -56 -43 c-60 -45
    -110 -67 -154 -68 l-28 0 0 25 0 25 66 0 c38 0 64 4 62 10 -3 9 -65 51 -160
    107 -74 43 -64 60 52 93 41 12 95 28 120 35 49 15 133 19 144 8z m1351 -28 l0
    -20 -185 -11 c-102 -6 -192 -14 -200 -17 -47 -17 -78 -16 -83 3 l-5 18 47 13
    c55 14 293 37 371 35 l55 -1 0 -20z m148 18 c3 -5 7 -44 8 -87 l4 -79 -22 -10
    c-12 -5 -38 -6 -57 -3 l-36 7 0 67 c0 37 3 77 6 90 l6 22 44 0 c23 0 45 -3 47
    -7z m-2219 -9 c24 -9 19 -24 -8 -24 -33 0 -57 10 -50 21 6 10 35 12 58 3z
    m916 -12 c43 -21 45 -42 5 -61 -64 -31 -220 -11 -220 29 0 24 65 50 125 50 32
    0 69 -7 90 -18z m1539 -57 c77 -88 115 -216 109 -365 -4 -102 -21 -150 -59
    -171 l-21 -11 7 225 7 226 -56 36 -56 36 0 40 0 40 19 -10 c10 -6 32 -26 50
    -46z m-2719 35 c107 -10 243 -47 219 -60 -7 -4 -53 -17 -100 -29 l-86 -21 -74
    45 c-108 66 -123 62 -57 -16 44 -53 64 -60 28 -10 -26 38 -21 39 30 5 41 -27
    51 -44 26 -44 -8 0 -16 -8 -18 -17 -2 -12 -14 -18 -41 -19 -22 0 -43 -7 -48
    -15 -8 -14 -11 -10 -13 20 -1 13 -160 120 -178 121 -17 0 -5 -27 27 -65 18
    -22 37 -36 41 -32 4 4 -1 16 -11 27 -26 29 -13 25 52 -17 l58 -37 -50 -13
    c-71 -18 -80 -17 -138 20 -29 19 -63 39 -75 46 l-22 12 0 -14 c0 -8 18 -35 41
    -61 l41 -46 -35 0 c-38 0 -77 36 -77 71 0 66 146 137 315 152 22 2 42 4 45 5
    3 1 48 -3 100 -8z m268 -2 l52 1 0 -56 0 -57 -32 32 c-18 17 -54 40 -80 52
    -52 23 -67 47 -20 35 15 -4 51 -7 80 -7z m1583 -24 l13 -16 -18 3 c-11 2 -21
    10 -24 17 -5 17 13 15 29 -4z m1819 -9 c0 -8 -17 -19 -42 -25 -24 -6 -88 -24
    -143 -40 -55 -16 -190 -52 -300 -80 -110 -28 -231 -61 -268 -72 -51 -16 -71
    -18 -79 -10 -17 17 -14 18 117 53 66 17 183 49 260 71 429 121 455 127 455
    103z m-2575 -35 c40 0 78 6 95 15 l30 16 0 -15 c0 -22 -60 -41 -130 -41 -70 0
    -130 19 -130 41 l0 13 35 -15 c19 -7 64 -14 100 -14z m880 20 c4 -6 -12 -10
    -42 -10 -35 0 -44 3 -33 10 20 13 67 13 75 0z m-1375 -50 l0 -50 39 -20 c69
    -35 64 -64 -15 -100 -30 -14 -54 -31 -54 -38 0 -7 -7 -15 -15 -18 -8 -4 -15
    -14 -15 -23 0 -19 -23 -28 -144 -61 l-69 -19 -25 13 -24 13 36 21 c73 43 98
    138 55 208 -11 19 -25 34 -30 34 -24 0 -4 17 34 28 63 19 211 60 220 61 4 1 7
    -21 7 -49z m958 30 c29 -27 28 -33 -8 -47 l-30 -11 0 19 c0 10 -9 24 -20 31
    -11 7 -20 16 -20 20 0 16 57 7 78 -12z m-1270 -41 c25 -36 23 -70 -5 -101 -19
    -21 -110 -66 -151 -74 l-31 -6 -69 42 -69 43 5 21 c8 35 21 44 78 56 29 6 77
    20 106 30 63 22 68 16 31 -42 l-29 -45 -37 24 c-64 40 -75 26 -27 -35 44 -54
    71 -65 32 -12 -33 43 -28 44 33 5 31 -19 61 -35 68 -35 11 1 -11 22 -41 39
    -11 6 -5 22 24 69 43 69 49 70 82 21z m426 -23 l87 -55 -58 6 c-73 8 -133 43
    -133 78 0 34 6 33 104 -29z m904 36 c2 -7 -3 -12 -12 -12 -9 0 -16 7 -16 16 0
    17 22 14 28 -4z m366 -28 c17 -126 0 -157 -75 -135 l-38 11 5 73 c8 98 7 97
    57 97 l44 0 7 -46z m-390 -13 c7 -10 -44 -22 -58 -13 -5 3 -1 9 10 13 26 11
    42 11 48 0z m-1900 -63 c-10 -15 -29 -8 -58 23 l-29 30 46 -22 c25 -12 44 -26
    41 -31z m676 -8 l12 -28 -16 -31 c-22 -42 -74 -74 -181 -113 l-90 -32 -165 0
    -165 1 -82 25 c-174 54 -253 140 -189 206 l14 14 -5 -26 c-12 -60 61 -124 187
    -164 l85 -27 155 0 155 0 80 28 c44 15 95 36 113 47 57 35 94 122 57 136 -8 4
    -15 11 -15 17 0 17 37 -22 50 -53z m-500 -15 c0 -18 34 -33 58 -24 32 12 27
    26 -8 21 -18 -3 -30 0 -30 7 0 23 50 9 114 -33 l66 -43 -37 -7 c-86 -14 -116
    -8 -192 39 -95 59 -119 60 -64 3 34 -36 28 -41 -38 -27 -60 13 -114 37 -104
    47 3 3 52 18 108 33 l102 26 13 -15 c6 -9 12 -21 12 -27z m73 38 c-7 -2 -21
    -2 -30 0 -10 3 -4 5 12 5 17 0 24 -2 18 -5z m366 -74 c-81 -114 -480 -146
    -683 -55 -58 27 -91 59 -101 99 -9 36 0 34 40 -7 71 -74 141 -91 365 -91 l175
    0 70 24 c51 17 81 35 110 65 l40 42 3 -23 c2 -13 -7 -37 -19 -54z m2380 39
    c-8 -14 -14 -17 -22 -9 -7 7 -6 15 3 25 17 22 32 9 19 -16z m41 -7 c0 -24 -12
    -32 -30 -21 l-14 8 13 16 c18 22 31 20 31 -3z m-2863 -77 c-7 -8 -57 15 -57
    26 0 6 13 4 31 -5 17 -9 29 -19 26 -21z m864 18 c28 -24 20 -52 -16 -52 -18 0
    -25 5 -25 19 0 11 -9 23 -20 26 -11 4 -18 11 -15 16 10 15 51 10 76 -9z m-76
    -18 c15 -10 25 -26 25 -40 0 -30 -3 -30 -34 1 -14 14 -33 25 -43 25 l-18 1 19
    14 c24 18 22 18 51 -1z m-1190 -18 l19 -14 -32 -7 c-41 -9 -62 -30 -62 -63
    l-1 -27 -14 19 c-41 54 36 132 90 92z m46 -2 c60 -73 309 -124 508 -105 134
    14 196 32 280 82 l66 39 -43 -40 c-143 -130 -565 -145 -760 -27 -55 33 -93 67
    -75 67 6 0 16 -7 24 -16z m1124 -34 c3 -6 -1 -10 -10 -10 -19 0 -47 25 -38 33
    7 7 39 -9 48 -23z m130 0 c-3 -5 -18 -10 -33 -10 -21 0 -24 2 -12 10 20 13 53
    13 45 0z m105 0 c0 -5 -18 -10 -40 -10 -22 0 -40 5 -40 10 0 6 18 10 40 10 22
    0 40 -4 40 -10z m8 -112 l-3 -83 -40 -3 c-61 -4 -65 3 -58 91 l6 77 49 0 49 0
    -3 -82z m-1364 -31 c36 -58 47 -144 23 -180 -13 -20 -73 -47 -103 -47 -5 0 -7
    23 -5 51 4 71 -5 110 -39 160 l-29 44 42 12 c65 18 78 13 111 -40z m852 2 c3
    -5 -13 -9 -35 -9 -44 0 -65 16 -29 22 28 4 57 -1 64 -13z m-989 -28 c30 -45
    46 -107 40 -155 -7 -51 -20 -62 -54 -50 -77 26 -105 253 -30 242 12 -2 32 -18
    44 -37z m641 -1 c33 -20 43 -50 17 -50 -8 0 -15 9 -15 20 0 11 -5 20 -10 20
    -6 0 -8 -11 -4 -25 4 -15 2 -25 -5 -25 -6 0 -11 5 -11 10 0 6 -11 20 -25 32
    l-26 22 18 8 c26 10 25 10 61 -12z m362 -79 c0 -85 -4 -91 -60 -91 -34 0 -63
    25 -56 49 2 9 8 40 11 69 l7 52 49 0 49 0 0 -79z m-465 17 l44 -23 1 -37 c0
    -52 -13 -48 -60 22 -46 68 -46 68 15 38z m2765 -138 c-6 -11 -15 -20 -21 -20
    -6 0 -6 7 1 20 6 11 15 20 21 20 6 0 6 -7 -1 -20z m-2775 1 c9 -15 -76 -28
    -102 -16 l-22 10 17 7 c26 10 100 9 107 -1z m2815 -16 c0 -15 -26 -32 -36 -23
    -2 3 -2 13 2 22 8 20 34 21 34 1z m-2912 -49 l3 -27 -41 26 c-22 14 -45 23
    -51 20 -26 -16 -42 -83 -43 -175 l0 -95 28 -85 c21 -61 38 -94 63 -117 22 -21
    33 -41 33 -60 l-1 -28 -38 41 c-24 25 -50 71 -71 125 l-34 84 0 125 -1 125 21
    35 c28 48 59 62 98 46 22 -9 32 -20 34 -40z m156 11 c129 -169 143 -490 22
    -536 -39 -15 -56 -10 -38 12 6 7 17 45 24 84 20 121 -10 261 -83 382 -40 65
    -40 75 -4 84 42 10 55 6 79 -26z m-70 -102 c49 -103 61 -154 61 -270 l0 -110
    -21 -35 c-39 -68 -114 -77 -114 -14 l0 33 33 -19 c18 -10 37 -16 43 -12 39 25
    59 138 44 244 -11 73 -70 215 -94 224 -9 4 -16 18 -16 33 l0 26 20 -25 c11
    -14 31 -47 44 -75z m-108 59 l45 -26 -7 -122 -7 -122 22 -42 c25 -49 23 -57
    -16 -65 -16 -3 -36 -9 -46 -12 l-17 -7 -24 54 c-47 105 -60 284 -26 347 14 27
    22 26 76 -5z m86 -86 c55 -116 76 -308 32 -291 -8 3 -26 27 -39 54 l-25 48 0
    121 c0 66 2 120 4 120 2 0 15 -24 28 -52z m2444 -65 c-12 -40 -54 -200 -60
    -228 -4 -16 -16 -61 -27 -98 l-20 -68 -26 -10 c-34 -13 -35 -11 -17 46 9 28
    35 119 59 204 32 118 47 156 61 162 30 12 36 10 30 -8z m-66 -5 c0 -2 -14 -48
    -30 -103 -16 -55 -44 -150 -61 -211 l-32 -110 -111 -29 c-61 -15 -131 -35
    -156 -43 -25 -8 -153 -43 -285 -78 -549 -144 -736 -194 -855 -228 -127 -37
    -150 -41 -150 -29 0 4 12 49 27 100 l27 94 90 51 c125 71 207 130 293 211 l74
    70 167 42 c92 24 208 54 257 69 50 14 176 49 280 77 105 28 244 65 310 84 108
    30 155 40 155 33z m-1180 -97 c0 -5 -7 -11 -15 -15 -8 -3 -15 -15 -15 -26 0
    -12 -4 -18 -10 -15 -16 10 -12 43 8 54 21 13 32 14 32 2z m22 -63 c24 -72 -57
    -184 -217 -301 -106 -77 -273 -175 -390 -227 -38 -18 -115 -52 -169 -77 -212
    -96 -796 -296 -814 -279 -12 13 18 26 168 71 165 51 475 165 587 216 37 17
    102 46 143 64 132 56 336 170 438 244 163 117 241 216 227 288 -8 42 14 42 27
    1z m-1552 -43 c0 -1 7 -69 16 -151 9 -82 16 -166 16 -187 l1 -39 33 -21 c19
    -12 34 -25 34 -29 0 -16 -36 -7 -63 15 l-29 22 -9 80 c-34 299 -36 327 -14
    319 8 -4 15 -7 15 -9z m100 -174 c16 -127 14 -142 -26 -155 l-21 -7 -12 113
    c-6 62 -14 135 -17 162 l-6 49 33 -21 34 -21 15 -120z m254 136 l19 -14 -46
    -12 -45 -13 -23 13 -24 13 45 12 c25 7 48 12 51 13 3 1 13 -5 23 -12z m-204
    -52 c20 -11 21 -14 7 -15 -31 0 -30 -28 3 -63 17 -18 37 -45 44 -59 l14 -26
    -27 -5 c-14 -2 -33 -7 -43 -11 l-16 -7 -7 78 c-3 43 -8 88 -11 101 -5 25 1 27
    36 7z m210 -5 l-11 -20 -21 11 -21 11 14 9 c8 5 22 9 32 9 l18 0 -11 -20z
    m-120 -55 c23 -19 47 -35 53 -35 7 0 31 -13 54 -29 l42 -28 -38 -12 c-61 -18
    -79 -15 -74 13 3 16 -5 34 -27 60 -31 35 -57 40 -45 7 4 -9 -5 -5 -21 10 -26
    26 -26 49 1 49 7 0 32 -16 55 -35z m1129 -21 c-48 -51 -235 -166 -421 -259
    -203 -101 -223 -107 -225 -74 -3 29 -23 50 -45 47 -15 -2 -23 6 -33 35 -7 20
    -18 44 -25 52 -15 18 -22 15 130 54 63 16 145 39 183 50 77 23 77 24 48 -69
    -11 -35 -15 -60 -9 -58 6 2 20 37 32 78 l21 74 48 14 c27 8 51 11 54 8 3 -3
    -2 -25 -10 -50 -9 -25 -12 -48 -7 -51 5 -3 16 21 25 53 l17 59 111 31 c139 37
    135 37 106 6z m1391 -11 c27 -16 50 -31 50 -35 0 -13 -29 -9 -37 6 -4 7 -23
    21 -40 30 -30 15 -41 26 -28 26 3 0 27 -12 55 -27z m-2380 -14 l0 -21 -15 12
    c-15 12 -12 30 6 30 5 0 9 -10 9 -21z m2378 -27 c1 -5 -37 -19 -85 -31 -48
    -12 -124 -33 -168 -46 -44 -13 -177 -49 -295 -81 -570 -149 -662 -174 -726
    -193 -38 -11 -150 -41 -249 -66 -99 -26 -225 -60 -280 -77 l-99 -31 -43 23
    c-24 13 -42 28 -40 34 6 17 68 29 93 17 15 -7 34 -7 56 0 18 5 52 12 76 14 23
    3 136 30 250 61 114 31 315 85 447 120 132 34 267 70 300 79 33 10 150 41 260
    70 110 30 227 61 260 69 33 9 72 23 87 31 14 8 33 15 42 15 9 0 24 9 33 20
    l17 19 30 -19 c17 -10 32 -23 34 -28z m-2510 16 c12 -12 17 -48 6 -48 -10 0
    -42 45 -37 52 6 11 17 10 31 -4z m2582 -47 c0 -23 -25 -31 -295 -101 -110 -28
    -245 -64 -300 -80 -55 -16 -188 -52 -297 -79 -108 -28 -207 -55 -220 -60 -12
    -6 -106 -31 -208 -56 -102 -25 -221 -57 -265 -70 -97 -29 -469 -125 -484 -125
    -6 0 -11 8 -11 19 l0 19 93 22 c50 13 160 42 242 65 83 24 224 62 315 85 91
    23 201 52 245 65 44 14 175 49 290 79 279 73 714 190 795 214 85 26 100 26
    100 3z m-2328 -42 c37 -23 68 -43 68 -44 0 -14 -93 -75 -122 -80 l-38 -7 0 21
    c0 11 6 21 13 21 27 0 47 24 40 49 l-6 23 -37 -6 -38 -6 -5 28 c-11 55 34 56
    125 1z m-262 8 c0 -4 -7 -10 -15 -13 -20 -8 -72 5 -58 14 15 10 73 9 73 -1z
    m110 3 c0 -5 -4 -10 -10 -10 -5 0 -10 5 -10 10 0 6 5 10 10 10 6 0 10 -4 10
    -10z m-173 -86 c-7 -8 -57 23 -57 35 0 19 13 17 37 -5 14 -13 23 -27 20 -30z
    m77 50 c24 -9 19 -41 -6 -48 -57 -15 -80 1 -30 21 l27 11 -35 1 c-57 2 -74 21
    -18 21 25 0 53 -3 62 -6z m126 -33 c5 -11 10 -46 10 -77 l0 -57 -25 23 c-25
    24 -31 60 -19 108 8 27 20 28 34 3z m40 -7 c0 -8 -4 -12 -10 -9 -5 3 -10 13
    -10 21 0 8 5 12 10 9 6 -3 10 -13 10 -21z m30 11 c0 -8 -2 -15 -4 -15 -2 0 -6
    7 -10 15 -3 8 -1 15 4 15 6 0 10 -7 10 -15z m-328 -16 c17 -12 44 -25 62 -29
    l31 -7 -39 -8 -39 -8 -44 24 c-43 24 -49 30 -36 42 12 12 34 7 65 -14z m493
    -23 c9 -13 18 -41 21 -62 l5 -39 -18 50 c-12 32 -27 54 -43 62 l-25 13 22 0
    c13 0 29 -10 38 -24z m-5 -58 c12 -44 6 -88 -11 -88 -7 0 -9 9 -6 23 4 12 2
    29 -3 37 -7 11 -10 5 -10 -22 0 -41 -14 -56 -34 -39 -11 9 -11 21 -4 52 l11
    40 -18 19 -18 20 24 9 c35 13 57 -3 69 -51z m-82 -1 c3 -15 -8 -20 -100 -43
    l-28 -6 0 21 c0 16 10 23 43 31 23 6 47 13 52 15 17 6 30 -1 33 -18z m508 -97
    l-23 -85 -44 -13 c-69 -20 -71 -16 -43 69 l26 76 51 24 c29 14 53 22 54 19 2
    -3 -8 -43 -21 -90z m-328 37 c5 -37 -15 -34 -20 3 -3 19 -1 29 6 27 6 -2 12
    -16 14 -30z m-188 13 c0 -5 -4 -10 -10 -10 -5 0 -10 5 -10 10 0 6 5 10 10 10
    6 0 10 -4 10 -10z m150 -21 c0 -11 -4 -17 -10 -14 -5 3 -10 15 -10 26 0 11 5
    17 10 14 6 -3 10 -15 10 -26z m234 -74 l-19 -66 -27 7 c-24 5 -95 62 -86 68
    16 11 144 63 147 60 2 -2 -5 -33 -15 -69z m-139 -25 c-3 -5 -19 -10 -36 -10
    -16 0 -29 5 -29 10 0 6 16 10 36 10 21 0 33 -4 29 -10z m-55 -26 l35 -14 -40
    5 -40 6 25 -20 c32 -25 20 -38 -14 -16 -25 17 -33 35 -19 48 8 9 11 8 53 -9z
    m-38 -56 l32 -22 -28 -7 c-22 -6 -38 -1 -76 24 l-48 32 41 16 42 17 3 -19 c2
    -10 17 -29 34 -41z m126 50 c-7 -19 -35 -21 -41 -3 -5 11 0 15 19 15 16 0 24
    -5 22 -12z m-38 -33 c0 -16 -27 -32 -37 -22 -3 4 -3 13 0 22 8 20 37 20 37 0z
    m-170 -40 c32 -19 65 -35 74 -35 31 0 76 -30 76 -50 0 -11 -3 -20 -6 -20 -8 0
    -181 103 -209 124 -39 30 7 16 65 -19z m219 -36 c-21 -13 -73 -11 -94 5 l-20
    14 35 10 c41 11 105 -12 79 -29z m-905 -28 l29 -19 -39 -11 c-21 -6 -44 -11
    -50 -11 -7 0 -14 -9 -17 -19 -8 -33 -60 -36 -112 -6 -74 44 -73 55 7 61 29 2
    69 8 88 13 52 13 62 13 94 -8z m778 -38 c16 -20 -1 -33 -44 -33 l-40 0 6 16
    c3 9 6 27 6 40 l0 25 31 -18 c17 -10 35 -23 41 -30z m-742 -42 l0 -50 -22 -6
    c-13 -4 -31 -9 -41 -12 l-18 -5 2 47 3 46 28 6 c16 3 31 10 34 14 11 18 14 8
    14 -40z m-267 20 c37 -19 34 -28 -13 -36 -46 -8 -60 -2 -60 26 0 11 4 18 9 14
    5 -3 13 -1 16 5 4 6 10 10 13 8 4 -2 19 -10 35 -17z m177 -71 l0 -40 -36 -15
    c-52 -21 -54 -20 -54 30 l0 44 33 10 c54 16 57 14 57 -29z m812 29 c-15 -6
    -30 -5 -40 1 -13 7 -8 9 23 9 l40 0 -23 -10z m-912 -44 c0 -25 -2 -45 -5 -45
    -8 0 -115 61 -115 66 0 6 64 22 93 23 l27 1 0 -45z"/>
    <path d="M3432 5580 c-37 -9 -54 -20 -30 -20 31 0 78 13 78 21 0 10 -2 10 -48
    -1z"/>
    <path d="M4575 5294 c-461 -120 -653 -172 -721 -192 -38 -11 -152 -42 -254
    -67 -102 -25 -230 -59 -285 -75 -55 -16 -174 -47 -265 -70 -91 -23 -208 -54
    -260 -70 -52 -16 -169 -47 -260 -70 -195 -50 -224 -61 -243 -92 -17 -27 -36
    -675 -19 -665 5 4 12 148 15 322 4 175 11 324 17 334 6 12 38 27 87 41 158 45
    556 153 813 220 270 70 433 114 665 176 278 75 618 166 785 210 96 25 176 47
    178 49 16 15 -48 2 -253 -51z"/>
    <path d="M3297 5319 c-10 -6 -52 -9 -93 -7 -77 3 -99 -6 -39 -18 46 -8 138 4
    161 21 23 18 0 21 -29 4z"/>
    <path d="M3560 5313 c0 -6 5 -15 10 -18 15 -10 12 -68 -6 -93 -42 -61 -276
    -119 -409 -102 -92 13 -131 12 -118 -1 17 -17 217 -23 301 -10 108 17 196 55
    237 104 19 22 35 49 35 58 0 20 -49 81 -50 62z"/>
    <path d="M4662 4798 c-18 -18 -15 -36 7 -48 48 -25 88 5 55 41 -20 22 -45 24
    -62 7z m44 -45 c-10 -10 -19 5 -10 18 l8 13 4 -13 c2 -7 1 -15 -2 -18z"/>
    <path d="M4540 4779 c-20 -37 35 -73 65 -42 20 20 19 29 -7 47 -30 21 -45 20
    -58 -5z"/>
    <path d="M2340 4640 c-28 -28 -25 -47 13 -70 39 -24 41 -24 61 -4 25 25 20 58
    -13 77 -36 21 -37 21 -61 -3z m36 -16 c-3 -9 -6 -21 -6 -27 0 -8 -3 -8 -11 0
    -13 13 -5 43 12 43 6 0 8 -7 5 -16z m37 -10 c9 -10 -4 -34 -19 -34 -8 0 -14 6
    -14 13 0 22 19 35 33 21z"/>
    <path d="M2562 4248 c-19 -19 -14 -44 13 -56 19 -9 27 -8 40 4 20 21 19 30 -7
    48 -27 19 -31 19 -46 4z"/>
    <path d="M2435 4218 l-15 -23 17 -13 c24 -18 57 -11 61 12 4 18 -21 46 -39 46
    -4 0 -15 -10 -24 -22z"/>
    <path d="M2326 4128 c-24 -33 -20 -47 19 -65 l36 -17 20 21 c26 25 19 55 -17
    71 -34 16 -41 15 -58 -10z m40 -14 c-3 -9 -6 -18 -6 -20 0 -2 -7 -4 -15 -4
    -13 0 -14 4 -5 20 13 24 35 27 26 4z m34 -18 c0 -16 -18 -31 -27 -22 -8 8 5
    36 17 36 5 0 10 -6 10 -14z"/>
    <path d="M1420 4962 c0 -5 9 -12 19 -15 22 -5 61 -75 61 -109 0 -13 -7 -34
    -16 -47 l-16 -23 18 4 c39 7 37 112 -4 167 -19 26 -62 41 -62 23z"/>
    <path d="M7732 5835 c-57 -41 -66 -113 -26 -226 l27 -74 1 -111 1 -112 -20
    -22 -20 -22 -62 7 c-126 13 -182 -59 -203 -264 -17 -163 -109 -402 -158 -409
    -12 -2 -25 -17 -33 -35 -7 -18 -23 -45 -36 -61 -32 -39 -28 -80 8 -84 30 -3
    69 36 69 70 0 10 7 30 16 43 8 13 14 32 13 42 -4 25 98 223 115 223 14 0 14
    -11 0 -147 -3 -28 -12 -57 -20 -64 -8 -6 -14 -23 -14 -38 0 -14 -5 -43 -11
    -65 l-11 -39 15 -15 c40 -39 99 19 79 78 -6 17 -9 37 -5 45 3 9 0 22 -7 30
    -16 19 -5 188 16 247 8 22 21 93 29 157 16 130 24 158 53 184 l19 18 71 -3 71
    -3 28 21 c46 34 67 88 71 184 l3 85 -27 100 c-33 120 -36 173 -12 188 13 9 22
    7 41 -11 13 -12 29 -22 35 -22 7 0 12 -4 12 -8 0 -5 17 -17 38 -28 20 -10 50
    -29 65 -41 38 -31 72 -29 94 3 l17 26 -15 27 c-8 14 -28 30 -44 36 -15 5 -41
    22 -56 38 -15 15 -34 27 -42 27 -8 0 -20 7 -27 15 -7 8 -22 15 -34 15 -11 0
    -39 3 -61 6 -28 3 -47 0 -63 -11z m87 -11 c11 -10 -12 -34 -34 -34 -19 0 -29
    -9 -42 -35 l-16 -34 26 -88 c40 -134 51 -224 37 -297 -21 -105 -60 -138 -155
    -129 -40 4 -70 1 -84 -7 -32 -17 -59 -84 -66 -165 -10 -116 -34 -215 -52 -215
    -12 0 -14 7 -9 28 3 15 13 79 21 142 20 155 30 188 76 234 l40 39 69 -6 69 -6
    21 17 c47 38 47 195 0 357 -32 113 -23 175 30 202 21 11 55 9 69 -3z m53 -10
    c7 -7 -21 -64 -32 -64 -16 0 -18 28 -4 49 15 21 26 26 36 15z m40 -47 c-12
    -13 -22 -30 -22 -37 0 -10 -3 -11 -11 -3 -21 21 -2 63 28 63 l26 0 -21 -23z
    m44 -11 c7 -19 -13 -56 -31 -56 -23 0 -28 19 -11 45 18 28 34 32 42 11z m44
    -46 c-9 -9 -19 -23 -22 -31 -4 -12 -28 -5 -28 10 0 16 41 50 54 45 l14 -6 -18
    -18z m48 -21 c-3 -23 -33 -48 -44 -37 -3 4 -4 19 0 33 8 33 49 36 44 4z m-766
    -1141 c-12 -12 -35 -1 -27 12 3 5 13 6 21 3 10 -4 12 -9 6 -15z m158 -9 c0 -5
    -7 -9 -15 -9 -8 0 -15 7 -15 15 0 9 6 12 15 9 8 -4 15 -10 15 -15z m-180 -37
    c0 -24 -28 -62 -46 -62 -19 0 -18 26 4 55 20 29 42 32 42 7z m185 -21 c0 -29
    -29 -51 -45 -35 -8 8 -7 19 1 38 15 33 44 31 44 -3z"/>
    <path d="M8260 5800 c0 -5 5 -10 10 -10 6 0 10 -20 10 -45 0 -25 -4 -45 -10
    -45 -5 0 -10 -4 -10 -10 0 -5 12 -10 26 -10 20 0 25 4 20 16 -3 9 -6 38 -6 65
    l0 49 -20 0 c-11 0 -20 -4 -20 -10z"/>
    <path d="M8367 5766 c-27 -48 -26 -56 9 -56 12 0 25 -8 29 -17 l7 -18 7 20
    c12 31 1 115 -14 115 -7 0 -24 -20 -38 -44z m33 -11 c0 -16 -6 -25 -15 -25
    -18 0 -18 5 -5 31 14 26 20 24 20 -6z"/>
    <path d="M8461 5797 c-15 -19 -2 -29 16 -12 21 21 33 18 33 -8 0 -14 -12 -32
    -30 -45 -43 -32 -39 -52 10 -52 22 0 40 5 40 10 0 6 -14 10 -32 10 l-32 0 37
    34 c20 18 37 38 37 43 0 30 -58 44 -79 20z"/>
    <path d="M1260 5780 c0 -5 11 -10 25 -10 30 0 30 3 5 -51 -32 -72 -21 -79 14
    -9 18 36 31 68 29 73 -6 11 -73 9 -73 -3z"/>
    <path d="M1382 5745 c-27 -56 -27 -55 3 -55 16 0 25 -6 25 -15 0 -8 5 -15 10
    -15 6 0 10 7 10 15 0 8 6 15 13 15 9 0 9 2 0 8 -6 4 -13 25 -15 46 -4 54 -20
    55 -46 1z m28 -20 c0 -16 -6 -25 -15 -25 -18 0 -18 5 -5 31 14 26 20 24 20 -6z"/>
    <path d="M6470 5720 l-15 -10 18 0 17 0 0 -44 c0 -25 -4 -48 -10 -51 -5 -3
    -10 -10 -10 -16 0 -12 37 -12 45 1 3 6 1 10 -4 10 -7 0 -11 24 -11 60 0 61 -4
    67 -30 50z"/>
    <path d="M6573 5720 c-13 -5 -23 -14 -23 -20 0 -13 17 -13 25 0 9 14 45 12 45
    -2 0 -7 -16 -29 -36 -49 -20 -21 -33 -42 -30 -48 9 -14 76 -15 76 -1 0 6 -11
    10 -25 10 -32 0 -31 2 5 38 35 35 38 57 11 72 -22 11 -19 11 -48 0z"/>
    <path d="M6674 5716 c-11 -8 -15 -18 -10 -23 5 -4 11 -2 13 5 6 15 39 16 49 1
    3 -6 -10 -28 -31 -49 -21 -21 -34 -43 -31 -49 9 -14 63 -14 71 -1 4 6 -5 10
    -19 10 -34 0 -33 10 4 45 35 33 36 38 14 59 -19 20 -35 20 -60 2z"/>
    <path d="M6261 5685 c-24 -8 -48 -20 -52 -27 -5 -7 -9 -66 -9 -131 l0 -119 23
    -19 c30 -25 50 -24 86 7 l31 26 0 54 c0 38 4 56 14 60 33 13 26 103 -12 147
    -18 20 -23 20 -81 2z m73 -24 c10 -11 20 -38 23 -60 l6 -41 -27 -10 c-36 -13
    -36 -13 -36 13 0 12 -9 40 -20 62 -24 47 -24 43 -2 48 32 9 39 7 56 -12z m-70
    -52 c19 -47 13 -79 -15 -79 l-19 0 0 -55 c0 -35 -4 -55 -11 -55 -9 0 -10 20
    -6 68 4 37 7 88 7 115 0 60 21 63 44 6z m56 -113 l0 -24 -21 5 c-25 7 -51 -20
    -42 -43 6 -16 33 -19 33 -4 0 6 -5 10 -12 10 -9 0 -9 3 -1 11 9 9 16 7 29 -6
    l18 -17 -19 -14 c-10 -8 -29 -14 -42 -14 l-23 0 0 48 0 48 28 11 c42 17 52 15
    52 -11z"/>
    <path d="M8182 5588 c-14 -14 -16 -48 -3 -48 5 0 12 -8 15 -17 9 -28 162 -106
    191 -99 34 9 44 51 19 76 -58 57 -198 112 -222 88z m22 -23 c-6 -16 -24 -21
    -24 -7 0 11 11 22 21 22 5 0 6 -7 3 -15z m76 -15 c0 -14 -22 -12 -43 4 -13 10
    -15 15 -5 19 16 5 48 -10 48 -23z m-25 -31 c11 -17 -2 -21 -24 -7 -28 17 -29
    43 -2 28 11 -5 23 -15 26 -21z m104 -10 c71 -51 34 -93 -43 -49 -37 22 -45 47
    -24 68 17 17 20 16 67 -19z"/>
    <path d="M8690 5421 c-80 -21 -167 -45 -195 -53 -27 -9 -62 -19 -76 -22 -32
    -7 -62 -49 -65 -91 -3 -46 -20 -103 -38 -130 -18 -28 -22 -55 -6 -39 6 6 19
    26 29 45 22 41 71 55 71 20 0 -11 -4 -23 -10 -26 -5 -3 -10 -15 -10 -26 0 -10
    -4 -19 -9 -19 -5 0 -14 -14 -21 -31 l-13 -30 29 -60 c22 -48 34 -62 56 -66
    l28 -5 -25 -30 c-31 -36 -24 -51 19 -42 l33 6 21 -26 c11 -14 29 -26 41 -26
    27 0 28 1 -19 -71 -22 -34 -40 -66 -40 -72 0 -5 -10 -7 -22 -4 -13 3 -48 -2
    -78 -12 l-55 -17 -3 -89 c-4 -106 8 -153 50 -201 l32 -36 45 7 c25 3 64 18 85
    32 30 19 54 26 100 27 34 2 73 6 89 10 l27 8 11 -31 c6 -17 15 -31 20 -31 30
    0 129 35 125 44 -2 6 -7 18 -11 27 l-6 16 68 15 c48 10 67 19 66 29 -1 8 -3
    22 -5 33 l-3 19 132 32 c73 18 139 38 148 45 33 28 36 22 -304 675 l-119 230
    -24 2 c-12 1 -88 -15 -168 -36z m238 -93 c33 -62 104 -198 157 -303 54 -104
    126 -245 161 -312 65 -123 70 -146 31 -157 -42 -12 -372 -98 -410 -107 -55
    -13 -70 -1 -121 103 -25 51 -67 134 -94 183 -139 256 -281 540 -274 547 4 4
    46 -65 93 -153 46 -89 109 -210 140 -268 30 -58 88 -169 128 -246 77 -146 83
    -155 116 -154 l20 0 -27 14 c-19 11 -48 57 -102 162 -42 82 -110 211 -151 288
    -135 252 -199 385 -189 394 8 8 79 28 339 96 50 13 98 24 107 24 11 1 36 -35
    76 -111z m-549 -137 c-15 -5 -22 6 -14 19 6 9 10 9 16 -1 5 -8 4 -15 -2 -18z
    m118 -197 c35 -65 88 -168 119 -229 31 -60 72 -136 91 -168 19 -32 32 -61 29
    -64 -11 -12 -26 14 -228 397 -16 30 -36 58 -43 62 -7 5 -11 17 -8 28 3 11 0
    20 -6 20 -6 0 -11 -7 -11 -16 0 -8 -4 -13 -10 -9 -6 3 -5 15 2 31 l12 26 -17
    9 c-9 6 -17 17 -17 25 0 36 27 1 87 -112z m-77 57 c0 -6 -4 -13 -10 -16 -17
    -11 -11 -25 15 -35 28 -11 30 -24 11 -59 l-13 -23 -31 53 c-23 40 -28 58 -21
    71 10 19 49 25 49 9z m87 -153 c20 -38 29 -67 24 -75 l-8 -14 -12 15 c-8 9
    -28 16 -45 16 l-31 1 29 23 29 24 -24 12 c-33 17 -32 16 -19 39 16 31 22 27
    57 -41z m53 -98 c0 -5 -4 -10 -10 -10 -5 0 -10 5 -10 10 0 6 5 10 10 10 6 0
    10 -4 10 -10z m77 -171 c-2 -8 -33 -61 -68 -117 l-63 -102 -13 42 c-7 24 -20
    48 -30 55 l-17 13 16 33 c9 19 40 70 69 115 l52 82 29 -52 c16 -29 27 -60 25
    -69z m-171 -28 c-7 -11 -85 -26 -93 -18 -6 6 51 25 80 26 10 1 16 -3 13 -8z
    m208 -24 l10 -27 -20 -14 c-10 -8 -37 -25 -59 -37 l-39 -23 22 35 c13 19 30
    49 39 67 19 37 34 37 47 -1z m-236 -31 c-12 -28 -37 -41 -51 -27 -15 15 -1 39
    25 44 13 2 26 5 30 6 4 0 3 -10 -4 -23z m-68 -68 c0 -130 45 -181 113 -128 14
    11 28 20 30 20 3 0 53 32 111 70 97 64 136 82 136 63 0 -5 -32 -28 -71 -53
    -39 -25 -108 -69 -153 -98 -44 -30 -92 -54 -105 -54 -52 -1 -95 102 -84 203 9
    86 23 72 23 -23z m339 45 c-1 -16 -179 -123 -179 -108 0 9 34 38 76 65 71 47
    105 60 103 43z m-229 -114 c0 -27 -4 -49 -9 -49 -5 0 -7 8 -4 19 4 17 -3 51
    -22 106 l-7 20 21 -24 c15 -17 21 -37 21 -72z m-45 51 c19 -37 20 -110 1 -110
    -28 0 -62 75 -52 115 9 34 32 32 51 -5z m335 16 c0 -5 -69 -46 -78 -46 -3 0 9
    11 28 25 33 23 50 30 50 21z m66 -56 c11 0 26 -6 33 -12 l14 -13 -6 18 c-8 21
    2 22 39 2 l29 -15 -26 0 c-18 0 -29 -8 -37 -25 -14 -31 -15 -38 -3 -30 5 3 12
    2 15 -3 3 -5 -17 -13 -44 -18 -39 -8 -47 -8 -39 2 11 14 2 61 -14 71 -7 4 -8
    -5 -4 -25 9 -47 -10 -39 -36 14 l-22 46 19 14 20 14 21 -20 c12 -11 30 -20 41
    -20z m144 31 c0 -10 -24 -21 -46 -21 -8 0 -14 4 -14 9 0 8 10 12 53 20 4 0 7
    -3 7 -8z m40 -22 c0 -4 -9 -9 -20 -12 -23 -6 -24 -3 -9 25 l11 21 9 -14 c5 -8
    9 -17 9 -20z m-340 -13 c0 -2 -16 -14 -36 -26 -19 -12 -33 -25 -30 -27 3 -3
    28 9 57 26 28 18 52 31 54 29 12 -14 25 -51 21 -56 -3 -3 -42 -7 -86 -8 -43
    -1 -85 -6 -92 -10 -27 -15 3 10 49 41 46 32 63 40 63 31z m-130 -81 c0 -2 -10
    -9 -22 -15 l-23 -11 19 15 c21 17 26 19 26 11z"/>
    <path d="M8658 5302 c-141 -35 -188 -51 -188 -62 0 -8 17 -47 38 -85 20 -39
    97 -187 170 -328 74 -141 139 -257 145 -257 35 1 391 98 394 107 4 11 -49 119
    -231 468 -75 145 -109 200 -122 202 -11 0 -103 -20 -206 -45z m271 -87 c31
    -60 105 -204 165 -319 108 -208 113 -225 69 -226 -6 0 -18 -2 -25 -5 -10 -4
    -30 24 -66 93 l-51 98 15 22 c18 27 11 82 -19 131 l-20 33 -36 -5 -36 -6 -39
    85 -39 84 11 39 c7 21 12 45 12 52 0 22 -18 -9 -30 -51 l-9 -35 -123 -29 c-68
    -16 -135 -31 -150 -33 l-27 -5 -20 41 c-26 51 -26 57 2 64 12 3 90 24 172 46
    83 22 158 39 169 38 13 -1 36 -35 75 -112z m-51 -117 l31 -68 -17 -9 c-9 -5
    -42 -12 -72 -16 -30 -4 -59 -11 -65 -15 -15 -12 -115 -31 -126 -24 -13 7 -82
    145 -76 151 3 2 65 19 138 38 153 38 141 42 187 -57z m132 -110 c20 -33 26
    -83 12 -105 -4 -6 -20 -15 -35 -18 l-27 -7 0 38 c0 22 -9 54 -20 72 -24 39
    -19 52 21 52 22 0 34 -8 49 -32z m-126 -26 c8 -15 17 -44 21 -64 l7 -36 -23
    -16 c-39 -27 -56 -21 -51 19 3 23 -3 49 -17 75 -15 30 -18 42 -9 45 51 15 52
    15 72 -23z m36 6 c21 -34 27 -108 10 -108 -5 0 -10 15 -10 33 0 18 -9 49 -19
    70 -23 46 -8 49 19 5z m-117 -33 c19 -39 23 -105 7 -105 -5 0 -10 14 -10 30 0
    17 -9 49 -20 70 -15 30 -17 40 -7 40 7 0 21 -16 30 -35z m-40 -7 c35 -77 29
    -118 -20 -132 l-22 -7 5 33 c4 23 -2 47 -19 80 l-24 47 21 4 c12 2 26 5 32 6
    7 0 19 -14 27 -31z m-79 -19 c16 -19 26 -42 26 -62 l0 -32 -35 55 c-19 30 -35
    58 -35 63 0 16 20 5 44 -24z m375 -154 c25 -52 43 -97 40 -99 -4 -3 -263 -66
    -274 -66 -5 0 -95 175 -95 185 0 3 9 5 19 5 11 0 22 4 25 9 3 4 27 11 54 15
    26 3 57 13 69 21 12 8 28 12 37 9 8 -3 23 -1 33 5 36 21 48 11 92 -84z"/>
    <path d="M6400 5383 c0 -22 50 -73 86 -88 30 -12 40 -22 37 -34 -20 -78 111
    -134 171 -73 73 77 20 184 -83 168 -90 -14 -101 -19 -101 -42 0 -8 -4 -14 -10
    -14 -19 0 -10 42 10 47 23 6 27 23 6 23 -8 0 -24 -11 -34 -25 -18 -23 -42 -19
    -27 4 3 5 -3 12 -12 14 -10 3 -1 5 20 6 56 2 45 21 -13 21 -27 0 -50 -3 -50
    -7z m240 -43 c0 -5 9 -10 20 -10 54 0 64 -100 13 -140 -32 -25 -48 -25 -73 0
    -17 17 -19 28 -14 57 8 44 -11 38 -21 -7 -8 -37 -25 -30 -25 10 0 19 12 41 34
    64 32 34 66 48 66 26z m-100 -31 c-7 -11 -14 -19 -16 -16 -7 7 7 37 17 37 6 0
    5 -9 -1 -21z"/>
    <path d="M6641 5282 c-1 -15 -9 -26 -21 -29 -26 -7 -26 -23 -1 -23 12 0 21 -8
    24 -22 l4 -23 2 22 c0 13 10 28 21 35 25 16 26 28 1 28 -11 0 -22 8 -24 18 -3
    12 -5 11 -6 -6z"/>
    <path d="M8175 5061 l-60 -16 -3 -27 c-4 -29 70 -186 92 -194 7 -3 33 2 57 10
    24 9 52 16 61 16 60 0 41 141 -28 205 -31 28 -37 29 -119 6z m124 -38 c30 -36
    51 -102 43 -134 -2 -9 -16 -19 -32 -22 -15 -4 -39 -9 -53 -12 l-25 -7 -7 32
    c-4 17 -13 34 -20 36 -14 6 -30 42 -40 90 l-6 32 38 10 c61 16 70 14 102 -25z
    m-149 -29 c0 -14 -4 -22 -10 -19 -5 3 -10 17 -10 31 0 14 4 22 10 19 6 -3 10
    -17 10 -31z m58 -131 c-3 -13 -10 -6 -26 24 -29 55 -28 61 4 24 14 -17 24 -39
    22 -48z"/>
    <path d="M8201 5002 c-15 -28 13 -64 47 -60 51 6 37 78 -14 78 -13 0 -28 -8
    -33 -18z m59 -17 l12 -15 -16 -6 c-18 -7 -49 13 -40 27 8 14 30 11 44 -6z"/>
    <path d="M6480 5020 c0 -5 5 -10 10 -10 15 0 13 -97 -2 -103 -7 -3 1 -5 17 -5
    17 0 24 2 18 5 -9 3 -13 26 -13 64 0 46 -3 59 -15 59 -8 0 -15 -4 -15 -10z"/>
    <path d="M6582 5018 c-20 -20 -13 -32 7 -14 20 18 41 14 41 -8 0 -6 -16 -27
    -35 -46 -46 -44 -44 -50 13 -48 36 1 39 2 15 5 -37 5 -42 17 -13 33 45 24 50
    90 6 90 -12 0 -27 -5 -34 -12z"/>
    <path d="M6675 5020 c3 -5 17 -10 31 -10 28 0 29 -2 10 -38 -21 -41 -28 -72
    -18 -72 8 0 62 110 62 126 0 2 -21 4 -46 4 -27 0 -43 -4 -39 -10z"/>
    <path d="M7828 4758 c16 -16 16 -105 0 -111 -7 -3 3 -6 22 -6 26 -1 31 2 22
    11 -7 7 -12 36 -12 65 l0 53 -22 0 c-17 0 -19 -3 -10 -12z"/>
    <path d="M7952 4758 c-11 -15 -42 -75 -42 -83 0 -3 14 -5 30 -5 20 0 30 -5 30
    -15 0 -21 17 -19 22 3 2 9 2 38 0 65 -4 47 -19 60 -40 35z m14 -53 c-3 -8 -12
    -15 -21 -15 l-15 0 17 26 c17 26 30 18 19 -11z"/>
    <path d="M8042 4729 c-27 -51 -27 -59 -1 -59 12 0 28 -8 35 -17 l13 -18 1 18
    c0 9 5 17 12 17 9 0 9 3 0 12 -7 7 -12 29 -12 50 0 51 -20 49 -48 -3z m28 -14
    c0 -15 -6 -25 -15 -25 l-15 0 12 25 c6 14 13 25 15 25 1 0 3 -11 3 -25z"/>
    <path d="M6831 4621 c-9 -6 -10 -11 -2 -15 15 -10 14 -89 -1 -104 -9 -9 -6
    -12 13 -12 l25 0 -4 63 c-5 68 -10 80 -31 68z"/>
    <path d="M6920 4616 l-12 -15 28 2 c32 2 44 -19 15 -28 -27 -8 -27 -25 -1 -25
    14 0 20 -7 20 -21 l0 -21 -30 4 c-34 5 -41 -7 -10 -17 13 -4 31 0 46 10 l24
    16 -10 19 c-6 11 -8 31 -4 44 9 37 -41 61 -66 32z"/>
    <path d="M7029 4611 l-23 -19 12 -26 c8 -18 19 -26 38 -26 31 0 28 -23 -4 -28
    -27 -4 -29 -22 -4 -22 48 0 75 107 33 130 -25 13 -25 13 -52 -9z m54 -15 c7
    -19 -18 -40 -38 -32 -15 6 -20 28 -8 39 12 12 41 7 46 -7z"/>
    <path d="M4673 4389 c-41 -15 -40 -98 0 -123 22 -14 48 2 60 38 19 56 -14 103
    -60 85z m32 -59 c0 -34 -4 -45 -17 -48 -21 -4 -33 35 -24 74 12 45 41 27 41
    -26z"/>
    <path d="M4568 4340 c3 -30 -1 -57 -8 -65 l-12 -15 28 0 29 0 -3 65 -4 65 -16
    0 -17 0 3 -50z"/>
    <path d="M8665 4170 c-3 -5 -1 -10 5 -10 8 0 11 -18 8 -55 l-3 -55 25 1 c14 0
    19 3 13 6 -9 3 -13 26 -13 64 0 45 -3 59 -14 59 -8 0 -18 -4 -21 -10z"/>
    <path d="M8767 4173 c-15 -14 -6 -23 17 -17 32 8 42 -11 15 -29 l-21 -15 21
    -7 c12 -3 21 -13 21 -21 0 -19 -28 -30 -43 -15 -17 17 -31 13 -17 -5 8 -9 25
    -14 44 -12 l31 3 1 50 c0 28 -4 56 -9 63 -10 13 -49 17 -60 5z"/>
    <path d="M8876 4158 c-10 -40 -7 -47 21 -45 22 2 29 -3 31 -21 4 -27 -22 -40
    -45 -21 l-16 14 5 -15 c6 -19 58 -26 69 -8 22 35 -10 92 -41 73 -6 -3 -10 1
    -10 9 0 10 9 16 25 16 14 0 25 5 25 10 0 6 -13 10 -29 10 -21 0 -30 -6 -35
    -22z"/>
    <path d="M723 3945 l-18 -14 29 2 c36 2 46 -20 14 -33 l-23 -9 23 -7 c22 -6
    30 -38 12 -49 -5 -3 -19 -1 -31 5 -11 7 -23 9 -26 7 -10 -10 40 -29 62 -23 26
    7 40 33 26 50 -6 7 -9 25 -8 40 3 35 -31 52 -60 31z"/>
    <path d="M625 3885 l0 -65 30 1 c17 0 24 3 18 6 -9 3 -13 26 -13 64 l0 59 -17
    0 -18 0 0 -65z"/>
    <path d="M830 3939 c0 -5 5 -7 10 -4 6 4 10 -15 10 -49 0 -34 -5 -56 -12 -59
    -7 -3 3 -5 22 -5 19 0 29 2 23 5 -9 3 -13 26 -13 64 l0 59 -20 0 c-11 0 -20
    -5 -20 -11z"/>
    <path d="M1000 3944 c0 -3 8 -19 17 -35 l18 -29 -13 -20 c-6 -11 -12 -36 -12
    -55 l0 -36 46 -49 c51 -55 67 -59 104 -30 32 25 57 25 65 0 7 -21 21 -25 42
    -12 6 4 15 30 18 58 4 28 11 58 16 65 l8 14 30 -18 c37 -22 58 -22 70 1 l10
    19 -39 38 c-30 29 -43 36 -51 28 -9 -9 -21 -6 -50 10 -51 29 -71 17 -83 -49
    -11 -59 -12 -60 -30 -45 -8 7 -19 10 -24 7 -6 -3 -16 9 -23 27 -23 57 -119
    146 -119 111z m100 -107 c0 -6 -9 -2 -20 8 -11 10 -20 23 -20 28 0 6 9 2 20
    -8 11 -10 20 -23 20 -28z m186 -14 c4 4 -3 18 -16 32 -27 29 -20 32 15 9 l25
    -16 15 12 16 13 29 -28 c48 -46 31 -62 -29 -28 l-30 18 -17 -16 c-9 -9 -19
    -40 -22 -69 -8 -65 -20 -70 -50 -23 l-23 35 12 58 11 58 28 -32 c16 -17 32
    -28 36 -23z m-202 -2 l28 -29 -11 -20 c-6 -11 -8 -28 -5 -36 10 -25 -10 -19
    -39 12 -19 20 -27 39 -27 65 0 45 16 48 54 8z m81 -107 c-42 -34 -55 -31 -55
    12 0 27 5 37 20 41 11 3 17 10 14 17 -4 6 6 -2 22 -17 l29 -28 -30 -25z"/>
    <path d="M6219 3593 c-46 -13 -178 -48 -294 -79 -555 -147 -685 -183 -692
    -187 -5 -3 -122 -35 -262 -72 l-253 -66 -25 16 c-33 22 -44 9 -13 -15 31 -24
    39 -24 125 0 68 19 404 110 675 184 74 21 214 59 310 86 193 54 488 130 505
    130 6 0 51 -23 99 -51 49 -27 91 -48 94 -45 7 8 9 6 -94 68 l-91 54 -84 -23z"/>
    <path d="M6488 3474 c-24 -31 -58 -72 -75 -92 -36 -41 -42 -67 -17 -76 10 -4
    13 -13 9 -26 -3 -10 -1 -28 4 -39 14 -25 74 -62 97 -59 25 3 109 -37 222 -106
    51 -31 102 -56 114 -56 11 0 82 -38 157 -84 75 -46 152 -91 171 -101 19 -10
    60 -35 91 -56 65 -45 104 -50 113 -16 7 28 -12 47 -86 86 -32 16 -77 43 -100
    58 -24 16 -98 63 -165 103 -76 46 -123 80 -123 90 0 9 -19 27 -42 41 -24 13
    -51 28 -60 34 -129 77 -208 127 -208 131 0 2 14 29 30 59 54 101 31 165 -59
    165 l-30 0 -43 -56z m67 17 c-16 -16 -54 -61 -84 -100 -30 -38 -58 -68 -63
    -65 -17 11 135 194 161 194 11 0 7 -9 -14 -29z m73 -3 c18 -18 15 -43 -13 -98
    -29 -57 -28 -57 -62 -30 -14 11 -34 20 -44 20 -28 0 -24 11 29 68 49 53 68 62
    90 40z m-147 -145 c-12 -10 -28 -36 -36 -58 l-14 -40 -1 31 c0 35 33 84 57 84
    11 0 10 -4 -6 -17z m89 -28 c0 -8 -4 -15 -8 -15 -13 0 -43 36 -36 43 10 10 44
    -12 44 -28z m-44 -11 l13 -19 -14 -18 c-9 -13 -20 -16 -39 -11 -30 7 -32 20
    -10 52 18 26 31 25 50 -4z m55 -53 c-12 -16 -21 -34 -21 -40 0 -17 -20 -13
    -27 5 -10 27 14 64 42 64 l26 0 -20 -29z m93 -18 c49 -31 57 -43 26 -43 -27 0
    -102 48 -95 60 9 15 20 12 69 -17z m-159 -15 c6 -6 0 -8 -19 -6 -16 2 -31 9
    -34 17 -5 15 35 7 53 -11z m120 -23 c24 -14 46 -32 49 -40 3 -8 13 -15 23 -15
    10 0 40 -12 67 -26 26 -14 50 -24 52 -21 7 6 -95 67 -114 68 -10 0 -6 5 10 10
    l27 10 66 -36 66 -37 -20 -22 c-12 -12 -21 -28 -21 -34 0 -17 -1 -17 -97 38
    -49 28 -105 58 -125 68 -27 12 -38 23 -38 40 0 28 2 28 55 -3z m476 -261 c48
    -30 75 -53 72 -61 -8 -21 -22 -16 -102 35 -42 27 -109 68 -148 91 -66 38 -84
    57 -67 73 5 6 96 -45 245 -138z m99 -88 c-14 -14 -24 0 -16 21 l7 17 9 -14 c6
    -9 5 -19 0 -24z m80 -18 c40 -23 50 -41 29 -53 -14 -9 -89 42 -89 60 0 21 14
    19 60 -7z m70 -57 c0 -6 -4 -13 -10 -16 -5 -3 -10 1 -10 9 0 9 5 16 10 16 6 0
    10 -4 10 -9z"/>
    <path d="M6577 3462 c-21 -23 -22 -48 -3 -55 22 -9 48 16 44 43 -4 30 -20 35
    -41 12z m27 -27 c-6 -16 -24 -21 -24 -7 0 11 11 22 21 22 5 0 6 -7 3 -15z"/>
    <path d="M6757 3463 c-10 -10 -8 -73 2 -73 5 0 11 5 13 12 7 21 40 0 36 -24
    -2 -18 -9 -23 -31 -21 -18 1 -27 -2 -24 -10 2 -7 17 -12 33 -12 22 0 31 6 38
    27 11 31 -5 58 -35 58 -11 0 -19 7 -19 15 0 9 10 15 26 15 14 0 23 4 19 10 -7
    11 -48 14 -58 3z"/>
    <path d="M6855 3461 c-4 -7 5 -11 24 -11 37 0 37 2 7 -60 -13 -27 -20 -52 -16
    -55 10 -6 50 78 53 110 2 16 -5 21 -30 23 -17 2 -34 -2 -38 -7z"/>
    <path d="M4566 3319 c-32 -25 -193 -68 -256 -69 -25 0 -92 -13 -150 -29 -58
    -15 -177 -47 -265 -71 -88 -23 -207 -56 -265 -72 -58 -16 -213 -57 -345 -92
    -132 -35 -305 -82 -385 -104 -80 -22 -197 -55 -260 -72 -63 -17 -137 -37 -163
    -45 -58 -16 -66 -14 -92 25 -14 21 -28 30 -47 30 -32 0 -46 -13 -78 -74 -20
    -37 -32 -47 -57 -52 -18 -3 -33 -12 -33 -19 0 -25 -91 -49 -192 -50 -53 0
    -100 -3 -104 -8 -4 -4 -14 -1 -23 7 -9 8 -70 47 -136 87 -66 40 -156 94 -199
    121 -44 27 -83 45 -87 41 -4 -5 -11 -338 -17 -741 -6 -404 -13 -736 -16 -739
    -2 -3 -24 8 -48 24 -24 16 -76 48 -115 72 -40 24 -73 49 -73 55 0 10 -117 86
    -133 86 -8 0 -129 81 -151 102 -11 10 -24 18 -28 18 -5 0 -14 13 -19 29 -11
    31 -67 71 -97 71 -37 -1 -92 -72 -92 -119 0 -11 16 -34 35 -52 19 -18 53 -59
    76 -90 48 -66 57 -72 98 -58 22 8 35 7 53 -4 13 -8 105 -63 206 -123 101 -60
    206 -123 235 -141 62 -39 67 -39 67 -10 0 13 -3 17 -8 10 -8 -12 -56 15 -391
    221 -90 56 -171 100 -179 98 -8 -2 -12 2 -10 10 9 27 39 17 144 -48 60 -37
    119 -68 131 -70 21 -2 37 -11 198 -111 287 -177 300 -184 323 -161 30 30 20
    40 -160 150 -33 20 -54 39 -49 44 5 5 13 332 19 728 6 395 13 720 16 723 2 3
    47 -21 99 -54 52 -32 144 -87 205 -123 74 -43 111 -71 111 -83 1 -10 8 -20 16
    -23 8 -4 15 -18 15 -34 0 -56 26 -60 150 -21 36 11 97 29 135 40 l70 20 23
    -25 c25 -26 79 -33 100 -12 9 9 15 9 20 2 7 -10 158 -104 167 -104 18 0 -5 21
    -61 55 -36 22 -75 48 -87 57 l-22 17 15 27 15 28 90 23 c50 13 97 26 105 28 8
    3 101 28 205 55 105 28 226 62 270 75 44 14 185 52 314 85 128 33 237 62 240
    65 4 2 97 27 207 55 109 28 233 62 274 75 41 12 107 31 145 40 39 10 72 21 75
    24 11 14 159 45 218 46 l64 0 20 25 c25 31 19 87 -13 113 -27 22 -31 21 -63
    -4z m72 -30 c2 -13 -5 -16 -35 -15 l-38 1 -3 -23 c-2 -13 3 -25 12 -28 9 -3
    16 -10 16 -15 0 -12 -34 -11 -46 1 -6 6 -43 -1 -104 -19 l-95 -29 -3 30 c-4
    39 -9 36 105 64 54 14 105 31 113 40 19 19 74 15 78 -7z m-40 -31 c-2 -6 -10
    -14 -16 -16 -7 -2 -10 2 -6 12 7 18 28 22 22 4z m42 -17 c0 -10 -7 -21 -15
    -25 -15 -5 -22 24 -8 37 12 13 23 7 23 -12z m-332 -9 c15 -10 -96 -45 -343
    -107 -99 -25 -217 -57 -262 -71 -45 -13 -153 -42 -240 -64 -144 -37 -274 -73
    -638 -175 -71 -20 -193 -53 -270 -73 -77 -20 -130 -38 -119 -40 12 -2 50 4 85
    13 35 9 73 18 84 21 15 4 13 -1 -10 -20 -42 -36 -11 -32 35 4 38 30 65 35 125
    21 l30 -7 -40 -12 c-43 -12 -263 -72 -280 -76 -5 -2 -28 -8 -50 -15 -22 -6
    -123 -33 -225 -60 -102 -27 -198 -56 -214 -64 -58 -31 -94 35 -45 84 l20 20
    42 -6 c28 -3 70 2 127 18 l85 23 -3 19 -4 19 15 -12 15 -13 38 66 c21 36 46
    67 56 71 20 6 58 -11 58 -27 0 -6 -8 -6 -21 1 -39 22 -68 -29 -31 -56 26 -20
    60 -17 67 7 l7 20 15 -12 c9 -8 17 -9 21 -3 4 6 45 21 92 33 47 13 103 29 125
    36 54 18 124 37 290 80 77 20 194 51 260 70 66 18 176 48 245 65 69 18 179 48
    245 66 66 19 206 57 310 85 105 28 210 57 235 64 56 17 53 16 68 7z m12 -62
    c0 -26 -8 -28 -65 -15 l-50 12 50 15 c56 17 65 15 65 -12z m-219 -55 l-38 -35
    -44 1 c-24 1 -55 4 -69 9 l-25 7 30 8 c17 4 59 15 95 25 91 26 95 25 51 -15z
    m144 26 l30 -7 -85 -21 c-46 -12 -86 -21 -87 -19 -2 1 14 15 34 29 38 27 54
    30 108 18z m-287 -74 l32 -12 -91 -24 c-50 -12 -92 -21 -94 -19 -9 9 80 68 99
    67 12 0 36 -6 54 -12z m-154 -32 c-51 -45 -65 -49 -127 -34 l-52 12 100 27
    c55 15 104 28 109 29 5 0 -8 -15 -30 -34z m-130 -53 c8 -5 -142 -51 -169 -51
    -5 -1 8 15 30 34 l40 35 45 -6 c25 -3 49 -9 54 -12z m-182 -32 c-54 -43 -72
    -47 -123 -26 l-33 14 39 10 c22 6 65 17 95 26 78 20 78 20 22 -24z m-118 -50
    c13 -5 -12 -15 -82 -32 l-102 -26 43 39 42 38 40 -6 c22 -3 49 -9 59 -13z
    m-134 6 c0 -2 -23 -21 -51 -41 l-52 -37 -53 7 c-30 3 -54 10 -54 14 0 4 46 19
    103 33 56 14 103 26 105 27 1 1 2 -1 2 -3z m-185 -83 c14 -5 -5 -14 -65 -34
    -47 -14 -87 -25 -90 -22 -2 2 13 20 35 38 l40 35 30 -6 c17 -3 39 -8 50 -11z
    m-146 -19 c-13 -14 -36 -35 -51 -45 l-27 -19 -58 13 -58 13 55 13 c30 8 60 16
    65 20 11 7 75 28 89 30 5 1 -1 -11 -15 -25z m-559 -53 c0 -6 -4 -13 -10 -16
    -5 -3 -10 1 -10 9 0 9 5 16 10 16 6 0 10 -4 10 -9z m30 -20 c0 -6 -4 -13 -10
    -16 -5 -3 -10 1 -10 9 0 9 5 16 10 16 6 0 10 -4 10 -9z m-472 -133 c-6 -18
    -28 -21 -28 -4 0 9 7 16 16 16 9 0 14 -5 12 -12z m487 2 c-3 -5 -12 -10 -19
    -10 -29 0 -66 -26 -54 -38 9 -9 7 -12 -10 -12 -21 0 -41 25 -29 36 5 5 92 31
    110 33 5 1 5 -3 2 -9z m-24 -43 c-13 -13 -26 -3 -16 12 3 6 11 8 17 5 6 -4 6
    -10 -1 -17z m-1621 -733 c0 -3 -11 -15 -25 -26 -13 -10 -30 -37 -37 -59 -9
    -32 -13 -37 -20 -24 -14 24 1 73 29 95 25 19 53 27 53 14z m65 -45 c12 -19 -4
    -23 -23 -6 -25 23 -29 22 -34 -13 -3 -16 -1 -30 4 -30 4 0 8 -5 8 -11 0 -7
    -10 -9 -25 -7 -17 4 -25 1 -25 -8 0 -8 5 -14 11 -14 6 0 28 -14 49 -32 l38
    -32 -5 -34 c-5 -26 -3 -33 8 -30 8 2 16 -1 19 -7 2 -5 -4 -11 -12 -13 -22 -4
    -92 88 -78 102 7 7 0 14 -20 22 l-30 13 0 33 c0 75 81 122 115 67z m25 -48 c0
    -5 -7 -14 -15 -21 -8 -7 -15 -21 -15 -32 0 -11 -5 -18 -12 -16 -20 7 -21 38
    -2 59 18 20 44 26 44 10z m40 -26 c7 -8 30 -25 51 -37 37 -21 50 -38 29 -38
    -6 0 -35 14 -65 31 -72 40 -72 24 0 -19 30 -18 55 -37 55 -43 0 -5 7 -9 16 -9
    9 0 39 -14 66 -31 28 -16 53 -28 56 -25 7 7 7 7 -45 40 -24 14 -52 26 -63 26
    -11 0 -20 5 -20 11 0 20 69 2 122 -32 l50 -32 -16 -9 c-9 -5 -16 -18 -16 -28
    0 -11 -3 -20 -6 -20 -9 0 -97 52 -119 70 -11 9 -50 34 -87 54 -72 39 -77 48
    -52 84 18 26 27 27 44 7z m336 -228 c40 -23 106 -62 148 -87 81 -48 80 -48 67
    -69 -7 -11 -41 5 -165 79 -144 87 -183 120 -138 120 9 0 49 -19 88 -43z m245
    -180 c-16 -16 -26 0 -10 19 9 11 15 12 17 4 2 -6 -1 -17 -7 -23z m119 -45 c0
    -4 -4 -14 -10 -22 l-9 -14 -19 17 c-10 9 -23 17 -29 17 -19 0 -44 35 -32 47
    11 11 99 -30 99 -45z m30 -27 c0 -8 -7 -15 -16 -15 l-16 0 12 15 c7 8 14 15
    16 15 2 0 4 -7 4 -15z"/>
    <path d="M5587 3219 c-56 -15 -204 -54 -330 -88 -254 -68 -244 -66 -267 -46
    l-16 14 -78 -19 c-42 -11 -82 -23 -89 -27 -6 -3 -119 -35 -251 -69 -241 -63
    -669 -177 -866 -232 -58 -16 -170 -46 -250 -66 -80 -21 -154 -41 -165 -45 -11
    -5 -121 -34 -245 -65 -251 -64 -255 -66 -264 -99 l-6 -24 -52 -11 -52 -10 -22
    15 c-17 11 -28 12 -42 4 -19 -10 -37 -55 -28 -70 10 -16 95 -53 112 -48 l19 5
    -22 1 c-27 1 -36 15 -28 41 8 26 25 26 18 0 -8 -31 7 -23 18 10 13 37 75 59
    108 38 l20 -12 63 16 c40 11 66 14 72 8 6 -6 20 -10 33 -10 l23 0 -25 -55
    c-13 -30 -19 -55 -14 -55 10 0 59 101 59 120 0 6 -15 10 -32 11 -21 0 6 11 77
    30 61 16 139 39 175 50 36 11 157 44 270 74 448 116 639 167 719 192 46 14
    174 49 285 78 420 110 486 130 491 146 7 20 108 54 355 118 107 28 225 59 262
    70 41 12 82 17 106 14 22 -3 42 -1 46 5 13 22 -87 17 -187 -9z m-601 -164 c4
    -14 4 -29 0 -32 -3 -3 -88 -28 -188 -54 -338 -89 -633 -168 -698 -188 -36 -11
    -146 -41 -245 -66 -99 -25 -216 -57 -260 -70 -44 -13 -174 -49 -290 -79 -115
    -30 -257 -68 -315 -84 -153 -44 -170 -46 -170 -29 0 9 -2 21 -5 29 -7 17 14
    23 845 242 118 31 242 65 275 76 33 10 134 37 225 60 91 23 201 52 245 65 82
    24 221 61 429 114 66 17 121 33 124 36 12 11 22 4 28 -20z m-2176 -602 c0 -7
    -5 -13 -11 -13 -5 0 -8 4 -4 9 3 5 1 12 -5 16 -6 4 -7 11 -4 17 7 11 24 -9 24
    -29z m-207 -39 c-9 -15 -19 -21 -21 -15 -4 13 16 41 29 41 5 0 2 -12 -8 -26z
    m34 -19 c-13 -27 -27 -33 -27 -12 0 14 19 37 31 37 4 0 2 -11 -4 -25z"/>
    <path d="M6381 3169 c-19 -8 -22 -12 -12 -22 12 -12 -16 -20 -492 -144 l-177
    -46 -18 16 -17 15 -125 -34 c-69 -19 -201 -54 -295 -79 -93 -25 -217 -59 -275
    -75 -58 -17 -184 -51 -280 -76 -96 -25 -211 -56 -255 -69 -75 -22 -215 -60
    -762 -205 -126 -34 -255 -69 -288 -80 -33 -11 -132 -38 -220 -60 -88 -22 -196
    -51 -240 -65 -44 -13 -99 -29 -122 -35 -38 -10 -48 -19 -44 -42 2 -18 -82 -30
    -118 -16 -20 8 -44 12 -53 10 -19 -4 -34 -43 -25 -65 8 -22 94 -61 114 -51
    l18 8 -28 4 c-34 4 -35 44 -2 51 l20 3 -20 -22 c-14 -16 -16 -22 -5 -18 8 2
    20 15 27 29 16 32 61 44 85 22 10 -9 26 -13 40 -10 123 31 496 132 545 148 34
    11 146 42 250 68 103 27 235 62 293 79 58 16 170 47 250 67 80 21 172 47 205
    57 33 10 141 39 240 64 99 25 223 58 275 74 114 34 458 127 661 180 164 42
    169 44 169 71 0 10 3 19 6 19 6 0 169 42 409 106 280 74 295 79 290 93 -3 8
    -1 18 6 21 19 12 -4 18 -30 9z m-706 -234 l0 -29 -35 -9 c-19 -5 -125 -33
    -235 -62 -110 -29 -258 -69 -330 -89 -289 -81 -401 -111 -630 -172 -132 -34
    -271 -72 -310 -84 -73 -21 -303 -83 -653 -175 -112 -30 -240 -65 -285 -79 -88
    -27 -357 -96 -374 -96 -6 0 -13 11 -15 25 l-5 25 41 11 c23 6 70 19 106 30 36
    12 72 22 80 25 8 2 124 32 256 68 133 35 246 66 250 69 5 3 108 30 229 61 121
    31 247 65 280 76 33 11 146 42 250 69 105 27 246 65 315 84 124 35 196 54 695
    188 143 39 280 76 305 83 57 18 65 16 65 -19z m-3065 -792 c-1 -14 -30 -47
    -36 -41 -8 8 14 48 26 48 6 0 10 -3 10 -7z m30 -20 c0 -5 -7 -17 -15 -27 l-15
    -20 0 20 c0 12 3 24 7 27 9 9 23 9 23 0z"/>
    <path d="M2370 3042 c-48 -16 -27 -91 22 -79 14 4 18 1 16 -11 -2 -10 -15 -18
    -31 -20 -30 -4 -27 -22 3 -22 47 0 69 114 25 130 -11 4 -27 5 -35 2z m40 -32
    c0 -24 -26 -38 -42 -22 -16 16 -2 42 22 42 13 0 20 -7 20 -20z"/>
    <path d="M2468 3039 c-40 -23 -6 -89 36 -73 9 3 16 2 16 -3 0 -15 -23 -33 -42
    -33 -10 0 -18 -4 -18 -10 0 -5 11 -10 24 -10 52 0 78 94 34 124 -26 19 -27 19
    -50 5z m47 -34 c0 -13 -8 -21 -22 -23 -23 -3 -33 25 -16 42 13 13 38 1 38 -19z"/>
    <path d="M6649 2843 c-24 -63 3 -112 55 -99 l27 7 -3 32 -3 32 -32 3 c-18 2
    -33 7 -33 11 0 15 30 33 45 27 8 -3 15 -1 15 4 0 6 -14 10 -30 10 -24 0 -33
    -6 -41 -27z m59 -58 c5 -22 -18 -37 -35 -23 -17 13 -17 35 0 41 19 8 32 2 35
    -18z"/>
    <path d="M6762 2858 c-20 -20 -13 -32 7 -14 20 19 41 14 41 -8 0 -7 -13 -25
    -30 -41 -42 -41 -39 -55 13 -54 23 1 33 3 22 6 -48 10 -49 13 -17 43 43 39 38
    80 -8 80 -9 0 -21 -5 -28 -12z"/>
    <path d="M7885 2760 l-25 -50 25 0 c16 0 28 -7 33 -19 l7 -20 12 25 c6 13 7
    24 2 24 -5 0 -9 18 -9 39 0 58 -16 58 -45 1z m35 -10 c0 -24 -4 -30 -21 -30
    l-20 0 18 30 c9 17 19 30 20 30 2 0 3 -13 3 -30z"/>
    <path d="M7979 2794 l-13 -15 29 3 c33 4 47 -21 16 -29 -26 -7 -28 -23 -2 -23
    24 0 32 -11 22 -29 -6 -9 -19 -11 -40 -6 -37 8 -41 -2 -5 -15 43 -17 63 2 61
    57 -1 27 -6 54 -10 61 -11 17 -42 15 -58 -4z"/>
    <path d="M6414 2742 c-26 -21 -44 -54 -44 -81 0 -26 -5 -26 -37 -1 -31 24 -60
    25 -133 4 -30 -8 -62 -17 -70 -19 -8 -2 -46 -13 -85 -24 -38 -10 -142 -38
    -230 -60 -88 -23 -169 -46 -180 -51 -11 -5 -76 -23 -145 -41 -69 -17 -181 -47
    -250 -66 -284 -79 -379 -105 -447 -120 l-73 -16 -27 13 c-16 8 -31 16 -35 18
    -5 2 -8 -1 -8 -6 0 -6 16 -20 36 -31 l35 -21 82 24 c45 14 163 46 262 71 99
    25 196 52 215 59 19 8 100 30 180 51 80 20 213 56 295 80 83 23 235 64 339 90
    l189 48 51 -27 c28 -14 58 -32 67 -39 17 -14 103 -118 116 -141 5 -9 23 -18
    40 -22 l32 -6 27 27 26 27 77 -48 c42 -26 94 -56 116 -67 22 -11 93 -53 158
    -93 64 -41 128 -74 140 -74 13 0 56 -21 96 -47 79 -50 103 -50 109 -2 l3 24
    -76 45 c-41 24 -75 50 -75 56 0 7 -35 33 -77 58 -135 80 -207 127 -233 151
    -14 13 -74 52 -135 88 -155 90 -181 109 -194 138 -21 47 -96 64 -137 31z m30
    -38 c-20 -21 -34 -46 -34 -60 0 -14 -4 -22 -10 -19 -29 18 1 99 44 115 35 13
    35 2 0 -36z m94 -14 l4 -25 -28 25 -27 25 8 -20 c22 -59 13 -78 -33 -69 -39 8
    -42 31 -7 68 33 36 78 33 83 -4z m139 -97 c54 -32 112 -68 128 -80 l30 -21
    -23 -24 c-12 -14 -22 -30 -22 -36 0 -7 -3 -12 -6 -12 -10 0 -147 83 -175 105
    -15 12 -40 27 -57 34 -36 15 -48 41 -32 71 17 32 51 24 157 -37z m-177 7 c3 0
    -3 -5 -12 -11 -12 -7 -24 -6 -38 1 -32 17 -24 30 12 19 18 -5 35 -9 38 -9z
    m26 -46 c17 -12 24 -24 22 -42 -2 -18 2 -27 14 -30 12 -2 15 2 11 17 -6 24 4
    26 31 6 l19 -15 -18 -20 c-37 -41 -75 -17 -139 88 -11 18 30 15 60 -4z m351
    -91 c2 -6 -6 -13 -19 -15 -17 -2 -24 -11 -26 -31 -4 -33 -22 -26 -22 8 0 38
    57 69 67 38z m159 -102 l121 -75 -16 -30 c-9 -17 -17 -33 -18 -34 -1 -3 -107
    58 -225 131 -30 18 -48 36 -48 48 l0 18 58 -38 c31 -21 79 -50 105 -64 26 -15
    59 -34 72 -43 14 -9 25 -12 25 -6 0 5 -54 44 -120 84 -66 41 -117 78 -113 82
    13 13 37 1 159 -73z m136 -133 c-15 -15 -26 -4 -18 18 5 13 9 15 18 6 9 -9 9
    -15 0 -24z m38 -7 c0 -12 -20 -25 -27 -18 -7 7 6 27 18 27 5 0 9 -4 9 -9z m60
    -26 c32 -17 38 -32 16 -41 -16 -6 -76 22 -76 35 0 24 21 26 60 6z m60 -44 c0
    -12 -20 -25 -27 -18 -7 7 6 27 18 27 5 0 9 -4 9 -9z"/>
    <path d="M2875 2720 c3 -5 17 -10 31 -10 30 0 30 -1 -1 -61 -16 -34 -20 -49
    -11 -49 7 0 23 26 37 57 13 32 26 61 27 65 2 4 -17 8 -43 8 -28 0 -44 -4 -40
    -10z"/>
    <path d="M3002 2691 c-28 -50 -28 -61 3 -61 16 0 25 -6 25 -15 0 -8 5 -15 10
    -15 6 0 10 6 10 14 0 8 6 17 13 19 10 4 10 6 0 6 -9 1 -13 17 -13 46 0 57 -18
    59 -48 6z m24 -48 c-14 -15 -24 10 -13 35 l12 27 3 -29 c2 -15 1 -30 -2 -33z"/>
    <path d="M7530 2675 c-47 -14 -121 -34 -165 -46 -108 -28 -115 -35 -115 -125
    l0 -72 35 -31 c65 -57 192 -81 295 -56 52 13 93 16 162 11 128 -8 141 -7 148
    4 3 5 11 5 20 0 23 -15 28 -12 45 20 26 51 9 110 -33 110 -7 0 -12 9 -12 19 0
    13 -19 31 -55 53 -31 18 -94 57 -140 86 -47 28 -88 52 -92 51 -5 0 -46 -11
    -93 -24z m222 -70 c65 -38 118 -72 118 -75 0 -7 -52 -23 -200 -60 l-125 -32
    -75 4 c-120 7 -200 50 -200 106 0 31 21 41 157 77 70 19 142 38 158 44 40 13
    35 15 167 -64z m146 -107 c-4 -10 -234 -76 -328 -93 l-35 -7 13 14 c7 7 86 32
    175 55 187 48 180 47 175 31z m-498 -64 c30 -7 72 -13 93 -14 21 0 37 -5 37
    -11 0 -32 -193 13 -235 53 l-20 20 35 -17 c19 -10 59 -24 90 -31z m548 1 c3
    -40 -10 -59 -37 -50 -22 7 -28 29 -11 40 6 3 10 -1 10 -9 0 -9 5 -16 10 -16
    11 0 14 33 4 42 -16 17 -44 -6 -44 -37 0 -20 -6 -35 -15 -39 -12 -4 -15 3 -15
    29 0 42 4 42 -140 4 -161 -43 -160 -42 -160 -32 0 17 315 103 365 100 l30 -2
    3 -30z m-582 -31 c27 -9 74 -20 104 -23 71 -8 63 -27 -9 -23 -62 4 -147 39
    -176 73 l-20 23 26 -16 c14 -9 47 -24 75 -34z m464 -12 l0 -17 -47 4 -48 4 30
    13 c42 18 65 17 65 -4z"/>
    <path d="M3068 2406 c-29 -48 -27 -56 9 -56 14 0 23 -6 23 -15 0 -21 17 -19
    22 3 6 28 -6 105 -17 109 -6 2 -22 -17 -37 -41z m23 -39 c-18 -18 -23 -1 -9
    29 l13 28 3 -23 c2 -13 -1 -28 -7 -34z"/>
    <path d="M4519 2394 c-55 -30 -211 -74 -236 -68 -20 5 -212 -40 -351 -83 -45
    -14 -185 -52 -310 -84 -369 -97 -698 -185 -832 -222 -69 -19 -162 -45 -207
    -57 -46 -12 -80 -26 -77 -32 3 -5 13 -6 23 -2 17 7 335 93 696 188 116 31 244
    65 285 77 91 26 196 54 400 108 85 23 196 52 245 66 95 26 130 31 120 16 -3
    -5 -31 -15 -63 -22 -31 -6 -99 -24 -150 -40 -51 -16 -189 -53 -305 -84 -351
    -91 -721 -190 -912 -243 -99 -27 -205 -55 -235 -62 -30 -7 -62 -17 -70 -21 -8
    -4 -24 -11 -35 -14 -42 -15 6 -15 60 -1 l56 14 -12 -14 c-9 -11 -8 -14 5 -14
    9 0 19 7 23 16 l6 16 53 -6 c111 -13 102 -19 -119 -78 -485 -129 -593 -159
    -613 -169 -62 -32 -98 23 -49 75 19 21 32 26 49 22 13 -3 52 3 87 13 35 11 98
    29 139 41 78 23 122 48 62 35 l-33 -7 32 54 c57 94 72 97 134 31 25 -27 45
    -43 45 -37 0 7 7 14 15 18 12 4 15 -3 15 -34 l0 -40 -43 22 c-29 15 -43 29
    -43 42 1 26 -41 48 -66 35 -10 -5 -18 -17 -18 -25 0 -22 42 -54 63 -48 10 3
    37 -6 62 -20 24 -14 48 -26 54 -26 7 0 11 54 11 164 0 89 3 191 6 224 l7 61
    29 -15 c44 -23 44 -11 0 19 -21 14 -44 22 -50 18 -8 -5 -12 -65 -14 -181 l-3
    -175 -18 -3 c-10 -2 -35 12 -57 32 -58 52 -81 46 -135 -39 -26 -40 -42 -55
    -65 -60 -20 -4 -30 -12 -26 -20 5 -15 -128 -55 -185 -55 -19 0 -40 -5 -47 -12
    -8 -8 -15 -8 -26 1 l-15 12 -21 -21 -21 -21 15 -27 c7 -15 19 -39 25 -54 14
    -38 49 -44 98 -19 22 11 86 32 143 46 l103 26 26 -25 c32 -30 47 -33 91 -18
    27 9 40 23 55 54 l20 43 45 13 c51 15 488 135 685 188 72 19 198 53 280 76
    139 37 419 112 729 193 71 18 132 38 135 43 9 13 217 70 281 76 66 7 83 24 74
    76 -14 78 -43 88 -125 44z m99 -17 c3 -14 -2 -17 -23 -15 -38 4 -55 -24 -32
    -50 21 -23 13 -33 -23 -26 -25 5 -152 -23 -207 -46 l-23 -10 0 39 0 38 108 28
    c59 16 118 37 131 47 30 23 64 20 69 -5z m12 -51 c0 -16 -18 -31 -27 -22 -8 8
    5 36 17 36 5 0 10 -6 10 -14z m-345 -57 c11 -17 -1 -21 -37 -13 l-33 7 25 8
    c36 10 38 10 45 -2z m-6 -44 c11 -12 -20 -25 -114 -49 l-100 -25 48 46 49 46
    56 -7 c31 -4 58 -9 61 -11z m-191 -31 l-36 -37 -67 8 c-36 4 -64 10 -60 13 7
    7 160 49 185 51 8 1 -1 -14 -22 -35z m-85 -54 c-7 -5 -114 -37 -228 -67 -12
    -3 2 15 33 44 l54 49 74 -10 c41 -5 71 -12 67 -16z m-184 7 c-2 -1 -23 -20
    -47 -40 l-43 -38 -47 7 c-72 10 -80 19 -31 33 24 7 71 20 104 30 51 15 80 19
    64 8z m-319 -104 c-24 -21 -48 -41 -55 -45 -12 -7 -149 11 -141 19 3 3 211 58
    235 62 3 1 -15 -16 -39 -36z m190 14 c13 -2 -183 -57 -203 -57 -14 0 4 20 44
    49 l38 28 53 -9 c29 -5 60 -10 68 -11z m-512 -106 l-43 -41 -45 5 c-99 14 -98
    16 16 49 60 18 110 31 112 30 2 -1 -16 -21 -40 -43z m197 29 c20 -8 20 -8
    -150 -55 -27 -8 -51 -12 -54 -10 -2 3 16 23 40 45 l44 40 50 -6 c28 -4 59 -10
    70 -14z m-310 -79 l40 -7 -110 -28 c-60 -16 -117 -31 -125 -33 -8 -3 6 16 33
    41 l47 45 38 -6 c20 -3 55 -9 77 -12z m-199 -36 l-46 -44 -27 9 c-16 5 -46 12
    -68 15 l-40 7 85 22 c47 13 92 25 100 29 39 15 38 3 -4 -38z m-508 -57 c-2 -6
    -10 -14 -16 -16 -7 -2 -10 2 -6 12 7 18 28 22 22 4z m-468 -153 c-7 -8 -16
    -15 -21 -15 -5 0 -9 7 -9 15 0 9 9 15 21 15 l21 0 -12 -15z m476 1 c17 -17 8
    -46 -13 -46 -10 0 -14 7 -10 20 6 23 -3 26 -21 8 -9 -9 -12 -8 -12 4 0 9 8 19
    18 21 9 3 18 5 20 6 2 0 10 -5 18 -13z m-66 -26 c26 -26 25 -30 -3 -30 -13 0
    -32 9 -41 19 l-18 19 19 5 c10 3 19 5 21 6 1 0 11 -8 22 -19z"/>
    <path d="M7910 2156 l0 -35 28 2 27 2 0 -25 c0 -27 -32 -41 -45 -20 -5 8 -10
    9 -14 2 -13 -22 33 -35 60 -17 37 24 30 67 -13 80 -39 11 -43 25 -8 25 14 0
    25 5 25 10 0 6 -13 10 -30 10 l-30 0 0 -34z"/>
    <path d="M8019 2174 l-12 -15 25 6 c33 8 45 -10 18 -27 -26 -16 -26 -28 0 -28
    23 0 27 -28 5 -36 -8 -4 -22 -1 -29 5 -9 8 -16 8 -20 2 -9 -14 31 -33 54 -26
    22 7 35 39 23 57 -4 7 -6 24 -4 37 5 38 -35 55 -60 25z"/>
    <path d="M2187 2122 c-21 -23 -21 -36 -1 -57 11 -11 25 -14 41 -10 l24 6 -10
    -20 c-6 -11 -23 -22 -38 -24 -21 -4 -19 -4 7 -3 46 1 67 39 50 91 -13 40 -46
    47 -73 17z m61 -30 c-4 -23 -44 -28 -52 -6 -3 9 -1 23 5 30 15 18 51 -1 47
    -24z"/>
    <path d="M2292 2128 c-30 -30 5 -89 44 -74 8 3 14 -1 14 -9 0 -8 -15 -19 -32
    -24 l-33 -9 31 -1 c39 -1 56 18 57 63 2 56 -47 88 -81 54z m57 -45 c-6 -7 -18
    -13 -26 -13 -20 0 -28 27 -13 45 l13 16 18 -17 c14 -13 16 -20 8 -31z"/>
    <path d="M7561 2089 c-14 -5 -97 -28 -185 -50 -101 -25 -164 -46 -172 -57 -8
    -9 -14 -44 -14 -78 l0 -62 48 -30 c26 -16 74 -44 106 -61 l59 -31 62 0 c85 0
    170 17 234 47 l54 26 9 -17 c7 -13 21 -16 57 -15 26 1 52 -1 59 -5 16 -10 52
    34 52 65 0 40 -10 59 -31 59 -13 0 -19 7 -19 23 0 15 -12 28 -38 43 -20 11
    -86 51 -145 87 -60 37 -109 67 -110 66 -1 0 -13 -5 -26 -10z m194 -113 c38
    -25 73 -46 77 -46 4 0 8 -4 8 -9 0 -5 -18 -11 -41 -15 -22 -4 -67 -17 -99 -31
    -88 -37 -194 -58 -253 -51 -56 8 -237 107 -237 131 0 21 13 26 200 76 l175 46
    50 -28 c28 -15 81 -48 120 -73z m-495 -84 c87 -53 120 -77 120 -90 0 -7 -24 3
    -57 24 -32 21 -73 46 -90 57 -18 10 -33 23 -33 28 0 14 12 11 60 -19z m610 0
    c0 -5 -28 -16 -62 -26 -35 -9 -92 -31 -127 -48 l-63 -32 -106 -1 c-75 0 -106
    4 -109 13 -4 9 18 12 84 12 91 0 176 18 219 47 43 28 164 54 164 35z m-567
    -75 c77 -49 111 -89 40 -46 -87 51 -143 91 -143 100 0 12 -1 12 103 -54z m612
    23 c4 -13 0 -31 -10 -46 l-16 -24 -20 11 c-21 11 -22 30 -2 36 6 2 13 -6 16
    -19 3 -15 5 -11 6 14 l1 36 -27 -7 c-21 -5 -29 -15 -31 -34 -4 -32 -22 -37
    -22 -6 l0 21 -32 -7 c-18 -4 -54 -17 -79 -30 -25 -13 -72 -28 -105 -35 -68
    -13 -200 -10 -198 5 1 6 28 9 67 7 78 -4 163 12 233 44 28 13 70 28 93 33 24
    5 45 12 48 15 16 16 72 5 78 -14z m-125 -50 c0 -5 -4 -10 -10 -10 -5 0 -10 5
    -10 10 0 6 5 10 10 10 6 0 10 -4 10 -10z"/>
    <path d="M380 1781 l0 -30 27 2 c22 2 29 -3 31 -21 4 -27 -22 -40 -43 -22
    l-15 12 0 -15 c0 -31 54 -36 70 -6 18 33 4 69 -25 69 -34 0 -32 28 3 33 l27 4
    -37 2 -38 1 0 -29z"/>
    <path d="M508 1803 c38 -5 38 -2 7 -63 -14 -27 -21 -52 -15 -55 8 -5 38 52 55
    104 l6 21 -43 -2 -43 -1 33 -4z"/>
    <path d="M1680 1553 c-1 -126 -5 -346 -9 -491 l-6 -262 -80 48 c-44 26 -147
    89 -230 139 -82 49 -169 100 -193 112 -23 12 -73 42 -111 66 -38 25 -72 45
    -75 45 -4 0 -24 11 -46 25 l-40 25 0 38 c0 48 -32 82 -78 82 -39 0 -54 -15
    -127 -124 l-58 -86 16 -18 c8 -9 19 -29 22 -45 9 -33 54 -67 90 -67 16 0 81
    -32 159 -79 72 -43 181 -104 241 -136 61 -31 117 -62 125 -69 29 -25 105 -63
    116 -59 12 4 42 -11 132 -67 l53 -34 21 21 c30 30 20 45 -71 97 -45 26 -81 52
    -81 59 0 7 -24 27 -52 44 -157 92 -225 133 -238 146 -8 8 -77 51 -152 96 -160
    97 -166 102 -151 142 12 32 7 38 -12 12 l-12 -16 -24 16 c-13 10 -34 17 -46
    17 -30 0 -29 1 13 59 38 54 66 70 89 51 17 -14 20 -60 5 -60 -5 0 -10 9 -10
    21 0 15 -5 20 -22 17 -26 -3 -39 -45 -14 -45 8 0 36 -13 63 -30 26 -17 149
    -90 273 -163 124 -73 289 -171 368 -218 78 -47 146 -82 150 -78 4 4 10 222 14
    483 4 261 9 477 12 480 2 3 31 -11 63 -31 60 -37 73 -42 73 -28 0 7 -143 92
    -154 92 -2 0 -5 -102 -6 -227z m-894 -226 c-17 -18 -49 -61 -71 -95 -22 -33
    -46 -61 -53 -62 -13 0 10 38 85 143 19 26 43 47 53 47 l17 0 -31 -33z m-38
    -130 c-31 -26 -48 -57 -48 -88 0 -17 -3 -20 -11 -12 -18 18 -2 80 28 103 37
    29 66 27 31 -3z m71 -11 c9 -11 8 -15 -5 -20 -17 -6 -44 9 -44 25 0 14 36 10
    49 -5z m-70 -48 c1 12 5 22 9 22 18 0 19 -12 6 -40 -11 -20 -20 -27 -34 -23
    -23 6 -23 4 -9 40 l12 28 7 -25 8 -25 1 23z m217 -75 c71 -42 130 -78 132 -79
    2 -1 -8 -13 -22 -27 -14 -15 -26 -33 -26 -41 0 -16 -45 8 -207 110 -65 40 -81
    72 -51 102 21 21 44 13 174 -65z m-211 7 c3 -5 -1 -10 -9 -10 -8 0 -18 5 -21
    10 -3 6 1 10 9 10 8 0 18 -4 21 -10z m368 -122 c-16 -8 -23 -20 -23 -40 0 -30
    -14 -38 -24 -13 -11 30 11 65 41 64 l28 0 -22 -11z m98 -48 c35 -22 97 -59
    137 -81 l73 -41 -20 -14 c-11 -8 -21 -23 -23 -33 l-3 -19 -90 54 c-49 30 -111
    66 -137 80 -33 17 -48 31 -48 44 0 11 2 20 4 20 2 0 57 -32 122 -71 135 -81
    144 -85 144 -70 0 6 -19 20 -42 32 -85 43 -207 122 -202 130 8 14 17 11 85
    -31z m233 -165 c16 -12 17 -18 8 -27 -9 -9 -12 -8 -12 6 0 14 -3 16 -13 7 -15
    -12 -27 -5 -27 16 0 17 20 16 44 -2z m81 -42 c38 -18 39 -21 26 -42 l-9 -14
    -33 20 c-33 18 -52 53 -30 53 6 0 26 -8 46 -17z m63 -45 c-2 -6 -10 -14 -16
    -16 -7 -2 -10 2 -6 12 7 18 28 22 22 4z"/>
    <path d="M518 1276 c-20 -14 -24 -36 -8 -36 6 0 10 5 10 10 0 6 9 10 20 10 29
    0 25 -27 -10 -57 -16 -13 -30 -34 -30 -44 l0 -20 37 3 c47 4 57 28 11 28 l-33
    0 33 31 c36 34 38 54 7 75 l-20 13 -17 -13z"/>
    <path d="M406 1258 c-22 -31 -20 -74 5 -99 l20 -20 22 14 c42 28 27 83 -20 74
    -18 -3 -23 0 -21 12 2 9 15 17 31 19 34 4 36 22 3 22 -14 0 -32 -10 -40 -22z
    m52 -62 c4 -21 -14 -37 -35 -29 -14 5 -18 35 -6 47 12 12 38 1 41 -18z"/>
    <path d="M2112 1260 c-13 -5 -87 -26 -165 -46 -97 -25 -146 -43 -156 -55 -7
    -11 -19 -19 -25 -19 -40 0 -74 -93 -43 -118 30 -25 281 -172 293 -172 8 0 14
    6 14 14 0 11 9 13 34 9 25 -4 38 0 52 15 21 22 158 92 218 112 76 24 108 102
    76 185 -22 57 -222 108 -298 75z m220 -34 c47 -20 68 -42 68 -71 0 -35 -27
    -48 -197 -94 l-153 -41 -115 68 -116 69 68 21 c199 62 247 72 328 68 44 -2 96
    -11 117 -20z m-344 -188 c23 -16 42 -33 42 -39 0 -6 -15 1 -32 14 -18 13 -68
    43 -110 67 -43 24 -78 48 -78 53 0 10 110 -49 178 -95z m-83 10 l116 -71 -20
    -21 c-11 -12 -21 -31 -23 -43 l-3 -22 -105 60 c-126 72 -153 95 -144 123 19
    64 41 61 179 -26z m493 37 c0 -13 -9 -32 -19 -41 -24 -22 -25 -7 -1 19 l17 20
    -17 -6 c-10 -4 -18 -2 -18 3 0 7 24 27 36 30 1 0 2 -11 2 -25z m-58 -14 c0 -4
    -30 -16 -67 -26 -38 -10 -94 -26 -127 -37 -32 -10 -68 -18 -80 -17 l-21 0 20
    9 c11 5 61 20 110 35 50 15 101 31 115 35 34 11 50 12 50 1z m5 -40 c-5 -8
    -95 -38 -190 -63 l-50 -14 -3 -24 c-5 -37 -22 -49 -22 -16 l0 27 -27 -3 c-22
    -2 -29 -9 -33 -33 -6 -34 -24 -40 -28 -9 -6 42 27 62 163 98 72 18 141 38 155
    44 26 10 44 6 35 -7z m-156 -75 c-2 -2 -19 -11 -36 -20 l-33 -17 0 15 c0 8 12
    16 28 19 15 2 31 5 36 6 5 0 7 -1 5 -3z m-129 -46 c0 -5 -4 -10 -10 -10 -5 0
    -10 5 -10 10 0 6 5 10 10 10 6 0 10 -4 10 -10z"/>
    <path d="M2592 1217 c-15 -18 -42 -75 -42 -87 0 -5 11 -10 25 -10 16 0 25 -6
    25 -15 0 -8 5 -15 10 -15 6 0 10 6 10 14 0 8 6 17 13 20 10 5 10 7 0 12 -7 3
    -13 23 -13 44 0 42 -12 57 -28 37z m8 -52 c0 -15 -6 -25 -15 -25 l-15 0 12 25
    c6 14 13 25 15 25 1 0 3 -11 3 -25z"/>
    <path d="M2674 1215 l-19 -15 26 6 c34 7 46 -11 19 -28 -26 -16 -25 -24 1 -31
    33 -9 17 -32 -21 -30 l-33 1 16 -15 c32 -32 89 4 72 45 -5 9 -7 25 -6 35 2 18
    -15 47 -28 47 -4 0 -16 -7 -27 -15z"/>
    <path d="M2070 739 c-14 -6 -83 -26 -155 -45 -71 -19 -138 -37 -147 -40 -11
    -3 -18 -15 -18 -30 0 -15 -4 -23 -10 -19 -18 11 -70 -51 -70 -82 0 -40 5 -45
    100 -98 47 -26 111 -66 143 -87 56 -38 105 -48 99 -20 -2 14 24 16 33 2 9 -14
    41 -12 57 3 30 31 150 95 189 101 52 8 113 39 133 68 10 14 16 44 16 83 l0 60
    -97 58 -97 57 -75 -1 c-42 0 -87 -5 -101 -10z m266 -63 c53 -32 88 -60 86 -68
    -2 -7 -5 -26 -5 -42 -1 -18 -11 -36 -27 -47 -52 -38 -235 -68 -235 -39 0 11
    17 17 65 21 74 6 163 33 180 55 16 19 12 18 -41 -7 -28 -14 -70 -23 -114 -26
    -38 -2 -102 -11 -141 -19 l-71 -16 -79 47 c-111 66 -163 99 -164 105 -1 14
    320 88 386 89 l71 1 89 -54z m-443 -123 c119 -71 144 -89 135 -99 -6 -5 -116
    56 -220 123 -33 20 -50 43 -33 43 3 0 56 -30 118 -67z m-76 -2 c26 -15 80 -48
    119 -73 l71 -44 -23 -28 c-13 -15 -24 -36 -24 -47 0 -10 -3 -19 -7 -19 -21 0
    -268 160 -271 174 -2 9 4 28 12 41 22 34 63 32 123 -4z m597 -46 c-11 -29
    -108 -66 -188 -72 -54 -4 -76 -3 -76 6 0 7 20 11 53 11 62 0 151 24 187 51 31
    22 31 23 24 4z m-274 -28 c0 -15 -75 -41 -90 -32 -19 12 -10 21 28 32 53 15
    62 15 62 0z m0 -45 c0 -4 -10 -12 -22 -17 -15 -7 -24 -20 -26 -40 -5 -41 -14
    -48 -46 -34 -28 13 -30 32 -3 37 12 2 17 -3 17 -19 0 -26 12 -18 17 12 2 11
    -3 22 -10 25 -16 6 -68 -12 -66 -23 4 -24 -2 -53 -11 -53 -16 0 -12 66 5 80
    27 22 145 49 145 32z m21 -47 c-52 -30 -51 -30 -51 -6 0 23 13 29 60 30 l35 1
    -44 -25z"/>
    <path d="M2552 595 c-27 -56 -27 -55 3 -55 16 0 25 -6 25 -15 0 -8 5 -15 10
    -15 6 0 10 6 10 14 0 8 6 17 13 19 10 4 10 6 0 6 -9 1 -13 17 -13 46 0 59 -19
    59 -48 0z m28 -20 c0 -16 -6 -25 -15 -25 -18 0 -18 5 -5 31 14 26 20 24 20 -6z"/>
    <path d="M2647 634 c-26 -26 7 -89 41 -77 6 3 12 -2 12 -10 0 -16 -27 -30 -41
    -21 -5 3 -9 0 -9 -6 0 -6 12 -10 28 -8 57 6 63 120 6 126 -16 2 -33 0 -37 -4z
    m48 -20 c17 -18 5 -44 -22 -44 -19 0 -28 27 -13 45 15 19 15 19 35 -1z"/>
    </g>
  </g>
  <g id="labels" font-family="Helvetica, Arial, sans-serif" fill="#111" font-size="14" text-rendering="geometricPrecision" opacity="0" pointer-events="none">
      <a id="pos-10" href="#pos-10"><text data-pos="10" x="462" y="205" text-anchor="middle" dominant-baseline="middle" font-size="12" font-weight="600">10</text></a>
      <a id="pos-12" href="#pos-12"><text data-pos="12" x="334" y="303" text-anchor="middle" dominant-baseline="middle" font-size="12" font-weight="600">12</text></a>
      <a id="pos-14" href="#pos-14"><text data-pos="14" x="261" y="250" text-anchor="middle" dominant-baseline="middle" font-size="12" font-weight="600">14</text></a>
      <a id="pos-19" href="#pos-19"><text data-pos="19" x="303" y="508" text-anchor="middle" dominant-baseline="middle" font-size="12" font-weight="600">19</text></a>
      <a id="pos-23" href="#pos-23"><text data-pos="23" x="557" y="427" text-anchor="middle" dominant-baseline="middle" font-size="12" font-weight="600">23</text></a>
      <a id="pos-28" href="#pos-28"><text data-pos="28" x="824" y="455" text-anchor="middle" dominant-baseline="middle" font-size="12" font-weight="600">28</text></a>
      <a id="pos-30" href="#pos-30"><text data-pos="30" x="701" y="399" text-anchor="middle" dominant-baseline="middle" font-size="12" font-weight="600">30</text></a>
      <a id="pos-32" href="#pos-32"><text data-pos="32" x="459" y="574" text-anchor="middle" dominant-baseline="middle" font-size="12" font-weight="600">32</text></a>
      <a id="pos-34" href="#pos-34"><text data-pos="34" x="261" y="48" text-anchor="middle" dominant-baseline="middle" font-size="12" font-weight="600">34</text></a>
      <a id="pos-35" href="#pos-35"><text data-pos="35" x="657" y="395" text-anchor="middle" dominant-baseline="middle" font-size="12" font-weight="600">35</text></a>
      <a id="pos-36" href="#pos-36"><text data-pos="36" x="709" y="611" text-anchor="middle" dominant-baseline="middle" font-size="12" font-weight="600">36</text></a>
      <a id="pos-38" href="#pos-38"><text data-pos="38" x="47" y="273" text-anchor="middle" dominant-baseline="middle" font-size="12" font-weight="600">38</text></a>
      <a id="pos-41" href="#pos-41"><text data-pos="41" x="483" y="313" text-anchor="middle" dominant-baseline="middle" font-size="12" font-weight="600">41</text></a>
      <a id="pos-43" href="#pos-43"><text data-pos="43" x="265" y="526" text-anchor="middle" dominant-baseline="middle" font-size="12" font-weight="600">43</text></a>
      <a id="pos-49" href="#pos-49"><text data-pos="49" x="266" y="582" text-anchor="middle" dominant-baseline="middle" font-size="12" font-weight="600">49</text></a>
      <a id="pos-53" href="#pos-53"><text data-pos="53" x="801" y="427" text-anchor="middle" dominant-baseline="middle" font-size="12" font-weight="600">53</text></a>
      <a id="pos-57" href="#pos-57"><text data-pos="57" x="47" y="459" text-anchor="middle" dominant-baseline="middle" font-size="12" font-weight="600">57</text></a>
      <a id="pos-62" href="#pos-62"><text data-pos="62" x="51" y="514" text-anchor="middle" dominant-baseline="middle" font-size="12" font-weight="600">62</text></a>
      <a id="pos-74" href="#pos-74"><text data-pos="74" x="134" y="66" text-anchor="middle" dominant-baseline="middle" font-size="12" font-weight="600">74</text></a>
      <a id="pos-79" href="#pos-79"><text data-pos="79" x="752" y="41" text-anchor="middle" dominant-baseline="middle" font-size="12" font-weight="600">79</text></a>
      <a id="pos-84" href="#pos-84"><text data-pos="84" x="702" y="363" text-anchor="middle" dominant-baseline="middle" font-size="12" font-weight="600">84</text></a>
      <a id="pos-85" href="#pos-85"><text data-pos="85" x="308" y="486" text-anchor="middle" dominant-baseline="middle" font-size="12" font-weight="600">85</text></a>
      <a id="pos-86" href="#pos-86"><text data-pos="86" x="484" y="350" text-anchor="middle" dominant-baseline="middle" font-size="12" font-weight="600">86</text></a>
      <a id="pos-89" href="#pos-89"><text data-pos="89" x="461" y="357" text-anchor="middle" dominant-baseline="middle" font-size="12" font-weight="600">89</text></a>
      <a id="pos-90" href="#pos-90"><text data-pos="90" x="543" y="317" text-anchor="middle" dominant-baseline="middle" font-size="12" font-weight="600">90</text></a>
      <a id="pos-92" href="#pos-92"><text data-pos="92" x="866" y="321" text-anchor="middle" dominant-baseline="middle" font-size="12" font-weight="600">92</text></a>
      <a id="pos-94" href="#pos-94"><text data-pos="94" x="609" y="109" text-anchor="middle" dominant-baseline="middle" font-size="12" font-weight="600">94</text></a>
      <a id="pos-95" href="#pos-95"><text data-pos="95" x="143" y="39" text-anchor="middle" dominant-baseline="middle" font-size="12" font-weight="600">95</text></a>
      <a id="pos-96" href="#pos-96"><text data-pos="96" x="85" y="140" text-anchor="middle" dominant-baseline="middle" font-size="12" font-weight="600">96</text></a>
      <a id="pos-98" href="#pos-98"><text data-pos="98" x="425" y="249" text-anchor="middle" dominant-baseline="middle" font-size="12" font-weight="600">98</text></a>
      <a id="pos-99" href="#pos-99"><text data-pos="99" x="229" y="435" text-anchor="middle" dominant-baseline="middle" font-size="12" font-weight="600">99</text></a>
      <a id="pos-103" href="#pos-103"><text data-pos="103" x="636" y="45" text-anchor="middle" dominant-baseline="middle" font-size="12" font-weight="600">103</text></a>
      <a id="pos-122" href="#pos-122"><text data-pos="122" x="663" y="72" text-anchor="middle" dominant-baseline="middle" font-size="12" font-weight="600">122</text></a>
      <a id="pos-127" href="#pos-127"><text data-pos="127" x="662" y="146" text-anchor="middle" dominant-baseline="middle" font-size="12" font-weight="600">127</text></a>
      <a id="pos-131" href="#pos-131"><text data-pos="131" x="75" y="248" text-anchor="middle" dominant-baseline="middle" font-size="12" font-weight="600">131</text></a>
      <a id="pos-135" href="#pos-135"><text data-pos="135" x="878" y="226" text-anchor="middle" dominant-baseline="middle" font-size="12" font-weight="600">135</text></a>
      <a id="pos-139" href="#pos-139"><text data-pos="139" x="699" y="182" text-anchor="middle" dominant-baseline="middle" font-size="12" font-weight="600">139</text></a>
      <a id="pos-142" href="#pos-142"><text data-pos="142" x="842" y="60" text-anchor="middle" dominant-baseline="middle" font-size="12" font-weight="600">142</text></a>
      <a id="pos-144" href="#pos-144"><text data-pos="144" x="793" y="168" text-anchor="middle" dominant-baseline="middle" font-size="12" font-weight="600">144</text></a>
      <a id="pos-180" href="#pos-180"><text data-pos="180" x="225" y="576" text-anchor="middle" dominant-baseline="middle" font-size="12" font-weight="600">180</text></a>
      <a id="pos-184" href="#pos-184"><text data-pos="184" x="108" y="366" text-anchor="middle" dominant-baseline="middle" font-size="12" font-weight="600">184</text></a>
      <a id="pos-192" href="#pos-192"><text data-pos="192" x="471" y="462" text-anchor="middle" dominant-baseline="middle" font-size="12" font-weight="600">192</text></a>
      <a id="pos-196" href="#pos-196"><text data-pos="196" x="457" y="421" text-anchor="middle" dominant-baseline="middle" font-size="12" font-weight="600">196</text></a>
      <a id="pos-232" href="#pos-232"><text data-pos="232" x="206" y="368" text-anchor="middle" dominant-baseline="middle" font-size="12" font-weight="600">232</text></a>
      <a id="pos-233" href="#pos-233"><text data-pos="233" x="404" y="212" text-anchor="middle" dominant-baseline="middle" font-size="12" font-weight="600">233</text></a>
      <a id="pos-241" href="#pos-241"><text data-pos="241" x="719" y="532" text-anchor="middle" dominant-baseline="middle" font-size="12" font-weight="600">241</text></a>
      <a id="pos-250" href="#pos-250"><text data-pos="250" x="703" y="479" text-anchor="middle" dominant-baseline="middle" font-size="12" font-weight="600">250</text></a>
      <a id="pos-254" href="#pos-254"><text data-pos="254" x="667" y="449" text-anchor="middle" dominant-baseline="middle" font-size="12" font-weight="600">254</text></a>
      <a id="pos-258" href="#pos-258"><text data-pos="258" x="272" y="358" text-anchor="middle" dominant-baseline="middle" font-size="12" font-weight="600">258</text></a>
      <a id="pos-269" href="#pos-269"><text data-pos="269" x="636" y="404" text-anchor="middle" dominant-baseline="middle" font-size="12" font-weight="600">269</text></a>
      <a id="pos-276" href="#pos-276"><text data-pos="276" x="733" y="602" text-anchor="middle" dominant-baseline="middle" font-size="12" font-weight="600">276</text></a>
      <a id="pos-283" href="#pos-283"><text data-pos="283" x="220" y="190" text-anchor="middle" dominant-baseline="middle" font-size="12" font-weight="600">283</text></a>
      <a id="pos-290" href="#pos-290"><text data-pos="290" x="513" y="328" text-anchor="middle" dominant-baseline="middle" font-size="12" font-weight="600">290</text></a>
      <a id="pos-296" href="#pos-296"><text data-pos="296" x="497" y="245" text-anchor="middle" dominant-baseline="middle" font-size="12" font-weight="600">296</text></a>
      <a id="pos-300" href="#pos-300"><text data-pos="300" x="691" y="164" text-anchor="middle" dominant-baseline="middle" font-size="12" font-weight="600">300</text></a>
      <a id="pos-302" href="#pos-302"><text data-pos="302" x="718" y="212" text-anchor="middle" dominant-baseline="middle" font-size="12" font-weight="600">302</text></a>
      <a id="pos-303" href="#pos-303"><text data-pos="303" x="601" y="280" text-anchor="middle" dominant-baseline="middle" font-size="12" font-weight="600">303</text></a>
      <a id="pos-304" href="#pos-304"><text data-pos="304" x="697" y="80" text-anchor="middle" dominant-baseline="middle" font-size="12" font-weight="600">304</text></a>
      <a id="pos-308" href="#pos-308"><text data-pos="308" x="633" y="32" text-anchor="middle" dominant-baseline="middle" font-size="12" font-weight="600">308</text></a>
      <a id="pos-311" href="#pos-311"><text data-pos="311" x="420" y="512" text-anchor="middle" dominant-baseline="middle" font-size="12" font-weight="600">311</text></a>
      <a id="pos-318" href="#pos-318"><text data-pos="318" x="352" y="409" text-anchor="middle" dominant-baseline="middle" font-size="12" font-weight="600">318</text></a>
      <a id="pos-325" href="#pos-325"><text data-pos="325" x="455" y="418" text-anchor="middle" dominant-baseline="middle" font-size="12" font-weight="600">325</text></a>
      <a id="pos-332" href="#pos-332"><text data-pos="332" x="296" y="45" text-anchor="middle" dominant-baseline="middle" font-size="12" font-weight="600">332</text></a>
      <a id="pos-340" href="#pos-340"><text data-pos="340" x="512" y="215" text-anchor="middle" dominant-baseline="middle" font-size="12" font-weight="600">340</text></a>
      <a id="pos-343" href="#pos-343"><text data-pos="343" x="233" y="50" text-anchor="middle" dominant-baseline="middle" font-size="12" font-weight="600">343</text></a>
      <a id="pos-345" href="#pos-345"><text data-pos="345" x="715" y="283" text-anchor="middle" dominant-baseline="middle" font-size="12" font-weight="600">345</text></a>
      <a id="pos-347" href="#pos-347"><text data-pos="347" x="847" y="153" text-anchor="middle" dominant-baseline="middle" font-size="12" font-weight="600">347</text></a>
      <a id="pos-348" href="#pos-348"><text data-pos="348" x="763" y="285" text-anchor="middle" dominant-baseline="middle" font-size="12" font-weight="600">348</text></a>
      <a id="pos-349" href="#pos-349"><text data-pos="349" x="377" y="490" text-anchor="middle" dominant-baseline="middle" font-size="12" font-weight="600">349</text></a>
      <a id="pos-351" href="#pos-351"><text data-pos="351" x="707" y="100" text-anchor="middle" dominant-baseline="middle" font-size="12" font-weight="600">351</text></a>
      <a id="pos-353" href="#pos-353"><text data-pos="353" x="379" y="464" text-anchor="middle" dominant-baseline="middle" font-size="12" font-weight="600">353</text></a>
      <a id="pos-357" href="#pos-357"><text data-pos="357" x="385" y="438" text-anchor="middle" dominant-baseline="middle" font-size="12" font-weight="600">357</text></a>
      <a id="pos-361" href="#pos-361"><text data-pos="361" x="200" y="484" text-anchor="middle" dominant-baseline="middle" font-size="12" font-weight="600">361</text></a>
      <a id="pos-366" href="#pos-366"><text data-pos="366" x="94" y="343" text-anchor="middle" dominant-baseline="middle" font-size="12" font-weight="600">366</text></a>
      <a id="pos-370" href="#pos-370"><text data-pos="370" x="770" y="180" text-anchor="middle" dominant-baseline="middle" font-size="12" font-weight="600">370</text></a>
      <a id="pos-375" href="#pos-375"><text data-pos="375" x="847" y="121" text-anchor="middle" dominant-baseline="middle" font-size="12" font-weight="600">375</text></a>
      <a id="pos-380" href="#pos-380"><text data-pos="380" x="850" y="31" text-anchor="middle" dominant-baseline="middle" font-size="12" font-weight="600">380</text></a>
      <a id="pos-384" href="#pos-384"><text data-pos="384" x="388" y="150" text-anchor="middle" dominant-baseline="middle" font-size="12" font-weight="600">384</text></a>
      <a id="pos-388" href="#pos-388"><text data-pos="388" x="172" y="245" text-anchor="middle" dominant-baseline="middle" font-size="12" font-weight="600">388</text></a>
      <a id="pos-393" href="#pos-393"><text data-pos="393" x="59" y="243" text-anchor="middle" dominant-baseline="middle" font-size="12" font-weight="600">393</text></a>
      <a id="pos-402" href="#pos-402"><text data-pos="402" x="750" y="555" text-anchor="middle" dominant-baseline="middle" font-size="12" font-weight="600">402</text></a>
      <a id="pos-407" href="#pos-407"><text data-pos="407" x="933" y="452" text-anchor="middle" dominant-baseline="middle" font-size="12" font-weight="600">407</text></a>
      <a id="pos-411" href="#pos-411"><text data-pos="411" x="925" y="392" text-anchor="middle" dominant-baseline="middle" font-size="12" font-weight="600">411</text></a>
      <a id="pos-416" href="#pos-416"><text data-pos="416" x="870" y="421" text-anchor="middle" dominant-baseline="middle" font-size="12" font-weight="600">416</text></a>
      <a id="pos-421" href="#pos-421"><text data-pos="421" x="854" y="359" text-anchor="middle" dominant-baseline="middle" font-size="12" font-weight="600">421</text></a>
      <a id="pos-425" href="#pos-425"><text data-pos="425" x="701" y="506" text-anchor="middle" dominant-baseline="middle" font-size="12" font-weight="600">425</text></a>
      <a id="pos-430" href="#pos-430"><text data-pos="430" x="739" y="608" text-anchor="middle" dominant-baseline="middle" font-size="12" font-weight="600">430</text></a>
      <a id="pos-435" href="#pos-435"><text data-pos="435" x="887" y="619" text-anchor="middle" dominant-baseline="middle" font-size="10" font-weight="600">435</text></a>
      <a id="pos-440" href="#pos-440"><text data-pos="440" x="791" y="583" text-anchor="middle" dominant-baseline="middle" font-size="12" font-weight="600">440</text></a>
      <a id="pos-442" href="#pos-442"><text data-pos="442" x="849" y="608" text-anchor="middle" dominant-baseline="middle" font-size="12" font-weight="600">442</text></a>
      <a id="pos-444" href="#pos-444"><text data-pos="444" x="577" y="89" text-anchor="middle" dominant-baseline="middle" font-size="12" font-weight="600">444</text></a>
  </g>
</svg>
