<svg xmlns="http://www.w3.org/2000/svg" width="960" height="640" viewBox="0 0 960 640" role="img" aria-labelledby="title desc">
  <title id="title">Mercedes parts diagram: group-021</title>
  <desc id="desc">Mercedes parts diagram: group-021</desc>
  <g id="art">
    <metadata>
    Created by potrace 1.16, written by Peter Selinger 2001-2019
    </metadata>
    <g transform="translate(0.000000,640.000000) scale(0.100000,-0.100000)"
    fill="#000000" stroke="none">
    <path d="M8420 6291 c-68 -36 -120 -136 -217 -416 -25 -71 -56 -155 -70 -185
    -13 -30 -36 -98 -50 -150 l-26 -95 -5 -221 -4 -221 -22 4 c-14 3 -30 -5 -46
    -22 -30 -32 -22 -50 38 -83 31 -18 42 -30 42 -48 l0 -24 73 -36 c39 -20 95
    -51 123 -70 29 -18 89 -53 135 -77 79 -42 232 -129 462 -261 75 -43 105 -54
    124 -50 13 4 35 1 47 -6 36 -19 69 -9 81 24 l10 28 -31 28 c-18 15 -37 29 -44
    32 -10 3 -13 59 -14 243 -1 256 8 344 59 565 14 58 36 173 50 255 13 83 29
    166 35 185 23 79 5 197 -39 259 -23 32 -193 136 -481 294 -30 17 -68 39 -85
    49 -39 23 -101 23 -145 -1z m143 -17 c28 -15 68 -37 88 -49 20 -13 87 -52 150
    -88 63 -35 151 -85 196 -111 90 -51 134 -96 152 -155 17 -57 13 -156 -8 -246
    -11 -44 -27 -123 -36 -175 -9 -52 -32 -178 -52 -280 l-36 -185 -5 -262 -4
    -263 -39 0 -39 0 0 89 0 89 23 -5 22 -6 -22 25 -23 24 0 140 c0 135 7 173 28
    160 6 -3 13 -2 17 3 3 6 -4 15 -15 21 -13 7 -19 17 -16 26 3 9 24 106 46 217
    22 111 43 212 45 225 3 12 12 22 20 22 19 0 19 16 1 27 l-14 8 18 95 c27 138
    26 176 -11 248 -17 34 -34 62 -38 62 -3 0 -22 14 -40 31 -18 16 -35 28 -38 25
    -2 -2 -32 12 -66 32 -34 19 -114 64 -177 100 -63 35 -122 70 -130 78 -19 16
    -72 11 -101 -10 -35 -24 -64 -76 -99 -174 l-33 -92 -18 5 c-23 8 -25 -4 -3
    -20 l17 -12 -43 -99 c-53 -124 -87 -218 -98 -269 l-8 -40 -27 -3 c-33 -4 -36
    -22 -4 -22 l24 0 -13 -67 c-7 -38 -13 -117 -14 -176 l0 -109 -20 -5 c-26 -7
    -26 -23 0 -23 l21 0 -3 -72 -3 -73 -30 0 -30 0 -6 70 c-10 114 -10 305 1 392
    11 88 48 207 130 423 28 74 62 164 74 200 54 153 96 222 157 259 45 27 69 26
    132 -5z m-37 -111 c-3 -10 -10 -38 -16 -62 -12 -47 -126 -210 -148 -211 -24 0
    -23 26 3 94 54 144 90 196 137 196 23 0 28 -4 24 -17z m87 -19 c28 -15 68 -37
    88 -50 20 -12 78 -46 130 -74 52 -29 95 -53 96 -54 1 -1 -4 -22 -11 -46 l-13
    -45 -94 -27 c-52 -15 -105 -27 -119 -27 l-25 -1 -73 129 -72 128 11 34 c6 19
    12 40 15 47 5 16 7 16 67 -14z m-50 -179 c26 -41 47 -77 47 -80 0 -3 11 -23
    25 -44 l24 -39 -12 -57 c-6 -32 -16 -59 -22 -61 -5 -2 -53 2 -105 9 l-95 12
    -22 65 c-12 36 -22 74 -22 85 -1 19 113 185 127 185 4 0 28 -34 55 -75z m421
    -36 c35 -28 74 -95 81 -144 6 -34 -27 -240 -40 -253 -1 -2 -21 1 -42 7 l-40
    11 -11 162 c-17 228 -8 264 52 217z m-623 -70 c4 -8 14 -48 23 -89 l16 -75
    -18 -70 -17 -70 -60 -32 c-58 -31 -115 -43 -115 -24 0 15 42 145 50 156 6 9
    66 156 84 208 7 21 26 19 37 -4z m552 -106 c4 -60 10 -131 13 -158 l6 -51 -60
    -37 c-33 -20 -64 -37 -69 -37 -10 0 -159 198 -157 209 1 3 9 31 19 62 l17 56
    106 31 c59 17 110 31 113 31 3 1 9 -47 12 -106z m-388 -78 c55 -8 104 -20 111
    -27 53 -59 154 -204 150 -217 -3 -9 -10 -35 -16 -58 l-11 -43 -37 0 c-20 0
    -67 -3 -103 -6 l-66 -7 -87 119 c-57 77 -84 123 -80 134 3 8 11 33 16 55 13
    54 17 65 21 65 2 0 48 -7 102 -15z m-103 -207 c30 -40 67 -93 82 -117 l28 -44
    -12 -56 c-19 -87 -16 -86 -110 -33 l-84 47 -38 95 c-21 52 -40 99 -41 103 -1
    4 25 23 58 41 33 19 61 34 61 35 1 0 26 -32 56 -71z m584 41 l22 -8 -25 -113
    c-21 -97 -53 -252 -70 -337 l-4 -24 -37 36 c-28 28 -45 63 -77 153 l-41 116
    15 57 14 56 71 42 c70 41 78 43 132 22z m-767 -76 c8 -21 21 -56 31 -78 41
    -91 46 -111 42 -172 l-4 -61 -21 -6 c-12 -3 -48 -6 -79 -6 l-58 0 0 88 c0 77
    9 161 26 245 9 43 46 37 63 -10z m558 -223 c18 -58 33 -108 33 -111 0 -9 -94
    -69 -108 -69 -10 0 -46 22 -158 97 -47 32 -48 38 -28 108 l18 64 66 6 c36 3
    74 8 85 9 11 2 29 3 40 2 l19 -1 33 -105z m-370 -23 c46 -23 128 -73 183 -111
    l100 -68 0 -58 0 -59 -84 -25 c-46 -14 -92 -26 -103 -26 -13 0 -47 42 -111
    138 l-93 138 7 57 c4 31 10 57 13 56 3 0 43 -19 88 -42z m-23 -231 c70 -104
    96 -152 96 -175 0 -17 -2 -31 -4 -31 -2 0 -49 27 -104 59 -55 33 -128 74 -161
    90 -72 37 -83 54 -79 129 l3 57 70 6 c39 3 73 6 77 7 4 1 50 -63 102 -142z
    m484 87 l40 -38 -8 -70 c-5 -38 -9 -108 -9 -155 l-1 -85 -95 95 -95 95 8 62 7
    63 50 34 c63 43 55 43 103 -1z m-838 -88 l5 -30 60 -5 60 -5 -20 -12 c-22 -13
    -23 -12 28 -41 l37 -21 24 11 24 10 29 -19 c15 -11 67 -41 115 -66 l86 -47 -5
    -20 c-6 -22 12 -28 20 -7 5 14 7 13 239 -119 102 -58 158 -95 158 -105 0 -25
    28 -43 62 -41 16 1 42 -5 57 -14 l28 -17 -15 -28 -16 -27 -31 15 c-16 9 -43
    26 -60 38 -16 13 -75 47 -130 78 -178 97 -557 311 -636 358 -30 19 -83 47
    -117 63 -48 23 -62 35 -62 51 0 48 52 48 60 0z m169 -69 c31 -17 11 -30 -23
    -15 -27 13 -35 29 -13 29 6 -1 23 -7 36 -14z m34 -113 c95 -53 216 -122 270
    -152 54 -31 142 -81 196 -111 54 -30 125 -71 159 -90 34 -19 62 -40 62 -47 0
    -15 -22 -8 -74 25 -21 13 -93 54 -160 91 -66 37 -180 102 -253 144 -72 41
    -162 92 -200 113 -114 61 -183 105 -183 115 0 15 5 13 183 -88z m560 -3 l97
    -100 0 -80 0 -80 -52 34 c-29 18 -84 50 -123 71 -38 20 -105 57 -147 82 l-78
    46 0 33 0 32 93 31 c50 16 97 30 103 30 6 1 54 -44 107 -99z m277 -399 c0 -24
    -15 -35 -36 -27 -12 4 -13 10 -4 26 14 26 40 26 40 1z"/>
    <path d="M5984 6265 c-149 -32 -241 -119 -347 -330 -24 -50 -75 -131 -112
    -180 -108 -146 -156 -267 -174 -439 -14 -137 4 -297 44 -391 l13 -33 -45 -87
    -45 -87 -21 6 c-72 18 -388 29 -554 19 -266 -17 -373 -52 -460 -147 -72 -78
    -95 -178 -73 -319 13 -87 62 -242 84 -266 8 -9 17 -28 19 -42 9 -47 30 -69
    152 -158 158 -115 168 -122 250 -166 134 -72 265 -106 416 -107 l87 -1 6 -29
    c8 -39 58 -88 90 -88 14 0 29 -7 34 -16 l9 -16 6 16 c13 33 36 18 30 -19 -3
    -19 -4 -35 -2 -35 2 0 117 30 254 66 138 36 279 73 315 82 l65 17 0 40 0 40
    -32 15 c-43 20 -38 35 22 55 11 4 15 9 9 11 -9 4 -148 -31 -376 -93 -32 -8
    -58 -20 -58 -25 0 -5 8 -7 18 -4 9 2 69 18 133 35 64 17 123 33 132 37 14 5
    17 0 17 -24 0 -17 -4 -33 -9 -36 -4 -3 -95 -28 -202 -55 -107 -28 -219 -57
    -249 -66 -79 -23 -150 -8 -150 31 0 10 13 14 43 15 68 1 93 17 27 18 -79 2
    -82 5 -88 110 l-5 92 23 24 c34 36 33 36 480 116 63 11 144 27 180 35 36 7
    114 23 173 34 112 20 153 40 175 82 6 12 48 104 92 203 88 197 116 233 195
    255 l42 12 36 -16 37 -15 0 -31 c0 -17 -5 -40 -10 -50 l-10 -19 25 -17 c15
    -10 29 -13 34 -8 4 5 20 79 36 164 15 85 39 207 52 270 29 137 49 236 64 308
    l11 53 74 -41 c41 -23 74 -37 74 -32 0 11 -150 105 -157 98 -8 -8 -74 -331
    -136 -670 -22 -122 -49 -173 -39 -77 l4 51 -37 37 -38 38 7 160 c7 163 21 280
    56 460 94 491 93 631 -7 816 -107 197 -266 302 -479 314 -54 3 -115 7 -134 9
    -19 2 -63 -2 -96 -9z m150 -29 c239 -113 264 -126 304 -167 90 -90 117 -179
    109 -357 -6 -156 -28 -228 -117 -397 -161 -307 -205 -445 -204 -645 l1 -125
    26 -80 c14 -43 24 -81 22 -84 -7 -6 -45 30 -58 54 -16 30 -57 186 -57 217 0
    16 -4 28 -10 28 -19 0 1 -119 36 -204 9 -24 7 -23 -97 45 -99 66 -138 86 -234
    124 -224 89 -316 169 -366 320 -9 26 -14 34 -17 22 -2 -10 13 -53 33 -95 54
    -115 120 -167 322 -251 201 -84 306 -154 487 -325 l41 -39 -30 19 c-16 10 -94
    57 -171 105 -177 110 -293 168 -422 213 -136 47 -150 55 -200 118 -67 81 -119
    177 -144 264 l-23 79 0 145 1 145 22 78 c28 100 98 238 155 308 25 30 64 93
    87 139 109 219 204 320 332 355 76 20 114 18 172 -9z m191 -2 c103 -25 209
    -93 279 -179 48 -58 115 -184 132 -248 24 -91 14 -394 -16 -462 -11 -23 -65
    -359 -80 -490 -5 -49 -10 -146 -10 -215 l0 -125 -57 -1 c-96 -1 -148 -40 -186
    -140 -27 -68 -33 -71 -63 -26 -42 61 -75 180 -81 288 -10 183 31 330 168 599
    142 280 184 437 160 595 -29 187 -107 274 -340 382 l-106 49 70 -6 c39 -4 97
    -13 130 -21z m-906 -1468 l-29 -53 -25 5 c-14 2 -25 7 -23 11 2 3 19 35 37 70
    l35 63 17 -21 17 -21 -29 -54z m89 -30 c23 -30 42 -57 42 -60 0 -2 -30 4 -67
    15 -38 10 -69 19 -71 19 -1 0 8 18 20 40 13 22 25 40 28 40 3 0 24 -24 48 -54z
    m-463 -6 c197 -14 441 -52 556 -88 l55 -17 -330 0 -331 0 -130 -24 c-168 -30
    -342 -71 -419 -101 -55 -20 -132 -79 -156 -119 -14 -22 -28 -41 -32 -41 -4 0
    -14 23 -22 50 l-15 50 14 48 c19 60 82 134 139 160 80 38 238 72 378 81 73 4
    138 9 143 10 6 0 73 -3 150 -9z m675 -131 c52 -12 247 -103 323 -152 28 -19
    94 -58 145 -88 l93 -54 -273 -11 c-341 -15 -470 -34 -747 -111 -196 -54 -308
    -113 -355 -185 l-19 -30 -51 7 c-28 3 -79 18 -114 32 -59 23 -88 25 -66 4 8
    -9 126 -44 186 -56 l27 -5 -9 -26 c-13 -33 -13 -189 0 -233 5 -19 8 -36 6 -38
    -19 -19 -422 230 -518 320 -53 50 -114 212 -124 331 l-6 71 31 -52 c33 -55 46
    -69 55 -54 3 4 -3 16 -14 26 -27 24 -26 25 24 87 68 84 136 114 366 162 63 13
    150 32 192 41 43 9 133 20 200 25 147 10 585 2 648 -11z m930 -115 c5 -5 -10
    -8 -38 -6 -61 4 -127 -30 -163 -84 -14 -21 -45 -86 -68 -144 -83 -202 -119
    -269 -154 -286 -18 -8 -129 -32 -247 -54 -699 -129 -682 -125 -711 -156 -27
    -29 -30 -69 -16 -204 l7 -75 -15 26 c-8 15 -17 68 -21 121 l-7 94 17 32 c23
    44 38 50 219 82 266 48 321 58 337 64 8 3 104 21 213 40 110 19 206 41 214 48
    26 21 57 78 97 178 111 274 132 307 205 331 31 10 119 5 131 -7z m-322 -217
    c8 -9 7 -21 -3 -42 -80 -172 -108 -226 -123 -234 -9 -5 -111 -25 -227 -45
    -279 -49 -363 -65 -405 -76 -19 -5 -75 -16 -125 -25 -160 -28 -181 -35 -211
    -66 l-29 -30 1 -70 1 -69 -26 -7 c-30 -7 -200 12 -253 28 l-37 12 -10 49 c-14
    64 -14 187 0 227 l11 31 62 0 c72 0 156 20 218 52 368 191 413 208 649 247
    194 32 487 43 507 18z m-648 -28 c-149 -34 -212 -60 -475 -199 -90 -48 -153
    -68 -231 -76 -78 -8 -82 2 -24 58 53 49 99 72 240 119 148 49 249 74 385 98
    150 26 221 26 105 0z m-1252 -348 c192 -146 380 -249 521 -287 31 -8 103 -17
    161 -19 l105 -4 3 -15 3 -16 -60 0 c-146 0 -279 35 -453 120 -71 34 -359 246
    -366 268 -6 21 6 14 86 -47z m1525 -261 c7 -27 -3 -31 -33 -15 l-25 14 25 10
    c14 5 26 10 26 10 1 1 4 -8 7 -19z m-23 -50 c0 -5 -4 -10 -9 -10 -6 0 -13 5
    -16 10 -3 6 1 10 9 10 9 0 16 -4 16 -10z m87 -6 c9 -24 -10 -49 -37 -49 -31 0
    -48 28 -31 49 17 21 60 21 68 0z m-87 -23 c0 -4 -39 -18 -87 -31 -49 -12 -119
    -31 -158 -42 -254 -70 -265 -72 -265 -60 0 5 30 16 68 25 37 9 148 39 247 66
    201 56 195 54 195 42z m14 -30 c3 -4 -27 -16 -67 -25 -39 -10 -99 -26 -132
    -36 -33 -11 -116 -33 -185 -50 -69 -17 -134 -34 -145 -37 -15 -4 -17 -2 -9 7
    6 6 87 31 180 55 93 24 207 55 254 68 102 30 98 29 104 18z"/>
    <path d="M6550 4600 c0 -5 5 -10 10 -10 6 0 10 5 10 10 0 6 -4 10 -10 10 -5 0
    -10 -4 -10 -10z"/>
    <path d="M2385 5760 c-142 -48 -251 -184 -371 -464 -40 -95 -67 -142 -109
    -192 -77 -91 -138 -219 -165 -347 -12 -56 -26 -122 -31 -147 -18 -87 12 -178
    84 -257 51 -55 109 -86 216 -112 46 -12 109 -36 140 -55 138 -83 251 -126 332
    -126 29 0 39 -5 44 -20 10 -31 92 -97 142 -114 95 -32 314 -1 333 48 5 11 20
    127 35 256 38 334 88 620 131 747 61 178 57 394 -9 503 -31 52 -123 145 -176
    179 -95 61 -276 109 -441 117 l-95 4 -60 -20z m300 -16 c174 -30 285 -83 386
    -184 61 -61 96 -131 116 -231 l16 -80 -13 -72 c-7 -40 -25 -124 -41 -187 -15
    -63 -37 -162 -48 -220 -67 -347 -72 -383 -96 -629 -9 -96 -19 -159 -27 -166
    -43 -39 -246 -59 -314 -30 -79 33 -132 95 -139 162 -9 101 -17 143 -27 149 -7
    5 -9 -3 -5 -22 4 -16 10 -57 13 -91 l7 -63 -47 0 c-50 0 -155 31 -196 58 -59
    38 -163 92 -210 107 -28 9 -54 24 -59 34 -29 53 -81 336 -81 438 0 8 -5 11
    -11 8 -18 -12 1 -167 37 -315 18 -74 31 -136 29 -138 -9 -10 -116 42 -154 74
    -22 19 -52 59 -66 89 -30 59 -45 168 -26 179 7 5 11 -1 11 -13 0 -12 4 -21 9
    -21 5 0 9 37 8 83 -2 150 49 290 156 425 44 56 79 115 107 180 86 200 203 383
    275 431 92 61 216 76 390 45z"/>
    <path d="M2660 5711 c8 -5 31 -12 50 -16 92 -20 203 -100 245 -177 76 -140 73
    -276 -13 -542 -21 -64 -34 -115 -29 -113 11 3 61 155 92 282 32 129 32 199 -1
    298 -43 130 -127 216 -251 256 -65 21 -123 29 -93 12z"/>
    <path d="M2706 4498 c-22 -101 -26 -143 -26 -246 0 -127 7 -192 21 -192 5 0 6
    19 2 43 -13 71 -7 277 9 345 9 34 12 65 7 68 -5 2 -11 -5 -13 -18z"/>
    <path d="M7220 5240 c0 -5 14 -10 30 -10 36 0 36 0 10 -50 -22 -43 -26 -65 -9
    -55 8 6 59 109 59 121 0 2 -20 4 -45 4 -25 0 -45 -4 -45 -10z"/>
    <path d="M7337 5243 c-15 -15 -5 -22 23 -16 36 7 39 -8 8 -30 l-23 -16 23 0
    c14 -1 22 -7 22 -19 0 -27 -9 -32 -36 -22 -15 6 -24 6 -24 -1 0 -12 41 -28 58
    -22 22 9 35 43 22 59 -7 7 -9 21 -6 30 12 31 -43 61 -67 37z"/>
    <path d="M1522 5058 c-17 -17 -15 -93 3 -108 20 -16 65 -4 66 18 3 46 -12 66
    -44 58 -13 -3 -17 1 -15 12 2 9 17 20 33 23 l30 7 -30 1 c-17 0 -36 -4 -43
    -11z m52 -57 c10 -16 -5 -41 -24 -41 -20 0 -30 17 -22 38 5 14 38 16 46 3z"/>
    <path d="M1622 5057 c-6 -7 -7 -18 -2 -26 5 -8 4 -24 -2 -37 -18 -40 19 -66
    66 -48 18 7 22 49 6 59 -8 5 -7 11 1 21 6 7 9 21 5 29 -7 18 -59 20 -74 2z
    m56 -14 c-2 -10 -10 -18 -18 -18 -8 0 -16 8 -18 18 -2 12 3 17 18 17 15 0 20
    -5 18 -17z m6 -59 c8 -21 -29 -37 -44 -19 -10 12 -10 18 0 29 13 17 36 12 44
    -10z"/>
    <path d="M7081 5042 c-23 -18 -32 -76 -15 -91 5 -5 43 -26 84 -48 41 -23 90
    -49 107 -59 38 -22 60 -14 81 30 21 43 6 62 -101 125 -111 66 -124 70 -156 43z
    m97 -29 c26 -15 49 -28 51 -30 3 -2 -5 -13 -17 -26 -12 -13 -22 -31 -22 -40
    l0 -16 -57 33 c-62 36 -75 62 -48 90 23 22 39 20 93 -11z m105 -59 c3 -3 -3
    -14 -14 -25 -10 -10 -19 -28 -19 -39 0 -23 -8 -25 -32 -6 -22 16 -22 25 -2 54
    14 20 53 30 67 16z m47 -53 c0 -32 -22 -56 -45 -47 -18 6 -20 47 -3 64 23 23
    48 14 48 -17z"/>
    <path d="M7293 4894 c-6 -13 -7 -24 -2 -24 12 0 31 38 21 44 -4 2 -12 -7 -19
    -20z"/>
    <path d="M7584 5036 c-3 -8 -4 -20 -3 -27 2 -8 -1 -24 -5 -37 -9 -28 8 -52 38
    -52 40 0 47 13 40 73 l-7 57 -29 0 c-16 0 -31 -6 -34 -14z m54 -13 c-2 -10
    -10 -18 -18 -18 -8 0 -16 8 -18 18 -2 12 3 17 18 17 15 0 20 -5 18 -17z m2
    -69 c0 -8 -10 -14 -25 -14 -27 0 -33 18 -13 38 14 14 38 -2 38 -24z"/>
    <path d="M7703 5039 c19 -11 25 -83 7 -94 -18 -11 -10 -25 15 -25 25 0 33 14
    15 25 -5 3 -10 28 -10 56 l0 49 -22 0 -23 -1 18 -10z"/>
    <path d="M9155 4925 l0 -65 25 1 c14 0 19 3 13 6 -9 3 -13 26 -13 64 0 42 -4
    59 -13 59 -9 0 -13 -18 -12 -65z"/>
    <path d="M9246 4968 c-20 -28 -21 -82 -2 -97 8 -7 27 -11 43 -9 l28 3 3 32 c3
    32 -24 53 -49 37 -7 -4 -10 1 -7 12 2 11 13 20 26 22 30 5 28 22 -2 22 -14 0
    -32 -10 -40 -22z m60 -59 c3 -6 -1 -18 -9 -27 l-16 -15 -15 12 c-8 7 -12 19
    -9 27 6 17 39 19 49 3z"/>
    <path d="M9350 4956 l0 -35 27 2 c22 2 29 -3 31 -21 4 -27 -22 -40 -45 -21
    l-16 14 5 -15 c6 -19 45 -25 64 -10 32 28 15 67 -32 74 -32 5 -28 26 5 26 17
    0 31 5 31 10 0 6 -16 10 -35 10 l-35 0 0 -34z"/>
    <path d="M7386 4860 c-29 -35 -44 -96 -28 -112 16 -16 43 -1 55 32 6 17 17 30
    24 30 10 0 10 -6 -3 -25 -18 -28 -15 -60 6 -60 20 0 60 63 60 94 0 71 -68 95
    -114 41z m93 -12 c10 -27 -2 -76 -24 -97 l-15 -15 0 19 c0 10 7 27 16 37 l17
    18 -13 15 c-22 27 -84 5 -66 -24 8 -12 -3 -41 -15 -41 -17 0 -9 57 12 84 27
    34 76 36 88 4z"/>
    <path d="M7586 4776 c-50 -16 -73 -48 -58 -79 6 -12 14 -32 17 -45 14 -50 101
    -67 140 -28 80 80 12 186 -99 152z m25 -23 c-11 -10 -28 -36 -36 -58 l-15 -40
    5 40 c4 38 33 75 57 75 6 0 1 -8 -11 -17z m73 -9 c41 -40 -1 -128 -58 -122
    l-31 3 -3 31 c-4 42 13 83 40 94 32 12 35 12 52 -6z"/>
    <path d="M7790 4775 c-10 -12 -10 -18 -1 -29 8 -10 9 -16 1 -21 -21 -13 -11
    -54 14 -61 50 -12 61 -3 62 51 1 28 -3 56 -9 63 -13 17 -52 15 -67 -3z m54
    -10 c3 -9 -1 -18 -10 -22 -19 -7 -39 11 -30 26 10 16 33 13 40 -4z m5 -59 c9
    -10 8 -16 -4 -26 -17 -14 -45 -7 -45 13 0 29 30 37 49 13z"/>
    <path d="M7900 4775 c-10 -12 -10 -18 -1 -29 8 -10 9 -16 1 -21 -16 -10 -12
    -52 6 -59 27 -10 51 -7 65 10 l13 16 -13 20 c-9 15 -9 23 0 34 15 19 -5 44
    -36 44 -12 0 -28 -7 -35 -15z m50 -15 c0 -21 -24 -28 -35 -10 -8 14 3 30 21
    30 8 0 14 -9 14 -20z m3 -54 c7 -17 -18 -40 -33 -31 -5 3 -10 15 -10 26 0 23
    35 27 43 5z"/>
    <path d="M7215 4540 c-3 -5 -3 -10 2 -10 10 0 9 -83 -1 -99 -5 -7 3 -11 20
    -11 22 0 25 3 16 12 -7 7 -12 36 -12 65 0 49 -10 67 -25 43z"/>
    <path d="M7315 4540 c-3 -5 -1 -10 5 -10 8 0 11 -18 8 -55 -2 -44 0 -55 12
    -55 l15 0 -3 65 c-4 62 -19 85 -37 55z"/>
    <path d="M7412 4538 c-30 -30 -8 -68 39 -68 10 0 19 -4 19 -9 0 -14 -22 -26
    -42 -23 -10 2 -18 -2 -18 -7 0 -6 13 -11 30 -11 34 0 50 23 50 72 0 39 -15 58
    -45 58 -12 0 -26 -5 -33 -12z m58 -28 c0 -24 -26 -38 -42 -22 -16 16 -2 42 22
    42 13 0 20 -7 20 -20z"/>
    <path d="M8045 4490 c-11 -4 -31 -20 -45 -35 l-25 -27 0 -71 0 -72 29 -43 c32
    -47 51 -55 117 -50 l44 3 13 40 c16 49 7 179 -14 196 -8 6 -14 17 -14 24 0 35
    -59 55 -105 35z m93 -54 c19 -28 30 -57 30 -79 0 -20 3 -40 7 -46 6 -11 -12
    -76 -28 -98 -5 -7 -22 -13 -38 -13 l-28 0 19 46 c11 25 20 53 20 62 0 24 -39
    124 -56 143 -21 23 -17 29 15 29 l30 0 29 -44z m-78 -5 c14 -28 13 -31 -15
    -31 -43 0 -60 -64 -29 -109 13 -18 23 -22 45 -17 30 6 39 -13 20 -42 -27 -43
    -91 46 -91 124 0 82 42 126 70 75z m24 -53 c3 -7 7 -28 10 -45 l6 -33 -20 0
    c-12 0 -17 5 -14 13 3 8 0 25 -5 39 -5 14 -7 29 -4 32 10 10 23 7 27 -6z m-34
    -49 c0 -15 -5 -31 -10 -34 -14 -8 -30 38 -23 64 8 30 33 8 33 -30z"/>
    <path d="M7022 4434 c-25 -17 -52 -64 -52 -91 1 -53 54 -55 65 -3 4 17 13 30
    21 30 l14 0 -16 -25 c-9 -14 -13 -32 -9 -45 11 -33 33 -23 59 27 42 82 -14
    155 -82 107z m66 -16 c18 -18 14 -73 -8 -99 l-19 -24 -1 22 c0 12 4 23 9 25 5
    2 11 12 13 23 l3 20 -30 0 -30 0 -5 -29 c-7 -38 -30 -47 -30 -11 0 16 12 38
    29 56 32 31 50 36 69 17z"/>
    <path d="M6581 4426 c-67 -37 -63 -136 6 -136 50 0 88 93 54 134 -16 19 -28
    20 -60 2z m59 -45 c0 -37 -26 -71 -56 -71 -46 0 -43 73 5 96 32 17 51 7 51
    -25z"/>
    <path d="M7870 4414 c-6 -14 -10 -32 -10 -40 0 -8 -6 -17 -14 -20 -11 -4 -14
    -23 -13 -77 2 -78 7 -87 50 -87 28 0 34 9 18 26 -14 14 -16 86 -3 111 7 12 12
    31 12 42 0 10 6 21 13 24 8 3 7 10 -7 26 -25 27 -34 27 -46 -5z m24 -41 c-4
    -21 -14 -43 -22 -49 -9 -7 -12 -16 -7 -24 11 -18 12 -101 1 -97 -16 5 -17 134
    -1 147 8 7 15 23 15 36 0 13 5 24 10 24 7 0 8 -14 4 -37z"/>
    <path d="M7605 4319 c-187 -24 -229 -36 -233 -67 -2 -14 3 -25 14 -29 16 -6
    380 34 396 43 18 11 4 75 -16 73 -6 -1 -78 -10 -161 -20z m157 -28 c-9 -2 -22
    -7 -28 -12 -12 -10 -24 -2 -24 17 0 15 52 23 62 9 4 -5 0 -12 -10 -14z m-72
    -1 c0 -21 -15 -27 -25 -10 -7 12 2 30 16 30 5 0 9 -9 9 -20z m-42 -7 c-5 -25
    -28 -28 -28 -4 0 12 6 21 16 21 9 0 14 -7 12 -17z m-96 -25 c-9 -9 -12 -7 -12
    12 0 19 3 21 12 12 9 -9 9 -15 0 -24z m56 20 c-6 -18 -25 -20 -31 -3 -5 10 0
    15 14 15 12 0 19 -5 17 -12z m-123 -18 c0 -7 -6 -15 -12 -17 -8 -3 -13 4 -13
    17 0 13 5 20 13 18 6 -3 12 -11 12 -18z m35 5 c0 -8 -4 -15 -10 -15 -5 0 -10
    7 -10 15 0 8 5 15 10 15 6 0 10 -7 10 -15z m-70 -10 c0 -8 -4 -15 -9 -15 -5 0
    -11 7 -15 15 -3 9 0 15 9 15 8 0 15 -7 15 -15z m-40 -10 c0 -8 -4 -15 -9 -15
    -5 0 -11 7 -15 15 -3 9 0 15 9 15 8 0 15 -7 15 -15z"/>
    <path d="M7142 4324 c-37 -16 -50 -95 -17 -108 8 -3 15 -12 15 -20 0 -8 11
    -23 25 -34 l25 -20 45 9 c61 11 62 12 70 65 l7 46 -22 23 c-12 13 -36 25 -53
    28 -18 3 -43 8 -57 11 -14 3 -31 3 -38 0z m40 -24 c-12 -5 -25 -16 -27 -25 -3
    -8 -8 -23 -11 -32 l-6 -18 -11 23 c-13 29 15 62 52 61 l26 0 -23 -9z m82 -16
    c31 -12 16 -24 -29 -24 -49 0 -62 16 -17 23 15 2 28 5 29 6 1 0 8 -2 17 -5z
    m-76 -68 c2 -28 0 -37 -10 -34 -7 3 -14 22 -16 42 -2 28 0 37 10 34 7 -3 14
    -22 16 -42z m104 0 l-4 -34 -30 -6 c-53 -11 -58 -8 -58 28 l0 35 28 4 c15 2
    36 5 47 6 l21 1 -4 -34z"/>
    <path d="M7172 4220 c0 -14 2 -19 5 -12 2 6 2 18 0 25 -3 6 -5 1 -5 -13z"/>
    <path d="M6651 4233 c-29 -133 -64 -272 -83 -331 l-20 -62 -31 -17 c-18 -9
    -79 -29 -137 -44 -57 -15 -106 -32 -108 -39 -6 -16 26 -9 160 35 57 18 105 31
    107 29 10 -9 -21 -56 -48 -72 -16 -10 -118 -40 -226 -67 -172 -42 -217 -58
    -204 -69 2 -2 27 2 54 9 28 7 57 15 65 17 11 2 14 -5 11 -31 l-3 -34 24 7 c12
    3 44 11 71 17 35 8 47 15 47 29 0 10 9 22 20 25 11 3 20 15 20 26 0 10 6 19
    13 19 37 0 119 34 146 60 l30 30 32 139 32 139 36 7 c78 15 108 60 96 150 l-6
    55 -29 15 c-48 25 -56 20 -69 -42z m85 0 c3 -16 8 -36 11 -46 7 -26 -37 -105
    -62 -111 -39 -11 -57 -7 -51 12 2 9 12 52 21 95 l17 77 29 0 29 0 6 -27z
    m-381 -572 c-13 -12 -136 -44 -143 -37 -6 7 11 13 75 31 59 16 80 18 68 6z
    m-60 -55 c-45 -19 -85 -27 -85 -17 0 9 61 28 95 30 14 0 11 -3 -10 -13z"/>
    <path d="M6886 4283 c-4 -5 -14 -23 -22 -42 l-14 -35 16 -48 c16 -49 36 -68
    73 -68 28 0 53 38 41 61 -6 10 -10 38 -10 63 0 64 -7 76 -44 76 -18 0 -36 -3
    -40 -7z m41 -74 c1 -30 4 -63 5 -74 4 -27 -28 -31 -42 -5 -17 31 -17 104 -1
    124 23 27 35 13 38 -45z m37 -78 c4 -5 2 -12 -3 -15 -11 -7 -21 54 -20 114 l2
    45 7 -67 c5 -37 11 -71 14 -77z"/>
    <path d="M6890 4191 c0 -22 5 -43 11 -46 17 -11 23 3 9 20 -7 8 -10 26 -8 40
    3 14 1 25 -3 25 -5 0 -9 -18 -9 -39z"/>
    <path d="M910 4200 c-69 -10 -174 -22 -234 -28 -127 -12 -205 -45 -243 -101
    -30 -44 -29 -88 3 -214 14 -56 32 -151 40 -212 27 -213 73 -269 284 -353 65
    -26 146 -70 210 -112 102 -68 200 -110 259 -110 14 0 49 -7 76 -16 67 -21 225
    -22 290 -2 28 9 104 37 170 63 193 75 232 87 385 115 169 32 270 66 336 116
    68 51 108 65 216 73 43 4 82 11 88 17 14 14 34 222 26 277 -9 58 -9 58 -144
    102 -147 47 -425 153 -526 199 -89 42 -330 124 -451 155 -204 53 -542 66 -785
    31z m640 -20 c152 -28 467 -117 456 -127 -3 -3 -54 1 -115 7 -203 23 -661 0
    -661 -33 0 -9 10 -8 130 14 83 15 464 16 550 1 36 -6 94 -16 130 -22 54 -9
    253 -81 375 -135 17 -7 75 -27 130 -45 55 -17 109 -35 120 -40 12 -5 -70 -9
    -205 -9 -383 -2 -582 -36 -885 -151 -60 -23 -150 -56 -200 -73 l-90 -31 -162
    -1 c-105 0 -159 -3 -152 -10 5 -5 71 -9 147 -9 168 0 235 16 493 119 127 51
    222 76 434 112 l160 27 279 -1 280 -1 19 -23 20 -24 -6 -115 c-3 -64 -10 -128
    -16 -143 l-11 -27 -52 -1 c-29 0 -83 -8 -120 -18 -38 -9 -68 -17 -68 -16 0 0
    9 34 20 74 12 40 19 76 16 79 -8 7 -24 -36 -40 -106 -16 -71 -31 -87 -121
    -132 -68 -34 -132 -51 -295 -79 -133 -24 -170 -34 -303 -90 -219 -92 -361
    -115 -488 -78 l-57 17 -4 72 c-5 71 -23 137 -34 125 -3 -3 -1 -22 6 -41 12
    -39 17 -142 6 -153 -9 -9 -115 16 -157 38 -20 10 -56 33 -80 51 -52 40 -125
    79 -274 148 -173 80 -203 121 -225 304 -5 44 -26 144 -46 223 l-37 144 17 37
    c31 66 97 96 249 114 123 14 177 15 240 4 33 -6 47 -5 47 3 0 6 -9 11 -19 11
    -11 0 -22 4 -25 9 -21 33 449 35 624 1z"/>
    <path d="M845 3941 c-60 -21 -126 -46 -145 -56 -76 -38 -153 -89 -142 -93 7
    -2 33 9 60 25 90 56 306 143 353 143 10 0 21 5 24 10 12 19 -40 9 -150 -29z"/>
    <path d="M1745 3750 c-190 -29 -555 -148 -555 -182 0 -14 19 -9 89 26 108 55
    361 126 490 138 19 2 36 9 39 16 2 6 0 11 -5 11 -4 -1 -30 -5 -58 -9z"/>
    <path d="M7435 4119 c-11 -4 -14 -8 -6 -8 10 -1 12 -15 9 -61 l-4 -60 23 0
    c13 0 23 5 23 10 0 6 -4 10 -10 10 -5 0 -10 26 -12 59 l-3 58 -20 -8z"/>
    <path d="M7526 4114 c-33 -33 -10 -124 31 -124 41 0 61 110 24 130 -27 14 -37
    13 -55 -6z m59 -33 c11 -50 -32 -99 -49 -55 -8 21 -8 69 1 77 17 17 42 5 48
    -22z"/>
    <path d="M7630 4115 l-12 -15 31 6 c37 8 45 -19 9 -30 l-23 -7 23 -9 c12 -5
    22 -18 22 -30 0 -22 -12 -25 -41 -10 -13 8 -19 7 -19 0 0 -19 48 -34 64 -21
    15 13 17 96 3 119 -11 17 -42 15 -57 -3z"/>
    <path d="M8180 4090 c-10 -7 -11 -10 -2 -10 8 0 12 -17 12 -50 0 -27 -4 -50
    -10 -50 -5 0 -10 -4 -10 -10 0 -5 10 -10 23 -10 l23 0 -4 63 c-5 69 -10 81
    -32 67z"/>
    <path d="M8274 4085 l-19 -15 33 6 32 7 0 -17 c0 -9 -10 -21 -22 -25 l-23 -9
    28 -11 c37 -15 29 -36 -13 -34 l-33 1 15 -14 c10 -10 24 -13 41 -9 l27 7 -1
    52 c-2 73 -23 93 -65 61z"/>
    <path d="M8408 4083 c-43 -50 -49 -93 -14 -93 13 0 27 -6 29 -12 7 -18 29 12
    22 30 -3 8 -5 31 -5 53 0 43 -9 48 -32 22z m3 -66 c-17 -17 -24 -1 -10 25 l13
    23 4 -19 c2 -10 -1 -23 -7 -29z"/>
    <path d="M7782 4071 l-14 -8 16 -6 c19 -8 22 -77 4 -95 -9 -9 -4 -12 23 -12
    l34 1 -17 10 c-14 8 -18 23 -18 64 0 55 -4 62 -28 46z"/>
    <path d="M7882 4068 c-7 -7 -12 -16 -12 -22 0 -6 5 -5 12 2 16 16 48 15 48 -1
    0 -7 -13 -26 -30 -42 -43 -41 -39 -55 13 -53 l42 1 -32 4 c-41 5 -41 13 -3 41
    42 32 36 82 -10 82 -9 0 -21 -5 -28 -12z"/>
    <path d="M7990 4060 c-24 -24 -27 -82 -6 -99 8 -7 27 -11 43 -9 l28 3 0 35 0
    35 -32 3 c-38 4 -35 32 3 32 13 0 24 5 24 10 0 17 -39 11 -60 -10z m50 -75 c0
    -18 -5 -25 -19 -25 -23 0 -35 15 -27 35 10 26 46 18 46 -10z"/>
    <path d="M7156 4041 c-30 -33 8 -88 45 -65 7 4 10 -1 7 -12 -2 -12 -15 -21
    -33 -24 l-30 -6 23 -6 c35 -10 62 22 62 72 0 56 -40 78 -74 41z m54 -27 c0
    -17 -6 -24 -20 -24 -25 0 -36 25 -20 45 16 20 40 7 40 -21z"/>
    <path d="M7267 4042 c-10 -11 -17 -36 -17 -61 l0 -42 23 -8 c32 -12 62 2 65
    32 3 28 -28 53 -54 43 -20 -8 -17 22 4 32 9 5 23 7 31 4 8 -3 11 0 7 7 -11 17
    -41 13 -59 -7z m53 -72 c0 -24 -26 -38 -42 -22 -16 16 -2 42 22 42 13 0 20 -7
    20 -20z"/>
    <path d="M6785 3980 c-3 -5 -1 -10 4 -10 14 0 14 -87 1 -95 -18 -11 -10 -25
    14 -25 29 0 44 18 22 26 -12 5 -16 20 -16 60 0 50 -10 68 -25 44z"/>
    <path d="M6890 3980 c-12 -8 -12 -10 -1 -10 11 0 13 -13 8 -60 l-5 -60 18 0
    c22 0 35 16 20 25 -5 3 -10 31 -10 61 0 55 -4 61 -30 44z"/>
    <path d="M6984 3976 c-10 -8 -16 -18 -11 -22 4 -4 13 -2 19 4 16 16 48 15 48
    0 0 -7 -16 -29 -36 -49 -20 -21 -33 -42 -30 -48 9 -13 73 -15 81 -2 7 12 -31
    25 -45 16 -21 -13 -9 13 20 40 35 33 38 50 11 65 -26 13 -33 13 -57 -4z"/>
    <path d="M6122 3832 c-21 -11 -35 -27 -39 -44 -3 -16 -9 -28 -13 -28 -34 0 -9
    -97 28 -107 33 -8 40 5 8 17 -14 5 -25 13 -24 17 0 5 -2 15 -6 23 -9 22 29 90
    60 106 51 27 89 14 94 -31 4 -35 -12 -86 -31 -98 -28 -17 -23 -28 6 -15 49 22
    58 131 12 163 -27 19 -53 18 -95 -3z"/>
    <path d="M5444 3702 c-17 -15 -38 -46 -47 -70 l-17 -43 15 -28 c15 -31 33 -41
    69 -41 32 0 86 29 93 49 3 9 12 30 21 47 l15 32 -16 35 c-27 56 -82 64 -133
    19z m110 -30 c21 -75 -45 -156 -108 -132 -39 15 -48 42 -30 87 24 57 53 82 94
    80 l34 -2 10 -33z"/>
    <path d="M6762 3687 c-9 -11 -9 -35 0 -103 l13 -89 40 0 40 0 3 60 c1 33 8 70
    14 83 18 36 0 56 -54 60 -29 2 -49 -2 -56 -11z m81 -15 c-2 -6 2 -12 7 -12 21
    0 9 -18 -16 -24 -38 -10 -68 2 -53 20 6 8 8 14 3 14 -5 0 -2 5 6 10 20 13 56
    8 53 -8z m-3 -107 l0 -55 -30 0 -30 0 0 49 0 50 28 4 c15 2 28 5 30 6 1 0 2
    -24 2 -54z"/>
    <path d="M6998 3636 c-28 -48 -27 -56 8 -56 13 0 24 -7 26 -17 l4 -18 10 20
    c13 26 6 115 -10 115 -6 0 -23 -20 -38 -44z m32 -11 c0 -16 -6 -25 -15 -25
    -18 0 -19 4 -3 30 16 26 18 25 18 -5z"/>
    <path d="M7092 3668 c-28 -28 -1 -75 38 -65 13 3 20 0 20 -9 0 -16 -30 -33
    -47 -27 -7 3 -13 0 -13 -6 0 -17 46 -13 64 5 16 15 21 69 10 98 -7 19 -55 21
    -72 4z m58 -13 c16 -19 4 -35 -26 -35 -17 0 -24 6 -24 18 0 34 28 43 50 17z"/>
    <path d="M6172 3478 c-13 -13 -16 -57 -4 -74 23 -34 92 -15 92 27 0 51 -55 80
    -88 47z m67 -27 c13 -24 -8 -55 -34 -50 -28 6 -42 34 -26 53 18 22 48 20 60
    -3z"/>
    <path d="M6997 3444 c-12 -13 4 -25 18 -14 8 7 19 9 25 5 15 -9 12 -35 -5 -35
    -22 0 -18 -17 6 -23 32 -9 17 -32 -20 -31 -33 2 -42 -10 -15 -20 41 -16 87 15
    68 46 -4 6 -7 25 -8 42 l-1 31 -30 3 c-17 2 -34 0 -38 -4z"/>
    <path d="M7113 3438 c-21 -26 -24 -70 -8 -94 30 -46 94 -21 81 31 -6 23 -20
    30 -53 26 -28 -4 -11 29 20 38 l32 9 -31 1 c-17 1 -36 -5 -41 -11z m52 -73 c0
    -23 -34 -33 -46 -14 -10 17 9 41 30 37 9 -2 16 -12 16 -23z"/>
    <path d="M4872 3421 l-14 -8 16 -6 c18 -7 23 -82 6 -92 -17 -11 -11 -25 10
    -22 22 4 40 17 22 17 -8 0 -12 21 -12 60 0 60 -4 67 -28 51z"/>
    <path d="M4971 3421 c-9 -6 -12 -18 -8 -32 3 -13 1 -29 -4 -35 -15 -18 -2 -51
    21 -57 45 -12 83 20 60 48 -6 7 -8 24 -5 38 9 35 -31 59 -64 38z m49 -26 c0
    -16 -35 -21 -44 -6 -8 12 4 21 26 21 10 0 18 -7 18 -15z m-3 -46 c16 -16 5
    -39 -17 -39 -25 0 -35 18 -20 35 15 18 22 19 37 4z"/>
    <path d="M6635 3396 l-120 -31 -3 -27 c-2 -16 1 -28 7 -28 6 0 11 5 11 10 0 6
    5 10 10 10 6 0 10 -8 10 -17 l0 -18 120 1 120 1 14 19 c9 12 27 19 47 19 53 0
    49 27 -11 64 -60 37 -54 37 -205 -3z m195 -12 c49 -32 45 -45 -3 -15 -42 26
    -71 26 -167 1 -73 -19 -119 -25 -108 -15 7 7 189 53 216 54 12 1 40 -11 62
    -25z m-80 -28 c0 -7 9 -16 20 -19 49 -13 11 -22 -90 -23 -61 0 -110 3 -110 6
    0 6 137 48 163 49 9 1 17 -5 17 -13z m50 4 c0 -5 -7 -7 -15 -4 -8 4 -15 8 -15
    10 0 2 7 4 15 4 8 0 15 -4 15 -10z"/>
    <path d="M6870 3305 c-6 -8 -9 -19 -5 -26 9 -13 -12 -29 -37 -29 -11 0 -15 5
    -12 15 7 17 -22 21 -45 6 -20 -13 -3 -84 21 -89 24 -5 115 37 122 55 9 24 -4
    83 -19 83 -7 0 -18 -7 -25 -15z m30 -36 l0 -30 -35 -15 c-60 -25 -80 -23 -83
    9 -2 15 1 27 7 27 6 0 11 -7 11 -15 0 -16 20 -19 58 -9 16 5 22 14 22 35 0 16
    5 29 10 29 6 0 10 -14 10 -31z"/>
    <path d="M6065 3261 c-3 -6 -1 -11 4 -11 16 0 14 -97 -1 -103 -7 -3 3 -6 22
    -6 19 0 30 3 23 7 -6 4 -13 32 -15 61 -3 51 -18 75 -33 52z"/>
    <path d="M6172 3261 c-8 -4 -13 -19 -11 -32 1 -13 -1 -32 -6 -41 -13 -31 2
    -48 40 -48 40 0 55 21 37 50 -6 10 -8 28 -5 40 8 32 -25 51 -55 31z m48 -22
    c0 -16 -31 -22 -43 -10 -9 9 -9 14 2 20 16 10 41 4 41 -10z m-2 -66 c5 -17
    -26 -29 -40 -15 -6 6 -7 15 -3 22 9 14 37 9 43 -7z"/>
    <path d="M6273 3263 c-25 -10 -12 -22 17 -16 36 7 44 -21 9 -30 -23 -6 -17
    -27 7 -27 8 0 14 -9 14 -20 0 -22 -28 -28 -47 -9 -8 8 -13 8 -18 0 -8 -14 16
    -23 52 -19 l28 3 1 50 c2 67 -17 87 -63 68z"/>
    <path d="M7016 3186 c-32 -56 -32 -56 4 -56 22 0 30 -5 31 -17 0 -14 2 -15 6
    -3 3 8 11 18 17 22 8 5 7 8 -1 8 -9 0 -13 16 -13 45 0 57 -11 57 -44 1z m34
    -16 c0 -23 -4 -30 -20 -30 l-21 0 16 30 c9 17 18 30 20 30 3 0 5 -13 5 -30z"/>
    <path d="M7110 3216 c-13 -17 0 -22 16 -6 6 6 15 6 24 -1 l15 -9 -24 -20 c-16
    -14 -19 -20 -8 -20 21 0 37 -23 27 -40 l-9 -14 -26 12 c-21 10 -26 10 -23 0 3
    -7 20 -13 39 -13 l34 0 0 60 0 60 -26 3 c-14 2 -31 -4 -39 -12z"/>
    <path d="M8106 3159 c-82 -20 -121 -69 -185 -232 -62 -159 -112 -252 -145
    -275 -25 -17 -107 -37 -327 -82 -635 -128 -609 -121 -629 -170 -22 -53 15
    -251 56 -299 25 -30 116 -69 122 -52 6 17 32 0 32 -20 0 -14 7 -19 29 -19 19
    0 102 -42 232 -116 112 -64 224 -128 249 -142 25 -14 61 -35 80 -47 19 -12 68
    -39 108 -60 56 -31 72 -44 72 -61 0 -29 55 -83 91 -91 17 -3 29 -12 29 -20 0
    -12 3 -13 14 -4 11 9 18 6 33 -14 l18 -26 40 14 c22 8 110 33 195 57 254 69
    388 113 395 130 24 62 76 100 96 68 l9 -13 0 14 c0 11 3 11 14 1 8 -6 12 -18
    9 -26 -6 -17 12 -18 73 -3 33 9 46 17 50 35 4 15 13 24 25 24 11 0 24 11 30
    24 7 14 26 28 50 35 59 18 96 55 115 114 40 131 154 588 154 618 0 90 -126
    136 -236 85 l-51 -23 -37 -89 c-21 -49 -40 -90 -41 -92 -2 -2 -43 19 -92 46
    -132 74 -545 310 -549 315 -3 2 1 17 7 33 6 16 24 81 40 144 l28 115 -17 35
    c-29 59 -107 88 -186 69z m109 -19 c15 -7 10 -9 -23 -9 -43 -1 -109 -28 -130
    -54 -11 -13 -87 -163 -171 -340 -43 -89 -71 -116 -143 -138 -33 -10 -204 -46
    -633 -134 l-220 -45 -23 -28 c-27 -31 -26 -58 6 -192 11 -47 18 -87 16 -89
    -13 -14 -64 176 -64 239 1 72 18 80 288 135 513 106 640 133 658 143 38 20 62
    59 114 182 83 196 130 289 153 303 61 35 129 45 172 27z m9 -43 c9 -13 4 -46
    -22 -145 -55 -215 -62 -232 -87 -242 -41 -15 -58 -99 -27 -133 l17 -19 -34
    -29 c-34 -28 -91 -50 -218 -85 l-62 -16 -9 -26 c-6 -20 -9 -5 -9 55 l-1 82 19
    6 c16 5 19 12 14 35 -5 22 -2 30 13 34 33 11 48 35 147 236 103 209 120 233
    181 255 47 17 63 16 78 -8z m66 -47 c0 -9 -8 -44 -19 -76 -10 -33 -26 -91 -35
    -131 l-18 -72 -19 12 c-24 15 -25 7 16 154 20 69 35 133 34 142 -3 32 2 35 21
    12 11 -13 20 -31 20 -41z m107 -402 c118 -68 265 -152 328 -188 133 -75 139
    -81 130 -109 -9 -29 -16 -27 -108 28 -45 27 -196 113 -334 191 l-253 143 0 22
    c0 20 7 35 18 35 3 0 101 -55 219 -122z m-68 -50 c97 -55 201 -115 231 -131
    175 -96 278 -162 269 -172 -4 -3 -69 30 -145 74 -77 44 -196 113 -266 153
    -226 130 -303 178 -284 178 11 0 99 -46 195 -102z m69 -85 c79 -46 145 -83
    148 -83 3 0 29 -15 57 -34 29 -18 87 -52 130 -75 77 -43 86 -55 66 -92 -7 -15
    -14 -17 -23 -10 -6 6 -59 37 -117 69 -590 335 -582 330 -559 372 l10 19 73
    -41 c39 -23 136 -79 215 -125z m706 79 c-92 -32 -96 -37 -214 -277 l-110 -225
    -39 -20 c-22 -11 -140 -40 -263 -65 -619 -127 -640 -132 -668 -185 -8 -15 20
    -215 35 -252 4 -10 3 -18 -3 -18 -16 0 -30 48 -46 157 -25 161 -19 168 194
    213 80 17 213 46 295 64 83 19 193 42 245 51 141 25 197 44 224 75 13 16 51
    92 86 171 34 79 78 177 97 217 l35 74 41 19 c24 10 64 19 92 18 l50 0 -51 -17z
    m-1314 -16 c0 -12 -85 -36 -127 -36 -31 0 -9 19 40 33 66 20 87 20 87 3z m525
    -111 c55 -32 150 -86 210 -120 196 -110 255 -147 255 -156 0 -15 0 -15 -237
    122 -126 73 -248 143 -273 157 -25 14 -64 38 -87 53 -23 16 -46 29 -51 29 -6
    0 -13 7 -16 16 -6 17 18 5 199 -101z m895 96 c17 -33 12 -74 -39 -273 -77
    -299 -90 -341 -110 -361 -10 -10 -87 -39 -172 -65 l-154 -47 -3 -23 c-2 -12
    -8 -22 -13 -22 -12 0 -12 77 1 85 6 3 10 17 10 30 0 13 -4 27 -10 30 -5 3 -10
    24 -10 46 l0 39 -24 0 c-13 0 -31 -3 -40 -6 l-16 -6 0 -124 0 -124 -15 0 c-8
    0 -15 7 -15 15 0 8 -4 15 -9 15 -16 0 -265 -68 -291 -79 -62 -26 -386 -112
    -413 -109 l-31 3 -17 115 -18 115 21 21 c11 12 29 24 41 27 12 2 144 30 292
    60 553 114 583 123 619 171 13 17 65 115 116 218 101 207 119 234 164 254 49
    21 123 18 136 -5z m-1567 -31 c4 -17 11 -19 31 -14 l26 6 0 -81 c0 -76 -10
    -102 -24 -65 -6 16 -58 12 -81 -6 -8 -6 -346 -104 -455 -131 l-15 -4 -3 108
    c-1 59 0 107 2 107 14 0 395 80 421 89 54 17 92 13 98 -9z m503 -12 c18 -14
    -11 -98 -43 -128 -21 -18 -76 -38 -203 -74 -96 -26 -215 -61 -265 -76 -237
    -74 -359 -104 -392 -95 -38 9 -26 15 150 66 685 198 678 195 693 263 13 64 24
    72 60 44z m-393 -28 c7 -55 -3 -118 -19 -124 l-14 -5 0 84 c0 65 3 85 14 85 8
    0 15 -15 19 -40z m316 -19 c-13 -37 -26 -45 -116 -72 -38 -11 -77 -24 -88 -29
    -11 -6 -112 -36 -225 -69 -113 -32 -259 -75 -325 -95 l-120 -37 -32 15 c-58
    28 -82 18 309 130 l187 53 13 -19 13 -19 55 19 c41 14 56 25 60 42 l5 23 113
    32 c61 18 122 39 134 48 29 19 30 17 17 -22z m194 -17 c45 -26 115 -66 154
    -90 40 -24 75 -44 77 -44 2 0 51 -28 109 -62 57 -35 118 -71 136 -80 39 -21
    33 -40 -23 -73 -44 -25 -87 -36 -341 -85 -88 -17 -209 -42 -270 -56 -60 -14
    -141 -32 -180 -40 -102 -23 -101 -22 -132 -53 l-28 -29 -90 52 c-50 28 -139
    78 -198 111 -59 33 -107 63 -107 66 0 4 15 9 33 13 79 16 266 82 271 96 3 8
    11 24 18 35 7 11 14 22 15 23 1 2 20 6 43 8 l41 4 9 -25 9 -24 58 16 c58 16
    95 45 113 90 6 15 21 23 51 28 56 10 114 63 124 113 7 38 13 52 21 52 3 0 42
    -21 87 -46z m-1163 -124 c0 -60 0 -113 1 -117 0 -5 -20 -14 -45 -22 l-45 -14
    -3 -26 c-2 -14 -10 -27 -18 -29 -12 -2 -15 6 -12 37 l4 40 28 6 c42 9 57 34
    65 105 3 36 9 73 12 83 l5 18 -34 -3 -33 -3 -8 -50 c-17 -102 -42 -107 -42 -8
    l0 67 40 12 c22 7 50 13 63 13 l22 1 0 -110z m-140 0 l0 -81 27 4 c30 4 40 26
    42 90 1 20 3 37 5 37 2 0 12 3 20 6 l17 6 -6 -43 c-3 -24 -8 -58 -11 -76 l-5
    -32 -44 -17 c-25 -9 -45 -23 -45 -30 0 -8 -6 -14 -14 -14 -8 0 -21 -2 -29 -5
    -19 -8 -51 152 -38 189 11 27 36 45 64 46 l17 0 0 -80z m995 -29 c-10 -10
    -119 -41 -144 -41 -27 0 0 15 57 32 66 19 101 23 87 9z m-28 -38 c-12 -11
    -107 -42 -107 -34 0 4 21 15 48 23 53 18 68 21 59 11z m-257 -46 c-8 -8 -49
    -23 -90 -34 -41 -11 -121 -33 -177 -49 -85 -23 -132 -27 -112 -11 6 6 362 105
    379 106 l14 1 -14 -13z m-455 -80 c103 -61 225 -130 240 -136 6 -2 17 -9 25
    -16 8 -7 44 -28 80 -48 36 -19 97 -53 135 -76 l70 -41 7 -32 c3 -18 5 -34 4
    -36 -3 -3 -124 64 -141 78 -5 4 -50 30 -100 58 -105 58 -405 229 -454 260
    l-35 21 25 10 c40 16 51 13 144 -42z m445 46 c0 -5 -67 -27 -148 -50 -81 -22
    -155 -44 -164 -48 -10 -4 -18 -3 -18 1 0 9 90 40 235 80 94 26 95 26 95 17z
    m-698 -113 c-2 -3 -15 8 -28 23 -31 36 -31 65 -1 69 l22 3 5 -45 c3 -25 4 -47
    2 -50z m129 52 c24 -16 76 -46 114 -67 39 -21 86 -48 105 -61 19 -12 67 -40
    105 -61 208 -113 365 -207 365 -220 0 -17 -47 7 -370 191 -326 185 -380 218
    -380 234 0 18 11 15 61 -16z m67 -94 c70 -39 170 -95 222 -125 52 -30 131 -75
    175 -100 201 -114 235 -136 235 -155 l0 -20 -42 24 c-24 14 -92 53 -153 88
    -60 34 -154 88 -208 119 -54 31 -124 71 -155 90 -31 18 -82 47 -112 63 -49 27
    -119 67 -129 74 -1 2 0 8 4 14 9 15 15 12 163 -72z m1532 -82 c0 -18 7 -39 15
    -46 l15 -13 -15 -23 c-8 -13 -15 -41 -15 -63 0 -37 -11 -51 -41 -51 -15 0 -11
    217 4 223 29 12 37 6 37 -27z m380 -50 c0 -28 -60 -74 -122 -95 -35 -11 -135
    -41 -223 -65 -323 -91 -476 -135 -587 -170 -211 -66 -245 -69 -268 -26 l-11
    20 36 0 c19 0 61 9 92 20 32 11 146 45 253 75 107 31 225 65 262 76 82 23 88
    23 88 3 0 -12 6 -15 23 -10 12 3 46 11 75 17 l52 12 0 23 c0 18 7 25 28 30 53
    12 244 74 270 89 34 18 32 18 32 1z m-160 -135 c0 -12 -150 -52 -164 -44 -6 4
    25 17 69 29 94 26 95 27 95 15z m-80 -66 c-14 -8 -36 -14 -50 -14 l-25 1 30
    13 c17 8 39 14 50 14 l20 0 -25 -14z m-206 -24 c-5 -5 -38 -16 -74 -25 -36 -9
    -119 -32 -185 -51 -66 -20 -173 -52 -239 -71 -65 -19 -130 -34 -144 -32 -25 3
    40 23 458 142 176 51 205 57 184 37z m-29 -39 c-6 -5 -59 -23 -120 -41 -352
    -102 -455 -131 -472 -131 l-18 1 15 8 c8 5 60 21 115 36 90 24 361 104 425
    125 34 11 66 12 55 2z"/>
    <path d="M8117 3063 c-42 -47 -26 -98 30 -91 57 6 70 108 13 108 -15 0 -34 -8
    -43 -17z m63 -31 c0 -32 -16 -52 -42 -52 -14 0 -18 8 -18 33 0 40 6 47 37 47
    l23 0 0 -28z"/>
    <path d="M9090 2510 c-15 -15 -20 -31 -18 -53 l3 -32 31 -3 c40 -4 66 25 62
    70 l-3 33 -27 3 c-17 2 -34 -4 -48 -18z m65 -10 c20 -32 -35 -84 -62 -58 l-14
    15 12 26 c12 28 51 38 64 17z"/>
    <path d="M9050 2325 c-13 -16 -7 -45 10 -45 7 0 9 8 5 20 -5 14 -2 20 9 20 9
    0 16 5 16 10 0 15 -26 12 -40 -5z"/>
    <path d="M8891 2179 c-17 -50 -14 -69 12 -69 17 0 26 9 36 37 l14 36 -19 14
    c-26 19 -31 17 -43 -18z m39 -7 c0 -13 -28 -47 -34 -42 -10 10 6 50 20 50 8 0
    14 -4 14 -8z"/>
    <path d="M9086 2189 c3 -6 0 -15 -7 -20 -10 -6 -8 -9 9 -9 15 0 22 6 22 20 0
    11 -7 20 -16 20 -8 0 -12 -5 -8 -11z"/>
    <path d="M8013 1863 c-26 -5 -25 -3 -23 -93 l2 -64 -33 -27 c-57 -46 -23 -73
    64 -48 l37 10 0 114 c0 86 -3 115 -12 114 -7 -1 -23 -4 -35 -6z m37 -111 l0
    -99 -45 -10 c-55 -12 -68 0 -26 25 l31 17 0 77 c0 72 4 84 33 87 4 1 7 -43 7
    -97z"/>
    <path d="M8376 1664 c-4 -10 -1 -14 6 -12 15 5 23 28 10 28 -5 0 -13 -7 -16
    -16z"/>
    <path d="M2388 3110 c-145 -26 -236 -108 -333 -302 -36 -73 -89 -163 -116
    -201 -65 -89 -100 -162 -138 -281 -60 -194 -61 -350 -3 -493 62 -153 116 -194
    409 -312 127 -51 318 -160 413 -236 69 -55 138 -89 213 -106 l59 -13 -7 -40
    c-3 -23 -9 -60 -12 -82 l-5 -42 21 -21 c23 -23 63 -36 86 -27 28 11 53 69 66
    155 8 52 19 90 28 97 l14 11 3 309 c2 309 6 359 49 629 9 55 23 131 31 168 21
    100 19 271 -5 338 -71 209 -244 365 -474 429 -87 24 -227 34 -299 20z m201
    -46 c148 -55 200 -82 245 -129 111 -113 149 -297 105 -505 -10 -46 -97 -245
    -175 -400 -92 -185 -138 -408 -115 -560 7 -45 23 -113 36 -151 13 -38 20 -69
    17 -69 -38 2 -79 92 -88 188 -4 40 -11 72 -15 72 -14 0 -10 -93 6 -146 8 -27
    15 -50 15 -52 0 -1 -35 22 -77 51 -129 89 -175 112 -418 213 -127 52 -182 137
    -193 297 -2 42 -8 77 -13 77 -10 0 -12 -14 -9 -80 2 -55 22 -117 60 -187 33
    -62 29 -64 -27 -20 -125 100 -169 218 -160 436 7 191 70 380 161 487 41 48 92
    135 143 245 49 103 112 175 191 217 115 62 180 65 311 16z m121 -3 c110 -37
    172 -69 239 -124 106 -89 174 -192 201 -306 14 -60 8 -265 -11 -356 -5 -27
    -21 -124 -35 -215 l-26 -165 -5 -287 -6 -287 -18 9 c-25 14 -105 12 -117 -2
    -6 -7 -16 -41 -23 -76 l-13 -64 -46 7 c-107 16 -131 43 -169 194 -25 101 -27
    216 -6 327 26 134 34 156 162 423 110 231 125 277 130 426 11 276 -74 403
    -337 506 -73 29 -13 21 80 -10z m314 -1741 c32 -12 35 -33 4 -25 l-23 6 -18
    -41 c-20 -47 -16 -60 19 -60 16 0 24 -6 24 -17 -1 -40 -31 -187 -41 -200 -16
    -18 -56 -16 -63 3 -8 20 30 280 47 316 13 31 15 32 51 18z m-94 -141 c-23
    -156 -29 -183 -36 -176 -3 3 4 65 15 139 25 156 30 182 37 176 2 -3 -5 -66
    -16 -139z m108 69 c-2 -15 -11 -24 -25 -26 -25 -4 -31 16 -11 36 20 20 40 14
    36 -10z m29 -20 c-3 -7 -5 -2 -5 12 0 14 2 19 5 13 2 -7 2 -19 0 -25z"/>
    <path d="M2949 1063 c-14 -36 -8 -58 16 -58 20 0 37 44 27 73 -7 21 -32 13
    -43 -15z m31 -12 c0 -11 -4 -23 -10 -26 -6 -4 -10 5 -10 19 0 14 5 26 10 26 6
    0 10 -9 10 -19z"/>
    <path d="M1000 2916 l0 -35 27 2 c30 2 40 -17 23 -43 l-9 -15 -21 13 c-27 16
    -35 15 -20 -3 16 -19 54 -19 70 -1 21 26 8 60 -27 71 -41 12 -43 25 -3 25 17
    0 30 5 30 10 0 6 -16 10 -35 10 l-35 0 0 -34z"/>
    <path d="M1106 2928 l-16 -22 14 -21 c8 -11 24 -20 35 -19 30 1 23 -28 -9 -37
    l-25 -7 26 -1 c35 -1 49 16 49 64 0 64 -42 88 -74 43z m57 -10 c7 -21 -4 -38
    -23 -38 -23 0 -34 16 -26 35 7 18 43 20 49 3z"/>
    <path d="M1502 2357 c-43 -46 -21 -122 33 -115 l30 3 0 35 0 35 -34 5 -35 5
    18 18 c10 10 25 16 33 13 9 -4 13 -1 11 6 -8 22 -33 20 -56 -5z m51 -59 c7
    -21 -4 -38 -23 -38 -23 0 -34 16 -26 35 7 18 43 20 49 3z"/>
    <path d="M1610 2360 c-23 -23 -28 -88 -8 -108 31 -31 82 -3 76 40 -2 18 -10
    24 -35 26 -18 2 -33 7 -33 11 0 16 27 31 44 25 9 -3 16 -2 16 4 0 8 -22 22
    -36 22 -2 0 -13 -9 -24 -20z m50 -75 c0 -18 -5 -25 -19 -25 -23 0 -35 15 -27
    35 10 26 46 18 46 -10z"/>
    <path d="M9002 1598 c-19 -19 -14 -33 6 -15 47 43 58 -4 12 -48 -42 -40 -39
    -55 10 -55 22 0 40 5 40 10 0 6 -15 10 -32 10 l-33 1 33 27 c25 21 33 35 30
    53 -3 27 -44 39 -66 17z"/>
    <path d="M9099 1586 c-15 -33 1 -54 44 -58 l31 -3 -18 -18 c-12 -12 -26 -15
    -40 -11 -16 5 -18 3 -10 -6 37 -38 94 25 77 84 l-9 31 -32 3 -32 3 -11 -25z
    m65 -3 c4 -9 0 -23 -9 -32 l-15 -15 -15 15 c-19 19 -10 49 15 49 10 0 21 -8
    24 -17z"/>
    <path d="M1065 1580 c-398 -27 -583 -222 -506 -531 28 -110 76 -236 106 -275
    13 -17 27 -43 30 -57 11 -41 50 -73 185 -154 170 -101 289 -158 390 -184 l85
    -23 130 0 c179 1 348 37 670 143 33 11 127 38 208 61 144 40 289 92 315 112 6
    6 12 19 12 30 0 10 7 30 16 44 22 33 33 337 15 383 l-13 29 -191 100 c-232
    121 -368 180 -507 220 -148 43 -184 49 -470 91 -96 14 -350 20 -475 11z m575
    -44 c91 -13 277 -47 323 -59 5 -1 -101 -2 -235 -3 -318 0 -381 -8 -718 -93
    -231 -58 -336 -114 -385 -205 -24 -45 -36 -42 -54 14 l-14 44 12 44 c38 145
    181 239 411 273 90 13 531 3 660 -15z m511 -126 c114 -43 524 -248 514 -258
    -3 -3 -112 -6 -242 -8 -340 -3 -510 -29 -842 -130 -192 -58 -280 -112 -327
    -199 l-19 -37 -60 7 c-33 4 -73 9 -90 12 -22 4 -27 3 -19 -6 6 -6 40 -15 77
    -19 81 -10 83 -12 69 -61 -15 -48 -15 -115 -1 -181 6 -28 8 -54 5 -57 -17 -17
    -363 167 -479 255 -38 29 -57 54 -87 118 -42 86 -90 239 -90 282 l0 26 23 -32
    c29 -38 70 -72 89 -72 7 1 -4 15 -24 33 l-38 32 16 30 c66 129 228 197 669
    280 180 34 178 33 476 30 l266 -3 114 -42z m133 -289 c3 -4 -21 -11 -54 -14
    -184 -20 -424 -100 -613 -204 -118 -66 -236 -110 -314 -119 l-56 -7 19 33 c46
    79 152 141 319 185 52 14 106 30 118 35 72 31 339 81 497 93 25 2 53 4 62 5 9
    1 19 -2 22 -7z m424 -177 l-3 -185 -20 -12 c-54 -31 -319 -123 -600 -208 -71
    -22 -166 -51 -210 -64 -193 -59 -412 -75 -556 -42 l-77 18 -7 35 c-8 46 -8
    212 0 246 l7 26 51 7 c88 11 176 44 347 130 310 157 592 223 998 233 l74 2 -4
    -186z m-1631 -437 c172 -86 289 -112 466 -104 136 6 287 34 422 79 50 16 169
    53 265 83 166 51 321 104 402 139 39 17 55 9 35 -16 -13 -17 -288 -110 -450
    -153 -54 -14 -159 -46 -233 -71 -74 -24 -195 -55 -270 -69 -322 -59 -505 -17
    -842 194 -198 124 -217 163 -23 46 77 -46 179 -104 228 -128z"/>
    <path d="M5962 1578 c-7 -7 -12 -16 -12 -21 0 -15 54 -62 105 -91 102 -58 283
    -161 400 -226 66 -36 143 -80 170 -96 110 -66 263 -144 283 -144 12 0 38 -11
    58 -25 20 -14 47 -25 60 -25 l24 0 0 28 c0 22 -8 33 -39 50 -21 12 -46 22 -55
    22 -9 0 -16 7 -16 15 0 17 -64 60 -190 127 -98 53 -342 189 -545 305 -143 82
    -217 107 -243 81z m38 -22 c0 -11 -19 -15 -25 -6 -3 5 1 10 9 10 9 0 16 -2 16
    -4z m50 -2 c0 -13 -21 -44 -30 -44 -14 0 -12 24 2 38 13 13 28 16 28 6z m28
    -39 c-13 -29 -28 -33 -28 -7 0 22 8 32 26 32 11 0 11 -5 2 -25z m107 -23 c28
    -16 93 -53 145 -83 52 -31 158 -91 235 -134 77 -43 172 -97 211 -120 l72 -41
    -14 -18 c-7 -11 -15 -23 -16 -28 -3 -9 -88 35 -203 105 -33 20 -64 37 -69 37
    -4 0 -49 24 -100 54 -50 30 -149 86 -221 126 -152 84 -149 82 -140 109 9 29
    40 27 100 -7z m705 -401 c0 -6 -4 -13 -10 -16 -5 -3 -10 -15 -10 -26 0 -10 -4
    -19 -9 -19 -16 0 -23 40 -11 55 14 17 40 20 40 6z m26 -26 c-3 -8 3 -19 12
    -25 l17 -11 -22 4 c-13 3 -23 0 -23 -6 0 -8 -3 -8 -11 0 -8 8 -8 17 0 32 13
    24 36 29 27 6z m88 -51 c21 -8 20 -21 -3 -27 -22 -5 -54 11 -46 24 7 10 26 12
    49 3z m29 -41 c-7 -2 -19 -2 -25 0 -7 3 -2 5 12 5 14 0 19 -2 13 -5z"/>
    <path d="M4820 1461 c0 -6 5 -13 10 -16 14 -9 13 -78 -2 -93 -9 -9 -4 -12 23
    -12 l34 1 -17 10 c-14 8 -18 23 -18 64 0 42 -4 55 -15 55 -8 0 -15 -4 -15 -9z"/>
    <path d="M4921 1456 c-16 -19 -17 -82 -1 -101 29 -35 90 -2 74 40 -8 19 -41
    38 -54 30 -6 -3 -10 0 -10 8 0 16 27 30 41 21 5 -3 9 0 9 5 0 16 -46 13 -59
    -3z m48 -59 c8 -10 7 -18 -3 -32 -15 -21 -36 -13 -36 14 0 31 20 40 39 18z"/>
    <path d="M5024 1459 c-5 -9 0 -10 18 -6 34 9 45 -17 17 -37 l-21 -14 21 -7
    c12 -3 21 -13 21 -21 0 -20 -27 -29 -45 -14 -17 14 -31 8 -20 -9 9 -16 61 -13
    75 4 7 8 9 22 5 32 -4 10 -8 32 -9 48 l-1 30 -27 3 c-14 2 -29 -2 -34 -9z"/>
    <path d="M5214 1447 c-78 -67 -6 -237 77 -179 18 12 49 68 49 87 0 18 -18 -1
    -29 -31 -7 -19 -23 -40 -37 -46 l-24 -11 -25 23 c-34 32 -36 109 -3 140 31 28
    53 25 82 -12 17 -22 26 -27 26 -17 0 23 -46 69 -69 69 -11 0 -32 -10 -47 -23z"/>
    <path d="M5350 1312 c0 -11 150 -95 157 -88 8 8 11 6 -73 55 -72 42 -84 47
    -84 33z"/>
    <path d="M5560 1217 c-58 -30 -64 -104 -10 -132 55 -28 108 -18 163 33 33 32
    34 56 2 87 l-24 25 -53 0 c-29 0 -64 -6 -78 -13z m143 -29 c23 -27 22 -34 -8
    -63 -34 -35 -98 -35 -121 0 -25 39 -7 68 56 88 23 8 53 -3 73 -25z m-159 -27
    c-5 -21 -1 -34 15 -50 23 -23 16 -28 -10 -8 -22 17 -28 38 -18 65 12 31 20 27
    13 -7z"/>
    <path d="M5637 1193 c-12 -11 -8 -23 8 -23 8 0 15 7 15 15 0 16 -12 20 -23 8z"/>
    <path d="M5630 1131 c0 -12 5 -21 10 -21 6 0 10 6 10 14 0 8 -4 18 -10 21 -5
    3 -10 -3 -10 -14z"/>
    <path d="M4810 1145 l-13 -16 50 -47 c28 -26 86 -65 130 -86 43 -22 112 -59
    154 -82 42 -23 114 -63 160 -87 194 -103 338 -181 390 -213 31 -19 62 -34 68
    -34 6 0 11 -7 11 -15 0 -28 58 -53 120 -53 70 0 88 20 46 51 -15 10 -26 25
    -26 33 0 17 -57 54 -83 54 -10 0 -23 5 -30 11 -13 11 -54 35 -262 147 -294
    159 -336 182 -464 252 -74 40 -150 76 -170 80 -20 4 -43 11 -52 14 -9 4 -21 0
    -29 -9z m40 -25 c0 -5 -4 -10 -9 -10 -6 0 -13 5 -16 10 -3 6 1 10 9 10 9 0 16
    -4 16 -10z m50 -6 c0 -14 -22 -44 -30 -39 -13 8 0 45 16 45 8 0 14 -3 14 -6z
    m34 -40 c-9 -13 -20 -21 -25 -18 -22 13 2 57 27 47 l13 -5 -15 -24z m125 -33
    c104 -58 305 -169 381 -209 161 -84 250 -134 250 -140 0 -4 -7 -15 -15 -26
    l-14 -18 -88 47 c-48 26 -92 51 -98 55 -5 4 -57 32 -115 63 -437 229 -441 232
    -408 265 16 16 9 18 107 -37z m677 -376 c2 -5 -3 -19 -11 -30 l-15 -19 -17 16
    -16 17 13 16 c14 17 41 17 46 0z m37 -34 c-7 -26 -33 -36 -33 -13 0 20 19 44
    31 37 4 -3 5 -14 2 -24z m57 -7 c0 -3 -7 -12 -15 -20 -8 -9 -15 -24 -15 -35 0
    -23 -16 -25 -24 -3 -8 21 19 64 39 64 8 0 15 -3 15 -6z m40 -22 c0 -4 -9 -13
    -21 -20 -14 -9 -19 -20 -16 -33 3 -13 1 -19 -6 -16 -19 6 -20 37 -1 58 17 19
    44 26 44 11z m48 -56 l13 -13 -29 2 c-33 2 -52 12 -52 27 0 13 50 1 68 -16z"/>
    <path d="M5717 1103 c-4 -3 14 -18 40 -33 l46 -27 -1 -179 c-1 -121 2 -170 8
    -150 9 27 16 334 8 340 -22 19 -96 54 -101 49z"/>
    <path d="M6200 1080 c-12 -8 -12 -10 -1 -10 10 0 12 -14 9 -60 l-4 -60 23 0
    c13 0 23 5 23 10 0 6 -4 10 -10 10 -6 0 -10 27 -10 60 0 61 -4 67 -30 50z"/>
    <path d="M6308 1041 c-29 -51 -28 -61 8 -61 13 0 24 -7 26 -17 l4 -18 11 20
    c12 23 3 117 -12 122 -5 1 -22 -19 -37 -46z m23 -34 c-18 -18 -23 -1 -9 29
    l13 28 3 -23 c2 -13 -1 -28 -7 -34z"/>
    <path d="M6408 1079 c-38 -21 -15 -79 30 -79 l24 0 -12 -15 c-7 -8 -21 -15
    -32 -15 -10 0 -16 -4 -13 -10 20 -33 75 14 75 64 0 53 -33 78 -72 55z m50 -32
    c4 -22 -24 -33 -43 -17 -12 10 -13 16 -4 27 16 18 43 13 47 -10z"/>
    <path d="M5465 1021 c-3 -5 -1 -12 5 -16 13 -8 13 -95 0 -95 -5 0 -10 -4 -10
    -9 0 -5 11 -8 25 -7 17 1 23 6 20 14 -3 8 -5 38 -5 68 0 40 -4 54 -14 54 -8 0
    -17 -4 -21 -9z"/>
    <path d="M5567 1023 c-4 -3 -7 -22 -7 -41 l0 -34 15 12 c20 17 45 5 45 -20 0
    -26 -25 -36 -45 -20 -9 7 -19 10 -23 6 -8 -8 25 -36 43 -36 7 0 20 9 30 20 25
    28 13 70 -20 70 -16 0 -25 6 -25 15 0 9 9 15 25 15 14 0 25 5 25 10 0 11 -53
    14 -63 3z"/>
    <path d="M5660 1020 c0 -5 11 -10 25 -10 30 0 31 -5 5 -64 -10 -25 -15 -48
    -11 -50 11 -7 65 109 57 123 -9 14 -76 15 -76 1z"/>
    <path d="M7606 995 c-38 -35 -33 -92 9 -115 l24 -13 3 -76 3 -76 28 -3 c45 -5
    57 12 57 86 l0 65 25 23 c35 32 34 85 -1 113 -39 31 -113 29 -148 -4z m34 -30
    c-7 -8 3 -12 35 -12 24 0 42 4 39 9 -3 4 0 8 5 8 6 0 11 4 11 9 0 4 -11 6 -24
    4 -13 -3 -32 0 -43 6 l-18 10 38 1 c79 0 104 -41 37 -61 -21 -7 -37 -15 -35
    -20 3 -4 20 -3 37 2 38 11 50 3 24 -17 -26 -18 -107 -18 -132 1 l-19 15 15 11
    c11 8 12 12 3 16 -19 7 -16 30 4 42 21 11 37 -7 23 -24z m70 -105 c0 -5 -14
    -10 -31 -10 -17 0 -28 4 -24 10 3 6 17 10 31 10 13 0 24 -4 24 -10z m5 -40
    c-3 -5 -19 -10 -36 -10 -16 0 -29 5 -29 10 0 6 16 10 36 10 21 0 33 -4 29 -10z
    m-10 -47 c-24 -17 -49 -13 -53 8 -2 12 5 14 34 11 l38 -5 -19 -14z m5 -33 c0
    -15 -34 -21 -46 -8 l-13 13 29 1 c17 1 30 -2 30 -6z"/>
    <path d="M7860 965 c-7 -9 -9 -19 -5 -23 4 -4 10 -1 12 6 6 17 43 15 43 -2 0
    -8 -14 -28 -31 -44 -42 -39 -36 -59 16 -51 l40 6 -32 2 c-41 1 -42 13 -3 41
    17 12 30 29 30 39 0 38 -46 55 -70 26z"/>
    <path d="M7966 958 c-34 -48 -10 -112 40 -106 22 2 30 10 36 36 18 67 -41 121
    -76 70z m58 -14 c10 -27 7 -61 -9 -74 -22 -19 -35 -3 -35 46 l0 44 19 0 c10 0
    22 -7 25 -16z"/>
    <path d="M8072 968 c-27 -27 6 -86 42 -72 9 3 16 2 16 -3 0 -16 -23 -33 -44
    -33 -16 0 -18 -2 -7 -9 34 -22 71 16 71 71 0 49 -47 77 -78 46z m57 -22 c9
    -10 8 -16 -4 -26 -20 -16 -45 -6 -45 20 0 23 31 28 49 6z"/>
    <path d="M6630 851 c-41 -15 -79 -29 -85 -33 -5 -3 -35 -13 -66 -22 -31 -9
    -69 -23 -85 -31 -16 -8 -37 -15 -46 -15 -9 0 -19 -3 -22 -8 -2 -4 -36 -16 -75
    -27 -86 -23 -93 -37 -57 -108 l26 -52 -32 37 -33 37 -34 -17 c-60 -30 -70 -82
    -16 -82 15 0 24 4 20 10 -3 6 -13 10 -21 10 -27 0 -14 28 18 39 l32 11 23 -25
    c13 -14 27 -25 32 -25 14 0 115 31 146 45 17 7 59 23 95 36 36 12 70 25 75 29
    6 4 37 15 70 25 33 10 65 21 70 26 6 4 33 13 60 20 57 14 65 22 65 66 l0 32
    40 12 c46 14 60 7 42 -22 l-13 -21 18 4 c23 4 24 47 2 61 -23 15 -110 -18
    -102 -39 3 -8 2 -26 -2 -42 l-8 -27 -8 44 c-8 40 -34 83 -48 80 -3 -1 -40 -14
    -81 -28z m100 -10 c12 -24 13 -91 1 -91 -5 0 -11 17 -13 38 -3 20 -8 45 -12
    55 -11 24 11 22 24 -2z m-40 -10 c12 -24 13 -91 1 -91 -5 0 -11 17 -13 38 -3
    20 -8 45 -12 55 -11 24 11 22 24 -2z m-25 -51 c4 -22 3 -45 -1 -52 -6 -9 -11
    -1 -15 22 -3 19 -10 49 -14 65 l-8 30 16 -13 c8 -7 18 -31 22 -52z m-35 1 c10
    -38 6 -71 -10 -71 -4 0 -10 17 -12 38 -3 20 -8 45 -12 55 -6 12 -4 17 8 17 9
    0 19 -15 26 -39z m-33 -40 c7 -49 -12 -57 -20 -8 -3 17 -8 43 -12 57 l-8 25
    17 -16 c10 -9 20 -35 23 -58z m-48 28 c13 -38 14 -76 2 -83 -5 -3 -11 11 -14
    32 -3 20 -9 47 -13 60 -10 35 13 26 25 -9z m-39 -8 c13 -25 13 -91 0 -91 -5 0
    -7 6 -4 13 3 8 -1 33 -9 55 -15 43 -6 58 13 23z m-26 -24 c9 -33 7 -77 -3 -77
    -5 0 -11 15 -14 33 -3 17 -8 42 -12 55 -6 17 -4 21 8 16 8 -3 18 -15 21 -27z
    m-46 1 c14 -14 16 -88 2 -88 -5 0 -10 14 -10 31 0 17 -5 39 -10 50 -12 21 -1
    26 18 7z m-28 -37 c10 -38 6 -71 -10 -71 -4 0 -10 17 -12 38 -3 20 -8 45 -12
    55 -6 12 -4 17 8 17 9 0 19 -15 26 -39z m-39 -10 c6 -22 8 -48 4 -58 -5 -14
    -10 -6 -21 32 -16 61 -16 65 -4 65 5 0 14 -18 21 -39z m-41 10 c12 -24 13 -88
    1 -95 -5 -3 -11 13 -13 37 -3 23 -8 50 -12 60 -11 24 11 22 24 -2z m-32 -26
    c15 -32 15 -62 2 -70 -5 -3 -10 3 -10 15 0 12 -7 34 -15 50 l-16 30 14 0 c8 0
    19 -11 25 -25z m-39 -16 c6 -18 11 -40 11 -50 0 -32 -17 -21 -23 14 -3 17 -8
    40 -12 50 -4 9 -3 17 3 17 6 0 15 -14 21 -31z m-33 -3 c3 -13 4 -35 2 -47 l-4
    -24 -17 32 c-9 18 -17 39 -17 48 0 24 29 17 36 -9z"/>
    <path d="M8390 810 c-36 -12 -258 -76 -440 -125 -85 -23 -156 -47 -158 -54 -2
    -6 2 -11 10 -12 7 0 -9 -9 -37 -20 -37 -16 -62 -19 -97 -15 -79 11 -176 -23
    -134 -46 9 -5 16 -20 16 -32 0 -14 10 -30 25 -40 l25 -16 87 29 c98 34 385
    117 658 193 99 27 191 54 205 59 l24 11 -24 18 c-14 11 -32 17 -40 15 -9 -3
    -19 4 -25 18 -11 24 -52 32 -95 17z m60 -9 c0 -4 -28 -16 -62 -26 -35 -9 -112
    -32 -173 -50 -129 -39 -367 -105 -378 -105 -4 0 -7 4 -7 8 0 5 33 16 73 27 70
    17 300 82 462 130 44 13 81 24 83 24 1 1 2 -3 2 -8z m25 -30 c-10 -10 -188
    -64 -317 -97 -53 -13 -68 -21 -68 -35 0 -21 -20 -25 -37 -8 -16 16 -50 2 -56
    -23 l-6 -22 -20 18 -19 18 -21 -12 c-12 -6 -21 -17 -21 -25 0 -18 -12 -19 -27
    -4 -8 8 -42 2 -122 -20 -61 -17 -117 -31 -126 -31 -8 0 -24 -9 -35 -20 -25
    -25 -30 -25 -30 0 0 11 2 20 4 20 12 0 800 221 856 240 35 12 56 12 45 1z m52
    -28 c-13 -12 -249 -73 -260 -66 -6 3 50 23 124 43 126 35 152 40 136 23z
    m-283 -72 c6 -9 -123 -45 -132 -36 -8 8 -2 10 58 28 68 19 68 19 74 8z m-204
    -61 c0 -5 -4 -10 -10 -10 -5 0 -10 5 -10 10 0 6 5 10 10 10 6 0 10 -4 10 -10z
    m-91 -31 c-7 -4 -17 -5 -22 -2 -5 3 -3 9 4 14 7 4 17 5 22 2 5 -3 3 -9 -4 -14z
    m-314 -18 c-36 -14 -85 -21 -85 -11 0 10 30 17 75 18 l30 1 -20 -8z m245 1 c0
    -10 -83 -32 -118 -31 -21 1 -14 5 28 19 60 20 90 24 90 12z m-150 -41 c0 -5
    -12 -11 -27 -15 -16 -3 -38 -8 -50 -12 -14 -4 -23 -2 -23 5 0 6 15 15 33 20
    42 12 67 13 67 2z"/>
    <path d="M5070 680 c-10 -6 -11 -10 -2 -10 15 0 17 -86 2 -95 -18 -11 -10 -25
    15 -25 14 0 25 5 25 10 0 6 -4 10 -10 10 -5 0 -10 27 -12 60 l-3 59 -15 -9z"/>
    <path d="M5171 643 c-32 -52 -32 -63 4 -63 14 0 25 -7 27 -17 l4 -18 11 20
    c12 22 5 125 -8 125 -5 0 -22 -21 -38 -47z m20 -36 c-17 -17 -24 -1 -10 25
    l13 23 4 -19 c2 -10 -1 -23 -7 -29z"/>
    <path d="M5280 680 c-10 -7 -11 -10 -2 -10 15 0 17 -86 2 -95 -18 -11 -11 -25
    13 -25 l23 0 -4 63 c-5 69 -10 81 -32 67z"/>
    <path d="M6565 540 c-3 -5 -1 -10 5 -10 8 0 11 -18 8 -55 l-3 -55 25 1 c14 0
    19 3 13 6 -9 3 -13 26 -13 64 0 45 -3 59 -14 59 -8 0 -18 -4 -21 -10z"/>
    <path d="M6666 528 c-20 -28 -21 -82 -2 -97 8 -7 27 -11 43 -9 l28 3 0 35 0
    35 -32 3 c-18 2 -33 7 -33 11 0 16 27 31 44 25 9 -3 16 -1 16 5 0 20 -48 12
    -64 -11z m52 -74 c-4 -25 -36 -30 -45 -8 -4 11 1 22 12 30 22 16 39 5 33 -22z"/>
    <path d="M6785 510 c-31 -50 -31 -60 0 -60 16 0 25 -6 25 -15 0 -21 17 -19 22
    3 7 27 -3 112 -13 112 -5 0 -20 -18 -34 -40z m25 -20 c0 -21 -4 -28 -14 -24
    -12 5 -13 11 -4 30 15 31 18 30 18 -6z"/>
    <path d="M8248 444 c3 -41 1 -59 -9 -65 -10 -6 -3 -8 21 -8 19 0 29 3 23 6 -9
    3 -13 26 -13 64 0 42 -4 59 -13 59 -10 0 -13 -14 -9 -56z"/>
    <path d="M8330 485 c-27 -33 1 -72 48 -66 6 1 12 -2 12 -7 0 -15 -28 -34 -39
    -28 -5 4 -12 2 -16 -4 -9 -15 38 -12 60 4 22 16 26 76 6 100 -17 20 -55 21
    -71 1z m60 -25 c0 -24 -26 -38 -42 -22 -16 16 -2 42 22 42 13 0 20 -7 20 -20z"/>
    <path d="M8440 485 c-15 -19 -5 -34 12 -17 7 7 18 12 25 12 23 0 14 -35 -17
    -62 -40 -35 -38 -48 10 -48 22 0 40 5 40 10 0 6 -14 10 -32 10 l-32 0 33 28
    c24 20 32 34 30 52 -5 30 -48 40 -69 15z"/>
    <path d="M7628 444 c-29 -15 -32 -22 -28 -64 3 -35 17 -48 57 -56 95 -18 170
    59 113 116 -24 24 -101 27 -142 4z m35 -11 c-37 -14 10 -60 48 -48 16 5 20 13
    16 31 -5 28 29 35 40 8 17 -44 -105 -71 -144 -31 l-18 18 19 15 c11 8 27 14
    35 13 11 0 12 -2 4 -6z m52 -23 c-3 -5 -15 -10 -26 -10 -10 0 -19 5 -19 10 0
    6 12 10 26 10 14 0 23 -4 19 -10z m45 -45 c-13 -16 -124 -22 -133 -7 -3 4 19
    5 48 4 30 -2 62 1 72 7 25 14 28 14 13 -4z"/>
    <path d="M7253 379 c-13 -5 -23 -13 -23 -19 0 -13 13 -13 28 2 8 8 15 8 27 -2
    l15 -13 -40 -43 c-22 -24 -40 -46 -40 -49 0 -3 21 -5 46 -5 27 0 43 4 39 10
    -3 6 -18 10 -33 10 l-27 0 33 26 c53 42 34 105 -25 83z"/>
    <path d="M7350 369 c0 -5 5 -7 10 -4 6 4 10 -13 10 -44 0 -28 -4 -51 -10 -51
    -5 0 -10 -4 -10 -10 0 -5 14 -10 32 -10 25 0 29 3 20 12 -7 7 -12 36 -12 65
    l0 53 -20 0 c-11 0 -20 -5 -20 -11z"/>
    <path d="M7460 370 c0 -5 5 -10 10 -10 6 0 10 -20 10 -45 0 -25 -4 -45 -10
    -45 -5 0 -10 -4 -10 -10 0 -5 11 -10 25 -10 14 0 25 5 25 10 0 6 -4 10 -10 10
    -5 0 -10 25 -10 55 0 42 -3 55 -15 55 -8 0 -15 -4 -15 -10z"/>
    <path d="M7650 284 c-43 -18 -50 -29 -50 -76 0 -56 29 -78 101 -78 l58 0 21
    28 c17 21 21 36 17 67 -10 69 -68 93 -147 59z m120 -20 l13 -15 -16 -16 c-37
    -37 -166 -21 -142 17 19 31 124 41 145 14z m10 -69 c0 -14 -4 -25 -10 -25 -11
    0 -14 33 -3 43 11 11 13 8 13 -18z m-140 -21 c0 -8 -4 -12 -10 -9 -5 3 -10 13
    -10 21 0 8 5 12 10 9 6 -3 10 -13 10 -21z m108 -5 c2 -12 -7 -19 -34 -23 -40
    -8 -60 3 -50 29 8 22 80 17 84 -6z"/>
    <path d="M7653 247 c5 -16 79 -16 85 1 3 9 -2 10 -20 3 -13 -5 -33 -5 -46 0
    -17 7 -23 6 -19 -4z"/>
    <path d="M1137 233 c-4 -3 -7 -19 -7 -34 l0 -28 30 6 30 6 0 -27 c0 -31 -24
    -44 -47 -25 l-16 14 5 -15 c2 -8 19 -16 36 -18 l32 -3 12 25 11 26 -18 20
    c-10 11 -26 20 -37 20 -10 0 -18 5 -18 10 0 6 11 10 25 10 14 0 25 5 25 10 0
    11 -53 14 -63 3z"/>
    <path d="M1235 230 c3 -5 17 -10 31 -10 29 0 29 3 4 -56 -11 -26 -18 -49 -15
    -52 7 -7 8 -5 33 55 29 69 28 73 -19 73 -24 0 -38 -4 -34 -10z"/>
    <path d="M7283 213 c-7 -2 -13 -12 -13 -21 0 -12 3 -13 12 -4 16 16 48 15 48
    -1 0 -7 -16 -28 -35 -47 -46 -44 -44 -50 13 -48 36 1 39 2 15 5 -39 5 -42 17
    -8 39 58 38 31 103 -32 77z"/>
    <path d="M7395 155 l0 -65 30 0 c17 0 25 3 18 8 -6 4 -13 32 -15 62 -2 39 -7
    56 -18 58 l-15 3 0 -66z"/>
    <path d="M7487 213 c-15 -15 -5 -22 23 -16 35 7 40 -9 10 -30 l-21 -14 21 -6
    c14 -4 20 -12 18 -24 -4 -19 -19 -21 -53 -7 l-20 8 14 -18 c9 -11 25 -16 45
    -14 l31 3 1 50 c1 28 -3 56 -9 63 -10 13 -49 17 -60 5z"/>
    </g>
  </g>
  <g id="labels" font-family="Helvetica, Arial, sans-serif" fill="#111" font-size="14"></g>
</svg>
