<svg xmlns="http://www.w3.org/2000/svg" width="960" height="640" viewBox="0 0 960 640" role="img" aria-labelledby="title desc">
  <title id="title">Mercedes parts diagram: group-015</title>
  <desc id="desc">Mercedes parts diagram: group-015</desc>
  <g id="art">
    <metadata>
    Created by potrace 1.16, written by Peter Selinger 2001-2019
    </metadata>
    <g transform="translate(0.000000,640.000000) scale(0.100000,-0.100000)"
    fill="#000000" stroke="none">
    <path d="M5192 6188 c-7 -7 -12 -20 -12 -30 l0 -19 -30 16 c-59 30 -74 16 -83
    -78 l-6 -57 22 -14 c12 -7 43 -22 69 -32 l48 -19 0 -47 0 -48 -34 -14 c-58
    -24 -78 -69 -91 -198 l-7 -68 -23 0 c-34 0 -41 -31 -12 -56 l24 -20 5 -80 c7
    -93 35 -159 92 -213 l36 -35 2 -90 1 -91 7 95 c4 52 8 151 9 220 l1 125 63 12
    c34 7 72 10 84 7 22 -6 376 59 424 77 l25 10 62 -31 c34 -17 75 -33 91 -36
    l29 -6 7 21 c8 27 14 27 88 -10 101 -51 252 -159 299 -214 10 -11 29 -49 44
    -85 l27 -65 1 -155 c1 -201 -9 -283 -38 -317 l-22 -26 -55 13 c-30 7 -148 44
    -264 82 -308 102 -600 250 -778 395 -37 31 -69 54 -72 52 -22 -22 236 -196
    447 -302 186 -93 326 -145 624 -232 87 -26 159 -13 183 33 16 31 31 169 31
    296 0 275 -41 345 -293 509 -115 74 -141 87 -169 84 -15 -1 -23 4 -26 18 -2
    11 -9 26 -14 33 -12 14 -95 16 -153 2 l-40 -9 -61 34 c-76 43 -89 57 -75 84
    20 36 14 51 -21 51 -18 0 -45 6 -59 14 -39 20 -142 52 -245 75 -103 24 -124
    25 -124 11 0 -5 15 -10 33 -10 39 0 178 -34 222 -54 17 -8 49 -20 73 -27 34
    -10 40 -14 27 -21 -11 -7 -38 -1 -83 16 -125 46 -279 86 -268 68 3 -6 25 -13
    49 -17 23 -4 47 -10 52 -14 6 -4 54 -20 108 -36 l99 -28 -99 -27 c-54 -15
    -122 -33 -152 -41 -30 -8 -56 -20 -58 -26 -3 -9 8 -9 44 3 123 38 379 104 391
    99 10 -4 9 -11 -3 -36 -10 -19 -22 -29 -31 -25 -15 6 -44 -2 -44 -13 0 -3 32
    -26 71 -51 l71 -45 -160 -31 c-89 -18 -166 -35 -171 -39 -6 -3 -19 -1 -28 4
    l-18 10 18 1 c37 0 14 26 -49 56 l-66 30 114 33 c62 18 149 42 193 54 83 21
    91 24 84 32 -5 4 -206 -46 -341 -85 -89 -26 -89 -34 -3 -71 30 -13 55 -27 55
    -30 0 -3 -36 -15 -79 -27 l-80 -21 -70 37 -71 37 47 12 c66 15 96 16 90 1 -2
    -7 -15 -11 -28 -10 -28 4 -20 -5 34 -37 20 -13 37 -18 37 -12 0 5 -7 14 -16
    19 l-15 8 -2 210 -2 209 60 20 60 20 3 44 c5 69 -4 89 -56 121 -52 33 -63 35
    -80 18z m55 -26 c23 -12 30 -21 24 -30 l-8 -14 -32 16 c-17 9 -31 23 -31 31 0
    19 7 18 47 -3z m-92 -29 c23 -11 34 -22 31 -32 -3 -9 -8 -35 -11 -58 -8 -53
    -11 -55 -57 -36 l-38 15 0 27 c0 52 13 101 26 101 7 0 29 -8 49 -17z m158 -58
    c8 -53 0 -63 -64 -80 -65 -18 -69 -18 -69 -5 0 6 11 10 24 10 45 0 40 37 -7
    53 -5 1 -7 13 -2 26 4 14 12 20 21 17 8 -3 14 1 14 10 l0 15 21 -12 22 -11 10
    17 c12 23 23 9 30 -40z m-93 -49 c0 -11 -19 -15 -25 -6 -3 5 1 10 9 10 9 0 16
    -2 16 -4z m-22 -288 l3 -86 -46 -31 c-66 -45 -69 -43 -61 46 8 81 16 104 49
    141 39 42 52 26 55 -70z m517 -105 c63 -37 79 -53 51 -53 -13 0 -136 77 -136
    86 0 11 27 1 85 -33z m287 -69 l16 -35 -16 3 c-10 2 -18 13 -20 26 -2 12 -9
    22 -17 22 -21 0 -270 -49 -395 -77 -116 -27 -235 -36 -235 -19 0 6 16 9 35 7
    20 -1 81 8 135 20 230 50 422 88 450 88 l31 1 16 -36z m-32 -20 c0 -11 -6 -14
    -22 -9 -39 12 -44 25 -10 25 22 0 32 -5 32 -16z m-840 -34 c41 -21 69 -39 63
    -40 -14 0 -153 69 -153 76 0 9 17 2 90 -36z m797 18 c29 -13 53 -29 53 -35 0
    -7 -2 -13 -4 -13 -10 0 -136 60 -136 65 0 11 38 4 87 -17z m186 -19 c23 -12
    80 -48 127 -80 198 -136 238 -193 250 -362 11 -161 -12 -439 -34 -416 -2 2 0
    42 5 89 23 208 8 404 -36 490 -32 61 -148 156 -290 237 -78 45 -100 63 -75 63
    6 0 30 -10 53 -21z m-803 -23 c0 -17 -22 -26 -66 -26 -47 0 -43 15 9 27 58 15
    57 15 57 -1z m-162 -18 c36 -15 51 -26 47 -36 -3 -7 -5 -64 -5 -125 l-1 -112
    -39 43 c-52 58 -75 129 -71 225 1 33 2 33 69 5z"/>
    <path d="M5230 6062 c0 -8 43 -32 55 -32 15 0 1 19 -20 28 -31 14 -35 15 -35
    4z"/>
    <path d="M4740 6130 c0 -5 5 -10 10 -10 14 0 12 -84 -2 -98 -9 -9 -5 -12 18
    -11 16 0 23 3 17 6 -9 3 -13 26 -13 64 0 46 -3 59 -15 59 -8 0 -15 -4 -15 -10z"/>
    <path d="M4830 6125 c-18 -21 -5 -31 15 -11 21 20 34 20 42 0 4 -10 -7 -28
    -31 -51 -47 -46 -46 -53 12 -51 36 1 39 2 15 5 -41 5 -41 9 -1 50 l33 34 -11
    17 c-15 23 -57 27 -74 7z"/>
    <path d="M4955 6100 c-31 -50 -31 -60 0 -60 16 0 25 -6 25 -15 0 -21 13 -19
    27 5 8 12 9 21 3 25 -6 3 -10 24 -10 46 0 50 -13 50 -45 -1z m25 -15 c0 -15
    -6 -25 -15 -25 l-15 0 12 25 c6 14 13 25 15 25 1 0 3 -11 3 -25z"/>
    <path d="M5860 5800 c0 -5 5 -10 10 -10 6 0 10 -20 10 -45 0 -25 -4 -45 -10
    -45 -5 0 -10 -4 -10 -10 0 -5 14 -10 32 -10 25 0 29 3 20 12 -7 7 -12 36 -12
    65 l0 53 -20 0 c-11 0 -20 -4 -20 -10z"/>
    <path d="M5960 5800 c0 -5 7 -10 15 -10 11 0 15 -12 15 -45 0 -25 -4 -45 -10
    -45 -5 0 -10 -4 -10 -10 0 -5 11 -10 25 -10 14 0 25 5 25 10 0 6 -4 10 -10 10
    -5 0 -10 25 -10 55 l0 55 -20 0 c-11 0 -20 -4 -20 -10z"/>
    <path d="M6064 5796 c-12 -33 0 -61 29 -64 36 -4 30 -25 -9 -33 l-29 -6 18 -8
    c46 -20 90 38 71 94 -11 31 -70 44 -80 17z m59 -20 c6 -15 -11 -36 -29 -36
    -14 0 -27 28 -18 41 8 14 41 11 47 -5z"/>
    <path d="M5220 5566 c0 -2 16 -13 35 -25 19 -11 35 -16 35 -11 0 5 -13 16 -30
    25 -30 15 -40 18 -40 11z"/>
    <path d="M7782 5357 l5 -64 27 -26 c50 -50 57 -85 61 -286 2 -102 1 -171 -3
    -153 -7 33 -54 68 -74 56 -12 -8 -3 -133 10 -146 5 -5 24 -11 43 -14 l34 -6
    30 32 30 31 -3 181 c-4 199 -18 269 -66 333 -15 19 -26 47 -26 64 0 20 -8 35
    -22 45 -43 30 -51 22 -46 -47z m64 -50 c54 -31 82 -173 83 -418 l1 -96 -21
    -27 c-13 -17 -30 -26 -49 -26 -41 0 -51 18 -32 60 l15 35 6 -35 6 -35 22 22
    22 22 -5 173 c-6 190 -16 237 -66 293 l-29 34 13 21 13 21 4 -18 c2 -10 10
    -22 17 -26z"/>
    <path d="M7512 5391 c-19 -12 -29 -68 -21 -114 8 -47 35 -77 68 -77 15 0 21 4
    15 8 -18 11 -55 92 -49 103 11 16 25 -1 25 -30 0 -33 30 -64 54 -55 11 4 16
    19 16 51 0 85 -58 146 -108 114z m48 -36 c15 -18 31 -85 20 -85 -4 0 -10 14
    -13 30 -5 24 -12 30 -32 30 l-25 0 -1 -32 -2 -33 -4 29 c-10 64 24 100 57 61z
    m50 -77 c0 -39 -15 -35 -17 5 -1 17 -5 43 -7 57 l-5 25 14 -30 c8 -16 14 -42
    15 -57z"/>
    <path d="M7183 5310 c-58 -23 -30 -178 34 -188 34 -5 74 17 85 46 l11 29 59
    13 c86 19 106 45 70 90 l-18 23 -67 -17 -67 -17 -22 16 c-25 17 -52 18 -85 5z
    m87 -42 c22 -36 27 -103 9 -114 -6 -3 -15 0 -20 7 -6 11 -9 10 -15 -4 -14 -38
    -55 -7 -72 53 -10 40 0 80 22 80 19 0 28 -14 20 -34 l-6 -17 -16 13 -15 13 7
    -25 c4 -14 7 -35 7 -48 -1 -14 3 -21 10 -16 6 3 16 0 21 -7 10 -14 9 -11 -2
    36 -1 6 -2 21 -1 35 l2 25 13 -24 c7 -13 16 -19 19 -14 3 5 -3 24 -13 41 l-20
    32 15 0 c9 0 24 -15 35 -32z m168 4 c5 -31 -15 -27 -21 3 -3 16 0 24 7 22 6
    -2 12 -13 14 -25z m-38 -13 l0 -31 -15 12 c-8 7 -15 21 -15 31 0 11 7 19 15
    19 10 0 15 -10 15 -31z m-42 -12 c2 -15 -1 -27 -7 -27 -6 0 -11 6 -11 14 0 8
    -3 22 -7 32 -4 12 -2 15 8 12 8 -2 15 -17 17 -31z m-39 -15 l0 -27 -9 20 c-12
    28 -12 47 0 40 6 -3 10 -18 9 -33z"/>
    <path d="M3820 5180 c-34 -34 -30 -149 8 -235 l27 -60 -1 -110 c-2 -158 -18
    -250 -53 -294 -15 -20 -31 -43 -35 -51 -4 -8 -13 -26 -21 -40 -29 -50 -11
    -121 34 -133 22 -5 60 17 49 29 -4 4 -14 1 -23 -6 l-15 -12 -9 23 c-4 13 -12
    22 -17 19 -5 -3 -10 10 -12 28 -3 34 -1 36 56 46 l32 6 0 -25 c0 -13 -4 -27
    -10 -30 -5 -3 -10 1 -10 10 l0 16 -20 -11 c-25 -14 -26 -30 -1 -30 11 0 36
    -10 56 -21 41 -25 60 -19 21 6 -48 32 -35 107 31 176 l35 37 14 93 c8 52 15
    139 17 194 l2 100 -32 57 -33 58 0 74 c0 54 -4 79 -16 90 -21 22 -50 20 -74
    -4z m37 -8 l15 12 14 -19 c17 -23 18 -87 2 -103 -7 -7 -27 -12 -45 -12 l-33 0
    0 34 c0 38 21 107 28 88 l4 -13 15 13z m46 -169 c9 -21 26 -54 37 -73 l22 -35
    -7 -120 c-3 -66 -10 -149 -16 -185 l-10 -65 -33 -31 c-19 -17 -41 -45 -50 -63
    -17 -32 -66 -46 -66 -18 0 15 28 57 47 72 7 6 18 39 24 75 5 36 14 84 19 108
    6 23 10 78 10 122 l0 79 -34 78 -35 78 27 6 c46 11 49 10 65 -28z"/>
    <path d="M3847 5134 c-8 -8 1 -24 13 -24 4 0 10 7 14 15 5 15 -14 21 -27 9z"/>
    <path d="M7465 5111 c-3 -6 -1 -11 4 -11 16 0 14 -97 -1 -103 -7 -3 -2 -6 12
    -6 l25 -1 -5 62 c-5 57 -20 83 -35 59z"/>
    <path d="M7560 5110 c0 -5 11 -10 25 -10 30 0 30 3 5 -55 -23 -53 -23 -55 -11
    -55 8 0 51 102 51 121 0 5 -16 9 -35 9 -19 0 -35 -4 -35 -10z"/>
    <path d="M7666 5098 c-33 -47 -13 -108 34 -108 32 0 50 22 50 62 0 32 -27 68
    -50 68 -10 0 -26 -10 -34 -22z m62 -39 c4 -43 -19 -69 -43 -49 -30 25 -15 93
    19 88 16 -2 22 -11 24 -39z"/>
    <path d="M8040 5030 c-12 -8 -12 -10 -1 -10 10 0 12 -14 9 -60 l-4 -60 19 0
    c13 0 17 5 13 16 -3 9 -6 40 -6 70 0 55 -4 61 -30 44z"/>
    <path d="M8140 5020 c-11 -11 -20 -33 -20 -50 0 -28 29 -70 48 -70 23 0 43 28
    40 55 l-3 30 -31 0 c-24 0 -30 4 -26 17 2 11 14 18 28 18 13 0 24 5 24 10 0
    17 -39 11 -60 -10z m50 -75 c0 -29 -34 -36 -44 -9 -8 21 1 34 25 34 14 0 19
    -7 19 -25z"/>
    <path d="M8255 4997 c-31 -54 -31 -57 0 -57 13 0 29 -8 34 -17 l10 -18 1 17
    c0 9 6 19 13 21 10 4 10 6 0 6 -9 1 -13 17 -13 46 0 56 -12 57 -45 2z m26 -40
    c-18 -18 -25 1 -11 30 l14 28 4 -24 c2 -13 -1 -28 -7 -34z"/>
    <path d="M4685 5020 c-3 -5 -1 -10 4 -10 16 0 14 -97 -1 -103 -7 -3 3 -6 22
    -6 26 -1 31 2 22 11 -7 7 -12 36 -12 65 0 39 -4 53 -14 53 -8 0 -18 -4 -21
    -10z"/>
    <path d="M4787 5024 c-14 -14 -7 -26 8 -14 16 13 45 7 45 -10 0 -6 -16 -26
    -35 -46 -45 -45 -44 -54 8 -52 l42 1 -34 4 -34 4 33 34 c39 40 39 78 0 83 -14
    2 -29 0 -33 -4z"/>
    <path d="M4884 4997 l-16 -34 16 -31 c30 -57 86 -35 86 33 0 70 -58 91 -86 32z
    m64 -22 c1 -22 -2 -46 -7 -54 l-9 -15 -16 13 c-16 14 -22 81 -9 95 18 18 38
    -1 41 -39z"/>
    <path d="M7071 5021 l-13 -9 13 -4 c17 -6 13 -89 -4 -100 -7 -4 4 -7 23 -7 19
    0 29 3 23 6 -9 3 -13 26 -13 64 0 59 -4 66 -29 50z"/>
    <path d="M7183 5024 c-21 -9 -35 -68 -23 -98 l10 -27 32 3 33 3 0 35 0 35 -27
    3 c-36 4 -38 32 -3 32 14 0 25 5 25 10 0 10 -26 12 -47 4z m40 -76 c7 -21 -4
    -38 -23 -38 -19 0 -34 25 -24 41 8 13 42 11 47 -3z"/>
    <path d="M7260 5020 c0 -5 14 -10 31 -10 l30 0 -7 -22 c-3 -13 -13 -35 -20
    -50 -8 -15 -14 -29 -14 -33 0 -10 18 -5 23 8 3 6 14 36 26 65 l21 52 -45 0
    c-25 0 -45 -4 -45 -10z"/>
    <path d="M5188 4973 c-15 -2 -33 -12 -40 -21 -8 -10 -29 -18 -51 -19 -93 -6
    -99 -39 -14 -86 93 -52 132 -61 199 -48 62 13 85 32 94 78 l6 32 -71 35 c-39
    20 -76 35 -83 35 -7 -1 -25 -4 -40 -6z m32 -32 c0 -19 -64 -50 -77 -37 -10 9
    27 44 51 49 11 2 22 5 24 6 1 0 2 -8 2 -18z m127 -35 c4 -3 -3 -6 -14 -6 -12
    0 -24 -7 -27 -16 -4 -9 -13 -14 -21 -10 -8 3 -25 2 -38 -3 -15 -6 -31 -4 -47
    4 l-25 13 27 12 c20 10 34 10 59 1 43 -15 49 -7 10 14 -17 8 -31 22 -31 30 0
    11 11 9 51 -9 27 -13 53 -27 56 -30z m-158 -42 c2 -2 2 -7 -2 -10 -8 -8 -128
    47 -122 57 4 6 107 -33 124 -47z m-31 -30 c-7 -6 -118 49 -118 58 0 5 27 -6
    61 -23 34 -16 59 -32 57 -35z m202 36 c0 -26 -67 -60 -119 -60 -77 0 -53 42
    25 44 32 1 48 6 55 19 13 23 39 22 39 -3z"/>
    <path d="M5725 4768 c-3 -7 -11 -40 -19 -73 -22 -96 -106 -415 -116 -440 -5
    -13 -28 -97 -50 -187 -23 -90 -63 -239 -90 -333 -26 -93 -65 -235 -85 -315
    -21 -80 -44 -149 -52 -153 -17 -10 -17 -33 1 -40 19 -8 26 1 26 35 0 15 2 28
    4 28 2 0 68 -31 147 -69 131 -63 202 -89 328 -121 l43 -11 -5 -37 c-3 -20 -11
    -97 -18 -169 -7 -73 -17 -133 -21 -133 -15 0 -68 30 -68 38 0 4 7 18 16 31 11
    16 13 26 6 33 -17 17 -45 1 -39 -23 3 -11 -15 -84 -40 -162 -69 -216 -240
    -729 -251 -757 -6 -14 -36 -104 -66 -200 -31 -96 -78 -242 -106 -325 -27 -82
    -50 -154 -50 -159 0 -24 20 14 39 74 11 36 38 119 60 185 22 66 77 234 123
    372 66 201 86 251 98 246 8 -3 55 -8 105 -12 l90 -6 15 -40 c27 -72 41 -86
    108 -118 103 -48 180 -39 243 30 40 42 69 95 69 123 0 19 -8 11 -31 -35 -38
    -74 -54 -92 -103 -117 -77 -39 -159 -9 -194 72 -8 19 -17 30 -19 23 -2 -7 1
    -22 7 -33 16 -30 5 -37 -21 -14 -40 35 -63 114 -34 114 23 0 35 34 32 98 -2
    69 15 101 77 142 43 28 33 39 -13 16 -35 -19 -64 -57 -81 -110 l-12 -39 -87 6
    c-47 3 -94 8 -104 12 -26 11 -17 41 11 37 43 -6 56 11 53 69 -1 30 -8 60 -15
    67 -10 11 -11 22 -3 47 l10 34 51 6 c69 8 163 31 264 62 45 14 85 23 89 20 14
    -15 -9 -34 -57 -47 -28 -8 -53 -18 -56 -22 -7 -10 19 -10 48 1 13 4 35 11 50
    15 l27 6 7 -36 c4 -24 14 -38 29 -44 31 -12 80 -74 94 -119 18 -62 12 -71 -10
    -14 -11 29 -34 64 -51 79 l-32 26 -71 -7 -72 -6 -27 31 c-14 17 -26 37 -26 45
    0 7 -7 16 -16 19 -37 14 -48 -29 -11 -44 12 -5 74 -64 137 -131 63 -68 158
    -168 210 -224 52 -55 192 -205 310 -333 118 -128 219 -232 224 -232 13 0 -160
    191 -486 537 -63 67 -88 100 -88 118 0 66 -40 116 -134 163 l-60 30 36 7 c82
    16 132 -23 158 -125 7 -25 16 -48 22 -51 5 -3 62 10 126 29 180 53 588 168
    779 219 95 25 170 50 167 54 -2 4 -26 2 -52 -6 -26 -7 -101 -28 -167 -45 -204
    -54 -246 -66 -390 -109 -77 -22 -146 -41 -153 -41 -9 0 -12 38 -11 165 l1 165
    42 11 c22 5 66 18 96 28 30 11 114 34 185 52 135 34 142 36 133 44 -2 3 -36
    -4 -74 -14 -70 -20 -316 -83 -367 -95 l-29 -7 4 17 c3 16 162 64 386 116 23 5
    42 14 42 19 0 13 -20 11 -86 -10 -55 -18 -328 -91 -339 -91 -3 0 -5 19 -5 43
    l0 43 48 17 c26 9 94 28 152 42 121 29 135 34 128 40 -3 3 -78 -13 -168 -35
    -89 -23 -163 -39 -165 -38 -2 4 -35 367 -35 390 0 20 2 21 285 89 116 28 237
    59 270 69 33 10 148 39 255 64 107 26 215 53 240 60 25 8 108 29 185 46 184
    42 245 59 245 71 0 12 -14 11 -42 -1 -13 -6 -142 -40 -288 -75 -432 -105 -619
    -151 -725 -180 -55 -15 -181 -47 -280 -71 -99 -24 -245 -61 -325 -83 -80 -21
    -178 -47 -218 -56 l-73 -17 7 -17 c12 -27 29 -150 50 -348 l7 -63 -17 -6 c-22
    -9 -20 -27 3 -19 19 6 31 -16 31 -62 0 -24 3 -23 -164 -64 -49 -11 -104 -27
    -122 -35 -33 -14 -105 -19 -116 -9 -5 5 40 140 55 163 6 9 13 9 29 1 40 -22
    241 12 259 42 13 24 -16 367 -32 384 -3 3 -44 11 -90 20 -47 8 -116 24 -154
    36 -69 21 -309 126 -352 154 l-22 15 35 127 c19 71 40 145 46 166 12 43 24 50
    128 73 36 8 178 41 315 74 439 105 779 184 975 226 69 14 150 33 180 41 78 20
    236 56 365 83 157 32 436 99 460 110 40 17 -11 10 -180 -29 -191 -43 -346 -78
    -545 -122 -74 -16 -178 -41 -230 -54 -85 -22 -167 -40 -475 -106 -49 -10 -101
    -23 -115 -28 -25 -10 -46 -15 -270 -65 -156 -35 -301 -69 -449 -105 -143 -36
    -145 -36 -137 -15 3 8 28 102 56 207 81 310 157 594 189 707 46 157 51 180 40
    180 -5 0 -12 -6 -14 -12z m714 -1650 c16 -140 32 -310 29 -313 -12 -10 -366
    -105 -391 -105 -9 0 -19 10 -22 23 -12 56 -39 376 -32 383 5 6 369 101 393
    103 7 1 16 -35 23 -91z m-484 -53 c13 -16 38 -346 27 -357 -13 -13 -72 -28
    -72 -18 0 4 -16 18 -36 29 l-36 22 6 32 c6 28 36 287 36 310 0 13 63 -3 75
    -18z m520 -321 c8 -47 8 -47 -105 -79 -52 -14 -133 -37 -180 -50 -116 -33
    -117 -33 -122 16 -2 22 1 43 6 46 10 7 363 101 382 102 7 1 15 -15 19 -35z
    m-690 -1 l35 -17 0 -29 0 -29 -47 7 c-27 4 -50 8 -51 10 -4 4 20 75 25 75 1 0
    18 -8 38 -17z m101 -48 l19 -14 -37 -1 c-36 0 -47 8 -31 23 10 11 28 8 49 -8z
    m582 -42 c-2 -10 -20 -21 -48 -29 -222 -59 -351 -90 -355 -86 -19 20 10 33
    144 66 81 21 168 43 192 51 59 18 71 18 67 -2z m22 -160 c0 -71 -3 -145 -6
    -165 l-7 -37 -56 -16 c-31 -8 -83 -24 -117 -35 -81 -27 -78 -28 -93 40 -15 68
    -57 133 -102 158 -22 13 -29 24 -29 48 l0 30 73 22 c115 35 290 80 315 81 l22
    1 0 -127z m-854 -137 c11 -44 1 -81 -23 -84 -26 -4 -27 2 -11 63 13 50 25 57
    34 21z m472 -71 c29 -24 62 -81 62 -106 0 -15 -57 38 -102 94 l-30 37 20 0
    c11 0 34 -11 50 -25z m-387 -101 c56 11 89 -16 69 -55 l-11 -19 -82 1 c-156 1
    -172 9 -147 74 l8 22 69 -14 c37 -8 80 -12 94 -9z"/>
    <path d="M6217 3141 c-82 -21 -156 -45 -164 -54 l-15 -15 12 -154 c8 -98 18
    -158 26 -168 l14 -14 117 28 c65 16 123 32 128 36 6 5 27 11 47 15 20 4 45 16
    54 26 l18 19 -12 89 c-7 48 -12 108 -12 132 0 54 -19 93 -45 96 -11 1 -87 -16
    -168 -36z m187 -23 c4 -24 11 -90 16 -148 l10 -104 -17 -17 c-10 -9 -61 -28
    -113 -42 -52 -14 -118 -32 -146 -40 -29 -8 -56 -12 -62 -8 -13 8 -35 207 -30
    276 l3 50 140 37 c77 20 152 37 167 37 l27 1 5 -42z"/>
    <path d="M4080 4760 c0 -5 5 -10 10 -10 15 0 13 -97 -2 -103 -7 -3 0 -6 16 -6
    22 -1 27 3 22 15 -3 9 -6 38 -6 65 l0 49 -20 0 c-11 0 -20 -4 -20 -10z"/>
    <path d="M4180 4734 l0 -36 15 12 c19 16 45 6 45 -18 0 -27 -22 -43 -40 -32
    -23 15 -34 12 -20 -5 20 -24 59 -19 72 11 15 32 1 57 -35 64 -32 6 -24 26 13
    33 19 3 15 5 -12 6 l-38 1 0 -36z"/>
    <path d="M4280 4745 c-14 -37 -13 -57 6 -83 36 -51 95 -2 78 66 l-9 37 -33 3
    -32 3 -10 -26z m58 3 c20 -20 15 -76 -8 -88 l-19 -10 -11 19 c-13 25 -13 47 0
    72 12 22 21 24 38 7z"/>
    <path d="M5160 4733 c-31 -40 -8 -72 43 -59 32 8 34 31 8 64 -24 28 -25 28
    -51 -5z m44 -19 c9 -23 8 -24 -12 -24 -26 0 -34 11 -21 27 15 17 26 17 33 -3z"/>
    <path d="M7859 4676 c-3 -3 1 -63 8 -133 7 -71 20 -204 28 -298 8 -93 25 -267
    36 -385 11 -118 19 -241 17 -273 -5 -60 6 -83 32 -67 l14 9 -12 23 c-7 13 -14
    46 -16 73 -7 91 -26 298 -40 445 -8 80 -20 206 -27 280 -18 208 -33 332 -40
    326z"/>
    <path d="M5140 4656 c0 -27 60 -36 80 -11 l12 14 -36 -6 c-24 -4 -36 -2 -36 6
    0 6 -4 11 -10 11 -5 0 -10 -6 -10 -14z"/>
    <path d="M4750 4630 c0 -5 5 -10 10 -10 15 0 13 -97 -2 -103 -7 -3 -2 -6 12
    -6 l25 -1 -3 65 -4 65 -19 0 c-10 0 -19 -4 -19 -10z"/>
    <path d="M4847 4633 c-4 -3 -7 -13 -7 -21 l0 -15 19 17 c20 18 41 14 41 -8 0
    -6 -16 -27 -35 -46 -46 -44 -44 -50 13 -48 36 1 39 2 15 5 -41 5 -41 11 -3 46
    33 31 39 61 14 71 -21 8 -49 8 -57 -1z"/>
    <path d="M4960 4630 c0 -5 5 -10 10 -10 15 0 13 -97 -2 -103 -7 -3 3 -5 22 -5
    19 0 29 2 23 5 -9 3 -13 26 -13 64 l0 59 -20 0 c-11 0 -20 -4 -20 -10z"/>
    <path d="M5140 4616 c0 -15 21 -26 51 -26 10 0 19 -4 19 -10 0 -13 -43 -13
    -57 1 -7 7 -13 7 -17 0 -10 -15 40 -44 63 -36 22 7 35 32 20 41 -6 4 -6 11 2
    20 6 8 8 18 4 22 -4 4 -10 1 -12 -5 -5 -15 -53 -18 -53 -3 0 6 -4 10 -10 10
    -5 0 -10 -6 -10 -14z"/>
    <path d="M5111 4516 c-53 -55 -22 -96 72 -96 51 0 87 23 87 54 0 27 -50 78
    -57 59 -6 -18 -44 -16 -57 2 l-11 16 -34 -35z m88 -11 c20 4 32 0 46 -16 l20
    -21 -20 -14 c-34 -25 -145 -12 -145 17 0 26 31 49 52 38 10 -6 32 -8 47 -4z"/>
    <path d="M3980 4524 c0 -3 35 -42 78 -87 98 -105 392 -423 457 -496 27 -31
    105 -117 174 -191 68 -74 163 -178 211 -230 48 -52 139 -152 203 -222 64 -69
    121 -138 127 -153 22 -59 46 -7 52 112 2 48 7 63 18 63 20 1 -4 19 -92 71 -78
    46 -81 49 -68 83 13 35 78 79 171 118 71 29 98 48 68 48 -23 0 -200 -92 -229
    -120 -23 -21 -30 -37 -30 -65 0 -20 -5 -56 -11 -80 l-11 -43 -72 77 c-126 132
    -746 808 -891 970 -120 135 -155 168 -155 145z m1195 -1131 l36 -17 -1 -66
    c-2 -92 1 -95 16 -15 l13 70 -3 -85 c-2 -48 0 -76 5 -65 4 11 8 34 9 50 1 17
    6 39 11 50 5 13 7 -8 3 -60 -4 -44 -8 -82 -11 -85 -8 -9 -151 155 -143 165 4
    6 11 25 15 43 8 38 5 37 50 15z"/>
    <path d="M3926 4278 c-26 -36 -19 -53 34 -86 l50 -31 0 -29 c0 -66 112 -108
    158 -59 56 60 49 129 -16 164 l-37 20 -32 -10 -31 -9 -45 31 c-54 37 -61 38
    -81 9z m36 -30 c-9 -9 -15 -9 -24 0 -10 10 -10 15 2 22 20 12 38 -6 22 -22z
    m48 -2 c0 -11 -19 -15 -25 -6 -3 5 1 10 9 10 9 0 16 -2 16 -4z m120 -21 c0 -8
    8 -15 18 -15 50 0 58 -71 13 -119 -53 -57 -108 -28 -97 51 l6 43 -15 -33 c-9
    -18 -12 -38 -9 -44 4 -7 2 -8 -4 -4 -24 14 -14 76 17 107 31 31 71 39 71 14z
    m-140 -15 c0 -5 -4 -10 -9 -10 -6 0 -13 5 -16 10 -3 6 1 10 9 10 9 0 16 -4 16
    -10z m38 -7 c-5 -25 -28 -28 -28 -4 0 12 6 21 16 21 9 0 14 -7 12 -17z"/>
    <path d="M4121 4169 c-1 -18 -8 -29 -23 -34 -18 -6 -20 -8 -7 -12 10 -2 20
    -14 24 -26 l8 -22 4 26 c3 17 13 30 26 34 l22 8 -22 4 c-12 2 -24 14 -26 26
    l-4 22 -2 -26z"/>
    <path d="M7976 4249 c-22 -5 -41 -10 -42 -12 -1 -1 48 -2 109 -2 135 -1 209
    -21 372 -100 139 -69 266 -168 312 -245 38 -64 39 -66 16 -75 -21 -9 -284 -76
    -548 -141 -104 -25 -194 -50 -198 -54 -20 -18 13 -16 83 5 41 13 170 46 285
    74 116 28 251 62 300 76 50 13 93 21 96 17 8 -8 35 -163 44 -247 3 -33 8 -72
    11 -87 l5 -26 -48 -16 c-26 -8 -104 -29 -173 -46 -69 -17 -147 -38 -175 -47
    -27 -9 -149 -42 -270 -74 -121 -32 -314 -83 -430 -113 -115 -31 -258 -69 -316
    -86 -58 -17 -194 -53 -304 -80 -109 -27 -203 -54 -209 -61 -15 -15 59 -3 132
    22 29 10 135 39 235 64 100 26 227 59 282 75 55 16 195 54 310 84 182 48 356
    94 849 227 113 30 125 29 126 -12 0 -30 -17 -37 -235 -94 -77 -21 -187 -51
    -245 -67 -58 -17 -202 -56 -320 -88 -118 -32 -246 -67 -285 -79 -38 -11 -153
    -43 -255 -70 -357 -95 -506 -139 -498 -146 4 -4 183 41 363 91 50 14 189 52
    310 85 121 32 240 66 265 74 25 8 144 41 265 74 121 33 301 82 400 109 241 66
    238 65 233 50 -9 -25 -54 -40 -603 -188 -137 -38 -308 -84 -380 -104 -71 -20
    -166 -46 -210 -57 -44 -12 -114 -32 -155 -44 -41 -12 -157 -44 -257 -70 -101
    -26 -183 -52 -183 -56 0 -13 10 -11 77 10 32 10 140 40 238 66 99 25 225 60
    280 76 55 16 174 49 265 73 91 24 215 58 275 75 61 17 184 51 275 76 91 24
    210 58 265 74 55 17 104 31 109 31 5 0 6 -45 2 -106 l-7 -106 15 5 c32 12 24
    -10 -9 -26 -27 -13 -34 -23 -37 -49 l-3 -33 -50 -25 c-61 -31 -91 -41 -220
    -75 -55 -15 -174 -49 -264 -76 -166 -50 -180 -51 -181 -12 0 7 -14 29 -32 49
    l-32 36 -60 -7 c-170 -18 -245 -67 -278 -180 -6 -22 -14 -43 -17 -47 -3 -4
    -69 -23 -146 -43 -170 -43 -168 -43 -161 -54 3 -5 39 1 78 14 40 12 87 26 103
    29 l30 7 18 -34 c22 -41 53 -60 162 -98 102 -35 127 -36 182 -6 53 28 89 77
    110 146 l15 54 -11 52 c-13 56 -53 104 -106 126 l-30 12 45 7 c25 4 53 3 63
    -2 22 -11 57 -67 57 -90 0 -29 11 -28 150 11 426 120 537 158 638 221 l32 20
    0 35 c0 21 -8 43 -19 54 l-19 19 3 130 c3 135 -19 351 -50 492 -9 41 -18 84
    -19 95 -6 46 -66 141 -112 181 -212 176 -524 291 -688 253z m884 -1239 c0 -10
    -9 -24 -21 -30 -24 -13 -41 -4 -19 10 l15 10 -15 0 c-11 1 -10 4 4 15 27 20
    36 19 36 -5z m-990 -205 c0 -10 10 -15 28 -15 15 0 42 -9 60 -20 109 -67 66
    -279 -68 -333 -63 -26 -118 -7 -150 51 l-21 37 5 -33 6 -33 -23 6 c-21 7 -39
    23 -64 61 l-13 19 6 -30 6 -30 -31 33 c-41 43 -39 56 10 71 l40 12 30 67 c38
    83 51 99 114 127 61 28 65 29 65 10z"/>
    <path d="M7839 2705 c-37 -24 -43 -35 -60 -89 -12 -40 5 -101 34 -121 37 -26
    74 -19 118 23 63 58 72 136 22 187 -32 32 -68 32 -114 0z m108 -17 c31 -64 24
    -106 -24 -154 -42 -43 -83 -45 -112 -8 -36 45 -26 100 27 157 34 36 93 38 109
    5z"/>
    <path d="M1721 4013 c-12 -10 -24 -34 -27 -54 l-6 -36 27 -26 c21 -19 26 -31
    21 -50 -3 -15 -1 -29 5 -33 8 -5 8 -9 -1 -14 -19 -12 -5 -37 25 -44 27 -7 55
    7 55 26 0 6 -6 5 -15 -2 -16 -13 -59 -4 -50 11 4 5 17 9 29 9 13 0 29 7 36 15
    l12 14 -35 -6 c-19 -3 -37 -1 -41 5 -4 7 5 10 22 10 35 -1 52 8 52 28 0 8 6
    14 14 14 20 0 33 20 41 62 l7 37 -26 25 -25 26 -49 0 c-33 0 -57 -6 -71 -17z
    m137 -27 l15 -15 -13 -15 c-7 -9 -25 -16 -41 -16 -16 0 -29 -5 -29 -11 0 -8
    13 -9 40 -5 52 8 53 -9 1 -25 -58 -17 -149 17 -110 42 l14 9 -15 10 -15 9 17
    18 c14 14 20 15 30 5 10 -10 10 -15 -2 -22 -11 -7 -7 -10 17 -10 17 0 40 -3
    50 -7 10 -3 15 -3 11 2 -4 4 0 14 10 22 l17 14 -33 -4 c-21 -2 -37 2 -45 11
    l-12 15 39 -6 c22 -3 46 -13 54 -21z m-55 -123 c-7 -2 -21 -2 -30 0 -10 3 -4
    5 12 5 17 0 24 -2 18 -5z"/>
    <path d="M3175 4000 c-3 -5 -1 -10 4 -10 14 0 14 -87 1 -95 -18 -11 -11 -25
    13 -25 l24 0 -4 58 c-3 31 -6 63 -8 70 -5 15 -21 16 -30 2z"/>
    <path d="M3275 3996 c-27 -20 -27 -90 0 -110 26 -20 31 -20 55 4 26 26 26 81
    2 103 -23 21 -33 21 -57 3z m43 -53 c-3 -53 -22 -67 -39 -30 -16 35 -4 77 22
    77 l20 0 -3 -47z"/>
    <path d="M1975 3950 c-3 -5 -1 -10 4 -10 16 0 14 -97 -1 -103 -7 -3 3 -6 22
    -6 26 -1 31 2 22 11 -7 7 -12 36 -12 65 0 39 -4 53 -14 53 -8 0 -18 -4 -21
    -10z"/>
    <path d="M2093 3953 c32 -5 34 -20 7 -73 -23 -44 -24 -50 -11 -50 5 0 14 12
    19 28 6 15 17 44 26 65 l16 37 -42 -1 c-30 -2 -35 -3 -15 -6z"/>
    <path d="M2183 3953 c-7 -2 -13 -18 -13 -33 0 -32 28 -54 54 -44 9 3 16 2 16
    -4 0 -14 -22 -29 -50 -35 l-25 -4 32 -2 c51 -2 80 58 53 110 -10 18 -40 24
    -67 12z m41 -9 c21 -8 21 -40 0 -48 -21 -8 -34 1 -34 23 0 28 9 34 34 25z"/>
    <path d="M4016 3951 c-4 -5 -1 -11 5 -13 17 -6 15 -88 -2 -99 -10 -6 -3 -8 21
    -8 19 0 29 3 23 6 -9 3 -13 26 -13 64 0 45 -3 59 -14 59 -8 0 -17 -4 -20 -9z"/>
    <path d="M4110 3925 c0 -34 12 -46 25 -25 10 15 23 12 34 -9 7 -13 6 -24 -3
    -37 l-14 -18 -16 13 c-19 16 -35 6 -19 -10 6 -6 23 -9 39 -7 l29 3 3 38 3 37
    -31 6 c-37 8 -34 27 6 35 l29 7 -42 1 -43 1 0 -35z"/>
    <path d="M4222 3948 c-31 -31 3 -87 43 -71 l17 6 -12 -22 c-8 -16 -18 -21 -31
    -18 -10 3 -19 1 -19 -4 0 -16 46 -9 63 9 48 52 -12 149 -61 100z m48 -14 l13
    -15 -15 -16 c-19 -18 -38 -10 -38 16 0 33 20 40 40 15z"/>
    <path d="M3479 3917 c-57 -38 -92 -99 -97 -167 l-4 -60 32 -30 c60 -56 110
    -50 179 25 66 72 76 183 19 230 -37 32 -84 32 -129 2z m113 -19 c17 -33 11
    -85 -18 -145 -38 -78 -111 -115 -159 -79 -46 33 -7 173 62 225 39 29 98 28
    115 -1z m36 -80 c-7 -83 -82 -180 -138 -177 -10 0 -8 3 5 9 57 24 125 127 125
    190 0 16 3 30 6 30 4 0 4 -24 2 -52z"/>
    <path d="M3482 3864 c-44 -31 -68 -114 -40 -142 33 -33 100 5 119 69 22 73
    -21 114 -79 73z m21 -34 c-9 -16 -23 -30 -30 -30 -19 0 -16 10 9 37 30 32 42
    29 21 -7z m47 -14 c0 -18 -6 -39 -14 -45 l-14 -12 -7 22 c-7 22 11 69 27 69 4
    0 8 -15 8 -34z m-45 -46 c12 -36 -25 -56 -53 -28 -18 18 -15 28 11 38 32 13
    35 12 42 -10z"/>
    <path d="M1730 3740 c0 -18 50 -35 68 -24 29 19 27 36 -2 22 -20 -9 -29 -9
    -38 0 -15 15 -28 15 -28 2z"/>
    <path d="M3678 3703 c-79 -85 -58 -152 50 -167 60 -8 73 -3 90 31 16 36 15 58
    -3 73 -8 7 -15 19 -15 27 0 22 -47 63 -73 63 -13 0 -35 -12 -49 -27z m76 -29
    c-2 -38 -26 -76 -60 -95 l-26 -13 -14 18 c-29 40 26 130 76 124 l25 -3 -1 -31z
    m11 -63 c-8 -17 -25 -36 -38 -42 l-22 -12 21 24 c28 32 44 62 45 91 l2 23 4
    -27 c2 -15 -3 -40 -12 -57z m53 1 c2 -7 -3 -12 -12 -12 -9 0 -16 7 -16 16 0
    17 22 14 28 -4z m-28 -52 c12 -8 9 -10 -12 -10 -16 0 -28 5 -28 10 0 13 20 13
    40 0z"/>
    <path d="M3676 3671 c-19 -21 -18 -72 1 -78 19 -7 63 43 63 72 0 31 -38 35
    -64 6z m42 -12 c-3 -24 -33 -48 -44 -36 -8 8 23 57 37 57 6 0 9 -10 7 -21z"/>
    <path d="M1730 3700 c0 -22 32 -71 43 -67 16 5 51 66 43 75 -4 3 -10 2 -14 -4
    -13 -20 -52 -27 -52 -10 0 9 -4 16 -10 16 -5 0 -10 -5 -10 -10z"/>
    <path d="M1003 3601 c-10 -18 -34 -58 -54 -90 l-36 -57 -56 -13 -55 -12 -12
    -30 c-14 -33 -4 -53 32 -65 11 -3 169 -79 352 -169 183 -89 350 -169 370 -176
    l38 -14 146 39 c81 21 155 45 165 53 28 26 21 58 -18 82 -19 11 -35 25 -35 32
    0 6 -7 34 -15 62 -17 59 -12 55 -200 152 -66 35 -190 100 -275 145 l-155 82
    -87 5 -88 5 -17 -31z m387 -103 c107 -55 233 -121 280 -147 l85 -46 -47 -3
    c-27 -2 -48 -7 -48 -13 0 -13 84 -11 98 3 9 10 15 9 26 -2 14 -14 59 -151 52
    -157 -6 -6 -199 -53 -218 -53 -15 0 -17 4 -9 18 22 42 56 205 38 181 -6 -8
    -57 -175 -57 -187 0 -7 -3 -12 -7 -12 -17 -1 -663 326 -663 335 0 6 23 49 50
    96 l50 86 168 -84 c92 -47 227 -116 300 -154 120 -62 183 -86 156 -59 -5 5
    -135 73 -289 150 -154 77 -283 144 -287 148 -5 5 22 6 59 4 l67 -5 196 -99z
    m-496 -82 c-6 -16 53 -49 231 -132 50 -23 173 -85 274 -138 102 -53 193 -96
    204 -96 22 0 211 56 245 72 17 9 25 9 34 0 13 -13 13 -13 -77 -37 -33 -9 -86
    -25 -118 -36 -100 -33 -96 -35 -503 167 -206 102 -373 188 -370 191 4 5 55 19
    78 22 4 1 5 -5 2 -13z m299 -223 c202 -101 379 -183 394 -183 22 0 220 54 276
    75 9 4 17 3 17 -3 0 -5 -10 -12 -22 -15 -13 -2 -71 -19 -129 -36 -142 -42
    -158 -41 -276 18 -54 28 -213 106 -353 175 -140 69 -264 132 -275 141 -31 25
    -23 21 368 -172z"/>
    <path d="M1960 3570 c-10 -6 -11 -10 -2 -10 8 0 12 -17 12 -50 0 -27 -4 -50
    -10 -50 -5 0 -10 -4 -10 -10 0 -5 11 -10 25 -10 14 0 25 5 25 10 0 6 -4 10
    -10 10 -5 0 -10 27 -12 60 l-3 59 -15 -9z"/>
    <path d="M2057 3569 c-14 -8 -17 -18 -12 -36 3 -14 1 -31 -6 -39 -14 -18 14
    -54 42 -54 25 0 52 29 43 49 -4 9 -6 28 -5 43 1 18 -6 31 -18 38 -23 12 -21
    12 -44 -1z m48 -24 c0 -5 -10 -11 -22 -13 -16 -2 -23 2 -23 13 0 11 7 15 23
    13 12 -2 22 -7 22 -13z m-6 -44 c19 -12 6 -41 -19 -41 -13 0 -20 7 -20 18 0
    31 14 39 39 23z"/>
    <path d="M2157 3573 c-4 -3 -7 -19 -7 -35 l0 -30 30 7 c37 8 52 -17 26 -43
    l-16 -17 -20 13 -20 12 0 -14 c0 -14 21 -26 46 -26 7 0 21 11 30 25 l16 25
    -16 25 c-9 14 -25 25 -36 25 -11 0 -20 5 -20 10 0 6 14 10 31 10 17 0 28 4 24
    10 -7 11 -58 14 -68 3z"/>
    <path d="M1702 3554 l-23 -16 3 -41 3 -42 44 -14 c82 -26 152 17 135 83 -11
    44 -115 63 -162 30z m45 -11 c-26 -7 -17 -35 15 -44 18 -4 33 -2 45 7 l18 14
    -19 15 -20 15 21 0 c25 0 47 -24 40 -44 -12 -32 -111 -31 -142 1 -21 20 -2 43
    34 42 18 -1 20 -3 8 -6z m53 -23 c0 -5 -9 -10 -19 -10 -11 0 -23 5 -26 10 -4
    6 5 10 19 10 14 0 26 -4 26 -10z m-38 -58 c15 -2 42 1 60 7 l33 11 -19 -15
    c-26 -20 -97 -19 -122 1 l-19 16 20 -8 c11 -4 32 -9 47 -12z"/>
    <path d="M3920 3523 c0 -11 98 -70 535 -323 268 -155 398 -231 438 -257 l38
    -24 -8 -37 c-4 -20 -7 -55 -7 -77 l1 -40 -56 6 c-31 4 -110 14 -176 22 -117
    16 -252 32 -520 62 -279 32 -472 56 -525 65 -30 5 -271 34 -535 65 -264 30
    -545 64 -625 75 -156 21 -487 60 -510 60 l-15 0 14 -9 c8 -5 46 -12 85 -16 39
    -4 112 -13 161 -20 50 -8 232 -30 405 -50 489 -56 559 -64 645 -76 182 -24
    216 -28 345 -44 74 -9 171 -20 215 -25 387 -43 627 -72 665 -80 25 -5 135 -19
    245 -30 110 -12 216 -27 236 -34 40 -15 65 -7 56 17 -4 12 -16 14 -46 10 l-40
    -5 -7 26 c-6 26 1 100 12 117 9 15 344 -178 344 -198 0 -7 11 -13 25 -13 29 0
    35 28 8 36 -37 11 -123 57 -253 135 -74 45 -173 103 -220 129 -110 61 -331
    188 -395 227 -27 17 -104 62 -170 100 -66 38 -157 92 -203 119 -144 85 -162
    95 -162 87z"/>
    <path d="M3645 3365 l0 -65 25 1 c14 0 19 3 13 6 -9 3 -13 26 -13 64 0 40 -4
    59 -12 59 -9 0 -13 -20 -13 -65z"/>
    <path d="M3748 3388 c-30 -47 -28 -58 7 -58 14 0 25 -7 27 -17 l4 -18 10 20
    c13 25 6 115 -10 115 -6 0 -23 -19 -38 -42z m32 -13 c0 -16 -6 -25 -15 -25
    -18 0 -18 5 -5 31 14 26 20 24 20 -6z"/>
    <path d="M5061 3181 c-12 -49 -21 -97 -21 -109 0 -11 -7 -25 -15 -32 -8 -7
    -15 -17 -15 -23 0 -6 -10 -21 -22 -34 -29 -31 -4 -30 27 1 l24 24 78 -53 c184
    -123 553 -300 553 -265 0 4 -26 16 -57 26 -81 25 -371 174 -473 242 -100 67
    -100 65 -67 210 13 56 20 102 16 102 -4 0 -17 -40 -28 -89z"/>
    <path d="M6490 3190 l-10 -19 20 -11 c11 -6 20 -8 20 -4 0 6 51 -34 95 -75 17
    -16 114 -95 265 -216 21 -16 91 -75 155 -130 65 -55 176 -147 246 -205 70 -58
    166 -139 214 -180 49 -41 129 -108 179 -149 50 -40 98 -81 107 -90 28 -28 154
    -129 162 -130 18 -2 8 9 -48 56 -174 146 -279 234 -360 302 -49 42 -118 99
    -152 126 -35 28 -63 53 -63 56 0 4 -18 18 -40 33 -23 15 -111 86 -197 159 -87
    73 -245 205 -352 295 -108 90 -199 172 -203 183 -9 24 -24 24 -38 -1z"/>
    <path d="M5415 3185 c-22 -8 -60 -19 -84 -25 -23 -6 -41 -14 -38 -16 8 -8 207
    39 207 48 0 12 -39 8 -85 -7z"/>
    <path d="M5118 3088 c-44 -19 -63 -38 -38 -38 13 0 110 49 110 55 0 9 -25 3
    -72 -17z"/>
    <path d="M844 3068 c-4 -6 -2 -14 4 -16 16 -5 16 -89 0 -95 -7 -3 1 -5 17 -5
    17 0 24 2 18 5 -9 3 -13 26 -13 64 0 56 -10 74 -26 47z"/>
    <path d="M930 3070 c0 -5 14 -10 30 -10 36 0 36 2 6 -60 -13 -28 -20 -50 -15
    -50 11 0 59 97 59 118 0 7 -15 12 -40 12 -22 0 -40 -4 -40 -10z"/>
    <path d="M1047 3073 c-11 -10 -8 -73 2 -73 6 0 13 5 16 10 17 28 51 -3 38 -36
    -4 -12 -14 -14 -37 -10 -22 5 -27 3 -19 -5 6 -6 23 -9 39 -7 l29 3 0 35 0 35
    -27 3 c-36 4 -38 32 -3 32 14 0 25 5 25 10 0 11 -53 14 -63 3z"/>
    <path d="M5160 3070 c0 -11 173 -100 192 -100 7 1 -17 17 -54 36 -53 27 -68
    39 -68 57 0 17 -2 19 -9 8 l-10 -15 -25 12 c-15 7 -26 8 -26 2z"/>
    <path d="M5380 2955 c0 -5 47 -30 213 -111 59 -30 107 -50 107 -45 0 7 -298
    161 -313 161 -4 0 -7 -2 -7 -5z"/>
    <path d="M5120 2865 c0 -11 126 -84 247 -142 73 -35 135 -68 138 -74 4 -5 -3
    -24 -14 -43 -12 -18 -21 -41 -21 -50 l0 -16 -67 25 c-38 14 -107 45 -155 70
    -93 48 -107 53 -90 32 11 -13 96 -55 227 -110 80 -34 97 -53 77 -85 -6 -9 -20
    -7 -63 11 -75 32 -261 129 -338 177 -65 40 -98 52 -71 26 8 -8 56 -38 107 -66
    l91 -52 -4 -36 c-3 -29 -2 -31 4 -12 4 14 12 25 17 25 13 0 18 -36 7 -52 -7
    -11 -188 -68 -627 -199 -476 -141 -558 -166 -665 -200 -150 -49 -130 -55 25
    -8 219 66 587 175 808 240 l218 63 67 -42 c178 -114 401 -223 440 -215 9 2
    -17 16 -58 31 -128 48 -430 221 -413 238 5 3 25 12 46 19 l37 12 63 -40 c133
    -84 367 -189 367 -164 0 5 -24 17 -52 27 -57 18 -219 96 -307 147 l-55 31 22
    8 c16 6 49 -6 134 -50 62 -32 133 -65 156 -75 31 -12 42 -21 38 -31 -3 -8 -1
    -15 4 -15 6 0 10 7 10 14 l0 15 31 -11 c41 -14 48 -4 8 12 l-31 13 5 55 c7 66
    6 65 45 51 17 -6 37 -9 44 -7 7 3 -11 13 -39 22 -53 18 -64 33 -45 64 6 9 16
    10 33 4 44 -16 79 -22 79 -14 0 5 -25 17 -56 28 -69 23 -73 31 -38 84 37 55
    30 64 -87 115 -52 22 -138 66 -191 98 -94 55 -108 62 -108 52z m275 -396 l70
    -28 3 -60 c2 -34 -1 -61 -6 -61 -15 0 -150 58 -174 74 -16 12 -23 27 -23 54
    -1 20 -5 50 -9 65 l-8 28 38 -22 c22 -12 71 -34 109 -50z m-145 8 c0 -10 -4
    -15 -10 -12 -5 3 -10 18 -10 33 0 21 2 24 10 12 5 -8 10 -23 10 -33z m0 -49
    c0 -5 -9 -4 -20 2 -11 6 -20 18 -20 27 l0 16 20 -18 c11 -10 20 -22 20 -27z"/>
    <path d="M4932 2664 c-1 -37 -10 -76 -22 -102 -24 -49 -25 -64 -5 -102 22 -43
    38 -37 18 6 -12 23 -14 38 -7 42 6 4 10 20 10 36 -1 17 5 31 13 34 10 3 12 0
    7 -13 -9 -24 16 -61 55 -81 44 -22 48 -10 5 18 -32 21 -52 45 -43 54 1 2 33
    -15 70 -38 97 -59 93 -41 -5 23 l-83 54 -6 65 -6 65 -1 -61z"/>
    <path d="M2635 2560 c-10 -11 -13 -20 -8 -20 6 0 16 6 23 14 13 16 40 11 40
    -8 0 -7 -16 -27 -35 -46 -46 -44 -44 -50 13 -49 l47 2 -40 6 -40 6 30 23 c36
    28 46 51 33 75 -12 23 -41 22 -63 -3z"/>
    <path d="M2743 2568 c-5 -7 -9 -35 -9 -63 l1 -50 40 0 40 0 -3 55 c-2 30 -9
    58 -15 62 -18 12 -44 9 -54 -4z m57 -19 c0 -16 -31 -22 -43 -10 -9 9 -9 14 2
    20 16 10 41 4 41 -10z m0 -65 c0 -21 -28 -28 -46 -13 l-16 13 17 12 c20 15 45
    8 45 -12z"/>
    <path d="M2675 2363 c-129 -44 -194 -203 -182 -439 13 -237 76 -418 201 -576
    160 -201 360 -171 433 67 25 85 25 337 0 448 -30 125 -63 212 -114 299 -109
    184 -212 245 -338 201z m139 -17 c108 -45 236 -238 286 -431 58 -223 44 -499
    -31 -595 l-19 -25 24 60 c117 293 -20 811 -257 970 -56 38 -56 43 -3 21z m-27
    -20 c87 -41 190 -185 252 -356 47 -129 55 -180 56 -345 l0 -160 -18 -60 c-54
    -175 -163 -218 -299 -118 -109 79 -217 291 -253 493 -39 222 -5 440 82 522 56
    53 103 59 180 24z"/>
    <path d="M2621 2265 c-193 -175 -88 -767 167 -942 51 -34 72 -43 107 -43 l43
    0 35 33 c83 77 102 141 101 327 -1 164 -22 254 -94 407 -77 162 -175 253 -275
    253 l-45 0 -39 -35z m158 5 c2 0 1 -15 -2 -32 -21 -126 -37 -237 -47 -324
    l-12 -102 -39 -38 c-21 -21 -41 -35 -44 -33 -13 14 -27 183 -23 283 l4 111 29
    63 c34 77 55 94 98 81 18 -5 34 -9 36 -9z m-149 -56 c-52 -104 -61 -278 -24
    -443 8 -35 12 -66 9 -69 -33 -33 -68 261 -45 373 7 33 14 75 14 93 1 31 46
    102 65 102 5 0 -4 -25 -19 -56z m253 -40 c59 -73 109 -173 137 -279 12 -44 26
    -95 32 -113 12 -41 15 -262 4 -281 -9 -13 -35 26 -126 194 -32 59 -39 79 -30
    90 21 26 8 70 -22 73 l-26 3 -7 62 c-4 34 -13 112 -21 172 -22 174 -20 176 59
    79z m-96 -36 c-2 -13 -4 -3 -4 22 0 25 2 35 4 23 2 -13 2 -33 0 -45z m38 -157
    l17 -154 -14 -8 c-7 -5 -19 -9 -27 -9 l-14 0 6 113 c4 61 7 136 7 166 0 85 6
    58 25 -108z m-268 117 c-3 -7 -5 -2 -5 12 0 14 2 19 5 13 2 -7 2 -19 0 -25z
    m219 -284 c-3 -7 -15 -18 -27 -24 l-22 -12 7 28 c5 26 31 217 38 284 1 14 4
    -40 5 -120 2 -79 1 -150 -1 -156z m-229 219 c-3 -10 -5 -4 -5 12 0 17 2 24 5
    18 2 -7 2 -21 0 -30z m42 -353 c26 -84 74 -182 118 -245 20 -27 27 -42 15 -31
    -78 69 -185 347 -181 473 1 24 6 7 14 -47 7 -47 22 -114 34 -150z m301 139 c0
    -24 -23 -21 -28 4 -2 10 3 17 12 17 10 0 16 -9 16 -21z m-9 -67 c126 -230 126
    -233 6 -73 -84 114 -88 121 -54 121 16 0 29 -13 48 -48z m-34 -47 c15 -22 37
    -51 48 -65 81 -94 72 -98 -24 -9 -126 115 -133 125 -106 145 l20 15 17 -23
    c10 -13 30 -41 45 -63z m-132 65 c-3 -5 -16 -15 -28 -21 l-22 -12 19 22 c19
    21 43 30 31 11z m28 -38 l17 -19 -55 -10 c-63 -11 -68 -7 -22 24 40 27 40 27
    60 5z m170 -166 l129 -123 -26 -50 c-44 -88 -124 -77 -222 30 -54 59 -134 203
    -134 240 0 16 27 22 95 25 l30 1 128 -123z m-254 49 c52 -145 169 -278 258
    -292 39 -7 26 -23 -18 -23 -34 0 -90 20 -84 30 3 5 -20 34 -50 65 -74 75 -178
    288 -134 273 6 -2 19 -26 28 -53z"/>
    <path d="M3712 2268 c-28 -54 -28 -58 3 -58 16 0 25 -6 25 -15 0 -8 5 -15 10
    -15 6 0 10 7 10 15 0 8 5 15 12 15 9 0 9 3 0 12 -7 7 -12 29 -12 50 0 51 -19
    49 -48 -4z m24 -45 c-13 -14 -25 9 -13 28 l12 20 3 -21 c2 -12 1 -24 -2 -27z"/>
    <path d="M3815 2300 c-3 -5 -1 -10 4 -10 16 0 14 -97 -1 -103 -7 -3 3 -5 22
    -5 19 0 29 2 23 5 -9 3 -13 26 -13 64 0 45 -3 59 -14 59 -8 0 -18 -4 -21 -10z"/>
    <path d="M3423 2282 c-13 -2 -23 -8 -23 -13 0 -5 11 -7 25 -3 33 8 34 -17 3
    -39 l-23 -16 21 0 c24 -1 39 -26 23 -37 -6 -3 -22 -3 -36 1 l-26 6 12 -15 c17
    -20 41 -20 67 -2 l19 15 -11 18 c-7 11 -8 27 -3 40 10 26 -16 51 -48 45z"/>
    <path d="M3540 2279 l-35 -6 28 -2 c32 -1 32 -1 6 -52 -11 -22 -19 -48 -17
    -57 2 -9 16 11 31 46 34 74 33 79 -13 71z"/>
    <path d="M3143 2233 c-21 -8 -15 -19 10 -18 31 0 35 -18 6 -32 -16 -9 -18 -13
    -8 -13 25 0 45 -28 30 -43 -9 -9 -16 -9 -32 1 -27 17 -38 6 -13 -13 26 -20 38
    -19 60 6 14 15 16 24 8 37 -8 12 -8 22 0 35 l11 18 -19 15 c-20 14 -32 16 -53
    7z"/>
    <path d="M3253 2233 c-23 -9 -14 -20 12 -15 33 6 35 -25 3 -38 -16 -6 -18 -9
    -7 -9 28 -1 42 -26 23 -42 -12 -10 -20 -10 -35 -1 l-19 12 0 -15 c0 -25 49
    -30 72 -8 l20 21 -11 20 c-6 11 -8 28 -5 36 11 30 -20 53 -53 39z"/>
    <path d="M5950 2192 c-47 -47 -60 -103 -35 -155 43 -92 152 -60 186 54 l12 40
    -15 32 -16 32 5 -55 5 -55 -24 -35 c-31 -45 -70 -60 -106 -39 -81 45 -32 199
    63 199 22 0 34 4 30 10 -15 24 -67 10 -105 -28z"/>
    <path d="M8065 2210 c-3 -5 -1 -10 4 -10 15 0 14 -83 -1 -98 -9 -9 -6 -12 16
    -12 22 0 27 4 22 16 -3 9 -6 38 -6 65 0 47 -18 67 -35 39z"/>
    <path d="M8175 2177 c-32 -55 -31 -57 5 -57 22 0 30 -5 31 -17 0 -14 2 -15 6
    -3 3 8 11 19 17 23 8 6 7 10 -1 14 -8 2 -13 22 -13 44 0 51 -13 49 -45 -4z
    m35 -7 c0 -24 -4 -30 -21 -30 l-20 0 18 30 c9 17 19 30 20 30 2 0 3 -13 3 -30z"/>
    <path d="M8267 2214 c-4 -4 -7 -14 -7 -22 l0 -15 19 17 c20 18 41 14 41 -8 0
    -6 -16 -27 -35 -46 -19 -18 -32 -37 -29 -42 7 -12 84 -10 84 2 0 6 -14 10 -32
    10 l-32 0 33 34 c40 42 39 70 -4 74 -17 2 -34 0 -38 -4z"/>
    <path d="M3667 2128 c-46 -12 -61 -43 -52 -105 9 -62 38 -93 85 -93 l39 0 25
    33 25 32 -10 50 c-10 45 -46 97 -67 94 -4 -1 -24 -6 -45 -11z m56 -29 c-8 -8
    -16 -8 -30 0 l-18 10 30 1 c21 0 26 -3 18 -11z m-54 -8 c38 -24 45 -160 8
    -149 -19 7 -47 70 -47 109 0 48 10 58 39 40z m95 -42 c7 -37 1 -49 -24 -49
    -20 0 -30 19 -30 56 0 39 46 33 54 -7z m-16 -81 c-3 -7 -13 -15 -24 -17 l-18
    -3 13 16 c16 19 34 21 29 4z"/>
    <path d="M3654 2047 c15 -11 18 -21 12 -48 -5 -24 -3 -30 5 -22 18 18 7 77
    -16 81 l-20 4 19 -15z"/>
    <path d="M3420 2044 c-14 -37 -12 -64 10 -111 20 -45 61 -66 83 -44 8 8 7 11
    -4 11 -19 0 -52 62 -47 86 l5 19 7 -20 c5 -11 12 -32 18 -47 7 -20 17 -28 34
    -28 l24 0 0 48 c0 29 -8 59 -20 80 l-20 32 -40 0 -40 0 -10 -26z m69 -8 c7 -8
    14 -31 17 -53 l5 -38 -13 35 c-17 46 -50 49 -59 5 l-7 -30 -1 41 c0 22 2 44 6
    47 11 12 40 8 52 -7z m41 -34 c12 -45 13 -72 2 -72 -5 0 -9 15 -10 33 -1 19
    -6 46 -12 61 -6 16 -6 25 0 21 5 -3 14 -22 20 -43z m-60 -82 c6 -11 9 -20 7
    -20 -2 0 -12 9 -22 20 -10 11 -13 20 -7 20 6 0 16 -9 22 -20z"/>
    <path d="M3244 2016 c-28 -21 -27 -114 2 -153 65 -87 150 17 98 120 -26 50
    -61 61 -100 33z m41 -26 c12 -14 20 -41 23 -80 l4 -60 -20 0 c-29 0 -52 42
    -52 98 0 67 12 78 45 42z m57 -52 c8 -28 8 -44 0 -60 l-11 -23 -1 45 c0 25 -7
    56 -15 70 -8 14 -14 30 -14 35 0 19 30 -30 41 -67z"/>
    <path d="M3257 1963 c-12 -12 -7 -60 8 -73 20 -16 35 -4 35 29 0 36 -25 62
    -43 44z m28 -34 c8 -23 1 -34 -14 -24 -13 8 -15 45 -2 45 5 0 13 -9 16 -21z"/>
    <path d="M8030 2007 c-62 -31 -88 -142 -49 -206 l20 -33 32 6 c72 14 103 63
    91 146 -12 89 -39 115 -94 87z m71 -61 c16 -73 6 -122 -29 -140 l-28 -14 0 54
    c0 29 -5 59 -11 65 -8 8 -9 -7 -5 -56 l5 -67 -19 4 c-23 4 -46 89 -26 96 7 2
    12 17 12 33 0 18 4 28 10 24 6 -3 10 2 10 12 0 25 19 43 46 43 l23 0 12 -54z"/>
    <path d="M8250 1789 c0 -21 34 -69 49 -69 11 0 12 3 4 11 -6 6 -9 17 -6 24 2
    7 -4 15 -14 18 -10 3 -5 5 14 6 l31 1 -5 -39 c-3 -23 -1 -41 6 -45 7 -4 10 0
    9 11 -3 37 2 53 17 53 18 0 18 -5 4 -31 -16 -31 -2 -53 46 -73 l45 -19 0 -32
    c0 -66 67 -86 118 -35 39 39 47 72 26 115 -19 40 -41 50 -79 35 l-28 -11 -39
    21 c-21 11 -45 20 -53 20 -8 0 -15 5 -15 10 0 6 -9 10 -19 10 -10 0 -21 7 -25
    15 -6 18 -86 21 -86 4z m139 -81 c-8 -14 -14 -18 -17 -10 -4 13 17 46 25 38 3
    -2 -1 -15 -8 -28z m51 4 c0 -5 -7 -17 -15 -28 l-14 -19 -1 21 c0 11 3 24 7 27
    9 10 23 9 23 -1z m23 -40 c-6 -24 -23 -30 -23 -9 0 13 21 39 26 34 2 -2 1 -13
    -3 -25z m115 16 c23 -23 14 -68 -22 -104 l-34 -34 -26 12 c-66 29 -31 137 45
    138 14 0 30 -5 37 -12z"/>
    <path d="M8520 1660 c0 -12 -10 -24 -22 -30 -18 -7 -19 -9 -5 -9 10 -1 17 -9
    17 -21 0 -11 5 -20 10 -20 6 0 10 8 10 19 0 10 10 26 23 35 15 12 17 16 5 12
    -13 -4 -18 0 -18 14 0 11 -4 20 -10 20 -5 0 -10 -9 -10 -20z"/>
    <path d="M3396 1513 c-8 -73 -6 -76 52 -92 19 -6 49 -22 68 -36 20 -15 37 -25
    40 -23 11 12 15 127 5 146 -14 26 -100 72 -134 72 l-24 0 -7 -67z m116 16 c37
    -26 44 -46 40 -102 l-4 -44 -50 33 c-27 19 -59 34 -69 34 l-19 0 0 48 c0 27 3
    52 7 56 12 12 62 -2 95 -25z"/>
    <path d="M3426 1542 c-3 -3 -6 -19 -6 -36 l1 -31 52 -25 c28 -14 55 -26 59
    -28 5 -2 8 14 8 36 l0 40 -26 17 c-31 20 -80 36 -88 27z m85 -42 c15 -9 28
    -50 15 -50 -18 0 -96 44 -96 54 0 28 23 26 81 -4z"/>
    <path d="M6381 1547 c-29 -15 -61 -72 -61 -109 0 -56 63 -92 141 -82 34 5 49
    3 49 -5 0 -6 5 -11 11 -11 7 0 17 -7 23 -15 9 -12 21 -14 53 -9 l41 6 -20 34
    c-11 19 -26 34 -34 34 -8 0 -14 4 -14 9 0 24 -36 21 -56 -4 -14 -18 -24 -23
    -29 -16 -8 14 12 41 31 41 8 0 14 5 14 10 0 6 -4 10 -10 10 -5 0 -10 13 -10
    28 0 31 -13 51 -50 76 -29 19 -47 20 -79 3z m22 -33 c-20 -15 -37 -41 -45 -67
    l-12 -42 -4 33 c-4 38 19 79 51 92 39 16 43 10 10 -16z m81 -10 c9 -8 16 -22
    16 -30 0 -17 -37 -19 -42 -2 -3 7 -14 9 -31 4 l-27 -6 0 -35 0 -35 20 0 c11 0
    20 -4 20 -10 0 -5 4 -10 9 -10 5 0 7 9 4 20 -6 23 12 50 35 50 l15 0 -16 -18
    c-10 -10 -17 -28 -17 -40 l0 -22 -38 0 c-44 0 -62 14 -62 50 1 68 76 123 114
    84z m-34 -48 c0 -2 -3 -11 -6 -20 -9 -23 -24 -20 -24 4 0 11 7 20 15 20 8 0
    15 -2 15 -4z m110 -63 c-1 -11 -26 -43 -34 -43 -8 0 -8 35 1 43 9 9 33 9 33 0z
    m34 -29 c23 -22 20 -34 -9 -34 -24 0 -35 26 -18 43 9 9 9 9 27 -9z"/>
    <path d="M6755 1503 c-27 -9 -54 -21 -58 -27 -11 -15 1 -278 13 -290 11 -11
    96 11 116 31 15 15 21 232 8 281 -7 25 -11 25 -79 5z m65 -141 l0 -138 -46
    -12 c-26 -7 -48 -11 -50 -10 -6 7 -7 256 0 266 13 22 26 12 26 -18 0 -20 5
    -30 15 -30 19 0 32 50 15 60 -12 7 -1 14 33 19 4 0 7 -61 7 -137z"/>
    <path d="M6750 1244 c0 -33 33 -30 38 4 3 17 -2 22 -17 22 -16 0 -21 -6 -21
    -26z"/>
    <path d="M4890 1500 c0 -5 5 -10 10 -10 14 0 12 -84 -2 -98 -9 -9 -5 -12 20
    -12 18 0 32 5 32 10 0 6 -4 10 -10 10 -5 0 -10 25 -10 55 l0 55 -20 0 c-11 0
    -20 -4 -20 -10z"/>
    <path d="M4985 1499 c-6 -8 1 -9 24 -4 37 8 46 -20 10 -33 l-21 -8 27 -12 c35
    -16 27 -37 -14 -36 -33 2 -42 -10 -15 -20 38 -15 81 12 68 43 -3 9 -7 30 -8
    46 l-1 30 -32 3 c-17 2 -34 -2 -38 -9z"/>
    <path d="M5095 1500 c-4 -6 -4 -14 0 -18 3 -3 10 0 15 7 9 15 40 8 40 -9 0 -5
    -16 -27 -35 -49 -45 -49 -44 -51 11 -51 27 0 43 4 39 10 -3 6 -18 10 -33 10
    l-26 0 33 34 c41 42 39 70 -6 74 -17 2 -34 -2 -38 -8z"/>
    <path d="M8284 1448 c-4 -6 -2 -14 4 -16 15 -5 16 -92 2 -92 -5 0 -10 -5 -10
    -11 0 -6 10 -9 22 -7 l22 3 -2 50 c-5 79 -18 105 -38 73z"/>
    <path d="M8405 1435 c-8 -14 -22 -36 -30 -50 l-15 -25 25 0 c14 0 28 -7 31
    -15 8 -19 24 -20 24 -1 0 8 6 17 13 19 10 4 10 6 0 6 -9 1 -13 17 -13 46 0 50
    -12 57 -35 20z m15 -40 c0 -16 -6 -25 -15 -25 -18 0 -18 5 -5 31 14 26 20 24
    20 -6z"/>
    <path d="M8480 1450 c0 -5 11 -10 25 -10 30 0 30 3 5 -55 -23 -53 -23 -55 -12
    -55 12 0 63 110 57 121 -8 12 -75 12 -75 -1z"/>
    <path d="M7061 1411 c-22 -22 -29 -84 -12 -109 11 -18 61 -11 75 11 15 24 -3
    51 -38 55 -14 2 -26 7 -26 11 0 15 29 33 41 25 7 -4 10 -2 7 6 -7 22 -26 22
    -47 1z m44 -76 c0 -23 -34 -33 -46 -14 -10 17 9 41 30 37 9 -2 16 -12 16 -23z"/>
    <path d="M6972 1408 c-11 -15 -42 -75 -42 -83 0 -3 10 -5 21 -5 12 0 27 -8 34
    -17 l12 -17 10 20 c13 27 4 114 -12 114 -7 0 -17 -6 -23 -12z m8 -48 c0 -11
    -7 -20 -15 -20 -13 0 -14 4 -5 20 6 11 13 20 15 20 3 0 5 -9 5 -20z"/>
    <path d="M5607 1309 c-9 -5 -24 -24 -33 -41 l-16 -30 21 -15 c24 -16 28 -43 6
    -43 -8 0 -15 6 -15 13 0 19 -37 51 -44 39 -3 -6 1 -12 9 -16 15 -5 22 -46 8
    -46 -5 0 -16 14 -25 31 -11 18 -22 27 -29 23 -8 -5 -7 -10 5 -16 18 -10 22
    -43 6 -53 -5 -3 -10 0 -10 7 0 8 -7 24 -16 36 l-16 23 -14 -12 c-8 -6 -17 -9
    -21 -5 -8 8 -63 -44 -63 -60 0 -11 55 -29 75 -24 6 2 18 2 28 2 9 0 17 4 17
    10 0 5 7 8 15 5 8 -4 17 -2 21 4 3 6 12 8 19 5 7 -2 17 0 23 6 8 8 24 5 56
    -12 l44 -24 16 13 c25 21 21 110 -6 151 -26 39 -36 43 -61 29z m46 -37 c20
    -22 32 -101 18 -121 l-10 -15 -25 12 c-20 9 -26 19 -26 45 0 18 -5 38 -11 44
    -8 8 -8 17 0 32 14 26 33 27 54 3z m-187 -87 c6 -14 -3 -52 -10 -44 -2 2 -6
    16 -10 32 -7 29 10 39 20 12z m-38 -34 l4 -23 -21 11 c-12 7 -18 17 -14 27 8
    21 27 12 31 -15z"/>
    <path d="M4897 1303 c-4 -3 -7 -19 -7 -34 l0 -28 -56 -31 c-68 -39 -73 -52
    -73 -180 l0 -102 22 -22 c12 -12 94 -60 181 -105 l158 -84 55 6 c32 3 65 1 79
    -5 l24 -11 14 19 c17 23 30 260 18 349 l-7 60 -145 81 -145 82 -56 6 c-31 3
    -59 3 -62 -1z m93 -29 c0 -2 -16 -4 -35 -4 -19 0 -35 4 -35 8 0 4 16 6 35 4
    19 -2 35 -6 35 -8z m117 -46 c89 -50 179 -108 167 -108 -5 0 -30 13 -55 28
    -24 15 -83 49 -131 76 -49 26 -88 49 -88 51 0 8 46 -13 107 -47z m-95 -24 c46
    -25 112 -62 148 -81 72 -39 91 -53 72 -53 -7 0 -57 27 -112 60 -55 33 -102 60
    -105 60 -3 0 -29 13 -58 30 -29 16 -46 30 -40 30 7 0 50 -21 95 -46z m35 25
    c123 -68 212 -124 200 -127 -8 -2 -75 31 -148 72 -80 45 -125 76 -112 76 12 0
    39 -9 60 -21z m-161 -37 l-29 -27 23 32 c13 18 26 30 29 28 3 -3 -8 -18 -23
    -33z m67 5 l22 4 -18 -11 c-9 -6 -21 -9 -26 -6 -5 3 -14 -1 -21 -9 -7 -8 -17
    -15 -23 -15 -6 0 0 12 14 26 13 14 25 21 27 16 2 -6 13 -8 25 -5z m-105 -8
    c-26 -14 -22 -26 13 -44 l30 -16 45 26 c24 14 44 23 44 21 0 -3 -25 -20 -55
    -37 -30 -17 -55 -37 -55 -44 0 -7 -3 -20 -6 -29 -4 -10 -1 -16 9 -16 9 0 17
    11 19 27 2 20 16 33 63 59 l59 33 48 -26 48 -26 -30 -19 c-17 -10 -34 -18 -38
    -18 -5 0 -18 -10 -30 -22 -24 -27 -40 -78 -23 -78 10 0 13 6 15 40 1 17 65 62
    80 57 6 -3 19 2 29 11 21 19 22 4 1 -26 -18 -26 -36 -29 -27 -4 l7 17 -17 -14
    c-54 -44 16 -66 86 -27 27 15 51 25 54 22 3 -2 -17 -16 -45 -30 -81 -41 -82
    -43 -82 -163 0 -57 -3 -103 -7 -101 -5 2 -25 12 -45 21 l-38 17 0 60 c0 75
    -18 79 -22 5 l-3 -54 -47 29 -48 30 0 66 c0 41 -4 63 -10 59 -5 -3 -10 -31
    -10 -61 l0 -55 -40 23 -40 23 0 112 0 112 35 -20 c21 -13 35 -16 35 -10 0 7
    -13 19 -29 29 l-30 17 27 17 c15 10 32 18 37 18 6 -1 2 -5 -7 -11z m447 -144
    c9 -71 -4 -303 -17 -311 -22 -14 -28 27 -28 182 0 153 5 184 31 184 4 0 11
    -25 14 -55z m-155 16 c-5 -11 -15 -23 -21 -27 -6 -3 -3 5 6 20 20 30 30 35 15
    7z m45 9 c3 -5 -1 -10 -10 -10 -9 0 -13 5 -10 10 3 6 8 10 10 10 2 0 7 -4 10
    -10z m55 -175 l0 -146 -67 3 -68 3 0 104 0 103 20 15 c59 42 91 61 103 62 9 1
    12 -34 12 -144z"/>
    <path d="M4900 1085 c0 -2 14 -11 30 -20 17 -9 30 -11 30 -6 0 6 -9 15 -19 21
    -21 11 -41 13 -41 5z"/>
    <path d="M4866 1031 c-4 -5 -2 -12 3 -15 5 -4 12 -2 15 3 4 5 2 12 -3 15 -5 4
    -12 2 -15 -3z"/>
    <path d="M5020 1020 c0 -5 14 -16 30 -25 36 -19 40 -4 5 19 -28 19 -35 20 -35
    6z"/>
    <path d="M4980 961 c0 -6 5 -13 10 -16 6 -3 10 1 10 9 0 9 -4 16 -10 16 -5 0
    -10 -4 -10 -9z"/>
    <path d="M3514 1259 c-5 -9 0 -10 18 -6 14 4 28 4 31 1 9 -10 -4 -34 -19 -34
    -21 0 -17 -17 6 -23 34 -9 25 -40 -10 -35 -19 3 -29 1 -27 -6 6 -17 52 -19 66
    -2 8 9 10 24 5 38 -4 13 -8 34 -8 48 -1 19 -7 26 -28 28 -14 2 -29 -2 -34 -9z"/>
    <path d="M3620 1251 c-25 -47 -5 -111 35 -111 27 0 45 25 45 65 0 40 -18 65
    -45 65 -14 0 -29 -8 -35 -19z m48 0 c8 -5 12 -23 10 -47 l-3 -39 -20 0 c-22 0
    -31 30 -21 71 7 26 13 29 34 15z"/>
    <path d="M6282 1258 c-20 -27 -43 -79 -37 -88 3 -6 17 -10 31 -10 14 0 23 -4
    19 -9 -3 -5 -2 -12 3 -14 4 -3 12 6 19 19 6 13 7 24 2 24 -5 0 -9 20 -9 45 0
    45 -9 56 -28 33z m10 -70 c-21 -21 -32 -3 -15 22 l18 25 3 -19 c2 -10 -1 -23
    -6 -28z"/>
    <path d="M6362 1258 c-29 -29 6 -93 39 -72 7 4 10 -1 7 -12 -2 -12 -12 -19
    -25 -19 -32 -1 -38 -12 -12 -20 29 -10 69 33 69 74 0 46 -50 77 -78 49z m51
    -20 c7 -21 -4 -38 -23 -38 -23 0 -34 16 -26 35 7 18 43 20 49 3z"/>
    <path d="M4416 1171 c-4 -5 -2 -12 4 -16 15 -9 13 -92 -2 -98 -7 -3 3 -6 22
    -6 19 0 30 3 23 7 -6 4 -13 32 -15 61 -3 51 -18 75 -32 52z"/>
    <path d="M4510 1165 l-12 -15 31 6 c38 8 45 -21 9 -36 l-23 -9 23 -7 c27 -8
    30 -44 4 -44 -10 0 -24 6 -31 13 l-13 12 4 -15 c6 -21 62 -25 78 -5 11 13 11
    21 2 35 -6 11 -9 26 -6 35 14 35 -41 60 -66 30z"/>
    <path d="M4631 1171 c-9 -6 -10 -11 -2 -15 15 -10 14 -93 -1 -99 -7 -3 3 -5
    22 -5 19 0 29 2 23 5 -9 3 -13 26 -13 64 0 59 -4 66 -29 50z"/>
    <path d="M5560 1018 c-1 -2 -2 -33 -3 -71 l-2 -67 23 0 c12 0 22 5 22 10 0 6
    -4 10 -10 10 -5 0 -10 24 -10 54 0 30 -4 58 -10 61 -5 3 -10 5 -10 3z"/>
    <path d="M5649 1004 l-12 -15 25 6 c33 9 44 -9 17 -28 l-21 -15 21 -7 c12 -3
    21 -13 21 -21 0 -20 -27 -29 -45 -14 -21 17 -28 8 -11 -15 19 -26 64 -13 72
    22 5 17 3 28 -4 31 -9 3 -9 9 -1 23 20 39 -33 68 -62 33z"/>
    <path d="M5751 1003 c-5 -11 -6 -25 -1 -33 5 -8 3 -21 -3 -32 -17 -26 3 -53
    38 -53 32 0 52 24 40 51 -4 11 -8 33 -9 49 l-1 30 -27 3 c-18 2 -30 -3 -37
    -15z m52 -10 c4 -3 2 -12 -4 -20 -13 -15 -43 2 -33 18 6 11 28 12 37 2z m5
    -72 c-2 -9 -11 -17 -21 -19 -21 -4 -35 27 -17 38 19 12 42 0 38 -19z"/>
    <path d="M4812 636 l-1 -85 57 -29 c84 -44 175 -99 193 -117 15 -15 39 -21 39
    -9 0 10 -25 30 -87 68 l-62 38 0 64 c1 87 -6 101 -61 129 -77 39 -78 38 -78
    -59z m72 42 l44 -21 4 -40 c2 -21 2 -54 0 -73 l-4 -33 -49 25 c-27 15 -49 32
    -49 40 0 10 8 9 33 -6 45 -28 57 -25 57 13 0 43 -10 56 -56 72 -21 7 -40 20
    -42 29 -5 21 9 20 62 -6z m16 -102 c0 -12 -43 18 -48 34 -3 8 5 6 21 -6 15
    -10 27 -23 27 -28z"/>
    <path d="M4580 410 c-10 -6 -11 -10 -2 -10 16 0 16 -92 0 -108 -9 -9 -5 -12
    20 -12 31 0 42 13 22 25 -5 3 -10 31 -10 61 0 55 -4 61 -30 44z"/>
    <path d="M4683 413 c-22 -8 -14 -20 11 -16 31 6 42 -13 16 -29 l-20 -13 21
    -16 c12 -9 19 -21 15 -28 -9 -15 -39 -14 -54 1 -9 9 -12 9 -12 0 0 -21 40 -35
    66 -24 l23 11 -3 51 c-3 61 -22 80 -63 63z"/>
    <path d="M4795 375 c-27 -45 -26 -65 2 -65 9 0 22 -8 29 -17 l13 -18 1 17 c0
    9 6 18 13 21 10 4 10 7 0 18 -7 7 -13 30 -13 51 0 50 -13 48 -45 -7z m25 -20
    c0 -15 -6 -25 -15 -25 l-15 0 12 25 c6 14 13 25 15 25 1 0 3 -11 3 -25z"/>
    </g>
  </g>
  <g id="labels" font-family="Helvetica, Arial, sans-serif" fill="#111" font-size="14" text-rendering="geometricPrecision" opacity="0" pointer-events="none">
      <a id="pos-10" href="#pos-10"><text data-pos="10" x="324" y="246" text-anchor="middle" dominant-baseline="middle" font-size="12" font-weight="600">10</text></a>
      <a id="pos-14" href="#pos-14"><text data-pos="14" x="372" y="302" text-anchor="middle" dominant-baseline="middle" font-size="12" font-weight="600">14</text></a>
      <a id="pos-28" href="#pos-28"><text data-pos="28" x="272" y="389" text-anchor="middle" dominant-baseline="middle" font-size="12" font-weight="600">28</text></a>
      <a id="pos-30" href="#pos-30"><text data-pos="30" x="361" y="519" text-anchor="middle" dominant-baseline="middle" font-size="12" font-weight="600">30</text></a>
      <a id="pos-33" href="#pos-33"><text data-pos="33" x="322" y="423" text-anchor="middle" dominant-baseline="middle" font-size="12" font-weight="600">33</text></a>
      <a id="pos-37" href="#pos-37"><text data-pos="37" x="349" y="419" text-anchor="middle" dominant-baseline="middle" font-size="12" font-weight="600">37</text></a>
      <a id="pos-41" href="#pos-41"><text data-pos="41" x="377" y="416" text-anchor="middle" dominant-baseline="middle" font-size="12" font-weight="600">41</text></a>
      <a id="pos-46" href="#pos-46"><text data-pos="46" x="702" y="504" text-anchor="middle" dominant-baseline="middle" font-size="12" font-weight="600">46</text></a>
      <a id="pos-49" href="#pos-49"><text data-pos="49" x="635" y="520" text-anchor="middle" dominant-baseline="middle" font-size="12" font-weight="600">49</text></a>
      <a id="pos-53" href="#pos-53"><text data-pos="53" x="728" y="219" text-anchor="middle" dominant-baseline="middle" font-size="12" font-weight="600">53</text></a>
      <a id="pos-58" href="#pos-58"><text data-pos="58" x="784" y="195" text-anchor="middle" dominant-baseline="middle" font-size="12" font-weight="600">58</text></a>
      <a id="pos-62" href="#pos-62"><text data-pos="62" x="617" y="200" text-anchor="middle" dominant-baseline="middle" font-size="12" font-weight="600">62</text></a>
      <a id="pos-64" href="#pos-64"><text data-pos="64" x="646" y="187" text-anchor="middle" dominant-baseline="middle" font-size="12" font-weight="600">64</text></a>
      <a id="pos-66" href="#pos-66"><text data-pos="66" x="670" y="187" text-anchor="middle" dominant-baseline="middle" font-size="12" font-weight="600">66</text></a>
      <a id="pos-70" href="#pos-70"><text data-pos="70" x="569" y="206" text-anchor="middle" dominant-baseline="middle" font-size="12" font-weight="600">70</text></a>
      <a id="pos-74" href="#pos-74"><text data-pos="74" x="516" y="214" text-anchor="middle" dominant-baseline="middle" font-size="12" font-weight="600">74</text></a>
      <a id="pos-77" href="#pos-77"><text data-pos="77" x="473" y="216" text-anchor="middle" dominant-baseline="middle" font-size="12" font-weight="600">77</text></a>
      <a id="pos-81" href="#pos-81"><text data-pos="81" x="480" y="255" text-anchor="middle" dominant-baseline="middle" font-size="12" font-weight="600">81</text></a>
      <a id="pos-86" href="#pos-86"><text data-pos="86" x="420" y="363" text-anchor="middle" dominant-baseline="middle" font-size="12" font-weight="600">86</text></a>
      <a id="pos-90" href="#pos-90"><text data-pos="90" x="422" y="342" text-anchor="middle" dominant-baseline="middle" font-size="12" font-weight="600">90</text></a>
      <a id="pos-94" href="#pos-94"><text data-pos="94" x="422" y="385" text-anchor="middle" dominant-baseline="middle" font-size="12" font-weight="600">94</text></a>
      <a id="pos-98" href="#pos-98"><text data-pos="98" x="422" y="407" text-anchor="middle" dominant-baseline="middle" font-size="12" font-weight="600">98</text></a>
      <a id="pos-100" href="#pos-100"><text data-pos="100" x="420" y="434" text-anchor="middle" dominant-baseline="middle" font-size="12" font-weight="600">100</text></a>
      <a id="pos-102" href="#pos-102"><text data-pos="102" x="770" y="516" text-anchor="middle" dominant-baseline="middle" font-size="12" font-weight="600">102</text></a>
      <a id="pos-103" href="#pos-103"><text data-pos="103" x="866" y="482" text-anchor="middle" dominant-baseline="middle" font-size="12" font-weight="600">103</text></a>
      <a id="pos-104" href="#pos-104"><text data-pos="104" x="822" y="503" text-anchor="middle" dominant-baseline="middle" font-size="12" font-weight="600">104</text></a>
      <a id="pos-105" href="#pos-105"><text data-pos="105" x="589" y="618" text-anchor="middle" dominant-baseline="middle" font-size="10" font-weight="600">105</text></a>
      <a id="pos-106" href="#pos-106"><text data-pos="106" x="625" y="378" text-anchor="middle" dominant-baseline="middle" font-size="12" font-weight="600">106</text></a>
      <a id="pos-107" href="#pos-107"><text data-pos="107" x="564" y="341" text-anchor="middle" dominant-baseline="middle" font-size="12" font-weight="600">107</text></a>
      <a id="pos-108" href="#pos-108"><text data-pos="108" x="567" y="376" text-anchor="middle" dominant-baseline="middle" font-size="12" font-weight="600">108</text></a>
      <a id="pos-109" href="#pos-109"><text data-pos="109" x="567" y="441" text-anchor="middle" dominant-baseline="middle" font-size="12" font-weight="600">109</text></a>
      <a id="pos-110" href="#pos-110"><text data-pos="110" x="564" y="422" text-anchor="middle" dominant-baseline="middle" font-size="12" font-weight="600">110</text></a>
      <a id="pos-111" href="#pos-111"><text data-pos="111" x="506" y="535" text-anchor="middle" dominant-baseline="middle" font-size="12" font-weight="600">111</text></a>
      <a id="pos-112" href="#pos-112"><text data-pos="112" x="702" y="490" text-anchor="middle" dominant-baseline="middle" font-size="12" font-weight="600">112</text></a>
      <a id="pos-113" href="#pos-113"><text data-pos="113" x="650" y="400" text-anchor="middle" dominant-baseline="middle" font-size="12" font-weight="600">113</text></a>
      <a id="pos-114" href="#pos-114"><text data-pos="114" x="679" y="420" text-anchor="middle" dominant-baseline="middle" font-size="12" font-weight="600">114</text></a>
      <a id="pos-115" href="#pos-115"><text data-pos="115" x="481" y="291" text-anchor="middle" dominant-baseline="middle" font-size="12" font-weight="600">115</text></a>
      <a id="pos-116" href="#pos-116"><text data-pos="116" x="567" y="476" text-anchor="middle" dominant-baseline="middle" font-size="12" font-weight="600">116</text></a>
      <a id="pos-117" href="#pos-117"><text data-pos="117" x="478" y="479" text-anchor="middle" dominant-baseline="middle" font-size="12" font-weight="600">117</text></a>
      <a id="pos-118" href="#pos-118"><text data-pos="118" x="643" y="544" text-anchor="middle" dominant-baseline="middle" font-size="12" font-weight="600">118</text></a>
      <a id="pos-119" href="#pos-119"><text data-pos="119" x="600" y="65" text-anchor="middle" dominant-baseline="middle" font-size="12" font-weight="600">119</text></a>
      <a id="pos-120" href="#pos-120"><text data-pos="120" x="483" y="145" text-anchor="middle" dominant-baseline="middle" font-size="12" font-weight="600">120</text></a>
      <a id="pos-121" href="#pos-121"><text data-pos="121" x="490" y="182" text-anchor="middle" dominant-baseline="middle" font-size="12" font-weight="600">121</text></a>
      <a id="pos-124" href="#pos-124"><text data-pos="124" x="488" y="30" text-anchor="middle" dominant-baseline="middle" font-size="12" font-weight="600">124</text></a>
      <a id="pos-131" href="#pos-131"><text data-pos="131" x="455" y="529" text-anchor="middle" dominant-baseline="middle" font-size="12" font-weight="600">131</text></a>
      <a id="pos-132" href="#pos-132"><text data-pos="132" x="503" y="494" text-anchor="middle" dominant-baseline="middle" font-size="12" font-weight="600">132</text></a>
      <a id="pos-134" href="#pos-134"><text data-pos="134" x="471" y="604" text-anchor="middle" dominant-baseline="middle" font-size="12" font-weight="600">134</text></a>
      <a id="pos-138" href="#pos-138"><text data-pos="138" x="570" y="544" text-anchor="middle" dominant-baseline="middle" font-size="12" font-weight="600">138</text></a>
      <a id="pos-142" href="#pos-142"><text data-pos="142" x="819" y="425" text-anchor="middle" dominant-baseline="middle" font-size="12" font-weight="600">142</text></a>
      <a id="pos-147" href="#pos-147"><text data-pos="147" x="840" y="500" text-anchor="middle" dominant-baseline="middle" font-size="12" font-weight="600">147</text></a>
      <a id="pos-150" href="#pos-150"><text data-pos="150" x="421" y="168" text-anchor="middle" dominant-baseline="middle" font-size="12" font-weight="600">150</text></a>
      <a id="pos-159" href="#pos-159"><text data-pos="159" x="414" y="250" text-anchor="middle" dominant-baseline="middle" font-size="12" font-weight="600">159</text></a>
      <a id="pos-164" href="#pos-164"><text data-pos="164" x="818" y="144" text-anchor="middle" dominant-baseline="middle" font-size="12" font-weight="600">164</text></a>
      <a id="pos-167" href="#pos-167"><text data-pos="167" x="723" y="144" text-anchor="middle" dominant-baseline="middle" font-size="12" font-weight="600">167</text></a>
      <a id="pos-170" href="#pos-170"><text data-pos="170" x="759" y="133" text-anchor="middle" dominant-baseline="middle" font-size="12" font-weight="600">170</text></a>
      <a id="pos-175" href="#pos-175"><text data-pos="175" x="98" y="339" text-anchor="middle" dominant-baseline="middle" font-size="12" font-weight="600">175</text></a>
      <a id="pos-179" href="#pos-179"><text data-pos="179" x="211" y="249" text-anchor="middle" dominant-baseline="middle" font-size="12" font-weight="600">179</text></a>
      <a id="pos-185" href="#pos-185"><text data-pos="185" x="209" y="288" text-anchor="middle" dominant-baseline="middle" font-size="12" font-weight="600">185</text></a>
  </g>
</svg>
