<svg xmlns="http://www.w3.org/2000/svg" width="960" height="640" viewBox="0 0 960 640" role="img" aria-labelledby="title desc">
  <title id="title">Mercedes parts diagram: group-014</title>
  <desc id="desc">Mercedes parts diagram: group-014</desc>
  <g id="art">
    <metadata>
    Created by potrace 1.16, written by Peter Selinger 2001-2019
    </metadata>
    <g transform="translate(0.000000,640.000000) scale(0.100000,-0.100000)"
    fill="#000000" stroke="none">
    <path d="M1176 6253 c-15 -26 -26 -59 -24 -73 l3 -25 -32 -3 c-17 -2 -45 4
    -62 12 -34 18 -71 21 -71 6 0 -5 9 -10 20 -10 12 0 33 -6 48 -14 40 -20 91
    -26 147 -18 l49 7 23 40 c36 63 22 117 -17 70 -19 -23 -28 -18 -26 17 2 52
    -27 48 -58 -9z m44 9 c0 -22 -26 -59 -35 -50 -6 6 21 68 30 68 3 0 5 -8 5 -18z
    m63 -39 c-6 -25 -32 -58 -39 -51 -7 8 24 68 35 68 5 0 7 -8 4 -17z m-53 -38
    c0 -40 -17 -46 -45 -15 l-18 20 15 0 c9 0 21 7 28 15 18 21 20 19 20 -20z"/>
    <path d="M4856 6268 c-7 -37 -4 -43 21 -30 24 12 43 5 43 -18 0 -26 -28 -46
    -42 -32 -17 17 -33 15 -18 -3 18 -22 57 -19 71 6 15 29 -3 69 -31 69 -11 0
    -20 5 -20 10 0 6 9 10 19 10 11 0 23 5 26 10 4 6 -8 10 -28 10 l-34 0 -7 -32z"/>
    <path d="M4960 6281 c-7 -14 -7 -21 0 -21 5 0 10 4 10 9 0 15 28 20 39 7 8 -9
    1 -22 -24 -49 -46 -48 -44 -57 11 -57 25 0 43 4 40 9 -3 4 -17 6 -31 3 -33 -6
    -32 5 7 45 l33 34 -11 17 c-17 26 -60 27 -74 3z"/>
    <path d="M5526 6114 c-32 -57 -32 -54 -1 -54 15 0 28 -7 32 -16 l6 -17 11 15
    c15 21 8 118 -9 118 -7 0 -25 -21 -39 -46z m34 -13 c0 -20 -17 -37 -27 -28 -7
    8 7 47 18 47 5 0 9 -9 9 -19z"/>
    <path d="M5620 6141 c-25 -47 -4 -111 36 -111 30 0 48 40 39 86 -8 46 -55 61
    -75 25z m58 -41 c3 -42 -9 -63 -31 -54 -17 6 -25 73 -10 88 17 17 38 -1 41
    -34z"/>
    <path d="M1137 6093 c-10 -16 -7 -153 4 -153 5 0 9 5 9 10 0 6 16 10 35 10 19
    0 35 5 35 10 0 6 -16 10 -35 10 l-34 0 -3 63 c-2 34 -6 57 -11 50z"/>
    <path d="M4851 6086 c-75 -42 -58 -166 23 -166 45 0 103 109 78 146 -21 32
    -64 40 -101 20z m96 -42 c3 -8 -3 -27 -14 -42 -11 -15 -22 -35 -26 -45 -5 -13
    -15 -17 -34 -15 l-28 3 -3 33 c-5 49 20 82 64 82 22 0 37 -6 41 -16z"/>
    <path d="M4866 6018 c-11 -15 -12 -26 -5 -40 15 -28 27 -21 25 15 l-1 32 23
    -2 c12 -2 22 2 22 7 0 19 -49 10 -64 -12z"/>
    <path d="M5205 5999 c-134 -57 -166 -81 -167 -127 -2 -57 26 -73 88 -50 l32
    11 54 -33 c29 -18 63 -39 74 -46 l22 -13 -18 -53 c-34 -100 -52 -131 -108
    -190 -84 -88 -191 -144 -253 -131 l-28 5 -58 -89 c-33 -49 -72 -106 -88 -127
    l-29 -38 34 -29 c48 -40 76 -46 118 -23 l34 18 40 -23 c22 -12 43 -19 46 -15
    4 4 2 9 -4 11 -6 2 -39 22 -72 43 -65 43 -121 57 -69 19 31 -24 22 -49 -18
    -49 -24 0 -75 35 -75 52 0 5 34 59 76 119 57 82 81 109 95 107 23 -4 158 -118
    158 -135 1 -7 -23 -19 -51 -28 -60 -17 -118 -46 -118 -57 0 -11 18 -10 25 1 3
    5 36 19 73 32 175 58 306 205 366 412 9 32 21 69 26 82 l9 24 81 -50 c45 -28
    87 -48 93 -46 6 2 -2 12 -18 22 -17 10 -41 25 -55 35 -14 9 -56 34 -95 55 -38
    21 -88 51 -110 65 -95 64 -271 149 -199 96 l19 -14 -27 -7 c-39 -10 -58 0 -58
    30 0 38 30 60 158 116 146 63 174 63 208 -3 l17 -32 -6 -105 -5 -106 15 20
    c11 15 14 44 11 122 l-3 103 -30 30 c-48 48 -75 46 -210 -11z m161 -290 c19
    -11 34 -21 34 -23 0 -14 -46 -161 -62 -195 -50 -110 -177 -261 -220 -261 -8 0
    -23 10 -34 21 -10 12 -40 39 -66 60 l-48 37 33 7 c116 25 260 176 304 321 20
    62 16 60 59 33z"/>
    <path d="M1290 6030 c0 -5 14 -10 30 -10 l31 0 -16 -30 c-26 -51 -35 -80 -25
    -80 12 0 60 93 60 115 0 11 -11 15 -40 15 -22 0 -40 -4 -40 -10z"/>
    <path d="M1409 6024 c-20 -24 -16 -94 7 -111 l18 -13 20 14 c12 7 25 25 31 40
    19 54 -42 111 -76 70z m51 -50 l0 -45 -22 3 c-39 5 -36 88 2 88 l20 0 0 -46z"/>
    <path d="M8320 5975 c-135 -34 -353 -90 -485 -124 -425 -109 -605 -198 -605
    -299 0 -20 -16 -107 -35 -192 -19 -85 -35 -163 -35 -173 0 -31 -39 -106 -61
    -118 -11 -6 -29 -29 -40 -52 l-19 -42 6 -145 6 -145 -16 -30 c-9 -16 -15 -41
    -15 -55 1 -17 3 -19 6 -7 2 9 9 17 14 17 5 0 9 11 9 24 0 35 18 42 22 9 2 -14
    9 -28 17 -31 9 -3 11 2 6 18 l-7 22 20 -11 c42 -22 44 -10 4 19 l-42 30 -2 73
    c0 39 -2 77 -3 82 -1 6 -5 27 -10 48 -5 25 -3 54 5 80 13 45 93 140 107 126 4
    -4 63 -41 131 -82 153 -93 392 -201 515 -232 l94 -23 78 9 c43 6 94 16 113 25
    l35 14 -7 131 c-4 72 -12 142 -17 156 -5 13 -9 39 -9 57 0 42 -12 52 -75 60
    -194 25 -570 184 -783 331 -1 1 3 16 9 32 7 22 30 44 76 74 112 72 215 107
    653 219 525 136 612 159 618 164 13 14 -47 1 -278 -59z m-1027 -485 l35 -21
    -5 -102 c-6 -146 -6 -145 -68 -173 -46 -21 -78 -44 -62 -44 14 0 115 50 124
    62 7 7 15 67 19 131 4 65 10 114 15 110 4 -4 3 -57 -1 -118 -5 -60 -9 -127 -9
    -148 l-1 -38 -19 11 c-11 5 -28 10 -38 10 -22 0 192 -107 575 -286 l92 -43 0
    -26 c0 -15 -7 -28 -17 -32 -60 -23 -373 99 -623 244 -113 66 -140 89 -140 119
    0 29 57 305 70 339 11 30 10 30 53 5z m103 -244 c9 -3 46 3 82 14 37 10 87 24
    112 31 25 6 40 14 33 16 -6 2 -57 -8 -113 -23 -70 -18 -105 -23 -112 -16 -11
    11 -1 152 11 152 4 0 48 -20 97 -44 117 -58 304 -132 394 -155 39 -11 73 -21
    75 -23 5 -5 -22 -328 -28 -334 -2 -3 -87 35 -188 84 -101 49 -235 113 -297
    143 l-114 53 6 61 c3 33 9 101 13 150 l8 90 3 -97 c2 -76 6 -97 18 -102z m684
    -66 c4 -7 13 -88 20 -182 l13 -171 -18 -13 c-10 -8 -41 -17 -69 -21 -28 -3
    -53 -7 -55 -7 -2 -1 -5 7 -7 17 -3 19 6 19 49 2 9 -4 17 -3 17 3 0 5 -14 15
    -30 22 l-31 13 5 41 c3 22 8 79 11 126 3 47 8 109 12 139 l6 53 35 -6 c19 -3
    38 -10 42 -16z"/>
    <path d="M2815 5990 c-3 -5 -1 -10 4 -10 16 0 14 -97 -1 -103 -7 -3 3 -5 22
    -5 19 0 29 2 23 5 -9 3 -13 26 -13 64 0 45 -3 59 -14 59 -8 0 -18 -4 -21 -10z"/>
    <path d="M2910 5981 c-33 -62 24 -143 68 -99 16 16 16 90 0 106 -18 18 -56 14
    -68 -7z m58 -41 c3 -46 -12 -67 -35 -48 -16 13 -17 70 -1 86 21 21 33 8 36
    -38z"/>
    <path d="M3023 5994 c-7 -3 -13 -13 -13 -21 l0 -16 20 18 20 18 15 -13 16 -13
    -36 -37 c-46 -47 -45 -60 6 -60 24 0 38 4 34 10 -3 6 -15 10 -26 10 -25 0 -24
    8 7 37 45 41 13 90 -43 67z"/>
    <path d="M3440 5961 c-14 -5 -90 -42 -170 -83 -80 -42 -178 -85 -218 -98 l-73
    -22 -28 11 c-27 12 -234 2 -247 -12 -3 -3 -7 -30 -7 -59 l-2 -53 75 4 c41 1
    93 6 115 10 28 5 48 2 66 -8 l26 -15 69 23 c38 13 141 59 229 103 198 99 206
    100 350 38 54 -24 154 -55 159 -49 2 2 6 26 8 53 l3 50 -75 29 c-118 45 -239
    87 -247 86 -5 0 -19 -4 -33 -8z m139 -45 c47 -18 111 -42 141 -52 l55 -19 3
    -38 c2 -20 0 -37 -4 -37 -3 0 -62 20 -131 45 -77 28 -141 45 -168 45 l-45 0
    -144 -75 c-79 -41 -147 -75 -150 -75 -3 0 -6 17 -6 39 l0 39 158 80 c86 45
    168 81 181 82 13 0 62 -15 110 -34z m-467 -181 l4 -35 -52 -15 c-77 -22 -84
    -21 -84 20 l0 34 43 11 c23 6 47 13 52 15 25 9 33 3 37 -30z m-240 -16 c5 -50
    6 -49 -59 -49 l-53 0 0 39 c0 43 7 48 71 50 l37 1 4 -41z m48 1 c0 -22 -4 -40
    -10 -40 -5 0 -10 4 -10 9 0 5 -3 23 -6 40 -5 24 -3 31 10 31 12 0 16 -10 16
    -40z m-180 -10 c0 -29 -4 -40 -15 -40 -15 0 -22 60 -8 73 15 16 23 5 23 -33z
    m228 -4 l3 -39 -16 7 c-9 3 -19 6 -21 6 -2 0 -4 16 -4 36 l0 35 18 -3 c12 -2
    18 -15 20 -42z"/>
    <path d="M3617 5874 c-3 -3 1 -13 9 -21 8 -9 18 -12 21 -9 4 4 0 13 -8 21 -8
    9 -18 13 -22 9z"/>
    <path d="M3714 5835 c3 -9 6 -19 6 -21 0 -2 7 -4 16 -4 22 0 13 34 -10 38 -14
    3 -17 0 -12 -13z"/>
    <path d="M4984 5935 c10 -8 23 -12 29 -8 11 7 -12 23 -33 23 -12 -1 -11 -4 4
    -15z"/>
    <path d="M5256 5898 c-72 -36 -68 -46 8 -17 31 12 59 20 62 17 2 -3 0 -25 -5
    -49 -5 -24 -8 -45 -5 -48 9 -10 17 11 22 57 6 70 -9 77 -82 40z"/>
    <path d="M1051 5899 c-45 -14 -110 -59 -149 -104 -35 -40 -39 -57 -17 -75 24
    -20 68 -2 113 45 23 24 55 51 72 60 l31 16 47 -45 c96 -91 323 -251 542 -381
    142 -85 555 -294 710 -360 148 -62 241 -103 260 -114 23 -13 24 -38 0 -96 -29
    -71 -24 -96 19 -108 l34 -8 26 19 c19 14 28 33 35 68 16 97 -26 177 -111 209
    -49 18 -108 44 -221 96 -35 16 -65 29 -67 29 -10 0 -299 143 -395 195 -194
    106 -215 118 -265 150 -27 18 -75 47 -105 65 -108 63 -321 222 -405 301 -45
    43 -96 55 -154 38z m170 -80 c74 -62 210 -165 257 -194 10 -6 56 -36 103 -67
    266 -173 618 -356 989 -513 l145 -61 9 -33 c16 -54 -33 -176 -59 -149 -3 3 2
    19 11 37 17 35 21 98 7 112 -5 5 -67 33 -138 63 -340 141 -665 305 -925 466
    -153 95 -206 131 -320 216 -74 56 -146 113 -159 128 -39 41 -75 35 -133 -23
    -56 -56 -75 -50 -28 9 47 60 78 80 120 80 l38 0 83 -71z m-261 -4 l-33 -34 11
    -26 12 -25 -25 0 c-41 0 -33 42 17 84 53 46 62 46 18 1z m1774 -1046 c-15 -17
    -54 -27 -54 -14 0 2 11 21 25 41 14 21 29 56 33 78 l7 41 3 -64 c2 -49 -1 -68
    -14 -82z"/>
    <path d="M5079 5889 c-8 -15 -8 -24 0 -32 8 -8 11 -6 11 6 0 10 7 20 15 23 19
    8 19 24 0 24 -8 0 -19 -9 -26 -21z"/>
    <path d="M4244 5799 c-4 -7 -2 -15 4 -17 16 -5 16 -89 0 -95 -7 -3 3 -6 22 -6
    19 0 30 3 23 7 -6 4 -13 32 -15 61 -3 53 -18 75 -34 50z"/>
    <path d="M4347 5803 c-4 -3 -7 -19 -7 -34 l0 -28 27 2 c22 2 29 -3 31 -21 4
    -27 -22 -40 -43 -22 l-15 12 0 -16 c0 -21 53 -22 70 -1 20 24 4 65 -25 65 -16
    0 -25 6 -25 15 0 9 9 15 25 15 14 0 25 5 25 10 0 11 -53 14 -63 3z"/>
    <path d="M5831 5754 c-32 -53 -32 -64 4 -64 13 0 25 -6 28 -12 9 -28 20 5 18
    55 -3 73 -14 77 -50 21z m29 -19 c0 -16 -6 -25 -15 -25 -18 0 -18 5 -5 31 14
    26 20 24 20 -6z"/>
    <path d="M5930 5786 c-6 -8 -11 -25 -9 -38 1 -13 -1 -31 -6 -41 -10 -24 13
    -49 43 -45 34 4 51 32 35 57 -9 14 -9 21 0 30 9 10 7 17 -12 32 -28 23 -35 23
    -51 5z m50 -27 c0 -16 -31 -22 -43 -10 -9 9 -9 14 2 20 16 10 41 4 41 -10z
    m-2 -60 c4 -19 -19 -31 -38 -19 -18 11 -4 42 17 38 10 -2 19 -10 21 -19z"/>
    <path d="M3563 5717 c-18 -7 -45 -27 -61 -44 l-29 -33 -42 0 -43 0 -34 -34
    c-24 -24 -34 -43 -34 -66 0 -23 10 -41 34 -66 45 -45 92 -47 137 -6 l32 29 1
    45 2 45 31 29 c16 16 35 44 42 63 19 56 18 57 -36 38z m11 -51 l-6 -27 -19 17
    c-25 22 -24 38 1 31 11 -3 20 0 20 6 0 6 2 8 5 5 4 -3 3 -18 -1 -32z m-50 -12
    c9 -3 16 -15 16 -27 l0 -20 -20 18 c-30 27 -28 41 4 29z m-43 -63 c31 -32 40
    -81 14 -81 -8 0 -15 -6 -15 -13 0 -51 -83 -57 -120 -10 -51 65 0 130 72 92 11
    -6 22 -8 25 -6 3 3 -12 15 -34 26 l-38 20 33 1 c24 0 42 -8 63 -29z m33 13 l6
    -17 -15 13 c-17 14 -19 20 -6 20 5 0 12 -7 15 -16z"/>
    <path d="M3401 5558 c0 -10 -12 -18 -28 -20 l-28 -4 28 -14 c15 -7 27 -22 28
    -34 1 -16 2 -17 6 -4 2 9 16 18 31 20 l27 4 -27 13 c-15 8 -29 23 -31 35 -3
    14 -5 15 -6 4z"/>
    <path d="M4330 5568 c-58 -16 -109 -34 -115 -39 -5 -5 -10 -37 -10 -71 l-1
    -62 -53 -12 -53 -12 -56 34 c-31 19 -60 34 -64 34 -5 0 -8 -28 -6 -62 l3 -61
    57 -31 56 -31 134 33 c176 44 168 42 168 54 0 5 -6 8 -14 5 -17 -7 -24 8 -18
    40 2 13 12 23 21 23 l16 0 -15 -10 c-18 -11 -19 -11 65 -53 39 -19 119 -65
    180 -101 96 -58 135 -76 135 -62 0 5 -168 106 -176 106 -5 0 -142 77 -152 86
    -2 1 15 30 37 63 53 78 63 104 51 136 l-10 25 -37 -1 c-21 0 -85 -14 -143 -31z
    m170 7 c17 -21 9 -43 -41 -119 -48 -71 -54 -76 -62 -46 -3 12 -14 20 -26 20
    -12 0 -21 3 -21 8 0 4 -28 23 -61 41 l-62 34 17 9 c20 11 204 65 227 67 9 0
    22 -6 29 -14z m-214 -116 l54 -30 0 -45 c0 -52 -7 -53 -70 -15 l-45 27 -3 47
    c-2 26 0 47 4 47 3 0 31 -14 60 -31z m-277 -75 c-6 -7 -9 -25 -7 -38 4 -17 1
    -23 -9 -19 -8 3 -13 22 -13 49 l0 45 21 -11 c16 -9 18 -14 8 -26z m60 -18 l28
    -15 64 11 64 11 39 -23 39 -24 -84 -22 c-111 -30 -119 -30 -120 4 l-2 27 -4
    -27 c-5 -33 -5 -33 -45 -12 l-31 16 16 10 c20 11 23 32 3 25 -20 -8 -28 4 -15
    20 14 16 14 16 48 -1z"/>
    <path d="M4414 5545 c-8 -21 2 -45 19 -45 20 0 40 27 33 45 -7 19 -45 20 -52
    0z m36 -15 c0 -5 -4 -10 -10 -10 -5 0 -10 5 -10 10 0 6 5 10 10 10 6 0 10 -4
    10 -10z"/>
    <path d="M4260 5416 c0 -13 6 -29 14 -35 21 -18 39 18 21 42 -18 24 -35 21
    -35 -7z"/>
    <path d="M5637 5583 c-26 -30 -22 -79 8 -99 14 -9 25 -22 25 -29 0 -23 51 -55
    87 -55 50 0 83 37 83 93 0 55 -22 77 -88 89 -26 5 -58 11 -72 14 -17 4 -31 -1
    -43 -13z m66 -9 c3 -4 -3 -18 -13 -32 -11 -13 -20 -31 -20 -38 0 -19 -28 -6
    -35 17 -13 38 41 80 68 53z m31 -38 c-19 -19 -34 -44 -34 -57 0 -16 -3 -20
    -10 -13 -15 15 3 57 36 83 41 32 46 25 8 -13z m87 -10 c15 -32 0 -74 -34 -100
    -36 -26 -61 -13 -65 36 -6 69 74 121 99 64z"/>
    <path d="M5757 5512 c-26 -28 -22 -72 5 -72 l22 0 -18 13 c-11 8 -15 19 -10
    30 7 20 25 22 42 5 9 -9 12 -9 12 3 0 15 -19 39 -30 39 -4 0 -14 -8 -23 -18z"/>
    <path d="M774 5540 c-19 -7 -106 -103 -273 -298 -31 -37 -57 -78 -62 -100 -13
    -55 -11 -120 3 -124 9 -3 14 -40 16 -117 l4 -112 -19 -19 -20 -18 5 -83 c5
    -98 1 -91 116 -187 318 -263 889 -594 1366 -792 55 -23 148 -65 247 -113 16
    -7 29 -7 45 1 l23 11 -30 0 -29 1 22 16 c24 17 31 80 12 128 l-9 25 27 23 27
    23 -5 114 -5 114 -18 3 c-25 3 -34 13 -20 22 6 4 14 22 18 40 4 18 18 44 31
    57 13 13 24 34 24 46 0 12 37 65 88 125 109 131 125 158 118 208 -6 50 -34 77
    -116 109 -36 14 -148 63 -250 109 -508 230 -937 488 -1213 730 -80 70 -87 73
    -123 58z m160 -112 c296 -245 658 -460 1166 -690 96 -44 209 -93 250 -110 91
    -36 98 -41 106 -82 8 -48 -13 -87 -114 -212 -50 -61 -92 -121 -94 -134 -3 -23
    -15 -33 -52 -44 l-18 -6 12 -15 c14 -17 4 -54 -19 -72 l-16 -13 23 -19 c12
    -11 26 -21 31 -23 13 -5 26 -208 13 -208 -6 0 -23 -11 -38 -25 l-27 -25 12
    -14 c16 -19 10 -118 -6 -124 -22 -6 -18 147 4 163 l16 12 -1 109 -2 109 -23
    18 -23 18 8 66 7 65 48 55 c27 30 62 72 78 93 17 20 54 65 83 99 84 100 72
    150 -46 202 -43 18 -148 68 -236 111 -87 44 -161 77 -164 74 -3 -3 -3 -8 -1
    -10 7 -7 286 -146 293 -146 3 0 45 -18 92 -41 92 -44 115 -72 95 -115 -5 -12
    -66 -87 -134 -167 l-125 -144 -7 -70 -7 -70 -111 49 c-578 255 -1189 620
    -1509 901 l-57 50 4 26 c17 111 -6 76 228 348 67 79 103 110 129 112 4 1 63
    -45 132 -101z m-346 -533 c308 -245 605 -426 1117 -680 105 -52 249 -120 320
    -152 l130 -59 3 -97 3 -97 -53 24 c-29 13 -120 54 -203 91 -582 259 -1096 565
    -1383 822 l-42 38 -6 98 c-4 53 -4 97 1 97 4 0 55 -38 113 -85z m-54 -184 c29
    -27 80 -68 112 -92 33 -24 68 -51 79 -61 11 -11 40 -31 65 -45 25 -14 65 -41
    90 -59 67 -48 247 -157 399 -241 124 -68 512 -263 525 -263 3 0 54 -23 113
    -51 59 -28 136 -62 171 -76 34 -14 62 -30 62 -35 0 -17 -41 -2 -272 103 -592
    268 -1033 525 -1350 788 -43 35 -78 68 -78 73 0 21 34 4 84 -41z m-25 -39
    c169 -144 468 -345 696 -468 194 -104 377 -198 459 -235 50 -22 123 -56 161
    -75 39 -19 122 -56 185 -83 l115 -48 3 -72 3 -73 -22 7 c-51 17 -492 217 -614
    280 -456 235 -862 498 -1013 657 l-32 34 -6 62 c-4 34 -3 62 1 62 4 0 33 -22
    64 -48z"/>
    <path d="M580 5039 c109 -95 461 -336 615 -419 44 -24 87 -49 95 -56 18 -15
    563 -288 676 -338 84 -37 153 -51 79 -16 -22 11 -98 47 -170 81 -538 254 -848
    433 -1192 690 -136 102 -182 128 -103 58z"/>
    <path d="M6265 5461 c-25 -50 -24 -61 6 -61 10 0 22 -8 28 -17 l10 -18 8 22
    c12 33 4 111 -13 117 -9 4 -22 -11 -39 -43z m35 -16 c0 -18 -5 -25 -20 -25
    l-20 0 16 25 c9 14 18 25 20 25 2 0 4 -11 4 -25z"/>
    <path d="M6376 5467 c-32 -54 -32 -67 -2 -67 13 0 26 -6 29 -12 3 -9 9 -7 20
    7 9 11 11 22 6 23 -5 2 -9 21 -9 42 0 55 -15 57 -44 7z m24 -22 c0 -16 -6 -25
    -15 -25 -18 0 -18 5 -5 31 14 26 20 24 20 -6z"/>
    <path d="M8855 5446 c-110 -29 -238 -64 -285 -79 -47 -14 -114 -33 -150 -42
    -89 -22 -314 -87 -319 -91 -2 -2 1 -9 7 -16 5 -7 12 -35 15 -63 2 -27 10 -81
    16 -120 6 -38 15 -107 19 -152 l8 -82 -21 -7 -20 -7 27 -4 26 -4 4 -39 3 -40
    -36 -14 c-87 -35 -292 -86 -344 -86 -69 0 -185 28 -192 46 -3 8 5 29 17 49 38
    62 31 69 -140 150 -85 40 -182 89 -215 109 -60 37 -95 43 -103 17 -3 -9 1 -11
    16 -7 13 5 61 -15 153 -64 74 -39 170 -86 214 -105 44 -18 81 -38 83 -43 1 -5
    -9 -27 -23 -47 -14 -21 -25 -42 -25 -46 0 -16 -30 -9 -93 20 -139 65 -200 91
    -211 91 -6 -1 11 -12 38 -26 l49 -26 -19 -17 c-11 -10 -68 -40 -129 -66 -60
    -27 -165 -75 -233 -107 -68 -32 -125 -58 -128 -58 -2 0 -48 -21 -102 -46 -53
    -26 -149 -70 -212 -99 -63 -29 -180 -83 -260 -120 -80 -37 -192 -89 -250 -115
    -58 -26 -139 -63 -180 -83 -41 -19 -124 -58 -185 -85 -108 -49 -274 -126 -570
    -264 -82 -39 -197 -92 -255 -118 -58 -26 -149 -68 -202 -94 -53 -25 -99 -46
    -102 -46 -3 0 -49 -21 -103 -46 -54 -26 -159 -74 -233 -109 -192 -88 -190 -87
    -190 -97 0 -12 -2 -13 154 62 79 38 147 70 149 70 3 0 67 29 142 65 75 36 138
    65 141 65 3 0 61 27 130 60 69 33 127 60 130 60 3 0 76 33 162 74 341 160 461
    216 467 216 3 0 56 24 118 54 62 30 153 72 202 94 50 22 169 77 265 122 96 45
    220 102 275 127 55 24 147 67 204 94 57 27 131 61 165 76 33 14 88 39 121 56
    33 16 91 43 130 58 l69 29 26 -24 c77 -72 404 -241 545 -281 50 -14 129 -29
    176 -32 l87 -6 12 -41 c16 -55 44 -83 115 -117 91 -44 134 -40 214 21 100 76
    128 253 54 341 -27 32 -110 79 -140 79 -31 0 0 17 43 24 64 9 118 -46 139
    -141 3 -18 10 -35 14 -38 9 -5 524 148 540 162 23 18 -78 -6 -216 -51 l-23 -7
    0 170 c0 107 4 171 10 171 6 0 10 5 10 11 0 6 -9 8 -20 4 -16 -5 -20 -2 -20
    14 0 12 6 21 16 21 8 0 57 13 107 29 51 16 120 37 155 47 34 9 62 21 62 26 0
    6 -8 7 -17 3 -10 -3 -83 -24 -162 -46 -156 -43 -161 -43 -161 16 l0 31 113 31
    c61 18 174 50 250 71 128 37 169 52 138 52 -18 0 -375 -98 -442 -121 -30 -10
    -58 -19 -61 -19 -3 0 -8 37 -11 83 -4 45 -8 93 -11 107 -2 14 -7 61 -11 105
    -3 44 -8 89 -11 101 l-5 21 78 21 c245 64 429 116 438 124 16 14 -13 8 -220
    -46z m-312 -113 c7 -11 36 -267 39 -342 l3 -65 -185 -54 c-102 -29 -192 -56
    -202 -59 l-16 -5 -7 59 c-4 32 -9 69 -11 83 -2 14 -9 72 -14 130 -6 58 -12
    113 -13 123 -2 21 49 41 253 98 156 43 147 41 153 32z m55 -470 l-3 -47 -110
    -32 c-60 -17 -149 -43 -197 -56 l-86 -24 -6 39 c-8 49 -11 46 82 74 42 13 127
    38 187 58 142 44 137 45 133 -12z m2 -86 c0 -7 -39 -23 -87 -36 -49 -14 -134
    -39 -190 -58 -114 -37 -133 -39 -133 -19 0 13 130 59 310 109 87 24 100 25
    100 4z m11 -69 c2 -24 2 -101 -1 -172 l-5 -129 -115 -33 c-63 -18 -120 -34
    -126 -34 -6 0 -16 24 -23 53 -16 70 -49 126 -91 155 -33 22 -57 70 -42 83 4 3
    45 16 92 29 47 12 108 31 135 41 59 21 145 47 161 48 6 1 13 -18 15 -41z
    m-1011 -106 c0 -34 -19 -35 -91 -8 -134 51 -191 84 -133 77 6 -1 17 5 23 13
    l11 13 95 -36 95 -36 0 -23z m580 53 c0 -10 -21 -21 -60 -32 -33 -9 -60 -20
    -60 -25 0 -10 -6 -11 68 11 l62 19 0 -25 c0 -36 16 -60 45 -67 26 -7 69 -63
    79 -106 5 -18 1 -14 -14 12 -40 73 -82 83 -210 47 -90 -24 -141 -68 -160 -135
    l-13 -44 -70 0 c-38 0 -109 9 -158 21 l-89 21 0 20 c0 16 5 19 23 15 161 -37
    167 -37 167 22 0 82 -13 96 -122 126 l-58 16 0 35 c0 27 4 35 14 31 54 -21
    112 -30 186 -30 l85 1 125 40 c140 45 160 49 160 27z m-868 -52 c3 -27 3 -50
    1 -52 -2 -3 -28 8 -59 25 l-55 29 48 22 c63 29 60 30 65 -24z m30 7 c-2 -16
    -8 -30 -13 -30 -10 0 -12 43 -2 53 14 14 19 6 15 -23z m135 -19 c48 -22 96
    -42 106 -45 l17 -5 0 -62 c0 -45 -3 -60 -12 -56 -7 3 -54 21 -103 41 l-91 36
    1 43 c0 23 -4 52 -8 65 -11 28 -13 29 90 -17z m-97 -14 c0 -10 -4 -15 -10 -12
    -5 3 -10 18 -10 33 0 21 2 24 10 12 5 -8 10 -23 10 -33z m-140 -12 c32 -19
    105 -56 162 -81 191 -85 188 -83 188 -105 l0 -20 -22 6 c-56 16 -363 175 -407
    211 -4 4 9 24 16 24 3 0 31 -16 63 -35z m-60 -19 c192 -129 512 -256 660 -261
    92 -3 90 -2 90 -35 0 -38 -23 -44 -143 -37 -119 7 -185 25 -337 95 -124 56
    -337 178 -374 213 l-20 18 35 15 c45 20 49 20 89 -8z m190 -6 c6 -11 7 -20 2
    -20 -5 0 -17 9 -27 20 l-18 20 16 0 c9 0 21 -9 27 -20z m345 -37 c49 -17 55
    -26 55 -85 l0 -48 -17 1 c-10 0 -43 8 -73 17 l-55 18 -3 62 -3 63 28 -7 c15
    -4 46 -13 68 -21z m425 -63 c0 -13 11 -19 46 -23 200 -22 115 -397 -91 -397
    -40 0 -102 48 -111 86 -3 13 -11 24 -16 24 -10 0 -8 -17 7 -54 l8 -18 -21 11
    c-30 16 -52 52 -59 95 l-6 36 17 0 c25 0 39 41 28 81 -16 59 26 141 86 170 41
    20 112 13 112 -11z"/>
    <path d="M8355 5271 c-72 -21 -144 -44 -160 -52 l-30 -15 1 -69 c2 -107 20
    -255 33 -268 21 -21 344 72 361 104 14 25 -13 289 -32 319 -17 26 -20 26 -173
    -19z m172 -81 c7 -52 16 -119 21 -148 l9 -53 -23 -18 c-13 -10 -76 -33 -140
    -51 -65 -18 -129 -36 -144 -40 -15 -4 -32 -5 -38 -1 -13 8 -44 290 -33 309 10
    17 274 101 311 99 l25 -2 12 -95z"/>
    <path d="M8084 4305 c-91 -96 -23 -261 83 -202 65 36 93 143 54 205 l-21 32
    -41 0 -42 0 -33 -35z m103 17 c7 -4 19 -25 28 -45 41 -99 -65 -214 -137 -150
    -23 20 -24 102 -3 143 23 44 81 71 112 52z"/>
    <path d="M3305 5350 c-3 -5 -1 -10 5 -10 8 0 11 -18 8 -55 l-3 -55 25 1 c14 0
    19 3 13 6 -9 3 -13 26 -13 64 0 45 -3 59 -14 59 -8 0 -18 -4 -21 -10z"/>
    <path d="M3406 5344 c-33 -32 -13 -114 27 -114 34 0 47 19 47 65 0 61 -38 86
    -74 49z m52 -48 c4 -46 -10 -65 -33 -46 -15 13 -21 71 -8 84 18 18 38 -1 41
    -38z"/>
    <path d="M3528 5353 c38 -5 37 0 12 -59 -30 -69 -18 -79 13 -10 35 75 35 76
    -15 74 l-43 -1 33 -4z"/>
    <path d="M6036 5324 c-32 -31 -20 -61 38 -95 31 -19 61 -46 71 -66 33 -61 100
    -80 148 -43 27 22 43 74 33 107 -10 31 -81 66 -116 58 -23 -5 -43 0 -85 24
    -63 36 -68 37 -89 15z m27 -30 c-9 -15 -19 -21 -21 -15 -6 19 6 41 23 41 l15
    0 -17 -26z m47 -1 c-1 -11 -26 -43 -34 -43 -8 0 -8 35 1 43 9 9 33 9 33 0z
    m40 -18 c0 -12 -34 -44 -42 -39 -12 8 10 44 27 44 8 0 15 -2 15 -5z m101 -14
    c-8 -5 -20 -7 -28 -4 -21 8 -15 13 15 13 20 0 23 -3 13 -9z m-53 -47 c-12 -25
    -23 -30 -33 -14 -9 15 14 50 30 44 11 -5 12 -11 3 -30z m110 -11 c7 -72 -66
    -114 -98 -55 l-16 27 15 27 c15 25 43 37 81 34 9 -1 16 -13 18 -33z m-118 -54
    c0 -6 -4 -7 -10 -4 -5 3 -10 11 -10 16 0 6 5 7 10 4 6 -3 10 -11 10 -16z"/>
    <path d="M4918 5293 c-8 -10 -18 -24 -22 -30 -9 -17 11 -53 29 -53 20 0 19 17
    -2 29 -14 8 -16 14 -7 27 14 24 34 29 34 10 0 -9 5 -16 10 -16 14 0 13 23 -2
    38 -16 16 -22 15 -40 -5z"/>
    <path d="M4821 5161 c-12 -12 -21 -25 -21 -30 0 -24 14 -41 34 -41 l21 1 -18
    14 c-29 21 -13 59 20 50 18 -4 24 -2 21 7 -7 21 -35 21 -57 -1z"/>
    <path d="M5492 5084 c-27 -18 -31 -94 -7 -114 26 -21 65 -4 65 29 0 33 -22 56
    -46 47 -11 -4 -14 -1 -12 12 2 9 13 18 26 20 12 2 22 8 22 13 0 14 -23 11 -48
    -7z m43 -79 c0 -23 -34 -33 -45 -14 -13 20 1 40 24 37 13 -2 21 -10 21 -23z"/>
    <path d="M5066 5069 c-101 -80 -52 -227 68 -205 55 10 96 68 96 134 l0 40 -31
    26 c-39 33 -95 35 -133 5z m8 -31 c-16 -18 -30 -35 -31 -37 -2 -2 -3 0 -3 6 0
    12 46 63 56 63 4 0 -5 -15 -22 -32z m129 0 c21 -24 22 -48 3 -92 -41 -99 -171
    -83 -152 18 17 89 100 130 149 74z m-166 -85 c-3 -10 -5 -4 -5 12 0 17 2 24 5
    18 2 -7 2 -21 0 -30z"/>
    <path d="M5112 4998 c-6 -6 -12 -25 -12 -40 l0 -28 24 0 c30 0 49 22 44 52 -3
    26 -36 36 -56 16z m38 -23 c0 -16 -27 -32 -37 -22 -3 4 -3 13 0 22 8 20 37 20
    37 0z"/>
    <path d="M5590 5080 c0 -5 5 -10 11 -10 8 0 10 -18 7 -55 l-5 -55 24 0 c13 0
    23 5 23 10 0 6 -4 10 -10 10 -5 0 -10 25 -10 55 l0 55 -20 0 c-11 0 -20 -4
    -20 -10z"/>
    <path d="M5300 4937 c-30 -15 -55 -58 -47 -80 9 -23 43 -21 67 3 26 26 42 25
    38 -2 l-3 -23 -52 -9 c-47 -8 -74 -26 -39 -26 7 0 19 -7 26 -15 25 -31 84 -16
    105 26 28 53 18 102 -26 124 -34 18 -37 18 -69 2z m86 -42 l16 -24 -12 -36
    c-13 -40 -50 -62 -78 -46 l-17 10 15 5 c8 3 24 6 35 8 29 5 44 54 23 75 l-17
    16 -25 -17 c-30 -19 -34 -11 -9 16 22 25 50 23 69 -7z"/>
    <path d="M4801 4797 c-53 -64 9 -157 65 -96 24 27 9 52 -36 59 l-34 5 18 18
    c10 10 25 16 32 13 8 -3 14 -1 14 4 0 15 -46 12 -59 -3z m47 -75 c3 -16 -2
    -22 -17 -22 -24 0 -33 13 -25 35 9 23 38 14 42 -13z"/>
    <path d="M4915 4767 c-30 -53 -31 -57 -4 -57 12 0 28 -8 35 -17 l13 -18 1 17
    c0 9 6 19 13 22 10 5 10 7 0 12 -7 3 -13 23 -13 45 0 51 -13 49 -45 -4z m25
    -17 c0 -11 -7 -20 -15 -20 l-15 0 12 20 c7 11 14 20 15 20 2 0 3 -9 3 -20z"/>
    <path d="M5472 4788 c-7 -7 -12 -25 -12 -40 l0 -28 53 -29 c31 -18 59 -43 70
    -63 37 -68 110 -86 158 -39 68 69 8 173 -90 157 -28 -4 -47 1 -88 24 -58 33
    -73 36 -91 18z m26 -33 c-6 -13 -14 -22 -19 -20 -12 8 2 45 17 45 11 0 11 -5
    2 -25z m39 -20 c-14 -29 -27 -33 -27 -7 0 22 8 32 26 32 9 0 10 -6 1 -25z m36
    -19 c-11 -14 -22 -21 -27 -16 -11 11 11 40 31 40 11 0 10 -5 -4 -24z m120 7
    c-7 -2 -21 -2 -30 0 -10 3 -4 5 12 5 17 0 24 -2 18 -5z m-53 -43 c-23 -43 -49
    -30 -29 14 9 20 15 23 25 15 10 -8 11 -16 4 -29z m108 -20 c6 -69 -67 -108
    -98 -52 l-16 27 15 27 c16 27 37 37 76 34 15 -1 21 -9 23 -36z m-112 -57 c-7
    -7 -26 7 -26 19 0 6 6 6 15 -2 9 -7 13 -15 11 -17z"/>
    <path d="M7183 4739 c49 -28 92 -48 95 -45 7 8 9 6 -79 54 -109 60 -122 52
    -16 -9z"/>
    <path d="M8896 4613 c-4 -9 -2 -21 3 -26 6 -6 8 -41 6 -81 -3 -39 -9 -181 -15
    -316 -15 -347 -38 -818 -50 -1000 -5 -85 -14 -245 -20 -355 -36 -702 -34 -645
    -22 -645 5 0 9 6 9 13 0 6 4 59 7 117 3 58 13 247 21 420 8 173 22 450 30 615
    8 165 22 440 30 610 8 171 18 358 21 416 l7 107 76 22 c42 12 80 26 86 31 14
    14 -3 11 -75 -11 -36 -11 -71 -20 -77 -20 -16 0 -17 44 -2 71 7 15 7 24 -2 35
    -15 18 -25 18 -33 -3z"/>
    <path d="M5650 4439 l0 -41 15 12 c21 18 47 5 43 -22 l-3 -23 -35 2 -35 3 19
    -15 c23 -18 31 -18 57 -5 39 21 10 98 -33 87 -12 -4 -18 -1 -15 6 2 7 16 13
    30 15 39 5 33 22 -8 22 l-35 0 0 -41z"/>
    <path d="M5767 4463 c-27 -32 -26 -98 3 -113 33 -17 62 4 58 43 l-3 32 -28 3
    c-32 4 -31 25 1 30 12 2 22 8 22 13 0 16 -36 10 -53 -8z m47 -62 c10 -16 -5
    -41 -24 -41 -20 0 -30 17 -22 38 5 14 38 16 46 3z"/>
    <path d="M2550 4420 c0 -5 5 -10 10 -10 15 0 13 -97 -2 -103 -9 -3 -7 -7 5
    -12 9 -4 25 -4 35 0 11 5 13 9 5 12 -9 3 -13 26 -13 64 l0 59 -20 0 c-11 0
    -20 -4 -20 -10z"/>
    <path d="M2650 4404 c-16 -40 -12 -72 12 -94 28 -25 33 -25 52 2 19 27 21 89
    4 106 -21 21 -58 14 -68 -14z m58 -38 c4 -42 -13 -63 -35 -44 -14 11 -18 70
    -6 82 18 18 38 -1 41 -38z"/>
    <path d="M2420 3905 c-7 -8 -10 -25 -7 -37 4 -12 2 -27 -4 -34 -13 -16 -1 -41
    24 -48 30 -8 71 20 61 42 -4 9 -7 28 -6 42 1 46 -41 68 -68 35z m50 -19 c0 -8
    -5 -18 -10 -21 -13 -8 -42 14 -34 26 9 15 44 10 44 -5z m0 -66 c0 -13 -7 -20
    -19 -20 -22 0 -35 15 -26 30 12 19 45 11 45 -10z"/>
    <path d="M2532 3908 c-19 -19 -14 -33 6 -15 42 38 43 -18 2 -58 -42 -40 -39
    -55 10 -55 22 0 40 5 40 10 0 6 -15 10 -32 10 l-33 0 33 31 c34 32 43 73 16
    83 -22 8 -28 8 -42 -6z"/>
    <path d="M465 3830 c-3 -5 -1 -10 4 -10 16 0 14 -97 -1 -103 -7 -3 3 -5 22 -5
    19 0 29 2 23 5 -9 3 -13 26 -13 64 0 45 -3 59 -14 59 -8 0 -18 -4 -21 -10z"/>
    <path d="M560 3804 l0 -36 15 12 c8 7 22 10 30 6 20 -7 19 -40 -1 -57 l-16
    -13 -15 19 -15 20 4 -20 c4 -23 42 -32 64 -15 32 27 10 80 -33 80 -32 0 -19
    28 15 33 21 3 18 4 -10 6 l-38 1 0 -36z"/>
    <path d="M683 3800 c-29 -50 -29 -60 2 -60 16 0 25 -6 25 -15 0 -21 17 -19 22
    3 8 31 -4 112 -16 112 -6 0 -21 -18 -33 -40z m27 -15 c0 -15 -6 -25 -15 -25
    l-15 0 12 25 c6 14 13 25 15 25 1 0 3 -11 3 -25z"/>
    <path d="M2835 3780 c3 -5 15 -10 26 -10 24 0 24 -11 -1 -60 -22 -43 -24 -50
    -12 -50 8 0 62 104 62 120 0 6 -18 10 -41 10 -24 0 -38 -4 -34 -10z"/>
    <path d="M2940 3780 c0 -5 11 -10 25 -10 30 0 30 3 5 -55 -23 -53 -23 -55 -12
    -55 9 0 52 98 52 118 0 7 -14 12 -35 12 -19 0 -35 -4 -35 -10z"/>
    <path d="M845 3748 c-29 -16 -28 -14 -35 -63 l-7 -46 19 -25 19 -24 64 0 64 0
    15 22 c25 35 21 113 -6 132 -26 18 -104 21 -133 4z m121 -22 l19 -15 -11 -18
    c-9 -14 -24 -18 -69 -18 -45 0 -60 4 -69 18 l-11 18 19 15 c11 8 38 14 61 14
    23 0 50 -6 61 -14z m10 -94 l-16 -16 0 20 c0 11 6 26 13 33 l12 12 3 -17 c2
    -9 -3 -24 -12 -32z m-132 22 c11 -27 7 -37 -9 -24 -16 14 -20 40 -6 40 5 0 12
    -7 15 -16z m87 -4 c36 -20 23 -40 -26 -40 l-45 0 0 19 c0 17 12 25 43 30 5 0
    17 -4 28 -9z"/>
    <path d="M862 3708 c6 -16 67 -23 81 -9 17 17 1 24 -22 9 -16 -10 -23 -10 -33
    0 -16 16 -31 15 -26 0z"/>
    <path d="M2329 3697 c-23 -15 -36 -34 -42 -59 l-9 -37 21 -30 c44 -61 128 -48
    156 25 l16 43 -16 31 c-27 52 -74 62 -126 27z m60 -23 c19 -42 4 -91 -30 -103
    l-29 -10 -15 22 c-27 39 -16 80 30 105 28 16 30 15 44 -14z m45 1 c3 -8 2 -15
    -3 -15 -5 0 -14 7 -21 15 l-12 15 15 0 c8 0 17 -7 21 -15z m6 -57 c0 -31 -13
    -49 -28 -39 -10 6 -10 15 -3 34 13 33 31 35 31 5z m-47 -65 c-7 -2 -19 -2 -25
    0 -7 3 -2 5 12 5 14 0 19 -2 13 -5z"/>
    <path d="M2324 3644 l-17 -25 21 -22 c12 -11 25 -18 28 -14 4 4 -1 13 -10 20
    l-19 14 12 21 c7 13 17 19 26 16 8 -4 15 -1 15 5 0 21 -40 11 -56 -15z"/>
    <path d="M2230 3661 c0 -12 28 -22 35 -12 3 5 -2 12 -11 15 -21 8 -24 8 -24
    -3z"/>
    <path d="M2616 3581 c-10 -11 -16 -29 -14 -42 l3 -22 78 -25 c58 -18 82 -31
    89 -47 23 -50 110 -61 149 -19 27 29 33 100 11 127 -18 21 -100 33 -124 18
    -19 -12 -43 -9 -116 15 -54 18 -56 18 -76 -5z m42 -23 c-4 -29 -38 -38 -38
    -10 0 22 8 32 27 32 9 0 13 -8 11 -22z m42 -7 c0 -20 -23 -45 -33 -35 -7 8 14
    54 25 54 4 0 8 -8 8 -19z m173 7 c12 -6 29 -14 37 -18 22 -10 24 -50 5 -87
    -20 -37 -42 -48 -62 -32 l-14 12 14 16 c29 32 29 70 3 96 -27 27 -20 32 17 13z
    m-133 -28 c0 -19 -17 -36 -26 -27 -3 2 -2 16 2 31 7 28 24 26 24 -4z m68 -14
    c5 -24 -12 -39 -36 -32 -28 9 -18 58 12 54 11 -2 22 -11 24 -22z m52 -7 c0
    -11 -5 -29 -10 -40 l-11 -19 -13 12 c-14 14 -2 58 16 58 5 0 6 5 2 12 -4 7 -3
    8 4 4 7 -4 12 -16 12 -27z"/>
    <path d="M2504 3581 c7 -11 56 -21 56 -11 0 9 -25 20 -46 20 -9 0 -13 -4 -10
    -9z"/>
    <path d="M1410 3556 c-15 -19 -7 -20 20 -4 15 10 22 10 32 0 9 -9 4 -20 -25
    -50 -48 -49 -47 -62 3 -62 22 0 40 5 40 10 0 6 -11 10 -25 10 -32 0 -32 6 6
    37 40 34 37 67 -7 71 -19 2 -36 -3 -44 -12z"/>
    <path d="M1520 3534 l0 -36 15 12 c32 26 63 -18 33 -48 -9 -9 -16 -8 -30 5
    l-18 16 0 -15 c0 -39 66 -31 76 8 7 28 -21 68 -43 60 -7 -3 -13 1 -13 9 0 7
    12 16 28 18 l27 4 -37 2 -38 1 0 -36z"/>
    <path d="M5760 3560 c0 -5 5 -10 10 -10 14 0 12 -84 -2 -98 -9 -9 -6 -12 17
    -12 23 0 26 3 17 12 -7 7 -12 36 -12 65 0 40 -4 53 -15 53 -8 0 -15 -4 -15
    -10z"/>
    <path d="M5852 3557 c-17 -21 -1 -30 19 -11 19 17 39 12 39 -10 0 -8 -16 -26
    -35 -40 -50 -39 -46 -56 13 -54 36 1 39 2 15 5 -41 5 -41 9 -1 50 l33 34 -11
    17 c-14 22 -57 27 -72 9z"/>
    <path d="M5964 3558 c-6 -7 -10 -35 -9 -63 l0 -50 40 0 c42 0 55 17 39 53 -3
    9 -7 28 -8 42 -1 28 -45 41 -62 18z m45 -7 c16 -10 6 -31 -14 -31 -17 0 -28
    17 -20 30 8 12 16 12 34 1z m9 -72 c4 -19 -19 -31 -38 -19 -18 11 -4 42 17 38
    10 -2 19 -10 21 -19z"/>
    <path d="M478 3510 c3 -32 0 -55 -8 -65 l-12 -15 33 0 c26 0 30 3 21 12 -7 7
    -12 36 -12 65 0 38 -4 53 -14 53 -10 0 -12 -12 -8 -50z"/>
    <path d="M581 3524 c-28 -47 -27 -64 4 -64 16 0 25 -6 25 -16 0 -8 5 -12 10
    -9 6 4 8 11 5 16 -4 5 -1 9 5 9 6 0 8 10 6 23 -14 67 -17 77 -25 77 -5 0 -18
    -16 -30 -36z m29 -19 c0 -16 -6 -25 -15 -25 -18 0 -18 5 -5 31 14 26 20 24 20
    -6z"/>
    <path d="M670 3545 c-20 -24 3 -65 36 -65 34 0 26 -24 -9 -28 -34 -4 -36 -22
    -3 -22 45 0 76 86 44 118 -17 17 -53 15 -68 -3z m58 -23 l3 -22 -25 0 c-19 0
    -26 5 -26 18 0 39 43 43 48 4z"/>
    <path d="M5531 3541 c-10 -10 -20 -23 -22 -28 -5 -13 -126 -78 -171 -92 -44
    -15 -50 -23 -58 -75 l-5 -39 -40 -12 -40 -11 3 -22 c2 -12 -2 -22 -7 -22 -6 0
    -11 -4 -11 -10 0 -16 75 -11 168 11 90 23 118 39 133 76 7 20 53 42 65 31 28
    -29 29 -293 0 -362 -18 -44 -21 -82 -5 -91 47 -30 115 74 156 238 l27 105 -14
    73 c-8 40 -22 88 -32 108 -10 19 -18 45 -18 58 0 14 -11 29 -27 40 -16 10 -34
    23 -41 30 -19 18 -39 16 -61 -6z m44 -11 c-3 -5 -16 -10 -28 -10 l-22 0 15 10
    c20 13 43 13 35 0z m-12 -44 c-10 -13 -20 -24 -23 -23 -17 2 -100 -27 -100
    -35 0 -6 6 -8 14 -5 8 3 31 9 50 13 l36 6 0 -35 0 -35 -31 -7 c-21 -5 -35 -17
    -46 -40 -9 -19 -28 -38 -42 -44 -35 -14 -112 -33 -116 -29 -2 2 -1 34 2 72 l6
    69 19 5 c10 2 67 29 126 58 121 61 130 64 105 30z m81 -2 c15 -39 3 -52 -68
    -70 l-23 -5 5 31 c7 48 72 82 86 44z m34 -110 c21 -60 11 -233 -17 -314 -24
    -68 -51 -111 -35 -55 4 17 9 93 11 170 3 150 5 173 17 193 4 7 1 12 -8 12 -11
    0 -16 -9 -16 -27 0 -32 -8 -26 -20 16 l-9 32 22 9 c32 13 41 8 55 -36z m-89 0
    c36 -81 44 -275 15 -372 -10 -31 -17 -60 -16 -64 3 -13 -24 -27 -37 -19 -10 7
    -9 17 8 49 45 88 49 241 11 364 -10 31 -15 60 -12 63 11 10 19 5 31 -21z
    m-309 -94 c0 -5 -12 -10 -27 -9 l-28 0 20 9 c27 12 35 12 35 0z m-26 -41 c-7
    -11 -44 -12 -44 -1 0 15 11 20 30 15 11 -3 17 -9 14 -14z"/>
    <path d="M5483 3413 c-15 -5 -18 -33 -4 -33 8 0 25 30 19 35 -2 1 -9 0 -15 -2z"/>
    <path d="M5343 3364 c-3 -8 -1 -20 6 -27 8 -8 11 -7 11 6 0 9 5 17 10 17 6 0
    10 5 10 10 0 16 -30 11 -37 -6z"/>
    <path d="M850 3539 c-13 -6 -28 -15 -32 -22 -11 -17 -10 -59 1 -52 5 3 11 -5
    13 -17 5 -37 113 -41 155 -6 21 17 16 85 -6 98 -24 12 -98 12 -131 -1z m115
    -11 c14 -6 25 -17 25 -25 0 -16 -59 -43 -92 -42 -18 0 -15 3 12 12 44 15 52
    44 15 53 -15 4 -38 1 -51 -5 -14 -6 -30 -11 -37 -10 -22 1 48 28 75 29 15 0
    39 -5 53 -12z m-42 -28 c-4 -4 -28 -10 -53 -13 l-45 -5 39 18 c37 17 78 17 59
    0z m21 -61 c-25 -10 -66 -11 -81 -1 -6 4 14 7 44 8 33 0 48 -3 37 -7z"/>
    <path d="M2184 3451 c-17 -11 -34 -31 -38 -45 -3 -14 -13 -26 -21 -26 -9 0
    -43 -8 -76 -17 -68 -19 -90 -44 -70 -82 14 -25 34 -26 117 -5 l63 15 25 -16
    c35 -23 91 -13 112 20 24 37 11 110 -26 147 -34 33 -45 34 -86 9z m61 -11 c3
    -5 -1 -10 -9 -10 -9 0 -16 5 -16 10 0 6 4 10 9 10 6 0 13 -4 16 -10z m-36 -20
    c43 -22 48 -140 6 -140 -23 0 -27 18 -5 30 37 20 18 90 -25 90 -24 0 -32 10
    -18 23 9 10 21 9 42 -3z m72 -27 c10 -27 6 -53 -9 -53 -10 0 -32 67 -24 74 12
    12 23 5 33 -21z m-68 -56 c-7 -11 -23 12 -23 33 1 12 4 11 15 -4 8 -10 12 -23
    8 -29z m-38 12 c11 -35 -11 -44 -23 -10 l-11 31 14 0 c7 0 17 -9 20 -21z m-39
    -14 c7 -29 1 -41 -15 -30 -14 8 -14 55 -1 55 5 0 12 -11 16 -25z m-48 3 c17
    -17 15 -48 -3 -48 -8 0 -15 6 -15 14 0 8 -3 21 -6 30 -7 19 7 21 24 4z m-38
    -34 c0 -28 -15 -25 -23 6 -3 13 0 20 9 20 8 0 14 -10 14 -26z m-36 0 c7 -19
    -2 -37 -15 -29 -12 8 -12 45 0 45 5 0 12 -7 15 -16z m274 4 c-3 -7 -12 -14
    -21 -16 -12 -2 -15 1 -11 12 7 19 38 22 32 4z"/>
    <path d="M1453 3362 c-16 -10 -63 -154 -63 -192 0 -41 39 -65 105 -65 l50 0 5
    -101 c5 -109 16 -134 56 -134 31 0 44 27 44 92 0 30 4 58 8 63 5 6 20 44 35
    85 32 93 27 123 -22 154 -20 13 -65 42 -101 65 -64 40 -93 48 -117 33z m92
    -43 c40 -22 54 -36 51 -48 -3 -9 -10 -47 -16 -86 -13 -79 -14 -82 -34 -66 -9
    8 -28 10 -49 6 l-35 -7 45 86 c24 48 43 92 40 99 -2 7 -25 -30 -51 -80 -47
    -94 -66 -110 -86 -73 -14 27 17 141 37 133 7 -3 12 -11 11 -17 -2 -6 0 -13 5
    -14 33 -10 37 18 6 49 -16 16 -18 23 -8 35 16 19 22 18 84 -17z m150 -108 c8
    -35 -38 -175 -59 -179 -8 -2 -25 2 -37 8 l-22 12 6 47 c3 25 11 76 17 114 l12
    67 39 -22 c24 -13 40 -31 44 -47z m-90 -193 l25 -11 0 -39 0 -38 -30 0 c-21 0
    -30 5 -31 18 -1 9 -2 32 -4 50 -3 35 2 38 40 20z m8 -125 c-7 -2 -19 -2 -25 0
    -7 3 -2 5 12 5 14 0 19 -2 13 -5z"/>
    <path d="M1530 3190 c0 -27 5 -50 10 -50 6 0 10 23 10 50 0 28 -4 50 -10 50
    -5 0 -10 -22 -10 -50z"/>
    <path d="M1635 3210 c-3 -6 0 -13 8 -16 9 -3 13 -13 10 -25 -6 -22 15 -26 23
    -5 11 30 -26 71 -41 46z"/>
    <path d="M1793 3338 c-21 -27 -23 -53 -8 -98 27 -82 69 -103 116 -60 l32 28
    -7 35 c-11 59 -46 102 -87 105 -21 2 -40 -2 -46 -10z m73 -63 c20 -48 17 -67
    -4 -25 -22 45 -52 53 -53 13 l0 -28 -10 25 c-7 17 -7 32 0 48 l11 23 21 -11
    c11 -7 27 -27 35 -45z m-15 -32 c6 -16 18 -36 26 -45 9 -10 12 -18 7 -18 -11
    0 -64 65 -64 79 0 22 21 10 31 -16z m58 -23 c0 -9 -4 -8 -9 5 -5 11 -9 27 -9
    35 0 9 4 8 9 -5 5 -11 9 -27 9 -35z m-74 -20 c10 -11 14 -20 9 -20 -5 0 -15 9
    -22 20 -7 11 -11 20 -9 20 2 0 12 -9 22 -20z"/>
    <path d="M846 3319 c-33 -26 -36 -77 -6 -104 49 -44 162 -9 168 52 6 65 -102
    99 -162 52z m125 -9 c46 -25 9 -60 -63 -60 -24 0 -53 6 -63 14 l-19 14 13 16
    c19 23 38 20 37 -6 l-1 -23 31 -3 c58 -6 71 41 14 51 l-25 4 28 2 c16 0 37 -4
    48 -9z m-42 -19 c19 -12 -4 -24 -30 -16 -17 6 -19 9 -8 16 17 11 21 11 38 0z
    m24 -54 l42 11 -19 -14 c-11 -8 -41 -14 -66 -14 -25 0 -55 6 -66 14 l-19 14
    43 -11 c31 -8 53 -8 85 0z"/>
    <path d="M475 3310 c-3 -5 -1 -10 5 -10 8 0 11 -18 8 -55 l-3 -55 25 0 c19 0
    21 3 12 12 -7 7 -12 36 -12 65 0 39 -4 53 -14 53 -8 0 -18 -4 -21 -10z"/>
    <path d="M576 3304 c-3 -9 -6 -24 -6 -35 l0 -18 30 6 30 6 0 -26 c0 -29 -17
    -39 -44 -25 -14 8 -17 7 -14 -4 3 -7 18 -14 34 -16 58 -6 71 73 13 85 -38 7
    -37 23 2 23 17 0 28 4 24 10 -10 16 -62 12 -69 -6z"/>
    <path d="M681 3302 c-7 -13 -7 -22 1 -30 8 -8 8 -15 -1 -26 -22 -27 -4 -56 35
    -56 37 0 52 18 39 48 -5 9 -7 28 -6 41 4 40 -49 58 -68 23z m52 -17 c-4 -15
    -36 -12 -41 3 -3 9 3 13 19 10 13 -1 23 -7 22 -13z m5 -56 c4 -19 -19 -31 -38
    -19 -18 11 -4 42 17 38 10 -2 19 -10 21 -19z"/>
    <path d="M4498 3248 c-18 -18 -197 -104 -230 -112 -19 -4 -26 -11 -22 -21 4
    -8 3 -31 0 -50 l-7 -35 -52 -14 c-29 -8 -126 -35 -217 -61 -151 -43 -484 -132
    -555 -149 -89 -22 -197 -102 -230 -173 -9 -19 -41 -115 -71 -212 -30 -97 -58
    -185 -64 -196 -5 -11 -23 -63 -40 -115 l-30 -96 -42 -43 c-96 -97 -239 -110
    -380 -34 -25 14 -51 22 -56 19 -6 -4 -32 7 -58 24 -26 16 -52 30 -56 30 -20 0
    -4 -18 41 -45 28 -17 52 -37 54 -45 6 -25 136 -87 207 -101 l65 -11 63 16
    c144 37 201 106 277 335 182 552 173 540 405 600 63 16 127 34 141 39 82 32
    503 132 512 123 17 -17 59 -13 95 9 18 11 38 20 45 20 25 0 87 21 87 29 0 5
    -17 5 -37 0 -21 -5 -50 -12 -65 -15 l-27 -6 6 58 c3 33 11 64 17 70 6 6 49 21
    96 33 47 11 95 24 108 27 l22 6 0 -38 c1 -22 7 -66 15 -99 8 -32 13 -60 11
    -62 -1 -2 -25 9 -53 24 l-50 28 15 23 c8 12 23 22 33 22 11 0 19 5 19 10 0 21
    -41 8 -61 -20 l-22 -29 -45 26 c-29 17 -43 22 -40 13 2 -8 51 -40 109 -72 124
    -68 277 -148 284 -148 15 0 1 17 -22 27 l-28 13 -1 92 c-1 69 -7 107 -23 148
    -11 30 -21 62 -21 70 0 8 -14 30 -30 48 -31 34 -68 42 -92 20z m37 -32 c-14
    -6 -25 -16 -25 -23 0 -18 -25 -29 -120 -53 -47 -11 -94 -23 -105 -26 -16 -4
    75 43 190 97 11 6 31 16 45 24 19 11 26 11 32 2 5 -8 -1 -15 -17 -21z m69 -33
    c8 -20 -9 -37 -51 -51 l-33 -11 0 34 c0 24 5 35 18 38 37 10 60 6 66 -10z m26
    -80 c7 -16 15 -72 18 -127 l5 -98 -21 11 c-29 15 -43 102 -25 155 7 22 11 41
    9 44 -9 9 -26 -10 -26 -29 0 -30 -15 -23 -33 16 l-17 36 23 9 c38 15 53 11 67
    -17z m-84 -40 c20 -46 45 -136 39 -141 -15 -16 -41 24 -52 80 -20 105 -16 126
    13 61z m-306 -62 c0 -17 -29 -33 -51 -26 -23 8 -16 20 16 28 32 8 35 7 35 -2z
    m-92 -33 c-5 -14 -51 -28 -388 -118 -356 -96 -399 -109 -442 -136 -42 -27 -82
    -84 -104 -148 -8 -22 -18 -50 -24 -61 -5 -11 -35 -101 -66 -200 -57 -184 -64
    -203 -116 -313 -77 -162 -307 -203 -486 -86 -46 30 -10 32 54 3 163 -74 328
    -37 409 91 25 39 50 107 94 255 48 161 110 336 139 390 47 87 121 122 437 206
    169 44 309 83 385 107 76 23 113 27 108 10z m80 -25 c-14 -18 -58 -17 -58 1 0
    10 11 14 35 13 27 -1 32 -4 23 -14z"/>
    <path d="M2122 3158 c-20 -20 -14 -33 7 -14 20 19 41 14 41 -8 0 -7 -13 -25
    -30 -41 -42 -40 -39 -55 11 -55 24 0 38 4 34 10 -3 6 -18 10 -33 10 l-27 1 33
    28 c41 35 42 74 2 79 -14 2 -31 -3 -38 -10z"/>
    <path d="M2224 3155 c-4 -8 -3 -22 0 -31 4 -9 1 -22 -5 -30 -19 -24 7 -56 44
    -52 l32 3 1 50 c1 28 -3 56 -9 63 -13 17 -56 15 -63 -3z m52 -6 c10 -17 -13
    -36 -27 -22 -12 12 -4 33 11 33 5 0 12 -5 16 -11z m7 -63 c7 -19 -1 -26 -30
    -26 -22 0 -31 19 -16 33 11 12 41 7 46 -7z"/>
    <path d="M3615 3139 c-11 -4 -14 -8 -7 -8 16 -1 16 -93 0 -109 -9 -9 -5 -12
    21 -12 26 0 31 3 23 13 -6 7 -12 38 -14 68 l-3 56 -20 -8z"/>
    <path d="M3708 3130 c-26 -22 -18 -27 12 -8 15 10 22 10 32 0 9 -9 4 -20 -25
    -50 -48 -49 -47 -62 3 -62 22 0 40 5 40 10 0 6 -15 10 -32 10 l-33 0 38 36
    c39 37 41 42 29 60 -14 21 -41 23 -64 4z"/>
    <path d="M3826 3107 c-32 -55 -33 -67 -1 -67 16 0 25 -6 25 -15 0 -23 14 -18
    27 10 6 14 7 25 2 25 -5 0 -9 18 -9 39 0 56 -15 59 -44 8z m24 -22 c0 -16 -6
    -25 -15 -25 -18 0 -18 5 -5 31 14 26 20 24 20 -6z"/>
    <path d="M4150 3140 c0 -8 51 -40 65 -40 17 0 0 19 -30 33 -19 9 -35 12 -35 7z"/>
    <path d="M904 3124 c3 -9 6 -40 6 -70 0 -56 16 -75 22 -26 l3 28 115 -62 c63
    -34 147 -79 185 -99 39 -21 104 -57 145 -80 138 -78 483 -264 578 -312 l52
    -27 0 -73 0 -73 33 0 c35 0 66 -15 55 -26 -4 -3 -24 -10 -45 -14 -21 -4 -53
    -11 -72 -15 l-33 -8 7 24 c4 13 15 30 24 37 l16 13 -20 -3 c-11 -2 -24 -13
    -30 -26 -13 -29 -14 -29 -98 19 -40 23 -98 57 -130 75 -62 36 -82 41 -92 24
    -3 -5 3 -10 15 -10 25 0 392 -212 382 -221 -10 -8 -194 -59 -215 -59 -19 0
    -124 45 -143 61 l-13 11 14 29 c20 37 20 36 -17 59 -26 15 -43 18 -88 14 -39
    -4 -66 -1 -94 11 l-39 16 14 14 c8 7 39 21 69 30 30 10 61 20 68 23 8 3 12 -8
    12 -34 0 -20 3 -34 7 -30 8 8 5 327 -3 335 -2 2 -4 -54 -4 -125 l0 -130 -99
    -23 c-63 -15 -110 -33 -128 -48 l-28 -23 33 -28 c25 -22 32 -36 32 -64 0 -36
    21 -65 40 -53 5 3 11 25 11 48 l1 42 13 -69 c16 -88 61 -125 121 -97 26 11 34
    55 12 65 -7 3 -2 4 12 3 l25 -2 3 -35 c5 -71 10 -79 74 -111 l62 -31 58 6 59
    6 55 -31 55 -32 80 6 c55 3 86 10 99 22 10 9 52 27 92 39 l73 23 3 66 3 67
    -26 12 -27 12 -71 -18 c-86 -22 -99 -31 -95 -65 l3 -26 -32 -3 -33 -3 0 60 0
    60 -21 14 -21 15 34 7 c45 10 58 22 58 56 0 31 -31 59 -67 59 l-22 0 -6 58
    c-3 31 -7 63 -8 71 -2 13 -164 107 -344 199 l-73 36 -2 51 -1 50 -6 -47 -6
    -47 -75 42 c-93 53 -319 177 -420 230 -41 22 -94 50 -117 64 l-43 24 0 29 c0
    21 -5 30 -16 30 -11 0 -14 -5 -10 -16z m499 -798 c-3 -16 -10 -23 -19 -19 -24
    9 -15 43 11 43 8 0 10 -10 8 -24z m69 -22 c23 -12 44 -14 84 -9 53 6 94 -5 94
    -26 0 -6 -5 -7 -12 -2 -7 4 -44 8 -83 9 -38 0 -82 4 -97 9 l-28 7 0 -41 c0
    -26 -4 -40 -10 -36 -11 7 -14 88 -3 98 10 10 21 9 55 -9z m622 -34 c-12 -12
    -112 -26 -102 -15 4 5 25 11 45 15 57 11 68 11 57 0z m-474 -21 c0 -5 -4 -8
    -9 -4 -12 7 -63 -15 -74 -32 -9 -15 -47 -18 -47 -4 0 5 -3 17 -7 27 l-6 17 24
    -6 c14 -4 38 -2 54 2 42 13 65 13 65 0z m15 -38 c-14 -14 -85 -25 -85 -14 0
    18 13 23 54 23 24 0 36 -4 31 -9z m-70 -41 c3 -5 -3 -10 -14 -10 -11 0 -23 5
    -26 10 -3 6 3 10 14 10 11 0 23 -4 26 -10z m255 -46 c14 3 66 17 115 31 120
    33 115 34 115 -28 l0 -53 -124 -32 -125 -32 -43 17 c-24 9 -55 25 -70 35 l-28
    19 0 49 0 49 68 -30 c43 -20 76 -28 92 -25z m488 41 c-9 -9 -115 -31 -128 -27
    -8 3 14 13 50 22 55 14 90 16 78 5z m-768 -27 c0 -13 -17 -9 -34 8 -22 22 -20
    25 9 12 14 -6 25 -15 25 -20z m50 3 c0 -10 -30 -24 -37 -17 -3 3 -2 9 2 15 8
    13 35 15 35 2z m738 -43 l-3 -52 -44 -13 c-24 -7 -52 -15 -63 -19 l-19 -6 3
    54 3 53 50 17 c76 25 76 25 73 -34z m-148 -43 l0 -65 -22 -5 c-13 -3 -50 -9
    -83 -13 l-60 -7 -47 25 c-47 24 -60 40 -35 40 6 0 26 -9 42 -20 21 -14 47 -20
    87 -20 84 0 88 3 88 71 0 46 3 59 15 59 12 0 15 -14 15 -65z m-83 -7 c-2 -7
    -14 -13 -26 -12 -11 0 -21 -3 -21 -8 0 -5 15 -8 33 -6 23 2 32 8 31 21 -1 9 4
    17 12 17 8 0 14 -10 14 -25 l0 -25 -60 0 c-32 0 -71 6 -86 12 l-27 13 39 12
    c54 16 97 16 91 1z"/>
    <path d="M2250 2090 c-12 -23 -6 -40 15 -40 17 0 34 30 28 48 -7 19 -31 14
    -43 -8z m30 -10 c0 -5 -4 -10 -10 -10 -5 0 -10 5 -10 10 0 6 5 10 10 10 6 0
    10 -4 10 -10z"/>
    <path d="M4436 3114 c-9 -8 -14 -20 -11 -25 9 -14 25 -11 25 5 0 8 5 16 12 18
    9 3 9 6 1 11 -6 4 -19 0 -27 -9z"/>
    <path d="M2415 3055 c-36 -35 -34 -83 5 -120 l30 -29 0 -78 0 -77 21 -11 c11
    -7 32 -9 45 -6 l24 6 0 86 0 86 26 31 26 31 -5 40 c-7 51 -28 66 -94 66 l-54
    0 -24 -25z m139 -8 l17 -13 -18 -16 c-29 -25 -109 -29 -129 -7 -10 11 -15 21
    -13 23 33 27 113 35 143 13z m7 -80 c-13 -13 -15 1 -4 30 l7 18 4 -19 c2 -10
    -1 -23 -7 -29z m-125 -15 c-9 -8 -26 10 -26 26 l1 17 14 -19 c8 -11 13 -21 11
    -24z m94 8 l0 -20 -40 0 c-27 0 -40 4 -40 13 0 21 11 27 47 27 26 0 33 -4 33
    -20z m-15 -59 c-8 -13 -45 -15 -45 -2 0 5 10 11 23 13 27 5 31 3 22 -11z m10
    -36 c0 -5 -12 -11 -27 -13 -21 -2 -28 1 -28 13 0 12 7 15 28 13 15 -2 27 -7
    27 -13z m3 -47 c-7 -20 -58 -23 -58 -4 0 11 10 16 31 16 20 0 29 -4 27 -12z
    m0 -50 c-3 -7 -15 -13 -28 -13 -13 0 -25 6 -27 13 -3 8 6 12 27 12 21 0 30 -4
    28 -12z"/>
    <path d="M4290 3065 c-10 -12 -10 -19 -2 -27 14 -14 17 -11 26 20 8 25 -5 29
    -24 7z"/>
    <path d="M1827 3063 c-14 -13 -6 -20 18 -15 33 6 35 -25 3 -37 l-23 -8 22 -7
    c12 -4 24 -14 27 -22 8 -20 -22 -30 -45 -15 l-19 11 0 -15 c0 -23 48 -30 70
    -10 15 14 17 22 9 37 -6 10 -7 28 -4 39 11 33 -35 66 -58 42z"/>
    <path d="M1940 3055 l-12 -15 16 0 c12 0 16 -10 16 -45 0 -34 -4 -45 -16 -45
    -8 0 -12 -4 -9 -10 3 -5 17 -10 31 -10 13 0 24 5 24 10 0 6 -4 10 -10 10 -6 0
    -10 27 -10 60 0 61 -8 72 -30 45z"/>
    <path d="M2662 2998 c-31 -31 3 -87 42 -72 9 3 16 2 16 -4 0 -13 -20 -29 -45
    -35 -16 -4 -14 -5 7 -6 46 -2 74 61 48 110 -12 21 -50 25 -68 7z m48 -14 l13
    -15 -15 -16 c-19 -18 -38 -10 -38 16 0 33 20 40 40 15z"/>
    <path d="M2775 3000 c-3 -5 -1 -10 4 -10 16 0 14 -97 -1 -103 -7 -3 3 -5 22
    -5 19 0 29 2 23 5 -9 3 -13 26 -13 64 0 45 -3 59 -14 59 -8 0 -18 -4 -21 -10z"/>
    <path d="M4835 2991 c-3 -6 -1 -11 4 -11 16 0 14 -97 -1 -103 -7 -3 3 -6 22
    -6 19 0 30 3 23 7 -6 4 -13 32 -15 61 -3 51 -18 75 -33 52z"/>
    <path d="M4930 2990 c-12 -8 -8 -10 14 -8 34 4 48 -21 17 -29 -27 -7 -27 -19
    -1 -26 23 -6 27 -35 5 -43 -8 -4 -22 -1 -30 6 -11 9 -15 9 -15 1 0 -29 73 -25
    84 5 4 9 1 23 -5 30 -6 7 -8 18 -4 24 21 34 -28 65 -65 40z"/>
    <path d="M5042 2987 c-38 -45 -14 -121 36 -115 22 2 28 9 30 33 4 32 -20 58
    -45 48 -11 -4 -14 -1 -11 13 2 12 12 19 26 18 12 0 22 3 22 8 0 13 -46 9 -58
    -5z m48 -63 l13 -15 -17 -17 -17 -17 -14 19 c-24 33 10 61 35 30z"/>
    <path d="M848 2949 c-10 -6 -18 -22 -18 -38 0 -19 -9 -34 -31 -50 l-30 -22 3
    -36 c4 -48 38 -72 110 -80 63 -6 143 10 171 34 27 25 23 89 -8 109 -14 9 -25
    24 -25 33 0 9 -7 27 -16 39 l-15 22 -62 0 c-34 0 -70 -5 -79 -11z m87 -9 c3
    -5 -3 -10 -14 -10 -12 0 -21 5 -21 10 0 6 6 10 14 10 8 0 18 -4 21 -10z m52
    -23 c-7 -23 -137 -20 -137 2 0 18 33 21 45 5 16 -23 67 -12 58 12 l-6 16 22
    -12 c12 -6 20 -17 18 -23z m10 -83 c-10 -10 -78 -16 -111 -10 l-36 7 0 28 0
    28 48 -4 c26 -3 58 0 72 5 l25 9 3 -29 c2 -17 1 -32 -1 -34z m-109 -28 c54
    -11 118 6 127 35 5 16 10 18 21 8 21 -17 17 -27 -18 -45 -81 -42 -287 2 -211
    45 13 7 20 4 28 -12 7 -14 25 -25 53 -31z m162 -22 c0 -53 -234 -60 -254 -7
    -5 11 -2 13 11 8 66 -28 210 -24 228 6 9 14 15 11 15 -7z"/>
    <path d="M652 2884 c-44 -30 -20 -124 31 -124 40 0 50 101 12 126 l-21 14 -22
    -16z m46 -47 c2 -21 -2 -45 -9 -54 l-13 -15 -13 18 c-24 33 -13 97 16 92 11
    -2 17 -16 19 -41z"/>
    <path d="M440 2880 c0 -5 5 -10 10 -10 14 0 12 -84 -2 -98 -9 -9 -6 -12 17
    -12 23 0 26 3 17 12 -7 7 -12 36 -12 65 0 40 -4 53 -15 53 -8 0 -15 -4 -15
    -10z"/>
    <path d="M552 2851 c-28 -50 -28 -61 3 -61 17 0 25 -6 26 -17 0 -14 2 -15 6
    -3 4 8 13 20 21 26 l15 11 -17 6 c-11 4 -16 18 -16 42 0 45 -11 44 -38 -4z
    m28 -16 c0 -16 -6 -25 -15 -25 -18 0 -18 5 -5 31 14 26 20 24 20 -6z"/>
    <path d="M4527 2822 c-3 -37 -15 -92 -26 -122 -25 -65 -26 -83 -6 -100 l15
    -12 26 16 c32 22 79 95 99 157 24 72 13 83 -13 13 -24 -65 -60 -129 -68 -121
    -3 3 4 23 15 46 26 50 43 161 26 161 -7 0 -15 -23 -19 -56 -3 -30 -14 -72 -22
    -92 -9 -20 -19 -50 -23 -66 -7 -32 -31 -48 -31 -22 0 9 9 42 19 74 23 69 37
    177 23 186 -5 3 -12 -24 -15 -62z"/>
    <path d="M4770 2788 c0 -23 51 -77 79 -83 36 -8 48 -21 53 -60 3 -33 56 -75
    94 -75 62 0 113 68 99 131 -11 50 -101 87 -144 60 -10 -7 -29 -2 -58 15 -46
    25 -123 33 -123 12z m90 -15 c-1 -11 -26 -43 -34 -43 -3 0 -6 11 -6 25 0 18 5
    25 20 25 11 0 20 -3 20 -7z m28 -38 c-12 -27 -23 -31 -33 -15 -8 13 13 40 31
    40 11 0 11 -5 2 -25z m116 16 c3 -5 18 -12 33 -16 34 -8 43 -21 43 -62 0 -58
    -66 -108 -105 -79 -15 11 -19 25 -17 62 1 35 -1 45 -8 34 -5 -8 -10 -31 -10
    -49 0 -27 -3 -32 -12 -23 -15 15 -15 66 1 96 18 33 64 56 75 37z m-93 -38
    l-10 -18 -1 16 c0 17 10 32 18 25 2 -3 -1 -13 -7 -23z"/>
    <path d="M5010 2691 c0 -10 -10 -26 -22 -34 l-23 -16 23 0 c13 -1 22 -7 22
    -16 0 -8 5 -15 10 -15 6 0 10 11 10 24 0 16 8 26 23 31 l22 8 -22 4 c-13 2
    -23 11 -23 19 0 8 -4 14 -10 14 -5 0 -10 -8 -10 -19z"/>
    <path d="M2439 2695 c-36 -19 -43 -52 -19 -85 23 -32 56 -41 107 -30 64 15 92
    71 54 109 -25 25 -101 28 -142 6z m115 -5 c52 -20 12 -71 -54 -69 l-35 2 35 6
    35 6 0 25 c0 17 -7 26 -25 31 l-25 7 22 1 c12 1 33 -3 47 -9z m-89 -10 c-3 -5
    -11 -10 -16 -10 -6 0 -7 5 -4 10 3 6 11 10 16 10 6 0 7 -4 4 -10z m55 -19 c0
    -4 -15 -11 -32 -14 -18 -3 -42 -8 -53 -12 -11 -3 -4 3 15 14 37 21 70 27 70
    12z m17 -63 c-16 -10 -87 -10 -87 0 0 4 22 7 49 7 27 0 44 -3 38 -7z"/>
    <path d="M896 2689 l-18 -11 7 -82 7 -83 -26 -17 c-50 -32 -31 -117 30 -132
    107 -27 186 75 110 142 l-24 21 -4 77 c-4 92 -27 116 -82 85z m54 -19 c0 -5
    -9 -10 -20 -10 -11 0 -20 5 -20 10 0 6 9 10 20 10 11 0 20 -4 20 -10z m-2 -46
    c-9 -9 -24 -14 -32 -11 -27 11 -17 27 16 27 l32 0 -16 -16z m12 -40 c0 -11 -8
    -14 -27 -12 -37 4 -40 25 -3 26 20 0 30 -4 30 -14z m5 -45 c-4 -5 -20 -9 -38
    -9 -33 0 -28 15 8 22 24 5 37 0 30 -13z m1 -65 c-8 -21 -60 -15 -64 8 -2 12 5
    17 30 20 35 3 43 -3 34 -28z m54 -4 c0 -30 -96 -52 -144 -34 -20 8 -21 28 -1
    44 l15 12 0 -21 c0 -43 83 -42 88 2 l3 27 20 -10 c10 -6 19 -15 19 -20z m-3
    -54 c-13 -33 -144 -41 -154 -9 -3 8 11 10 49 7 35 -3 62 0 78 9 29 16 35 14
    27 -7z"/>
    <path d="M2676 2684 c-9 -8 -16 -22 -16 -29 0 -22 31 -47 52 -42 14 4 18 1 16
    -11 -2 -9 -17 -20 -33 -23 l-30 -7 36 -1 37 -1 11 28 c27 65 -29 131 -73 86z
    m52 -28 c4 -21 -14 -37 -35 -29 -14 5 -18 35 -6 47 12 12 38 1 41 -18z"/>
    <path d="M2796 2654 c-27 -49 -26 -64 4 -64 10 0 20 -6 23 -12 3 -9 9 -7 20 7
    9 11 11 22 6 23 -5 2 -9 24 -9 48 0 56 -12 56 -44 -2z m24 -19 c0 -15 -6 -25
    -15 -25 l-15 0 12 25 c6 14 13 25 15 25 1 0 3 -11 3 -25z"/>
    <path d="M3449 2647 c-48 -22 -59 -38 -59 -81 0 -49 28 -106 60 -122 25 -13
    110 9 110 28 0 6 11 23 25 40 14 16 25 37 25 46 0 32 -37 79 -67 85 -15 3 -37
    8 -48 10 -11 3 -32 0 -46 -6z m50 -50 c21 -33 30 -84 21 -115 l-8 -27 -1 41
    c-1 22 -11 61 -24 86 -23 46 -14 57 12 15z m26 2 c9 -17 15 -33 13 -35 -3 -2
    -12 12 -21 31 -21 43 -13 47 8 4z m-57 -19 c24 -35 31 -113 11 -126 -6 -3 -21
    3 -33 15 -16 17 -17 21 -4 16 13 -5 19 0 24 20 11 44 -34 103 -49 63 -2 -7 -7
    -10 -11 -7 -11 10 13 61 27 57 6 -3 22 -19 35 -38z m100 28 c14 -14 16 -78 3
    -78 -5 0 -11 12 -13 28 -3 15 -9 35 -13 45 -8 20 5 23 23 5z m-118 -79 c0 -11
    -4 -17 -10 -14 -5 3 -10 13 -10 21 0 8 5 14 10 14 6 0 10 -9 10 -21z m97 -26
    c-3 -10 -5 -2 -5 17 0 19 2 27 5 18 2 -10 2 -26 0 -35z"/>
    <path d="M510 2600 c-10 -6 -11 -10 -2 -10 16 0 16 -92 0 -108 -9 -9 -6 -12
    16 -12 22 0 27 4 22 16 -3 9 -6 40 -6 70 0 55 -4 61 -30 44z"/>
    <path d="M615 2567 c-31 -54 -31 -67 -1 -67 14 0 28 -5 31 -10 4 -6 12 -4 22
    6 12 11 13 18 4 27 -6 6 -11 28 -11 49 0 50 -13 48 -45 -5z m27 -22 c-4 -26
    -22 -35 -22 -12 0 10 18 37 26 37 1 0 -1 -11 -4 -25z"/>
    <path d="M717 2592 c-25 -28 -23 -98 4 -112 16 -9 26 -8 45 5 43 28 21 82 -31
    73 l-24 -5 10 18 c5 11 21 19 35 19 14 0 22 4 19 10 -10 16 -40 12 -58 -8z
    m43 -57 c16 -20 6 -45 -19 -45 -23 0 -32 18 -19 43 11 21 22 22 38 2z"/>
    <path d="M1235 2586 c-13 -9 -16 -20 -12 -36 3 -13 2 -29 -4 -36 -23 -27 20
    -62 61 -49 l19 6 -2 55 c-3 68 -24 88 -62 60z m43 -23 c-2 -10 -10 -18 -18
    -18 -8 0 -16 8 -18 18 -2 12 3 17 18 17 15 0 20 -5 18 -17z m1 -57 c9 -10 8
    -16 -4 -26 l-16 -13 -16 15 c-16 17 -10 38 11 38 8 0 19 -6 25 -14z"/>
    <path d="M1325 2590 c-4 -6 7 -10 24 -10 37 0 38 -7 6 -70 -14 -28 -21 -50
    -15 -50 12 0 70 121 63 133 -6 11 -71 9 -78 -3z"/>
    <path d="M2458 2484 c-39 -16 -46 -31 -39 -78 11 -81 191 -60 191 22 -1 64
    -70 90 -152 56z m113 -14 c45 -25 6 -59 -67 -60 -74 0 -98 37 -40 60 30 12 84
    12 107 0z m-11 -80 c-38 -21 -75 -26 -84 -11 -4 5 2 7 12 4 10 -2 34 2 53 10
    49 22 60 20 19 -3z"/>
    <path d="M2472 2457 c-17 -20 8 -39 45 -35 20 2 28 9 28 23 0 25 -55 34 -73
    12z m56 -14 c-10 -2 -26 -2 -35 0 -10 3 -2 5 17 5 19 0 27 -2 18 -5z"/>
    <path d="M7828 2428 c16 -16 16 -105 0 -111 -7 -3 3 -6 22 -6 26 -1 31 2 22
    11 -7 7 -12 36 -12 65 l0 53 -22 0 c-17 0 -19 -3 -10 -12z"/>
    <path d="M7931 2427 c-18 -22 -24 -73 -12 -96 17 -31 68 -29 83 4 l11 25 -18
    21 c-13 14 -26 18 -42 14 -13 -3 -23 -1 -23 4 0 13 22 29 50 34 l25 4 -31 2
    c-17 0 -37 -5 -43 -12z m49 -63 l13 -15 -16 -17 -17 -16 -17 16 -16 17 13 15
    c7 9 16 16 20 16 4 0 13 -7 20 -16z"/>
    <path d="M8030 2405 l0 -34 30 6 30 6 0 -20 c0 -30 -19 -44 -43 -32 -15 9 -18
    8 -15 -3 9 -26 62 -16 72 14 11 31 -5 58 -35 58 -30 0 -22 28 9 33 l27 4 -37
    2 -38 1 0 -35z"/>
    <path d="M2692 2409 l-23 -9 3 -32 3 -33 32 -5 c37 -6 33 -25 -7 -32 l-25 -4
    18 -8 c11 -5 27 -2 43 8 l25 17 -3 41 c-4 48 -30 71 -66 57z m42 -26 c8 -19
    -17 -48 -33 -39 -12 8 -15 39 -4 49 12 12 31 7 37 -10z"/>
    <path d="M2801 2404 c-16 -12 -21 -26 -21 -58 0 -50 18 -71 54 -62 49 12 37
    76 -15 76 l-30 0 11 19 c5 11 20 21 32 23 l23 3 -16 7 c-9 3 -26 0 -38 -8z
    m43 -63 c10 -16 -5 -41 -24 -41 -23 0 -32 13 -24 34 7 17 39 22 48 7z"/>
    <path d="M663 2343 l-43 -15 -12 -40 c-9 -31 -9 -44 0 -59 15 -23 16 -49 2
    -49 -13 0 -13 -57 0 -65 6 -4 7 -23 4 -46 -4 -22 -2 -44 4 -52 7 -8 7 -18 2
    -27 -13 -21 -12 -57 2 -80 10 -16 10 -24 0 -40 -14 -23 -16 -60 -3 -60 12 0
    20 -49 10 -56 -13 -8 -11 -51 3 -74 10 -15 9 -24 -2 -44 l-13 -26 19 -21 19
    -21 -17 -9 -17 -10 5 -102 6 -102 28 -27 c16 -15 32 -43 36 -63 l6 -36 72 -57
    c140 -115 232 -178 508 -353 140 -89 148 -93 148 -77 0 8 -28 29 -62 47 -231
    126 -658 433 -658 473 0 14 19 3 78 -45 42 -35 101 -80 130 -100 28 -21 74
    -52 100 -71 72 -50 277 -177 357 -221 39 -21 80 -44 92 -52 12 -8 24 -10 27
    -5 3 6 -13 20 -37 32 -230 119 -581 357 -740 502 l-59 53 -7 83 c-4 45 -6 82
    -4 82 1 0 48 -36 105 -80 207 -162 473 -332 733 -470 55 -29 132 -70 171 -91
    73 -40 84 -44 84 -31 0 4 -51 35 -112 67 -62 33 -129 69 -149 80 -20 11 -70
    37 -110 59 -90 47 -356 211 -384 236 -11 10 -49 38 -85 62 -84 55 -250 189
    -250 200 0 19 24 4 117 -71 173 -138 423 -304 628 -414 253 -136 397 -208 408
    -204 7 2 -25 23 -70 45 -45 23 -108 56 -140 73 -32 17 -112 61 -178 96 -338
    182 -803 519 -766 556 6 6 33 -11 77 -52 73 -67 91 -74 96 -36 l3 25 95 -69
    c230 -167 529 -344 907 -537 86 -44 128 -71 120 -76 -6 -4 -75 -28 -152 -53
    -231 -75 -436 -148 -431 -152 2 -3 29 1 58 7 l54 12 134 -73 c144 -78 578
    -291 723 -354 l88 -38 37 9 c20 5 35 12 32 15 -3 4 5 15 17 25 l21 19 5 390 5
    390 -20 80 c-11 44 -25 114 -32 155 l-11 75 -63 40 c-64 41 -181 108 -632 362
    -25 14 -56 34 -70 43 -14 10 -50 30 -80 45 -30 15 -109 58 -175 95 -66 37
    -205 113 -310 170 -454 247 -411 229 -482 203z m173 -56 c54 -30 131 -71 170
    -93 l72 -38 -29 -35 c-16 -20 -29 -38 -29 -42 0 -17 62 -29 150 -29 l100 0 57
    -32 c32 -17 101 -55 153 -83 98 -53 522 -294 529 -300 2 -2 -6 -16 -18 -31
    -48 -61 -11 -84 112 -71 l79 8 129 -78 c130 -78 135 -84 73 -97 l-32 -7 -188
    76 c-418 170 -870 397 -1093 547 -140 95 -285 205 -351 266 l-75 70 25 10 c44
    18 64 13 166 -41z m-125 -59 c315 -279 963 -633 1569 -860 65 -24 89 -51 55
    -64 -37 -14 -786 326 -876 398 -19 16 -58 37 -85 46 -27 10 -80 38 -119 62
    -38 24 -98 60 -131 81 -198 122 -494 357 -494 392 0 14 14 5 81 -55z m84 -127
    c90 -73 220 -166 313 -222 40 -24 107 -65 150 -91 42 -26 90 -50 105 -53 15
    -4 48 -22 73 -42 77 -58 561 -291 749 -359 65 -23 128 -58 147 -79 20 -23 23
    -51 7 -60 -10 -7 -117 32 -234 85 -33 15 -109 49 -170 76 -143 63 -581 284
    -648 327 -29 19 -74 46 -102 62 -130 73 -472 322 -534 388 l-24 26 13 30 12
    31 37 -31 c20 -17 68 -56 106 -88z m346 19 l24 -20 -30 12 c-39 15 -54 28 -33
    28 9 0 26 -9 39 -20z m-292 -171 c146 -108 182 -132 334 -225 149 -92 521
    -286 682 -357 55 -24 125 -56 155 -70 30 -14 107 -46 170 -72 114 -47 169 -85
    170 -117 0 -38 -6 -36 -285 85 -595 257 -1088 548 -1362 801 -56 52 -72 73
    -75 100 l-4 34 57 -53 c32 -29 103 -86 158 -126z m244 155 c9 -10 -4 -34 -18
    -34 -17 0 -28 17 -20 30 7 11 28 13 38 4z m77 -24 l25 -8 -20 -1 c-11 -1 -30
    -4 -42 -7 -17 -5 -23 -2 -23 10 0 17 19 19 60 6z m-310 -231 c172 -127 440
    -302 493 -322 17 -6 26 -77 9 -77 -11 0 -173 96 -249 148 -34 23 -65 42 -69
    42 -12 0 -268 198 -336 260 l-67 61 6 29 c3 19 1 30 -6 30 -6 0 -11 5 -11 11
    0 6 35 -20 78 -58 42 -38 111 -94 152 -124z m-168 42 c116 -107 394 -309 533
    -386 102 -56 135 -77 135 -86 0 -15 -13 -10 -79 31 -36 21 -67 37 -70 34 -8
    -8 33 -38 107 -80 34 -20 62 -42 62 -50 0 -19 3 -20 -91 33 -179 100 -453 293
    -572 403 l-68 63 6 25 c4 16 0 31 -11 43 -33 37 -4 18 48 -30z m177 -250 c109
    -81 321 -220 419 -273 42 -23 88 -49 102 -58 24 -17 197 -110 290 -156 149
    -75 633 -294 649 -294 11 0 36 -38 43 -66 7 -29 -25 -72 -44 -58 -7 6 -31 18
    -54 27 -76 29 -244 110 -244 117 0 4 19 15 43 24 61 26 32 30 -38 6 -32 -11
    -61 -16 -64 -11 -3 5 -44 27 -91 49 -427 203 -982 552 -1187 745 l-41 40 5 32
    c3 19 0 35 -6 39 -6 4 -11 12 -11 17 0 5 33 -19 73 -53 39 -35 110 -92 156
    -127z m-71 -80 c5 -31 -3 -27 -70 34 -51 46 -88 93 -88 112 0 15 156 -128 158
    -146z m1272 44 c17 -9 30 -17 30 -20 0 -7 -63 14 -74 25 -15 15 10 12 44 -5z
    m-44 -26 c10 -17 -13 -36 -27 -22 -12 12 -4 33 11 33 5 0 12 -5 16 -11z m62
    -18 c10 -6 7 -10 -13 -15 -30 -8 -41 -3 -30 13 7 13 25 14 43 2z m-670 -96 l4
    -29 -16 13 c-19 16 -22 55 -3 49 6 -3 14 -17 15 -33z m482 -215 c25 -10 83
    -36 130 -58 47 -22 134 -59 193 -82 81 -32 111 -48 117 -65 5 -13 14 -25 21
    -27 18 -6 3 -38 -17 -38 -8 0 -43 13 -77 30 -34 16 -118 54 -187 84 -289 125
    -612 285 -577 286 10 0 15 5 12 10 -3 6 -17 10 -30 10 -23 0 -61 52 -50 70 3
    4 98 -40 212 -97 115 -58 228 -113 253 -123z m-490 136 l-1 -31 -14 19 c-8 11
    -15 31 -15 44 l0 24 15 -12 c8 -7 15 -27 15 -44z m34 12 c11 -21 125 -88 255
    -149 35 -16 109 -51 165 -78 89 -44 217 -101 422 -189 l62 -26 12 -34 c7 -21
    8 -38 3 -43 -15 -15 -381 145 -718 314 l-179 90 20 10 c16 7 38 0 93 -28 115
    -58 107 -34 -10 28 -119 64 -116 63 -141 40 -24 -22 -36 -8 -13 17 13 14 16
    28 11 51 -7 35 0 33 18 -3z m1019 -70 c2 -24 16 -89 31 -145 l26 -102 0 -214
    c0 -282 -11 -577 -22 -577 -4 0 -8 9 -8 20 0 12 -9 22 -24 26 l-23 5 -6 88
    c-4 49 -9 96 -13 105 -4 10 -1 16 9 16 l15 0 -5 173 c-2 94 -8 275 -13 402 -9
    226 -7 244 21 245 4 0 9 -19 12 -42z m-53 -35 c0 -120 21 -679 26 -695 3 -11
    -5 -26 -20 -39 l-26 -23 14 -15 c9 -10 15 -45 17 -96 l3 -80 -15 3 c-24 6 -27
    14 -32 110 -3 73 -1 95 9 99 17 6 18 40 2 46 -10 3 -10 9 0 26 17 29 15 61 -5
    83 l-17 19 12 19 c15 25 15 63 0 78 -10 10 -10 17 0 32 15 24 16 57 2 65 -6 4
    -8 26 -4 56 4 30 2 54 -5 62 -8 10 -7 22 1 45 l12 31 -19 21 -19 21 12 19 c16
    27 15 60 -3 80 l-16 17 16 13 c8 7 15 20 15 30 0 20 9 30 27 30 9 0 13 -16 13
    -57z m-935 27 c4 -6 -6 -10 -22 -10 -22 0 -25 2 -13 10 19 12 27 12 35 0z
    m563 -470 c23 -11 53 -25 67 -30 l25 -10 0 -35 c0 -19 1 -35 3 -35 9 0 223
    -92 230 -99 36 -36 -143 29 -388 142 l-99 46 29 11 c17 7 39 16 50 20 30 13
    37 12 83 -10z m-98 -70 c43 -22 118 -56 167 -76 194 -79 274 -117 270 -128 -6
    -17 -44 -9 -111 25 -33 17 -94 44 -136 61 -109 43 -310 140 -310 150 0 18 44
    6 120 -32z m-56 -25 c83 -40 350 -161 439 -199 l37 -15 0 -70 c0 -38 3 -76 6
    -85 9 -24 -11 -20 -106 18 -169 68 -709 323 -690 326 3 0 48 16 100 35 52 18
    102 34 109 34 8 1 56 -19 105 -44z m449 -40 c33 -12 47 -23 47 -36 0 -23 6
    -24 -71 7 -84 34 -156 71 -164 84 -17 28 12 27 73 -4 37 -18 88 -41 115 -51z
    m-692 -44 c141 -75 501 -239 742 -338 l37 -16 0 -34 0 -34 -22 7 c-68 21 -656
    309 -828 405 l-74 42 19 8 c11 4 23 8 26 8 3 1 48 -21 100 -48z m829 -386 c0
    -24 -5 -35 -15 -35 -8 0 -15 9 -15 19 0 11 -3 26 -6 35 -4 12 0 16 15 16 l21
    0 0 -35z"/>
    <path d="M3405 2340 c-3 -5 -1 -10 4 -10 6 0 11 -21 11 -50 0 -27 -4 -50 -10
    -50 -5 0 -10 -4 -10 -10 0 -12 47 -13 54 -1 3 5 -1 11 -9 15 -11 4 -15 21 -15
    61 0 51 -10 69 -25 45z"/>
    <path d="M3507 2343 c-14 -13 -6 -20 18 -15 18 3 25 0 25 -12 0 -9 -8 -16 -20
    -16 -11 0 -20 -4 -20 -9 0 -5 9 -11 20 -14 21 -5 27 -31 10 -42 -5 -3 -19 -1
    -31 6 l-21 11 4 -14 c3 -7 19 -13 39 -13 l34 0 1 50 c1 28 -3 56 -9 63 -10 13
    -39 16 -50 5z"/>
    <path d="M3613 2343 c-25 -10 -12 -22 17 -16 34 6 43 -15 10 -24 -11 -3 -20
    -9 -20 -13 0 -4 9 -10 20 -13 23 -6 27 -35 5 -43 -8 -4 -22 -1 -30 6 -10 8
    -15 9 -15 2 0 -10 30 -32 44 -32 28 0 44 93 21 130 -6 10 -31 12 -52 3z"/>
    <path d="M2505 2318 c-4 -9 -28 -24 -53 -32 -67 -21 -269 -81 -319 -95 l-43
    -12 0 -35 c0 -21 4 -33 10 -29 6 3 10 17 10 30 0 14 7 26 18 29 9 2 78 21 152
    41 74 20 149 43 167 51 17 8 38 14 47 14 18 0 30 22 23 42 -3 9 -7 8 -12 -4z"/>
    <path d="M8191 2305 c-26 -34 -27 -55 -1 -88 11 -14 20 -30 20 -35 0 -16 134
    -92 161 -92 71 1 118 111 67 157 -44 39 -114 71 -169 78 l-56 7 -22 -27z m57
    8 c-13 -28 -44 -73 -50 -73 -16 0 -7 41 12 60 19 19 45 28 38 13z m94 -24 l42
    -22 -26 -21 c-30 -25 -48 -57 -48 -85 0 -26 -2 -26 -50 4 -50 32 -54 68 -11
    114 34 37 39 37 93 10z m98 -74 c11 -29 5 -51 -23 -82 -37 -41 -90 -25 -90 26
    0 67 92 112 113 56z"/>
    <path d="M8360 2189 l-12 -21 16 -16 c21 -22 51 -4 51 29 0 33 -39 39 -55 8z
    m40 -8 c0 -12 -20 -25 -27 -18 -7 7 6 27 18 27 5 0 9 -4 9 -9z"/>
    <path d="M1995 2310 c8 -13 35 -13 55 0 11 7 5 10 -23 10 -23 0 -36 -4 -32
    -10z"/>
    <path d="M8630 2125 c-63 -19 -194 -57 -291 -85 -369 -104 -395 -117 -418
    -211 -6 -24 -16 -52 -21 -61 -13 -23 -13 -245 0 -253 6 -3 10 -17 10 -31 l0
    -25 -70 37 c-96 50 -101 36 -6 -16 l76 -42 0 -229 0 -229 -60 37 -60 38 0 188
    c0 111 -4 196 -10 208 -14 24 -76 26 -102 2 l-18 -16 -25 11 c-32 15 -31 25 1
    51 32 25 84 28 84 6 0 -8 5 -15 10 -15 6 0 10 33 10 80 0 51 -4 80 -11 80 -14
    0 -152 -35 -258 -66 -46 -13 -85 -24 -87 -24 -2 0 -4 38 -4 85 0 50 -4 85 -10
    85 -6 0 -10 -38 -10 -95 l0 -95 18 0 c9 0 49 10 87 21 101 31 239 69 248 69
    16 0 7 -81 -10 -86 -49 -16 -76 -28 -89 -41 l-14 -14 0 -254 0 -254 26 -20
    c15 -12 41 -21 60 -21 l34 0 0 -49 c0 -27 -5 -53 -12 -58 -7 -5 -76 -27 -153
    -48 -77 -21 -152 -44 -167 -52 l-28 -14 0 -74 c0 -41 -4 -75 -9 -75 -5 0 -11
    -8 -13 -17 -2 -12 -29 -25 -93 -43 l-90 -26 -3 -90 -3 -90 26 -12 25 -11 87
    25 c98 28 100 29 105 64 2 19 13 27 51 39 l48 15 -3 25 c-2 17 -16 34 -40 50
    -26 16 -38 32 -38 47 0 13 -8 25 -17 28 l-18 6 3 66 c2 38 9 67 15 69 7 2 62
    19 122 38 61 19 136 42 168 51 l57 17 0 58 0 59 25 6 25 6 0 35 c0 42 2 42 68
    5 l52 -30 0 -241 0 -241 29 -29 c40 -39 86 -38 236 7 66 19 158 46 205 58 394
    108 420 117 468 165 46 46 52 86 52 340 l0 232 22 29 c31 43 32 149 1 208
    l-23 43 0 139 c0 82 -4 141 -10 145 -14 9 -13 205 1 205 14 0 2 56 -19 88 -39
    60 -86 63 -242 17z m160 8 c-14 -2 -70 -17 -125 -33 -55 -17 -179 -52 -275
    -79 -283 -79 -353 -101 -378 -117 -33 -21 -62 -73 -62 -110 0 -17 -7 -37 -15
    -44 -21 -17 -21 -188 0 -216 l14 -19 1 -530 c0 -346 -4 -525 -10 -515 -6 9
    -10 213 -10 526 l0 510 -15 20 c-21 28 -21 207 0 224 8 7 15 23 15 37 0 79 57
    135 168 163 46 11 91 25 100 30 9 5 69 23 132 41 187 50 395 110 399 115 2 2
    23 3 45 3 25 -1 31 -3 16 -6z m43 -34 c23 -11 55 -54 46 -63 -5 -5 -250 -78
    -424 -127 -77 -21 -178 -51 -225 -65 -99 -29 -254 -74 -257 -74 -11 0 1 59 17
    85 24 38 37 45 165 80 55 15 132 38 170 50 39 13 140 42 225 64 85 22 169 45
    185 50 42 13 70 13 98 0z m24 -264 c-3 -6 -51 -24 -108 -39 -57 -16 -174 -49
    -259 -73 -143 -42 -542 -153 -547 -153 -10 0 -1 159 10 168 12 10 286 92 308
    92 6 0 25 6 42 14 18 8 123 40 234 70 110 30 227 64 260 75 l58 20 3 -81 c2
    -45 1 -86 -1 -93z m18 -35 c3 -5 -18 -16 -47 -24 -29 -8 -109 -31 -178 -51
    -69 -20 -219 -62 -335 -94 -115 -33 -240 -69 -277 -81 -37 -13 -75 -19 -85
    -16 -23 9 76 43 317 107 102 27 214 59 250 71 62 20 327 96 342 97 4 1 9 -3
    13 -9z m15 -152 l0 -123 -55 -29 c-52 -27 -104 -80 -92 -93 4 -3 18 9 33 26
    25 30 91 71 114 71 17 0 40 -65 40 -115 0 -99 -45 -128 -130 -85 -45 23 -50
    24 -50 10 0 -14 78 -49 108 -50 l22 0 0 -245 c0 -273 -4 -295 -61 -337 -39
    -29 -252 -98 -479 -157 -85 -22 -182 -49 -214 -61 -79 -27 -120 -26 -143 3
    l-18 23 5 514 5 514 50 14 c28 7 100 28 160 47 61 19 171 50 245 69 74 20 200
    55 280 80 80 24 153 45 163 45 l17 1 0 -122z m-1130 -208 c-20 -13 -83 -13
    -75 0 3 6 25 10 48 10 31 0 38 -3 27 -10z m-52 -25 l62 0 0 -227 0 -226 -29
    -7 c-39 -8 -108 11 -121 35 -6 11 -10 106 -10 230 l0 212 18 -8 c9 -5 45 -9
    80 -9z m-324 -871 c10 -26 7 -34 -14 -34 -11 0 -20 4 -20 9 0 17 12 41 20 41
    4 0 11 -7 14 -16z m-64 -40 l-13 -15 16 -16 c9 -9 20 -13 24 -9 4 4 1 11 -7
    16 -21 13 -5 24 16 12 12 -7 25 -7 36 -1 12 6 18 6 18 -1 0 -5 -4 -10 -10 -10
    -5 0 -10 -5 -10 -10 0 -7 7 -7 21 0 11 6 25 9 32 7 15 -6 -29 -24 -110 -45
    l-63 -17 -45 25 -46 25 23 9 c13 4 32 12 43 16 19 8 75 27 84 29 2 1 -2 -6 -9
    -15z m-97 -81 c40 -25 39 -46 -2 -24 -30 16 -31 15 -31 -39 0 -49 -12 -66 -24
    -34 -10 26 -7 124 4 124 6 0 29 -12 53 -27z m247 18 c0 -9 -182 -63 -189 -55
    -8 8 7 15 85 38 90 27 104 30 104 17z m-231 -67 l23 -17 42 12 c22 7 49 15 59
    17 12 4 17 0 17 -13 0 -15 -18 -24 -82 -45 -46 -14 -86 -24 -90 -21 -10 6 -10
    83 0 83 4 0 18 -7 31 -16z"/>
    <path d="M7484 2128 c-4 -6 -2 -14 4 -16 16 -5 16 -89 0 -95 -7 -3 1 -5 17 -5
    17 0 24 2 18 5 -9 3 -13 26 -13 64 0 56 -10 74 -26 47z"/>
    <path d="M7580 2130 c0 -5 12 -10 26 -10 l25 0 -7 -22 c-3 -13 -13 -35 -20
    -50 -16 -31 -17 -38 -6 -38 9 0 52 98 52 118 0 7 -14 12 -35 12 -19 0 -35 -4
    -35 -10z"/>
    <path d="M7701 2090 l-31 -50 30 0 c20 0 30 -5 30 -15 0 -8 5 -15 10 -15 6 0
    10 6 10 14 0 8 6 17 13 19 10 4 10 6 0 6 -9 1 -13 17 -13 46 0 58 -11 57 -49
    -5z m29 -15 c0 -15 -6 -25 -15 -25 l-15 0 12 25 c6 14 13 25 15 25 1 0 3 -11
    3 -25z"/>
    <path d="M7240 2036 c-104 -30 -100 -26 -100 -117 l0 -79 48 -31 c46 -30 57
    -31 120 -13 l22 6 0 -20 c0 -23 28 -36 54 -26 9 3 16 17 16 33 0 15 8 31 20
    39 28 17 26 58 -5 78 l-25 16 0 58 0 57 -25 11 c-32 15 -34 15 -125 -12z m50
    -22 c-70 -22 -120 -31 -108 -19 10 10 132 43 158 43 14 0 -9 -11 -50 -24z m80
    -42 l0 -49 -74 -21 c-97 -29 -96 -29 -96 21 l0 42 83 27 c45 14 83 26 85 27 1
    1 2 -21 2 -47z m-190 -53 l0 -51 31 -29 c36 -34 16 -40 -25 -8 l-26 20 0 60
    c0 33 4 59 10 59 6 0 10 -23 10 -51z m224 -28 c6 -10 -153 -50 -172 -43 -21 7
    -1 19 58 35 64 18 107 21 114 8z m16 -30 c0 -16 -156 -65 -165 -51 -3 4 30 19
    73 33 88 29 92 30 92 18z m-40 -71 c0 -11 -7 -20 -15 -20 -8 0 -15 9 -15 20 0
    11 7 20 15 20 8 0 15 -9 15 -20z"/>
    <path d="M9015 1780 c-3 -5 -1 -10 4 -10 6 0 11 -21 11 -50 0 -27 -4 -50 -10
    -50 -5 0 -10 -4 -10 -10 0 -5 11 -10 25 -10 25 0 33 14 15 25 -5 3 -10 31 -10
    61 0 50 -10 68 -25 44z"/>
    <path d="M9106 1781 c5 -5 19 -11 31 -13 l22 -3 -25 -50 c-28 -58 -27 -55 -14
    -55 10 0 60 102 60 121 0 5 -19 9 -42 9 -26 0 -38 -4 -32 -9z"/>
    <path d="M9216 1774 c-18 -18 -21 -66 -6 -95 13 -24 65 -26 74 -3 28 73 -22
    145 -68 98z m59 -34 c6 -28 -8 -70 -23 -70 -17 0 -32 26 -32 55 0 58 43 69 55
    15z"/>
    <path d="M6775 1670 c-3 -5 -1 -10 4 -10 6 0 11 -21 11 -50 0 -27 -4 -50 -10
    -50 -5 0 -10 -4 -10 -10 0 -5 11 -10 25 -10 25 0 33 14 15 25 -5 3 -10 31 -10
    61 0 50 -10 68 -25 44z"/>
    <path d="M6878 1673 c-9 -2 -20 -14 -24 -26 -8 -26 30 -60 57 -52 14 5 17 2
    13 -9 -6 -17 -32 -29 -45 -20 -5 3 -9 -2 -9 -10 0 -17 17 -20 44 -10 25 10 40
    69 24 101 -13 28 -29 35 -60 26z m47 -32 c0 -22 -34 -39 -44 -22 -5 8 -7 20
    -4 28 7 18 48 13 48 -6z"/>
    <path d="M6977 1673 c-4 -3 -7 -19 -7 -34 l0 -28 29 5 c34 7 51 -21 26 -45
    l-15 -16 -20 13 c-23 14 -27 0 -5 -18 26 -21 65 3 65 39 0 31 -30 58 -50 46
    -6 -3 -10 1 -10 9 0 10 9 16 25 16 14 0 25 5 25 10 0 11 -53 14 -63 3z"/>
    <path d="M6810 1443 c-57 -21 -66 -52 -54 -185 8 -74 18 -85 74 -73 l30 7 -1
    31 c-2 63 -13 82 -42 79 -43 -5 -22 26 27 39 75 20 186 -7 186 -46 0 -36 81
    -44 94 -9 3 8 1 36 -5 60 l-12 45 -58 30 -58 29 -83 -1 c-46 0 -90 -3 -98 -6z
    m196 -28 c27 -8 58 -22 69 -30 l20 -16 -38 5 -38 5 7 -21 6 -21 -18 7 c-98 38
    -232 20 -235 -32 -1 -9 -5 2 -11 26 -11 51 -2 67 46 81 48 14 137 12 192 -4z
    m97 -92 c6 -34 1 -43 -24 -43 -12 0 -23 10 -29 26 -15 38 -13 44 19 44 l29 0
    5 -27z m-270 -75 c2 -18 3 -36 0 -40 -7 -13 -53 -9 -53 5 0 6 -3 22 -6 34 -5
    17 -1 22 18 26 12 2 26 5 29 6 4 0 9 -14 12 -31z"/>
    <path d="M7038 909 c6 -7 12 -34 12 -60 0 -29 -5 -49 -12 -52 -7 -3 -2 -6 12
    -6 l25 -1 -5 62 -5 63 -20 3 -20 4 13 -13z"/>
    <path d="M7126 901 c-25 -28 -6 -61 34 -61 17 0 30 -4 30 -10 0 -15 -37 -31
    -56 -23 -12 4 -15 3 -10 -5 12 -20 54 -14 70 10 46 65 -17 146 -68 89z m54 -6
    c15 -18 6 -45 -15 -45 -18 0 -30 24 -21 45 7 19 20 19 36 0z"/>
    <path d="M7229 893 c-17 -45 0 -97 33 -101 39 -5 64 37 52 86 l-9 37 -33 3
    -32 3 -11 -28z m59 5 c32 -32 1 -116 -33 -88 -26 22 -14 100 15 100 3 0 11 -5
    18 -12z"/>
    <path d="M6666 869 c-31 -37 -36 -98 -8 -121 36 -33 82 -49 117 -42 26 4 43 1
    68 -15 44 -27 83 -27 97 -1 18 33 3 56 -55 86 -38 20 -55 36 -59 54 -6 31 -65
    70 -105 70 -20 0 -37 -9 -55 -31z m84 1 c0 -13 -11 -13 -30 0 l-15 10 23 0
    c12 0 22 -4 22 -10z m-50 -23 c0 -7 -6 -22 -14 -33 -19 -25 -37 -8 -25 24 9
    24 39 31 39 9z m107 -13 c2 -7 -10 -11 -33 -10 -52 1 -64 -31 -27 -75 l26 -31
    -24 4 c-13 1 -30 15 -38 30 l-15 27 17 36 17 36 37 -3 c20 -2 38 -8 40 -14z
    m-42 -43 c-7 -23 -25 -29 -25 -8 0 14 21 39 28 33 2 -3 1 -14 -3 -25z m39 -13
    c-8 -29 -10 -31 -23 -23 -8 4 -8 12 -1 26 15 27 33 24 24 -3z m46 -11 c0 -7
    -6 -21 -13 -32 -18 -24 -32 -3 -17 25 12 23 30 27 30 7z m29 -48 l-13 -24 -4
    18 c-6 28 6 53 19 40 8 -8 7 -18 -2 -34z m51 -8 c0 -11 -5 -23 -11 -27 -15 -9
    -33 12 -26 30 9 23 37 20 37 -3z"/>
    <path d="M1222 734 c-50 -35 -1 -184 61 -184 72 0 91 84 37 158 -33 46 -60 53
    -98 26z m94 -55 c8 -16 14 -43 13 -61 l-1 -33 -9 43 c-4 23 -18 57 -31 75 -16
    23 -17 28 -4 18 9 -8 24 -27 32 -42z m-48 18 c26 -28 44 -84 36 -109 -7 -23
    -41 -23 -53 0 l-10 18 22 0 c16 -1 23 6 25 22 7 47 -52 75 -61 30 -3 -15 -5
    -10 -6 13 -2 55 13 63 47 26z m2 -60 l-1 -22 -14 19 c-8 10 -12 23 -9 28 9 14
    24 -2 24 -25z"/>
    <path d="M7006 667 c-45 -59 -33 -110 32 -137 45 -19 101 22 109 78 l5 40 -25
    26 c-39 39 -88 36 -121 -7z m22 -12 c-6 -14 -13 -23 -15 -21 -5 5 15 46 22 46
    3 0 -1 -11 -7 -25z m86 9 c45 -44 -19 -150 -70 -116 -31 20 -22 92 13 120 22
    16 38 15 57 -4z"/>
    <path d="M7051 631 c-16 -29 -13 -49 8 -60 28 -15 54 8 49 44 -4 37 -41 47
    -57 16z m38 -16 c5 -20 -1 -35 -14 -35 -15 0 -21 31 -8 44 7 6 19 1 22 -9z"/>
    <path d="M1019 639 c-50 -50 24 -196 88 -175 36 12 54 86 32 129 -34 66 -82
    84 -120 46z m53 -26 c27 -30 49 -81 29 -69 -6 4 -11 13 -11 20 0 39 -55 41
    -63 3 -2 -12 -5 -4 -6 19 -2 62 11 69 51 27z m62 -57 c8 -41 0 -45 -9 -4 -4
    18 -14 44 -22 58 l-15 25 20 -25 c11 -13 23 -38 26 -54z m-54 -11 c0 -6 9 -20
    20 -30 11 -10 18 -21 15 -23 -8 -8 -65 59 -65 76 l0 14 15 -12 c8 -7 15 -18
    15 -25z m-10 -40 c7 -8 8 -15 2 -15 -5 0 -15 7 -22 15 -7 8 -8 15 -2 15 5 0
    15 -7 22 -15z"/>
    <path d="M6345 630 c-3 -5 -1 -10 4 -10 16 0 14 -97 -1 -103 -7 -3 3 -5 22 -5
    19 0 29 2 23 5 -9 3 -13 26 -13 64 0 45 -3 59 -14 59 -8 0 -18 -4 -21 -10z"/>
    <path d="M6440 625 l-12 -15 13 -17 c11 -13 11 -17 2 -20 -24 -8 -15 -52 11
    -59 38 -9 66 4 66 32 0 13 -5 24 -10 24 -7 0 -8 6 -1 17 22 40 -39 74 -69 38z
    m44 -1 c23 -9 20 -34 -3 -34 -22 0 -35 15 -26 30 7 12 8 12 29 4z m5 -63 c17
    -11 7 -41 -13 -41 -19 0 -29 17 -22 35 6 17 15 18 35 6z"/>
    <path d="M6552 628 c-17 -17 -15 -93 2 -108 20 -16 56 -9 70 13 15 24 -3 51
    -38 55 -14 2 -26 7 -26 11 0 16 28 31 44 25 9 -3 16 -1 16 5 0 15 -53 14 -68
    -1z m58 -78 c0 -19 -25 -34 -41 -24 -13 8 -11 42 4 47 20 7 37 -4 37 -23z"/>
    <path d="M821 514 l-65 -24 -32 15 c-64 30 -132 -15 -121 -80 8 -49 44 -104
    72 -111 34 -9 78 16 97 56 l18 34 72 26 73 25 3 26 c3 27 -20 59 -41 59 -7 -1
    -41 -12 -76 -26z m94 -15 c4 -11 4 -23 2 -26 -9 -8 -24 5 -30 27 -7 27 20 27
    28 -1z m-35 -36 c0 -7 -6 -13 -14 -13 -15 0 -29 38 -19 53 7 12 33 -20 33 -40z
    m-175 27 c-3 -5 -12 -10 -20 -10 -8 0 -17 5 -20 10 -4 6 5 10 20 10 15 0 24
    -4 20 -10z m121 -15 c4 -8 3 -23 -1 -32 l-7 -18 -8 20 c-5 11 -9 26 -9 33 -1
    17 18 15 25 -3z m-167 -4 c8 -5 19 -24 26 -42 7 -19 15 -41 19 -49 3 -9 0 -24
    -9 -35 l-15 -20 -25 28 c-48 54 -45 149 4 118z m88 -32 c14 -35 10 -49 -13
    -49 -18 0 -39 43 -31 64 10 26 32 18 44 -15z m41 3 c4 -25 -13 -30 -22 -6 -9
    25 -7 36 7 32 6 -3 13 -14 15 -26z m-51 -89 c-9 -9 -19 -14 -22 -11 -3 3 2 13
    11 22 9 9 19 14 22 11 3 -3 -2 -13 -11 -22z"/>
    <path d="M1325 510 c-3 -5 -1 -10 4 -10 16 0 14 -97 -1 -103 -7 -3 3 -6 22 -6
    26 -1 31 2 22 11 -7 7 -12 36 -12 65 0 39 -4 53 -14 53 -8 0 -18 -4 -21 -10z"/>
    <path d="M1427 513 c-4 -3 -7 -13 -7 -21 l0 -15 19 17 c20 18 41 14 41 -8 0
    -6 -16 -27 -35 -46 -46 -44 -44 -50 13 -49 l47 2 -39 6 -38 6 36 33 c38 34 44
    50 24 70 -13 13 -50 16 -61 5z"/>
    <path d="M1530 501 c-25 -47 -5 -111 35 -111 27 0 45 25 45 65 0 40 -18 65
    -45 65 -14 0 -29 -8 -35 -19z m48 -3 c28 -28 3 -112 -28 -93 -18 11 -10 105 9
    105 4 0 12 -5 19 -12z"/>
    <path d="M960 410 c-10 -7 -11 -10 -2 -10 8 0 12 -17 12 -50 0 -27 -4 -50 -10
    -50 -5 0 -10 -4 -10 -10 0 -5 10 -10 23 -10 l23 0 -4 63 c-5 69 -10 81 -32 67z"/>
    <path d="M1173 410 c-24 -10 -38 -57 -27 -92 14 -45 55 -51 80 -13 l17 26 -19
    20 c-12 13 -27 19 -41 16 -13 -2 -23 -1 -23 2 0 15 26 31 50 31 20 0 22 2 10
    10 -18 11 -18 11 -47 0z m40 -72 c7 -21 -4 -38 -23 -38 -23 0 -34 16 -26 35 7
    18 43 20 49 3z"/>
    <path d="M1063 396 c22 -17 22 -73 0 -98 l-16 -18 31 0 c18 0 32 5 32 10 0 6
    -4 10 -10 10 -5 0 -10 25 -10 55 l0 55 -22 0 -23 -1 18 -13z"/>
    <path d="M6920 320 c-16 -16 -19 -25 -10 -35 8 -10 8 -18 -1 -33 -24 -39 20
    -74 59 -46 28 19 24 102 -6 122 l-21 13 -21 -21z m39 -9 c16 -10 6 -31 -14
    -31 -17 0 -28 17 -20 30 8 12 16 12 34 1z m9 -74 c3 -12 -3 -17 -22 -17 -25 0
    -35 18 -19 34 12 12 38 2 41 -17z"/>
    <path d="M7027 322 c-20 -22 -23 -92 -5 -110 7 -7 22 -12 34 -12 44 0 55 97
    15 127 -21 16 -25 16 -44 -5z m42 -16 c20 -24 10 -80 -15 -84 -26 -4 -39 34
    -24 72 11 29 22 33 39 12z"/>
    <path d="M6815 320 c-3 -5 -1 -10 4 -10 15 0 14 -83 -1 -98 -14 -14 13 -27 39
    -18 12 5 14 9 5 18 -7 7 -12 36 -12 65 0 39 -4 53 -14 53 -8 0 -18 -4 -21 -10z"/>
    <path d="M530 219 c-11 -8 -12 -12 -2 -16 14 -6 17 -93 2 -93 -5 0 -10 -4 -10
    -10 0 -5 10 -10 23 -10 l24 0 -5 58 c-5 70 -12 85 -32 71z"/>
    <path d="M640 219 c-8 -6 -11 -12 -5 -15 12 -5 7 -94 -6 -94 -5 0 -9 -4 -9
    -10 0 -5 14 -10 30 -10 17 0 30 5 30 10 0 6 -4 10 -10 10 -5 0 -10 27 -12 60
    l-3 59 -15 -10z"/>
    <path d="M732 218 c-7 -7 -12 -19 -12 -27 l1 -16 10 18 c5 9 17 17 24 17 25 0
    17 -37 -15 -68 -41 -41 -38 -52 15 -52 25 0 45 5 45 10 0 6 -17 10 -37 10
    l-38 1 38 30 c42 35 45 48 19 72 -22 20 -34 21 -50 5z"/>
    <path d="M2033 213 c-23 -9 -14 -24 11 -17 32 8 42 -11 15 -29 l-21 -15 21 -7
    c12 -3 21 -13 21 -21 0 -20 -27 -29 -45 -14 -17 14 -31 8 -20 -9 9 -15 58 -14
    73 1 15 15 16 48 2 48 -7 0 -7 7 0 21 19 34 -15 59 -57 42z"/>
    <path d="M2136 198 c-20 -28 -21 -82 -2 -97 24 -20 70 -10 74 17 5 31 -17 55
    -45 49 -13 -2 -23 -1 -23 2 0 13 24 31 42 31 10 0 18 5 18 10 0 19 -49 10 -64
    -12z m52 -70 c-2 -15 -10 -23 -23 -23 -13 0 -21 8 -23 23 l-3 22 26 0 26 0 -3
    -22z"/>
    </g>
  </g>
  <g id="labels" font-family="Helvetica, Arial, sans-serif" fill="#111" font-size="14" text-rendering="geometricPrecision" opacity="0" pointer-events="none">
      <a id="pos-10" href="#pos-10"><text data-pos="10" x="265" y="203" text-anchor="middle" dominant-baseline="middle" font-size="12" font-weight="600">10</text></a>
      <a id="pos-13" href="#pos-13"><text data-pos="13" x="295" y="612" text-anchor="middle" dominant-baseline="middle" font-size="12" font-weight="600">13</text></a>
      <a id="pos-15" href="#pos-15"><text data-pos="15" x="438" y="64" text-anchor="middle" dominant-baseline="middle" font-size="12" font-weight="600">15</text></a>
      <a id="pos-25" href="#pos-25"><text data-pos="25" x="150" y="288" text-anchor="middle" dominant-baseline="middle" font-size="12" font-weight="600">25</text></a>
      <a id="pos-28" href="#pos-28"><text data-pos="28" x="223" y="328" text-anchor="middle" dominant-baseline="middle" font-size="12" font-weight="600">28</text></a>
      <a id="pos-31" href="#pos-31"><text data-pos="31" x="194" y="341" text-anchor="middle" dominant-baseline="middle" font-size="12" font-weight="600">31</text></a>
      <a id="pos-36" href="#pos-36"><text data-pos="36" x="213" y="619" text-anchor="middle" dominant-baseline="middle" font-size="10" font-weight="600">36</text></a>
      <a id="pos-37" href="#pos-37"><text data-pos="37" x="620" y="366" text-anchor="middle" dominant-baseline="middle" font-size="12" font-weight="600">37</text></a>
      <a id="pos-38" href="#pos-38"><text data-pos="38" x="364" y="496" text-anchor="middle" dominant-baseline="middle" font-size="12" font-weight="600">38</text></a>
      <a id="pos-39" href="#pos-39"><text data-pos="39" x="245" y="326" text-anchor="middle" dominant-baseline="middle" font-size="12" font-weight="600">39</text></a>
      <a id="pos-40" href="#pos-40"><text data-pos="40" x="561" y="31" text-anchor="middle" dominant-baseline="middle" font-size="12" font-weight="600">40</text></a>
      <a id="pos-44" href="#pos-44"><text data-pos="44" x="635" y="96" text-anchor="middle" dominant-baseline="middle" font-size="12" font-weight="600">44</text></a>
      <a id="pos-48" href="#pos-48"><text data-pos="48" x="595" y="67" text-anchor="middle" dominant-baseline="middle" font-size="12" font-weight="600">48</text></a>
      <a id="pos-52" href="#pos-52"><text data-pos="52" x="493" y="23" text-anchor="middle" dominant-baseline="middle" font-size="10" font-weight="600">52</text></a>
      <a id="pos-56" href="#pos-56"><text data-pos="56" x="576" y="199" text-anchor="middle" dominant-baseline="middle" font-size="12" font-weight="600">56</text></a>
      <a id="pos-61" href="#pos-61"><text data-pos="61" x="553" y="139" text-anchor="middle" dominant-baseline="middle" font-size="12" font-weight="600">61</text></a>
      <a id="pos-64" href="#pos-64"><text data-pos="64" x="487" y="168" text-anchor="middle" dominant-baseline="middle" font-size="12" font-weight="600">64</text></a>
      <a id="pos-70" href="#pos-70"><text data-pos="70" x="139" y="43" text-anchor="middle" dominant-baseline="middle" font-size="12" font-weight="600">70</text></a>
      <a id="pos-77" href="#pos-77"><text data-pos="77" x="293" y="267" text-anchor="middle" dominant-baseline="middle" font-size="12" font-weight="600">77</text></a>
      <a id="pos-82" href="#pos-82"><text data-pos="82" x="247" y="253" text-anchor="middle" dominant-baseline="middle" font-size="12" font-weight="600">82</text></a>
      <a id="pos-87" href="#pos-87"><text data-pos="87" x="134" y="384" text-anchor="middle" dominant-baseline="middle" font-size="12" font-weight="600">87</text></a>
      <a id="pos-91" href="#pos-91"><text data-pos="91" x="271" y="342" text-anchor="middle" dominant-baseline="middle" font-size="12" font-weight="600">91</text></a>
      <a id="pos-94" href="#pos-94"><text data-pos="94" x="277" y="378" text-anchor="middle" dominant-baseline="middle" font-size="12" font-weight="600">94</text></a>
      <a id="pos-96" href="#pos-96"><text data-pos="96" x="277" y="404" text-anchor="middle" dominant-baseline="middle" font-size="12" font-weight="600">96</text></a>
      <a id="pos-102" href="#pos-102"><text data-pos="102" x="295" y="45" text-anchor="middle" dominant-baseline="middle" font-size="12" font-weight="600">102</text></a>
      <a id="pos-107" href="#pos-107"><text data-pos="107" x="350" y="107" text-anchor="middle" dominant-baseline="middle" font-size="12" font-weight="600">107</text></a>
      <a id="pos-109" href="#pos-109"><text data-pos="109" x="606" y="301" text-anchor="middle" dominant-baseline="middle" font-size="12" font-weight="600">109</text></a>
      <a id="pos-111" href="#pos-111"><text data-pos="111" x="603" y="257" text-anchor="middle" dominant-baseline="middle" font-size="12" font-weight="600">111</text></a>
      <a id="pos-112" href="#pos-112"><text data-pos="112" x="379" y="355" text-anchor="middle" dominant-baseline="middle" font-size="12" font-weight="600">112</text></a>
      <a id="pos-116" href="#pos-116"><text data-pos="116" x="106" y="608" text-anchor="middle" dominant-baseline="middle" font-size="12" font-weight="600">116</text></a>
      <a id="pos-120" href="#pos-120"><text data-pos="120" x="418" y="343" text-anchor="middle" dominant-baseline="middle" font-size="12" font-weight="600">120</text></a>
      <a id="pos-124" href="#pos-124"><text data-pos="124" x="375" y="330" text-anchor="middle" dominant-baseline="middle" font-size="12" font-weight="600">124</text></a>
      <a id="pos-128" href="#pos-128"><text data-pos="128" x="593" y="292" text-anchor="middle" dominant-baseline="middle" font-size="12" font-weight="600">128</text></a>
      <a id="pos-133" href="#pos-133"><text data-pos="133" x="357" y="412" text-anchor="middle" dominant-baseline="middle" font-size="12" font-weight="600">133</text></a>
      <a id="pos-136" href="#pos-136"><text data-pos="136" x="496" y="345" text-anchor="middle" dominant-baseline="middle" font-size="12" font-weight="600">136</text></a>
      <a id="pos-140" href="#pos-140"><text data-pos="140" x="61" y="357" text-anchor="middle" dominant-baseline="middle" font-size="12" font-weight="600">140</text></a>
      <a id="pos-146" href="#pos-146"><text data-pos="146" x="66" y="387" text-anchor="middle" dominant-baseline="middle" font-size="12" font-weight="600">146</text></a>
      <a id="pos-149" href="#pos-149"><text data-pos="149" x="67" y="288" text-anchor="middle" dominant-baseline="middle" font-size="12" font-weight="600">149</text></a>
      <a id="pos-154" href="#pos-154"><text data-pos="154" x="60" y="262" text-anchor="middle" dominant-baseline="middle" font-size="12" font-weight="600">154</text></a>
      <a id="pos-158" href="#pos-158"><text data-pos="158" x="65" y="312" text-anchor="middle" dominant-baseline="middle" font-size="12" font-weight="600">158</text></a>
      <a id="pos-165" href="#pos-165"><text data-pos="165" x="804" y="400" text-anchor="middle" dominant-baseline="middle" font-size="12" font-weight="600">165</text></a>
      <a id="pos-170" href="#pos-170"><text data-pos="170" x="917" y="467" text-anchor="middle" dominant-baseline="middle" font-size="12" font-weight="600">170</text></a>
      <a id="pos-174" href="#pos-174"><text data-pos="174" x="766" y="436" text-anchor="middle" dominant-baseline="middle" font-size="12" font-weight="600">174</text></a>
      <a id="pos-180" href="#pos-180"><text data-pos="180" x="697" y="613" text-anchor="middle" dominant-baseline="middle" font-size="11" font-weight="600">180</text></a>
      <a id="pos-186" href="#pos-186"><text data-pos="186" x="650" y="585" text-anchor="middle" dominant-baseline="middle" font-size="12" font-weight="600">186</text></a>
      <a id="pos-190" href="#pos-190"><text data-pos="190" x="716" y="553" text-anchor="middle" dominant-baseline="middle" font-size="12" font-weight="600">190</text></a>
      <a id="pos-195" href="#pos-195"><text data-pos="195" x="689" y="479" text-anchor="middle" dominant-baseline="middle" font-size="12" font-weight="600">195</text></a>
  </g>
</svg>
