<svg xmlns="http://www.w3.org/2000/svg" width="960" height="640" viewBox="0 0 960 640" role="img" aria-labelledby="title desc">
  <title id="title">Mercedes parts diagram: group-016</title>
  <desc id="desc">Mercedes parts diagram: group-016</desc>
  <g id="art">
    <metadata>
    Created by potrace 1.16, written by Peter Selinger 2001-2019
    </metadata>
    <g transform="translate(0.000000,640.000000) scale(0.100000,-0.100000)"
    fill="#000000" stroke="none">
    <path d="M3396 5075 c-8 -9 -21 -24 -28 -34 -7 -10 -36 -34 -64 -54 -78 -56
    -93 -119 -42 -174 16 -17 33 -23 65 -23 54 0 86 28 103 90 6 23 28 67 47 97
    l36 54 -20 27 c-24 32 -73 41 -97 17z m72 -11 c27 -19 27 -32 2 -64 l-20 -25
    -11 18 c-6 10 -23 23 -37 28 l-27 11 28 24 c33 28 36 29 65 8z m-50 -76 c30
    -30 -11 -159 -57 -177 -54 -23 -111 12 -111 67 0 71 125 153 168 110z"/>
    <path d="M4775 5072 c-5 -4 -10 -35 -10 -70 l0 -62 25 0 c15 0 20 3 13 8 -7 4
    -13 35 -15 69 -2 39 -7 60 -13 55z"/>
    <path d="M4858 5069 c-38 -21 -15 -79 30 -79 33 0 23 -24 -11 -28 -30 -4 -27
    -22 3 -22 31 0 50 28 50 76 l0 44 -26 10 c-30 12 -25 12 -46 -1z m51 -23 c9
    -10 8 -16 -4 -26 -17 -14 -45 -7 -45 13 0 29 30 37 49 13z"/>
    <path d="M4974 5070 c-25 -10 -33 -43 -22 -87 13 -50 72 -56 84 -8 15 61 -18
    112 -62 95z m42 -35 c9 -37 -3 -75 -25 -75 -23 0 -35 39 -21 74 12 33 38 33
    46 1z"/>
    <path d="M2843 5039 c-24 -9 -32 -46 -13 -65 6 -6 4 -19 -5 -38 -19 -36 -19
    -66 0 -80 l14 -11 -84 -87 -85 -87 -72 19 c-40 11 -82 20 -94 20 -29 0 -54
    -58 -54 -129 l0 -58 23 -11 c12 -6 16 -11 9 -11 -7 -1 -11 -5 -8 -9 3 -5 -14
    -28 -38 -51 l-43 -42 -120 31 -119 32 -57 -58 -56 -59 -12 13 c-23 22 -73 14
    -102 -16 -38 -39 -35 -76 7 -118 43 -43 75 -44 115 -3 34 33 39 63 17 95 l-15
    21 53 52 53 53 118 -31 119 -31 21 20 c31 29 35 26 35 -33 l0 -53 63 -17 c384
    -106 503 -127 720 -127 l154 0 45 30 c57 38 58 42 58 223 l0 147 -72 0 -73 1
    -25 55 c-30 67 -34 69 -135 83 -44 6 -117 17 -163 26 l-83 15 -52 -14 c-29 -8
    -80 -23 -114 -34 -35 -11 -63 -17 -63 -14 0 4 34 41 76 83 l76 76 36 -13 c58
    -19 112 -27 112 -16 0 5 9 12 20 15 l21 5 -3 78 -3 79 -40 6 c-22 4 -62 16
    -90 27 -34 13 -57 17 -72 11z m101 -67 l58 -16 -5 -59 c-3 -32 -7 -61 -10 -63
    -8 -8 -94 20 -98 31 -2 6 9 10 24 11 34 1 48 19 37 48 -8 23 -60 30 -67 9 -3
    -8 6 -11 23 -10 15 1 29 -4 31 -10 3 -8 -4 -13 -19 -13 -14 0 -35 -11 -48 -25
    l-24 -26 -9 23 c-5 14 -4 24 2 26 6 2 11 26 11 54 l0 50 18 -7 c9 -3 43 -14
    76 -23z m85 -34 c-2 -79 -17 -100 -18 -25 -1 38 3 67 9 67 6 0 10 -19 9 -42z
    m93 -238 c73 -11 138 -20 144 -20 11 0 58 -99 50 -107 -15 -15 -405 41 -560
    80 l-51 13 85 23 c47 12 90 24 95 26 25 9 114 3 237 -15z m-422 -51 c282 -66
    507 -97 724 -99 l30 0 -20 -15 c-39 -30 -370 -9 -609 39 -93 18 -339 77 -344
    82 -6 6 20 34 33 34 6 0 90 -19 186 -41z m-144 -34 c162 -47 502 -100 722
    -112 l124 -6 -6 -30 c-3 -16 -6 -40 -6 -53 0 -13 -6 -24 -13 -24 -8 0 -24 -11
    -37 -25 -29 -31 -19 -58 24 -63 l26 -3 0 -49 0 -48 -31 -11 c-39 -14 -197 -14
    -270 -1 -30 5 -101 17 -159 25 -103 16 -258 53 -392 95 l-66 20 -4 55 -3 54
    21 -5 c12 -3 26 1 33 10 17 20 27 126 12 126 -6 0 -11 -14 -11 -30 l0 -30 -25
    16 -25 16 0 44 0 44 18 0 c10 0 41 -7 68 -15z m912 -243 l-3 -124 -19 -14
    c-31 -22 -36 -17 -36 31 0 42 -6 50 -32 46 -15 -2 -8 30 12 51 15 17 20 36 20
    79 l0 57 28 20 27 21 3 -21 c2 -12 2 -77 0 -146z m-1424 -51 c32 -36 13 -30
    -23 7 -18 19 -25 30 -15 24 11 -6 28 -20 38 -31z m-25 -17 c26 -33 27 -70 2
    -84 -44 -23 -109 35 -97 85 l6 25 34 0 c25 0 40 -7 55 -26z"/>
    <path d="M2520 4595 c0 -8 5 -15 10 -15 6 0 10 7 10 15 0 8 -4 15 -10 15 -5 0
    -10 -7 -10 -15z"/>
    <path d="M2590 4564 c0 -17 22 -14 28 4 2 7 -3 12 -12 12 -9 0 -16 -7 -16 -16z"/>
    <path d="M2682 4545 c0 -16 2 -22 5 -12 2 9 2 23 0 30 -3 6 -5 -1 -5 -18z"/>
    <path d="M2747 4531 c-5 -22 1 -33 14 -25 12 7 12 44 0 44 -5 0 -11 -9 -14
    -19z"/>
    <path d="M2825 4528 c-4 -10 -4 -26 0 -35 l8 -18 4 18 c3 9 3 25 0 35 l-4 17
    -8 -17z"/>
    <path d="M2590 4416 c0 -59 4 -106 9 -106 24 0 27 200 4 208 -10 3 -13 -22
    -13 -102z"/>
    <path d="M2907 4513 c-11 -10 -8 -53 3 -53 6 0 10 14 10 30 0 31 -2 35 -13 23z"/>
    <path d="M2988 4480 c-3 -17 -1 -33 4 -36 4 -3 8 11 8 30 0 44 -6 47 -12 6z"/>
    <path d="M3070 4465 c0 -22 4 -34 10 -30 6 3 10 17 10 30 0 13 -4 27 -10 30
    -6 4 -10 -8 -10 -30z"/>
    <path d="M3147 4457 c-3 -17 -1 -36 3 -40 4 -5 10 8 12 28 5 45 -8 57 -15 12z"/>
    <path d="M3227 4453 c-2 -21 0 -42 4 -47 5 -6 9 10 9 37 0 57 -6 61 -13 10z"/>
    <path d="M3300 4435 c0 -25 5 -45 10 -45 6 0 10 20 10 45 0 25 -4 45 -10 45
    -5 0 -10 -20 -10 -45z"/>
    <path d="M2671 4375 c-1 -60 2 -95 9 -95 6 0 10 36 10 95 0 52 -4 95 -8 95 -5
    0 -10 -43 -11 -95z"/>
    <path d="M2521 4378 c1 -42 3 -48 9 -28 12 36 12 80 0 80 -6 0 -10 -24 -9 -52z"/>
    <path d="M2742 4344 c-3 -60 -1 -75 10 -72 18 6 24 148 6 148 -9 0 -14 -22
    -16 -76z"/>
    <path d="M2827 4383 c-11 -10 -8 -133 3 -133 6 0 10 30 10 70 0 70 -1 76 -13
    63z"/>
    <path d="M2900 4290 c0 -27 5 -50 10 -50 6 0 10 23 10 50 0 28 -4 50 -10 50
    -5 0 -10 -22 -10 -50z"/>
    <path d="M2980 4270 c0 -22 5 -40 10 -40 6 0 10 18 10 40 0 22 -4 40 -10 40
    -5 0 -10 -18 -10 -40z"/>
    <path d="M3060 4244 c0 -21 4 -33 10 -29 6 3 10 19 10 36 0 16 -4 29 -10 29
    -5 0 -10 -16 -10 -36z"/>
    <path d="M3140 4224 c0 -14 4 -23 10 -19 6 3 10 15 10 26 0 10 -4 19 -10 19
    -5 0 -10 -12 -10 -26z"/>
    <path d="M3220 4215 c0 -8 5 -15 10 -15 6 0 10 7 10 15 0 8 -4 15 -10 15 -5 0
    -10 -7 -10 -15z"/>
    <path d="M1947 4303 c-15 -14 -6 -43 19 -59 l25 -17 16 16 17 16 -12 26 c-11
    24 -49 35 -65 18z m53 -34 c0 -14 -5 -19 -17 -17 -26 5 -29 38 -4 38 15 0 21
    -6 21 -21z"/>
    <path d="M2445 5031 c-3 -6 -1 -11 4 -11 16 0 14 -97 -1 -103 -7 -3 3 -6 22
    -6 19 0 30 3 23 7 -6 4 -13 32 -15 61 -3 51 -18 75 -33 52z"/>
    <path d="M2530 5030 c0 -5 14 -10 30 -10 36 0 36 2 8 -55 -12 -24 -19 -48 -15
    -51 8 -9 6 -12 39 57 15 32 24 60 21 63 -10 10 -83 7 -83 -4z"/>
    <path d="M2650 5025 c-18 -22 -4 -31 16 -11 11 11 20 14 26 8 15 -15 1 -48
    -27 -66 -40 -26 -32 -46 18 -44 l42 1 -32 4 c-40 5 -41 8 -3 40 17 13 30 32
    30 42 0 38 -46 55 -70 26z"/>
    <path d="M5436 5008 c-75 -7 -206 -43 -271 -76 -93 -45 -126 -152 -57 -185 40
    -19 156 -11 187 13 6 4 34 11 63 15 59 8 209 77 260 119 35 30 39 47 19 86
    l-12 25 -55 5 c-30 3 -91 2 -134 -2z m74 -28 c-150 -11 -213 -25 -335 -74
    l-40 -17 19 16 c58 45 225 84 361 83 l100 -1 -105 -7z m74 -16 c25 -4 46 -10
    46 -15 0 -5 -7 -6 -15 -3 -11 5 -13 2 -9 -10 8 -22 -29 -22 -47 0 l-14 17 -75
    -6 c-108 -8 -207 -41 -247 -83 -17 -19 -37 -34 -43 -34 -7 0 -10 -7 -6 -15 3
    -9 0 -15 -9 -15 -36 0 -10 39 51 76 11 7 16 15 12 19 -18 19 -87 -45 -100 -94
    l-4 -15 -6 16 c-24 60 120 132 315 157 86 12 98 12 151 5z m-28 -48 c10 -26
    -14 -52 -78 -84 -111 -54 -258 -65 -258 -18 0 28 8 38 51 64 75 46 272 72 285
    38z m-440 -58 c-20 -29 -20 -62 0 -82 8 -9 12 -16 7 -16 -18 0 -33 25 -33 52
    0 28 28 83 37 74 3 -3 -2 -15 -11 -28z m101 -96 c-27 -2 -45 2 -56 13 l-16 16
    16 -6 c10 -4 20 -2 23 3 3 6 19 3 39 -7 l34 -16 -40 -3z"/>
    <path d="M3564 4869 c-4 -7 -2 -15 4 -17 16 -5 16 -92 0 -93 -7 -1 -2 -4 12
    -8 27 -8 49 -3 32 8 -6 4 -12 31 -14 60 -3 53 -18 75 -34 50z"/>
    <path d="M3666 4864 c-25 -24 -21 -100 5 -114 23 -13 69 10 69 35 0 22 -31 47
    -52 42 -14 -4 -18 -1 -16 11 2 9 13 18 26 20 12 2 22 8 22 13 0 15 -37 10 -54
    -7z m48 -63 c10 -16 -5 -41 -25 -41 -14 0 -19 7 -19 25 0 25 32 37 44 16z"/>
    <path d="M3778 4870 c-57 -34 -16 -151 42 -120 42 23 10 91 -35 73 l-17 -6 12
    22 c8 16 18 21 31 18 12 -3 19 0 19 9 0 16 -27 18 -52 4z m42 -85 c0 -18 -5
    -25 -19 -25 -23 0 -35 15 -27 35 10 26 46 18 46 -10z"/>
    <path d="M5748 4828 l-38 -10 33 -30 c20 -19 57 -38 96 -49 l64 -18 14 17 c7
    9 12 30 10 47 l-2 30 -50 12 c-61 14 -79 14 -127 1z m64 -33 c-5 -30 -42 -36
    -42 -7 0 23 8 32 30 32 13 0 16 -6 12 -25z m86 9 c16 -5 22 -13 20 -28 l-3
    -21 -39 2 c-45 3 -61 15 -53 37 7 17 35 20 75 10z"/>
    <path d="M6048 4823 c-9 -2 -19 -11 -22 -19 -6 -16 9 -19 19 -4 3 6 13 10 21
    10 24 0 16 -35 -16 -65 -42 -40 -39 -55 10 -55 22 0 40 5 40 10 0 6 -11 10
    -25 10 -14 0 -25 4 -25 8 0 5 11 19 25 32 40 38 23 84 -27 73z"/>
    <path d="M6140 4810 c-37 -37 -13 -120 34 -120 40 0 60 86 27 119 -26 26 -36
    26 -61 1z m58 -40 c3 -42 -10 -65 -32 -57 -16 7 -23 76 -9 91 17 17 38 -1 41
    -34z"/>
    <path d="M6256 4817 c-25 -19 -33 -89 -11 -110 34 -34 90 -3 78 44 -6 21 -45
    35 -64 23 -9 -5 -10 -2 -6 10 4 10 7 20 7 22 0 2 15 4 33 4 24 0 28 3 17 10
    -20 13 -33 12 -54 -3z m48 -66 c10 -16 -5 -41 -24 -41 -23 0 -34 16 -26 35 6
    16 42 20 50 6z"/>
    <path d="M5388 4704 c-21 -20 62 -113 94 -106 7 2 10 -9 24 -75 5 -27 70 -73
    102 -73 54 0 108 101 83 156 -15 34 -70 66 -101 59 -14 -3 -37 -7 -51 -9 -34
    -4 -49 -14 -49 -34 0 -12 -3 -13 -11 -5 -17 17 -3 43 21 43 12 0 18 5 15 10
    -10 16 -34 12 -52 -10 -22 -25 -36 -26 -28 -1 4 13 0 21 -12 25 -10 3 -1 4 20
    3 20 -2 37 1 37 5 0 4 -10 8 -22 8 -13 0 -32 3 -43 6 -11 3 -24 2 -27 -2z
    m232 -64 c0 -5 6 -10 14 -10 25 0 46 -30 46 -66 0 -47 -49 -99 -82 -88 -49 14
    -57 40 -33 98 6 14 5 18 -6 14 -8 -2 -15 -21 -17 -41 -3 -40 -17 -49 -27 -17
    -9 28 3 60 33 93 25 26 72 38 72 17z m-100 -21 c-7 -11 -14 -19 -16 -16 -7 7
    7 37 17 37 6 0 5 -9 -1 -21z"/>
    <path d="M5616 4583 c-5 -23 -13 -33 -27 -33 -10 0 -19 -4 -19 -10 0 -5 9 -10
    20 -10 11 0 20 -7 20 -15 0 -8 5 -15 10 -15 6 0 10 8 10 18 0 11 10 24 23 30
    l22 11 -22 0 c-16 1 -23 8 -25 29 l-4 27 -8 -32z"/>
    <path d="M8165 4491 c-43 -19 -113 -108 -128 -162 -40 -145 -48 -615 -13 -726
    40 -127 127 -183 431 -280 44 -14 94 -31 110 -39 112 -49 469 -134 565 -134
    l77 0 34 23 c48 32 65 74 91 222 l22 130 0 225 1 225 -29 63 c-36 78 -68 106
    -187 165 -317 156 -888 325 -974 288z m156 -31 c115 -23 264 -62 349 -90 153
    -52 356 -133 450 -179 166 -82 203 -131 217 -292 15 -171 -7 -474 -44 -611
    -17 -61 -62 -118 -95 -118 l-20 0 30 25 c60 50 79 125 102 410 20 240 -5 400
    -74 482 -89 105 -774 344 -1051 366 l-40 3 25 11 c34 16 34 16 151 -7z m-6
    -45 l60 -14 -55 7 c-104 12 -121 9 -157 -33 -19 -22 -48 -44 -66 -50 -39 -12
    -46 -39 -17 -70 l22 -24 -11 -132 c-6 -72 -11 -176 -11 -230 l0 -99 -15 0
    c-27 0 -28 -29 -1 -61 30 -35 32 -55 10 -80 -19 -21 -12 -49 12 -49 9 0 32
    -17 50 -38 24 -29 58 -50 131 -81 54 -23 107 -46 118 -52 78 -36 441 -145 601
    -180 l101 -22 35 17 c21 10 41 29 48 46 8 20 20 30 38 32 36 4 40 33 10 66
    l-25 27 13 105 c7 58 13 156 13 217 l1 113 25 16 c14 9 25 25 25 35 0 12 -10
    23 -25 29 -30 12 -33 45 -6 78 25 29 27 28 42 -15 17 -50 18 -384 1 -513 -19
    -147 -37 -198 -87 -247 l-42 -43 -57 0 c-74 0 -277 52 -541 139 -390 128 -449
    161 -507 279 l-23 47 1 265 c1 353 15 451 75 511 24 24 122 26 214 4z m49 -35
    c107 -21 430 -123 521 -165 28 -13 93 -44 146 -68 68 -31 104 -55 125 -81 18
    -22 38 -36 52 -36 25 0 31 -27 7 -36 -10 -4 -15 -20 -15 -50 l0 -44 25 -6 c32
    -8 32 -21 0 -36 l-25 -11 6 -46 c3 -25 -2 -131 -11 -235 l-16 -188 23 -25 22
    -24 -14 -9 c-8 -5 -20 -10 -27 -10 -7 0 -17 -9 -23 -20 -6 -11 -21 -22 -33
    -25 -42 -11 -396 75 -557 136 -41 15 -118 44 -171 64 -123 45 -202 89 -223
    120 -9 14 -25 25 -36 25 -21 0 -27 15 -10 25 22 13 11 73 -17 93 l-27 19 22 7
    22 7 0 112 c0 62 5 172 12 245 l11 132 -28 30 -29 30 26 0 c19 0 29 8 38 30
    27 65 51 69 204 40z m49 13 c-7 -2 -19 -2 -25 0 -7 3 -2 5 12 5 14 0 19 -2 13
    -5z m317 -93 c18 -12 2 -12 -25 0 -13 6 -15 9 -5 9 8 0 22 -4 30 -9z m-616
    -49 c-7 -7 -34 21 -34 36 0 10 6 8 19 -8 11 -13 18 -26 15 -28z m743 5 c48
    -19 117 -47 153 -64 36 -16 88 -39 115 -52 49 -22 105 -66 105 -82 0 -18 -28
    -6 -56 23 -32 35 -223 131 -346 174 -73 26 -91 35 -69 35 5 0 49 -15 98 -34z
    m-729 -98 c-5 -35 -13 -117 -18 -183 l-8 -120 4 135 c4 151 12 230 23 230 4 0
    4 -28 -1 -62z m-21 -370 c-2 -13 -4 -3 -4 22 0 25 2 35 4 23 2 -13 2 -33 0
    -45z m13 -116 c0 -13 -4 -20 -10 -17 -5 3 -10 14 -10 24 0 10 -9 26 -20 36
    -11 10 -20 22 -20 27 0 6 14 -3 30 -19 17 -15 30 -38 30 -51z m-15 -72 l20 -9
    -22 0 c-12 -1 -25 4 -28 9 -7 12 2 12 30 0z m72 -43 c16 -18 58 -44 94 -59
    292 -122 413 -160 804 -256 l40 -10 -30 -1 c-16 0 -55 6 -85 14 -30 7 -102 25
    -160 40 -123 30 -292 81 -335 100 -16 8 -77 32 -135 53 -136 51 -190 78 -217
    111 -43 50 -22 58 24 8z"/>
    <path d="M1555 4430 c-3 -5 -1 -10 5 -10 8 0 11 -18 8 -55 l-3 -55 25 0 c19 0
    21 3 12 12 -7 7 -12 36 -12 65 0 39 -4 53 -14 53 -8 0 -18 -4 -21 -10z"/>
    <path d="M1650 4430 c0 -5 11 -10 25 -10 30 0 30 3 5 -60 -26 -66 -9 -65 19 1
    29 71 28 79 -14 79 -19 0 -35 -4 -35 -10z"/>
    <path d="M1763 4428 c-5 -7 -9 -35 -9 -63 l1 -50 38 -3 c40 -3 56 13 41 46 -4
    9 -8 31 -8 47 l-1 30 -26 3 c-14 2 -30 -3 -36 -10z m55 -20 c-3 -7 -13 -13
    -23 -13 -10 0 -20 6 -22 13 -3 7 5 12 22 12 17 0 25 -5 23 -12z m0 -61 c3 -12
    -3 -17 -22 -17 -25 0 -35 18 -19 34 12 12 38 2 41 -17z"/>
    <path d="M3732 4428 c-12 -12 -17 -68 -7 -68 3 0 14 6 25 13 l21 12 9 -15 c18
    -28 6 -45 -28 -43 l-33 1 12 -14 c23 -28 57 -14 72 29 8 22 -27 59 -48 51 -10
    -4 -15 0 -15 10 0 11 9 16 26 16 14 0 23 4 19 10 -8 14 -38 13 -53 -2z"/>
    <path d="M3630 4420 c0 -5 5 -10 10 -10 14 0 12 -84 -2 -98 -9 -9 -5 -12 17
    -11 17 0 24 3 18 6 -9 3 -13 26 -13 64 0 46 -3 59 -15 59 -8 0 -15 -4 -15 -10z"/>
    <path d="M3832 4418 c-15 -15 -16 -72 -2 -99 25 -46 79 -11 80 52 0 40 -14 59
    -45 59 -12 0 -26 -5 -33 -12z m55 -25 c13 -49 -8 -93 -33 -72 -14 12 -19 80
    -7 92 14 15 33 5 40 -20z"/>
    <path d="M5460 4345 c-7 -8 -9 -19 -5 -23 4 -4 10 -1 12 6 3 6 13 12 24 12 25
    0 25 -36 0 -49 -10 -6 -26 -22 -35 -36 l-16 -25 45 0 c25 0 45 5 45 10 0 6
    -12 10 -27 10 l-27 0 28 29 c35 37 33 75 -5 79 -14 2 -31 -4 -39 -13z"/>
    <path d="M5585 4295 l0 -65 25 1 c14 0 19 3 13 6 -9 3 -13 26 -13 64 0 40 -4
    59 -12 59 -9 0 -13 -20 -13 -65z"/>
    <path d="M5670 4341 c-24 -46 -5 -111 33 -111 34 0 47 19 47 65 0 23 -5 46
    -12 53 -18 18 -56 14 -68 -7z m54 -7 c20 -19 21 -54 2 -79 l-14 -19 -16 13
    c-19 16 -21 72 -4 89 15 15 13 15 32 -4z"/>
    <path d="M1855 4177 c-16 -5 -46 -25 -65 -43 l-36 -34 -43 0 -43 0 -34 -34
    c-39 -39 -43 -72 -17 -117 21 -35 76 -63 108 -55 39 10 85 71 85 114 0 29 7
    43 30 64 30 26 66 104 52 111 -4 3 -20 0 -37 -6z m5 -52 l-11 -28 -14 19 c-20
    27 -18 37 5 31 11 -3 20 0 20 6 0 6 2 8 5 5 3 -3 1 -18 -5 -33z m-41 -14 c8
    -5 11 -16 8 -25 l-7 -16 -18 17 c-27 26 -14 44 17 24z m-60 -48 c35 -33 47
    -93 19 -93 -7 0 -21 -14 -30 -30 -20 -35 -41 -37 -85 -11 -60 37 -53 127 10
    119 18 -3 40 -8 50 -13 10 -4 17 -3 17 4 0 7 -14 18 -30 25 -17 7 -27 15 -23
    19 14 14 44 6 72 -20z m37 0 c-7 -7 -26 7 -26 19 0 6 6 6 15 -2 9 -7 13 -15
    11 -17z"/>
    <path d="M1680 4016 c0 -8 -10 -17 -22 -19 l-23 -4 22 -8 c13 -4 23 -17 26
    -34 l4 -26 8 23 c5 16 13 21 26 17 11 -4 19 -2 19 4 0 5 -9 13 -20 16 -11 3
    -20 15 -20 26 0 10 -4 19 -10 19 -5 0 -10 -6 -10 -14z"/>
    <path d="M2185 4134 l-17 -26 -4 -173 -4 -172 37 -11 c21 -5 107 -28 192 -51
    213 -58 325 -74 526 -75 l170 -1 31 17 c18 10 43 31 57 47 l25 30 -1 158 -2
    158 -202 6 c-111 4 -205 9 -211 12 -5 4 -80 18 -168 31 -87 14 -213 37 -279
    51 -145 30 -129 30 -150 -1z m210 -29 c239 -50 415 -74 598 -82 l158 -6 -24
    -25 -25 -24 -168 11 c-163 12 -386 44 -524 76 -204 48 -218 53 -206 74 9 14
    -3 16 191 -24z m-181 -21 c9 -3 16 -17 16 -30 0 -13 5 -24 11 -24 7 0 9 10 5
    25 l-6 25 22 -10 c79 -34 504 -99 696 -107 l152 -6 0 -48 0 -48 -30 -16 c-50
    -26 -49 -95 1 -95 l19 0 0 -45 0 -45 -26 -10 c-30 -12 -255 -12 -334 0 -148
    21 -458 91 -535 120 l-27 10 5 51 c3 28 7 52 9 53 32 15 43 27 43 49 1 15 4
    29 8 33 11 11 8 54 -3 54 -5 0 -10 -11 -10 -25 l0 -26 -20 11 c-16 8 -20 21
    -20 60 0 28 2 50 4 50 2 0 11 -3 20 -6z m960 -221 c-5 -111 -10 -152 -22 -165
    -23 -27 -32 -22 -32 20 0 21 -3 42 -6 45 -10 10 -12 77 -2 77 4 0 8 25 8 55 0
    54 28 115 52 115 5 0 6 -66 2 -147z"/>
    <path d="M2294 4029 c-3 -6 -1 -16 5 -22 8 -8 11 -5 11 11 0 24 -5 28 -16 11z"/>
    <path d="M2360 4000 c0 -11 5 -20 10 -20 6 0 10 9 10 20 0 11 -4 20 -10 20 -5
    0 -10 -9 -10 -20z"/>
    <path d="M2430 3980 c0 -11 5 -20 10 -20 6 0 10 9 10 20 0 11 -4 20 -10 20 -5
    0 -10 -9 -10 -20z"/>
    <path d="M2500 3966 c0 -14 5 -26 10 -26 6 0 10 9 10 19 0 11 -4 23 -10 26 -6
    4 -10 -5 -10 -19z"/>
    <path d="M2297 3973 c-11 -11 -8 -213 3 -213 6 0 10 43 10 110 0 110 -1 116
    -13 103z"/>
    <path d="M2570 3945 c0 -14 5 -25 10 -25 6 0 10 11 10 25 0 14 -4 25 -10 25
    -5 0 -10 -11 -10 -25z"/>
    <path d="M2650 3930 c0 -16 5 -30 10 -30 6 0 10 14 10 30 0 17 -4 30 -10 30
    -5 0 -10 -13 -10 -30z"/>
    <path d="M2724 3935 c-7 -30 2 -59 16 -50 13 8 13 62 0 70 -5 3 -12 -6 -16
    -20z"/>
    <path d="M2806 3942 c-8 -13 -4 -72 6 -72 4 0 8 18 8 40 0 39 -4 48 -14 32z"/>
    <path d="M2887 3943 c-11 -10 -8 -81 3 -88 6 -4 10 13 10 44 0 52 -1 56 -13
    44z"/>
    <path d="M2368 3934 c-5 -4 -8 -50 -8 -103 0 -66 3 -92 10 -85 7 7 10 49 8
    103 -2 51 -6 89 -10 85z"/>
    <path d="M2960 3889 c0 -31 4 -48 10 -44 6 3 10 26 10 51 0 24 -4 44 -10 44
    -5 0 -10 -23 -10 -51z"/>
    <path d="M3037 3934 c-10 -11 -9 -94 2 -94 11 0 22 83 12 93 -4 4 -10 4 -14 1z"/>
    <path d="M2426 3823 c-4 -47 -2 -81 4 -87 7 -7 10 11 10 55 0 35 3 74 6 87 4
    12 2 22 -3 22 -6 0 -13 -35 -17 -77z"/>
    <path d="M2226 3864 c-10 -25 -7 -94 4 -94 6 0 10 25 10 55 0 57 -3 66 -14 39z"/>
    <path d="M2498 3794 c-3 -72 5 -105 15 -67 9 33 8 143 -2 143 -5 0 -11 -34
    -13 -76z"/>
    <path d="M2570 3770 c0 -40 4 -70 10 -70 6 0 10 30 10 70 0 40 -4 70 -10 70
    -6 0 -10 -30 -10 -70z"/>
    <path d="M2648 3754 c-3 -58 5 -81 16 -41 9 33 7 85 -3 91 -5 4 -11 -19 -13
    -50z"/>
    <path d="M2720 3724 c0 -59 24 -55 28 4 2 33 0 42 -12 42 -12 0 -16 -11 -16
    -46z"/>
    <path d="M2800 3705 c0 -19 5 -35 10 -35 6 0 10 16 10 35 0 19 -4 35 -10 35
    -5 0 -10 -16 -10 -35z"/>
    <path d="M2870 3690 c0 -13 5 -20 13 -17 6 2 12 10 12 17 0 7 -6 15 -12 18 -8
    2 -13 -5 -13 -18z"/>
    <path d="M2956 3681 c-4 -5 -2 -12 3 -15 5 -4 12 -2 15 3 4 5 2 12 -3 15 -5 4
    -12 2 -15 -3z"/>
    <path d="M1247 4063 c-11 -10 -8 -25 3 -18 6 4 10 -13 10 -44 0 -28 -4 -51
    -10 -51 -5 0 -10 -4 -10 -10 0 -5 10 -10 23 -10 l24 0 -4 58 c-6 80 -14 97
    -36 75z"/>
    <path d="M1340 4055 c-7 -8 -10 -25 -7 -37 4 -12 1 -28 -5 -35 -8 -10 -6 -19
    8 -34 34 -37 98 -7 79 37 -4 11 -7 27 -6 37 5 40 -44 63 -69 32z m54 -14 c8
    -12 -21 -34 -34 -26 -17 11 -11 35 9 35 11 0 22 -4 25 -9z m1 -71 c0 -8 -10
    -16 -22 -18 -18 -3 -23 2 -23 18 0 16 5 21 23 18 12 -2 22 -10 22 -18z"/>
    <path d="M1452 4058 c-19 -19 -14 -29 8 -16 15 10 22 10 32 0 9 -9 4 -20 -26
    -51 -21 -22 -35 -44 -32 -50 9 -14 73 -14 81 -1 4 6 -7 10 -24 10 -37 0 -40
    12 -7 34 34 22 43 56 20 73 -22 16 -36 17 -52 1z"/>
    <path d="M6884 3918 c-4 -6 -2 -14 4 -16 15 -5 16 -92 2 -92 -5 0 -10 -4 -10
    -10 0 -5 11 -10 25 -10 14 0 25 5 25 10 0 6 -4 10 -10 10 -5 0 -10 24 -10 54
    0 54 -12 78 -26 54z"/>
    <path d="M6974 3908 l-19 -21 20 7 c59 24 69 0 19 -47 -21 -19 -34 -39 -30
    -46 9 -14 86 -15 86 -1 0 6 -14 10 -32 10 l-32 0 32 33 c36 37 39 49 16 71
    -21 22 -37 20 -60 -6z"/>
    <path d="M7085 3910 c-19 -21 -8 -29 12 -9 13 13 33 4 33 -15 0 -7 -13 -25
    -30 -41 -42 -40 -39 -55 10 -55 22 0 40 5 40 10 0 6 -15 10 -32 10 l-33 1 33
    28 c33 28 41 58 20 79 -17 17 -32 15 -53 -8z"/>
    <path d="M3365 3880 c-3 -5 -1 -10 5 -10 8 0 11 -18 8 -55 l-3 -55 25 1 c14 0
    19 3 13 6 -9 3 -13 26 -13 64 0 45 -3 59 -14 59 -8 0 -18 -4 -21 -10z"/>
    <path d="M3460 3855 c0 -36 8 -43 28 -23 8 8 15 8 27 -2 19 -15 19 -21 1 -45
    l-14 -19 -16 13 c-18 15 -32 9 -21 -8 3 -6 17 -11 29 -11 53 0 65 82 14 88
    -35 4 -37 22 -4 22 14 0 28 5 31 10 4 6 -10 10 -34 10 l-41 0 0 -35z"/>
    <path d="M3573 3878 c-5 -7 -9 -35 -8 -63 l0 -50 40 0 40 0 3 23 c2 13 -2 29
    -8 37 -7 9 -8 15 0 20 7 4 7 12 0 26 -12 21 -53 26 -67 7z m55 -15 c5 -17 -26
    -29 -40 -15 -6 6 -7 15 -3 22 9 14 37 9 43 -7z m0 -66 c4 -20 -25 -34 -40 -19
    -15 15 -1 44 19 40 10 -2 19 -11 21 -21z"/>
    <path d="M6125 3788 c-175 -61 -250 -481 -145 -820 l20 -65 240 -157 239 -156
    44 0 c102 0 193 130 213 306 l6 52 -26 -5 c-38 -8 -35 25 4 39 l31 10 -2 52
    c-1 28 3 68 9 90 6 21 8 54 5 73 l-6 34 22 15 c38 27 19 101 -24 90 -16 -4
    -25 -1 -29 12 -4 9 -27 49 -52 87 -25 39 -63 98 -85 133 -54 87 -135 131 -287
    155 l-74 12 -20 27 c-21 30 -35 33 -83 16z m59 -14 c9 -3 16 -12 16 -20 0 -8
    66 -58 148 -111 81 -54 149 -100 152 -104 12 -14 51 -29 79 -29 41 0 48 -16
    10 -24 -23 -4 -40 1 -71 22 -23 15 -72 47 -109 72 -214 140 -279 189 -262 193
    10 3 19 5 20 6 1 0 8 -2 17 -5z m161 -172 c94 -63 180 -123 192 -134 26 -24
    78 -183 93 -285 31 -219 -13 -472 -94 -540 -12 -10 -15 -11 -8 -3 16 19 15 85
    -3 119 -12 25 -81 78 -140 109 -84 43 -372 97 -352 65 4 -5 44 -13 89 -16 169
    -12 394 -122 399 -195 3 -37 -3 -68 -17 -89 l-14 -22 -53 30 c-28 17 -134 86
    -234 152 l-183 122 -24 80 c-40 127 -49 205 -43 355 6 140 15 185 48 257 10
    24 19 47 19 53 0 6 19 31 41 55 l42 45 36 -22 c20 -12 113 -74 206 -136z m10
    104 c121 -32 215 -102 215 -160 0 -24 -13 -19 -119 50 -194 125 -208 140 -96
    110z m295 -283 c30 -78 81 -328 78 -378 l-3 -39 -25 -6 -25 -6 -3 -37 -3 -37
    26 0 26 0 -7 -37 c-24 -132 -73 -231 -129 -257 -47 -22 -50 -20 -22 14 61 72
    90 198 90 385 0 158 -18 270 -63 387 -11 29 -20 54 -20 55 0 1 10 4 23 6 12 2
    25 5 29 6 4 0 16 -25 28 -56z m50 -59 c26 -45 50 -135 50 -188 0 -58 -10 -38
    -26 52 -7 44 -23 100 -33 126 -24 55 -21 59 9 10z m80 -59 c0 -14 -2 -25 -4
    -25 -2 0 -6 11 -8 25 -3 14 -1 25 3 25 5 0 9 -11 9 -25z"/>
    <path d="M6403 3387 c-74 -78 -112 -143 -120 -206 l-5 -38 43 -45 44 -46 55
    -11 c108 -22 160 -42 160 -62 0 -11 5 -19 11 -19 6 0 9 12 7 27 l-3 27 -50 14
    c-210 56 -235 72 -235 147 0 66 40 138 122 218 38 37 63 67 55 67 -8 0 -46
    -33 -84 -73z"/>
    <path d="M6370 3294 c-14 -36 -12 -107 3 -128 9 -13 23 -17 52 -14 l40 3 3 62
    c4 80 -8 103 -54 103 l-34 0 -10 -26z m78 -62 l3 -63 -33 3 -33 3 -3 49 c-4
    65 2 78 35 74 l28 -3 3 -63z"/>
    <path d="M6988 3701 c-70 -20 -93 -40 -84 -74 8 -34 27 -39 101 -25 l65 12 10
    30 10 30 -22 21 -23 22 -57 -16z m67 -41 c0 -34 -31 -39 -37 -6 -6 29 0 38 22
    34 9 -2 15 -14 15 -28z m-55 -21 c0 -12 -10 -21 -25 -25 -55 -14 -76 24 -27
    50 31 16 52 6 52 -25z"/>
    <path d="M6958 3653 c-24 -6 -23 -23 2 -23 11 0 20 7 20 15 0 8 -1 14 -2 14
    -2 -1 -11 -3 -20 -6z"/>
    <path d="M7639 3674 c-8 -9 -23 -35 -34 -57 l-20 -41 -28 -1 c-16 0 -32 -7
    -37 -15 -13 -20 -13 -53 0 -45 6 4 10 -14 10 -47 0 -64 21 -101 55 -96 17 2
    34 -8 57 -33 26 -28 51 -41 111 -60 85 -25 109 -21 115 20 4 22 21 28 38 11
    14 -14 44 -2 44 16 0 8 -4 14 -8 14 -5 0 -17 7 -28 15 l-19 15 28 -6 27 -6 0
    25 c0 17 -11 32 -35 48 -22 15 -35 32 -35 46 0 13 -11 30 -25 39 -13 9 -27 26
    -30 37 -11 41 -39 102 -53 120 -20 23 -114 24 -133 1z m85 -33 l29 -30 -22 6
    c-11 3 -27 1 -34 -5 -17 -15 -70 -19 -74 -6 -5 16 36 64 56 64 9 0 30 -13 45
    -29z m54 -11 c12 -18 22 -40 22 -49 l0 -15 -13 14 c-8 8 -24 33 -37 54 -29 48
    -6 45 28 -4z m-24 -52 c9 -12 16 -28 16 -35 0 -24 -25 -12 -47 22 l-22 35 19
    0 c10 0 26 -10 34 -22z m-54 -13 c14 -14 23 -38 24 -57 l1 -33 26 -3 26 -3 -7
    -42 c-11 -69 -31 -102 -65 -104 l-30 -2 28 12 c15 6 27 14 27 18 0 3 -12 5
    -27 3 -16 -2 -20 -1 -10 2 24 8 12 23 -13 17 -16 -4 -19 -2 -14 11 5 13 14 15
    39 10 l33 -6 11 20 c6 12 11 28 11 36 0 25 -18 19 -22 -6 -2 -15 -10 -23 -23
    -23 l-20 0 -5 50 c-3 28 -13 64 -23 81 -25 48 -5 60 33 19z m-78 3 c-14 -14
    -16 -42 -3 -34 5 4 12 -12 16 -34 4 -22 14 -44 22 -49 22 -12 4 -66 -23 -66
    l-19 0 3 45 c2 25 -3 64 -10 86 -16 46 -13 64 10 64 12 0 13 -3 4 -12z m194
    -40 c16 -18 20 -25 8 -15 -11 9 -26 17 -32 17 -7 0 -12 7 -12 15 0 21 2 20 36
    -17z m-227 -10 c5 -14 5 -28 -1 -36 -6 -7 -8 -30 -4 -52 7 -43 -6 -54 -24 -21
    -18 34 -9 131 11 131 6 0 13 -10 18 -22z m80 -36 c1 -7 -3 -10 -9 -7 -5 3 -10
    18 -9 33 l0 27 9 -20 c5 -11 9 -26 9 -33z m174 -2 c19 0 23 -47 11 -134 l-7
    -46 -36 6 c-28 4 -33 3 -21 -6 12 -8 8 -9 -15 -4 -40 9 -39 7 -15 46 12 22 21
    56 23 89 l2 54 -22 -2 c-14 -2 -23 3 -23 11 0 22 42 24 66 4 11 -10 28 -18 37
    -18z m69 -67 c25 -23 23 -30 -12 -30 l-30 0 0 24 c0 27 16 30 42 6z m-2 -74
    c14 -11 18 -18 10 -15 -8 3 -23 9 -32 12 -10 4 -18 10 -18 15 0 14 13 10 40
    -12z"/>
    <path d="M7802 3413 c4 -51 33 -54 33 -3 0 26 -5 36 -18 38 l-18 4 3 -39z"/>
    <path d="M4825 3496 c-17 -7 -38 -24 -46 -37 -43 -65 -76 -251 -85 -469 l-6
    -155 31 -86 32 -86 92 -43 c51 -23 148 -64 217 -90 69 -27 142 -56 164 -65 66
    -28 409 -127 459 -132 58 -6 92 13 113 63 17 41 54 329 61 480 l5 112 -32 86
    -33 87 -41 28 c-156 106 -454 228 -721 295 -111 29 -165 32 -210 12z m226 -35
    c244 -63 561 -195 691 -287 l43 -30 24 -68 24 -68 -6 -191 c-3 -106 -10 -217
    -15 -247 -6 -30 -13 -81 -17 -112 -13 -119 -50 -128 -277 -64 -175 49 -439
    143 -578 205 -47 21 -104 46 -127 56 l-41 17 -17 47 c-9 25 -23 62 -32 82 -43
    103 23 596 88 662 l27 27 49 0 c27 0 101 -13 164 -29z"/>
    <path d="M4853 3435 c-27 -19 -38 -65 -62 -265 -38 -322 -36 -394 17 -450 54
    -57 478 -223 745 -291 l127 -32 25 11 c34 16 43 42 65 210 24 172 27 406 7
    455 -21 49 -85 100 -173 136 -43 19 -106 46 -139 61 -33 15 -118 46 -190 69
    -71 23 -139 45 -150 51 -34 17 -196 60 -224 60 -15 0 -36 -7 -48 -15z m279
    -70 c315 -99 561 -204 602 -258 52 -68 57 -200 19 -487 -17 -133 -34 -187 -59
    -197 -25 -10 -121 15 -397 103 -119 37 -417 163 -457 192 -14 10 -33 34 -43
    53 l-18 34 6 100 c15 252 45 460 72 502 22 34 45 30 275 -42z"/>
    <path d="M7162 3480 c-26 -19 -54 -30 -74 -30 -70 0 -128 -66 -128 -144 0 -45
    47 -102 96 -115 36 -10 98 1 110 20 3 6 22 8 45 4 74 -13 129 24 129 85 0 11
    4 20 9 20 5 0 12 9 16 19 3 12 20 23 43 28 28 7 38 14 40 32 l4 23 -40 -4
    c-47 -4 -47 6 -1 16 54 10 29 31 -39 31 l-61 1 -24 22 c-33 31 -76 28 -125 -8z
    m121 -20 c47 -55 57 -190 16 -215 -5 -4 -4 6 2 22 19 51 -6 157 -49 206 -8 9
    -10 17 -4 17 5 0 22 -13 35 -30z m-72 6 c-8 -9 -8 -16 -2 -20 6 -4 18 -31 27
    -61 12 -36 23 -55 33 -55 l16 -1 -17 -13 c-10 -7 -18 -21 -18 -30 0 -35 -19
    -57 -44 -50 -16 4 -38 -2 -64 -17 l-39 -23 -41 12 c-46 14 -82 61 -82 108 0
    65 78 134 136 120 17 -5 26 -1 34 15 8 14 18 19 31 16 10 -3 22 -1 25 4 3 5 8
    9 11 9 3 0 0 -6 -6 -14z m63 -68 c8 -21 11 -40 7 -43 -7 -4 -25 32 -50 100
    -10 28 29 -25 43 -57z m126 52 c0 -5 -12 -10 -27 -9 l-28 1 25 8 c14 4 26 8
    28 9 1 1 2 -3 2 -9z m-51 -79 l-1 -36 -7 25 c-4 14 -11 39 -15 55 l-6 30 15
    -19 c8 -11 15 -36 14 -55z m71 19 c-8 -5 -24 -10 -35 -10 l-20 0 15 10 c8 5
    24 10 35 10 l20 0 -15 -10z m-145 -132 c-12 -16 -16 -18 -11 -5 3 10 6 26 6
    35 0 12 3 13 11 5 8 -8 7 -17 -6 -35z"/>
    <path d="M7160 3424 c0 -4 8 -16 18 -27 12 -14 17 -36 17 -83 0 -70 15 -72 22
    -2 3 29 -2 54 -14 77 -16 32 -43 53 -43 35z"/>
    <path d="M7018 3352 c-15 -3 -27 -22 -14 -22 2 0 12 -3 22 -7 10 -3 15 -2 12
    3 -4 5 16 10 42 10 26 1 56 7 67 12 17 11 -79 13 -129 4z"/>
    <path d="M7118 3323 c-16 -2 -28 -9 -28 -15 0 -11 80 -1 95 13 9 9 -15 10 -67
    2z"/>
    <path d="M3461 3187 c-13 -6 -42 -33 -64 -59 l-40 -47 -11 -93 c-6 -51 -14
    -97 -17 -103 -12 -21 -9 -274 5 -377 22 -164 27 -169 206 -255 153 -73 203
    -91 385 -140 213 -57 295 -73 386 -73 l86 0 20 23 c11 12 25 32 31 43 18 34
    35 335 29 495 l-6 146 -37 84 c-20 46 -38 85 -39 87 -7 8 -231 90 -365 133
    -85 27 -183 59 -217 70 -88 28 -284 79 -308 79 -11 0 -31 -6 -44 -13z m144
    -27 c39 -12 120 -34 180 -51 119 -32 313 -96 492 -162 88 -33 113 -46 117 -63
    3 -12 9 -30 12 -41 3 -10 -3 -3 -15 15 -24 38 -39 45 -251 118 -85 30 -163 59
    -173 65 -15 8 -23 7 -36 -5 -12 -11 -27 -14 -49 -10 -36 7 -41 18 -14 29 11 4
    -19 16 -88 35 -58 15 -140 37 -182 49 -43 11 -87 21 -98 21 -11 0 -20 5 -20
    10 0 16 50 12 125 -10z m40 -55 c99 -25 181 -45 182 -45 2 0 3 -4 3 -9 0 -5
    -71 9 -157 31 -183 46 -183 46 -205 47 -17 1 -27 21 -10 21 4 0 88 -21 187
    -45z m-35 -25 c199 -49 632 -187 694 -223 56 -31 78 -75 84 -162 l4 -72 -142
    -7 c-78 -4 -187 -4 -242 0 l-101 7 6 108 c4 60 3 109 -2 109 -10 0 -18 -90
    -27 -314 l-7 -159 14 5 c10 3 15 26 17 76 l3 72 62 -49 c105 -81 326 -223 381
    -244 l19 -7 -6 -49 c-3 -27 -11 -58 -18 -69 -18 -29 -76 -54 -97 -43 -9 5 -42
    12 -72 16 -192 25 -544 141 -705 232 -91 52 -111 82 -121 181 -19 185 0 532
    32 595 l15 27 42 0 c23 0 99 -14 167 -30z m535 -124 l190 -65 37 -41 c48 -54
    54 -94 51 -365 -2 -241 -19 -366 -54 -399 l-21 -21 16 32 c24 48 39 213 40
    443 1 306 -4 315 -259 399 -169 55 -230 79 -205 80 8 0 101 -28 205 -63z m314
    -326 l11 -115 -19 -200 c-17 -192 -27 -238 -57 -249 -7 -3 -4 11 6 32 10 20
    21 73 24 117 4 44 10 100 14 125 10 62 9 335 -1 390 -6 30 -5 40 2 30 5 -9 14
    -67 20 -130z m-411 -77 c-3 -28 0 -37 14 -41 21 -5 22 -11 8 -46 -6 -17 -6
    -26 0 -26 11 0 30 42 30 67 0 8 -9 17 -20 20 -15 4 -20 13 -18 33 l2 27 165 7
    c90 3 166 4 168 3 4 -5 -17 -350 -22 -355 -6 -7 -167 85 -247 140 -154 106
    -218 161 -218 188 l0 25 71 -3 71 -4 -4 -35z"/>
    <path d="M3435 3048 c-16 -94 -31 -260 -23 -264 4 -3 8 -4 9 -2 0 2 7 53 14
    113 8 61 17 127 21 148 4 24 3 37 -4 37 -6 0 -14 -15 -17 -32z"/>
    <path d="M3516 3023 c-16 -132 -18 -206 -7 -199 6 4 11 31 12 59 0 29 4 79 9
    112 4 33 4 64 0 68 -4 5 -10 -13 -14 -40z"/>
    <path d="M3606 3039 c-10 -26 -26 -181 -20 -190 13 -22 23 8 29 96 7 88 3 128
    -9 94z"/>
    <path d="M3686 2988 c-11 -93 -13 -138 -6 -138 5 0 11 28 15 63 3 34 8 74 11
    90 3 15 1 27 -5 27 -5 0 -12 -19 -15 -42z"/>
    <path d="M3787 3003 c-10 -18 -18 -155 -9 -149 6 3 13 38 17 77 7 65 4 92 -8
    72z"/>
    <path d="M3867 2973 c-2 -5 -7 -37 -11 -72 -6 -50 -4 -62 6 -59 8 3 15 28 18
    67 5 57 -1 84 -13 64z"/>
    <path d="M3941 2893 c1 -44 3 -52 9 -33 12 36 12 90 0 90 -6 0 -10 -25 -9 -57z"/>
    <path d="M4020 2891 c0 -16 -3 -36 -6 -45 -4 -10 -1 -16 9 -16 11 0 16 13 19
    45 2 31 -1 45 -9 45 -8 0 -13 -12 -13 -29z"/>
    <path d="M4110 2880 c0 -14 -3 -35 -6 -47 -4 -13 -2 -23 4 -23 13 0 22 72 11
    85 -5 5 -9 -1 -9 -15z"/>
    <path d="M4197 2834 c-4 -20 -3 -42 1 -48 3 -6 10 7 13 29 4 22 4 44 -1 48 -4
    5 -10 -9 -13 -29z"/>
    <path d="M4290 2790 c0 -16 5 -30 10 -30 6 0 10 14 10 30 0 17 -4 30 -10 30
    -5 0 -10 -13 -10 -30z"/>
    <path d="M3410 2505 c0 -77 4 -125 10 -125 6 0 10 48 10 125 0 77 -4 125 -10
    125 -6 0 -10 -48 -10 -125z"/>
    <path d="M3490 2441 c0 -62 4 -112 10 -116 6 -4 10 33 10 104 0 62 -4 112 -10
    116 -6 4 -10 -33 -10 -104z"/>
    <path d="M3570 2410 c0 -91 7 -133 20 -125 11 7 0 187 -11 200 -5 5 -9 -27 -9
    -75z"/>
    <path d="M3660 2335 c0 -60 4 -95 11 -95 6 0 9 33 7 95 -1 52 -6 95 -10 95 -5
    0 -8 -43 -8 -95z"/>
    <path d="M3751 2338 c0 -24 4 -63 8 -88 l8 -45 2 88 c0 52 -3 87 -9 87 -5 0
    -10 -19 -9 -42z"/>
    <path d="M3840 2267 c0 -53 4 -87 10 -87 12 0 9 154 -3 166 -4 4 -7 -32 -7
    -79z"/>
    <path d="M3920 2235 c0 -43 4 -75 10 -75 6 0 10 32 10 75 0 43 -4 75 -10 75
    -6 0 -10 -32 -10 -75z"/>
    <path d="M3991 2253 c0 -16 4 -48 7 -73 11 -67 25 -31 17 41 -7 59 -26 84 -24
    32z"/>
    <path d="M4080 2191 c0 -41 4 -71 10 -71 6 0 10 28 10 64 0 36 -4 68 -10 71
    -6 4 -10 -20 -10 -64z"/>
    <path d="M4160 2193 c0 -47 9 -83 21 -83 10 0 12 63 3 98 -10 35 -24 26 -24
    -15z"/>
    <path d="M4258 2214 c-10 -15 3 -125 13 -118 10 6 10 68 0 104 -4 14 -10 20
    -13 14z"/>
    <path d="M4140 2530 l0 -40 18 0 c29 0 33 -10 17 -41 -17 -32 -19 -49 -6 -49
    9 0 17 16 31 63 l9 28 -24 9 -25 9 6 31 c5 23 3 30 -10 30 -12 0 -16 -10 -16
    -40z"/>
    <path d="M4240 2565 c-3 -5 -5 -30 -5 -55 l0 -45 23 -3 c26 -4 26 -3 7 -49
    -18 -42 -18 -43 -6 -43 7 0 41 80 41 97 0 2 -11 8 -24 13 l-25 9 -3 43 c-2 24
    -5 39 -8 33z"/>
    <path d="M4328 2516 c-4 -66 -1 -76 18 -76 18 0 18 -24 -2 -61 -8 -17 -13 -36
    -11 -42 5 -14 46 70 47 95 0 9 -8 23 -18 30 -12 8 -19 29 -21 58 -4 63 -8 61
    -13 -4z"/>
    <path d="M3930 2551 c0 -10 34 -21 65 -21 28 0 6 16 -32 23 -18 4 -33 3 -33
    -2z"/>
    <path d="M7703 3151 c-8 -12 -8 -22 -1 -29 6 -6 5 -16 -3 -30 l-13 -20 14 -17
    c8 -10 25 -15 44 -13 l31 3 1 50 c1 28 -3 56 -9 63 -14 18 -51 15 -64 -7z m54
    -7 c8 -20 -8 -36 -26 -25 -15 10 -8 41 9 41 6 0 13 -7 17 -16z m7 -79 c-8 -19
    -40 -20 -47 -1 -3 7 -1 18 5 24 15 15 49 -4 42 -23z"/>
    <path d="M7812 3158 c-7 -7 -12 -30 -12 -53 0 -46 13 -65 45 -65 32 0 45 19
    45 65 0 46 -13 65 -45 65 -12 0 -26 -5 -33 -12z m58 -59 c0 -47 -17 -60 -42
    -29 -18 23 -17 51 5 78 16 21 37 -6 37 -49z"/>
    <path d="M6965 3070 c-3 -5 -1 -10 4 -10 16 0 14 -97 -1 -103 -7 -3 3 -5 22
    -5 19 0 29 2 23 5 -9 3 -13 26 -13 64 0 45 -3 59 -14 59 -8 0 -18 -4 -21 -10z"/>
    <path d="M7065 3070 c-3 -5 1 -10 9 -10 20 0 23 -95 4 -103 -7 -3 0 -6 17 -6
    22 -1 26 2 17 11 -7 7 -12 36 -12 65 0 39 -4 53 -14 53 -8 0 -18 -4 -21 -10z"/>
    <path d="M7170 3061 c-15 -28 -12 -87 4 -101 8 -6 25 -10 38 -8 l23 3 0 35 0
    35 -28 3 c-35 4 -34 37 1 36 12 0 22 3 22 8 0 17 -50 8 -60 -11z m54 -58 c4
    -9 0 -23 -9 -32 l-16 -16 -14 19 c-11 14 -12 23 -4 33 16 18 36 16 43 -4z"/>
    <path d="M9069 3024 c-9 -11 -10 -20 -2 -32 7 -12 7 -22 0 -33 -17 -28 -1 -49
    38 -49 41 0 55 21 36 53 -9 13 -9 23 -2 30 16 16 -6 47 -33 47 -13 0 -29 -7
    -37 -16z m50 -8 c8 -10 8 -16 -3 -25 -16 -13 -42 11 -31 29 9 14 20 13 34 -4z
    m-5 -52 c20 -8 21 -33 1 -40 -23 -9 -48 15 -34 32 13 16 12 16 33 8z"/>
    <path d="M9190 3000 c-26 -51 -25 -60 5 -60 16 0 25 -6 25 -15 l0 -15 18 18
    c14 13 15 19 5 25 -7 4 -13 26 -13 47 0 51 -14 51 -40 0z m27 -47 c-3 -3 -13
    -3 -21 -1 l-17 3 18 25 18 25 3 -23 c2 -13 1 -26 -1 -29z"/>
    <path d="M1556 2988 c-11 -37 -13 -59 -6 -63 5 -3 11 -1 15 5 10 15 32 12 39
    -6 10 -25 -13 -46 -43 -39 l-24 6 12 -15 c18 -21 44 -20 64 2 31 34 14 72 -30
    72 -14 0 -23 6 -23 15 0 9 9 15 25 15 14 0 25 5 25 10 0 15 -50 12 -54 -2z"/>
    <path d="M1668 2989 c-26 -15 -34 -74 -14 -104 27 -41 76 -27 76 21 0 28 -24
    47 -50 39 -11 -3 -20 -2 -20 2 0 15 23 33 42 33 10 0 18 5 18 10 0 13 -30 12
    -52 -1z m42 -84 c0 -18 -5 -25 -19 -25 -23 0 -35 15 -27 35 10 26 46 18 46
    -10z"/>
    <path d="M2535 2964 c-22 -8 -50 -12 -61 -10 -13 4 -31 -2 -45 -13 -48 -37
    -75 -38 -208 -14 -126 23 -181 23 -201 -2 -6 -8 -17 -12 -24 -9 -19 7 -51 -36
    -70 -96 -37 -115 -40 -574 -6 -712 13 -52 68 -123 103 -134 12 -4 49 -19 82
    -34 236 -107 741 -234 937 -235 l108 0 30 30 c21 22 33 47 42 90 18 89 15 425
    -5 575 l-16 125 19 17 c11 9 20 23 20 32 0 8 5 18 10 21 6 3 10 15 10 26 l0
    20 -37 -7 c-21 -4 -44 -11 -50 -17 -18 -13 -42 9 -65 60 -10 23 -32 50 -48 60
    -17 9 -30 20 -30 24 0 4 -11 21 -25 37 -39 47 -130 93 -220 111 -44 9 -103 29
    -132 44 -59 31 -63 31 -118 11z m110 -26 c52 -26 54 -31 18 -47 l-26 -12 16
    -16 16 -16 42 16 42 17 75 -42 75 -41 -19 -10 c-11 -6 -21 -14 -24 -18 -3 -4
    -77 15 -165 43 -162 51 -199 60 -269 73 l-39 6 33 21 c18 11 49 21 69 23 20 2
    47 8 61 14 36 14 45 13 95 -11z m-370 -38 c281 -59 468 -113 669 -195 175 -70
    169 -67 203 -122 46 -76 73 -260 73 -498 0 -219 -19 -319 -66 -350 -36 -23
    -47 -18 -25 13 37 49 54 193 48 402 -9 291 -17 347 -67 422 l-30 45 -73 31
    c-189 80 -251 103 -362 136 -182 53 -498 124 -557 126 -16 0 -28 5 -28 11 0
    14 89 5 215 -21z m-170 -9 c29 -6 33 -9 15 -10 -14 -1 -36 -8 -50 -15 l-24
    -14 -13 17 c-25 33 -8 38 72 22z m795 -41 c30 -15 66 -40 79 -54 l24 -25 -34
    12 c-19 7 -36 15 -39 18 -3 3 -40 25 -82 48 -43 23 -78 44 -78 46 0 8 79 -19
    130 -45z m-893 24 c9 -23 -19 -37 -37 -18 l-15 15 15 9 c21 14 30 12 37 -6z
    m273 -45 c52 -11 119 -25 148 -31 29 -6 49 -15 45 -19 -5 -5 -89 9 -188 30
    -155 33 -207 40 -193 26 2 -2 73 -18 158 -35 85 -18 165 -35 178 -37 12 -3 22
    -10 22 -15 0 -5 -8 -7 -17 -4 -42 12 -106 26 -228 51 -151 32 -156 33 -124 51
    27 15 53 13 199 -17z m194 -15 c139 -33 432 -131 422 -141 -2 -2 -55 15 -117
    38 -63 22 -199 63 -304 90 -104 27 -170 46 -145 43 25 -3 90 -17 144 -30z
    m-486 -19 c4 -5 3 -26 -5 -46 -7 -20 -15 -84 -19 -141 l-7 -104 -18 0 -19 0 0
    76 c1 76 15 207 26 244 l7 20 13 -20 c7 -10 17 -23 22 -29z m37 25 c3 -5 -3
    -10 -15 -10 -12 0 -18 5 -15 10 3 6 10 10 15 10 5 0 12 -4 15 -10z m165 -39
    c325 -64 707 -192 767 -255 45 -48 54 -109 55 -358 0 -227 -10 -334 -37 -375
    l-17 -26 -62 5 c-61 5 -152 25 -366 79 -106 27 -153 43 -385 131 -50 19 -92
    42 -112 63 l-31 33 -9 68 c-4 38 -8 175 -8 304 0 369 1 372 205 331z m348 -12
    l31 -11 -15 -23 -15 -23 -32 11 c-18 7 -33 12 -35 13 -5 3 22 44 29 44 3 0 20
    -5 37 -11z m474 -25 c38 -19 48 -28 37 -35 -22 -14 -45 -11 -94 13 -57 28 -57
    39 -2 47 4 0 31 -11 59 -25z m-243 -50 c192 -64 210 -73 245 -114 38 -46 55
    -119 66 -285 12 -190 -5 -455 -29 -455 -4 0 -4 30 0 68 15 129 17 228 8 400
    l-8 174 -21 42 c-11 24 -30 52 -43 63 -18 18 -303 124 -375 140 -25 6 -40 23
    -20 23 7 0 87 -25 177 -56z m-43 -23 c228 -74 284 -107 299 -174 11 -49 25
    -259 24 -357 0 -101 -25 -312 -28 -241 0 19 4 72 11 117 13 91 -3 394 -24 456
    -29 86 -73 113 -303 188 -116 37 -169 60 -139 60 6 0 78 -22 160 -49z m364 9
    l10 -19 -31 11 c-23 8 -27 13 -17 19 20 13 26 11 38 -11z m8 -125 c17 -23 32
    -51 32 -61 l-1 -19 -10 18 c-6 11 -17 16 -28 12 -13 -4 -20 4 -30 31 -7 20
    -31 54 -53 76 l-41 41 49 -28 c27 -15 64 -46 82 -70z m132 25 c0 -14 -14 -12
    -28 2 -19 19 -14 30 8 18 11 -6 20 -15 20 -20z m-30 -21 c0 -6 -4 -7 -10 -4
    -5 3 -10 11 -10 16 0 6 5 7 10 4 6 -3 10 -11 10 -16z m-76 -100 l14 12 9 -88
    c18 -188 7 -564 -17 -603 l-9 -15 -16 23 c-9 12 -20 20 -25 17 -14 -8 -23 14
    -12 28 30 35 41 518 15 617 l-6 25 16 -14 c13 -10 20 -11 31 -2z m-1156 -191
    c16 -236 18 -240 161 -301 258 -110 738 -233 823 -210 l38 10 40 -19 c22 -11
    40 -23 40 -25 0 -10 -150 4 -240 21 -269 52 -638 169 -810 256 -71 36 -99 139
    -100 367 l0 91 18 -5 18 -4 12 -181z m1085 -475 c4 -3 2 -12 -4 -20 -13 -15
    -43 2 -33 18 6 11 28 12 37 2z m49 -55 c-17 -17 -47 9 -30 29 l11 14 16 -15
    c11 -12 12 -19 3 -28z"/>
    <path d="M2055 2758 c-23 -69 -35 -316 -15 -303 6 3 10 34 10 68 0 54 8 124
    25 220 4 27 -12 39 -20 15z"/>
    <path d="M2136 2723 c-13 -80 -19 -236 -9 -230 5 4 13 50 17 104 3 54 9 113
    12 131 4 18 2 32 -4 32 -5 0 -12 -17 -16 -37z"/>
    <path d="M2226 2713 c-11 -48 -22 -204 -16 -208 8 -5 35 223 28 231 -4 3 -9
    -7 -12 -23z"/>
    <path d="M2306 2678 c-13 -78 -18 -168 -9 -168 6 0 13 28 17 63 3 34 9 79 12
    100 8 46 -11 51 -20 5z"/>
    <path d="M2396 2669 c-9 -41 -13 -149 -5 -149 8 0 23 160 15 167 -3 3 -7 -5
    -10 -18z"/>
    <path d="M2483 2622 c-15 -64 -17 -102 -4 -102 12 0 24 74 19 120 l-3 35 -12
    -53z"/>
    <path d="M2567 2643 c-10 -17 -19 -138 -9 -128 5 6 13 38 16 73 6 57 4 74 -7
    55z"/>
    <path d="M2637 2573 c-5 -52 -3 -73 7 -62 8 10 15 119 7 119 -4 0 -11 -26 -14
    -57z"/>
    <path d="M2717 2558 c-3 -18 -1 -37 4 -42 5 -6 9 0 9 16 0 15 3 33 6 42 3 9 2
    16 -4 16 -5 0 -12 -15 -15 -32z"/>
    <path d="M2807 2563 c-11 -10 -8 -63 3 -63 6 0 10 16 10 35 0 36 -2 40 -13 28z"/>
    <path d="M2880 2510 c0 -16 5 -30 10 -30 6 0 10 6 10 14 0 8 3 21 6 30 4 11 1
    16 -10 16 -11 0 -16 -9 -16 -30z"/>
    <path d="M2518 2461 c-12 -50 -10 -327 1 -316 5 6 11 27 13 48 l3 38 110 -77
    c132 -92 319 -204 341 -204 21 0 -8 25 -58 50 -35 18 -85 46 -113 64 -27 18
    -64 41 -81 51 l-31 17 13 37 c18 49 17 58 -5 64 -11 3 -20 16 -23 36 l-5 31
    117 0 c65 0 132 3 149 6 51 10 35 24 -21 19 -119 -12 -307 -17 -351 -11 l-46
    7 -3 87 c-2 67 -5 79 -10 53z m160 -200 c2 -19 10 -40 17 -45 16 -13 9 -66 -9
    -66 -6 0 -40 23 -75 50 -35 28 -67 50 -72 50 -5 0 -9 11 -9 25 l0 26 72 -3 72
    -3 4 -34z"/>
    <path d="M2580 2252 c0 -10 51 -24 59 -16 7 6 -2 12 -32 19 -16 4 -27 3 -27
    -3z"/>
    <path d="M2050 2181 c0 -76 4 -132 10 -136 6 -4 10 42 10 129 0 84 -4 136 -10
    136 -6 0 -10 -50 -10 -129z"/>
    <path d="M2772 2247 c-2 -34 2 -49 13 -53 19 -8 19 -31 1 -66 -8 -15 -11 -30
    -6 -33 13 -8 40 49 40 84 0 21 -6 32 -19 36 -14 4 -21 17 -24 43 l-4 37 -1
    -48z"/>
    <path d="M2955 2223 c2 -53 6 -69 19 -71 17 -4 16 -21 -5 -86 -13 -43 -2 -45
    16 -3 19 47 19 96 0 103 -11 5 -15 21 -15 59 0 30 -4 56 -9 60 -6 3 -8 -23 -6
    -62z"/>
    <path d="M2861 2228 l-1 -58 20 0 c24 0 25 -9 5 -57 -17 -41 -19 -53 -6 -53
    11 0 41 73 41 101 0 12 -8 23 -20 26 -13 4 -20 14 -21 32 -1 59 -18 66 -18 9z"/>
    <path d="M2130 2137 c0 -76 4 -127 10 -127 9 0 3 239 -6 249 -2 2 -4 -53 -4
    -122z"/>
    <path d="M2201 2118 c2 -135 16 -159 18 -30 1 69 -3 112 -9 112 -6 0 -10 -33
    -9 -82z"/>
    <path d="M2290 2086 c0 -77 8 -136 19 -136 3 0 5 47 3 105 -4 119 -22 145 -22
    31z"/>
    <path d="M2390 2105 c-3 -5 -5 -19 -4 -30 0 -11 2 -54 3 -94 0 -41 5 -71 9
    -65 4 5 5 52 2 104 -3 52 -7 91 -10 85z"/>
    <path d="M2474 2057 c-10 -27 1 -160 14 -165 9 -3 12 18 12 82 0 78 -12 118
    -26 83z"/>
    <path d="M2556 1948 c6 -81 10 -96 18 -87 9 8 -7 169 -16 169 -6 0 -7 -34 -2
    -82z"/>
    <path d="M2638 1925 c2 -44 8 -75 14 -75 7 0 8 16 4 46 -3 26 -6 60 -6 75 0
    16 -3 29 -7 29 -5 0 -7 -34 -5 -75z"/>
    <path d="M2716 1908 c7 -70 10 -86 17 -77 8 9 -6 149 -14 149 -5 0 -6 -32 -3
    -72z"/>
    <path d="M2810 1957 c-9 -9 1 -147 11 -147 5 0 9 15 8 33 -1 46 -13 120 -19
    114z"/>
    <path d="M2907 1933 c-11 -10 -8 -131 3 -138 6 -4 10 22 10 69 0 76 -1 82 -13
    69z"/>
    <path d="M3114 2126 c-7 -19 3 -36 22 -36 10 0 14 8 12 22 -4 26 -26 36 -34
    14z"/>
    <path d="M1240 2780 c-26 -26 -26 -81 0 -105 l20 -18 25 11 c46 21 23 92 -26
    79 -15 -4 -19 -2 -15 10 3 8 6 17 6 19 0 2 12 4 26 4 14 0 23 4 19 10 -10 16
    -33 12 -55 -10z m48 -78 c3 -16 -2 -22 -17 -22 -24 0 -35 15 -27 36 9 23 40
    13 44 -14z"/>
    <path d="M1355 2757 c-32 -56 -32 -67 5 -67 22 0 30 -5 31 -17 0 -14 2 -15 6
    -3 3 8 11 19 17 23 8 6 7 10 -1 14 -8 3 -13 23 -13 49 0 56 -12 56 -45 1z m35
    -12 c0 -24 -24 -45 -36 -32 -5 5 24 57 32 57 2 0 4 -11 4 -25z"/>
    <path d="M1691 2755 c-50 -45 -50 -48 -6 -86 19 -17 35 -37 35 -43 0 -18 33
    -46 53 -46 15 0 87 69 95 91 2 5 -8 9 -22 9 -18 0 -29 7 -35 23 -5 12 -25 37
    -44 55 l-35 34 -41 -37z m76 -17 l23 -22 -32 -33 -32 -33 -23 22 c-29 27 -29
    36 -1 65 27 29 36 29 65 1z m66 -78 c6 0 -2 -13 -18 -30 -32 -34 -47 -37 -65
    -15 l-13 16 28 29 28 29 14 -15 c8 -8 19 -14 26 -14z"/>
    <path d="M1706 2725 c-13 -35 26 -68 44 -36 7 14 5 23 -9 35 -22 20 -27 20
    -35 1z"/>
    <path d="M1587 2643 c-14 -4 -16 -8 -6 -19 6 -7 15 -11 20 -8 12 7 11 -13 -1
    -37 -7 -13 -7 -19 -1 -19 8 0 51 73 51 87 0 4 -41 2 -63 -4z"/>
    <path d="M1517 2599 c-12 -14 -24 -18 -35 -13 -47 20 -67 16 -110 -24 -45 -42
    -51 -65 -27 -112 53 -102 182 -67 198 54 5 31 3 54 -4 63 -15 17 -5 28 17 19
    12 -4 14 -13 10 -32 -5 -17 -3 -23 4 -19 14 9 13 58 -2 73 -17 17 -31 15 -51
    -9z m-47 -34 c60 -31 66 -83 14 -131 -19 -19 -40 -34 -45 -34 -29 0 -68 33
    -79 65 l-12 36 17 25 17 26 26 -7 c15 -4 34 -13 43 -21 22 -20 31 -17 19 6 -6
    11 -22 23 -36 26 -19 5 -22 9 -12 15 17 11 14 11 48 -6z m60 -17 c0 -6 -6 -5
    -15 2 -8 7 -15 14 -15 16 0 2 7 1 15 -2 8 -4 15 -11 15 -16z"/>
    <path d="M1410 2506 c0 -9 -7 -12 -20 -9 -27 7 -26 -14 1 -22 16 -5 19 -12 15
    -31 -4 -14 -2 -24 4 -24 5 0 10 9 10 20 l0 21 19 -11 c13 -6 22 -6 26 -1 3 6
    -4 15 -15 21 -11 6 -20 20 -20 30 0 11 -4 20 -10 20 -5 0 -10 -6 -10 -14z"/>
    <path d="M447 2559 c-40 -11 -111 -72 -131 -112 -25 -54 -41 -390 -27 -579 19
    -263 51 -300 331 -387 74 -23 169 -53 211 -67 42 -13 83 -24 92 -24 34 0 23
    -18 -29 -48 -35 -20 -64 -30 -77 -27 -14 4 -39 -5 -70 -25 -34 -21 -55 -28
    -72 -24 -35 9 -67 -1 -98 -30 -58 -54 -17 -166 60 -166 50 0 103 41 103 79 l0
    29 50 32 c49 31 54 38 51 70 -1 8 16 24 36 35 21 11 98 55 171 98 73 42 136
    77 139 77 4 0 38 20 77 44 77 48 195 116 202 116 9 0 3 -167 -6 -201 -6 -21
    -22 -44 -37 -54 l-27 -18 -110 21 c-61 12 -129 24 -151 28 l-40 6 15 -14 c9
    -9 73 -25 151 -38 l136 -22 32 17 c18 9 38 30 46 48 17 43 30 227 16 227 -20
    0 -11 16 20 34 21 13 27 21 19 26 -9 5 -9 9 -1 14 6 4 16 4 21 1 15 -10 12
    -35 -5 -35 -17 0 -20 -16 -4 -26 19 -11 41 20 34 49 -12 46 -58 47 -67 2 -2
    -11 -7 68 -11 175 l-7 194 -33 54 c-17 29 -39 59 -47 67 -12 10 -282 106 -335
    119 -5 1 -36 10 -68 20 -106 31 -437 96 -494 96 -19 0 -42 -9 -57 -22 l-25
    -23 -12 -170 c-12 -175 -7 -405 10 -509 12 -67 40 -105 99 -129 20 -8 64 -27
    98 -41 62 -26 289 -92 357 -103 20 -3 39 -9 42 -12 8 -13 -55 -43 -68 -33 -7
    5 -28 13 -47 17 -81 17 -279 78 -376 116 -116 45 -153 71 -189 133 l-24 42
    -12 139 c-16 178 0 545 25 593 24 47 63 72 110 72 36 0 155 -18 226 -35 14 -3
    58 -13 99 -21 158 -31 332 -78 461 -125 352 -128 361 -139 381 -435 11 -167 0
    -434 -22 -516 -11 -42 -47 -75 -93 -83 -30 -6 -184 21 -384 67 -78 17 -119 19
    -101 5 8 -7 425 -91 464 -94 49 -3 159 48 188 88 51 71 61 577 15 754 -32 125
    -145 194 -486 301 -174 55 -251 74 -432 108 -209 39 -273 46 -313 35z m243
    -40 c221 -38 529 -122 694 -190 191 -78 228 -105 265 -189 55 -127 55 -676 -1
    -767 -11 -18 -21 -33 -23 -33 -2 0 -11 -3 -20 -6 l-16 -6 15 38 c33 82 45 386
    26 599 l-10 110 -32 63 c-38 76 -55 91 -156 132 -42 18 -95 40 -117 50 -146
    64 -559 168 -799 201 -64 9 -84 15 -70 20 23 10 91 4 244 -22z m55 -133 c72
    -15 159 -35 195 -45 368 -107 455 -141 492 -191 25 -34 37 -115 46 -303 l7
    -158 -45 -29 c-57 -36 -325 -192 -366 -213 -18 -9 -35 -12 -40 -7 -5 4 -56 20
    -114 35 -93 23 -264 81 -387 130 -26 10 -50 30 -62 49 -32 52 -45 201 -38 445
    7 226 16 297 38 313 20 13 125 3 274 -26z m75 -1101 c19 -23 1 -39 -21 -19
    -10 9 -16 21 -13 25 8 13 20 11 34 -6z m-34 -30 c10 -25 -7 -40 -23 -20 -7 11
    -13 22 -13 27 0 14 30 9 36 -7z m-90 -30 l25 -25 -3 -43 c-2 -26 -8 -42 -16
    -42 -7 0 -17 -6 -21 -14 -16 -25 -63 -16 -93 18 -32 36 -35 57 -12 89 19 28
    44 28 78 1 37 -29 48 -13 13 17 -20 17 -23 24 -12 24 9 0 27 -11 41 -25z m54
    -11 c0 -19 -16 -18 -24 2 -11 27 -7 37 9 24 8 -7 15 -19 15 -26z"/>
    <path d="M620 1189 c0 -7 -10 -9 -27 -5 l-28 6 24 -20 c15 -13 22 -27 18 -40
    -6 -25 2 -26 18 -3 l13 17 15 -12 c10 -8 17 -9 21 -3 4 6 -3 15 -14 21 -11 6
    -20 20 -20 30 0 11 -4 20 -10 20 -5 0 -10 -5 -10 -11z"/>
    <path d="M6474 2502 c-17 -11 -34 -48 -34 -75 0 -43 51 -72 78 -45 31 31 -3
    87 -42 72 -9 -3 -16 -2 -16 3 0 15 23 33 43 33 10 0 15 5 12 10 -7 12 -25 13
    -41 2z m36 -87 c0 -18 -5 -25 -19 -25 -23 0 -35 15 -27 35 10 26 46 18 46 -10z"/>
    <path d="M6572 2503 c-46 -18 -31 -83 19 -83 41 0 33 -24 -9 -28 -34 -3 -35
    -22 -1 -22 29 0 59 36 59 70 0 17 -9 39 -20 50 -21 21 -26 22 -48 13z m32 -19
    c21 -8 21 -40 0 -48 -21 -8 -34 1 -34 23 0 28 9 34 34 25z"/>
    <path d="M5626 2174 c-32 -57 -32 -54 -1 -54 16 0 25 -6 25 -15 0 -8 5 -15 10
    -15 6 0 10 6 10 14 0 8 6 17 13 19 10 4 10 6 0 6 -9 1 -13 17 -13 46 0 57 -12
    57 -44 -1z m24 -19 c0 -16 -6 -25 -15 -25 -18 0 -19 4 -3 30 16 26 18 25 18
    -5z"/>
    <path d="M5720 2205 c-7 -8 -10 -22 -6 -31 3 -8 1 -24 -5 -35 -15 -29 6 -51
    45 -47 l31 3 3 28 c2 15 -2 27 -7 27 -8 0 -7 6 1 19 23 38 -33 70 -62 36z m48
    -22 c-2 -10 -10 -18 -18 -18 -8 0 -16 8 -18 18 -2 12 3 17 18 17 15 0 20 -5
    18 -17z m2 -48 c15 -17 5 -35 -20 -35 -22 0 -33 23 -17 39 15 15 22 14 37 -4z"/>
    <path d="M335 2096 c-23 -17 -13 -62 15 -71 28 -9 40 2 40 35 0 37 -29 55 -55
    36z m31 -43 l-7 -18 -10 18 c-12 21 -2 44 13 29 6 -6 8 -19 4 -29z"/>
    <path d="M1833 1964 c-83 -41 -102 -97 -51 -151 27 -28 53 -29 98 -2 69 41 80
    90 31 140 -34 34 -35 34 -78 13z m67 -24 c26 -26 26 -76 1 -89 l-19 -11 -6 25
    c-4 14 -16 35 -28 47 l-21 21 18 14 c25 17 31 17 55 -7z m-51 -54 c19 -23 10
    -70 -15 -74 -11 -2 -26 3 -32 11 l-12 14 23 -4 c32 -6 41 20 17 49 l-18 23
    -21 -20 -22 -19 7 20 c14 37 42 37 73 0z m-21 -24 c2 -7 -3 -12 -12 -12 -9 0
    -16 7 -16 16 0 17 22 14 28 -4z"/>
    <path d="M4235 1877 c-31 -54 -31 -57 -1 -57 14 0 28 -5 31 -10 5 -8 11 -7 21
    1 10 8 12 15 4 23 -5 5 -10 27 -10 48 0 50 -13 48 -45 -5z m35 -16 c0 -22 -15
    -35 -30 -26 -6 4 -5 13 3 25 15 25 27 25 27 1z"/>
    <path d="M4332 1908 c-21 -21 -15 -106 8 -118 42 -22 67 11 61 80 -4 45 -41
    66 -69 38z m52 -24 c16 -42 -7 -96 -34 -79 -11 7 -14 78 -3 88 11 12 31 7 37
    -9z"/>
    <path d="M1885 1681 c-3 -5 -1 -12 5 -16 15 -9 13 -92 -2 -98 -9 -3 -7 -7 5
    -12 9 -4 25 -4 35 0 11 5 13 9 5 12 -9 3 -13 26 -13 64 0 45 -3 59 -14 59 -8
    0 -17 -4 -21 -9z"/>
    <path d="M1992 1681 c-8 -4 -16 -26 -19 -48 l-5 -41 21 -21 21 -21 21 10 c36
    20 45 81 16 118 -11 14 -36 16 -55 3z m43 -61 l0 -45 -20 0 c-15 0 -21 8 -23
    33 -4 45 4 64 25 60 14 -3 18 -13 18 -48z"/>
    <path d="M2089 1674 c-10 -12 -10 -20 -1 -34 7 -12 8 -21 2 -25 -17 -10 -11
    -44 8 -54 36 -19 84 12 65 42 -4 6 -6 25 -5 41 4 44 -41 63 -69 30z m55 -13
    c3 -5 0 -13 -7 -19 -15 -13 -42 1 -33 17 9 13 33 15 40 2z m1 -71 c0 -8 -10
    -16 -22 -18 -18 -3 -23 2 -23 18 0 16 5 21 23 18 12 -2 22 -10 22 -18z"/>
    <path d="M3005 1600 c-11 -17 3 -24 19 -11 17 14 36 7 36 -13 0 -6 -16 -27
    -35 -46 -46 -44 -44 -50 13 -48 36 1 39 2 15 5 -41 5 -41 9 -1 50 l33 34 -11
    17 c-13 20 -59 28 -69 12z"/>
    <path d="M3110 1591 c-34 -65 21 -146 68 -99 16 16 16 90 0 106 -18 18 -56 14
    -68 -7z m58 -34 c4 -42 -11 -69 -34 -60 -15 5 -20 83 -7 97 18 17 38 -1 41
    -37z"/>
    <path d="M1396 1164 c-30 -30 -6 -82 33 -71 17 4 21 2 19 -11 -2 -10 -16 -19
    -33 -22 -24 -4 -26 -7 -12 -12 38 -16 67 17 67 76 0 50 -42 73 -74 40z m54
    -23 c0 -28 -24 -45 -40 -26 -16 20 -6 45 20 45 13 0 20 -7 20 -19z"/>
    <path d="M1500 1148 c-23 -39 -23 -39 -8 -73 19 -43 87 -34 88 12 0 20 -32 45
    -52 40 -14 -4 -18 -1 -16 11 2 10 15 18 31 20 30 4 27 22 -4 22 -11 0 -28 -14
    -39 -32z m58 -61 c4 -20 -25 -34 -40 -19 -15 15 -1 44 19 40 10 -2 19 -11 21
    -21z"/>
    <path d="M440 950 c-10 -6 -11 -10 -2 -10 8 0 12 -17 12 -50 0 -29 -5 -50 -11
    -50 -5 0 -7 -4 -4 -10 11 -17 48 -12 41 6 -3 9 -6 40 -6 70 0 55 -4 61 -30 44z"/>
    <path d="M537 942 c-32 -35 -14 -112 26 -112 32 0 47 18 47 58 0 66 -38 93
    -73 54z m51 -50 c2 -32 -1 -44 -13 -49 -21 -8 -35 13 -35 53 0 63 43 60 48 -4z"/>
    <path d="M640 945 c-7 -9 -9 -19 -5 -23 4 -4 10 -1 12 6 7 18 43 15 43 -4 0
    -8 -16 -31 -36 -49 -20 -19 -33 -39 -29 -45 8 -13 72 -13 80 0 4 6 -7 10 -24
    10 -39 0 -39 10 -1 38 17 13 30 31 30 40 0 38 -46 56 -70 27z"/>
    </g>
  </g>
  <g id="labels" font-family="Helvetica, Arial, sans-serif" fill="#111" font-size="14" text-rendering="geometricPrecision" opacity="0" pointer-events="none">
      <a id="pos-20" href="#pos-20"><text data-pos="20" x="306" y="485" text-anchor="middle" dominant-baseline="middle" font-size="12" font-weight="600">20</text></a>
      <a id="pos-30" href="#pos-30"><text data-pos="30" x="322" y="508" text-anchor="middle" dominant-baseline="middle" font-size="12" font-weight="600">30</text></a>
      <a id="pos-40" href="#pos-40"><text data-pos="40" x="430" y="452" text-anchor="middle" dominant-baseline="middle" font-size="12" font-weight="600">40</text></a>
      <a id="pos-44" href="#pos-44"><text data-pos="44" x="99" y="576" text-anchor="middle" dominant-baseline="middle" font-size="12" font-weight="600">44</text></a>
      <a id="pos-48" href="#pos-48"><text data-pos="48" x="573" y="425" text-anchor="middle" dominant-baseline="middle" font-size="12" font-weight="600">48</text></a>
      <a id="pos-52" href="#pos-52"><text data-pos="52" x="262" y="570" text-anchor="middle" dominant-baseline="middle" font-size="12" font-weight="600">52</text></a>
      <a id="pos-56" href="#pos-56"><text data-pos="56" x="158" y="347" text-anchor="middle" dominant-baseline="middle" font-size="12" font-weight="600">56</text></a>
      <a id="pos-61" href="#pos-61"><text data-pos="61" x="414" y="537" text-anchor="middle" dominant-baseline="middle" font-size="12" font-weight="600">61</text></a>
      <a id="pos-64" href="#pos-64"><text data-pos="64" x="134" y="365" text-anchor="middle" dominant-baseline="middle" font-size="12" font-weight="600">64</text></a>
      <a id="pos-65" href="#pos-65"><text data-pos="65" x="385" y="561" text-anchor="middle" dominant-baseline="middle" font-size="12" font-weight="600">65</text></a>
      <a id="pos-69" href="#pos-69"><text data-pos="69" x="652" y="395" text-anchor="middle" dominant-baseline="middle" font-size="12" font-weight="600">69</text></a>
      <a id="pos-72" href="#pos-72"><text data-pos="72" x="708" y="428" text-anchor="middle" dominant-baseline="middle" font-size="12" font-weight="600">72</text></a>
      <a id="pos-80" href="#pos-80"><text data-pos="80" x="778" y="330" text-anchor="middle" dominant-baseline="middle" font-size="12" font-weight="600">80</text></a>
      <a id="pos-82" href="#pos-82"><text data-pos="82" x="802" y="355" text-anchor="middle" dominant-baseline="middle" font-size="12" font-weight="600">82</text></a>
      <a id="pos-84" href="#pos-84"><text data-pos="84" x="917" y="347" text-anchor="middle" dominant-baseline="middle" font-size="12" font-weight="600">84</text></a>
      <a id="pos-88" href="#pos-88"><text data-pos="88" x="887" y="361" text-anchor="middle" dominant-baseline="middle" font-size="12" font-weight="600">88</text></a>
      <a id="pos-90" href="#pos-90"><text data-pos="90" x="849" y="357" text-anchor="middle" dominant-baseline="middle" font-size="12" font-weight="600">90</text></a>
      <a id="pos-91" href="#pos-91"><text data-pos="91" x="536" y="454" text-anchor="middle" dominant-baseline="middle" font-size="12" font-weight="600">91</text></a>
      <a id="pos-93" href="#pos-93"><text data-pos="93" x="483" y="522" text-anchor="middle" dominant-baseline="middle" font-size="12" font-weight="600">93</text></a>
      <a id="pos-96" href="#pos-96"><text data-pos="96" x="145" y="530" text-anchor="middle" dominant-baseline="middle" font-size="12" font-weight="600">96</text></a>
      <a id="pos-102" href="#pos-102"><text data-pos="102" x="59" y="547" text-anchor="middle" dominant-baseline="middle" font-size="12" font-weight="600">102</text></a>
      <a id="pos-108" href="#pos-108"><text data-pos="108" x="204" y="477" text-anchor="middle" dominant-baseline="middle" font-size="12" font-weight="600">108</text></a>
      <a id="pos-116" href="#pos-116"><text data-pos="116" x="751" y="365" text-anchor="middle" dominant-baseline="middle" font-size="12" font-weight="600">116</text></a>
      <a id="pos-122" href="#pos-122"><text data-pos="122" x="725" y="288" text-anchor="middle" dominant-baseline="middle" font-size="12" font-weight="600">122</text></a>
      <a id="pos-150" href="#pos-150"><text data-pos="150" x="371" y="207" text-anchor="middle" dominant-baseline="middle" font-size="12" font-weight="600">150</text></a>
      <a id="pos-158" href="#pos-158"><text data-pos="158" x="343" y="261" text-anchor="middle" dominant-baseline="middle" font-size="12" font-weight="600">158</text></a>
      <a id="pos-163" href="#pos-163"><text data-pos="163" x="456" y="285" text-anchor="middle" dominant-baseline="middle" font-size="12" font-weight="600">163</text></a>
      <a id="pos-164" href="#pos-164"><text data-pos="164" x="470" y="224" text-anchor="middle" dominant-baseline="middle" font-size="12" font-weight="600">164</text></a>
      <a id="pos-165" href="#pos-165"><text data-pos="165" x="593" y="149" text-anchor="middle" dominant-baseline="middle" font-size="12" font-weight="600">165</text></a>
      <a id="pos-166" href="#pos-166"><text data-pos="166" x="511" y="195" text-anchor="middle" dominant-baseline="middle" font-size="12" font-weight="600">166</text></a>
      <a id="pos-172" href="#pos-172"><text data-pos="172" x="319" y="172" text-anchor="middle" dominant-baseline="middle" font-size="12" font-weight="600">172</text></a>
      <a id="pos-178" href="#pos-178"><text data-pos="178" x="282" y="279" text-anchor="middle" dominant-baseline="middle" font-size="12" font-weight="600">178</text></a>
      <a id="pos-182" href="#pos-182"><text data-pos="182" x="247" y="329" text-anchor="middle" dominant-baseline="middle" font-size="12" font-weight="600">182</text></a>
      <a id="pos-190" href="#pos-190"><text data-pos="190" x="490" y="143" text-anchor="middle" dominant-baseline="middle" font-size="12" font-weight="600">190</text></a>
      <a id="pos-194" href="#pos-194"><text data-pos="194" x="710" y="208" text-anchor="middle" dominant-baseline="middle" font-size="12" font-weight="600">194</text></a>
      <a id="pos-198" href="#pos-198"><text data-pos="198" x="759" y="239" text-anchor="middle" dominant-baseline="middle" font-size="12" font-weight="600">198</text></a>
      <a id="pos-202" href="#pos-202"><text data-pos="202" x="625" y="109" text-anchor="middle" dominant-baseline="middle" font-size="12" font-weight="600">202</text></a>
      <a id="pos-206" href="#pos-206"><text data-pos="206" x="616" y="164" text-anchor="middle" dominant-baseline="middle" font-size="12" font-weight="600">206</text></a>
      <a id="pos-208" href="#pos-208"><text data-pos="208" x="667" y="172" text-anchor="middle" dominant-baseline="middle" font-size="12" font-weight="600">208</text></a>
      <a id="pos-210" href="#pos-210"><text data-pos="210" x="558" y="209" text-anchor="middle" dominant-baseline="middle" font-size="12" font-weight="600">210</text></a>
      <a id="pos-212" href="#pos-212"><text data-pos="212" x="838" y="119" text-anchor="middle" dominant-baseline="middle" font-size="12" font-weight="600">212</text></a>
      <a id="pos-214" href="#pos-214"><text data-pos="214" x="803" y="98" text-anchor="middle" dominant-baseline="middle" font-size="12" font-weight="600">214</text></a>
      <a id="pos-250" href="#pos-250"><text data-pos="250" x="595" y="504" text-anchor="middle" dominant-baseline="middle" font-size="12" font-weight="600">250</text></a>
      <a id="pos-272" href="#pos-272"><text data-pos="272" x="659" y="350" text-anchor="middle" dominant-baseline="middle" font-size="12" font-weight="600">272</text></a>
      <a id="pos-274" href="#pos-274"><text data-pos="274" x="650" y="581" text-anchor="middle" dominant-baseline="middle" font-size="12" font-weight="600">274</text></a>
      <a id="pos-278" href="#pos-278"><text data-pos="278" x="771" y="572" text-anchor="middle" dominant-baseline="middle" font-size="12" font-weight="600">278</text></a>
      <a id="pos-280" href="#pos-280"><text data-pos="280" x="766" y="607" text-anchor="middle" dominant-baseline="middle" font-size="12" font-weight="600">280</text></a>
      <a id="pos-310" href="#pos-310"><text data-pos="310" x="473" y="56" text-anchor="middle" dominant-baseline="middle" font-size="12" font-weight="600">310</text></a>
      <a id="pos-318" href="#pos-318"><text data-pos="318" x="863" y="276" text-anchor="middle" dominant-baseline="middle" font-size="12" font-weight="600">318</text></a>
      <a id="pos-326" href="#pos-326"><text data-pos="326" x="750" y="385" text-anchor="middle" dominant-baseline="middle" font-size="12" font-weight="600">326</text></a>
      <a id="pos-350" href="#pos-350"><text data-pos="350" x="586" y="172" text-anchor="middle" dominant-baseline="middle" font-size="12" font-weight="600">350</text></a>
      <a id="pos-362" href="#pos-362"><text data-pos="362" x="902" y="457" text-anchor="middle" dominant-baseline="middle" font-size="12" font-weight="600">362</text></a>
      <a id="pos-382" href="#pos-382"><text data-pos="382" x="287" y="441" text-anchor="middle" dominant-baseline="middle" font-size="12" font-weight="600">382</text></a>
      <a id="pos-400" href="#pos-400"><text data-pos="400" x="314" y="244" text-anchor="middle" dominant-baseline="middle" font-size="12" font-weight="600">400</text></a>
      <a id="pos-408" href="#pos-408"><text data-pos="408" x="383" y="170" text-anchor="middle" dominant-baseline="middle" font-size="12" font-weight="600">408</text></a>
      <a id="pos-416" href="#pos-416"><text data-pos="416" x="202" y="465" text-anchor="middle" dominant-baseline="middle" font-size="12" font-weight="600">416</text></a>
      <a id="pos-420" href="#pos-420"><text data-pos="420" x="247" y="457" text-anchor="middle" dominant-baseline="middle" font-size="12" font-weight="600">420</text></a>
      <a id="pos-575" href="#pos-575"><text data-pos="575" x="849" y="141" text-anchor="middle" dominant-baseline="middle" font-size="12" font-weight="600">575</text></a>
      <a id="pos-577" href="#pos-577"><text data-pos="577" x="847" y="181" text-anchor="middle" dominant-baseline="middle" font-size="12" font-weight="600">577</text></a>
      <a id="pos-578" href="#pos-578"><text data-pos="578" x="848" y="208" text-anchor="middle" dominant-baseline="middle" font-size="12" font-weight="600">578</text></a>
      <a id="pos-580" href="#pos-580"><text data-pos="580" x="841" y="56" text-anchor="middle" dominant-baseline="middle" font-size="12" font-weight="600">580</text></a>
      <a id="pos-581" href="#pos-581"><text data-pos="581" x="729" y="80" text-anchor="middle" dominant-baseline="middle" font-size="12" font-weight="600">581</text></a>
      <a id="pos-582" href="#pos-582"><text data-pos="582" x="731" y="149" text-anchor="middle" dominant-baseline="middle" font-size="12" font-weight="600">582</text></a>
      <a id="pos-586" href="#pos-586"><text data-pos="586" x="847" y="89" text-anchor="middle" dominant-baseline="middle" font-size="12" font-weight="600">586</text></a>
      <a id="pos-590" href="#pos-590"><text data-pos="590" x="755" y="247" text-anchor="middle" dominant-baseline="middle" font-size="12" font-weight="600">590</text></a>
      <a id="pos-592" href="#pos-592"><text data-pos="592" x="757" y="294" text-anchor="middle" dominant-baseline="middle" font-size="12" font-weight="600">592</text></a>
      <a id="pos-640" href="#pos-640"><text data-pos="640" x="130" y="441" text-anchor="middle" dominant-baseline="middle" font-size="12" font-weight="600">640</text></a>
      <a id="pos-648" href="#pos-648"><text data-pos="648" x="293" y="596" text-anchor="middle" dominant-baseline="middle" font-size="12" font-weight="600">648</text></a>
      <a id="pos-652" href="#pos-652"><text data-pos="652" x="254" y="559" text-anchor="middle" dominant-baseline="middle" font-size="12" font-weight="600">652</text></a>
      <a id="pos-654" href="#pos-654"><text data-pos="654" x="82" y="389" text-anchor="middle" dominant-baseline="middle" font-size="12" font-weight="600">654</text></a>
      <a id="pos-658" href="#pos-658"><text data-pos="658" x="192" y="132" text-anchor="middle" dominant-baseline="middle" font-size="12" font-weight="600">658</text></a>
      <a id="pos-660" href="#pos-660"><text data-pos="660" x="198" y="168" text-anchor="middle" dominant-baseline="middle" font-size="12" font-weight="600">660</text></a>
      <a id="pos-666" href="#pos-666"><text data-pos="666" x="324" y="311" text-anchor="middle" dominant-baseline="middle" font-size="12" font-weight="600">666</text></a>
      <a id="pos-670" href="#pos-670"><text data-pos="670" x="320" y="354" text-anchor="middle" dominant-baseline="middle" font-size="12" font-weight="600">670</text></a>
      <a id="pos-700" href="#pos-700"><text data-pos="700" x="801" y="483" text-anchor="middle" dominant-baseline="middle" font-size="12" font-weight="600">700</text></a>
      <a id="pos-706" href="#pos-706"><text data-pos="706" x="501" y="538" text-anchor="middle" dominant-baseline="middle" font-size="12" font-weight="600">706</text></a>
      <a id="pos-718" href="#pos-718"><text data-pos="718" x="678" y="477" text-anchor="middle" dominant-baseline="middle" font-size="12" font-weight="600">718</text></a>
      <a id="pos-722" href="#pos-722"><text data-pos="722" x="677" y="409" text-anchor="middle" dominant-baseline="middle" font-size="12" font-weight="600">722</text></a>
      <a id="pos-724" href="#pos-724"><text data-pos="724" x="681" y="439" text-anchor="middle" dominant-baseline="middle" font-size="12" font-weight="600">724</text></a>
      <a id="pos-726" href="#pos-726"><text data-pos="726" x="682" y="529" text-anchor="middle" dominant-baseline="middle" font-size="12" font-weight="600">726</text></a>
      <a id="pos-728" href="#pos-728"><text data-pos="728" x="684" y="558" text-anchor="middle" dominant-baseline="middle" font-size="12" font-weight="600">728</text></a>
      <a id="pos-732" href="#pos-732"><text data-pos="732" x="548" y="534" text-anchor="middle" dominant-baseline="middle" font-size="12" font-weight="600">732</text></a>
      <a id="pos-800" href="#pos-800"><text data-pos="800" x="78" y="238" text-anchor="middle" dominant-baseline="middle" font-size="12" font-weight="600">800</text></a>
      <a id="pos-810" href="#pos-810"><text data-pos="810" x="126" y="209" text-anchor="middle" dominant-baseline="middle" font-size="12" font-weight="600">810</text></a>
      <a id="pos-816" href="#pos-816"><text data-pos="816" x="859" y="125" text-anchor="middle" dominant-baseline="middle" font-size="12" font-weight="600">816</text></a>
      <a id="pos-822" href="#pos-822"><text data-pos="822" x="107" y="375" text-anchor="middle" dominant-baseline="middle" font-size="12" font-weight="600">822</text></a>
      <a id="pos-826" href="#pos-826"><text data-pos="826" x="101" y="455" text-anchor="middle" dominant-baseline="middle" font-size="12" font-weight="600">826</text></a>
      <a id="pos-828" href="#pos-828"><text data-pos="828" x="320" y="143" text-anchor="middle" dominant-baseline="middle" font-size="12" font-weight="600">828</text></a>
  </g>
</svg>
