<svg xmlns="http://www.w3.org/2000/svg" width="960" height="640" viewBox="0 0 960 640" role="img" aria-labelledby="title desc">
  <title id="title">Mercedes parts diagram: group-007</title>
  <desc id="desc">Mercedes parts diagram: group-007</desc>
  <g id="art">
    <metadata>
    Created by potrace 1.16, written by Peter Selinger 2001-2019
    </metadata>
    <g transform="translate(0.000000,640.000000) scale(0.100000,-0.100000)"
    fill="#000000" stroke="none">
    <path d="M5870 4754 c-85 -18 -294 -62 -465 -98 -170 -35 -341 -72 -380 -81
    -38 -9 -92 -20 -120 -25 -336 -60 -622 -131 -770 -190 -44 -18 -90 -32 -103
    -31 -32 1 -162 -66 -162 -84 0 -8 -5 -15 -11 -15 -7 0 -9 -13 -4 -37 5 -35
    -67 -339 -104 -436 -13 -34 -14 -47 -2 -47 5 0 19 37 30 83 59 221 85 313 91
    322 4 6 9 18 11 27 l4 18 48 -31 c32 -22 44 -35 38 -43 -5 -6 -14 -73 -20
    -149 -6 -76 -15 -146 -21 -157 -9 -17 -92 -50 -127 -50 -7 0 -13 -5 -13 -11 0
    -6 8 -8 18 -5 9 3 38 10 65 17 74 18 81 34 95 205 7 81 14 149 16 151 2 2 39
    -17 82 -43 176 -104 512 -254 570 -254 8 0 14 -6 14 -12 0 -15 -39 -245 -69
    -418 -12 -63 -21 -116 -21 -116 0 -9 -100 23 -195 61 -113 46 -368 175 -427
    216 -14 11 -32 19 -40 19 -10 0 -740 719 -767 756 -15 21 -51 46 -51 36 0 -6
    234 -244 520 -530 354 -354 520 -526 520 -540 0 -28 18 -38 36 -20 16 16 9 48
    -10 48 -6 0 -63 53 -126 117 -63 64 -104 110 -90 101 99 -60 287 -157 405
    -209 l140 -61 88 -6 c52 -3 118 0 158 8 l70 12 17 26 17 26 -2 160 c-4 301
    -10 315 -129 335 -167 29 -441 147 -671 289 -106 66 -153 103 -153 123 0 7 8
    5 20 -6 23 -21 26 -14 8 15 l-13 20 18 17 c12 12 20 15 25 7 5 -8 36 2 98 30
    51 22 110 49 132 58 101 43 381 111 777 188 138 27 288 59 335 70 47 12 207
    46 355 76 354 71 428 88 419 97 -4 4 -10 6 -13 6 -3 -1 -76 -16 -161 -35z
    m-1910 -474 c-8 -5 -19 -10 -25 -10 -5 0 -3 5 5 10 8 5 20 10 25 10 6 0 3 -5
    -5 -10z m803 -517 c10 -2 23 -17 28 -31 12 -30 23 -395 13 -429 -8 -28 -71
    -49 -88 -29 -18 21 -66 48 -79 43 -7 -2 7 -15 31 -28 53 -31 53 -39 -2 -39
    -24 0 -51 -3 -60 -6 -12 -5 -16 0 -16 17 0 24 65 455 75 497 l6 23 37 -6 c20
    -4 45 -9 55 -12z"/>
    <path d="M3538 4694 c3 -41 1 -59 -9 -65 -10 -6 -3 -9 21 -9 26 0 31 3 22 12
    -7 7 -12 36 -12 65 0 37 -4 53 -13 53 -10 0 -13 -14 -9 -56z"/>
    <path d="M3630 4738 c0 -7 -3 -23 -6 -35 l-6 -23 31 6 31 7 0 -26 c0 -25 -25
    -44 -35 -27 -4 6 -11 10 -17 10 -7 0 -6 -6 2 -15 25 -31 70 -11 70 31 0 26
    -24 48 -45 40 -9 -3 -15 0 -15 9 0 9 10 15 25 15 14 0 25 5 25 10 0 6 -13 10
    -30 10 -17 0 -30 -5 -30 -12z"/>
    <path d="M2945 4643 c-115 -30 -307 -78 -425 -108 -255 -64 -400 -107 -400
    -117 0 -8 96 -71 224 -147 l89 -52 221 56 c121 31 240 63 264 71 24 8 143 39
    265 70 233 58 302 78 302 88 0 8 -287 182 -311 189 -10 3 -113 -19 -229 -50z
    m365 -45 c77 -46 139 -85 139 -88 1 -6 -54 -21 -399 -111 -129 -33 -287 -76
    -350 -94 -63 -18 -149 -41 -191 -50 l-77 -18 -141 88 c-78 48 -140 89 -138 91
    5 5 190 55 482 130 138 35 306 79 375 98 69 19 133 35 143 35 11 1 81 -36 157
    -81z"/>
    <path d="M6425 4199 c-28 -9 -335 -82 -775 -184 -172 -40 -244 -57 -505 -121
    -55 -14 -160 -37 -234 -52 -74 -16 -137 -34 -139 -40 -2 -8 6 -10 25 -6 l29 6
    12 -104 c7 -56 15 -177 18 -268 l6 -165 -20 -22 c-22 -22 -76 -37 -179 -49
    -35 -3 -63 -11 -63 -15 0 -23 227 22 247 48 20 25 33 5 33 -52 l0 -54 -37 -10
    c-328 -86 -429 -102 -522 -82 -65 14 -77 8 -26 -13 65 -27 153 -20 355 30 102
    25 193 47 203 50 13 4 17 -1 17 -24 0 -16 -5 -29 -12 -29 -17 -1 -195 -46
    -287 -73 -82 -23 -159 -29 -236 -17 l-50 7 20 -12 c11 -6 53 -14 95 -16 l75
    -4 150 36 c83 21 159 41 170 46 40 17 83 28 89 23 3 -4 6 -29 6 -57 l0 -51 29
    -17 c49 -28 123 -175 120 -241 0 -12 -6 -1 -14 25 -17 62 -57 129 -97 163
    l-32 27 -53 -5 c-80 -8 -187 -46 -227 -79 -20 -17 -51 -58 -68 -92 -17 -33
    -32 -63 -34 -65 -2 -2 -34 -5 -71 -8 l-68 -4 -85 26 c-248 78 -690 346 -690
    419 0 9 -4 16 -10 16 -17 0 -11 -36 9 -62 67 -85 472 -319 658 -381 l82 -27
    96 0 96 0 8 -22 c25 -68 -27 -94 -174 -85 -108 6 -160 23 -348 116 -242 120
    -428 254 -472 342 -31 60 -31 70 1 104 14 15 23 30 20 33 -9 8 -43 -27 -56
    -57 l-11 -28 23 -49 c39 -85 185 -199 401 -316 203 -110 362 -167 467 -168
    l35 0 2 -46 c4 -84 70 -165 138 -169 16 -1 48 -10 70 -20 100 -44 243 16 311
    131 27 46 63 148 64 180 0 34 -31 117 -58 153 -46 62 -145 79 -232 40 -45 -20
    -140 -109 -140 -131 0 -7 22 11 49 39 145 152 311 127 352 -53 l11 -49 -16
    -65 c-38 -148 -141 -240 -269 -240 -95 0 -167 77 -167 179 0 33 -3 42 -11 34
    -16 -16 -3 -91 25 -146 l22 -45 -25 10 c-55 20 -94 80 -104 156 l-5 42 26 6
    c51 11 67 17 80 26 15 13 16 62 1 103 l-12 32 27 46 c56 95 118 129 279 152
    78 12 132 -46 160 -170 l13 -60 26 -3 c23 -3 165 31 176 43 9 9 -17 5 -84 -11
    -36 -9 -67 -14 -70 -11 -3 3 -6 27 -7 53 l-2 48 33 9 c17 6 32 13 32 17 0 10
    -59 -1 -66 -12 -3 -5 -17 13 -29 41 -31 67 -64 110 -97 127 l-28 15 0 49 0 49
    43 11 c23 6 51 15 62 21 20 10 17 9 -83 -8 l-34 -6 4 24 c2 18 12 26 41 33 47
    12 49 31 2 22 l-35 -7 0 50 0 50 45 7 c46 6 63 18 45 29 -6 4 -7 11 -4 17 5 7
    -2 9 -21 4 -15 -4 -40 -9 -55 -12 l-27 -6 -7 164 c-3 89 -12 208 -20 263 -8
    55 -11 103 -7 107 14 16 498 125 508 115 10 -11 32 -284 33 -408 l0 -117 -17
    -7 -18 -8 25 -6 25 -7 3 -56 3 -56 -40 -7 c-23 -4 -43 -11 -47 -16 -3 -6 11
    -7 35 -3 l41 7 0 -26 0 -26 -35 -7 c-19 -3 -35 -11 -35 -16 0 -10 27 -6 64 8
    l16 6 0 -125 0 -126 -43 -6 c-46 -7 -75 -20 -66 -29 3 -3 21 -1 40 4 18 6 41
    10 49 10 l16 0 -3 -67 c-6 -110 -6 -110 -71 -129 -31 -10 -52 -19 -46 -21 11
    -4 135 27 329 81 140 39 418 113 666 176 125 32 257 67 295 80 38 12 75 24 83
    26 8 2 12 7 9 10 -3 3 -41 -5 -84 -16 -140 -38 -175 -47 -433 -114 -139 -37
    -256 -68 -260 -71 -4 -2 -104 -29 -222 -59 -118 -31 -225 -59 -238 -62 l-23
    -7 7 54 c9 63 9 63 87 79 53 12 77 24 66 36 -3 2 -27 -3 -54 -11 -72 -22 -92
    -20 -87 8 l4 23 80 17 c44 10 77 22 74 27 -3 5 -27 3 -53 -5 -26 -7 -59 -16
    -74 -19 l-28 -6 0 123 0 122 84 19 c46 10 90 22 97 27 l14 9 -15 0 c-8 0 -51
    -9 -95 -20 -100 -25 -95 -25 -95 5 l0 24 38 10 c21 6 52 14 70 17 18 4 32 11
    32 16 0 10 -15 8 -102 -9 l-28 -5 0 45 0 45 73 17 c90 22 114 40 40 31 -32 -4
    -53 -3 -53 3 0 6 -12 6 -32 0 -18 -5 -36 -9 -40 -9 -5 0 -8 37 -8 83 0 45 -7
    163 -15 262 -12 141 -12 181 -2 187 12 8 295 76 426 103 40 8 132 30 205 49
    72 19 209 51 304 72 94 21 172 42 172 46 0 10 -37 9 -75 -3z"/>
    <path d="M4017 4033 c-11 -11 -8 -363 3 -363 6 0 10 31 10 73 0 39 3 123 7
    185 6 105 1 127 -20 105z"/>
    <path d="M5088 3847 c-118 -28 -184 -49 -198 -62 l-23 -20 7 -90 c19 -271 28
    -330 50 -338 16 -7 337 66 387 87 53 22 58 46 48 221 -13 239 -15 246 -72 244
    -12 0 -101 -19 -199 -42z m236 7 c4 -9 12 -97 18 -196 l12 -179 -20 -19 c-11
    -11 -62 -30 -124 -45 -309 -77 -276 -72 -288 -47 -5 9 -15 100 -22 201 l-12
    183 18 18 c21 20 317 98 375 99 25 1 39 -4 43 -15z"/>
    <path d="M3925 3691 c3 -5 56 -36 118 -69 236 -125 394 -210 450 -241 32 -18
    61 -30 64 -27 4 3 4 8 2 10 -6 5 -232 127 -412 222 -87 46 -168 91 -180 99
    -24 17 -51 20 -42 6z"/>
    <path d="M3675 3620 c-52 -42 -94 -100 -95 -132 0 -15 -4 -29 -10 -33 -11 -7
    -1 -302 12 -328 16 -31 153 -133 280 -208 125 -75 412 -209 447 -209 32 0 51
    38 51 102 0 75 -21 97 -125 133 -135 46 -335 142 -418 202 -27 19 -54 32 -60
    30 -7 -2 12 -21 41 -41 40 -29 51 -43 47 -57 -3 -11 -7 -28 -10 -38 -3 -11 -1
    -22 5 -26 5 -3 10 -20 10 -36 l0 -30 -30 16 c-79 41 -219 154 -221 178 0 7 0
    55 1 108 1 60 -3 99 -9 104 -13 8 -14 69 -2 93 5 9 14 36 20 59 8 30 26 54 63
    88 58 52 61 71 3 25z m197 -575 c-2 -19 -8 -35 -13 -35 -10 0 -12 31 -3 54 11
    28 20 17 16 -19z m66 -50 l12 -40 -5 48 c-3 26 -2 47 0 47 3 0 40 -17 83 -39
    42 -21 122 -55 177 -76 55 -20 108 -44 118 -53 22 -20 24 -123 2 -142 l-15
    -12 -97 37 c-96 37 -216 94 -260 122 -18 12 -20 19 -13 33 l10 18 -34 30 -35
    30 11 36 11 36 12 -18 c7 -9 17 -35 23 -57z m-26 -42 c10 -9 18 -20 18 -25 0
    -16 -27 -7 -50 17 l-23 25 18 0 c10 0 27 -7 37 -17z"/>
    <path d="M3652 3370 c6 -19 84 -73 98 -68 7 2 -7 17 -31 33 -69 47 -72 49 -67
    35z"/>
    <path d="M3650 3304 c0 -11 50 -54 62 -54 5 0 8 5 6 11 -4 13 -68 54 -68 43z"/>
    <path d="M5035 2820 c-3 -5 1 -10 9 -10 9 0 16 5 16 10 0 6 -4 10 -9 10 -6 0
    -13 -4 -16 -10z"/>
    <path d="M5135 2790 c-8 -13 12 -40 29 -40 6 0 217 -206 470 -457 252 -252
    457 -453 455 -446 -2 6 -203 212 -447 457 -243 245 -447 457 -452 471 -10 26
    -43 34 -55 15z"/>
    <path d="M6603 2641 c-51 -22 -59 -93 -13 -119 30 -17 37 -42 31 -109 -2 -25
    33 -40 68 -28 21 6 30 35 11 35 -5 0 -10 -4 -10 -10 0 -5 -11 -10 -25 -10 -14
    0 -25 5 -25 10 0 6 10 10 23 10 24 0 47 17 47 34 0 6 -5 5 -12 -2 -14 -14 -58
    -16 -58 -3 0 5 12 11 28 13 16 2 31 12 36 24 5 11 19 25 30 30 27 12 36 94 12
    113 -19 16 -115 24 -143 12z m126 -26 c20 -19 6 -44 -29 -51 -16 -4 -30 -11
    -30 -16 0 -5 9 -7 20 -4 11 3 29 9 40 12 24 7 25 1 4 -20 -16 -17 -109 -22
    -130 -8 -16 11 -14 79 2 93 20 16 31 2 16 -21 l-12 -19 34 1 c18 1 38 -2 44
    -6 7 -4 12 -3 12 3 0 5 3 17 7 27 l6 17 -27 -7 c-30 -7 -50 0 -40 15 7 13 64
    1 83 -16z m-39 -125 c0 -5 -11 -10 -25 -10 -14 0 -25 5 -25 10 0 6 11 10 25
    10 14 0 25 -4 25 -10z"/>
    <path d="M6792 2397 c-7 -8 -9 -17 -5 -20 3 -4 11 1 18 10 13 17 45 12 45 -7
    0 -5 -16 -27 -35 -49 -45 -49 -44 -51 13 -49 l47 1 -39 4 -39 4 39 40 39 40
    -11 17 c-14 22 -57 27 -72 9z"/>
    <path d="M6900 2391 c-25 -47 -5 -111 35 -111 27 0 45 25 45 65 0 40 -18 65
    -45 65 -14 0 -29 -8 -35 -19z m48 -3 c14 -14 16 -67 4 -86 -17 -27 -42 -2 -42
    42 0 55 13 69 38 44z"/>
    <path d="M6624 2348 c1 -34 30 -98 44 -98 9 0 42 64 42 81 0 5 -11 2 -24 -8
    -13 -10 -21 -24 -18 -33 3 -9 -2 -6 -11 5 -23 29 -21 45 7 45 25 0 54 26 41
    38 -4 4 -10 1 -12 -5 -5 -15 -53 -18 -53 -3 0 6 -4 10 -9 10 -4 0 -8 -15 -7
    -32z"/>
    <path d="M6663 2065 c0 -93 1 -162 4 -152 6 24 3 25 130 -55 90 -57 111 -74
    101 -84 -7 -6 -96 -33 -198 -59 -102 -26 -212 -55 -245 -66 -48 -15 -414 -112
    -513 -136 -41 -10 -79 16 -123 85 -24 37 -51 76 -61 88 l-18 20 198 51 c108
    28 240 63 292 78 52 15 162 44 244 65 82 22 151 42 154 45 20 20 -27 13 -150
    -23 -79 -23 -219 -62 -313 -86 -297 -78 -450 -119 -454 -123 -3 -2 9 -18 26
    -36 17 -17 49 -60 72 -94 22 -34 54 -70 71 -80 19 -11 30 -25 30 -40 0 -13 2
    -23 5 -23 10 0 283 72 400 105 66 19 208 57 315 86 107 28 214 56 238 62 l42
    12 0 29 c0 16 8 34 17 41 l17 13 -62 38 c-34 22 -96 60 -137 86 l-74 47 -4
    138 -3 138 -1 -170z m237 -330 c0 -8 -17 -19 -42 -25 -24 -7 -74 -21 -113 -31
    -38 -11 -110 -31 -160 -44 -49 -13 -166 -44 -260 -69 -93 -25 -219 -59 -280
    -76 -70 -19 -113 -26 -119 -20 -14 14 -10 16 94 44 52 14 145 39 205 56 61 16
    155 42 210 55 55 14 138 37 185 51 91 27 260 72 273 73 4 1 7 -6 7 -14z"/>
    <path d="M7130 1650 c-37 -37 -20 -120 23 -120 32 0 47 18 47 58 0 64 -36 96
    -70 62z m50 -55 l0 -45 -19 0 c-23 0 -35 31 -27 66 4 15 14 24 26 24 l20 0 0
    -45z"/>
    <path d="M7025 1650 c-3 -5 -1 -10 5 -10 8 0 11 -18 8 -55 l-3 -55 25 1 c14 0
    19 3 13 6 -9 3 -13 26 -13 64 0 45 -3 59 -14 59 -8 0 -18 -4 -21 -10z"/>
    </g>
  </g>
  <g id="labels" font-family="Helvetica, Arial, sans-serif" fill="#111" font-size="14"></g>
</svg>
