<svg xmlns="http://www.w3.org/2000/svg" width="960" height="640" viewBox="0 0 960 640" role="img" aria-labelledby="title desc">
  <title id="title">Mercedes parts diagram: group-018</title>
  <desc id="desc">Mercedes parts diagram: group-018</desc>
  <g id="art">
    <metadata>
    Created by potrace 1.16, written by Peter Selinger 2001-2019
    </metadata>
    <g transform="translate(0.000000,640.000000) scale(0.100000,-0.100000)"
    fill="#000000" stroke="none">
    <path d="M6044 5986 c-16 -41 51 -99 106 -94 l25 3 0 30 0 30 -40 22 c-47 25
    -83 29 -91 9z m73 -21 c43 -21 60 -43 40 -51 -20 -7 -97 33 -97 51 0 19 19 19
    57 0z"/>
    <path d="M6287 5943 c-4 -3 -7 -19 -7 -34 l0 -28 29 5 c34 7 47 -14 26 -43
    l-14 -18 -12 13 c-7 6 -19 12 -27 12 l-14 0 12 -15 c15 -18 51 -20 68 -3 28
    28 2 88 -33 74 -9 -3 -15 0 -15 9 0 9 10 15 25 15 14 0 25 5 25 10 0 11 -53
    14 -63 3z"/>
    <path d="M6387 5943 c-15 -15 -5 -22 23 -16 37 7 43 -21 8 -33 l-23 -7 28 -9
    c30 -11 34 -20 13 -37 -11 -10 -20 -10 -37 -1 l-21 12 4 -14 c3 -7 19 -13 39
    -13 l34 0 1 50 c1 28 -3 56 -9 63 -10 13 -49 17 -60 5z"/>
    <path d="M7208 5854 c-16 -34 -4 -50 54 -81 35 -18 48 -32 53 -53 8 -36 58
    -80 90 -80 57 0 105 53 105 116 0 54 -86 108 -136 85 l-25 -11 -43 25 c-55 32
    -83 32 -98 -1z m40 -19 c-12 -27 -28 -24 -28 6 0 12 7 19 20 19 l20 0 -12 -25z
    m52 -3 c0 -5 -6 -16 -13 -27 -16 -20 -31 -7 -21 19 6 16 34 23 34 8z m130 -17
    c7 -8 21 -15 31 -15 40 0 36 -97 -6 -124 -53 -35 -104 1 -90 65 5 22 4 29 -4
    25 -6 -4 -11 -20 -11 -37 0 -16 -4 -29 -10 -29 -5 0 -10 17 -10 37 0 63 68
    116 100 78z m-100 -9 c0 -7 -7 -19 -15 -26 l-15 -12 0 19 c0 11 3 23 7 26 11
    12 23 8 23 -7z"/>
    <path d="M7420 5765 c0 -17 -7 -29 -22 -35 l-23 -9 23 0 c15 -1 22 -7 22 -21
    0 -11 5 -20 10 -20 6 0 10 11 10 24 0 16 8 26 23 31 l22 8 -22 4 c-15 3 -23
    12 -23 24 0 10 -4 19 -10 19 -5 0 -10 -11 -10 -25z"/>
    <path d="M7708 5840 c-26 -22 -18 -27 12 -8 15 10 22 10 32 0 9 -9 4 -20 -25
    -50 -49 -50 -48 -62 9 -62 27 0 43 4 39 10 -3 6 -18 10 -32 10 l-25 0 31 35
    c33 38 35 44 23 61 -14 21 -41 23 -64 4z"/>
    <path d="M7825 5850 c-16 -6 -20 -17 -21 -56 -1 -27 3 -55 8 -61 24 -30 87 -1
    73 33 -4 10 -7 31 -6 46 3 31 -23 49 -54 38z m43 -27 c5 -17 -26 -29 -40 -15
    -6 6 -7 15 -3 22 9 14 37 9 43 -7z m0 -66 c3 -12 -3 -17 -21 -17 -31 0 -40 10
    -25 27 15 18 42 12 46 -10z"/>
    <path d="M7618 5800 c3 -32 0 -55 -8 -65 l-12 -15 33 0 c26 0 30 3 21 12 -7 7
    -12 36 -12 65 0 38 -4 53 -14 53 -10 0 -12 -12 -8 -50z"/>
    <path d="M5943 5754 c-10 -15 -30 -40 -45 -56 -15 -16 -27 -32 -26 -36 1 -4
    -3 -17 -10 -29 l-12 -23 20 -20 c11 -11 30 -20 43 -20 22 0 61 35 62 55 0 6
    13 35 30 67 l29 56 -13 16 c-21 25 -58 20 -78 -10z m67 -4 c0 -6 -7 -24 -15
    -41 l-16 -29 -23 17 -23 18 14 22 c15 23 63 32 63 13z m-66 -66 c19 -7 20 -24
    5 -58 -8 -16 -17 -22 -27 -19 -11 5 -13 2 -7 -6 5 -9 2 -12 -11 -9 -22 5 -22
    40 1 75 17 26 17 25 39 17z"/>
    <path d="M9090 5714 c-8 -2 -94 -15 -190 -29 -344 -48 -947 -135 -1045 -150
    -117 -19 -417 -64 -427 -65 -3 0 -9 34 -13 75 -7 71 -25 106 -25 48 1 -52 28
    -311 34 -321 3 -5 6 -46 7 -91 1 -84 5 -96 29 -81 l14 9 -12 23 c-14 28 -42
    311 -31 318 4 3 113 20 241 38 128 18 283 42 343 53 117 20 423 63 745 105
    107 13 209 29 225 34 17 5 63 12 103 16 39 4 72 11 72 15 0 9 -41 10 -70 3z"/>
    <path d="M3585 5647 c-44 -23 -82 -43 -84 -45 -3 -1 1 -8 7 -14 7 -7 12 -26
    12 -44 0 -45 19 -94 38 -94 34 0 124 35 133 52 13 25 0 188 -15 188 -6 0 -47
    -19 -91 -43z m95 -62 l0 -76 -42 -19 -43 -19 -7 42 c-3 23 -7 58 -7 78 l-1 36
    38 16 c61 25 62 25 62 -58z m-120 15 c0 -5 -10 -10 -22 -10 l-23 0 15 10 c19
    13 30 13 30 0z m10 -81 c0 -66 -24 -62 -28 4 -2 37 0 47 12 47 12 0 16 -12 16
    -51z"/>
    <path d="M6158 5636 l-4 -33 31 1 c24 1 30 -3 30 -19 l0 -20 -33 2 c-37 1 -40
    -20 -3 -25 31 -5 51 15 51 49 l0 30 -30 6 c-36 7 -40 23 -5 23 14 0 25 5 25
    10 0 6 -13 10 -29 10 l-29 0 -4 -34z"/>
    <path d="M6267 5652 c-20 -22 -22 -83 -5 -100 31 -31 82 -3 76 40 -2 18 -10
    24 -35 26 -18 2 -33 7 -33 12 0 13 32 28 48 23 6 -3 12 0 12 6 0 18 -46 12
    -63 -7z m51 -70 l3 -22 -25 0 c-19 0 -26 5 -26 18 0 39 43 43 48 4z"/>
    <path d="M3924 5576 c-11 -8 -15 -18 -10 -23 5 -4 11 -2 13 5 6 16 43 16 43
    -1 0 -7 -16 -32 -35 -54 -19 -22 -31 -43 -28 -47 10 -10 73 -7 73 4 0 6 -12
    10 -27 10 l-27 0 32 33 c37 38 41 62 13 77 -25 13 -23 13 -47 -4z"/>
    <path d="M4032 5578 c-7 -7 -12 -23 -12 -35 l0 -24 28 3 27 3 3 -29 4 -29 -31
    6 c-17 4 -31 2 -31 -3 0 -15 38 -22 60 -10 39 21 16 102 -25 86 -9 -3 -15 0
    -15 9 0 9 10 15 25 15 14 0 25 5 25 10 0 14 -43 13 -58 -2z"/>
    <path d="M3823 5573 c13 -3 17 -15 17 -54 0 -27 -4 -49 -10 -49 -5 0 -10 -4
    -10 -10 0 -5 11 -10 25 -10 14 0 25 5 25 10 0 6 -4 10 -10 10 -5 0 -10 25 -10
    55 l0 55 -22 -1 c-17 -1 -19 -2 -5 -6z"/>
    <path d="M5712 5488 c-17 -17 -15 -36 8 -65 11 -14 17 -30 13 -37 -4 -6 -22
    -35 -41 -64 -40 -64 -39 -81 11 -105 49 -25 59 -19 99 53 l33 60 40 -2 40 -3
    3 28 c6 50 -40 102 -111 126 -71 24 -79 25 -95 9z m91 -24 c48 -16 97 -67 97
    -101 0 -13 -12 -5 -43 28 -28 31 -58 51 -85 60 -23 7 -42 16 -42 21 0 12 21
    10 73 -8z m-43 -35 c0 -14 -17 -10 -23 5 -4 10 -1 13 9 9 7 -3 14 -9 14 -14z
    m70 -34 l14 -17 -29 -55 c-39 -71 -50 -80 -73 -59 -10 9 -24 16 -30 16 -18 0
    -16 5 29 81 l41 69 17 -10 c10 -5 24 -16 31 -25z m-89 -155 l24 -19 -21 -1
    c-12 0 -32 9 -45 20 l-24 19 21 1 c12 0 32 -9 45 -20z"/>
    <path d="M7240 5425 c-84 -27 -178 -75 -204 -104 -9 -10 -21 -40 -26 -67 -12
    -61 -106 -348 -128 -389 -18 -35 -112 -129 -127 -127 -17 2 -287 43 -345 52
    -30 5 -102 16 -160 24 -58 9 -163 27 -235 41 -200 37 -205 38 -205 27 0 -11
    33 -18 410 -77 157 -25 330 -54 385 -64 55 -11 146 -27 203 -35 417 -64 523
    -83 536 -96 18 -18 38 -11 34 13 -2 16 -9 21 -24 19 -12 -2 -66 4 -120 13
    l-97 16 -114 85 c-69 52 -113 92 -113 102 0 26 47 183 79 266 15 39 31 79 34
    89 l7 18 32 -22 c18 -12 34 -24 36 -25 4 -2 -26 -208 -34 -236 -3 -10 -31 -25
    -70 -38 -46 -16 -63 -25 -55 -33 7 -7 14 -7 23 0 7 6 32 17 56 24 54 16 58 23
    79 153 10 58 21 106 26 106 8 0 2 -49 -19 -153 -8 -38 -14 -78 -14 -90 0 -34
    -16 -55 -32 -39 -13 13 -38 16 -38 5 0 -5 55 -41 123 -81 148 -90 194 -118
    317 -197 52 -34 111 -69 130 -79 58 -28 69 -39 63 -69 -4 -21 -11 -27 -32 -27
    -31 0 -247 93 -319 138 -28 17 -54 27 -57 22 -6 -10 177 -110 272 -147 l68
    -27 103 1 c73 1 109 5 126 16 l23 15 6 84 c11 137 8 272 -5 290 -7 8 -60 30
    -118 47 -118 35 -217 78 -305 132 -33 20 -82 49 -110 64 -46 27 -85 53 -223
    152 l-52 38 6 25 c11 48 52 72 229 132 50 16 92 32 94 34 12 12 -53 0 -119
    -21z m-96 -375 l-15 -83 13 -14 14 -13 112 17 c62 10 112 21 112 26 0 4 -10 5
    -22 3 -66 -13 -199 -29 -203 -24 -6 5 13 149 20 156 2 2 18 -4 34 -14 200
    -123 457 -254 499 -254 23 0 23 -11 -4 -125 -8 -30 -33 -168 -34 -180 0 -5 -4
    -16 -9 -24 l-9 -15 -129 81 c-70 44 -195 121 -278 173 -82 51 -151 93 -151 94
    -1 0 4 33 12 71 8 39 19 95 25 125 13 69 20 93 25 87 2 -2 -3 -41 -12 -87z
    m-126 -314 c35 -27 61 -50 59 -52 -2 -3 -31 0 -63 6 -33 6 -84 15 -114 20 -30
    5 -68 13 -84 17 l-30 9 38 35 c21 18 45 41 55 50 l16 16 30 -27 c17 -15 58
    -48 93 -74z m800 76 c15 -18 9 -349 -6 -364 -4 -4 -37 -10 -74 -14 l-68 -7 0
    15 c0 25 12 29 38 12 13 -8 27 -13 30 -9 4 4 0 10 -8 15 -8 5 -24 15 -34 23
    l-19 14 11 44 c11 46 22 102 44 227 l12 73 31 -7 c16 -3 36 -13 43 -22z"/>
    <path d="M237 5412 c-31 -34 -15 -72 30 -72 13 0 23 -4 23 -10 0 -13 -32 -28
    -50 -22 -12 3 -12 2 -3 -8 17 -18 60 -4 67 22 8 31 7 71 -2 84 -14 22 -48 25
    -65 6z m51 -34 c-2 -15 -10 -23 -23 -23 -13 0 -21 8 -23 23 l-3 22 26 0 26 0
    -3 -22z"/>
    <path d="M332 5418 c3 -7 16 -15 31 -18 l26 -5 -24 -47 c-14 -28 -20 -50 -14
    -53 10 -7 59 94 59 120 0 11 -12 15 -41 15 -28 0 -39 -4 -37 -12z"/>
    <path d="M6017 5323 c-4 -3 -7 -19 -7 -34 l0 -28 30 6 30 6 0 -27 c0 -31 -24
    -44 -47 -25 l-16 14 5 -15 c6 -19 45 -25 64 -10 30 25 11 80 -28 80 -29 0 -21
    28 10 33 l27 4 -31 2 c-17 0 -34 -2 -37 -6z"/>
    <path d="M6135 5293 c-31 -47 -32 -63 0 -63 13 0 29 -8 34 -17 l10 -18 1 17
    c0 9 6 19 13 21 10 4 10 6 0 6 -9 1 -13 17 -13 46 0 55 -11 57 -45 8z m35 -18
    c0 -23 -24 -45 -36 -33 -7 7 17 58 28 58 4 0 8 -11 8 -25z"/>
    <path d="M224 5199 c-37 -18 -55 -61 -43 -102 9 -35 39 -63 53 -50 3 4 19 -5
    34 -19 15 -14 35 -28 44 -31 9 -3 18 -16 20 -29 5 -36 35 -33 74 6 40 40 41
    67 4 76 -15 4 -26 14 -28 27 -2 11 -16 33 -32 48 -16 15 -26 34 -23 41 3 9 -7
    19 -31 29 -40 17 -44 17 -72 4z m26 -17 c0 -16 -32 -52 -46 -52 l-15 0 21 30
    c20 28 40 39 40 22z m46 -6 c10 -8 16 -17 13 -21 -4 -3 -13 1 -22 9 -8 8 -17
    12 -21 9 -3 -4 -6 -1 -6 5 0 16 12 15 36 -2z m-18 -58 c18 -18 15 -26 -18 -43
    -39 -20 -47 -19 -53 7 -10 36 44 63 71 36z m62 -8 c0 -16 -47 -60 -64 -60 -9
    0 -3 12 17 34 34 35 47 43 47 26z m14 -32 c-17 -31 -39 -48 -58 -47 l-21 0 20
    8 c11 5 29 18 39 30 21 23 31 28 20 9z m25 -41 c8 -11 6 -18 -9 -32 l-20 -18
    -15 13 -16 13 17 18 c20 23 28 23 43 6z m17 -54 c-42 -36 -54 -27 -16 12 21
    22 36 31 39 24 2 -7 -8 -23 -23 -36z"/>
    <path d="M5543 5180 c-10 -11 -26 -29 -36 -41 -13 -14 -17 -30 -14 -47 4 -20
    -7 -48 -43 -107 -26 -44 -62 -109 -80 -145 -18 -36 -37 -74 -42 -84 -8 -15 -6
    -23 8 -33 24 -18 29 -17 48 12 22 34 20 55 -4 25 -23 -30 -34 -22 -20 15 8 22
    15 26 33 21 12 -3 27 -6 34 -6 20 0 83 -61 82 -79 0 -12 -2 -12 -6 -2 -4 9
    -12 5 -29 -15 -26 -33 -32 -18 -9 26 19 38 3 39 -24 3 -21 -29 -29 -16 -11 17
    6 12 7 21 0 25 -5 3 -16 -8 -25 -24 -19 -38 -19 -51 0 -51 8 0 15 -6 15 -14 0
    -19 50 -28 57 -10 3 8 13 14 23 14 17 0 80 99 144 227 16 32 38 58 55 67 81
    42 33 181 -74 213 -54 17 -62 16 -82 -7z m107 -20 c27 -14 72 -68 68 -81 -2
    -7 -18 2 -40 24 -19 21 -39 37 -44 37 -27 0 -84 22 -78 31 6 10 67 3 94 -11z
    m-40 -37 c28 -5 124 -93 103 -93 -6 0 -23 14 -37 31 -18 21 -43 35 -78 44 -55
    15 -96 43 -44 31 15 -4 41 -9 56 -13z m-19 -33 c31 -8 59 -24 80 -46 l34 -35
    -25 -19 -25 -19 -15 14 -14 15 -37 -36 -37 -36 24 -25 c28 -30 30 -46 9 -63
    l-15 -12 -35 30 c-19 17 -50 34 -70 38 -39 7 -39 7 -25 35 7 13 21 19 44 19
    l34 0 30 53 c34 59 33 63 -8 72 -17 4 -30 13 -30 21 0 10 6 13 18 10 9 -3 38
    -10 63 -16z m-41 -35 c0 -24 -43 -85 -60 -85 -25 0 -25 0 1 50 13 25 28 40 40
    40 10 0 19 -2 19 -5z m93 -99 c3 -7 -3 -25 -12 -40 l-18 -27 -16 24 -16 24 17
    17 c20 20 38 21 45 2z m-160 -90 c18 -7 42 -25 55 -39 l24 -25 -16 -31 c-20
    -38 -17 -38 -56 -1 -17 16 -47 32 -66 36 -43 8 -49 17 -28 49 18 28 40 31 87
    11z"/>
    <path d="M3081 5165 c-93 -21 -338 -108 -428 -154 -279 -140 -403 -398 -403
    -836 0 -222 11 -257 71 -225 l21 12 -7 34 c-12 69 -6 357 10 442 40 211 138
    380 265 462 144 92 438 192 565 191 305 0 609 -293 814 -783 88 -209 168 -298
    270 -298 86 0 109 17 92 63 l-9 24 -57 -5 -56 -5 -57 59 c-43 45 -64 78 -86
    134 -47 121 -173 357 -247 461 -169 239 -364 388 -555 424 -91 18 -119 18
    -203 0z m214 -20 c277 -72 505 -307 708 -727 41 -84 81 -171 88 -193 8 -21 37
    -64 65 -95 l52 -55 57 -2 c87 -2 104 -35 24 -46 -89 -12 -192 72 -242 195 -57
    142 -152 329 -220 433 -40 61 -75 111 -79 113 -3 2 -26 28 -50 59 -23 31 -74
    81 -113 111 -38 31 -72 59 -75 63 -11 15 -139 73 -200 90 -155 45 -378 -4
    -652 -142 -243 -122 -375 -445 -353 -861 l7 -128 -16 0 c-25 0 -31 44 -30 230
    1 246 37 400 128 564 97 174 263 272 647 381 99 28 173 31 254 10z"/>
    <path d="M9250 5094 c-231 -38 -630 -102 -825 -135 -99 -16 -252 -40 -340 -54
    -88 -14 -177 -28 -198 -31 l-39 -7 7 -21 c4 -12 9 -110 12 -218 l5 -198 -23
    -9 -24 -10 28 0 28 -1 -3 -47 -3 -47 -130 -25 c-177 -32 -279 -33 -370 0 -80
    28 -89 44 -51 90 14 17 26 41 26 54 l0 24 -62 31 c-35 17 -98 54 -141 82 -43
    28 -80 48 -84 44 -9 -8 -15 -3 136 -95 74 -44 136 -83 139 -86 3 -2 -7 -20
    -22 -39 -14 -19 -26 -39 -26 -45 0 -6 -6 -11 -14 -11 -18 0 -181 86 -233 122
    -23 17 -47 28 -54 26 -14 -5 107 -80 229 -143 78 -41 77 -40 59 -72 l-13 -23
    -49 27 c-58 30 -253 155 -337 215 -32 23 -60 39 -64 36 -3 -4 42 -40 100 -81
    l106 -75 -16 -13 c-12 -10 -15 -25 -11 -55 l4 -43 -36 23 c-61 39 -175 128
    -185 144 -5 8 -6 49 -2 90 6 73 -1 152 -13 152 -3 0 -6 -53 -7 -118 l-1 -117
    -26 -39 c-32 -47 -33 -55 -7 -106 21 -41 84 -96 197 -173 69 -46 74 -54 41
    -62 -13 -2 -88 -18 -168 -35 -155 -32 -305 -64 -770 -165 -393 -85 -420 -92
    -427 -99 -13 -13 47 -4 172 24 72 17 216 48 320 71 105 22 240 51 300 64 61
    13 137 30 170 38 33 9 152 34 265 57 113 22 248 52 300 65 169 41 398 85 414
    79 19 -7 33 23 18 38 -8 8 -15 8 -26 -1 -27 -23 -78 -32 -95 -17 -9 8 -43 25
    -76 39 l-60 24 2 28 c3 37 2 37 59 16 28 -11 77 -24 110 -30 l61 -11 149 25
    c82 14 159 27 172 30 17 4 22 1 22 -14 l0 -19 -60 -7 c-33 -4 -63 -12 -66 -17
    -5 -7 5 -9 27 -5 19 3 51 9 72 13 l37 6 0 -38 1 -39 32 -20 c33 -21 76 -94 76
    -130 0 -12 -7 -5 -18 20 -23 50 -54 83 -85 91 -67 16 -276 -49 -276 -86 0 -15
    6 -13 54 21 l44 31 51 -7 52 -7 -6 -18 -5 -17 41 -6 c51 -7 86 -38 100 -91 32
    -118 -43 -257 -158 -295 -53 -18 -88 -8 -131 35 -40 40 -40 40 -35 10 10 -53
    123 -83 197 -52 43 18 100 77 125 131 59 127 26 228 -98 298 l-56 32 49 3 c28
    2 60 -2 73 -9 24 -13 63 -101 63 -142 0 -12 4 -28 9 -36 l10 -15 58 12 c177
    36 216 44 317 62 61 11 188 33 281 49 94 17 184 35 200 40 17 6 113 24 215 42
    161 27 246 48 202 49 -13 0 -482 -82 -562 -99 -42 -8 -261 -52 -358 -70 l-43
    -9 5 42 c3 22 11 97 17 166 9 92 17 128 28 137 l16 12 -23 1 c-44 0 -22 34 28
    42 173 27 300 52 300 60 0 10 21 13 -168 -22 -90 -17 -166 -30 -168 -30 -3 0
    -4 21 -2 47 l3 47 250 43 c138 23 253 42 258 43 4 0 7 5 7 11 0 7 -10 9 -27 5
    -66 -15 -487 -86 -490 -82 -2 1 -6 95 -9 208 l-6 205 53 7 c72 9 230 34 364
    58 61 10 235 39 389 63 153 24 280 46 283 48 13 14 -26 12 -157 -9z m-942
    -381 l-3 -207 -125 -22 c-69 -12 -160 -30 -203 -39 -43 -9 -80 -15 -81 -13 -2
    1 -6 96 -10 209 l-6 206 137 27 c151 29 236 43 271 45 l22 1 -2 -207z m2 -270
    l0 -48 -168 -28 c-92 -15 -184 -30 -204 -34 l-38 -6 0 41 c0 22 4 43 8 46 5 3
    91 19 192 36 101 17 186 33 189 35 14 14 21 0 21 -42z m-1544 -48 c-9 -23 12
    -57 50 -85 20 -14 63 -46 97 -71 34 -25 95 -68 136 -95 l74 -49 -53 -12 c-39
    -8 -59 -9 -74 -1 -35 18 -199 144 -228 175 -32 33 -52 80 -38 88 6 4 10 16 10
    29 0 24 7 36 23 36 5 0 7 -7 3 -15z m169 -111 c74 -52 166 -112 205 -133 l71
    -38 -32 -7 c-38 -7 -79 16 -246 140 -121 90 -153 118 -153 135 0 13 -7 17 155
    -97z m1365 77 l0 -19 -62 -10 c-35 -6 -124 -22 -198 -36 -161 -31 -152 -30
    -148 -9 2 14 25 21 103 35 55 10 141 27 190 37 116 24 115 24 115 2z m-1266
    -28 c-9 -37 -24 -53 -24 -26 0 28 10 53 21 53 5 0 6 -12 3 -27z m203 -85 l42
    -21 -5 -31 c-16 -93 -18 -94 -123 -32 l-74 44 -1 65 -1 64 60 -34 c33 -19 79
    -44 102 -55z m-168 29 c1 -5 -3 -5 -9 -2 -5 3 -10 16 -9 28 l0 22 9 -20 c5
    -11 9 -24 9 -28z m1236 -44 c-4 -49 -11 -122 -14 -163 l-6 -74 -55 -12 c-30
    -7 -90 -19 -133 -27 l-77 -14 -4 21 c-2 12 -10 48 -16 81 l-12 60 -45 44 c-46
    47 -66 97 -42 106 22 8 351 63 383 64 l29 1 -8 -87z m-1257 26 c7 -12 11 -23
    8 -26 -8 -9 -36 17 -36 33 0 20 13 17 28 -7z m362 -100 c0 -3 -17 -9 -37 -13
    -21 -3 -48 -9 -60 -12 l-23 -6 0 39 c0 22 2 42 5 45 6 6 115 -44 115 -53z"/>
    <path d="M8150 4880 c-58 -10 -129 -23 -159 -29 -29 -6 -55 -11 -57 -11 -1 0
    -10 -7 -18 -16 l-16 -15 0 -159 0 -159 18 -10 c13 -7 66 -1 183 20 l164 30 19
    22 18 22 -7 150 c-6 135 -15 177 -34 174 -3 -1 -53 -9 -111 -19z m130 -170 l0
    -137 -17 -15 c-11 -9 -72 -25 -148 -37 -71 -12 -143 -23 -158 -26 l-28 -5 -9
    26 c-12 31 -13 274 -1 292 5 8 58 22 127 33 66 11 139 23 164 27 66 12 70 4
    70 -158z"/>
    <path d="M437 4932 c-22 -24 -22 -24 13 -80 40 -65 55 -120 80 -292 53 -360
    162 -700 287 -894 25 -39 52 -82 60 -95 24 -38 163 -179 212 -215 52 -39 159
    -96 178 -96 29 0 9 18 -44 40 -317 128 -581 615 -673 1240 -30 203 -45 262
    -76 312 -34 52 -37 68 -16 68 20 0 76 -81 90 -130 6 -19 16 -80 22 -135 26
    -210 100 -519 172 -714 26 -70 141 -282 182 -336 103 -133 308 -294 363 -283
    9 2 -19 21 -62 43 -97 49 -229 170 -305 280 -106 155 -210 409 -265 655 -49
    214 -56 253 -70 368 -15 120 -50 217 -94 261 -26 26 -33 26 -54 3z"/>
    <path d="M2827 4843 c-4 -3 -7 -21 -7 -38 l0 -33 -42 -10 -43 -11 -22 14 c-33
    22 -46 19 -39 -8 l5 -23 -42 -15 -42 -16 -3 -60 -3 -61 26 -20 25 -20 0 -63 1
    -64 32 -36 c32 -36 167 -119 193 -119 39 0 84 29 84 54 0 15 -5 26 -12 26 -19
    0 33 49 56 52 11 2 22 11 24 22 5 25 51 63 84 70 l26 5 4 81 3 80 -82 50 c-57
    35 -83 57 -83 70 0 21 -29 34 -54 24 -12 -5 -19 -1 -22 13 -7 25 -53 50 -67
    36z m43 -55 c0 -40 -24 -32 -28 10 -3 25 0 31 12 26 10 -4 16 -18 16 -36z m50
    -56 c0 -22 23 -51 43 -52 4 0 7 9 7 20 0 24 4 24 33 6 12 -7 44 -26 71 -41 39
    -22 46 -29 33 -36 -11 -6 -30 -1 -62 15 -67 36 -125 7 -79 -39 l17 -17 -14 -9
    c-8 -5 -41 -9 -74 -9 l-60 0 -104 62 -105 61 20 7 c22 8 37 3 29 -10 -6 -9 25
    -30 44 -30 6 0 11 15 11 33 l0 33 49 16 50 16 20 -15 c21 -14 46 -9 36 8 -4 5
    -3 14 0 19 11 17 35 -9 35 -38z m30 7 c0 -18 -4 -28 -10 -24 -5 3 -10 20 -10
    36 0 18 4 28 10 24 6 -3 10 -20 10 -36z m-240 -25 c0 -21 -4 -33 -10 -29 -5 3
    -10 19 -10 36 0 16 5 29 10 29 6 0 10 -16 10 -36z m20 -102 l95 -58 3 -42 c2
    -23 0 -42 -5 -42 -4 1 -51 25 -103 54 l-95 53 -3 47 c-2 25 1 46 5 46 4 0 51
    -27 103 -58z m325 2 l25 -16 0 -44 c0 -49 1 -48 -35 -32 -18 8 -25 19 -25 39
    0 18 -9 35 -26 48 -54 42 -2 47 61 5z m65 -58 c0 -30 -5 -46 -15 -50 l-15 -5
    0 49 c0 38 4 50 15 50 11 0 15 -12 15 -44z m-120 -36 l0 -50 -17 0 c-14 0 -18
    8 -17 39 2 75 34 86 34 11z m-50 -14 l0 -44 -42 -4 c-61 -7 -68 -2 -68 48 l0
    44 55 0 55 0 0 -44z m-186 -30 l60 -36 63 0 63 0 0 -20 0 -20 -45 0 -45 0 -1
    -42 c-1 -24 -1 -51 0 -60 1 -10 0 -18 -3 -18 -13 0 -133 77 -166 106 l-37 34
    -2 60 -1 61 27 -15 c16 -8 55 -30 87 -50z m282 23 c3 -6 -1 -18 -10 -27 l-16
    -16 0 27 c0 27 13 36 26 16z m-46 -69 c0 -13 -7 -20 -20 -20 -22 0 -28 25 -7
    33 22 10 27 7 27 -13z m-60 -55 c-7 -8 -16 -15 -21 -15 -5 0 -9 7 -9 15 0 9 9
    15 21 15 l21 0 -12 -15z m-50 -14 c0 -11 10 -27 22 -35 24 -17 17 -32 -17 -38
    l-20 -3 -3 48 c-2 28 1 47 7 47 6 0 11 -9 11 -19z"/>
    <path d="M2767 4723 c-16 -16 -7 -92 12 -103 36 -18 42 -12 39 36 -3 45 -33
    85 -51 67z m33 -59 c0 -13 -4 -24 -10 -24 -5 0 -10 14 -10 31 0 17 4 28 10 24
    6 -3 10 -17 10 -31z"/>
    <path d="M3230 4780 c0 -5 11 -10 25 -10 30 0 31 -5 5 -66 -11 -26 -18 -49
    -15 -52 6 -7 5 -8 33 51 12 26 22 56 22 67 l0 20 -35 0 c-19 0 -35 -4 -35 -10z"/>
    <path d="M5696 4703 c-31 -45 -33 -63 -6 -63 11 0 23 -7 26 -15 8 -19 24 -20
    24 -1 0 8 6 17 13 19 10 4 10 6 0 6 -8 1 -13 16 -13 40 0 54 -14 59 -44 14z
    m24 -33 c0 -13 -7 -20 -20 -20 l-20 0 12 20 c7 11 16 20 20 20 5 0 8 -9 8 -20z"/>
    <path d="M5785 4731 c-3 -6 -5 -22 -4 -38 1 -15 -1 -35 -5 -44 -9 -20 18 -49
    43 -49 30 0 55 35 42 58 -6 12 -8 28 -5 36 12 32 -53 66 -71 37z m50 -20 c3
    -5 1 -13 -5 -16 -15 -9 -43 3 -35 15 8 13 32 13 40 1z m0 -67 c0 -10 -8 -20
    -18 -22 -22 -4 -35 27 -16 39 20 12 34 5 34 -17z"/>
    <path d="M3390 4414 l0 -36 14 11 c20 17 48 2 44 -23 -2 -16 -10 -21 -30 -21
    -16 1 -28 -5 -28 -12 0 -16 52 -17 68 -1 30 30 2 86 -38 75 -13 -3 -20 0 -20
    9 0 9 11 14 30 14 17 0 30 5 30 10 0 6 -16 10 -35 10 l-35 0 0 -36z"/>
    <path d="M3707 4319 c-9 -5 -24 -24 -33 -41 l-16 -31 13 -39 c10 -32 10 -44 1
    -59 -7 -11 -10 -24 -7 -28 3 -5 -1 -11 -9 -14 -8 -3 -17 -20 -21 -37 -4 -17
    -13 -34 -21 -37 -11 -4 -13 -15 -8 -42 10 -64 11 -64 49 -34 42 33 44 41 10
    39 -16 0 -23 -6 -20 -13 2 -7 0 -13 -5 -13 -6 0 -10 14 -10 31 l0 31 18 -7
    c29 -13 55 -11 60 4 3 10 0 12 -12 8 -18 -7 -46 1 -46 13 0 4 17 7 38 6 26 -1
    36 3 34 13 -1 7 5 19 15 27 l18 13 -32 1 c-17 0 -35 5 -38 11 -11 17 0 20 31
    9 l28 -11 12 15 c6 9 23 16 38 16 27 0 66 47 66 81 0 21 -48 65 -92 83 -43 19
    -38 18 -61 5z m94 -42 c19 -13 35 -33 37 -46 l4 -24 -47 6 c-35 5 -46 4 -43
    -6 3 -6 19 -13 36 -15 33 -3 42 -16 18 -25 -21 -8 -58 3 -93 30 -32 23 -44 53
    -22 53 6 0 8 7 5 16 -15 40 51 47 105 11z m-52 -123 c2 -2 2 -7 -2 -10 -8 -9
    -47 6 -47 17 0 9 37 3 49 -7z m-39 -76 c0 -11 -22 -10 -39 1 -7 5 -11 14 -7
    20 7 11 46 -7 46 -21z"/>
    <path d="M3740 4281 c0 -5 -8 -11 -17 -14 -13 -3 -9 -6 12 -12 17 -4 32 -12
    35 -16 7 -10 50 0 50 12 0 5 -11 9 -24 9 -13 0 -26 7 -30 15 -6 16 -26 21 -26
    6z"/>
    <path d="M3110 4261 c-74 -25 -139 -62 -173 -100 -23 -25 -62 -53 -95 -68 -31
    -14 -73 -32 -92 -40 -59 -27 -85 -62 -119 -161 -41 -122 -39 -152 12 -152 11
    0 28 -11 39 -25 22 -28 65 -49 188 -93 72 -26 293 -111 368 -142 13 -6 36 -10
    52 -10 32 0 40 23 21 58 -6 12 -2 29 16 60 l25 42 67 20 c36 11 71 24 76 28
    14 10 36 62 26 62 -4 0 -13 -10 -18 -23 -8 -17 -28 -28 -74 -42 -35 -11 -68
    -21 -74 -22 -6 -2 -11 21 -12 53 -1 32 -7 70 -14 86 -14 33 0 78 37 118 71 78
    55 251 -30 330 l-28 25 -86 2 c-48 1 -98 -2 -112 -6z m180 -19 c52 -25 100
    -103 100 -160 l0 -45 -44 -42 c-42 -41 -101 -65 -160 -65 -14 0 -28 -4 -31
    -10 -9 -14 68 -13 116 2 22 6 58 28 80 49 l41 38 -7 -27 c-11 -44 -46 -84 -94
    -105 l-45 -20 -115 7 -115 7 -88 -22 c-49 -12 -91 -20 -93 -17 -3 3 -1 16 4
    30 l9 25 76 16 c42 9 94 17 116 17 22 0 40 5 40 10 0 16 -95 12 -171 -7 l-70
    -16 -17 24 c-9 13 -31 40 -50 61 l-33 36 68 24 c49 17 80 36 115 70 114 113
    277 166 368 120z m-529 -269 c19 -21 42 -47 52 -59 l17 -21 -15 -42 c-18 -51
    -8 -58 54 -36 24 8 47 13 51 10 7 -4 -49 -157 -62 -170 -3 -3 -31 6 -64 19
    -68 28 -68 29 -30 129 l26 69 -17 23 c-10 12 -31 39 -46 58 -26 32 -29 57 -8
    57 4 0 23 -17 42 -37z m5 -113 c-12 -39 -46 -132 -52 -141 -3 -6 -11 -3 -19 8
    l-13 17 15 11 c9 7 13 23 11 40 l-3 30 -36 3 -37 3 18 59 c27 89 28 90 77 34
    24 -27 41 -56 39 -64z m544 -5 c0 -2 -5 -16 -12 -30 -14 -30 -50 -33 -106 -8
    l-37 16 64 8 c35 4 66 11 69 14 6 6 22 7 22 0z m-293 -16 c-9 -6 -29 -32 -42
    -60 -17 -32 -32 -49 -44 -49 l-19 0 20 55 c20 54 30 62 78 64 l25 0 -18 -10z
    m93 -47 c36 -31 117 -62 161 -62 l47 0 6 -26 c4 -15 2 -32 -5 -40 -39 -47
    -243 31 -296 113 l-17 26 28 24 28 24 16 -23 c9 -13 23 -29 32 -36z m38 29
    c48 -38 112 -57 139 -42 22 11 33 6 33 -16 0 -18 -80 -17 -125 1 -41 17 -105
    64 -105 77 0 17 21 9 58 -20z m-458 -30 c0 -20 -36 -36 -46 -20 -10 17 5 39
    26 39 13 0 20 -7 20 -19z m429 -114 c43 -22 92 -38 129 -42 l60 -7 -20 -34
    -20 -34 -42 0 c-57 0 -131 23 -187 59 l-47 29 5 29 4 28 -11 -17 c-10 -16
    -100 -28 -100 -14 0 23 17 36 46 36 24 0 34 5 34 15 0 8 5 24 12 35 l12 19 28
    -34 c16 -19 60 -49 97 -68z m-123 -48 c47 -52 216 -110 260 -90 l25 11 -6 -20
    c-4 -13 -2 -20 5 -18 7 2 15 -3 17 -9 8 -22 -18 -15 -208 57 -101 38 -190 70
    -196 70 -7 0 -13 5 -13 10 0 20 96 11 116 -11z"/>
    <path d="M1988 4219 c-10 -5 -18 -17 -18 -26 0 -13 3 -14 12 -5 15 15 48 16
    48 2 0 -5 -16 -27 -35 -49 -45 -49 -44 -51 11 -51 27 0 43 4 39 10 -3 6 -18
    10 -33 10 l-26 0 32 33 c37 38 39 48 14 70 -21 20 -21 20 -44 6z"/>
    <path d="M2096 4217 c-44 -32 -26 -127 24 -127 43 0 54 100 14 126 l-20 14
    -18 -13z m40 -28 c22 -37 -5 -100 -33 -77 -14 11 -18 70 -6 81 10 11 31 8 39
    -4z"/>
    <path d="M1885 4155 l0 -65 20 0 20 0 -5 62 c-4 45 -9 64 -20 66 l-15 3 0 -66z"/>
    <path d="M4640 4190 c-8 -5 -27 -11 -41 -14 -32 -7 -43 -30 -28 -57 l10 -20
    -26 -21 -27 -21 5 -43 4 -43 -31 -7 c-76 -16 -278 -84 -303 -102 -16 -11 -91
    -41 -168 -67 -105 -35 -147 -54 -167 -76 l-28 -29 -1 -393 c-1 -406 -1 -419 6
    -452 4 -20 249 -168 298 -180 12 -3 82 13 157 35 74 23 250 74 390 115 720
    210 767 225 792 258 l18 22 0 440 c0 242 -4 445 -8 451 -15 24 -211 134 -248
    139 -27 5 -76 -3 -164 -25 -69 -17 -136 -29 -150 -27 -14 3 -42 0 -62 -7 l-37
    -13 -20 23 c-11 13 -33 26 -48 29 -41 9 -58 20 -62 41 -3 20 -30 54 -40 53 -3
    0 -13 -4 -21 -9z m44 -42 c13 -49 7 -68 -19 -68 l-25 0 0 45 0 45 19 0 c11 0
    21 -9 25 -22z m-64 -8 c0 -11 -2 -20 -4 -20 -2 0 -6 9 -9 20 -3 11 -1 20 4 20
    5 0 9 -9 9 -20z m548 -57 c-14 -16 -31 -38 -37 -49 -6 -12 -23 -26 -38 -31
    l-28 -9 -49 27 -49 27 34 6 c19 4 43 11 54 17 16 7 114 35 134 38 3 1 -7 -11
    -21 -26z m202 -42 c47 -28 92 -55 100 -59 l15 -9 0 -436 0 -436 -20 -20 c-11
    -11 -67 -34 -125 -51 -58 -17 -114 -35 -125 -40 -11 -5 -110 -35 -220 -66
    -110 -30 -216 -62 -235 -69 -19 -8 -118 -37 -220 -65 -102 -28 -219 -61 -260
    -74 -117 -37 -135 -39 -154 -21 l-16 16 0 427 0 427 19 30 c10 17 67 81 127
    144 l110 114 33 0 c23 0 39 -7 54 -27 l22 -27 45 16 c25 8 131 39 235 69 105
    30 232 67 284 82 l93 28 23 36 c39 61 74 83 110 70 11 -4 58 -31 105 -59z
    m-750 29 c-24 -15 3 -33 48 -33 49 0 65 10 59 34 -6 24 15 25 54 2 37 -22 36
    -29 -3 -54 l-33 -20 -76 3 c-60 2 -82 8 -99 23 l-21 19 33 28 c22 17 36 23 43
    17 6 -6 5 -13 -5 -19z m355 -47 c30 -15 55 -30 55 -33 0 -6 -92 -34 -375 -116
    -173 -51 -169 -50 -195 -24 -23 23 -79 27 -109 8 -15 -9 -26 -9 -48 2 l-28 13
    80 24 c44 13 107 33 140 43 l59 20 26 -24 c49 -47 181 -39 206 13 7 12 17 28
    23 34 6 6 11 19 11 29 0 11 12 21 33 27 50 14 63 13 122 -16z m-175 -22 c0
    -31 -170 -48 -219 -22 -33 18 -19 24 26 12 62 -18 130 -11 191 18 1 0 2 -3 2
    -8z m-40 -53 c0 -7 -64 -28 -85 -28 -21 0 -85 21 -85 28 0 4 38 7 85 7 47 0
    85 -3 85 -7z m-475 -100 c30 -13 31 -20 6 -42 l-18 -17 -38 22 -37 22 18 14
    c22 16 36 16 69 1z m-75 -48 c21 -11 41 -23 44 -28 3 -5 -24 -37 -60 -73 -36
    -35 -73 -77 -82 -94 l-17 -30 -3 -390 c-1 -214 -3 -409 -5 -431 l-2 -41 -90
    52 c-49 29 -103 64 -119 76 l-29 23 6 405 c3 222 10 407 14 411 4 4 49 -16 98
    -46 85 -50 123 -66 110 -45 -5 9 -36 28 -148 91 l-48 27 15 12 c8 7 73 32 143
    56 70 23 129 43 131 44 1 1 20 -8 42 -19z"/>
    <path d="M5211 4046 c-30 -32 -27 -90 6 -94 44 -6 83 74 51 106 -18 18 -32 15
    -57 -12z m47 -32 c-4 -32 -32 -54 -48 -38 -17 17 5 64 30 64 l21 0 -3 -26z"/>
    <path d="M4366 3804 c-40 -40 -32 -94 14 -94 18 0 29 4 25 10 -3 6 -15 10 -26
    10 -35 0 -22 54 14 58 15 2 27 -2 27 -8 0 -6 5 -8 10 -5 16 10 -8 45 -30 45
    -10 0 -26 -7 -34 -16z"/>
    <path d="M3803 4100 c-24 -10 -30 -25 -14 -34 5 -3 11 1 15 9 8 21 36 19 36
    -3 0 -10 -13 -31 -30 -47 -42 -40 -39 -55 10 -55 22 0 40 5 40 10 0 6 -15 10
    -32 10 l-33 0 33 31 c34 31 40 57 20 77 -14 14 -15 14 -45 2z"/>
    <path d="M3890 4100 c0 -5 14 -10 30 -10 35 0 35 -1 15 -40 -25 -48 -35 -80
    -26 -80 8 0 61 113 61 131 0 5 -18 9 -40 9 -22 0 -40 -4 -40 -10z"/>
    <path d="M7440 4082 c0 -33 -24 -45 -57 -29 -43 22 -73 30 -73 19 0 -14 83
    -44 111 -40 24 3 46 53 28 64 -5 3 -9 -4 -9 -14z"/>
    <path d="M7548 4095 c-3 -4 -3 -34 0 -67 l5 -61 -64 6 c-69 6 -242 63 -234 77
    3 4 -4 6 -16 3 -12 -3 -17 -9 -11 -15 17 -17 208 -78 265 -84 l57 -7 0 -40 0
    -40 -77 6 c-94 8 -144 24 -286 94 -132 65 -159 66 -44 2 99 -56 207 -96 279
    -104 92 -11 98 -13 98 -40 0 -14 6 -42 14 -62 l15 -38 5 -645 c3 -355 5 -646
    5 -647 1 -2 6 -3 11 -3 7 0 10 271 11 808 0 444 1 818 2 832 2 23 -21 39 -35
    25z m-1 -287 c-2 -13 -4 -5 -4 17 -1 22 1 32 4 23 2 -10 2 -28 0 -40z"/>
    <path d="M7786 3969 c-56 -15 -106 -84 -106 -144 0 -118 148 -132 196 -18 41
    96 -8 184 -90 162z m61 -31 c46 -50 37 -115 -23 -168 -58 -50 -108 -33 -120
    42 -7 42 13 85 56 122 39 32 60 33 87 4z"/>
    <path d="M3770 3915 l0 -34 30 6 30 6 0 -27 c0 -31 -24 -44 -47 -25 l-16 14 5
    -15 c6 -19 45 -25 64 -10 30 25 11 80 -28 80 -10 0 -18 5 -18 10 0 6 11 10 25
    10 14 0 25 5 25 10 0 6 -16 10 -35 10 l-35 0 0 -35z"/>
    <path d="M3877 3943 c-4 -3 -7 -19 -7 -35 l0 -28 32 2 33 3 3 -21 c4 -26 -24
    -40 -45 -23 -15 13 -28 6 -18 -10 3 -6 19 -11 35 -11 57 0 65 75 9 87 -33 6
    -29 23 7 23 13 0 24 5 24 10 0 11 -63 14 -73 3z"/>
    <path d="M3485 3880 c-21 -41 -19 -55 15 -84 63 -53 134 -54 155 -2 l13 31
    -13 26 c-17 32 -71 59 -119 59 l-35 0 -16 -30z m98 6 c62 -26 89 -86 38 -86
    -72 0 -159 79 -103 93 29 8 32 7 65 -7z m6 -101 l46 -15 -44 4 c-40 4 -101 45
    -101 67 0 5 12 -3 27 -17 14 -13 47 -31 72 -39z"/>
    <path d="M3534 3868 c-10 -15 34 -50 59 -46 27 4 32 22 12 42 -19 19 -61 21
    -71 4z m52 -13 l19 -16 -24 3 c-14 2 -26 9 -29 16 -5 17 10 15 34 -3z"/>
    <path d="M2286 3877 c-14 -10 -17 -22 -13 -43 3 -16 7 -38 9 -49 l3 -20 -35
    -3 c-57 -4 -80 -21 -80 -57 0 -40 30 -70 62 -62 13 3 60 15 106 27 45 11 86
    18 91 16 16 -10 61 35 61 60 0 49 -62 82 -90 49 -16 -20 -30 -3 -30 36 0 47
    -47 73 -84 46z m64 -37 c0 -13 -46 -24 -62 -14 -9 6 -4 11 17 15 45 10 45 10
    45 -1z m10 -54 c0 -8 3 -21 6 -30 4 -10 1 -16 -8 -16 -19 0 -60 39 -53 51 10
    15 55 11 55 -5z m105 -26 c7 -23 -2 -43 -16 -35 -12 8 -12 55 0 55 5 0 12 -9
    16 -20z m-39 -15 c8 -33 10 -32 -75 -50 -81 -17 -87 -16 -93 20 -7 33 22 42
    68 20 38 -18 54 -13 54 16 0 30 38 25 46 -6z m-186 -24 c12 -24 13 -51 1 -51
    -7 0 -31 51 -31 66 0 12 21 1 30 -15z m-30 -38 c0 -7 -4 -13 -10 -13 -5 0 -10
    12 -10 28 0 21 2 24 10 12 5 -8 10 -21 10 -27z"/>
    <path d="M390 3740 c0 -5 5 -10 10 -10 15 0 13 -97 -2 -103 -7 -3 3 -6 22 -6
    l35 0 -17 10 c-14 8 -18 23 -18 64 0 42 -4 55 -15 55 -8 0 -15 -4 -15 -10z"/>
    <path d="M485 3740 c-10 -17 3 -26 17 -12 7 7 18 12 25 12 24 0 13 -36 -22
    -70 -45 -44 -44 -50 10 -50 25 0 45 5 45 10 0 6 -15 10 -32 10 l-33 0 33 31
    c43 40 41 73 -5 77 -17 2 -34 -2 -38 -8z"/>
    <path d="M590 3731 c-33 -63 22 -145 68 -99 13 13 16 75 6 102 -9 23 -61 21
    -74 -3z m60 -6 c15 -18 5 -81 -14 -88 -19 -8 -36 13 -36 44 0 55 23 76 50 44z"/>
    <path d="M2025 3700 c-80 -32 -102 -55 -135 -150 -50 -143 -122 -228 -227
    -272 -29 -12 -53 -25 -53 -30 0 -32 117 30 177 94 47 50 91 129 146 259 23 55
    177 129 177 85 0 -7 -24 -24 -54 -36 -65 -26 -88 -50 -109 -112 -27 -81 -93
    -182 -162 -246 l-66 -62 -59 -17 c-63 -17 -83 -37 -27 -26 125 24 255 157 323
    329 35 89 36 90 105 115 68 25 73 31 65 65 -8 30 -32 31 -101 4z"/>
    <path d="M6190 3640 c0 -5 5 -10 10 -10 6 0 10 -20 10 -45 0 -25 -4 -45 -10
    -45 -5 0 -10 -4 -10 -10 0 -5 11 -10 25 -10 14 0 25 5 25 10 0 6 -4 10 -10 10
    -5 0 -10 25 -10 55 0 42 -3 55 -15 55 -8 0 -15 -4 -15 -10z"/>
    <path d="M6285 3639 c-4 -6 3 -9 21 -7 33 4 46 -21 15 -29 -27 -7 -27 -23 -1
    -23 14 0 20 -7 20 -21 l0 -22 -36 6 -36 6 13 -15 c29 -36 96 6 72 45 -7 12 -8
    22 -2 28 5 5 7 17 3 26 -7 19 -59 24 -69 6z"/>
    <path d="M6390 3615 c0 -36 8 -43 27 -24 16 16 33 2 33 -28 l0 -25 -31 6 c-22
    4 -29 2 -27 -7 6 -17 46 -21 64 -7 7 7 14 26 14 41 l0 30 -30 6 c-35 7 -35 24
    1 34 l24 7 -37 1 -38 1 0 -35z"/>
    <path d="M3594 3615 l-19 -15 38 6 c40 7 55 -13 17 -23 -26 -7 -26 -19 1 -26
    37 -10 19 -43 -21 -39 -26 2 -32 0 -23 -9 16 -16 63 -15 73 1 5 8 7 34 5 58
    -5 60 -31 77 -71 47z"/>
    <path d="M3700 3615 c-7 -9 -9 -19 -5 -23 4 -4 10 -1 12 6 6 15 39 16 48 2 4
    -6 -10 -25 -29 -42 -49 -43 -47 -58 7 -57 29 2 34 3 15 6 -34 5 -35 13 -3 43
    40 38 30 80 -20 80 -7 0 -18 -7 -25 -15z"/>
    <path d="M2240 3549 c-11 -8 -12 -12 -2 -16 15 -6 17 -93 1 -93 -5 0 -7 -4 -4
    -10 3 -5 14 -10 24 -10 l17 0 -4 63 c-5 69 -10 81 -32 66z"/>
    <path d="M2337 3542 c-10 -11 -17 -36 -17 -61 l0 -41 25 -12 25 -11 20 18 c24
    22 26 72 4 103 -18 27 -36 28 -57 4z m41 -11 c8 -5 12 -23 10 -47 l-3 -39 -20
    0 c-22 0 -31 30 -21 71 7 26 13 29 34 15z"/>
    <path d="M2432 3548 c3 -7 16 -14 31 -16 l26 -3 -9 -17 c-32 -59 -40 -82 -28
    -82 13 0 58 93 58 118 0 7 -15 12 -41 12 -28 0 -39 -4 -37 -12z"/>
    <path d="M5954 3550 c-53 -21 -89 -111 -61 -153 22 -34 79 -61 111 -53 l26 6
    -2 42 -3 42 20 4 20 4 -12 -13 c-19 -20 -16 -68 5 -76 9 -3 29 -15 44 -25 25
    -17 88 -25 101 -12 13 14 -32 79 -65 93 -41 18 -58 35 -58 56 0 30 -20 55 -60
    75 -22 11 -41 20 -42 19 -2 0 -13 -4 -24 -9z m2 -48 c-14 -16 -29 -46 -33 -66
    -4 -24 -9 -34 -16 -27 -16 16 2 79 30 101 38 30 51 24 19 -8z m98 -14 c15 -24
    0 -34 -29 -18 l-25 13 -20 -18 c-26 -23 -22 -57 8 -70 32 -14 28 -37 -5 -33
    -55 6 -62 90 -11 131 26 21 67 19 82 -5z m-46 -53 c-8 -17 -15 -22 -21 -16 -7
    7 -6 15 3 26 20 24 31 18 18 -10z m82 -23 c0 -15 -28 -47 -35 -40 -11 11 5 48
    21 48 8 0 14 -4 14 -8z m27 -42 c-6 -11 -15 -20 -19 -20 -12 0 -9 25 4 38 17
    17 29 4 15 -18z m53 -4 c0 -2 3 -11 6 -20 5 -12 0 -16 -18 -16 -30 0 -38 7
    -31 26 4 12 43 21 43 10z"/>
    <path d="M1424 3355 c-10 -8 -33 -15 -51 -15 -59 0 -97 -85 -55 -123 10 -10
    22 -17 27 -17 4 0 23 -15 41 -34 61 -63 142 -54 178 21 35 74 11 155 -52 172
    -50 14 -65 14 -88 -4z m0 -42 l-26 -38 4 -52 3 -51 -14 11 c-9 8 -12 27 -9 66
    l5 54 27 24 c37 32 39 29 10 -14z m118 10 c26 -23 25 -111 -2 -145 -54 -69
    -138 -16 -123 76 11 71 80 110 125 69z m-162 -7 c0 -1 -5 -18 -11 -37 -6 -19
    -13 -40 -15 -48 l-4 -13 -15 12 c-29 24 -8 90 27 90 10 0 18 -2 18 -4z"/>
    <path d="M1472 3284 c-38 -26 -22 -94 22 -94 29 0 48 74 24 98 -15 15 -19 15
    -46 -4z m38 -53 c-6 -12 -17 -20 -23 -18 -17 5 -21 36 -6 53 l12 15 15 -14
    c11 -12 12 -19 2 -36z"/>
    <path d="M2587 3328 c-19 -24 -48 -63 -64 -88 -17 -25 -60 -85 -97 -134 -73
    -98 -72 -95 -52 -121 l14 -20 154 -7 c84 -3 215 -7 291 -7 l138 -1 49 46 c86
    80 77 96 -113 210 -54 33 -137 83 -185 111 -48 29 -90 53 -94 53 -4 0 -22 -19
    -41 -42z m124 -41 c37 -28 105 -80 153 -115 l86 -62 0 -75 0 -74 -27 4 c-16 2
    -138 7 -272 10 -231 5 -271 10 -271 36 0 15 241 329 253 329 7 0 42 -24 78
    -53z m300 -169 l24 -19 -25 7 c-24 7 -200 120 -200 129 0 6 173 -94 201 -117z
    m17 -39 c12 -5 22 -14 22 -20 0 -10 -71 -82 -75 -76 -1 1 -5 28 -9 60 l-6 58
    22 -7 c13 -3 33 -10 46 -15z"/>
    <path d="M6621 3344 c-41 -13 -79 -30 -83 -38 -13 -23 -590 -196 -655 -196
    -19 0 -68 -10 -109 -22 l-74 -21 0 -98 c0 -54 4 -100 9 -103 5 -3 33 3 62 13
    30 10 87 21 128 25 41 3 79 10 85 15 6 5 24 11 39 13 l29 3 -1 -300 c-1 -164
    -3 -301 -5 -303 -2 -1 -48 24 -102 58 -54 33 -102 60 -106 60 -23 0 -3 -23 40
    -44 81 -43 81 -41 -9 -71 -46 -15 -92 -36 -102 -47 l-18 -21 7 -76 c7 -91 9
    -93 153 -175 l103 -59 171 52 c94 28 174 56 177 61 8 13 20 470 20 760 l0 206
    73 19 c39 11 82 30 94 41 12 12 47 30 77 39 31 10 63 23 72 30 l17 12 -2 89
    c-1 49 -5 92 -9 95 -4 3 -40 -4 -81 -17z m67 -85 l-3 -82 -45 -13 c-71 -22
    -70 -23 -70 66 l0 79 48 15 c76 23 73 26 70 -65z m-165 -76 c3 -43 3 -81 -1
    -84 -4 -4 -43 -17 -87 -29 -44 -12 -125 -36 -180 -52 -198 -60 -299 -88 -312
    -88 -10 0 -13 20 -13 79 l0 79 103 33 c123 39 458 137 473 138 7 1 13 -29 17
    -76z m24 -35 c-2 -13 -4 -3 -4 22 0 25 2 35 4 23 2 -13 2 -33 0 -45z m-637
    -143 l0 -85 -27 0 -28 0 -3 85 -3 85 31 0 30 0 0 -85z m-80 -9 l0 -83 -29 -6
    c-16 -3 -40 -9 -55 -13 l-26 -6 0 84 0 85 43 10 c70 17 67 21 67 -71z m535
    -163 c-2 -109 -7 -322 -10 -472 -3 -151 -7 -276 -8 -277 -5 -6 -280 -95 -282
    -92 -2 2 0 217 3 478 l7 474 115 33 c63 19 126 38 140 43 14 4 29 9 33 9 4 1
    5 -88 2 -196z m-316 -673 c-2 -141 -9 -180 -30 -180 -21 0 -221 123 -235 145
    -10 16 -14 43 -12 91 l3 68 93 27 c51 15 96 30 99 33 3 3 23 -5 45 -17 l39
    -22 -2 -145z"/>
    <path d="M6600 3284 c-15 -39 -12 -94 5 -100 28 -11 45 16 45 72 l0 54 -20 0
    c-13 0 -24 -10 -30 -26z m40 -29 c0 -30 -10 -55 -21 -55 -10 0 -12 73 -3 83
    12 11 24 -3 24 -28z"/>
    <path d="M6452 3188 c-15 -15 -16 -54 -1 -64 6 -3 15 -2 21 4 6 6 6 12 -1 16
    -14 9 -14 36 -1 36 6 0 10 -7 10 -15 0 -8 5 -15 11 -15 16 0 6 44 -11 48 -9 1
    -21 -3 -28 -10z"/>
    <path d="M5977 3054 c-13 -13 -7 -55 8 -60 21 -9 47 15 43 40 -3 21 -37 34
    -51 20z m33 -23 c0 -12 -20 -25 -27 -18 -7 7 6 27 18 27 5 0 9 -4 9 -9z"/>
    <path d="M5761 3046 c-7 -8 -11 -36 -9 -68 l3 -53 19 0 c11 0 21 5 23 11 2 7
    -4 11 -14 10 -20 -1 -29 30 -19 70 10 36 24 29 35 -18 l10 -43 -2 50 c-2 53
    -22 71 -46 41z"/>
    <path d="M6181 2254 c-23 -30 -27 -64 -9 -82 15 -15 54 -16 63 -2 3 6 -1 10
    -10 10 -21 0 -16 42 5 47 9 2 10 1 3 -3 -21 -9 -15 -22 17 -39 40 -21 60 -19
    31 4 -14 11 -21 23 -16 30 4 7 4 23 1 37 -9 34 -57 33 -85 -2z m65 4 c4 -7 3
    -8 -4 -4 -18 11 -54 -32 -46 -56 4 -14 2 -18 -5 -14 -19 12 -12 54 11 70 27
    19 35 20 44 4z"/>
    <path d="M5980 2191 c-8 -4 -54 -19 -102 -32 -49 -13 -88 -27 -88 -32 0 -5 8
    -6 18 -3 9 3 46 12 82 21 126 31 140 36 140 45 0 12 -29 12 -50 1z"/>
    <path d="M1338 3025 c-3 -3 -3 -28 0 -56 3 -37 1 -54 -9 -60 l-13 -8 17 -7 c9
    -3 25 -3 35 1 11 5 13 9 5 12 -9 3 -13 26 -13 64 0 53 -7 69 -22 54z"/>
    <path d="M1459 3013 c-8 -10 -22 -33 -32 -50 l-18 -33 25 0 c14 0 29 -8 35
    -17 15 -28 24 -8 22 49 -2 61 -11 76 -32 51z m11 -48 c0 -16 -6 -25 -15 -25
    -18 0 -20 21 -3 38 17 17 18 16 18 -13z"/>
    <path d="M1535 3010 c-10 -11 -13 -20 -7 -20 6 0 14 5 17 10 3 6 13 10 21 10
    24 0 16 -32 -17 -66 -17 -18 -28 -37 -25 -43 9 -14 76 -15 76 -1 0 6 -15 10
    -32 10 l-33 0 33 31 c34 31 40 57 20 77 -17 17 -32 15 -53 -8z"/>
    <path d="M6513 2908 c-19 -23 -11 -112 10 -116 48 -9 87 25 60 52 -5 4 -8 22
    -8 39 l0 32 -26 3 c-14 2 -30 -3 -36 -10z m45 -21 c2 -10 -3 -17 -12 -17 -18
    0 -29 16 -21 31 9 14 29 6 33 -14z m2 -68 c0 -12 -7 -19 -19 -19 -22 0 -34 23
    -19 38 15 15 38 3 38 -19z"/>
    <path d="M6625 2910 c-3 -5 -1 -10 4 -10 16 0 14 -97 -1 -103 -7 -3 1 -5 17
    -5 17 0 24 2 18 5 -9 3 -13 26 -13 64 0 54 -10 74 -25 49z"/>
    <path d="M2276 2844 c-32 -32 -12 -124 27 -124 45 0 64 97 25 124 -28 20 -33
    20 -52 0z m44 -25 c14 -25 3 -79 -16 -79 -24 0 -39 46 -26 75 14 30 28 32 42
    4z"/>
    <path d="M3167 2849 c-23 -14 -23 -33 1 -20 21 11 48 -2 38 -18 -4 -6 -14 -11
    -22 -11 -21 0 -17 -17 6 -23 11 -3 20 -13 20 -22 l0 -18 -35 6 c-35 6 -48 -6
    -19 -17 44 -17 87 10 67 42 -6 10 -7 26 -2 39 11 31 -24 58 -54 42z"/>
    <path d="M2175 2785 l0 -65 30 0 c22 0 26 3 17 12 -7 7 -12 36 -12 65 l0 53
    -17 0 -18 0 0 -65z"/>
    <path d="M2790 2843 c-58 -23 -69 -91 -22 -136 l28 -27 50 0 c67 0 94 27 94
    92 0 29 -6 50 -16 59 -16 13 -109 22 -134 12z m120 -29 l14 -14 -16 -16 c-22
    -22 -114 -25 -133 -4 -41 45 89 78 135 34z m1 -87 c-8 -8 -11 -5 -11 9 0 27
    14 41 18 19 2 -9 -1 -22 -7 -28z m-123 -3 c-10 -10 -28 6 -28 24 l0 16 17 -17
    c9 -9 14 -19 11 -23z m90 -1 l3 -23 -40 0 -41 0 0 18 c0 27 10 33 45 30 22 -2
    31 -9 33 -25z"/>
    <path d="M2801 2808 c-2 -33 70 -35 83 -3 3 8 1 15 -4 15 -6 0 -10 -4 -10 -10
    0 -15 -57 -12 -63 3 -3 7 -6 6 -6 -5z"/>
    <path d="M3052 2838 c-19 -19 -14 -33 6 -16 19 17 42 13 42 -6 0 -7 -16 -27
    -35 -46 -19 -18 -32 -37 -29 -42 7 -12 84 -10 84 2 0 6 -15 10 -32 10 l-33 0
    33 31 c17 16 32 36 32 43 0 17 -21 36 -40 36 -9 0 -21 -5 -28 -12z"/>
    <path d="M5550 2697 c-14 -7 -33 -29 -44 -50 -38 -78 5 -143 78 -117 l31 11
    58 -41 c53 -36 127 -56 127 -33 0 21 -26 73 -36 73 -6 0 -14 7 -18 15 -3 8
    -12 15 -21 15 -8 0 -15 3 -15 8 0 4 -13 13 -30 20 -23 11 -30 20 -30 43 0 55
    -48 82 -100 56z m79 -29 c7 -18 5 -24 -9 -26 -10 -2 -28 -14 -41 -28 l-23 -25
    12 -19 c16 -26 15 -30 -7 -30 -44 0 -64 51 -40 104 21 46 94 62 108 24z m1
    -52 c0 -2 -7 -16 -15 -32 l-14 -28 -7 17 c-8 23 2 47 21 47 8 0 15 -2 15 -4z
    m19 -48 c-17 -34 -19 -34 -19 -5 0 18 5 27 15 27 l16 0 -12 -22z m39 -18 c-15
    -23 -28 -26 -28 -7 0 17 10 27 27 27 l13 0 -12 -20z m42 -7 c-1 -11 -26 -43
    -34 -43 -8 0 -8 35 1 43 9 9 33 9 33 0z m43 -43 c4 -16 0 -20 -19 -20 -17 0
    -24 6 -24 20 0 13 7 20 19 20 10 0 21 -9 24 -20z"/>
    <path d="M4701 2661 c-31 -31 -6 -78 35 -70 21 3 26 -2 14 -16 -7 -8 -24 -15
    -39 -15 -21 -1 -23 -3 -10 -10 56 -33 107 62 59 110 -25 25 -35 25 -59 1z m54
    -26 c0 -22 -31 -33 -47 -17 -17 17 -1 44 24 40 15 -2 23 -10 23 -23z"/>
    <path d="M4805 2660 c-20 -23 -14 -26 15 -8 14 9 22 10 31 1 8 -8 1 -21 -25
    -51 -20 -22 -36 -45 -36 -51 0 -14 76 -15 85 -1 4 6 -9 10 -32 10 l-38 0 38
    35 c41 38 46 59 18 75 -27 14 -35 13 -56 -10z"/>
    <path d="M8136 2640 c-55 -35 -63 -81 -19 -102 15 -7 29 -21 31 -31 5 -23 -15
    -22 -23 2 -3 11 -13 22 -21 25 -16 6 -64 -20 -64 -35 0 -5 -7 -9 -15 -9 -9 0
    -25 -9 -37 -20 -12 -11 -17 -20 -11 -20 14 0 43 -28 43 -41 0 -17 -25 -9 -38
    11 -25 40 -72 6 -72 -51 0 -16 80 -10 86 6 4 8 10 12 15 9 5 -3 12 2 15 10 3
    9 10 13 15 10 5 -3 12 2 15 10 3 9 11 16 16 16 5 0 23 9 39 20 22 16 33 19 48
    10 30 -15 56 -12 86 12 l27 21 -5 43 c-5 45 -34 91 -70 111 -27 15 -26 15 -61
    -7z m62 -16 c40 -28 74 -134 42 -134 -5 0 -10 11 -10 24 0 14 -16 45 -35 70
    -46 60 -45 74 3 40z m-18 -46 c21 -23 43 -85 34 -100 -7 -11 -41 -10 -48 1 -3
    5 1 11 9 15 21 8 19 50 -5 71 -15 14 -23 15 -33 6 -15 -12 -27 -5 -27 16 0 21
    47 15 70 -9z m-10 -39 c15 -28 4 -38 -15 -13 -17 22 -19 34 -5 34 5 0 14 -9
    20 -21z m-60 -38 c21 -40 1 -44 -24 -6 l-16 25 14 0 c9 0 20 -9 26 -19z m-36
    -17 c9 -22 7 -44 -2 -44 -12 0 -32 46 -25 54 11 10 21 7 27 -10z m-30 -37 c15
    -24 -3 -35 -20 -13 -8 11 -14 24 -14 29 0 13 22 3 34 -16z m-74 -47 l11 -20
    -25 0 c-19 0 -23 4 -19 20 3 11 9 20 14 20 4 0 13 -9 19 -20z"/>
    <path d="M7705 2640 c-4 -6 7 -10 24 -10 36 0 38 -8 11 -60 -21 -41 -25 -60
    -12 -60 8 0 52 108 52 128 0 15 -66 16 -75 2z"/>
    <path d="M7815 2640 c-3 -6 4 -10 18 -10 36 0 38 -9 12 -61 -28 -54 -29 -59
    -16 -59 13 0 63 111 57 127 -6 15 -62 18 -71 3z"/>
    <path d="M2812 2608 c-7 -7 -12 -44 -12 -95 l0 -82 -22 -12 c-30 -16 -38 -28
    -38 -61 0 -76 77 -110 165 -74 l35 15 0 51 0 50 -25 12 -25 11 0 88 0 88 -19
    11 c-26 13 -44 13 -59 -2z m44 -30 c-20 -11 -44 1 -25 12 6 5 19 6 27 3 l14
    -6 -16 -9z m14 -28 c0 -5 -13 -10 -30 -10 -16 0 -30 5 -30 10 0 6 14 10 30 10
    17 0 30 -4 30 -10z m-2 -42 c-3 -7 -15 -13 -28 -13 -13 0 -25 6 -27 13 -3 8 6
    12 27 12 21 0 30 -4 28 -12z m2 -42 c0 -19 -37 -27 -50 -11 -9 11 -5 14 17 18
    15 2 29 5 31 6 1 0 2 -5 2 -13z m0 -45 c0 -17 -34 -22 -49 -6 l-15 15 32 0
    c18 0 32 -4 32 -9z m-52 -68 c13 -10 14 -12 3 -13 -18 0 -51 29 -51 46 0 21
    25 22 28 0 2 -11 11 -26 20 -33z m97 36 c4 -5 -1 -19 -11 -30 -18 -20 -44 -26
    -44 -9 0 6 7 10 15 10 8 0 15 9 15 20 0 21 15 27 25 9z m-45 -9 c0 -5 -11 -10
    -24 -10 -14 0 -28 5 -31 10 -4 6 7 10 24 10 17 0 31 -4 31 -10z m-82 -59 c3
    -8 -1 -12 -9 -9 -7 2 -15 10 -17 17 -3 8 1 12 9 9 7 -2 15 -10 17 -17z m100
    -13 c-7 -20 -78 -23 -78 -4 0 12 11 16 41 16 28 0 39 -4 37 -12z"/>
    <path d="M3070 2570 c-12 -8 -12 -10 -1 -10 10 0 12 -14 9 -60 l-4 -60 16 0
    16 0 -4 63 c-5 69 -10 81 -32 67z"/>
    <path d="M3167 2573 c-4 -3 -7 -19 -7 -34 l0 -28 30 6 30 6 0 -27 c0 -30 -23
    -44 -44 -27 -9 8 -16 8 -20 2 -9 -14 31 -33 54 -26 43 14 35 91 -9 89 -11 0
    -21 5 -21 13 0 7 11 13 26 13 14 0 23 4 19 10 -7 11 -48 14 -58 3z"/>
    <path d="M7484 2422 c-6 -4 -51 -65 -100 -137 -50 -71 -107 -154 -128 -184
    l-38 -54 7 -156 7 -156 68 -40 c38 -22 66 -43 64 -47 -3 -5 -31 -27 -62 -50
    -31 -23 -59 -44 -62 -47 -3 -3 -17 -17 -32 -30 l-27 -23 -23 16 c-25 17 -38
    20 -38 8 0 -4 13 -16 30 -25 l30 -18 49 38 c26 21 87 69 135 107 l86 68 25
    -16 c20 -13 25 -14 25 -3 0 8 -11 19 -24 27 l-24 13 -31 -22 -31 -22 -69 38
    -69 37 -6 36 c-3 19 -6 87 -5 150 l0 115 122 180 c67 99 129 181 138 183 9 2
    31 -6 49 -17 l33 -20 -32 -13 -32 -13 1 -377 1 -378 -36 21 c-20 12 -35 16
    -35 10 0 -6 16 -19 35 -28 l35 -17 0 -51 0 -52 61 -34 c33 -19 77 -44 97 -56
    51 -30 70 -28 127 14 62 46 43 56 -22 12 l-47 -33 -84 45 c-98 52 -104 58
    -107 107 -9 193 -16 782 -9 782 5 0 40 -18 78 -40 89 -52 109 -57 151 -34 19
    10 36 16 38 14 37 -43 227 -285 246 -314 l26 -39 3 -151 2 -151 -102 -65 c-57
    -36 -111 -64 -120 -63 -31 5 -19 -11 30 -40 76 -45 113 -68 175 -109 32 -21
    63 -38 68 -38 20 0 6 16 -34 39 -23 13 -80 48 -126 78 l-84 55 106 69 107 70
    0 140 c0 101 -4 150 -15 175 -13 32 -173 244 -251 332 l-32 36 -41 -19 -42
    -19 -55 27 -54 27 0 44 0 44 -44 26 c-46 27 -63 31 -82 18z m106 -92 c0 -23
    -13 -26 -29 -6 -9 11 -9 15 1 19 23 10 28 7 28 -13z"/>
    <path d="M8498 2402 c-7 -19 -22 -32 -42 -38 -17 -5 -37 -21 -46 -37 l-15 -28
    17 -13 17 -13 -31 -37 -31 -38 6 -122 6 -123 -35 -16 -34 -17 0 14 c0 17 -54
    41 -70 31 -7 -4 -10 -18 -7 -31 3 -18 -3 -30 -23 -44 -19 -13 -26 -26 -23 -38
    3 -13 -7 -27 -31 -46 l-36 -27 0 -62 c0 -75 0 -75 75 -118 l60 -35 3 -47 3
    -47 -35 -21 -36 -21 0 -154 c0 -169 0 -168 58 -132 37 23 30 38 -8 18 -12 -6
    -24 -9 -28 -6 -3 4 -7 57 -10 119 l-4 112 16 -21 c8 -12 29 -27 46 -34 l30
    -12 0 -47 0 -47 108 -61 107 -62 115 -3 116 -3 93 69 92 69 -6 26 c-3 14 -8
    33 -11 42 -3 11 11 27 46 49 72 46 68 71 -17 114 l-53 26 0 29 c0 36 -12 49
    -78 81 l-51 25 -1 71 c0 54 -4 73 -15 78 l-15 5 0 221 0 220 -20 20 c-11 11
    -24 20 -30 20 -5 0 -10 16 -10 35 0 37 -31 75 -61 75 -12 0 -19 9 -21 28 l-3
    27 -33 3 -33 3 -11 -29z m62 -11 l10 -20 -20 -6 c-33 -11 -59 25 -27 38 21 9
    26 7 37 -12z m-70 -61 c0 -13 9 -22 26 -26 31 -8 74 10 74 31 0 8 6 15 13 15
    14 0 37 -19 37 -31 0 -14 -70 -39 -111 -39 -25 0 -50 -7 -61 -17 -21 -19 -37
    -10 -19 11 9 11 8 15 -4 20 -20 7 -19 33 3 45 27 16 42 13 42 -9z m80 11 c2
    -1 -1 -6 -7 -12 -13 -13 -67 -3 -58 11 4 7 21 7 65 1z m70 -84 c0 -41 -28 -57
    -95 -57 l-45 0 0 29 0 29 53 6 c29 4 59 11 67 16 21 13 20 14 20 -23z m-160
    -47 c0 -22 -4 -40 -10 -40 -11 0 -14 63 -3 73 11 12 13 8 13 -33z m-30 -30 c0
    -21 6 -42 13 -47 21 -13 150 -6 191 11 21 9 39 16 41 16 1 0 5 -85 9 -190 3
    -104 9 -196 12 -203 7 -20 -44 -41 -62 -26 -20 16 -17 37 6 44 25 8 27 29 1
    22 -14 -3 -23 6 -40 39 l-21 44 -60 0 c-64 0 -127 20 -134 42 -3 7 -7 59 -11
    114 l-6 101 21 6 c16 4 21 13 20 34 -3 39 -1 45 10 38 6 -3 10 -24 10 -45z
    m245 33 c14 -37 -66 -73 -163 -73 -72 0 -65 23 9 31 58 6 88 18 109 43 17 21
    36 20 45 -1z m-285 -13 c0 -5 -4 -10 -10 -10 -5 0 -10 5 -10 10 0 6 5 10 10
    10 6 0 10 -4 10 -10z m-120 -275 c14 -17 4 -58 -13 -52 -14 4 -22 67 -9 67 5
    0 15 -7 22 -15z m230 -53 l71 -5 19 -40 c11 -23 20 -53 20 -68 0 -16 7 -32 15
    -36 11 -7 15 -35 17 -127 2 -68 7 -121 13 -123 6 -2 9 41 7 119 l-3 123 21 13
    c12 7 24 11 26 9 3 -2 7 -72 11 -155 l6 -152 14 18 14 17 -6 -47 c-4 -28 -2
    -49 5 -53 5 -3 10 -1 10 6 0 8 14 10 45 7 49 -6 49 -7 36 60 -5 24 -4 42 0 42
    24 0 120 -64 117 -78 -2 -8 -72 -61 -156 -118 l-152 -104 -41 0 c-33 0 -79 19
    -215 91 -193 100 -232 134 -185 159 l20 10 25 -25 c13 -13 26 -32 28 -42 2
    -13 14 -19 38 -21 44 -3 158 -61 163 -84 6 -22 53 -34 72 -18 9 8 15 30 15 56
    0 35 5 47 24 59 23 15 34 65 15 65 -5 0 -9 -10 -9 -23 0 -29 -52 -61 -86 -53
    -35 9 -30 22 26 58 l50 33 -1 90 c-1 50 -5 135 -9 190 l-7 100 -1 -186 -2
    -186 -40 -27 c-56 -37 -60 -35 -60 43 0 80 -10 161 -19 161 -4 0 -33 -16 -65
    -35 -73 -44 -81 -44 -177 6 l-79 41 0 54 0 53 15 -5 c21 -8 19 13 -2 25 l-18
    10 17 6 c10 4 24 0 33 -9 9 -9 21 -16 26 -16 5 0 9 -8 9 -18 0 -11 16 -26 43
    -39 l43 -21 57 35 57 35 0 44 0 44 -40 20 c-41 21 -49 37 -29 57 9 9 22 5 50
    -14 30 -19 56 -27 109 -31z m-184 -18 c-3 -8 -10 -14 -16 -14 -14 0 -12 57 3
    63 13 4 22 -26 13 -49z m-78 9 c15 -10 32 -25 39 -33 l12 -15 28 16 c17 9 37
    13 48 9 l20 -8 -27 -12 c-16 -7 -28 -17 -28 -21 0 -15 -38 -19 -64 -8 -14 7
    -26 20 -26 30 0 10 -9 23 -20 29 -11 6 -20 15 -20 20 0 14 7 13 38 -7z m-28
    -55 c0 -40 -24 -32 -28 10 -3 25 0 31 12 26 10 -4 16 -18 16 -36z m178 -25
    c-2 -21 -14 -34 -45 -51 l-43 -23 0 24 c0 17 11 32 38 50 48 33 54 33 50 0z
    m-108 -45 l0 -29 -18 10 c-28 15 -45 39 -38 56 l5 15 26 -12 c18 -8 25 -19 25
    -40z m179 -375 c5 -9 64 -33 81 -33 21 0 30 -43 10 -55 -5 -3 -10 1 -10 9 0 9
    -4 16 -10 16 -5 0 -10 -7 -10 -15 0 -19 -16 -20 -23 -1 -3 7 -39 32 -80 54
    l-75 41 -7 77 -7 77 23 19 c13 10 40 27 59 37 l35 19 6 -121 c3 -67 7 -123 8
    -124z m373 188 c4 -4 -17 -7 -47 -7 l-55 -1 0 34 0 35 48 -27 c26 -15 50 -31
    54 -34z m-537 -74 c-8 -59 -9 -62 -24 -52 -6 3 -11 33 -11 66 l0 60 21 -11 21
    -12 -7 -51z m512 27 c-3 -4 -14 -3 -24 0 l-17 7 14 9 c16 10 39 -4 27 -16z
    m-54 -4 c-3 -11 -9 -20 -14 -20 -5 0 -9 9 -9 20 0 11 6 20 14 20 9 0 12 -7 9
    -20z m-430 -67 l7 -63 -15 0 c-16 0 -19 29 -9 93 8 48 10 45 17 -30z m497 6
    l0 -39 -25 0 -25 0 0 39 c0 29 4 41 18 44 27 6 32 -1 32 -44z m-505 -149 c3
    -5 2 -10 -4 -10 -5 0 -13 5 -16 10 -3 6 -2 10 4 10 5 0 13 -4 16 -10z m561
    -17 l7 -26 -29 -24 c-16 -13 -58 -45 -93 -70 l-64 -46 -98 6 -98 6 -106 56
    c-113 61 -132 85 -65 85 61 0 158 -52 162 -86 5 -40 31 -52 70 -32 18 9 49 19
    69 21 22 3 71 30 130 71 52 36 97 66 101 66 4 0 11 -12 14 -27z m-316 -115 c0
    -11 -31 -10 -49 1 -7 5 -11 14 -7 20 8 12 56 -6 56 -21z"/>
    <path d="M8667 1436 c-9 -9 -16 -46 -20 -98 -6 -85 -3 -103 13 -79 10 17 62
    22 73 7 5 -6 6 29 2 79 -4 51 -11 93 -18 97 -18 12 -34 10 -50 -6z m38 -16 c3
    -5 -3 -10 -15 -10 -12 0 -18 5 -15 10 3 6 10 10 15 10 5 0 12 -4 15 -10z m17
    -75 l3 -45 -30 0 -30 0 -3 45 -2 45 29 0 29 0 4 -45z"/>
    <path d="M5410 2385 c-10 -12 -10 -18 0 -30 10 -12 10 -19 2 -27 -33 -33 7
    -69 57 -53 23 7 29 50 9 58 -10 3 -10 7 -1 17 17 19 -2 50 -31 50 -13 0 -29
    -7 -36 -15z m56 -6 c9 -15 -11 -33 -30 -26 -9 4 -13 13 -10 22 7 17 30 20 40
    4z m2 -70 c4 -19 -19 -31 -38 -19 -18 11 -4 42 17 38 10 -2 19 -10 21 -19z"/>
    <path d="M5538 2393 c18 -2 30 -8 28 -12 -15 -23 -44 -111 -38 -111 8 0 62
    104 62 120 0 6 -19 9 -42 8 l-43 -1 33 -4z"/>
    <path d="M7590 2172 c0 -10 5 -23 12 -30 15 -15 38 -16 38 -2 0 6 -7 10 -15
    10 -8 0 -15 9 -15 20 0 11 -4 20 -10 20 -5 0 -10 -8 -10 -18z"/>
    <path d="M7723 2083 c4 -54 7 -225 7 -380 0 -208 3 -283 12 -283 8 0 10 81 5
    323 -4 177 -7 348 -7 380 0 36 -4 57 -12 57 -8 0 -9 -27 -5 -97z"/>
    <path d="M8835 2011 c-3 -6 7 -9 21 -8 33 2 45 -22 15 -30 -27 -7 -27 -19 0
    -26 14 -4 19 -12 17 -24 -4 -19 -19 -21 -53 -7 l-20 8 14 -18 c31 -37 100 2
    74 43 -7 12 -8 22 -2 28 17 17 -2 43 -31 43 -16 0 -31 -4 -35 -9z"/>
    <path d="M8944 2005 c-4 -8 -3 -22 0 -30 3 -9 0 -24 -6 -35 -21 -34 20 -62 66
    -44 18 7 22 49 6 59 -8 5 -7 11 1 21 6 7 9 21 5 29 -7 20 -65 20 -72 0z m51
    -15 c0 -22 -29 -18 -33 3 -3 14 1 18 15 15 10 -2 18 -10 18 -18z m4 -54 c9
    -10 8 -16 -4 -26 l-16 -13 -16 15 c-16 17 -10 38 11 38 8 0 19 -6 25 -14z"/>
    <path d="M6777 1993 l31 -4 -24 -55 c-27 -61 -28 -64 -15 -64 5 0 14 12 19 28
    6 15 17 44 26 65 l16 37 -42 -2 -43 -1 32 -4z"/>
    <path d="M6860 1986 c-8 -10 -8 -16 -2 -16 6 0 14 5 17 10 3 6 13 10 21 10 25
    0 15 -35 -21 -70 -46 -44 -44 -50 13 -48 36 1 39 2 15 5 -41 5 -41 13 -2 42
    39 29 38 74 -2 79 -14 2 -31 -4 -39 -12z"/>
    <path d="M6794 1787 c-69 -21 -91 -124 -36 -167 28 -23 34 -24 83 -10 28 8 40
    19 53 48 l18 39 -15 36 c-20 46 -60 67 -103 54z m39 -24 c-7 -2 -19 -2 -25 0
    -7 3 -2 5 12 5 14 0 19 -2 13 -5z m-43 -26 c0 -7 -6 -22 -14 -33 l-15 -19 -6
    18 c-7 17 10 47 26 47 5 0 9 -6 9 -13z m91 -14 c13 -35 -6 -81 -38 -94 -35
    -13 -39 -12 -52 19 l-12 28 15 30 c10 17 27 31 43 35 16 4 29 7 31 8 1 0 7
    -11 13 -26z m-111 -68 l12 -15 -16 0 c-9 0 -16 7 -16 15 0 8 2 15 4 15 2 0 9
    -7 16 -15z"/>
    <path d="M6845 1706 l17 -26 -16 -6 c-9 -3 -23 -4 -31 0 -9 3 -15 0 -15 -10 0
    -23 29 -28 51 -8 25 22 22 67 -4 72 l-19 4 17 -26z"/>
    <path d="M6990 1663 c-76 -52 -61 -120 16 -78 37 20 54 14 38 -13 -7 -11 -25
    -16 -57 -17 -26 0 -47 -2 -47 -4 0 -15 57 -61 75 -61 30 0 75 50 81 92 11 62
    -58 114 -106 81z m-16 -48 c-9 -14 -18 -25 -21 -25 -5 0 5 18 20 38 17 22 18
    13 1 -13z m104 -16 c2 -24 -4 -43 -18 -62 -22 -27 -63 -36 -75 -17 -3 6 5 10
    19 10 31 0 56 24 56 56 0 32 -25 41 -50 19 -28 -25 -37 -12 -10 15 14 14 31
    20 48 18 l27 -3 3 -36z"/>
    <path d="M8004 1655 c-8 -19 2 -45 16 -45 7 0 9 8 5 20 -5 15 -3 18 9 14 11
    -4 16 -1 16 10 0 20 -39 21 -46 1z"/>
    <path d="M7793 1503 c-19 -7 -16 -53 3 -53 l16 0 -12 16 -13 15 21 6 c12 3 19
    9 16 14 -6 10 -12 10 -31 2z"/>
    <path d="M7027 1394 c-11 -12 3 -24 29 -24 29 0 29 3 4 -51 -11 -24 -19 -51
    -19 -59 1 -19 57 99 58 123 1 13 -7 17 -32 17 -19 0 -37 -3 -40 -6z"/>
    <path d="M6931 1376 c-7 -8 -15 -30 -18 -49 -10 -63 59 -99 88 -46 15 29 -6
    59 -41 59 -22 0 -28 4 -24 15 4 8 17 15 30 15 13 0 24 5 24 10 0 15 -46 12
    -59 -4z m47 -70 c4 -21 -14 -37 -35 -29 -14 5 -18 35 -6 47 12 12 38 1 41 -18z"/>
    <path d="M7626 1244 c-30 -30 -13 -124 22 -124 4 0 18 7 30 16 39 27 22 74
    -26 74 -30 0 -24 24 6 28 12 2 22 8 22 13 0 15 -37 10 -54 -7z m44 -60 l13
    -15 -15 -16 c-19 -18 -38 -10 -38 16 0 33 20 40 40 15z"/>
    <path d="M7732 1248 c-21 -21 -15 -106 7 -118 25 -13 27 -13 45 6 18 18 21 76
    6 105 -12 21 -40 25 -58 7z m48 -52 c0 -49 -13 -65 -35 -46 -28 23 -16 90 16
    90 l19 0 0 -44z"/>
    <path d="M8232 1231 c-16 -9 -12 -49 3 -41 5 3 9 11 7 18 -2 6 4 12 13 12 8 0
    15 5 15 10 0 12 -20 13 -38 1z"/>
    <path d="M8260 1196 c0 -2 15 -13 33 -24 17 -10 74 -45 125 -77 51 -31 96 -54
    99 -51 8 7 20 -2 -118 84 -104 64 -139 81 -139 68z"/>
    <path d="M8605 1004 c-31 -31 -19 -61 44 -103 36 -25 61 -50 65 -65 8 -32 61
    -69 99 -69 44 0 77 42 77 98 l0 44 -31 22 c-23 16 -44 22 -76 20 -34 -1 -54 5
    -86 27 -58 39 -74 44 -92 26z m23 -39 c-7 -16 -15 -22 -21 -16 -13 13 -1 41
    17 41 l16 0 -12 -25z m39 -20 c-13 -26 -22 -31 -31 -16 -10 16 5 41 24 41 l18
    0 -11 -25z m36 -20 c-16 -22 -40 -36 -30 -17 2 4 7 15 10 25 4 9 13 17 22 17
    l16 0 -18 -25z m127 5 c11 -7 7 -10 -17 -10 -17 0 -35 5 -38 10 -8 13 35 13
    55 0z m-108 -22 c-7 -7 -12 -8 -12 -2 0 14 12 26 19 19 2 -3 -1 -11 -7 -17z
    m48 1 c0 -22 -21 -48 -35 -43 -11 5 -12 11 -3 30 11 24 38 34 38 13z m104 -15
    c11 -30 6 -53 -20 -83 -33 -39 -59 -40 -79 -1 -16 30 -12 51 18 88 14 18 74
    15 81 -4z m-123 -76 l12 -23 -16 14 c-10 7 -17 17 -17 22 0 15 9 10 21 -13z"/>
    <path d="M8440 800 c-42 -42 -12 -131 39 -115 47 15 34 85 -16 85 -33 0 -24
    24 10 28 15 2 25 8 22 13 -10 15 -34 10 -55 -11z m48 -74 c-4 -25 -36 -34 -44
    -12 -8 21 13 46 32 39 8 -3 14 -15 12 -27z"/>
    <path d="M8548 771 c-29 -52 -28 -61 8 -61 13 0 24 -7 26 -17 l4 -18 11 20
    c13 25 5 125 -11 125 -6 0 -23 -22 -38 -49z m32 -11 c0 -11 -7 -20 -15 -20
    -13 0 -14 4 -5 20 6 11 13 20 15 20 3 0 5 -9 5 -20z"/>
    <path d="M8230 645 c0 -16 53 -85 65 -85 8 0 15 -4 15 -9 0 -5 9 -11 20 -14
    15 -4 20 -14 20 -37 0 -23 9 -40 31 -61 59 -55 110 -48 156 20 33 49 29 78
    -14 118 l-37 35 -58 -6 c-38 -5 -58 -3 -58 4 0 5 -9 10 -19 10 -10 0 -21 7
    -25 15 -5 14 -96 23 -96 10z m90 -23 c0 -15 -28 -47 -35 -40 -11 11 5 48 21
    48 8 0 14 -4 14 -8z m27 -46 c-7 -15 -16 -21 -21 -16 -12 12 0 40 18 40 l14 0
    -11 -24z m123 4 c0 -5 9 -10 20 -10 31 0 52 -40 40 -79 -13 -46 -38 -71 -71
    -71 -37 0 -52 29 -44 83 l6 42 -16 -19 c-8 -11 -15 -30 -15 -44 0 -13 -4 -20
    -10 -17 -26 16 3 109 37 118 32 8 53 7 53 -3z m-100 -21 c-7 -11 -14 -18 -17
    -15 -3 3 0 12 7 21 18 21 23 19 10 -6z"/>
    <path d="M8470 526 c0 -19 -5 -26 -20 -26 -11 0 -20 -4 -20 -10 0 -5 9 -10 19
    -10 12 0 21 -8 24 -22 l4 -23 2 26 c1 18 8 29 24 34 l22 8 -23 4 c-15 3 -22
    10 -18 18 3 8 1 17 -4 20 -6 4 -10 -5 -10 -19z"/>
    <path d="M8158 459 c-10 -5 -18 -17 -18 -26 0 -13 3 -14 12 -5 16 16 48 15 48
    -1 0 -7 -16 -28 -35 -47 -45 -43 -44 -50 5 -50 22 0 40 5 40 10 0 6 -12 10
    -27 10 l-27 0 32 33 c37 38 39 48 14 70 -21 20 -21 20 -44 6z"/>
    <path d="M8077 415 c3 -27 2 -45 -4 -45 -18 0 -22 12 -12 32 6 11 8 22 6 25
    -5 4 -37 -49 -37 -62 0 -3 11 -5 25 -5 16 0 25 -6 25 -15 0 -21 13 -19 27 5 8
    12 9 21 3 25 -6 3 -10 24 -10 46 0 28 -4 39 -15 39 -12 0 -13 -9 -8 -45z"/>
    </g>
  </g>
  <g id="labels" font-family="Helvetica, Arial, sans-serif" fill="#111" font-size="14"></g>
</svg>
