<svg xmlns="http://www.w3.org/2000/svg" width="960" height="640" viewBox="0 0 960 640" role="img" aria-labelledby="title desc">
  <title id="title">Mercedes parts diagram: group-001</title>
  <desc id="desc">Mercedes parts diagram: group-001</desc>
  <g id="art">
    <metadata>
    Created by potrace 1.16, written by Peter Selinger 2001-2019
    </metadata>
    <g transform="translate(0.000000,640.000000) scale(0.100000,-0.100000)"
    fill="#000000" stroke="none">
    <path d="M6690 5013 c-42 -7 -516 -122 -650 -158 -69 -18 -219 -55 -335 -83
    -115 -28 -262 -64 -325 -80 -63 -16 -182 -46 -265 -67 -696 -171 -694 -171
    -1495 -369 -140 -35 -300 -75 -355 -90 -55 -14 -172 -43 -260 -65 -429 -106
    -680 -172 -780 -205 -179 -58 -346 -175 -360 -249 -4 -20 -5 -39 -2 -44 5 -8
    -58 -292 -113 -503 -37 -144 -46 -210 -31 -238 11 -20 209 -157 321 -221 83
    -48 352 -177 460 -221 289 -118 387 -129 593 -63 96 31 108 48 101 149 -2 38
    -9 150 -15 249 -6 99 -12 202 -14 230 l-3 49 -30 27 c-20 18 -45 28 -83 33
    -86 11 -441 120 -509 157 -19 10 -88 41 -153 69 -135 57 -281 136 -415 224
    l-93 61 5 34 c14 90 193 201 428 266 67 19 155 43 193 53 39 11 140 36 225 57
    85 20 191 47 235 60 44 12 249 64 455 114 206 50 429 105 495 122 133 34 558
    139 905 223 124 30 268 66 320 80 99 28 364 93 805 201 143 35 343 84 445 109
    339 85 466 94 621 47 194 -59 427 -167 579 -268 120 -80 129 -88 165 -161 30
    -59 29 -63 -19 -86 -60 -28 -71 -23 -89 44 l-17 59 -52 42 c-127 101 -296 195
    -513 286 -74 30 -195 73 -209 73 -19 0 9 -17 59 -35 48 -17 84 -32 290 -121
    147 -64 382 -214 409 -261 19 -35 35 -114 23 -118 -7 -2 -97 -27 -202 -54
    -104 -28 -259 -69 -343 -92 -83 -22 -158 -39 -166 -36 -7 3 -19 29 -26 59 -16
    66 -25 80 -81 120 -24 17 -46 35 -49 39 -9 13 -272 161 -355 199 -44 20 -105
    49 -135 63 -88 41 -160 67 -160 58 0 -5 64 -37 143 -71 254 -111 554 -286 593
    -345 18 -27 46 -123 40 -134 -3 -4 -31 -13 -63 -20 -31 -8 -64 -17 -73 -22 -8
    -5 -103 -31 -210 -59 -107 -27 -239 -62 -292 -79 l-97 -29 -5 17 c-2 9 -7 31
    -11 49 -8 41 -34 92 -46 92 -12 0 -12 -13 0 -25 5 -6 16 -38 24 -72 l14 -62
    -31 -10 c-17 -6 -87 -24 -156 -42 -69 -17 -136 -36 -149 -41 -30 -11 -397
    -108 -410 -108 -4 0 -15 28 -22 61 -19 83 -70 130 -283 259 -107 66 -429 230
    -450 230 -25 0 25 -33 92 -60 130 -54 349 -175 462 -256 120 -86 138 -105 160
    -169 26 -74 26 -71 -17 -83 -21 -6 -69 -19 -108 -30 -38 -11 -133 -37 -210
    -57 -77 -20 -193 -52 -258 -71 -65 -19 -120 -34 -122 -34 -1 0 -11 30 -21 66
    l-17 65 -42 37 c-111 97 -686 395 -712 368 -3 -3 11 -13 33 -22 228 -93 502
    -238 631 -333 l62 -46 21 -62 c26 -81 26 -81 -16 -89 -20 -4 -91 -22 -158 -40
    -370 -103 -530 -143 -542 -133 -7 6 -15 28 -19 50 -9 55 -59 103 -175 171
    -158 92 -430 218 -505 233 l-30 6 30 -15 c17 -8 93 -42 170 -76 157 -69 273
    -128 381 -196 l73 -45 25 -52 c29 -58 34 -97 11 -97 -8 0 -23 -4 -33 -10 -9
    -5 -118 -36 -242 -69 -124 -32 -263 -71 -310 -85 -117 -37 -216 -43 -316 -21
    -105 23 -332 109 -534 203 -148 68 -220 105 -399 204 -29 16 -51 24 -49 18 15
    -45 618 -330 862 -406 212 -67 273 -65 544 13 86 25 236 67 332 93 l175 47 8
    -28 c10 -38 31 -38 22 -1 l-6 29 43 16 c24 9 147 43 273 77 127 33 272 72 323
    86 52 14 95 24 97 22 1 -2 5 -19 9 -38 l6 -36 -147 -37 c-82 -20 -191 -48
    -243 -63 -52 -14 -196 -52 -320 -85 -124 -32 -245 -65 -270 -73 -25 -8 -88
    -26 -140 -40 -52 -13 -151 -39 -220 -56 -111 -29 -167 -50 -132 -50 16 0 28
    -56 42 -190 6 -63 17 -169 25 -235 7 -66 17 -166 20 -222 l7 -103 -23 -8 c-31
    -11 -232 -60 -284 -69 -29 -5 -34 -8 -17 -11 27 -4 171 22 265 50 38 11 71 18
    73 15 2 -2 5 -42 7 -88 l2 -83 -125 -33 c-69 -18 -190 -51 -270 -74 l-145 -42
    -85 -1 c-97 0 -151 12 -277 59 -54 20 -89 39 -91 49 -5 23 10 20 123 -19 55
    -19 108 -35 118 -35 28 0 10 18 -26 25 -17 4 -74 20 -125 37 l-92 29 14 28 c8
    15 31 47 51 71 41 49 42 78 5 96 -206 100 -346 171 -442 227 -122 69 -136 74
    -169 57 -31 -17 -99 -110 -99 -136 0 -13 -4 -24 -10 -24 -20 0 -100 87 -100
    109 l0 23 26 -31 c41 -49 49 -36 9 15 -39 53 -41 63 -20 108 20 42 96 115 102
    99 3 -7 14 -23 25 -35 l20 -23 -7 20 c-4 11 -12 32 -18 47 -15 37 -2 46 22 17
    25 -30 26 -23 3 23 l-19 36 -17 -28 c-9 -16 -29 -38 -45 -49 -34 -24 -78 -87
    -90 -127 -4 -16 -4 -139 0 -274 5 -135 9 -267 10 -295 0 -27 7 -62 15 -76 15
    -31 101 -109 119 -109 13 0 15 335 2 397 -4 18 -2 35 3 38 6 3 11 18 12 33 3
    54 16 -106 17 -213 1 -60 5 -116 10 -123 13 -21 111 11 136 44 6 8 24 16 41
    20 l32 6 74 -93 c41 -52 82 -100 90 -107 l16 -13 43 16 c24 8 52 15 62 15 l17
    0 0 -72 0 -73 42 -37 43 -37 -12 -12 c-15 -15 -17 -89 -3 -89 6 0 10 -11 10
    -25 0 -57 221 -125 406 -125 l111 0 22 66 c41 125 103 192 209 223 104 31 229
    54 257 47 33 -8 89 -95 106 -164 l13 -54 38 -19 38 -19 0 -35 c0 -18 4 -36 9
    -39 15 -9 61 12 61 28 0 18 41 34 219 86 80 22 160 48 179 56 23 9 39 11 47 4
    11 -9 79 4 100 20 6 4 78 26 160 49 83 23 200 57 260 77 101 32 178 54 595
    174 80 23 197 57 260 77 63 19 207 62 319 94 174 50 251 78 251 93 0 1 14 41
    30 87 39 108 89 183 138 208 50 25 204 76 272 90 151 30 196 7 235 -124 22
    -74 -2 -76 380 40 121 37 294 89 385 116 333 99 516 173 526 213 9 37 24 196
    36 378 l11 178 -18 41 -19 41 13 20 c14 23 6 131 -14 188 -7 19 -18 85 -25
    145 -17 162 -73 474 -91 507 -5 10 -9 27 -9 38 0 25 -57 165 -82 201 -36 54
    -301 213 -473 285 -33 14 -120 47 -193 75 l-134 49 -111 -1 c-62 -1 -123 -4
    -137 -6z m1110 -592 c0 -36 -14 -48 -81 -67 -30 -8 -85 -24 -123 -36 -38 -11
    -159 -44 -270 -73 -110 -30 -241 -65 -291 -79 -49 -14 -93 -26 -97 -26 -13 0
    -9 67 5 77 6 6 109 35 227 66 118 31 271 72 340 91 147 42 148 42 152 14 2
    -12 9 -23 15 -26 9 -2 11 5 7 27 l-6 30 38 10 c22 6 46 15 54 20 20 14 30 4
    30 -28z m33 -134 c34 -150 76 -400 83 -489 l7 -88 -17 -25 c-26 -40 -34 -30
    -41 53 -15 183 -36 380 -45 412 -15 60 -32 208 -25 220 12 19 19 2 38 -83z
    m-58 51 c6 -18 53 -378 59 -458 3 -36 8 -104 12 -152 l6 -87 -43 -11 c-51 -14
    -337 -92 -524 -144 -71 -20 -173 -48 -225 -62 -52 -14 -104 -30 -115 -35 -11
    -4 -124 -35 -251 -68 -127 -33 -242 -65 -255 -71 -13 -6 -125 -37 -249 -70
    -124 -32 -274 -72 -335 -88 -60 -17 -164 -44 -230 -62 -66 -17 -140 -38 -165
    -46 -25 -8 -137 -39 -250 -69 -113 -30 -263 -70 -334 -89 -72 -20 -132 -34
    -134 -31 -3 3 -21 129 -24 173 -1 6 -6 12 -11 12 -8 0 -3 -108 9 -171 l5 -25
    -118 -31 c-65 -18 -167 -46 -228 -62 -200 -56 -332 -91 -343 -91 -13 0 -28 53
    -37 135 -5 55 -41 312 -65 476 -5 36 -12 73 -16 83 -3 9 -2 16 2 16 10 0 342
    87 434 114 123 35 269 70 274 65 3 -3 8 -23 11 -45 l7 -39 -34 -12 c-18 -7
    -96 -28 -173 -48 -285 -72 -475 -126 -475 -135 0 -4 66 11 148 33 81 21 246
    65 367 97 121 31 252 66 290 78 39 11 135 37 215 57 80 20 183 48 230 62 103
    31 184 52 187 49 1 -1 5 -38 9 -81 l6 -80 -63 -18 c-35 -10 -172 -46 -304 -82
    -132 -35 -266 -71 -299 -80 -32 -9 -60 -14 -63 -11 -3 2 -7 32 -10 65 -3 34
    -10 64 -16 68 -9 5 -5 -46 9 -118 l5 -27 -113 -27 c-62 -15 -167 -43 -233 -62
    -66 -19 -169 -47 -228 -63 -102 -26 -138 -40 -107 -40 13 0 219 54 685 180
    339 92 717 190 731 190 7 0 14 -25 18 -57 4 -32 9 -74 12 -94 l5 -35 -173 -48
    c-318 -87 -550 -147 -554 -143 -2 2 -8 36 -13 76 -5 40 -13 76 -16 79 -8 7 3
    -130 11 -152 3 -8 -12 -17 -38 -24 -515 -136 -669 -180 -635 -181 23 -1 214
    46 242 59 11 5 92 27 180 49 88 22 194 49 235 61 41 13 183 51 315 86 132 35
    297 79 368 99 251 69 386 106 622 170 229 61 328 88 635 172 74 20 241 65 370
    100 129 35 343 93 475 129 132 36 259 70 283 76 49 13 58 33 10 22 -18 -3 -98
    -26 -178 -49 -80 -23 -210 -59 -290 -79 -80 -21 -165 -44 -190 -53 -25 -8 -88
    -26 -140 -40 -185 -48 -388 -103 -630 -169 -135 -36 -337 -90 -450 -120 -113
    -29 -239 -64 -280 -78 -41 -13 -89 -27 -106 -30 l-32 -7 -5 33 c-3 18 -9 62
    -12 98 l-7 65 129 34 c70 19 197 53 281 77 84 24 246 69 360 99 114 30 315 84
    447 120 132 36 339 92 460 124 121 32 245 66 275 76 30 10 127 37 214 59 88
    23 161 47 164 53 3 9 -8 9 -40 -3 -24 -8 -104 -31 -178 -50 -163 -42 -223 -59
    -314 -86 -38 -11 -159 -44 -270 -74 -460 -121 -576 -153 -666 -179 -52 -16
    -194 -54 -315 -86 -121 -31 -283 -75 -360 -96 -77 -22 -152 -43 -166 -46 l-26
    -7 -6 58 c-3 31 -9 67 -13 79 -4 15 -2 24 7 27 8 3 84 24 169 47 85 23 211 57
    280 76 69 19 172 47 230 63 58 16 200 54 315 84 116 31 264 72 330 91 124 36
    308 86 670 181 236 62 306 82 320 95 14 14 -3 11 -100 -17 -128 -36 -239 -66
    -400 -109 -77 -20 -176 -47 -220 -60 -44 -13 -165 -46 -270 -74 -104 -27 -221
    -58 -260 -69 -38 -11 -142 -39 -230 -62 -88 -22 -171 -45 -184 -51 -13 -5 -87
    -26 -165 -45 -77 -19 -218 -58 -313 -85 -95 -28 -177 -48 -183 -44 -5 3 -10
    25 -10 49 l0 43 38 10 c20 6 84 23 142 38 58 15 139 37 180 50 41 13 167 47
    280 75 113 28 232 60 265 70 33 10 143 39 245 65 102 26 201 53 220 61 19 7
    116 34 215 59 99 25 217 57 263 71 45 14 175 49 288 79 113 29 209 56 212 59
    9 10 22 7 27 -6z m-857 -170 l3 -35 -108 -27 c-59 -15 -135 -36 -168 -47 -33
    -10 -150 -41 -259 -69 -211 -54 -219 -54 -214 -2 l3 24 105 28 c141 37 547
    147 585 159 43 13 50 9 53 -31z m-757 -204 l6 -32 -41 -12 c-23 -7 -140 -39
    -261 -71 -121 -32 -269 -72 -330 -88 -465 -130 -849 -231 -873 -231 -7 0 -12
    15 -12 35 l0 34 38 10 c20 6 81 21 134 35 53 13 100 26 105 29 8 5 436 117
    446 117 2 0 7 -14 11 -31 7 -38 24 -30 18 9 l-4 30 49 15 c26 9 102 30 168 47
    173 45 286 76 400 109 123 36 137 36 146 -5z m-777 -286 c3 -13 6 -35 6 -49
    l0 -26 -122 -32 c-68 -18 -150 -41 -183 -51 -81 -26 -426 -112 -430 -108 -2 2
    -5 23 -6 48 l-4 44 70 16 c39 9 75 19 81 22 5 4 118 34 249 68 132 33 256 67
    275 75 48 19 57 18 64 -7z m2565 -79 c1 -43 -4 -63 -20 -83 -31 -39 -39 -32
    -39 34 0 33 -4 60 -9 60 -5 0 -7 -26 -4 -59 l6 -59 -19 -10 c-11 -5 -57 -19
    -104 -31 -47 -12 -121 -33 -165 -46 -141 -43 -534 -156 -755 -217 -118 -32
    -224 -63 -235 -68 -20 -10 -262 -78 -695 -195 -129 -35 -271 -75 -315 -88
    l-80 -24 -7 21 c-3 11 -6 48 -7 81 l-1 61 78 23 c58 18 343 94 537 144 6 1 15
    5 20 9 6 3 82 24 170 47 88 22 192 50 230 61 97 29 214 62 390 109 83 22 263
    72 400 111 138 38 315 88 393 109 147 41 183 57 205 92 l12 19 7 -22 c3 -13 6
    -48 7 -79z m-6054 -51 c-18 -90 -99 -424 -121 -502 -14 -48 -23 -90 -20 -93 2
    -3 50 10 106 29 81 26 105 38 115 58 8 15 17 107 24 235 7 115 13 211 16 213
    2 2 13 -2 25 -8 l22 -12 -6 -56 c-11 -118 -18 -482 -9 -482 9 0 23 267 23 442
    0 49 4 78 11 78 6 0 41 -17 77 -39 94 -54 472 -218 545 -236 l28 -7 -4 -282
    c-5 -278 -1 -255 18 125 l8 146 54 -20 c42 -16 52 -24 47 -36 -4 -9 -7 -32 -6
    -51 4 -92 0 -418 -5 -440 -7 -28 -20 -40 -46 -40 l-18 0 5 273 c3 195 2 235
    -4 142 -4 -71 -10 -197 -13 -278 l-5 -149 32 -19 c39 -24 59 -24 27 0 l-24 18
    30 6 30 6 6 212 c8 238 27 315 27 107 0 -71 4 -129 10 -133 5 -3 6 -15 1 -28
    -5 -12 -11 -51 -15 -87 -12 -120 -18 -150 -30 -150 -13 0 -45 16 -351 177
    -391 206 -547 284 -543 273 2 -7 109 -66 238 -132 129 -66 240 -125 246 -131
    9 -9 7 -22 -6 -52 l-17 -41 -52 -13 c-28 -7 -53 -17 -57 -22 -8 -13 14 -10 71
    10 l50 18 207 -106 c218 -111 250 -138 155 -128 -197 20 -800 311 -1024 493
    -53 43 -57 57 -39 130 9 32 24 95 36 139 11 44 36 152 56 240 19 88 40 177 45
    198 12 46 33 51 24 5z m69 -20 l34 -22 -5 -86 c-12 -243 -23 -365 -35 -376 -7
    -7 -42 -24 -78 -37 -36 -13 -73 -28 -82 -32 -25 -10 -25 -12 37 249 52 220 82
    326 91 326 2 0 19 -10 38 -22z m5967 -93 c-25 -44 -51 -45 -51 -3 0 26 6 36
    28 49 l27 15 6 -15 c4 -9 -1 -29 -10 -46z m-63 -10 l3 -35 -23 -10 c-13 -6
    -102 -32 -198 -59 -175 -48 -646 -184 -750 -217 -30 -9 -131 -38 -225 -64 -93
    -27 -208 -60 -255 -74 -47 -13 -152 -43 -235 -64 -82 -22 -190 -52 -240 -66
    -49 -14 -157 -44 -239 -65 -81 -22 -153 -45 -160 -51 -14 -15 33 -6 114 21 30
    10 143 41 250 69 107 28 222 59 255 70 57 18 184 54 362 100 43 11 87 25 98
    30 11 5 117 36 235 69 118 33 325 92 460 131 365 106 554 159 564 160 9 0 4
    -305 -5 -315 -15 -14 -496 -157 -609 -180 -19 -4 -39 -11 -45 -15 -5 -4 -107
    -33 -225 -64 -243 -65 -382 -109 -360 -113 8 -2 62 11 120 28 197 58 275 80
    425 119 83 22 202 56 265 75 63 20 158 47 210 61 52 14 119 34 149 45 30 10
    58 16 62 13 5 -3 7 -44 4 -92 -4 -67 -2 -79 5 -52 5 19 13 139 16 267 l7 232
    30 28 29 28 -4 -53 c-3 -29 -12 -60 -20 -70 -11 -12 -17 -53 -22 -144 l-7
    -128 16 0 17 0 -6 -42 c-3 -24 -5 -58 -5 -76 -2 -73 -88 -112 -591 -263 -91
    -27 -191 -59 -223 -70 -69 -23 -397 -119 -409 -119 -4 0 -8 8 -8 18 0 45 -43
    142 -75 171 -21 18 -29 31 -22 34 18 7 -58 37 -93 37 -44 0 -247 -54 -360 -96
    -111 -41 -177 -125 -214 -272 -25 -101 -27 -112 -18 -112 5 0 17 37 26 82 34
    157 94 239 213 288 142 59 353 102 403 81 l25 -10 -45 0 c-81 -2 -328 -56
    -349 -77 -12 -11 12 -17 29 -6 28 17 159 50 254 63 l83 12 34 -17 c41 -19 76
    -83 86 -154 7 -60 -8 -46 -30 29 -35 116 -89 135 -272 94 -256 -57 -331 -116
    -395 -312 -29 -87 -31 -89 -92 -103 -28 -5 -65 -17 -82 -25 -45 -20 -236 -75
    -262 -75 l-23 0 -4 73 -3 72 -2 -77 -2 -77 -72 -21 c-40 -12 -95 -30 -123 -40
    -27 -10 -126 -39 -220 -64 -93 -26 -196 -56 -229 -67 -32 -11 -60 -19 -61 -17
    -1 2 -5 37 -9 78 l-6 76 52 17 c64 21 183 55 221 63 l27 7 0 -61 c0 -72 7 -78
    68 -62 68 19 72 24 72 100 l0 67 43 10 c23 6 74 21 112 32 39 12 143 42 231
    65 89 24 170 48 180 54 11 5 45 15 77 22 31 7 57 17 57 22 0 5 -8 7 -17 4 -10
    -3 -54 -15 -98 -26 -44 -12 -111 -32 -150 -45 -38 -13 -87 -26 -107 -30 l-38
    -7 0 39 0 40 158 42 c207 56 292 83 292 94 0 4 -10 5 -22 1 -13 -4 -52 -15
    -88 -25 -36 -10 -128 -36 -205 -59 -77 -22 -174 -49 -215 -60 -41 -12 -111
    -32 -155 -45 -44 -14 -156 -46 -249 -71 -93 -25 -185 -52 -206 -59 l-38 -13
    -6 76 c-3 43 -9 121 -12 175 -4 54 -11 100 -15 103 -5 3 -9 18 -9 33 l0 27 73
    23 c39 13 162 48 272 77 110 29 229 62 265 72 36 10 77 22 91 25 l27 7 6 -38
    c4 -20 11 -109 16 -196 6 -88 13 -162 16 -165 10 -9 -5 307 -16 354 -5 22 -6
    43 -2 47 4 3 45 16 92 28 47 11 123 33 170 47 47 14 182 51 300 83 199 53 287
    78 570 161 102 30 353 101 820 234 124 36 261 76 305 89 107 33 110 33 113 -9z
    m-3991 -218 c20 -132 25 -162 29 -166 8 -8 4 86 -6 145 -6 32 -12 71 -15 87
    -2 15 -1 27 4 27 9 0 42 -165 61 -305 13 -100 36 -281 45 -360 4 -33 11 -67
    15 -75 4 -8 11 -100 15 -205 4 -104 10 -221 15 -260 l7 -70 2 136 1 136 63 18
    c34 9 89 25 122 36 33 10 156 43 273 73 117 29 216 57 219 60 17 16 -12 16
    -74 -2 -37 -11 -99 -29 -138 -40 -38 -11 -151 -41 -250 -66 -99 -26 -190 -51
    -202 -56 l-23 -10 0 113 c0 61 -3 121 -6 132 l-5 21 113 33 c62 18 196 56 298
    83 102 27 211 56 243 65 32 9 59 14 61 12 2 -2 6 -39 8 -81 l3 -77 -65 -20
    c-36 -11 -157 -45 -270 -75 -316 -86 -360 -99 -360 -106 0 -5 64 10 143 31 78
    21 225 61 327 88 102 28 188 51 193 51 4 0 7 -11 7 -25 0 -14 6 -36 14 -48 16
    -25 33 -331 19 -340 -4 -3 -51 -17 -103 -31 -295 -79 -596 -170 -577 -174 8
    -2 108 24 223 56 115 33 274 78 354 101 80 23 186 53 235 67 50 15 191 54 315
    89 124 34 238 68 253 74 43 17 47 14 47 -28 0 -29 -5 -41 -17 -45 -66 -19
    -255 -67 -256 -64 -24 47 -46 51 -114 23 l-33 -14 0 -30 0 -30 -42 -11 c-24
    -6 -83 -22 -133 -36 -49 -14 -98 -28 -107 -30 -14 -4 -18 1 -18 26 0 19 -4 29
    -11 25 -5 -4 -7 -19 -4 -34 l6 -28 -178 -51 c-98 -28 -205 -58 -238 -67 -115
    -31 -295 -90 -295 -96 0 -6 178 42 355 96 116 36 347 97 350 93 5 -5 9 -148 4
    -153 -3 -2 -81 -27 -174 -54 -94 -27 -246 -73 -340 -101 -93 -29 -180 -54
    -192 -57 l-23 -5 -2 83 -1 84 -6 -50 c-4 -27 -6 -65 -6 -83 0 -24 -4 -32 -15
    -30 -21 4 -27 75 -39 468 -9 268 -39 704 -55 810 -3 14 -5 35 -5 48 -1 12 -6
    22 -12 22 -6 0 -8 -8 -5 -17 2 -10 7 -44 11 -75 l6 -58 -15 0 c-13 0 -16 12
    -16 55 0 30 -4 55 -10 55 -5 0 -10 -20 -10 -45 0 -51 2 -50 -43 -29 -24 11
    -33 22 -30 33 3 11 -5 21 -23 30 l-27 12 -8 -13 c-11 -18 -79 19 -79 43 0 20
    -39 37 -49 21 -4 -6 -20 -4 -43 5 l-38 15 0 48 c0 27 -4 52 -10 55 -6 4 -10
    -12 -10 -39 0 -25 -4 -46 -10 -46 -5 0 -10 18 -10 41 0 24 -4 38 -10 34 -5 -3
    -10 -18 -10 -31 0 -40 -25 -23 -28 18 l-3 36 54 16 c31 9 58 16 61 16 3 0 6
    -19 6 -43 l0 -43 141 -72 c78 -39 145 -69 149 -67 5 3 7 51 7 108 l-2 102 -58
    31 -57 30 57 21 c32 11 60 19 63 16 3 -3 10 -41 17 -86z m4076 -19 c-7 -152
    -23 -163 -23 -17 0 64 3 119 7 122 17 18 20 -1 16 -105z m-4186 37 c65 -31 68
    -37 34 -63 l-28 -20 -44 19 c-93 42 -106 82 -28 88 8 0 38 -10 66 -24z m-121
    -19 l12 -25 -39 -15 c-51 -21 -49 -21 -49 18 l0 35 23 4 c12 2 27 5 32 6 6 0
    15 -10 21 -23z m-229 -76 l-5 -40 19 0 c36 0 479 -229 489 -253 9 -20 31 -268
    25 -275 -1 -1 -14 3 -29 9 l-26 12 0 110 0 109 15 -6 c8 -3 15 -2 15 2 0 8
    -480 253 -495 252 -6 0 -9 -42 -7 -111 2 -75 -1 -115 -9 -125 l-11 -14 17 0
    c9 0 134 -59 276 -131 198 -101 259 -136 259 -150 0 -11 -2 -19 -5 -19 -3 0
    -123 59 -266 130 -144 72 -262 130 -262 130 -9 0 -6 -370 2 -370 7 0 11 56 11
    170 0 94 4 170 8 170 26 0 32 -30 32 -169 0 -79 2 -142 4 -140 2 2 6 65 9 139
    7 157 5 140 17 140 6 0 10 -57 10 -150 0 -82 3 -150 8 -150 4 0 7 61 8 135 0
    74 4 138 7 141 4 4 20 1 37 -6 l30 -12 0 -104 c0 -58 4 -106 10 -109 6 -4 10
    30 10 95 0 77 3 101 13 98 8 -3 13 -35 15 -101 3 -120 22 -130 22 -12 0 47 2
    85 5 85 4 0 19 -7 35 -15 l30 -16 0 -54 c0 -30 5 -55 10 -55 6 0 10 23 10 52
    0 36 3 49 10 42 7 -7 11 -65 11 -142 0 -79 4 -132 9 -132 6 0 10 53 10 130 l0
    129 33 -14 32 -13 3 -126 c3 -164 22 -168 22 -6 l0 120 28 -17 c15 -10 30 -22
    34 -27 7 -10 15 -192 23 -517 l5 -226 -113 -33 c-61 -18 -116 -36 -122 -40 -5
    -4 -40 -15 -77 -25 -38 -10 -68 -22 -68 -26 0 -9 39 2 235 63 152 48 150 47
    150 29 0 -8 -27 -24 -63 -37 -87 -33 -334 -104 -342 -99 -4 3 -10 31 -14 62
    -12 105 -52 207 -98 250 -29 27 -117 66 -135 59 -10 -4 -13 7 -13 44 0 27 -7
    68 -16 90 -10 25 -14 54 -10 78 3 20 5 74 5 119 l0 83 15 -6 c9 -3 16 -13 16
    -21 0 -9 6 -12 18 -9 9 3 53 16 97 30 125 38 233 66 257 66 40 0 4 -16 -87
    -40 -117 -30 -295 -89 -272 -89 19 -1 140 32 280 75 87 27 97 28 97 14 0 -5
    -19 -14 -41 -20 -23 -6 -49 -16 -58 -21 -9 -5 -74 -25 -145 -44 -71 -19 -132
    -38 -135 -41 -16 -16 158 -104 206 -104 l33 0 0 -27 c0 -16 -3 -58 -6 -94 l-7
    -67 -33 -5 c-34 -6 -113 11 -153 32 -12 7 -25 10 -28 7 -3 -2 19 -17 48 -32
    42 -21 66 -26 119 -26 61 1 208 15 293 29 l37 6 0 -59 0 -60 -136 -42 c-75
    -24 -134 -46 -131 -48 5 -5 223 53 249 67 13 7 29 2 59 -16 22 -15 45 -25 51
    -23 6 2 -10 16 -35 31 l-47 28 0 59 0 59 23 3 c12 2 32 -3 45 -10 13 -9 22
    -10 22 -4 0 6 -5 14 -11 18 -8 4 -7 9 2 16 9 6 -2 7 -30 2 -74 -11 -201 -20
    -193 -14 4 4 54 19 112 35 58 15 109 32 114 36 15 14 6 12 -166 -36 -89 -25
    -167 -45 -174 -45 -7 0 -3 26 13 74 l24 74 67 20 c37 11 104 31 150 43 51 14
    82 27 82 36 l0 13 -37 -16 c-21 -9 -90 -31 -153 -50 l-115 -33 -14 14 -15 14
    15 5 c8 2 48 14 89 26 109 31 225 73 212 78 -6 2 -85 -20 -174 -49 -198 -63
    -225 -64 -313 -13 -35 21 -62 40 -60 43 10 9 347 102 352 97 3 -3 8 -28 11
    -56 2 -27 9 -50 15 -50 6 0 7 19 2 53 -4 28 -7 70 -8 91 -3 59 -19 64 -128 34
    -222 -61 -280 -73 -287 -61 -4 6 -19 16 -33 22 l-26 9 -7 109 c-7 116 -19 245
    -41 443 -8 69 -16 140 -17 159 l-3 35 28 7 c22 6 33 3 48 -12 l19 -19 0 -101
    0 -101 -32 7 c-26 5 -18 -3 37 -34 38 -22 70 -39 71 -38 1 1 4 57 7 125 l6
    122 -49 25 c-62 31 -68 42 -30 50 24 5 35 2 49 -14 25 -28 31 -26 31 9 0 21 5
    30 16 30 l17 0 -6 -40z m303 20 c33 -17 100 -106 100 -134 0 -3 -52 20 -115
    51 -63 32 -115 60 -115 63 0 8 60 37 78 39 7 0 30 -8 52 -19z m118 -87 l-3
    -38 -29 49 -29 50 29 25 29 25 3 -37 c2 -20 2 -54 0 -74z m-910 41 c21 -6 33
    -44 12 -44 -18 0 -59 23 -64 36 -6 15 14 18 52 8z m62 -26 c0 -15 -46 -393
    -60 -498 -19 -134 -43 -240 -55 -240 -11 0 -7 64 9 130 3 14 10 61 15 105 14
    130 62 489 66 503 6 16 25 16 25 0z m350 -104 c0 -63 -4 -104 -10 -104 -6 0
    -10 44 -10 111 0 71 4 108 10 104 6 -3 10 -52 10 -111z m-219 79 c25 -25 38
    -93 18 -93 -30 0 -59 31 -60 63 l-2 32 -4 -28 c-5 -32 -28 -31 -27 2 0 11 -5
    21 -13 21 -7 0 -13 -7 -13 -15 0 -8 -4 -15 -10 -15 -12 0 -14 43 -2 54 13 14
    94 -1 113 -21z m-211 2 c25 -13 44 -55 25 -55 -19 0 -85 43 -85 55 0 19 23 19
    60 0z m460 -96 c0 -71 -4 -108 -10 -104 -6 3 -10 52 -10 111 0 63 4 104 10
    104 6 0 10 -44 10 -111z m88 59 c8 -8 12 -48 12 -116 l0 -104 -16 6 c-9 3 -18
    6 -20 6 -2 0 -4 50 -4 110 0 108 4 122 28 98z m-308 -101 c0 -22 -18 -18 -92
    19 -52 26 -68 30 -50 12 9 -9 12 -69 12 -210 l0 -197 19 -11 c40 -21 41 -16
    41 185 l0 195 35 -17 34 -16 6 -41 c7 -56 23 -400 19 -405 -2 -2 -49 19 -104
    48 -55 29 -106 51 -113 48 -6 -2 35 -28 93 -57 58 -29 107 -54 109 -56 9 -8
    -22 -32 -49 -38 -40 -8 -180 59 -180 86 0 10 11 104 24 210 14 106 28 222 31
    258 4 36 9 68 11 72 9 14 154 -66 154 -85z m360 -27 c0 -67 -4 -110 -10 -110
    -6 0 -10 43 -10 110 0 67 4 110 10 110 6 0 10 -43 10 -110z m-576 62 c-3 -15
    -9 -54 -13 -87 l-9 -60 -1 92 -1 92 15 -5 c9 -4 12 -15 9 -32z m636 13 l30
    -16 0 -108 0 -109 -34 16 -35 16 -3 108 c-2 59 1 108 5 108 4 0 21 -7 37 -15z
    m210 -16 c0 -6 -4 -7 -10 -4 -5 3 -10 11 -10 16 0 6 5 7 10 4 6 -3 10 -11 10
    -16z m1705 -12 c4 -17 5 -54 3 -81 l-3 -49 -160 -43 c-88 -24 -243 -66 -345
    -93 -102 -28 -190 -50 -196 -51 -6 0 -15 35 -20 80 -5 44 -7 80 -4 80 5 1 80
    21 545 145 88 24 163 44 167 44 4 1 10 -14 13 -32z m-1835 -119 c0 -83 -3
    -109 -12 -106 -9 3 -14 38 -16 116 l-3 112 16 -6 15 -6 0 -110z m-580 -89 l0
    -189 -15 0 -15 0 0 195 0 194 15 -5 15 -6 0 -189z m640 166 l30 -16 0 -104 c0
    -109 -2 -113 -45 -93 l-25 11 0 109 c0 59 2 108 5 108 4 0 19 -7 35 -15z m72
    -139 c1 -90 -4 -117 -18 -104 -7 8 -13 176 -6 200 11 44 24 -6 24 -96z m88
    -48 l0 -108 -32 13 -33 13 -3 111 -3 111 36 -16 35 -16 0 -108z m-1302 -91
    c42 -24 120 -65 172 -92 52 -26 101 -52 108 -57 12 -11 17 -70 6 -81 -7 -6
    -369 177 -392 198 l-14 13 16 31 c9 17 19 31 22 31 2 0 39 -20 82 -43z m-732
    -7 c21 -16 43 -30 47 -30 4 0 59 -29 122 -65 62 -35 165 -87 227 -115 62 -28
    118 -56 125 -62 19 -15 16 -45 -6 -60 -42 -30 -72 -90 -70 -140 l3 -48 -27
    -28 c-17 -18 -27 -39 -27 -59 l0 -30 -59 -13 c-32 -7 -63 -11 -68 -9 -6 2 -38
    38 -73 79 -35 41 -70 83 -78 92 l-14 17 103 32 c101 30 141 49 107 49 -9 0
    -77 -21 -153 -46 -75 -25 -138 -44 -141 -41 -3 3 -10 36 -16 74 -11 70 -74
    270 -91 288 -15 15 0 -53 22 -100 26 -55 41 -105 33 -105 -4 0 -25 10 -47 23
    l-40 23 -6 54 c-3 30 -6 51 -7 46 -1 -6 -9 -1 -17 10 -34 45 -5 123 63 169 45
    31 40 31 88 -5z m-175 -160 c5 0 9 -18 9 -40 0 -51 -9 -50 -70 8 -40 38 -50
    55 -50 80 l0 32 51 -40 c28 -22 55 -40 60 -40z m-57 -57 c57 -53 68 -70 40
    -59 -45 19 -47 16 -10 -16 l40 -35 0 -103 c1 -67 -3 -104 -10 -107 -6 -2 -34
    18 -63 45 l-51 48 0 115 c0 62 -3 124 -6 137 -9 32 3 27 60 -25z m1410 -40
    c-27 -6 -60 -12 -74 -12 l-25 -1 3 44 4 44 70 -32 71 -31 -49 -12z m-1206 -86
    c12 -10 17 -47 5 -47 -22 0 -93 53 -93 70 l0 20 38 -17 c20 -10 43 -21 50 -26z
    m-24 -52 l43 -25 6 -37 c9 -51 1 -58 -75 -77 l-28 -6 0 85 c0 47 3 85 6 85 3
    0 25 -11 48 -25z m3426 -70 l0 -94 -37 -10 c-61 -17 -63 -16 -64 47 0 31 -2
    70 -3 85 -2 31 10 44 51 57 53 16 53 16 53 -85z m-1930 -38 l0 -33 -62 -22
    c-76 -26 -394 -110 -452 -119 -22 -3 -43 -7 -45 -7 -2 -1 -6 15 -8 35 l-3 35
    132 33 c73 18 153 40 178 48 70 24 212 62 238 62 l22 1 0 -33z m-1669 -19 c33
    -28 49 -49 49 -65 l0 -23 -25 16 c-25 16 -85 91 -85 106 0 14 11 9 61 -34z
    m1999 -28 c-17 -51 -22 -46 -14 14 5 32 10 44 17 37 7 -7 6 -23 -3 -51z
    m-1128 -35 l63 -16 1 -36 1 -35 -29 6 c-16 3 -67 17 -114 31 l-84 26 -6 25
    c-3 13 -4 30 -1 38 l6 15 50 -19 c27 -11 78 -27 113 -35z m-182 14 c0 -17 -4
    -38 -9 -48 -7 -12 -5 -26 5 -45 9 -18 14 -58 14 -109 l0 -81 -35 34 -35 34 0
    53 c0 40 4 53 15 53 8 0 15 4 15 9 0 5 -7 11 -15 15 -8 3 -15 14 -15 25 0 15
    5 19 16 14 l16 -6 -13 21 -13 21 18 20 c26 29 36 26 36 -10z m-641 -54 c12 -3
    21 -13 21 -21 0 -17 -9 -13 -63 29 -20 16 -42 39 -49 50 -8 15 1 11 29 -14 23
    -21 50 -40 62 -44z m1639 3 l3 -57 -18 -9 c-10 -5 -47 -15 -83 -21 -284 -53
    -379 -129 -423 -339 -8 -35 -18 -57 -31 -64 -62 -34 -416 58 -416 107 l0 15
    49 -20 c42 -16 140 -45 191 -55 8 -2 20 -5 25 -7 6 -1 10 2 11 7 0 6 -28 16
    -63 23 -77 15 -225 69 -235 85 -16 25 7 23 104 -10 61 -20 116 -33 137 -31
    l36 3 3 90 c2 70 -2 98 -15 125 l-18 35 -75 21 c-126 36 -175 59 -178 83 -4
    27 -5 27 113 -13 123 -42 231 -60 299 -52 39 5 489 122 541 141 31 11 40 -1
    43 -57z m-602 -14 c3 -13 3 -31 0 -40 l-6 -16 -58 7 c-71 9 -72 9 -72 48 l0
    32 65 -3 65 -4 6 -24z m-139 -141 c16 -21 25 -86 21 -153 l-3 -55 -38 1 c-56
    2 -219 65 -212 82 3 7 5 58 5 112 l0 98 108 -34 c59 -19 112 -42 119 -51z
    m870 45 c34 -21 85 -94 102 -148 21 -68 39 -208 28 -219 -20 -20 -25 -11 -32
    57 -18 187 -103 282 -239 268 -272 -30 -390 -102 -446 -272 -20 -59 -41 -86
    -57 -71 -3 3 3 39 12 79 49 203 134 266 430 318 110 20 154 17 202 -12z m30
    -139 c23 -35 53 -117 53 -145 0 -10 -7 -11 -29 -3 l-29 10 -11 46 c-13 50 -55
    138 -71 148 -5 3 -10 10 -10 15 0 19 73 -34 97 -71z"/>
    <path d="M5448 3184 c-6 -11 15 -160 24 -169 4 -4 4 28 1 72 -6 76 -15 114
    -25 97z"/>
    <path d="M1861 2883 c0 -5 63 -39 140 -77 76 -38 139 -73 139 -77 0 -4 -24
    -15 -52 -25 -29 -9 -47 -19 -40 -22 7 -2 33 3 59 12 26 9 47 16 49 16 1 0 4
    -14 8 -32 4 -22 10 -28 16 -22 7 7 7 19 1 35 l-9 24 26 27 c14 15 22 31 18 35
    -4 4 -15 -3 -25 -16 l-18 -24 -149 77 c-150 76 -165 82 -163 69z"/>
    <path d="M7690 2899 c-74 -22 -229 -66 -345 -99 -115 -32 -230 -65 -255 -73
    -25 -9 -124 -37 -220 -62 -96 -26 -179 -52 -185 -57 -15 -15 31 -5 190 40 77
    23 181 52 230 66 183 50 582 165 630 181 28 10 68 23 90 30 91 30 -10 11 -135
    -26z"/>
    <path d="M5225 2640 c-324 -88 -396 -110 -380 -116 6 -2 84 17 175 42 91 25
    223 61 295 80 71 20 132 37 134 40 13 13 -64 -3 -224 -46z"/>
    <path d="M3870 3045 c0 -19 5 -35 10 -35 6 0 10 16 10 35 0 19 -4 35 -10 35
    -5 0 -10 -16 -10 -35z"/>
    <path d="M4040 1930 c0 -5 5 -10 10 -10 6 0 10 5 10 10 0 6 -4 10 -10 10 -5 0
    -10 -4 -10 -10z"/>
    <path d="M3250 2831 c0 -4 11 -13 25 -19 l25 -12 0 -204 0 -204 16 -6 c9 -3
    20 -6 25 -6 5 0 9 83 9 195 l0 195 17 0 c11 0 13 3 8 9 -16 16 -125 61 -125
    52z m90 -242 c0 -119 -4 -189 -10 -189 -6 0 -10 72 -10 196 0 127 3 193 10
    189 6 -4 10 -80 10 -196z"/>
    <path d="M3374 2565 c0 -110 2 -156 3 -103 2 53 2 143 0 200 -1 57 -3 13 -3
    -97z"/>
    <path d="M3620 2280 c0 -5 7 -10 15 -10 10 0 15 -11 15 -35 0 -19 5 -35 10
    -35 11 0 13 33 4 68 -6 22 -44 32 -44 12z"/>
    <path d="M3525 2260 l-20 -9 23 0 c22 -1 28 -20 23 -73 -1 -10 3 -18 10 -18 8
    0 10 14 5 47 -7 55 -14 64 -41 53z"/>
    <path d="M3441 2228 c8 -7 20 -20 27 -27 l12 -15 0 27 0 27 -27 0 -27 0 15
    -12z"/>
    <path d="M3917 2153 c-3 -5 -8 -29 -12 -55 l-7 -48 18 0 c13 0 15 3 7 11 -15
    15 0 67 24 85 l18 13 -22 1 c-12 0 -24 -3 -26 -7z"/>
    <path d="M3363 2073 c3 -37 9 -69 13 -70 5 -2 7 26 6 62 l-4 65 18 -7 c12 -4
    15 -3 10 5 -4 7 -16 12 -27 12 l-20 0 4 -67z"/>
    <path d="M3848 2133 c-9 -2 -20 -18 -23 -36 -4 -18 -9 -40 -11 -49 -4 -12 0
    -18 11 -18 11 0 15 5 11 15 -10 28 5 75 25 75 11 0 19 5 19 10 0 10 -4 11 -32
    3z"/>
    <path d="M3752 2098 c-16 -21 -26 -101 -12 -96 7 2 15 22 17 43 2 22 11 46 20
    53 l17 12 -16 0 c-8 0 -20 -6 -26 -12z"/>
    <path d="M3666 2081 c-12 -18 -19 -101 -9 -101 5 0 10 17 11 37 1 21 8 43 17
    49 8 6 15 14 15 18 0 9 -28 7 -34 -3z"/>
    <path d="M3754 1894 c3 -9 6 -29 6 -45 0 -16 4 -29 9 -29 5 0 7 18 4 39 l-5
    39 18 5 c13 3 10 5 -10 6 -22 1 -27 -3 -22 -15z"/>
    <path d="M3663 1889 c-7 -7 -10 -26 -7 -43 9 -49 13 -58 25 -51 8 5 8 10 0 18
    -16 16 -14 67 3 67 8 0 18 5 21 10 9 14 -28 13 -42 -1z"/>
    <path d="M3903 1889 c10 -6 17 -22 17 -39 0 -17 5 -30 10 -30 14 0 12 54 -2
    68 -7 7 -19 12 -27 12 l-16 -1 18 -10z"/>
    <path d="M3588 1883 l-18 -4 0 -56 c0 -38 4 -53 12 -51 8 3 11 21 9 50 l-2 46
    18 4 c10 2 14 6 8 9 -5 3 -18 4 -27 2z"/>
    <path d="M3800 1764 c0 -15 37 -33 65 -33 l30 1 -26 7 c-14 5 -35 14 -47 20
    -12 6 -22 9 -22 5z"/>
    <path d="M3720 1735 c0 -8 59 -35 77 -35 10 0 -2 9 -26 20 -46 21 -51 23 -51
    15z"/>
    <path d="M3640 1716 c0 -5 65 -46 74 -46 18 0 2 18 -29 33 -37 18 -45 20 -45
    13z"/>
    <path d="M3605 1650 c3 -5 13 -10 21 -10 8 0 12 5 9 10 -3 6 -13 10 -21 10 -8
    0 -12 -4 -9 -10z"/>
    <path d="M1802 2553 c-24 -8 -41 -17 -39 -20 8 -7 87 17 87 27 0 6 -1 10 -2 9
    -2 0 -22 -7 -46 -16z"/>
    <path d="M1952 2486 c-8 -17 -24 -28 -54 -36 -65 -16 -92 -32 -43 -24 22 3 51
    8 65 11 l25 5 22 -46 23 -46 -60 -17 c-58 -16 -88 -42 -32 -29 116 29 116 29
    81 98 -15 29 -19 50 -14 74 7 40 3 43 -13 10z"/>
    <path d="M2030 2455 c0 -2 7 -30 15 -62 19 -73 19 -83 -2 -83 -29 0 -157 -32
    -168 -42 -6 -6 -1 -7 15 -4 14 3 60 13 104 22 l78 16 42 -23 c22 -12 44 -27
    47 -32 9 -12 81 4 86 19 2 7 -17 24 -42 39 l-46 27 15 23 c18 27 21 45 7 45
    -9 0 -31 -53 -31 -76 0 -7 9 -16 21 -19 16 -5 18 -10 9 -20 l-12 -14 -43 21
    -44 22 -11 55 c-16 78 -20 91 -31 91 -5 0 -9 -2 -9 -5z m190 -185 c0 -5 -7
    -10 -16 -10 -8 0 -12 5 -9 10 3 6 10 10 16 10 5 0 9 -4 9 -10z"/>
    <path d="M1973 2232 c-62 -14 -113 -29 -113 -34 0 -13 33 -9 96 11 33 10 77
    22 99 25 22 4 47 11 55 16 l15 10 -20 -2 c-11 0 -71 -12 -132 -26z"/>
    <path d="M1570 2346 c0 -4 18 -30 40 -56 l40 -48 0 -51 c0 -60 -10 -64 -51
    -20 -19 20 -29 26 -29 16 0 -18 55 -67 76 -67 11 0 14 16 14 69 l0 69 -45 49
    c-24 26 -44 44 -45 39z"/>
    <path d="M2355 1868 c-3 -8 -5 -46 -3 -84 l3 -69 29 -14 c74 -35 138 -52 152
    -40 16 13 20 120 4 148 -20 38 -175 87 -185 59z m97 -24 c24 -9 53 -28 66 -41
    l23 -25 -3 -52 -3 -51 -30 3 c-16 2 -55 13 -85 25 l-55 22 -3 68 -3 67 25 0
    c14 0 45 -7 68 -16z"/>
    <path d="M3355 1865 c63 -18 64 -18 41 0 -11 8 -36 15 -55 14 l-36 0 50 -14z"/>
    <path d="M7106 4891 c5 -5 63 -34 130 -64 133 -60 257 -134 348 -208 33 -27
    62 -46 65 -44 8 9 -42 55 -99 92 -30 19 -68 45 -85 56 -46 33 -334 177 -353
    177 -10 0 -12 -3 -6 -9z"/>
    <path d="M7405 4523 c-123 -34 -349 -98 -410 -117 l-50 -16 44 5 c24 3 109 24
    190 46 80 23 189 53 241 67 92 24 135 43 95 41 -11 -1 -60 -12 -110 -26z"/>
    <path d="M5506 4521 c5 -5 77 -45 160 -89 161 -85 290 -163 363 -219 44 -33
    66 -38 42 -9 -17 20 -226 152 -326 206 -185 100 -269 139 -239 111z"/>
    <path d="M6730 4340 c-64 -18 -523 -140 -527 -140 -2 0 -3 -4 -3 -10 0 -12 45
    -4 120 21 47 15 483 129 496 129 2 0 4 5 4 10 0 13 -12 12 -90 -10z"/>
    <path d="M5855 4104 c-88 -25 -218 -61 -290 -80 -132 -36 -168 -50 -105 -42
    45 6 350 86 370 97 8 4 58 18 110 31 52 12 99 27 105 31 17 17 -29 7 -190 -37z"/>
    <path d="M5210 3929 c-30 -10 -154 -44 -275 -75 -120 -31 -233 -63 -250 -70
    l-30 -13 26 -1 c15 0 64 11 110 25 46 14 172 48 279 76 107 28 199 54 203 59
    18 17 -10 17 -63 -1z"/>
    <path d="M2450 3841 c-101 -40 -293 -133 -324 -156 -10 -7 -15 -18 -12 -24 4
    -6 16 -1 30 12 37 34 269 147 374 181 28 10 52 19 52 22 0 10 -31 1 -120 -35z"/>
    <path d="M2190 3817 c-80 -45 -176 -102 -189 -113 -1 -1 0 -8 4 -14 4 -7 15
    -3 31 13 13 13 70 49 126 80 130 71 134 73 128 80 -3 4 -48 -18 -100 -46z"/>
    <path d="M2750 3821 c-152 -55 -328 -128 -380 -159 -25 -15 -58 -34 -75 -43
    -29 -16 -35 -31 -15 -37 6 -2 10 2 10 10 0 20 194 113 391 188 162 61 210 81
    183 79 -5 0 -56 -17 -114 -38z"/>
    <path d="M2885 3729 c-234 -81 -506 -219 -431 -219 9 0 16 6 16 13 0 26 260
    142 474 212 71 23 125 44 120 47 -5 3 -85 -21 -179 -53z"/>
    <path d="M4360 3700 c-80 -21 -166 -45 -191 -53 -25 -8 -86 -25 -135 -37 -110
    -27 -122 -31 -107 -37 17 -6 597 147 612 162 11 11 -44 1 -179 -35z"/>
    <path d="M3180 3685 c-148 -44 -331 -115 -463 -182 -81 -40 -100 -60 -69 -71
    7 -2 10 2 7 11 -4 10 13 22 57 42 35 15 96 43 137 62 40 19 148 60 240 90 91
    31 168 57 170 59 14 13 -13 9 -79 -11z"/>
    <path d="M1970 3671 c0 -5 24 -17 53 -27 71 -23 195 -74 292 -119 44 -21 101
    -45 126 -55 26 -10 117 -53 203 -94 166 -81 166 -81 166 -67 0 4 -30 22 -67
    39 -38 16 -142 65 -233 107 -156 73 -516 225 -532 225 -5 0 -8 -4 -8 -9z"/>
    <path d="M3340 3581 c-257 -85 -585 -251 -496 -251 9 0 15 5 14 11 -6 24 344
    183 552 250 47 15 76 27 65 28 -11 0 -72 -17 -135 -38z"/>
    <path d="M3666 3510 c-49 -16 -103 -32 -120 -36 -17 -4 -25 -9 -18 -11 7 -3
    48 4 90 15 42 12 96 26 120 32 23 6 40 15 37 20 -8 13 -6 13 -109 -20z"/>
    <path d="M1740 2791 c0 -50 674 -422 739 -409 9 3 0 9 -23 17 -144 49 -496
    240 -635 345 -80 60 -81 61 -81 47z"/>
    <path d="M2550 2347 c30 -32 300 -94 300 -70 0 6 -28 13 -62 16 -53 4 -109 19
    -234 63 l-19 7 15 -16z"/>
    <path d="M4039 1544 l-14 -17 20 6 c11 4 26 3 34 -2 16 -10 6 -31 -15 -31 -21
    0 -17 -17 6 -23 11 -3 20 -13 20 -22 l0 -18 -37 6 -38 6 20 -15 c38 -28 88 1
    70 42 -4 11 -7 30 -6 43 4 38 -35 54 -60 25z"/>
    <path d="M4157 1514 c-30 -50 -28 -64 9 -64 13 0 24 -5 24 -11 0 -6 8 -3 17 7
    13 13 14 19 5 22 -7 2 -12 22 -12 48 0 56 -8 55 -43 -2z m33 -19 c0 -16 -6
    -25 -15 -25 -18 0 -20 21 -3 38 17 17 18 16 18 -13z"/>
    </g>
  </g>
  <g id="labels" font-family="Helvetica, Arial, sans-serif" fill="#111" font-size="14"></g>
</svg>
