<svg xmlns="http://www.w3.org/2000/svg" width="960" height="640" viewBox="0 0 960 640" role="img" aria-labelledby="title desc">
  <title id="title">Mercedes parts diagram: group-019</title>
  <desc id="desc">Mercedes parts diagram: group-019</desc>
  <g id="art">
    <metadata>
    Created by potrace 1.16, written by Peter Selinger 2001-2019
    </metadata>
    <g transform="translate(0.000000,640.000000) scale(0.100000,-0.100000)"
    fill="#000000" stroke="none">
    <path d="M8325 5985 c-148 -35 -331 -78 -405 -95 -74 -17 -180 -42 -235 -54
    -55 -13 -117 -27 -139 -31 -21 -3 -46 -10 -55 -15 -9 -5 -90 -25 -181 -45
    -288 -63 -372 -90 -521 -167 -93 -47 -110 -65 -113 -115 -3 -32 -35 -180 -87
    -395 -5 -20 -29 -58 -54 -86 -63 -70 -67 -85 -59 -238 l7 -133 -18 -38 c-10
    -21 -18 -53 -18 -71 1 -17 -3 -35 -8 -38 -9 -5 -273 -82 -649 -189 -91 -26
    -221 -64 -290 -85 -69 -21 -159 -48 -200 -59 -161 -45 -246 -70 -273 -80 -16
    -6 -106 -32 -200 -57 -95 -25 -197 -54 -227 -64 -30 -10 -136 -41 -235 -69
    -219 -61 -367 -110 -340 -110 11 0 65 13 120 29 55 16 179 52 275 80 96 28
    227 66 290 85 63 19 194 56 290 83 337 96 565 162 595 172 17 6 127 38 245 71
    118 32 226 64 240 70 49 22 413 117 426 112 18 -7 30 25 16 39 -8 8 -15 8 -26
    -1 -8 -7 -20 -10 -26 -6 -13 8 -13 35 1 35 6 0 9 7 5 15 -6 18 2 45 15 45 5 0
    9 -10 9 -22 0 -13 4 -28 8 -33 9 -14 150 -103 236 -152 80 -44 84 -50 56 -86
    l-21 -27 -22 11 c-12 7 -73 43 -135 82 -62 38 -115 67 -118 64 -6 -6 126 -95
    214 -144 l52 -29 -118 -175 c-65 -96 -140 -205 -167 -244 -27 -38 -79 -115
    -117 -170 -38 -55 -105 -152 -149 -215 -43 -63 -91 -133 -105 -155 -15 -22
    -44 -66 -65 -97 -22 -32 -35 -58 -30 -58 5 0 58 73 119 163 61 89 124 180 140
    202 15 22 77 112 137 200 60 88 149 219 199 290 50 72 121 175 158 231 37 55
    78 110 91 122 l23 22 62 -31 c39 -19 62 -37 62 -47 l0 -17 9 14 9 14 65 -17
    c36 -10 76 -16 88 -14 l24 3 3 48 c4 64 -15 93 -70 107 -24 6 -58 16 -76 22
    l-33 10 7 31 c8 41 6 39 40 27 54 -21 165 -37 202 -30 20 4 99 24 176 44 101
    27 142 34 150 26 15 -15 -2 -24 -70 -39 -30 -7 -54 -16 -54 -21 0 -5 29 -1 65
    9 73 21 75 20 75 -24 l0 -33 30 -12 c34 -14 72 -60 88 -109 18 -53 14 -61 -8
    -14 -43 96 -83 110 -219 74 -88 -23 -146 -72 -163 -136 l-11 -40 -41 -2 c-82
    -3 -243 35 -355 84 -29 13 -56 21 -59 19 -19 -20 280 -116 373 -121 38 -1 76
    -3 83 -4 9 -1 12 -12 10 -33 l-3 -33 -92 -3 c-113 -3 -221 22 -340 79 -91 43
    -101 46 -84 25 35 -41 309 -126 408 -126 l55 0 5 -21 c22 -82 73 -130 175
    -164 l47 -16 41 11 c50 13 121 76 145 127 25 52 34 143 19 194 -20 65 -65 104
    -169 144 l-20 8 30 7 c85 21 134 -12 162 -110 21 -75 28 -83 62 -66 14 7 73
    26 131 40 58 15 168 46 245 68 164 47 543 153 735 206 74 20 127 38 117 40
    -16 3 -283 -64 -377 -95 -25 -8 -58 -18 -75 -23 -228 -60 -417 -113 -448 -125
    -65 -26 -62 -32 -59 155 2 99 7 170 12 170 6 0 10 4 10 9 0 5 -9 7 -21 4 -16
    -5 -20 -2 -18 12 4 18 17 22 269 92 50 13 89 33 64 33 -9 0 -230 -60 -291 -79
    l-33 -10 0 40 c0 21 -1 42 -2 47 -2 4 67 26 152 48 332 89 381 104 339 104
    -13 0 -197 -48 -398 -104 -52 -15 -95 -25 -97 -23 -2 2 -8 59 -14 128 -6 68
    -15 158 -19 199 -5 41 -6 78 -2 82 3 3 51 17 106 31 120 30 793 203 850 219
    22 6 35 12 29 15 -11 4 -250 -54 -664 -161 -140 -36 -336 -86 -435 -111 -99
    -25 -214 -54 -255 -66 -41 -11 -80 -21 -87 -23 -16 -3 -29 -16 -16 -16 9 0 17
    -37 29 -150 3 -25 7 -51 9 -58 3 -7 7 -52 10 -100 4 -48 8 -93 10 -99 3 -7 -2
    -13 -10 -13 -8 0 -15 -4 -15 -10 0 -5 9 -10 21 -10 l20 0 -3 -46 -3 -47 -170
    -43 -170 -44 -55 6 c-67 7 -168 33 -176 46 -3 5 6 27 21 50 26 40 29 88 4 88
    -17 0 -308 149 -356 181 -40 28 -103 40 -103 19 0 -5 13 -10 29 -10 18 0 77
    -27 151 -70 116 -67 247 -130 268 -130 21 0 19 -29 -4 -63 -13 -20 -24 -41
    -24 -46 0 -22 -38 -9 -169 54 -137 67 -184 81 -89 27 44 -26 130 -65 246 -113
    22 -9 24 -40 3 -60 -9 -10 -188 75 -335 159 -71 39 -133 72 -140 72 -12 0 6
    -12 131 -85 l81 -48 -11 -23 c-7 -18 -7 -34 1 -60 l11 -36 -15 6 c-22 9 -164
    95 -200 122 l-31 23 -8 93 c-16 186 -8 226 60 286 l37 32 52 -33 c201 -133
    452 -259 589 -296 88 -24 151 -26 244 -9 88 16 89 18 75 224 -13 193 -16 198
    -95 207 -93 10 -299 84 -459 166 -190 97 -195 100 -238 132 -19 14 -43 29 -52
    32 -50 18 1 88 99 139 79 41 285 110 417 139 86 18 221 49 366 83 257 61 393
    93 590 140 124 30 268 64 320 76 52 12 99 26 105 31 13 13 19 14 -280 -56z
    m-1586 -592 l31 -18 -6 -90 c-4 -49 -9 -106 -13 -125 l-7 -35 -59 -32 c-33
    -18 -55 -33 -48 -33 23 0 120 47 126 62 3 8 8 65 12 126 4 62 11 112 16 112
    11 0 11 -12 -5 -170 -12 -132 -13 -133 -61 -115 -73 28 42 -35 320 -176 176
    -89 324 -165 329 -169 14 -14 -3 -60 -22 -60 -117 0 -571 211 -715 333 l-38
    32 25 120 c32 148 64 255 75 255 5 0 23 -8 40 -17z m83 -146 c-3 -73 -1 -95 9
    -99 17 -6 229 43 229 53 0 8 -2 8 -123 -21 -48 -11 -92 -18 -96 -16 -5 3 -7
    29 -5 58 2 29 3 65 4 80 l0 27 134 -68 c141 -72 330 -147 396 -157 l40 -7 0
    -36 c0 -47 -27 -302 -33 -307 -2 -2 -136 63 -298 145 -233 118 -294 153 -292
    168 21 219 28 273 33 273 3 0 4 -42 2 -93z m1181 -177 c9 -74 17 -164 19 -200
    l2 -65 -140 -36 c-76 -20 -168 -45 -204 -56 l-65 -21 -6 37 c-4 20 -12 95 -18
    166 -6 72 -14 149 -17 171 l-6 41 74 23 c118 37 332 88 339 81 4 -3 14 -67 22
    -141z m-492 2 c9 -8 29 -227 29 -306 l0 -55 -21 -11 c-11 -7 -45 -14 -75 -17
    l-54 -6 0 17 c0 18 22 21 51 6 10 -6 19 -7 19 -2 0 5 -14 15 -30 22 l-30 13 5
    46 c2 25 9 96 15 156 6 61 13 121 16 134 l5 23 32 -6 c17 -4 34 -10 38 -14z
    m519 -330 l0 -49 -147 -38 c-289 -73 -263 -72 -263 -14 l0 38 53 14 c28 8 115
    33 192 55 178 51 165 52 165 -6z m0 -80 c0 -14 -20 -23 -97 -44 -54 -15 -146
    -40 -205 -56 l-108 -30 0 19 c0 12 9 21 28 24 15 4 64 18 109 31 105 33 244
    71 261 73 6 0 12 -7 12 -17z m10 -202 l0 -169 -42 -11 c-24 -6 -78 -21 -120
    -32 -42 -11 -83 -18 -90 -15 -8 3 -20 30 -27 60 -15 68 -45 114 -94 146 l-38
    25 3 30 3 29 160 43 c88 23 174 47 190 52 57 19 55 25 55 -158z m-1410 36 c59
    -36 131 -76 159 -90 46 -24 61 -43 45 -58 -8 -9 -197 102 -301 177 -21 15 -31
    35 -17 35 3 0 54 -29 114 -64z m140 24 c0 -16 -4 -30 -10 -30 -5 0 -10 14 -10
    30 0 17 5 30 10 30 6 0 10 -13 10 -30z m132 -27 c48 -23 97 -45 109 -48 l21
    -7 -6 -52 c-4 -28 -10 -54 -14 -58 -4 -3 -50 13 -102 36 l-94 42 3 46 c1 26
    -3 56 -9 68 -7 12 -8 21 -3 18 4 -2 47 -22 95 -45z m-93 -23 c0 -11 -3 -10
    -14 4 -8 11 -15 29 -15 40 l1 21 14 -25 c8 -14 14 -32 14 -40z m-21 -12 c22
    -22 15 -44 -8 -23 -21 19 -26 35 -12 35 4 0 13 -5 20 -12z m314 -42 c26 -8 56
    -20 67 -26 l21 -11 0 -54 c0 -39 -4 -55 -13 -55 -20 0 -120 31 -132 40 -11 9
    -8 120 3 120 4 0 28 -7 54 -14z m455 -71 c7 -3 10 -10 8 -18 -4 -9 5 -13 30
    -14 112 -3 158 -141 92 -273 -74 -149 -221 -174 -284 -49 -13 24 -23 36 -23
    26 0 -10 5 -27 10 -38 14 -26 -4 -25 -30 1 -41 41 -53 108 -21 117 23 6 34 53
    21 88 -7 19 -6 36 5 63 38 90 105 123 192 97z m200 -117 c-3 -7 -5 -2 -5 12 0
    14 2 19 5 13 2 -7 2 -19 0 -25z"/>
    <path d="M7800 5155 c-205 -54 -215 -60 -205 -132 3 -21 10 -87 15 -147 5 -67
    14 -114 22 -122 l13 -14 164 43 164 43 18 24 18 25 -15 135 c-15 131 -31 181
    -57 179 -6 0 -68 -16 -137 -34z m154 -2 c4 -9 11 -64 16 -122 6 -58 12 -118
    15 -134 3 -18 -2 -34 -14 -46 -22 -22 -318 -98 -331 -85 -12 13 -35 303 -24
    314 5 5 52 20 104 34 52 14 115 32 140 40 61 19 87 19 94 -1z"/>
    <path d="M7508 4203 c-78 -82 -59 -213 31 -213 72 0 132 85 117 165 -15 77
    -96 103 -148 48z m109 -5 c49 -46 17 -169 -50 -193 -93 -32 -127 110 -44 187
    35 34 63 35 94 6z"/>
    <path d="M5180 3821 c-5 -11 -10 -71 -10 -134 l0 -115 -16 -13 -16 -13 7 -95
    c4 -53 11 -100 15 -106 5 -5 10 -21 12 -35 2 -19 9 -25 28 -25 19 0 26 6 28
    25 2 14 7 29 12 34 5 4 6 32 3 61 -4 33 -1 55 6 59 17 11 13 74 -6 94 l-18 17
    0 105 c-1 144 -16 193 -45 141z m30 -141 c0 -68 -4 -121 -10 -125 -6 -4 -10
    40 -10 125 0 85 4 129 10 125 6 -4 10 -57 10 -125z m30 -139 c0 -5 -7 -12 -16
    -15 -25 -10 -64 -7 -64 4 0 6 10 8 24 4 13 -3 27 -1 30 5 9 13 26 15 26 2z m0
    -53 c0 -14 -8 -18 -40 -18 -31 0 -40 4 -40 18 0 13 9 17 40 17 l40 1 0 -18z
    m-10 -89 l0 -50 -27 3 -28 3 -3 48 -3 47 30 0 31 0 0 -51z m-10 -84 c0 -8 -7
    -15 -15 -15 -8 0 -15 7 -15 15 0 8 7 15 15 15 8 0 15 -7 15 -15z"/>
    <path d="M3827 3819 c-42 -10 -101 -39 -133 -66 -46 -39 -57 -70 -61 -176 -2
    -56 -9 -121 -15 -144 l-10 -41 25 -54 c13 -29 27 -66 31 -83 29 -123 251 -310
    700 -589 560 -348 1422 -693 1887 -755 105 -14 337 -15 434 -1 106 16 219 54
    244 83 15 19 25 195 14 272 l-8 60 -84 3 c-50 2 -96 -2 -113 -9 -38 -15 -322
    -16 -398 0 -30 6 -113 22 -183 36 -195 39 -595 168 -759 244 -99 46 -168 70
    -168 60 0 -5 8 -12 18 -16 9 -3 42 -17 72 -31 250 -113 696 -256 933 -299 96
    -17 353 -22 570 -10 l107 6 0 -145 0 -144 -19 -19 c-35 -35 -210 -75 -378 -87
    -121 -9 -364 23 -574 76 -110 28 -530 171 -632 216 -44 19 -116 49 -159 65
    -97 38 -98 40 -107 212 l-6 128 -90 39 c-107 46 -342 166 -440 225 -38 23 -88
    51 -111 63 -22 11 -68 39 -102 61 -66 44 -106 56 -58 18 l29 -24 -6 -34 c-4
    -19 -10 -47 -13 -64 -7 -34 11 -24 19 10 3 11 5 -3 6 -32 0 -28 4 -59 7 -67 5
    -12 2 -15 -10 -10 -19 7 -19 4 -6 -30 5 -14 7 -26 4 -26 -3 0 -49 30 -102 67
    -54 36 -124 85 -157 107 -170 115 -289 225 -330 306 l-18 35 27 -24 c37 -35
    43 -19 7 21 -35 40 -81 124 -80 147 0 11 3 9 9 -6 16 -38 60 -103 71 -103 6 0
    2 12 -9 28 -39 57 -63 131 -60 185 l3 52 27 -45 c33 -54 97 -129 98 -114 0 6
    -17 33 -39 60 -108 137 -106 237 5 301 45 26 163 65 175 57 9 -5 -5 -35 -29
    -65 l-13 -17 14 -5 c10 -4 11 -21 6 -78 -12 -117 -11 -127 11 -134 24 -8 26
    -21 3 -29 -30 -12 -92 78 -103 149 l-7 40 -7 -28 c-20 -69 117 -239 301 -373
    176 -127 540 -340 768 -448 190 -91 273 -129 308 -143 34 -14 54 -53 27 -53
    -26 0 -451 207 -625 305 -183 103 -440 267 -538 343 -70 55 -87 50 -20 -5 196
    -161 727 -467 1063 -613 52 -23 105 -48 118 -56 l22 -14 0 149 0 150 84 -40
    c97 -45 170 -53 181 -20 9 29 62 64 143 96 l72 28 0 22 c0 28 -7 33 -100 75
    -150 66 -185 83 -200 96 l-15 13 -73 -31 c-93 -39 -94 -55 -1 -22 39 14 73 23
    76 21 2 -3 -6 -8 -18 -12 -46 -15 -91 -36 -86 -41 3 -3 33 5 68 17 l64 22 107
    -49 c60 -27 108 -51 108 -54 0 -6 -59 -32 -152 -67 l-67 -25 -73 33 c-111 51
    -158 79 -158 95 0 20 17 18 29 -3 8 -13 10 15 11 100 0 65 -4 117 -9 117 -6 0
    -8 -36 -6 -84 l4 -84 -40 -31 -39 -32 0 -49 0 -49 40 -17 40 -18 0 -104 c0
    -79 -3 -103 -12 -99 -82 31 -530 251 -618 303 -25 14 -85 49 -135 76 -146 82
    -377 243 -459 319 l-76 71 22 18 23 18 -18 19 -17 20 0 109 c0 81 4 115 15
    130 8 10 15 27 15 37 0 19 -45 22 -113 6z m1578 -909 c15 0 74 18 133 41 130
    49 125 48 129 27 3 -11 -7 -20 -34 -28 -80 -26 -152 -70 -169 -101 l-16 -31
    -35 5 c-39 7 -249 102 -273 123 l-14 14 17 0 c9 0 68 -22 129 -50 110 -49 151
    -59 163 -40 4 6 -5 10 -20 10 -27 0 -218 77 -261 105 -14 9 -22 20 -19 24 3 5
    59 -15 124 -45 66 -30 132 -54 146 -54z m-950 -17 c136 -80 390 -211 511 -265
    l82 -36 4 -129 c2 -70 3 -131 0 -136 -2 -4 -15 -1 -30 7 -15 9 -83 42 -152 75
    -130 63 -288 148 -450 243 l-95 55 -7 39 c-13 72 -10 238 5 227 6 -6 66 -42
    132 -80z"/>
    <path d="M4887 3773 c-14 -13 -6 -20 17 -16 35 7 42 -15 9 -28 l-28 -11 21 -8
    c12 -5 25 -14 29 -20 11 -18 -15 -30 -42 -19 -28 10 -31 -6 -4 -21 35 -18 80
    19 61 50 -5 8 -6 25 -3 38 8 32 -37 58 -60 35z"/>
    <path d="M4992 3768 c-7 -7 -12 -16 -12 -22 0 -6 5 -5 12 2 7 7 20 12 30 12
    27 0 22 -35 -8 -50 -29 -16 -48 -45 -39 -60 9 -15 88 -13 83 3 -3 6 -17 14
    -32 17 l-28 5 31 23 c47 34 39 82 -13 82 -7 0 -17 -5 -24 -12z"/>
    <path d="M751 3248 c-86 -33 -170 -86 -186 -118 -43 -84 -59 -299 -31 -431 44
    -207 178 -378 464 -591 l113 -84 69 -12 c37 -6 85 -22 106 -34 l37 -22 -73
    -24 c-41 -13 -151 -44 -245 -68 -215 -56 -305 -85 -305 -95 0 -10 54 -39 72
    -39 7 1 0 8 -15 16 -36 19 -35 20 49 43 38 11 107 31 154 44 47 14 149 42 228
    62 78 21 149 43 158 50 l17 12 -54 27 c-88 46 -149 87 -149 102 0 31 -33 7
    -43 -31 -2 -11 -5 3 -6 32 0 28 4 55 9 58 14 9 12 46 -4 64 -18 21 -27 146
    -12 164 15 19 226 93 226 79 0 -4 -31 -31 -70 -61 l-70 -53 0 -128 c0 -74 4
    -131 10 -135 10 -6 23 -9 216 -43 l101 -17 -11 -20 c-6 -11 -11 -21 -12 -23
    -1 -1 -32 4 -70 12 -38 8 -73 11 -77 7 -4 -4 41 -17 100 -29 59 -12 112 -17
    116 -13 5 5 7 27 5 50 l-3 42 -85 3 -85 3 -92 63 -93 64 0 80 1 81 74 58 c41
    32 75 62 75 65 0 13 -15 27 -75 71 -195 144 -436 372 -476 450 l-23 44 29 83
    c19 56 35 84 47 87 10 3 18 12 18 20 0 8 12 18 26 21 45 12 21 31 -42 33 -41
    2 -76 -4 -113 -19z m122 -5 c-7 -2 -13 -10 -13 -17 0 -7 -15 -17 -32 -22 -19
    -6 -42 -23 -55 -43 -55 -81 -10 -185 146 -341 91 -91 304 -270 381 -322 l25
    -16 -18 -7 c-22 -9 -46 3 -124 63 -132 102 -208 168 -295 254 -49 50 -88 82
    -86 73 5 -28 241 -241 402 -365 25 -19 45 -38 46 -42 0 -4 -26 -16 -57 -27
    -32 -12 -69 -27 -83 -34 l-25 -13 0 -77 c1 -42 -1 -77 -3 -77 -9 0 -95 65
    -174 132 -105 89 -175 165 -255 278 -100 141 -132 230 -117 327 l7 48 13 -49
    c18 -71 72 -176 91 -176 l15 0 -22 33 c-70 105 -96 224 -63 286 24 45 84 87
    169 116 56 19 170 36 127 18z m-74 -129 c-18 -45 -24 -53 -29 -38 -8 22 4 61
    27 87 26 28 27 11 2 -49z m-144 -508 c82 -112 219 -246 352 -345 103 -76 125
    -101 88 -101 -22 0 -154 107 -263 214 -100 98 -226 260 -250 321 l-12 30 13
    -19 c6 -11 39 -56 72 -100z m15 -78 c76 -101 163 -192 250 -261 35 -29 76 -63
    90 -76 14 -12 37 -29 53 -37 15 -8 28 -21 28 -29 3 -44 3 -55 -2 -57 -10 -5
    -179 126 -264 203 -153 140 -250 288 -271 414 l-6 30 30 -52 c17 -29 58 -90
    92 -135z m628 -436 l27 -23 -20 5 c-11 3 -37 8 -57 12 l-38 6 0 30 0 29 30
    -18 c17 -9 43 -28 58 -41z m252 -102 c0 -16 -4 -30 -9 -30 -13 0 -24 34 -12
    38 6 2 9 8 5 13 -3 5 0 9 5 9 6 0 11 -13 11 -30z"/>
    <path d="M765 2649 c120 -123 298 -270 311 -257 3 3 -46 46 -108 95 -62 50
    -141 120 -176 157 -35 36 -69 66 -75 66 -6 0 15 -28 48 -61z"/>
    <path d="M1557 3078 c-9 -5 -17 -13 -17 -19 0 -5 9 -4 20 3 15 10 22 10 31 1
    9 -9 5 -20 -20 -48 -43 -49 -41 -65 9 -65 22 0 40 5 40 10 0 6 -14 10 -32 10
    l-32 0 33 34 c18 19 31 42 29 51 -4 23 -39 36 -61 23z"/>
    <path d="M1660 3078 c0 -7 -3 -23 -6 -35 l-6 -23 31 6 31 7 0 -33 0 -32 -31 6
    -31 6 12 -15 c27 -33 70 -10 70 37 0 28 -31 55 -50 43 -6 -3 -10 1 -10 9 0 10
    9 16 25 16 14 0 25 5 25 10 0 6 -13 10 -30 10 -17 0 -30 -5 -30 -12z"/>
    <path d="M6467 3033 c-4 -3 -7 -13 -7 -21 l0 -15 19 17 c20 19 41 14 41 -8 0
    -7 -13 -25 -30 -41 -43 -41 -39 -55 13 -53 l42 1 -32 4 c-39 5 -42 17 -9 38
    47 31 45 85 -3 85 -15 0 -31 -3 -34 -7z"/>
    <path d="M6577 3022 c-20 -22 -22 -83 -5 -100 33 -33 78 -6 78 46 0 66 -38 93
    -73 54z m53 -18 c11 -27 4 -70 -12 -80 -28 -18 -49 46 -28 87 15 26 29 24 40
    -7z"/>
    <path d="M1182 2998 c-19 -19 -14 -29 8 -16 15 10 22 10 32 0 9 -9 4 -20 -25
    -50 -49 -50 -48 -62 8 -62 25 0 45 5 45 10 0 6 -14 10 -32 10 l-32 0 32 33
    c37 38 41 62 13 77 -25 13 -34 13 -49 -2z"/>
    <path d="M1286 2988 c-43 -61 13 -155 62 -106 30 30 -5 89 -44 74 -8 -3 -14
    -2 -14 2 0 14 24 32 43 32 10 0 15 5 12 10 -11 17 -43 11 -59 -12z m52 -71 c4
    -20 -25 -34 -40 -19 -15 15 -1 44 19 40 10 -2 19 -11 21 -21z"/>
    <path d="M6102 2908 c-19 -19 -14 -33 6 -15 47 43 62 1 16 -44 -46 -45 -44
    -59 9 -57 l42 1 -32 4 c-41 5 -41 16 -2 43 39 28 38 73 -1 78 -14 2 -31 -3
    -38 -10z"/>
    <path d="M6207 2913 c-14 -13 -7 -25 8 -13 16 14 45 7 45 -11 0 -6 -9 -13 -20
    -16 -23 -6 -27 -23 -5 -23 21 0 31 -30 14 -40 -7 -5 -21 -4 -30 1 -26 13 -33
    11 -19 -6 29 -34 99 -1 79 37 -6 11 -8 26 -5 34 9 25 -5 44 -33 44 -15 0 -31
    -3 -34 -7z"/>
    <path d="M1670 2855 c-33 -12 -43 -22 -53 -56 -4 -11 -27 -20 -67 -28 -76 -15
    -100 -29 -100 -58 0 -50 47 -62 128 -32 36 14 68 11 83 -7 16 -20 73 -13 100
    12 24 22 25 78 1 123 -24 49 -49 61 -92 46z m65 -35 c23 -26 32 -104 14 -127
    l-14 -16 -6 61 c-4 39 -13 70 -24 82 l-18 20 15 0 c8 0 23 -9 33 -20z m-39
    -15 c25 -38 31 -113 10 -121 -9 -3 -24 -3 -33 1 l-18 7 23 11 c42 19 20 110
    -23 93 -9 -3 -15 0 -15 8 0 34 34 35 56 1z m-8 -52 c2 -14 -4 -26 -18 -33 -22
    -12 -23 -10 -33 38 l-5 23 26 -3 c19 -2 28 -10 30 -25z m-73 -16 c0 -15 -4
    -28 -9 -29 -11 -3 -27 48 -18 57 12 12 27 -3 27 -28z m-37 -20 c-5 -33 -25
    -31 -30 3 -3 16 -2 32 0 35 10 10 33 -19 30 -38z m-43 3 c7 -21 0 -40 -14 -40
    -5 0 -11 14 -13 30 -5 34 17 43 27 10z m-40 -30 c-9 -14 -25 5 -25 30 l0 14
    16 -16 c9 -9 13 -21 9 -28z"/>
    <path d="M2490 2810 c0 -5 5 -10 10 -10 14 0 12 -84 -2 -98 -9 -9 -6 -12 17
    -12 23 0 26 3 17 12 -7 7 -12 36 -12 65 0 40 -4 53 -15 53 -8 0 -15 -4 -15
    -10z"/>
    <path d="M2586 2811 c-4 -6 5 -9 20 -8 34 3 43 -20 13 -32 l-23 -8 22 -12 c12
    -6 22 -18 22 -25 0 -17 -27 -29 -35 -16 -4 6 -13 10 -22 10 l-15 0 12 -15 c13
    -16 47 -20 67 -7 7 4 11 29 10 62 l-2 55 -32 3 c-17 2 -34 -1 -37 -7z"/>
    <path d="M6570 2805 c-14 -7 -27 -23 -30 -35 -4 -18 -22 -28 -83 -49 -86 -29
    -102 -44 -83 -82 14 -28 34 -29 123 -3 l62 18 19 -17 c22 -20 37 -21 79 -7 56
    20 62 91 14 159 -25 34 -59 40 -101 16z m65 -5 c3 -5 -1 -10 -10 -10 -9 0 -13
    5 -10 10 3 6 8 10 10 10 2 0 7 -4 10 -10z m-35 -20 c42 -22 50 -140 10 -140
    -28 0 -34 17 -10 30 38 20 21 90 -22 90 -18 0 -24 11 -11 23 8 9 11 9 33 -3z
    m70 -19 c13 -25 13 -58 1 -66 -11 -6 -25 17 -35 58 -8 33 17 39 34 8z m-64
    -67 c-8 -21 -11 -17 -20 21 l-7 30 17 -17 c10 -10 14 -23 10 -34z m-40 21 c4
    -8 3 -23 0 -32 l-7 -17 -9 14 c-13 20 -12 50 0 50 6 0 13 -7 16 -15z m-36 -36
    c0 -11 -4 -19 -8 -19 -11 0 -32 46 -25 54 10 10 33 -15 33 -35z m-42 -8 c5
    -30 -18 -24 -29 8 l-9 22 18 -3 c9 -2 19 -14 20 -27z m-40 -9 c5 -30 -12 -28
    -27 4 l-11 26 17 -4 c10 -2 19 -13 21 -26z m-43 -3 c8 -23 1 -34 -14 -24 -13
    8 -15 45 -2 45 5 0 13 -9 16 -21z m275 11 c0 -5 -9 -14 -21 -20 l-21 -12 12
    21 c11 22 30 29 30 11z"/>
    <path d="M5615 2770 c-4 -7 2 -9 19 -4 29 7 39 -22 11 -32 -20 -8 -19 -24 0
    -24 21 0 31 -30 14 -40 -7 -5 -21 -4 -30 1 -26 13 -33 11 -19 -6 26 -31 89 -2
    74 34 -3 9 -7 30 -8 46 l-1 30 -27 3 c-14 2 -29 -2 -33 -8z"/>
    <path d="M5722 2768 c-7 -7 -12 -30 -12 -53 0 -44 13 -65 41 -65 41 0 64 64
    39 111 -12 21 -50 25 -68 7z m56 -41 c4 -45 -13 -73 -34 -56 -14 12 -19 80 -7
    93 18 17 38 -1 41 -37z"/>
    <path d="M2090 2759 c-37 -15 -40 -25 -40 -151 l0 -117 23 -16 c80 -58 366
    -214 392 -215 52 0 64 16 27 37 -39 22 -44 37 -40 133 l3 75 28 13 c15 7 27
    17 27 21 0 5 -46 35 -102 66 -57 32 -144 82 -194 111 -50 30 -92 54 -95 53 -2
    0 -15 -5 -29 -10z m186 -99 c85 -50 166 -96 179 -102 30 -14 32 -24 5 -31
    l-20 -5 0 -116 c0 -78 -4 -116 -11 -116 -6 0 -48 22 -93 49 -44 27 -98 57
    -119 67 -25 12 -36 23 -32 32 7 19 -3 52 -17 52 -5 0 -7 -7 -4 -16 12 -31 -5
    -33 -49 -6 l-44 27 0 35 c1 19 3 27 6 18 5 -20 18 -23 28 -8 3 5 -3 18 -15 30
    -11 11 -19 32 -19 48 l2 27 4 -22 c6 -31 23 -29 23 2 0 16 -6 25 -15 25 -10 0
    -15 11 -15 35 l0 35 78 -42 c42 -22 121 -67 175 -100 54 -32 100 -58 102 -58
    30 0 -58 56 -250 160 -74 40 -86 50 -79 61 10 16 23 10 180 -81z m204 -380 c0
    -5 -7 -10 -15 -10 -8 0 -15 5 -15 10 0 6 7 10 15 10 8 0 15 -4 15 -10z"/>
    <path d="M2150 2640 c0 -5 5 -10 10 -10 6 0 10 -8 10 -17 0 -13 3 -14 11 -6 7
    7 9 19 6 27 -7 17 -37 22 -37 6z"/>
    <path d="M2310 2512 c0 -19 12 -42 22 -42 14 0 5 43 -9 48 -7 2 -13 -1 -13 -6z"/>
    <path d="M1290 2741 c-24 -45 -2 -135 40 -164 l23 -16 30 13 c40 16 50 53 32
    112 -18 62 -31 74 -76 74 -28 0 -41 -5 -49 -19z m70 -33 c23 -39 26 -100 5
    -118 l-14 -12 -26 28 c-14 15 -25 34 -25 43 0 11 4 10 16 -7 29 -42 63 -17 44
    33 -11 29 -37 33 -56 8 l-13 -18 -1 18 c0 27 19 57 35 57 9 0 24 -15 35 -32z
    m46 -45 c3 -24 3 -48 -2 -53 -5 -5 -10 10 -11 35 -1 24 -10 57 -20 72 l-17 28
    21 -19 c14 -11 25 -36 29 -63z m-62 1 c4 -9 4 -19 2 -21 -8 -8 -26 8 -26 23 0
    19 16 18 24 -2z"/>
    <path d="M6202 2702 c-45 -7 -51 -85 -11 -151 l19 -31 37 0 38 0 -38 31 c-25
    20 -37 39 -37 55 0 14 4 22 10 19 6 -3 10 -14 10 -24 0 -28 36 -60 61 -54 l21
    6 -5 43 c-8 73 -49 115 -105 106z m38 -54 c11 -18 20 -42 20 -53 0 -14 -5 -10
    -18 15 -20 41 -44 45 -52 10 l-6 -25 -6 23 c-17 62 29 84 62 30z m44 -34 c8
    -24 11 -42 5 -39 -5 4 -9 12 -9 18 0 7 -9 30 -19 50 -12 23 -14 34 -6 27 7 -6
    20 -31 29 -56z m-54 -76 c0 -6 -7 -5 -15 2 -8 7 -15 17 -15 22 0 6 7 5 15 -2
    8 -7 15 -17 15 -22z"/>
    <path d="M7145 2666 c-44 -13 -118 -34 -165 -47 -47 -12 -100 -29 -117 -36
    l-33 -13 0 -29 c0 -56 12 -56 231 5 112 31 210 61 217 67 7 5 12 24 10 41 l-3
    31 -30 2 c-16 1 -66 -8 -110 -21z m121 -1 c11 -27 -2 -37 -14 -11 -7 16 -8 26
    -1 26 5 0 12 -7 15 -15z m-28 -23 c5 -30 -12 -28 -27 4 l-11 26 17 -4 c10 -2
    19 -13 21 -26z m-42 3 c4 -8 3 -23 -1 -32 l-7 -18 -8 20 c-5 11 -9 26 -9 33
    -1 17 18 15 25 -3z m-36 -36 c0 -17 -20 -29 -20 -11 0 4 -3 18 -7 32 l-6 25
    16 -14 c9 -7 17 -22 17 -32z m-45 -8 l0 -24 -64 -18 c-71 -20 -81 -18 -81 15
    l0 23 48 16 c66 23 97 19 97 -12z m-155 -52 c0 -28 -27 -23 -32 6 -3 13 -3 27
    0 30 9 9 32 -17 32 -36z m-47 1 c4 -17 -9 -39 -17 -29 -14 16 -16 49 -3 49 8
    0 17 -9 20 -20z m-43 -21 c0 -11 -4 -17 -10 -14 -5 3 -10 15 -10 26 0 11 5 17
    10 14 6 -3 10 -15 10 -26z"/>
    <path d="M7390 2660 c0 -5 5 -10 10 -10 14 0 12 -84 -2 -98 -9 -9 -4 -12 23
    -11 18 0 28 3 22 6 -9 3 -13 26 -13 64 l0 59 -20 0 c-11 0 -20 -4 -20 -10z"/>
    <path d="M7487 2663 c-27 -27 11 -90 44 -73 15 8 19 7 19 -3 0 -21 -25 -38
    -44 -31 -9 3 -16 1 -16 -5 0 -18 45 -13 63 7 17 19 22 67 11 96 -6 16 -64 23
    -77 9z m61 -31 l3 -22 -25 0 c-19 0 -26 5 -26 18 0 39 43 43 48 4z"/>
    <path d="M5232 2600 c2 -7 60 -34 128 -62 69 -27 143 -57 165 -67 61 -27 245
    -83 263 -79 10 2 -26 18 -78 35 -147 48 -284 99 -373 138 -45 20 -88 39 -96
    42 -8 4 -12 1 -9 -7z"/>
    <path d="M5090 2581 c0 -5 46 -28 103 -52 56 -23 107 -46 112 -50 18 -13 138
    -59 154 -59 22 1 -39 34 -129 69 -41 16 -110 46 -153 65 -86 40 -87 40 -87 27z"/>
    <path d="M5110 2423 c0 -5 14 -16 30 -25 36 -20 39 -38 8 -38 l-23 -1 19 -14
    c25 -19 39 -6 34 31 -2 20 -11 31 -35 41 -18 7 -33 10 -33 6z"/>
    <path d="M1126 2354 c-7 -18 0 -34 16 -34 5 0 8 7 4 15 -3 9 0 15 10 15 8 0
    12 5 9 10 -9 15 -32 12 -39 -6z"/>
    <path d="M5227 2353 c-14 -13 -7 -43 12 -52 10 -6 63 -27 118 -46 54 -20 112
    -42 128 -49 17 -8 107 -38 200 -66 94 -29 178 -56 187 -61 28 -15 230 -58 347
    -75 207 -30 499 -15 608 31 34 15 44 41 18 51 -13 5 -150 -21 -240 -46 l-30
    -8 36 -1 c41 -1 185 26 212 40 11 6 17 6 17 0 0 -58 -420 -88 -655 -47 -181
    31 -816 228 -925 286 -40 21 -12 22 44 1 75 -28 71 -10 -5 23 -68 29 -63 28
    -72 19z"/>
    <path d="M425 2290 c-3 -5 -1 -10 5 -10 8 0 11 -18 8 -55 l-3 -55 25 0 c19 0
    21 3 12 12 -7 7 -12 36 -12 65 0 39 -4 53 -14 53 -8 0 -18 -4 -21 -10z"/>
    <path d="M527 2294 c-4 -4 -7 -14 -7 -23 0 -12 3 -11 14 4 8 11 19 16 30 12
    23 -9 20 -20 -19 -60 -46 -47 -44 -57 8 -56 29 2 34 3 15 6 -35 5 -35 13 -3
    43 34 32 31 74 -5 78 -14 2 -29 0 -33 -4z"/>
    <path d="M6760 2279 c0 -15 35 -19 48 -6 l13 14 -30 -1 c-17 -1 -31 -4 -31 -7z"/>
    <path d="M6860 2269 c-39 -16 -191 -49 -227 -49 -18 0 -33 -4 -33 -10 0 -5 17
    -10 38 -10 45 1 250 54 265 69 14 14 -8 14 -43 0z"/>
    <path d="M1741 2124 c-58 -19 -113 -42 -123 -51 l-18 -16 0 -79 c0 -45 5 -87
    12 -98 l13 -20 -13 -21 c-21 -33 -6 -111 26 -142 23 -21 311 -213 367 -245
    l20 -11 -32 -7 c-18 -3 -33 -10 -33 -15 0 -12 -2 -13 136 26 68 19 128 35 133
    35 5 0 22 5 38 11 l28 11 -24 9 c-13 5 -21 12 -18 16 10 9 57 -26 57 -42 0 -8
    5 -15 11 -15 22 0 2 45 -30 67 -44 30 -51 29 -51 -7 0 -16 -1 -30 -3 -30 -1 0
    -16 -4 -34 -9 l-31 -9 -101 59 c-56 32 -158 95 -228 140 -76 49 -128 78 -131
    71 -4 -14 -22 -6 -22 9 0 6 5 7 10 4 29 -18 5 36 -25 56 -19 13 -35 28 -35 33
    0 5 6 4 13 -2 7 -6 23 -9 35 -6 l21 6 -6 80 -6 80 24 -12 c13 -7 33 -21 44
    -30 47 -42 413 -268 570 -351 l50 -27 10 -98 10 -98 40 -18 c22 -9 45 -19 50
    -21 6 -3 7 -7 3 -11 -3 -4 -20 0 -37 9 -18 9 -36 13 -42 10 -5 -4 -54 16 -108
    44 -60 31 -101 47 -103 40 -2 -6 -16 -11 -31 -11 -33 0 -33 -1 -2 -32 56 -56
    24 -52 -68 9 -21 13 -27 14 -27 4 0 -13 82 -61 328 -191 99 -53 186 -79 418
    -123 72 -14 134 -25 137 -25 4 0 7 25 7 56 l0 56 -37 -7 c-21 -4 -40 -7 -43
    -8 -30 -6 -132 24 -202 59 l-88 44 0 113 c0 127 -4 116 74 181 l58 49 -23 19
    c-13 11 -44 28 -69 39 -138 62 -493 278 -694 422 -43 32 -83 57 -90 56 -6 0
    -58 -16 -115 -35z m204 -42 c163 -118 421 -277 623 -383 l122 -64 -21 -10
    c-16 -7 -31 -4 -63 14 -22 12 -88 48 -146 78 -58 31 -122 67 -142 79 -41 26
    -48 28 -48 15 0 -5 76 -51 170 -101 93 -51 168 -96 165 -100 -3 -5 -28 -16
    -55 -25 -70 -23 -81 -42 -73 -132 l6 -74 -36 21 -37 22 0 89 0 88 -32 17
    c-158 81 -405 231 -588 358 -58 40 -101 64 -112 60 -9 -2 -19 0 -23 6 -3 5
    -12 10 -18 10 -7 -1 -2 -9 11 -19 l22 -19 0 -71 c0 -75 -3 -81 -32 -54 -18 16
    -27 129 -12 166 3 8 42 27 87 42 l82 28 120 -86 c65 -47 123 -83 127 -81 4 3
    -22 26 -59 51 -97 66 -163 120 -156 127 15 15 44 2 118 -52z m-283 -313 c13
    -17 76 -67 142 -110 65 -43 111 -79 103 -79 -10 0 -13 -6 -10 -21 l6 -20 -59
    38 c-33 21 -93 63 -136 93 l-76 55 -4 38 c-4 45 4 47 34 6z m1038 -152 c0 -2
    -27 -25 -60 -50 l-60 -47 0 -149 c0 -83 4 -152 8 -155 5 -3 77 -18 161 -33
    l152 -28 -3 -20 c-4 -25 -4 -25 -200 16 -121 25 -155 35 -147 45 7 8 6 14 -3
    17 -8 4 -7 6 5 6 23 1 22 21 -2 21 -21 0 -35 -25 -25 -43 5 -8 4 -9 -4 -2 -13
    13 -18 104 -7 129 5 11 4 26 -3 37 -7 10 -12 57 -12 103 l0 84 70 27 c38 15
    82 30 97 35 16 5 29 9 31 9 1 1 2 -1 2 -2z m-720 -43 c0 -2 -13 2 -30 11 -16
    9 -30 18 -30 21 0 2 14 -2 30 -11 17 -9 30 -18 30 -21z m34 -73 c53 -30 65
    -42 52 -47 -21 -8 -101 33 -127 65 -22 27 -26 49 -6 33 7 -6 43 -29 81 -51z
    m412 -185 c30 8 61 -25 68 -73 l6 -42 -17 6 c-36 13 -219 117 -240 136 -12 11
    -26 32 -32 48 l-9 28 101 -54 c66 -35 110 -52 123 -49z m-70 48 l19 -15 -25
    12 c-31 14 -36 19 -24 19 6 0 19 -7 30 -16z m110 -29 l19 -14 -23 6 c-12 3
    -25 9 -28 14 -8 14 10 11 32 -6z m194 -105 c40 -22 32 -25 -22 -9 -21 5 -38
    14 -38 19 0 15 21 11 60 -10z m290 -70 c0 -5 -7 -7 -15 -4 -8 4 -15 8 -15 10
    0 2 7 4 15 4 8 0 15 -4 15 -10z m0 -46 c0 -22 -26 -16 -27 5 -1 14 3 18 13 14
    8 -3 14 -11 14 -19z"/>
    <path d="M2044 1869 c-10 -16 16 -30 51 -27 32 3 51 38 20 38 -9 0 -13 -4 -10
    -10 4 -6 -6 -10 -22 -9 l-28 0 20 9 20 9 -22 0 c-12 1 -25 -4 -29 -10z"/>
    <path d="M2420 1572 c0 -5 11 -14 25 -20 29 -14 34 2 6 18 -24 12 -31 13 -31
    2z"/>
    <path d="M2530 1535 c-14 -16 -7 -45 11 -45 6 0 8 7 5 16 -3 8 -2 12 4 9 6 -3
    10 1 10 9 0 22 -16 28 -30 11z"/>
    <path d="M6884 2125 l-19 -14 18 -1 c19 0 23 -26 5 -33 -7 -2 -10 -8 -6 -12
    13 -14 38 17 38 46 0 33 -7 36 -36 14z"/>
    <path d="M3110 2040 c0 -5 5 -10 10 -10 6 0 10 -20 10 -45 0 -25 -4 -45 -10
    -45 -5 0 -10 -4 -10 -10 0 -5 11 -10 25 -10 14 0 25 5 25 10 0 6 -4 10 -10 10
    -5 0 -10 25 -10 55 0 42 -3 55 -15 55 -8 0 -15 -4 -15 -10z"/>
    <path d="M3222 2009 c-28 -52 -28 -59 3 -59 16 0 25 -6 25 -15 0 -21 17 -19
    22 3 8 32 -4 112 -16 112 -7 0 -22 -18 -34 -41z m28 -14 c0 -16 -6 -25 -15
    -25 -18 0 -19 4 -3 30 16 26 18 25 18 -5z"/>
    <path d="M4217 1973 c-4 -3 -7 -13 -7 -21 l0 -15 19 17 c20 19 41 14 41 -8 0
    -7 -12 -23 -26 -37 -14 -13 -30 -32 -35 -41 l-10 -18 48 1 48 2 -40 6 -40 6
    32 24 c38 29 50 56 33 76 -13 15 -51 20 -63 8z"/>
    <path d="M4343 1973 c32 -5 33 -8 7 -68 -23 -53 -23 -55 -12 -55 4 0 13 12 19
    28 6 15 18 44 27 65 l16 37 -42 -1 c-30 -2 -35 -3 -15 -6z"/>
    <path d="M3817 1953 c-4 -3 -7 -13 -7 -21 l0 -15 19 17 c20 19 41 14 41 -8 0
    -7 -12 -23 -26 -37 -14 -13 -30 -32 -35 -41 l-10 -18 46 0 c28 0 44 4 40 10
    -3 6 -18 10 -33 10 l-27 0 33 26 c33 27 40 52 20 72 -13 13 -50 16 -61 5z"/>
    <path d="M3925 1948 c-2 -7 -4 -24 -4 -38 1 -14 -1 -33 -3 -44 -4 -25 23 -40
    56 -32 l26 6 -4 58 c-2 31 -5 58 -5 60 -3 9 -62 0 -66 -10z m53 -21 c2 -12 -3
    -17 -17 -17 -12 0 -21 6 -21 13 0 31 32 34 38 4z m0 -60 c3 -12 -4 -17 -22
    -17 -28 0 -33 9 -14 28 15 15 32 10 36 -11z"/>
    <path d="M1776 1834 c-4 -10 -2 -22 4 -28 7 -7 10 -4 10 9 l0 18 18 -16 c10
    -10 24 -17 31 -17 8 0 10 -7 6 -19 -6 -21 10 -38 20 -22 12 21 -7 57 -38 71
    -18 7 -35 15 -38 17 -4 2 -9 -4 -13 -13z"/>
    <path d="M3093 1843 c-65 -13 -79 -102 -28 -183 25 -40 56 -51 99 -34 32 12
    78 95 72 128 -7 35 -33 66 -55 66 -9 0 -25 7 -35 15 -11 8 -22 14 -25 14 -3
    -1 -16 -4 -28 -6z m55 -34 c25 -26 46 -127 31 -146 -19 -22 -24 -15 -25 36 -1
    31 -9 63 -22 86 -12 20 -22 38 -22 41 0 11 21 2 38 -17z m-44 -12 c15 -24 -2
    -34 -19 -11 l-16 19 3 -19 c2 -10 -3 -21 -9 -23 -16 -6 -17 12 -2 38 12 23 27
    21 43 -4z m116 -58 c0 -16 -4 -29 -10 -29 -5 0 -10 8 -10 18 0 9 -3 28 -7 42
    l-6 25 16 -14 c9 -7 17 -26 17 -42z m-120 -14 c0 -2 -9 -9 -20 -15 -12 -6 -20
    -7 -20 -1 0 5 8 12 18 14 9 3 18 5 20 6 1 0 2 -1 2 -4z m33 -1 c-8 -4 -9 -13
    -1 -35 7 -21 7 -33 -2 -44 -18 -22 -40 -7 -39 29 l0 31 8 -20 c5 -11 7 -23 5
    -27 -3 -4 0 -9 5 -12 5 -3 11 3 14 14 3 11 1 23 -4 26 -17 10 -10 44 9 43 9 0
    12 -3 5 -5z"/>
    <path d="M5834 1831 c9 -13 146 -48 286 -72 84 -14 188 -23 315 -26 l190 -5
    105 21 c62 12 129 33 163 50 l57 30 10 -18 c50 -94 -329 -169 -672 -132 -108
    12 -285 45 -395 75 -29 8 -55 10 -58 6 -3 -5 3 -11 12 -13 39 -11 154 -38 268
    -62 l120 -26 208 -6 207 -6 0 -133 c0 -74 -4 -134 -8 -134 -12 0 -32 -46 -32
    -71 0 -34 28 -76 56 -83 14 -4 29 -5 31 -2 8 8 -17 74 -30 80 -8 3 -9 7 -2 13
    6 4 15 23 22 41 l12 33 -15 6 c-10 3 -14 21 -14 59 l0 54 65 0 c37 0 65 4 65
    10 0 6 -28 10 -65 10 l-66 0 3 62 3 63 45 6 c50 7 117 28 192 61 57 24 81 60
    65 95 -13 28 -36 29 -86 4 -197 -101 -552 -104 -939 -7 -113 28 -126 30 -118
    17z m822 -490 c-20 -22 -21 -47 -1 -55 8 -3 15 -15 15 -27 l0 -21 -14 11 c-8
    6 -19 25 -26 41 l-12 29 23 32 c13 19 25 27 27 20 2 -7 -3 -20 -12 -30z"/>
    <path d="M4215 1795 c-46 -16 -65 -38 -65 -74 1 -36 35 -107 57 -120 23 -12
    92 2 105 21 31 48 17 130 -27 163 l-30 23 -40 -13z m60 -25 c3 -6 -5 -10 -19
    -10 -14 0 -28 5 -31 10 -3 6 5 10 19 10 14 0 28 -4 31 -10z m-35 -57 c0 -13 5
    -33 10 -43 12 -22 -6 -60 -27 -60 -29 0 -61 106 -43 139 l11 21 24 -16 c15
    -10 25 -26 25 -41z m60 28 c0 -5 3 -23 6 -41 l7 -32 -23 4 c-29 4 -50 55 -29
    69 18 11 39 11 39 0z m-2 -103 c-3 -7 -13 -15 -24 -17 l-18 -3 13 16 c16 19
    34 21 29 4z"/>
    <path d="M4194 1715 c12 -9 19 -26 18 -45 0 -17 4 -28 9 -25 27 17 2 85 -30
    85 l-16 -1 19 -14z"/>
    <path d="M852 1753 c-12 -2 -33 -19 -47 -37 -52 -68 -19 -136 67 -136 94 0
    125 109 47 164 -24 16 -27 17 -67 9z m41 -20 c-7 -2 -19 -2 -25 0 -7 3 -2 5
    12 5 14 0 19 -2 13 -5z m-44 -35 c-11 -20 -36 -34 -45 -25 -3 3 2 17 11 31 20
    30 51 26 34 -6z m92 -10 l12 -22 -18 -33 c-10 -18 -23 -33 -29 -33 -6 0 -21
    -3 -33 -6 l-21 -6 -6 29 c-10 45 18 93 54 93 20 0 33 -7 41 -22z m-115 -75
    c-4 -4 -11 -1 -16 7 -16 25 -11 35 7 17 9 -9 13 -20 9 -24z"/>
    <path d="M901 1681 c17 -26 4 -55 -21 -48 -22 6 -28 -8 -6 -16 36 -14 71 44
    44 71 -19 19 -30 14 -17 -7z"/>
    <path d="M3950 1485 l0 -265 60 -30 c33 -16 62 -30 65 -30 3 0 4 118 3 262
    l-3 262 -59 33 c-32 18 -60 33 -62 33 -2 0 -4 -119 -4 -265z m70 210 l40 -25
    0 -240 c0 -132 -2 -240 -5 -240 -3 0 -23 9 -44 20 -30 15 -40 27 -44 52 -11
    61 -8 458 3 458 6 0 28 -11 50 -25z"/>
    <path d="M4006 1671 c-10 -16 3 -51 20 -51 18 0 18 21 1 45 -10 12 -16 15 -21
    6z"/>
    <path d="M4008 1278 c8 -8 9 -15 1 -25 -12 -13 15 -32 28 -20 11 12 -8 57 -24
    57 -13 0 -14 -3 -5 -12z"/>
    <path d="M2887 1684 c-95 -26 -107 -31 -107 -43 0 -10 200 46 215 60 14 14
    -11 10 -108 -17z"/>
    <path d="M1042 1650 c-44 -27 -72 -76 -72 -127 l0 -42 33 -25 c59 -45 137 -24
    170 47 30 62 17 111 -39 148 -37 24 -51 24 -92 -1z m-11 -40 c-17 -18 -34 -48
    -39 -73 -6 -24 -10 -32 -11 -19 -2 34 24 87 50 106 34 24 34 20 0 -14z m124 0
    c26 -28 15 -93 -22 -132 l-28 -29 -40 3 c-31 2 -42 8 -52 29 -39 81 84 193
    142 129z"/>
    <path d="M1067 1562 c-38 -42 4 -91 43 -52 23 23 25 41 8 58 -17 17 -32 15
    -51 -6z m38 -12 c10 -16 -16 -43 -28 -31 -11 11 -2 41 12 41 5 0 13 -5 16 -10z"/>
    <path d="M505 1620 c-3 -5 -1 -10 4 -10 14 0 14 -83 0 -97 -15 -15 1 -21 31
    -12 14 4 19 7 13 8 -9 1 -13 20 -13 61 0 46 -3 60 -14 60 -8 0 -18 -4 -21 -10z"/>
    <path d="M595 1620 c3 -5 17 -10 30 -10 l25 0 -25 -55 c-13 -30 -19 -55 -14
    -55 10 0 59 101 59 120 0 6 -18 10 -41 10 -24 0 -38 -4 -34 -10z"/>
    <path d="M6907 1537 c-26 -18 -34 -89 -12 -110 35 -35 83 -9 71 38 -5 20 -13
    25 -36 25 -17 0 -30 4 -30 9 0 16 27 31 45 25 13 -5 16 -3 13 7 -6 19 -30 22
    -51 6z m41 -85 c3 -16 -2 -22 -17 -22 -24 0 -35 15 -27 36 9 23 40 13 44 -14z"/>
    <path d="M1206 1484 c-31 -30 -18 -50 65 -98 25 -14 51 -37 57 -51 12 -25 78
    -65 110 -65 24 0 58 37 72 76 23 67 -38 123 -120 109 -29 -5 -49 -1 -89 19
    -59 30 -74 32 -95 10z m34 -24 c-9 -17 -30 -28 -30 -16 0 16 15 36 26 36 12 0
    12 -4 4 -20z m44 2 c2 -4 -2 -18 -9 -32 l-14 -25 -6 18 c-12 30 13 64 29 39z
    m32 -28 c-3 -9 -6 -20 -6 -25 0 -5 -4 -9 -10 -9 -11 0 -14 33 -3 43 12 13 25
    7 19 -9z m124 6 c11 -7 6 -10 -20 -10 -26 0 -31 3 -20 10 8 5 17 10 20 10 3 0
    12 -5 20 -10z m-53 -36 c2 -5 -3 -19 -11 -29 -21 -29 -43 -6 -24 24 13 21 29
    23 35 5z m106 -6 c13 -20 3 -58 -23 -86 -28 -30 -52 -28 -72 8 l-17 29 12 25
    c7 13 25 29 42 34 36 12 46 10 58 -10z m-113 -80 c0 -6 -6 -5 -15 2 -8 7 -15
    14 -15 16 0 2 7 1 15 -2 8 -4 15 -11 15 -16z"/>
    <path d="M1675 1429 c-57 -17 -73 -84 -35 -147 39 -64 104 -63 140 2 16 29 27
    35 108 56 l42 11 0 28 c0 15 -8 35 -18 44 l-18 17 -70 -19 -69 -20 -21 20
    c-11 10 -22 19 -25 18 -2 0 -17 -5 -34 -10z m67 -49 c10 -19 18 -52 18 -72 0
    -37 -13 -57 -25 -38 -5 7 -11 6 -19 -5 -16 -22 -41 -10 -60 30 -21 43 -21 94
    -1 102 18 6 55 -23 55 -44 0 -7 5 -13 10 -13 15 0 12 11 -10 48 l-21 34 18 -4
    c10 -2 26 -19 35 -38z m168 2 l-1 -27 -13 25 c-15 25 -12 45 5 35 5 -4 9 -18
    9 -33z m-35 7 c4 -12 2 -26 -4 -32 -13 -13 -16 -10 -25 26 -8 33 19 39 29 6z
    m-75 -40 c0 -17 -20 -29 -20 -11 0 4 -3 18 -7 32 l-6 25 16 -14 c9 -7 17 -22
    17 -32z m34 25 c3 -9 4 -20 0 -25 -10 -16 -22 -9 -26 16 -6 28 16 36 26 9z"/>
    <path d="M1650 1361 c0 -6 5 -13 11 -17 6 -3 9 -17 6 -31 -3 -17 -1 -23 9 -19
    7 3 15 0 17 -7 2 -7 7 -9 11 -5 4 3 3 16 -4 28 -6 11 -8 30 -5 40 7 22 -10 28
    -18 8 -4 -10 -6 -10 -6 0 -1 14 -21 17 -21 3z"/>
    <path d="M3096 1324 c-55 -18 -104 -38 -110 -44 -17 -17 -8 -173 11 -187 l16
    -13 -11 -24 c-6 -14 -8 -48 -5 -81 l6 -57 46 -29 c119 -76 486 -244 686 -315
    73 -26 286 -86 390 -109 168 -39 447 -41 576 -5 l36 10 17 58 c9 32 16 71 16
    87 0 16 6 36 13 44 8 9 21 51 30 94 l17 78 -15 29 -16 30 -35 0 c-23 0 -51 11
    -79 30 l-44 30 -123 0 c-314 0 -675 108 -1135 339 -79 39 -153 71 -165 70 -13
    0 -68 -16 -122 -35z m216 -20 c44 -25 114 -60 156 -79 42 -18 115 -51 162 -73
    111 -52 429 -157 550 -182 132 -27 269 -41 373 -39 l88 2 47 -34 c26 -19 59
    -33 76 -34 43 0 50 -20 36 -102 -16 -96 -20 -100 -124 -118 -238 -41 -531 -3
    -882 115 -111 37 -226 79 -255 93 -30 13 -94 41 -144 62 -80 32 -369 178 -387
    194 -3 3 -10 38 -13 78 l-7 71 32 17 c18 10 58 26 87 36 l55 19 41 -22 c23
    -11 53 -28 66 -37 36 -24 255 -121 260 -115 6 6 11 4 -174 93 -127 61 -166 84
    -155 91 23 15 27 13 112 -36z m-192 -275 c112 -60 382 -182 495 -223 55 -20
    123 -46 150 -56 121 -47 353 -103 502 -121 74 -9 374 -7 453 3 l25 3 3 -33 c2
    -19 -5 -52 -17 -77 l-20 -42 -73 -18 c-247 -58 -766 48 -1188 243 -36 17 -105
    48 -153 71 -101 46 -268 139 -280 155 -11 16 -4 82 8 77 6 -3 84 -40 174 -84
    355 -170 725 -299 985 -343 192 -32 536 -27 536 8 0 7 -11 8 -32 2 -61 -16
    -384 -11 -493 9 -323 57 -667 178 -1035 365 -137 70 -145 75 -136 91 10 16 13
    15 96 -30z"/>
    <path d="M3010 1243 c1 -10 252 -132 380 -185 52 -22 100 -43 105 -47 28 -22
    424 -152 548 -181 102 -24 262 -47 387 -55 100 -7 336 17 354 35 13 13 7 13
    -99 -6 -173 -31 -495 -3 -705 61 -47 15 -137 42 -200 62 -141 43 -392 146
    -603 247 -166 80 -167 80 -167 69z"/>
    <path d="M805 1330 c-3 -5 1 -10 9 -10 20 0 23 -95 4 -103 -7 -3 1 -5 17 -5
    17 0 24 2 18 5 -9 3 -13 26 -13 64 0 45 -3 59 -14 59 -8 0 -18 -4 -21 -10z"/>
    <path d="M903 1329 c-8 -8 -9 -18 -2 -30 6 -13 6 -25 -3 -38 -16 -26 5 -51 43
    -51 28 0 56 30 41 44 -3 4 -6 24 -7 44 l0 37 -30 3 c-17 2 -35 -2 -42 -9z m53
    -10 c10 -17 -13 -36 -27 -22 -12 12 -4 33 11 33 5 0 12 -5 16 -11z m3 -63 c9
    -10 8 -16 -4 -26 l-16 -13 -16 15 c-16 17 -10 38 11 38 8 0 19 -6 25 -14z"/>
    <path d="M1282 1164 c-39 -27 -40 -107 -1 -119 48 -16 80 21 53 62 -12 19 -21
    23 -40 19 -13 -4 -24 -2 -24 3 0 12 22 28 45 33 l20 4 -16 6 c-9 4 -26 0 -37
    -8z m36 -78 c6 -29 -15 -43 -35 -24 l-16 17 13 16 c16 19 34 15 38 -9z"/>
    <path d="M1160 1160 c0 -5 5 -10 11 -10 7 0 10 -20 7 -55 l-3 -55 25 1 c14 0
    19 3 13 6 -9 3 -13 26 -13 64 l0 59 -20 0 c-11 0 -20 -4 -20 -10z"/>
    <path d="M1747 1103 c-4 -3 -7 -19 -7 -34 l0 -28 30 6 30 6 0 -27 c0 -31 -24
    -44 -47 -25 l-16 14 4 -14 c16 -48 72 -35 77 17 3 31 -26 60 -48 47 -6 -3 -10
    1 -10 9 0 10 9 16 26 16 14 0 23 4 19 10 -7 11 -48 14 -58 3z"/>
    <path d="M1649 1091 c10 -6 12 -24 9 -65 l-5 -56 20 0 c13 0 17 5 13 16 -3 9
    -6 38 -6 65 l0 49 -22 0 c-17 0 -19 -3 -9 -9z"/>
    <path d="M2295 1060 c-3 -5 -1 -10 4 -10 16 0 14 -97 -1 -103 -7 -3 3 -5 22
    -5 19 0 29 2 23 5 -9 3 -13 26 -13 64 0 45 -3 59 -14 59 -8 0 -18 -4 -21 -10z"/>
    <path d="M2390 1051 c-24 -46 -5 -111 33 -111 34 0 47 19 47 65 0 23 -5 46
    -12 53 -18 18 -56 14 -68 -7z m54 -7 c9 -23 7 -67 -3 -83 l-9 -15 -16 13 c-26
    22 -19 101 9 101 7 0 16 -7 19 -16z"/>
    <path d="M3555 450 c-3 -5 -1 -10 4 -10 16 0 14 -97 -1 -103 -7 -3 -1 -6 13
    -6 l26 -1 -4 53 c-3 28 -6 58 -8 65 -5 15 -21 16 -30 2z"/>
    <path d="M3660 451 c0 -6 5 -13 10 -16 14 -9 13 -78 -2 -93 -9 -9 -6 -12 17
    -12 23 0 26 3 17 12 -7 7 -12 36 -12 65 0 40 -4 53 -15 53 -8 0 -15 -4 -15 -9z"/>
    </g>
  </g>
  <g id="labels" font-family="Helvetica, Arial, sans-serif" fill="#111" font-size="14" text-rendering="geometricPrecision" opacity="0" pointer-events="none">
      <a id="pos-6" href="#pos-6"><text data-pos="6" x="692" y="492" text-anchor="middle" dominant-baseline="middle" font-size="12" font-weight="600">6</text></a>
      <a id="pos-10" href="#pos-10"><text data-pos="10" x="236" y="539" text-anchor="middle" dominant-baseline="middle" font-size="12" font-weight="600">10</text></a>
      <a id="pos-11" href="#pos-11"><text data-pos="11" x="367" y="602" text-anchor="middle" dominant-baseline="middle" font-size="12" font-weight="600">11</text></a>
      <a id="pos-12" href="#pos-12"><text data-pos="12" x="54" y="415" text-anchor="middle" dominant-baseline="middle" font-size="12" font-weight="600">12</text></a>
      <a id="pos-13" href="#pos-13"><text data-pos="13" x="261" y="367" text-anchor="middle" dominant-baseline="middle" font-size="12" font-weight="600">13</text></a>
      <a id="pos-14" href="#pos-14"><text data-pos="14" x="320" y="438" text-anchor="middle" dominant-baseline="middle" font-size="12" font-weight="600">14</text></a>
      <a id="pos-15" href="#pos-15"><text data-pos="15" x="177" y="534" text-anchor="middle" dominant-baseline="middle" font-size="12" font-weight="600">15</text></a>
      <a id="pos-16" href="#pos-16"><text data-pos="16" x="122" y="531" text-anchor="middle" dominant-baseline="middle" font-size="12" font-weight="600">16</text></a>
      <a id="pos-17" href="#pos-17"><text data-pos="17" x="59" y="483" text-anchor="middle" dominant-baseline="middle" font-size="12" font-weight="600">17</text></a>
      <a id="pos-18" href="#pos-18"><text data-pos="18" x="92" y="514" text-anchor="middle" dominant-baseline="middle" font-size="12" font-weight="600">18</text></a>
      <a id="pos-19" href="#pos-19"><text data-pos="19" x="746" y="378" text-anchor="middle" dominant-baseline="middle" font-size="12" font-weight="600">19</text></a>
      <a id="pos-20" href="#pos-20"><text data-pos="20" x="659" y="343" text-anchor="middle" dominant-baseline="middle" font-size="12" font-weight="600">20</text></a>
      <a id="pos-23" href="#pos-23"><text data-pos="23" x="621" y="355" text-anchor="middle" dominant-baseline="middle" font-size="12" font-weight="600">23</text></a>
      <a id="pos-25" href="#pos-25"><text data-pos="25" x="166" y="338" text-anchor="middle" dominant-baseline="middle" font-size="12" font-weight="600">25</text></a>
      <a id="pos-26" href="#pos-26"><text data-pos="26" x="128" y="347" text-anchor="middle" dominant-baseline="middle" font-size="12" font-weight="600">26</text></a>
      <a id="pos-27" href="#pos-27"><text data-pos="27" x="430" y="447" text-anchor="middle" dominant-baseline="middle" font-size="12" font-weight="600">27</text></a>
      <a id="pos-28" href="#pos-28"><text data-pos="28" x="388" y="450" text-anchor="middle" dominant-baseline="middle" font-size="12" font-weight="600">28</text></a>
      <a id="pos-30" href="#pos-30"><text data-pos="30" x="569" y="367" text-anchor="middle" dominant-baseline="middle" font-size="12" font-weight="600">30</text></a>
      <a id="pos-32" href="#pos-32"><text data-pos="32" x="493" y="270" text-anchor="middle" dominant-baseline="middle" font-size="12" font-weight="600">32</text></a>
      <a id="pos-37" href="#pos-37"><text data-pos="37" x="464" y="252" text-anchor="middle" dominant-baseline="middle" font-size="12" font-weight="600">37</text></a>
      <a id="pos-41" href="#pos-41"><text data-pos="41" x="438" y="292" text-anchor="middle" dominant-baseline="middle" font-size="12" font-weight="600">41</text></a>
      <a id="pos-46" href="#pos-46"><text data-pos="46" x="569" y="254" text-anchor="middle" dominant-baseline="middle" font-size="12" font-weight="600">46</text></a>
      <a id="pos-51" href="#pos-51"><text data-pos="51" x="540" y="263" text-anchor="middle" dominant-baseline="middle" font-size="12" font-weight="600">51</text></a>
      <a id="pos-58" href="#pos-58"><text data-pos="58" x="611" y="182" text-anchor="middle" dominant-baseline="middle" font-size="12" font-weight="600">58</text></a>
      <a id="pos-60" href="#pos-60"><text data-pos="60" x="804" y="447" text-anchor="middle" dominant-baseline="middle" font-size="12" font-weight="600">60</text></a>
      <a id="pos-65" href="#pos-65"><text data-pos="65" x="425" y="591" text-anchor="middle" dominant-baseline="middle" font-size="12" font-weight="600">65</text></a>
      <a id="pos-72" href="#pos-72"><text data-pos="72" x="829" y="299" text-anchor="middle" dominant-baseline="middle" font-size="12" font-weight="600">72</text></a>
      <a id="pos-77" href="#pos-77"><text data-pos="77" x="795" y="308" text-anchor="middle" dominant-baseline="middle" font-size="12" font-weight="600">77</text></a>
      <a id="pos-83" href="#pos-83"><text data-pos="83" x="929" y="219" text-anchor="middle" dominant-baseline="middle" font-size="12" font-weight="600">83</text></a>
      <a id="pos-87" href="#pos-87"><text data-pos="87" x="501" y="441" text-anchor="middle" dominant-baseline="middle" font-size="12" font-weight="600">87</text></a>
      <a id="pos-90" href="#pos-90"><text data-pos="90" x="181" y="293" text-anchor="middle" dominant-baseline="middle" font-size="12" font-weight="600">90</text></a>
      <a id="pos-95" href="#pos-95"><text data-pos="95" x="355" y="440" text-anchor="middle" dominant-baseline="middle" font-size="12" font-weight="600">95</text></a>
      <a id="pos-98" href="#pos-98"><text data-pos="98" x="384" y="551" text-anchor="middle" dominant-baseline="middle" font-size="12" font-weight="600">98</text></a>
      <a id="pos-104" href="#pos-104"><text data-pos="104" x="340" y="533" text-anchor="middle" dominant-baseline="middle" font-size="12" font-weight="600">104</text></a>
      <a id="pos-108" href="#pos-108"><text data-pos="108" x="166" y="552" text-anchor="middle" dominant-baseline="middle" font-size="12" font-weight="600">108</text></a>
      <a id="pos-111" href="#pos-111"><text data-pos="111" x="132" y="524" text-anchor="middle" dominant-baseline="middle" font-size="12" font-weight="600">111</text></a>
      <a id="pos-112" href="#pos-112"><text data-pos="112" x="200" y="578" text-anchor="middle" dominant-baseline="middle" font-size="12" font-weight="600">112</text></a>
      <a id="pos-113" href="#pos-113"><text data-pos="113" x="388" y="457" text-anchor="middle" dominant-baseline="middle" font-size="12" font-weight="600">113</text></a>
      <a id="pos-118" href="#pos-118"><text data-pos="118" x="178" y="462" text-anchor="middle" dominant-baseline="middle" font-size="12" font-weight="600">118</text></a>
      <a id="pos-124" href="#pos-124"><text data-pos="124" x="487" y="209" text-anchor="middle" dominant-baseline="middle" font-size="12" font-weight="600">124</text></a>
      <a id="pos-130" href="#pos-130"><text data-pos="130" x="309" y="145" text-anchor="middle" dominant-baseline="middle" font-size="12" font-weight="600">130</text></a>
      <a id="pos-132" href="#pos-132"><text data-pos="132" x="309" y="107" text-anchor="middle" dominant-baseline="middle" font-size="12" font-weight="600">132</text></a>
  </g>
</svg>
