<svg xmlns="http://www.w3.org/2000/svg" width="960" height="640" viewBox="0 0 960 640" role="img" aria-labelledby="title desc">
  <title id="title">Mercedes parts diagram: group-005</title>
  <desc id="desc">Mercedes parts diagram: group-005</desc>
  <g id="art">
    <metadata>
    Created by potrace 1.16, written by Peter Selinger 2001-2019
    </metadata>
    <g transform="translate(0.000000,640.000000) scale(0.100000,-0.100000)"
    fill="#000000" stroke="none">
    <path d="M5233 5279 c-29 -10 -30 -45 -3 -54 16 -5 20 -15 20 -49 0 -24 6 -48
    13 -54 6 -5 111 -60 232 -121 l221 -111 -1 -27 0 -28 130 -68 c72 -38 186 -97
    255 -132 69 -36 136 -71 150 -79 14 -8 135 -72 270 -142 135 -70 278 -144 319
    -165 73 -39 114 -48 126 -29 15 24 75 1 335 -131 l278 -141 31 7 31 7 0 29 0
    30 20 -6 c23 -7 60 10 60 28 0 7 -20 23 -44 34 -24 12 -122 68 -218 124 -330
    194 -711 400 -1083 585 -320 160 -577 278 -821 379 -83 34 -156 65 -162 69
    -40 24 -139 53 -159 45z m188 -80 c91 -37 126 -55 122 -65 -6 -15 12 -19 21
    -5 9 14 267 -102 261 -118 -4 -10 1 -12 20 -7 16 4 41 -2 72 -18 27 -13 97
    -45 156 -72 70 -30 104 -50 95 -55 -7 -4 -9 -11 -5 -15 4 -4 12 -3 18 3 9 9
    62 -14 202 -84 140 -71 186 -98 172 -103 -13 -5 -15 -9 -6 -14 6 -4 18 -2 26
    4 11 9 31 2 97 -34 46 -25 116 -63 156 -83 39 -21 72 -41 72 -46 0 -4 -4 -5
    -10 -2 -5 3 -10 1 -10 -4 0 -13 27 -15 32 -2 2 5 35 -9 73 -31 39 -22 109 -61
    158 -85 78 -40 106 -63 77 -63 -5 0 -10 -4 -10 -10 0 -5 7 -10 15 -10 8 0 15
    6 15 14 0 25 263 -135 265 -161 l2 -21 -21 8 c-12 5 -83 44 -158 87 -402 228
    -544 305 -874 471 -199 100 -397 197 -440 216 -44 19 -119 53 -169 76 -49 24
    -124 57 -165 75 -307 133 -414 183 -418 193 -7 22 31 12 159 -39z m-50 -35
    c46 -20 89 -40 94 -44 6 -4 69 -32 140 -63 197 -83 186 -77 183 -106 -2 -19
    -11 -27 -37 -34 l-35 -9 -160 83 c-89 45 -189 97 -223 116 l-63 35 0 29 c0 36
    -1 36 101 -7z m967 -486 c284 -144 547 -277 585 -295 39 -19 67 -39 67 -48 0
    -8 -3 -15 -6 -15 -3 0 -101 49 -217 109 -117 61 -381 195 -587 300 -335 169
    -408 211 -370 211 6 0 244 -118 528 -262z m-18 47 c424 -213 606 -308 625
    -327 6 -6 -230 110 -522 257 -293 147 -533 269 -533 271 0 9 167 -69 430 -201z
    m-445 140 c53 -29 372 -191 913 -465 89 -45 164 -86 167 -90 15 -25 -33 -11
    -130 37 -318 156 -1063 548 -1059 555 8 12 39 2 109 -37z m128 -115 c139 -72
    272 -141 297 -155 25 -14 96 -50 159 -80 63 -30 112 -58 109 -61 -3 -3 -29 7
    -58 21 -29 14 -55 24 -58 21 -6 -7 -11 -4 63 -41 56 -28 74 -31 68 -13 -2 5
    -2 8 0 8 8 -1 251 -129 244 -130 -4 0 -25 9 -47 20 -44 22 -54 25 -45 10 6
    -10 118 -70 131 -70 3 0 4 6 1 14 -5 11 0 11 24 -2 19 -11 29 -25 29 -40 l0
    -23 -277 142 c-153 78 -314 161 -358 184 -237 127 -288 153 -375 197 -52 26
    -83 45 -67 42 38 -9 34 1 -15 30 -30 18 -46 22 -55 15 -6 -6 -17 -8 -23 -4
    -10 6 -14 45 -5 45 3 0 119 -59 258 -130z m1117 -445 c150 -95 362 -205 399
    -207 31 -1 41 -6 45 -22 8 -28 7 -81 0 -89 -4 -3 -129 56 -279 131 l-273 137
    -3 56 -4 57 40 -20 c22 -12 55 -31 75 -43z m-130 -32 c0 -20 -3 -24 -11 -16
    -7 7 -9 19 -6 27 10 24 17 19 17 -11z m-32 -20 c-5 -25 -28 -28 -28 -4 0 12 6
    21 16 21 9 0 14 -7 12 -17z m597 -133 c3 -5 -3 -10 -15 -10 -12 0 -18 5 -15
    10 3 6 10 10 15 10 5 0 12 -4 15 -10z m65 -115 c0 -13 -5 -27 -11 -30 -14 -9
    -15 -7 -23 38 l-7 38 20 -11 c12 -6 21 -21 21 -35z"/>
    <path d="M6040 4702 c0 -12 108 -67 116 -60 3 4 -18 20 -48 37 -56 32 -68 36
    -68 23z"/>
    <path d="M6630 4900 c0 -5 5 -10 10 -10 15 0 13 -97 -2 -103 -7 -3 3 -6 22 -6
    l35 0 -17 10 c-14 8 -18 23 -18 64 0 42 -4 55 -15 55 -8 0 -15 -4 -15 -10z"/>
    <path d="M6740 4900 c0 -5 5 -10 10 -10 15 0 13 -97 -2 -103 -7 -3 1 -5 17 -5
    17 0 24 2 18 5 -9 3 -13 26 -13 64 0 46 -3 59 -15 59 -8 0 -15 -4 -15 -10z"/>
    <path d="M5311 4703 c-30 -25 -45 -84 -43 -170 1 -40 -2 -73 -7 -73 -4 0 -32
    -30 -60 -67 -68 -89 -88 -114 -336 -419 -116 -143 -221 -274 -234 -291 -14
    -22 -31 -33 -46 -33 -27 0 -173 -32 -250 -55 -27 -8 -126 -30 -220 -50 -93
    -20 -217 -47 -275 -61 -58 -14 -204 -48 -325 -75 -121 -27 -283 -65 -360 -84
    -77 -19 -239 -57 -360 -85 -121 -27 -287 -65 -370 -85 -82 -19 -199 -47 -260
    -61 -132 -31 -308 -90 -390 -132 -87 -44 -112 -75 -119 -143 -2 -30 -12 -73
    -20 -95 -9 -21 -27 -97 -42 -169 -30 -149 -33 -156 -85 -210 -44 -46 -70 -136
    -52 -178 14 -32 17 -193 4 -201 -6 -4 -15 -25 -21 -47 l-11 -39 17 -36 c21
    -43 131 -120 321 -222 199 -107 341 -153 469 -153 l74 0 0 -21 c0 -12 12 -41
    26 -65 l25 -44 71 -34 c79 -39 111 -42 165 -20 126 53 196 207 147 323 -14 35
    -70 102 -85 102 -3 0 -28 10 -55 22 l-49 22 45 8 c68 12 98 -4 126 -69 13 -29
    24 -59 24 -66 0 -7 7 -22 15 -34 l15 -21 52 19 c29 10 114 34 188 54 74 20
    169 47 210 60 41 13 161 47 265 75 105 28 217 60 250 70 167 53 400 111 403
    102 16 -49 86 -93 208 -132 105 -34 172 -14 233 70 87 121 49 283 -74 315
    l-30 7 20 8 c65 27 138 -12 152 -80 l6 -32 21 5 c50 12 479 140 559 167 107
    37 223 95 231 116 11 28 6 67 -9 84 -11 13 -15 55 -18 197 -2 105 -8 187 -14
    195 -6 7 -13 46 -17 85 -3 40 -16 118 -27 173 -12 55 -20 102 -18 104 2 2 465
    7 1029 11 564 4 1027 9 1030 12 3 3 -472 4 -1055 2 -583 -1 -1069 0 -1080 2
    -13 3 -20 -2 -23 -15 l-4 -18 41 7 c67 11 49 -12 -27 -34 -37 -11 -178 -48
    -312 -81 -135 -33 -249 -62 -255 -63 -106 -29 -172 -45 -340 -87 -110 -27
    -335 -83 -500 -125 -165 -42 -381 -96 -480 -121 -99 -24 -227 -57 -285 -74
    -58 -16 -198 -52 -312 -80 -208 -50 -266 -69 -250 -79 10 -7 15 -38 37 -241
    19 -169 19 -180 0 -180 -8 0 -15 -4 -15 -10 0 -5 9 -10 19 -10 22 0 50 -66 35
    -80 -9 -8 -225 -70 -321 -91 -53 -12 -134 -4 -226 21 -45 13 -48 36 -11 85
    l25 34 -11 20 c-6 12 -15 21 -21 21 -19 0 -262 120 -335 166 -68 42 -134 59
    -134 34 0 -5 11 -10 25 -10 14 0 76 -27 137 -60 114 -62 186 -97 263 -130 56
    -24 59 -30 30 -73 -14 -20 -25 -43 -25 -51 l0 -16 -47 19 c-27 10 -97 42 -157
    70 -60 28 -111 49 -114 46 -3 -3 -3 -6 -1 -8 19 -15 198 -99 252 -118 l67 -24
    0 -26 c0 -14 -3 -28 -6 -31 -10 -10 -185 70 -332 152 -78 44 -144 80 -147 80
    -21 0 10 -24 99 -75 l104 -59 -11 -23 c-7 -16 -7 -34 1 -59 6 -19 7 -34 4 -32
    -46 20 -180 98 -206 119 l-33 28 -6 131 c-8 163 -4 182 48 235 l42 43 74 -47
    c85 -54 254 -151 262 -151 4 0 53 -22 109 -49 57 -27 137 -59 178 -72 l75 -24
    105 1 c127 1 183 17 189 54 8 59 -22 349 -38 363 -9 8 -54 20 -101 27 -47 7
    -92 17 -100 21 -8 4 -58 22 -110 40 -146 49 -550 251 -550 274 0 29 30 69 71
    96 114 73 266 119 769 234 129 30 253 59 275 64 22 6 153 36 290 67 138 31
    252 57 255 59 5 3 87 22 450 105 129 30 510 115 652 146 37 7 78 18 92 24 l26
    10 -6 -25 c-8 -34 25 -34 46 -1 8 13 80 104 160 202 80 99 163 203 185 231 22
    29 103 130 180 225 l140 172 5 -45 5 -44 45 0 45 0 5 77 c3 42 11 83 18 90
    l12 12 33 -13 c51 -21 70 -23 100 -12 l27 11 0 40 0 41 -31 17 c-45 25 -130
    75 -160 95 l-26 17 -22 -17z m124 -67 c64 -37 91 -59 93 -74 4 -26 -6 -28 -36
    -6 -12 8 -49 17 -82 19 -78 5 -100 20 -100 66 0 64 8 64 125 -5z m-95 -114
    c-17 -13 -30 -30 -30 -39 0 -11 6 -9 21 8 l21 24 -6 -25 c-3 -14 -6 -48 -6
    -76 0 -55 -19 -76 -46 -53 -11 9 -14 142 -4 227 0 1 18 -8 40 -20 l39 -23 -29
    -23z m145 16 c14 -6 25 -15 25 -20 0 -15 -45 -8 -75 12 l-30 20 27 0 c15 0 39
    -5 53 -12z m-106 -1450 c12 -62 21 -136 21 -163 0 -28 6 -57 13 -64 l12 -12
    -17 -13 c-22 -16 -23 -26 -3 -26 23 0 19 -57 -5 -72 -11 -7 -20 -16 -20 -19 0
    -4 9 -5 20 -2 26 7 26 -12 0 -30 -23 -16 -15 -30 10 -17 l18 9 -6 -110 -5
    -111 22 7 c34 11 24 -5 -14 -21 l-35 -14 0 -35 0 -35 -42 -21 c-24 -13 -108
    -42 -188 -66 -80 -24 -183 -56 -230 -70 -47 -14 -122 -35 -168 -48 l-83 -22
    -16 39 c-20 51 -56 78 -104 78 -54 0 -195 -48 -231 -78 -30 -26 -78 -112 -78
    -142 0 -18 -52 -34 -520 -165 -69 -19 -206 -57 -305 -85 -99 -28 -209 -59
    -245 -69 -36 -10 -71 -20 -78 -22 -11 -3 -14 30 -15 161 l-2 165 15 12 15 12
    -22 1 c-33 0 -29 28 5 36 27 6 108 29 240 66 39 12 72 25 72 30 0 5 -10 6 -22
    2 -23 -7 -254 -70 -295 -81 l-23 -5 0 45 0 46 38 10 c20 6 87 23 147 39 61 17
    157 42 215 58 58 15 107 29 109 31 27 21 -137 -16 -432 -99 -42 -11 -79 -19
    -81 -17 -3 3 -46 377 -46 401 0 3 33 14 73 23 39 9 128 32 197 51 127 34 266
    70 760 193 151 38 329 83 395 100 66 16 185 46 265 66 80 19 255 64 390 99
    135 35 248 64 251 65 4 0 16 -50 28 -111z m-3662 -319 l34 -22 -6 -101 c-9
    -147 -7 -142 -78 -175 -34 -16 -54 -30 -45 -30 22 -1 101 33 114 50 12 15 34
    147 34 204 0 19 4 35 9 35 5 0 7 -17 5 -37 -19 -184 -26 -248 -29 -251 -2 -2
    -13 2 -25 8 -19 10 -41 7 -29 -4 5 -4 100 -52 447 -222 l242 -118 0 -24 0 -25
    -67 5 c-126 9 -524 189 -699 317 l-42 30 23 98 c54 228 69 283 73 283 3 0 20
    -10 39 -21z m128 -243 c27 1 204 43 214 51 19 15 -25 10 -119 -12 -61 -15
    -113 -25 -115 -23 -2 1 -1 39 2 83 l5 80 112 -55 c165 -81 304 -138 387 -157
    41 -9 78 -20 82 -24 5 -4 2 -76 -7 -160 -9 -85 -16 -159 -16 -166 0 -14 -37 2
    -371 165 l-247 120 9 48 c5 27 12 94 16 149 l8 100 5 -100 5 -100 30 1z m1155
    69 c0 -3 9 -94 20 -202 11 -108 18 -198 16 -201 -3 -2 -71 -22 -151 -43 -81
    -21 -168 -45 -195 -54 -60 -20 -70 -15 -70 36 0 21 -7 78 -15 126 -8 49 -16
    121 -17 162 l-3 74 65 18 c36 10 106 29 155 42 189 50 195 51 195 42z m-497
    -134 l24 -9 11 -139 c20 -236 21 -226 -22 -237 -17 -4 -37 2 -65 21 -48 31
    -47 22 -26 213 8 74 15 141 15 148 0 14 29 16 63 3z m2947 -66 c-7 -8 -19 -15
    -27 -15 l-15 0 12 15 12 15 -13 0 c-8 1 -3 7 11 15 l25 14 3 -15 c2 -8 -2 -21
    -8 -29z m-985 -195 c-4 -6 6 -10 22 -10 67 0 132 -79 133 -160 0 -94 -102
    -210 -185 -210 l-43 0 -28 33 c-16 19 -34 42 -40 52 -16 28 -25 3 -10 -27 l13
    -25 -31 9 c-20 7 -37 21 -45 39 -7 16 -17 29 -23 29 -6 0 -3 -11 6 -25 l16
    -25 -26 12 c-21 10 -62 66 -52 72 9 5 55 25 71 30 9 3 19 11 21 18 30 105 70
    157 139 182 50 17 70 19 62 6z m-1414 -70 c9 -45 8 -46 -54 -64 -75 -22 -334
    -86 -346 -86 -6 0 -11 19 -11 43 l0 43 78 18 c42 10 127 33 187 51 130 41 137
    40 146 -5z m-605 -55 l19 -14 -32 -1 c-23 0 -33 5 -33 15 0 19 21 19 46 0z
    m604 -24 c0 -18 -28 -30 -140 -60 -63 -17 -146 -40 -185 -51 -84 -24 -85 -24
    -85 -5 0 15 51 33 265 90 134 37 145 39 145 26z m18 -208 l-3 -168 -115 -32
    c-63 -18 -122 -33 -130 -33 -10 0 -21 21 -33 63 -22 76 -52 121 -94 144 -56
    30 -59 88 -5 98 49 9 213 53 282 76 30 10 65 18 78 19 l22 0 -2 -167z m-1575
    80 c5 -22 27 -41 99 -88 238 -152 509 -262 672 -272 87 -6 114 -20 96 -53 -21
    -40 -196 -32 -339 16 -128 43 -450 216 -525 282 -27 25 -51 75 -37 80 6 2 11
    17 11 33 0 37 16 38 23 2z m222 -106 c28 -14 104 -51 170 -81 90 -41 121 -60
    123 -76 5 -28 1 -27 -147 46 -202 99 -351 193 -351 220 0 8 32 -7 78 -35 42
    -26 100 -59 127 -74z m893 106 c-2 -11 -21 -21 -51 -29 -50 -13 -64 -20 -55
    -29 2 -3 30 4 60 14 63 21 78 15 78 -30 0 -21 8 -31 37 -46 35 -17 108 -123
    85 -123 -5 0 -15 14 -22 30 -30 73 -97 87 -228 48 -86 -25 -124 -57 -148 -126
    l-17 -47 -50 -2 c-48 -2 -160 16 -238 39 -29 8 -35 14 -32 29 4 15 11 18 27
    13 66 -21 117 -31 140 -27 l26 5 0 50 c0 72 -11 85 -93 109 -92 28 -99 33 -85
    65 9 19 17 24 32 19 115 -36 223 -31 391 18 143 41 147 42 143 20z m-848 -28
    c0 -14 -4 -25 -10 -25 -5 0 -10 11 -10 25 0 14 5 25 10 25 6 0 10 -11 10 -25z
    m227 -66 l42 -18 -6 -53 c-3 -29 -7 -54 -7 -55 -2 -2 -199 77 -204 82 -2 2 2
    13 8 25 9 17 8 31 -3 64 l-14 42 71 -34 c39 -19 90 -43 113 -53z m-187 39 l0
    -23 -10 15 c-13 19 -13 30 0 30 6 0 10 -10 10 -22z m-3 -64 c-10 -10 -37 16
    -37 34 l0 16 22 -21 c12 -13 19 -25 15 -29z m385 -42 c3 -4 9 -28 13 -54 9
    -59 -1 -65 -80 -44 -73 19 -74 20 -68 87 l5 56 62 -19 c33 -10 64 -22 68 -26z
    m369 -32 c23 0 29 -4 27 -17 l-3 -18 49 -6 c96 -11 139 -114 100 -237 -32 -98
    -100 -154 -186 -154 -60 0 -95 22 -117 73 -9 21 -19 39 -23 39 -12 0 -9 -18 8
    -53 l17 -31 -24 15 c-33 22 -58 59 -65 95 l-6 31 25 7 c29 7 36 32 25 85 -15
    73 75 194 130 175 8 -2 27 -4 43 -4z"/>
    <path d="M2815 2539 c-60 -17 -124 -34 -140 -38 -17 -4 -41 -13 -54 -20 l-23
    -13 7 -91 c5 -80 11 -119 31 -224 5 -28 19 -29 126 -3 160 38 233 60 247 75
    l15 14 -18 153 c-10 84 -22 158 -28 165 -15 18 -37 15 -163 -18z m159 -21 c19
    -122 29 -262 20 -275 -6 -9 -30 -22 -54 -30 -93 -28 -240 -63 -264 -63 l-25 0
    -5 33 c-3 17 -10 86 -17 151 l-12 119 17 12 c9 7 60 23 113 35 53 12 113 28
    132 35 20 8 48 14 63 14 l27 1 5 -32z"/>
    <path d="M4430 2104 c-62 -53 -81 -145 -39 -198 46 -58 154 -14 180 74 33 111
    -59 192 -141 124z m105 -19 c53 -52 11 -171 -67 -190 -40 -10 -78 31 -78 85 0
    100 88 163 145 105z"/>
    <path d="M2575 1613 c-52 -13 -105 -86 -105 -145 0 -37 26 -82 57 -99 l24 -13
    42 15 c128 44 111 274 -18 242z m57 -33 c49 -38 42 -128 -13 -174 -78 -66
    -155 10 -113 113 29 74 80 98 126 61z"/>
    <path d="M6315 4421 c-33 -26 -127 -100 -210 -165 -82 -65 -161 -127 -175
    -137 -46 -34 -234 -180 -473 -367 -260 -204 -326 -252 -343 -252 -6 0 -56 21
    -110 46 -55 25 -112 52 -129 59 -47 21 -149 45 -186 44 l-34 -1 25 -8 c14 -4
    61 -18 105 -30 127 -34 295 -110 305 -136 6 -15 15 -21 28 -18 24 7 149 -89
    181 -139 13 -20 28 -34 33 -31 18 11 -33 71 -110 129 -44 33 -80 63 -79 66 2
    8 175 146 382 305 163 125 182 140 500 389 99 77 214 167 256 198 42 31 82 64
    89 72 26 32 3 22 -55 -24z"/>
    <path d="M5450 4361 c-13 -25 -3 -27 21 -5 19 17 39 12 39 -10 0 -7 -16 -26
    -35 -43 -47 -42 -45 -53 13 -51 36 1 39 2 15 5 -41 5 -41 9 -1 50 l33 34 -11
    17 c-17 26 -60 27 -74 3z"/>
    <path d="M5562 4368 c-7 -7 -12 -30 -12 -53 0 -46 13 -65 47 -65 27 0 43 27
    43 72 0 39 -15 58 -45 58 -12 0 -26 -5 -33 -12z m61 -31 c7 -21 5 -34 -8 -53
    l-16 -25 -15 12 c-28 23 -11 106 20 96 5 -2 14 -15 19 -30z"/>
    <path d="M7350 3502 l0 -28 -35 -13 c-44 -16 -44 -22 2 -46 115 -61 173 -165
    173 -310 l0 -60 60 -1 59 -1 -5 165 c-3 91 -9 173 -14 182 -12 23 -206 140
    -232 140 -4 0 -8 -13 -8 -28z m125 -55 c51 -30 95 -63 102 -77 18 -35 18 -303
    1 -298 -7 3 -16 30 -19 61 -7 62 -26 117 -41 117 -6 0 -7 -7 -4 -16 28 -73 32
    -154 9 -162 -13 -4 -20 96 -14 196 3 55 -4 63 -106 119 -57 31 -81 48 -72 54
    16 9 36 -1 68 -35 24 -26 51 -35 51 -17 0 5 -18 24 -40 41 -35 28 -55 70 -32
    70 4 0 47 -24 97 -53z m11 -142 c3 -7 4 -22 2 -33 -2 -15 -8 -9 -26 25 l-23
    44 21 -11 c12 -6 23 -17 26 -25z"/>
    <path d="M7725 3142 l0 -68 17 1 c20 1 38 15 20 15 -8 0 -12 21 -12 60 0 41
    -4 60 -13 60 -8 0 -12 -20 -12 -68z"/>
    <path d="M7816 3188 c-22 -31 -20 -81 4 -103 l20 -18 25 11 c18 9 25 19 25 41
    0 30 -14 41 -52 41 -29 0 -16 24 15 28 34 4 36 22 3 22 -14 0 -32 -10 -40 -22z
    m60 -59 c9 -16 -20 -41 -39 -33 -17 6 -22 25 -10 37 10 11 41 8 49 -4z"/>
    </g>
  </g>
  <g id="labels" font-family="Helvetica, Arial, sans-serif" fill="#111" font-size="14" text-rendering="geometricPrecision" opacity="0" pointer-events="none">
      <a id="pos-11" href="#pos-11"><text data-pos="11" x="670" y="154" text-anchor="middle" dominant-baseline="middle" font-size="12" font-weight="600">11</text></a>
      <a id="pos-16" href="#pos-16"><text data-pos="16" x="779" y="325" text-anchor="middle" dominant-baseline="middle" font-size="12" font-weight="600">16</text></a>
      <a id="pos-20" href="#pos-20"><text data-pos="20" x="553" y="207" text-anchor="middle" dominant-baseline="middle" font-size="12" font-weight="600">20</text></a>
  </g>
</svg>
