<svg xmlns="http://www.w3.org/2000/svg" width="960" height="640" viewBox="0 0 960 640" role="img" aria-labelledby="title desc">
  <title id="title">Mercedes parts diagram: group-006</title>
  <desc id="desc">Mercedes parts diagram: group-006</desc>
  <g id="art">
    <metadata>
    Created by potrace 1.16, written by Peter Selinger 2001-2019
    </metadata>
    <g transform="translate(0.000000,640.000000) scale(0.100000,-0.100000)"
    fill="#000000" stroke="none">
    <path d="M7050 4705 c-8 -2 -48 -9 -88 -16 -40 -7 -75 -16 -78 -21 -3 -4 -21
    -8 -41 -8 -35 0 -90 -12 -348 -76 -285 -72 -420 -104 -436 -104 -9 0 -22 -7
    -30 -16 -8 -10 -23 -14 -43 -11 -16 2 -72 -7 -125 -20 -205 -52 -301 -75 -448
    -108 -164 -37 -280 -71 -289 -86 -3 -5 -16 -6 -28 -3 -14 3 -160 -28 -347 -74
    -178 -44 -349 -86 -379 -92 -30 -7 -70 -21 -88 -31 -21 -12 -42 -17 -57 -13
    -13 3 -55 -3 -92 -14 -37 -12 -120 -33 -183 -48 -315 -73 -541 -132 -557 -146
    -7 -6 -19 -8 -27 -5 -19 8 -813 -190 -843 -209 -12 -8 -38 -14 -56 -14 -64 0
    -345 -77 -512 -141 -229 -87 -250 -97 -357 -166 -88 -57 -144 -107 -165 -146
    l-15 -30 86 -82 c174 -164 329 -264 711 -456 88 -44 187 -91 220 -104 33 -13
    91 -36 129 -50 l69 -27 136 37 c75 21 168 46 206 57 39 10 120 34 180 53 61
    18 198 57 305 85 130 35 201 58 213 71 13 14 23 17 35 10 17 -9 288 56 467
    111 44 14 141 40 215 58 74 18 140 39 147 48 7 8 32 16 60 17 26 2 158 33 293
    69 135 37 309 83 388 102 102 26 142 40 142 51 0 11 8 13 38 9 24 -4 67 2 127
    19 50 13 209 56 355 96 146 39 283 76 306 83 22 6 48 19 58 29 11 11 26 15 40
    11 21 -5 203 36 311 71 28 9 151 43 275 74 176 46 226 62 228 76 3 13 11 16
    35 12 29 -4 287 58 507 123 36 10 121 33 190 50 69 18 134 38 145 44 11 7 40
    16 65 19 70 10 202 52 211 69 9 17 -34 118 -51 118 -5 0 -26 25 -45 55 -83
    128 -255 255 -530 389 -197 97 -239 114 -395 160 -107 32 -205 49 -240 41z
    m250 -60 c293 -84 707 -314 847 -469 40 -45 89 -124 81 -131 -4 -3 -144 -45
    -152 -45 -3 0 -8 17 -12 38 -13 72 -60 127 -196 230 -203 153 -614 343 -830
    384 -36 7 -64 16 -62 20 3 4 50 8 104 8 l98 0 122 -35z m-275 -5 c252 -55 641
    -237 855 -401 129 -98 170 -151 170 -219 0 -45 -27 -45 -34 0 -11 67 -27 90
    -130 176 -190 158 -546 338 -809 409 -179 48 -193 53 -167 54 14 1 66 -8 115
    -19z m-85 -16 c153 -30 441 -139 633 -241 272 -145 435 -291 425 -380 l-3 -28
    -125 -32 c-69 -18 -174 -47 -235 -64 -60 -17 -159 -44 -220 -60 -60 -16 -123
    -33 -140 -38 -16 -5 -42 -12 -56 -15 l-27 -6 -6 44 c-9 61 -50 118 -132 183
    -148 118 -464 298 -636 363 -49 19 -86 35 -84 37 9 9 200 -73 326 -139 164
    -86 298 -170 407 -255 l83 -64 35 7 c46 8 46 24 0 17 l-35 -6 -41 38 c-60 54
    -254 178 -409 261 -123 65 -451 204 -483 204 -8 0 -23 8 -34 18 l-21 18 122
    27 c66 16 171 42 231 59 160 45 297 75 320 72 11 -2 58 -11 105 -20z m-798
    -151 c-6 -2 -9 -10 -5 -16 4 -7 0 -8 -11 -4 -10 4 -25 7 -34 8 -25 1 17 18 43
    18 11 -1 14 -3 7 -6z m118 -82 c170 -58 406 -165 501 -229 24 -16 68 -42 97
    -58 113 -61 262 -185 291 -244 22 -42 34 -100 22 -100 -5 0 -16 -3 -25 -6 -12
    -5 -16 0 -16 20 0 14 -11 49 -24 79 -70 159 -569 447 -991 572 -44 13 -69 24
    -55 24 14 1 104 -26 200 -58z m-256 25 c-3 -7 -109 -36 -237 -66 -128 -29
    -257 -61 -287 -71 -30 -9 -68 -20 -84 -24 -21 -4 -26 -9 -18 -17 9 -9 17 -9
    34 0 36 18 250 73 561 143 26 6 54 18 62 25 19 20 60 8 62 -17 1 -12 -5 -19
    -15 -19 -34 0 -606 -146 -609 -155 -2 -6 13 -15 33 -21 l36 -12 89 21 c49 11
    89 24 89 28 0 4 -26 1 -57 -7 -92 -22 -140 -27 -147 -16 -4 7 23 17 71 27 43
    9 121 28 173 42 52 13 160 40 239 59 155 37 163 40 141 55 -41 27 171 -43 276
    -92 299 -136 483 -250 616 -379 57 -56 83 -112 76 -163 l-3 -22 -85 -23 c-47
    -12 -139 -36 -205 -53 -66 -17 -149 -39 -185 -50 -135 -40 -292 -80 -296 -76
    -2 2 -8 24 -12 48 -11 59 -16 65 -92 136 -180 166 -610 400 -908 495 -53 17
    -104 33 -112 36 -8 3 26 15 75 28 188 47 294 72 410 99 66 14 152 34 190 43
    76 18 126 17 119 -2z m-770 -191 c72 -19 80 -21 264 -97 394 -162 785 -425
    807 -541 9 -46 1 -67 -25 -67 -16 0 -20 7 -20 32 0 105 -145 232 -468 410
    -225 123 -548 257 -624 258 -10 0 -18 5 -18 10 0 13 11 13 84 -5z m-120 -19
    c-3 -7 -50 -25 -107 -39 -56 -14 -196 -49 -311 -78 l-209 -52 18 -13 c24 -17
    35 -18 35 -1 0 9 75 31 223 66 189 45 313 77 377 97 l14 5 -14 9 -15 10 20 0
    c33 0 142 -35 265 -85 63 -26 133 -54 155 -63 22 -9 51 -23 65 -33 14 -9 66
    -37 117 -63 120 -60 293 -169 383 -241 78 -64 110 -114 113 -178 l2 -40 -95
    -28 c-52 -16 -193 -54 -314 -84 -120 -31 -256 -67 -303 -80 -47 -14 -86 -25
    -88 -25 -3 0 -12 34 -16 55 -1 6 -14 35 -29 65 -83 165 -542 455 -910 576
    -144 47 -183 64 -144 64 11 0 24 -4 30 -9 5 -5 79 -32 164 -61 192 -65 366
    -152 590 -297 19 -13 40 -26 45 -31 6 -4 39 -29 75 -56 36 -27 86 -69 112 -94
    l46 -45 26 7 c14 3 26 13 26 21 0 8 12 18 28 21 192 48 625 165 631 171 3 2
    -4 12 -15 23 l-19 19 -113 -29 c-104 -26 -144 -40 -113 -40 6 0 59 12 117 26
    68 17 109 23 115 17 6 -6 -37 -21 -123 -43 -73 -18 -164 -43 -203 -55 -38 -13
    -130 -37 -202 -55 -91 -22 -133 -37 -133 -46 0 -26 -22 -14 -85 44 -137 128
    -491 343 -682 413 -199 74 -242 92 -238 100 3 4 -1 10 -7 12 -7 3 -5 6 6 6 21
    1 321 73 501 120 124 33 198 39 189 17z m-672 -222 c152 -44 196 -62 351 -140
    205 -104 395 -230 520 -344 55 -50 83 -102 102 -187 l7 -33 -19 0 c-15 0 -22
    12 -31 59 -7 33 -25 76 -41 98 -35 48 -146 140 -256 213 -44 29 -98 65 -120
    79 -41 28 -194 112 -300 164 -68 33 -269 101 -333 112 -23 4 -39 11 -36 17 3
    5 13 6 23 3 9 -4 69 -22 133 -41z m-109 0 c213 -40 585 -227 840 -422 128 -98
    161 -137 183 -219 l17 -65 -14 -9 c-8 -5 -21 -9 -29 -9 -8 0 -73 -16 -145 -35
    -518 -137 -620 -163 -627 -159 -5 3 -8 11 -8 19 0 54 -47 133 -119 203 -168
    163 -620 424 -874 506 l-101 33 124 31 c69 17 208 51 310 77 327 81 293 77
    443 49z m3961 -7 c6 -15 7 -29 5 -32 -5 -4 -192 -55 -205 -55 -3 0 -4 17 -2
    37 l3 38 85 22 c98 25 102 25 114 -10z m-216 -39 c-7 -51 -38 -66 -38 -19 0
    20 6 31 18 34 9 3 18 5 20 6 1 0 1 -9 0 -21z m-58 -37 l0 -40 -52 -15 c-29 -8
    -136 -35 -237 -60 -101 -26 -187 -48 -191 -51 -12 -7 -302 -85 -317 -85 -8 0
    -13 13 -13 35 l0 35 25 6 c14 3 25 13 25 20 0 16 46 37 64 31 6 -3 -1 -8 -16
    -12 -16 -4 -28 -11 -28 -16 0 -12 17 -11 40 1 10 5 42 16 72 24 29 8 139 37
    243 65 105 28 226 62 270 75 112 34 115 34 115 -13z m-4413 -142 c307 -121
    640 -320 817 -488 85 -81 142 -209 101 -225 -17 -6 -18 -5 -35 68 -16 70 -32
    97 -95 157 -208 198 -672 451 -980 533 -11 3 4 3 32 1 30 -2 101 -23 160 -46z
    m-172 23 l70 -18 -72 -22 c-39 -12 -77 -22 -85 -22 -7 0 -20 -5 -28 -11 -11
    -7 -1 -8 35 -5 62 6 58 5 -183 -54 -333 -82 -326 -80 -267 -104 l37 -16 52 15
    51 15 -55 -6 c-110 -10 -102 8 15 38 320 79 520 130 524 134 2 2 -2 10 -8 18
    -12 15 68 -13 199 -68 100 -43 311 -161 450 -252 218 -143 306 -242 313 -350
    l2 -37 -220 -57 c-121 -31 -297 -78 -391 -104 -197 -53 -194 -52 -194 -26 0
    10 -9 44 -20 73 -63 169 -579 514 -954 638 l-128 42 33 14 c19 7 138 37 264
    67 127 30 282 68 345 85 136 36 127 35 215 13z m3755 -96 c0 -20 -16 -36 -36
    -36 -2 0 -4 14 -4 30 0 23 4 30 20 30 14 0 20 -7 20 -24z m-60 -23 l0 -38
    -113 -33 c-61 -18 -195 -55 -297 -82 -102 -27 -225 -60 -275 -74 -49 -13 -93
    -22 -97 -20 -13 8 -9 61 5 72 7 6 95 31 197 57 102 25 230 59 285 76 156 45
    269 77 283 78 7 1 12 -13 12 -36z m-250 -13 c-8 -5 -26 -9 -40 -9 l-25 1 25 8
    c14 4 32 8 40 9 l15 1 -15 -10z m-4172 -106 c289 -96 682 -337 859 -525 l72
    -76 16 -58 17 -57 -13 -9 c-20 -13 -29 -11 -29 6 0 47 -46 131 -108 197 -171
    181 -586 433 -852 517 -58 18 -114 37 -125 41 l-20 9 23 0 c13 1 84 -20 160
    -45z m-122 5 c287 -80 708 -322 904 -518 l86 -86 20 -68 21 -67 -41 -11 c-23
    -5 -52 -14 -66 -19 -26 -10 -176 -52 -270 -76 -158 -41 -551 -178 -546 -190 3
    -9 -6 -15 -29 -20 l-34 -6 -143 57 c-331 133 -746 378 -915 540 -40 39 -73 78
    -73 87 0 54 309 220 525 283 33 9 65 21 70 25 14 12 324 95 371 99 6 1 60 -13
    120 -30z m3844 -19 c-34 -11 -60 -11 -35 0 11 5 29 8 40 8 l20 0 -25 -8z
    m-100 -79 c0 -20 -6 -30 -20 -34 l-20 -5 0 33 c0 31 15 48 33 38 4 -2 7 -17 7
    -32z m-62 -28 l-3 -37 -85 -21 c-47 -12 -114 -31 -150 -43 -36 -11 -130 -37
    -210 -57 -146 -37 -257 -66 -318 -84 -38 -11 -46 -2 -40 45 l3 29 180 46 c99
    26 270 72 380 102 110 30 210 55 223 56 l23 1 -3 -37z m-253 -8 c-22 -8 -49
    -13 -60 -13 -11 0 0 6 25 13 59 17 87 17 35 0z m-295 -75 c-8 -5 -19 -10 -25
    -10 -5 0 -3 5 5 10 8 5 20 10 25 10 6 0 3 -5 -5 -10z m-117 -37 c-7 -2 -19 -2
    -25 0 -7 3 -2 5 12 5 14 0 19 -2 13 -5z m-78 -18 c-22 -8 -49 -13 -60 -13 -11
    0 0 6 25 13 59 17 87 17 35 0z m-87 -67 c-2 -21 -8 -33 -18 -33 -19 0 -25 32
    -10 50 20 24 31 17 28 -17z m-165 5 c-7 -2 -19 -2 -25 0 -7 3 -2 5 12 5 14 0
    19 -2 13 -5z m119 -32 l3 -39 -95 -22 c-52 -13 -183 -47 -290 -76 -271 -74
    -391 -104 -412 -104 -14 0 -18 8 -18 34 l0 33 113 32 c61 18 222 61 357 96
    135 35 259 68 275 74 55 17 63 14 67 -28z m-177 19 c-27 -12 -43 -12 -25 0 8
    5 22 9 30 9 10 0 8 -3 -5 -9z m-135 -41 c-36 -10 -72 -19 -80 -18 -20 1 100
    37 125 37 11 0 -9 -8 -45 -19z m-3499 -119 c136 -130 547 -368 885 -514 153
    -65 184 -68 294 -30 41 14 110 38 153 52 70 24 109 48 55 35 -13 -3 -21 -4
    -18 -1 17 18 553 172 573 165 7 -2 -16 -10 -50 -17 -35 -7 -63 -17 -63 -22 0
    -5 8 -7 18 -4 9 3 55 14 101 25 93 22 120 37 51 28 -30 -4 -38 -3 -25 3 11 5
    32 9 47 9 30 1 43 -25 36 -69 l-3 -23 -105 -29 c-58 -17 -197 -56 -310 -88
    -113 -31 -284 -80 -381 -109 -97 -28 -184 -51 -193 -51 -76 0 -478 188 -776
    363 -144 84 -273 180 -377 281 -59 56 -60 58 -36 90 l18 23 40 -46 c22 -25 52
    -57 66 -71z m3398 95 c-3 -2 -59 -18 -125 -34 -65 -17 -148 -39 -183 -51 -83
    -26 -104 -25 -26 2 108 38 347 97 334 83z m-649 -175 c-502 -137 -630 -170
    -630 -161 0 3 98 32 218 63 119 31 291 76 382 101 91 25 174 45 185 45 11 0
    -59 -21 -155 -48z m228 13 c-4 -36 -38 -45 -38 -10 0 27 7 37 27 37 10 0 13
    -9 11 -27z m-50 -25 l-3 -42 -235 -61 c-129 -34 -257 -69 -285 -78 -27 -9 -97
    -28 -153 -42 -112 -28 -132 -25 -132 20 l0 23 63 21 c34 11 150 43 257 70 107
    28 256 69 330 91 170 49 162 49 158 -2z m-818 -213 c0 -18 -5 -25 -20 -25 -15
    0 -20 7 -20 25 0 18 5 25 20 25 15 0 20 -7 20 -25z m-780 -170 c-19 -7 -42
    -13 -50 -13 -8 0 1 6 20 13 19 7 42 13 50 13 8 0 -1 -6 -20 -13z"/>
    <path d="M7071 4666 c3 -3 45 -17 93 -31 239 -69 657 -290 793 -418 l32 -29
    55 6 c31 4 56 12 56 17 0 11 -4 11 -54 -1 l-40 -9 -40 32 c-22 18 -50 41 -62
    52 -22 20 -109 74 -236 146 -105 61 -334 163 -438 197 -98 32 -169 49 -159 38z"/>
    <path d="M6838 4622 c-1 -5 -57 -21 -123 -37 -66 -15 -127 -31 -136 -36 -9 -4
    -58 -17 -110 -28 -210 -46 -239 -58 -180 -76 19 -6 23 -4 18 7 -4 12 8 18 51
    27 253 55 522 128 522 141 0 12 -37 13 -42 2z"/>
    <path d="M6938 4600 c-4 -12 -111 -42 -380 -106 -205 -49 -230 -62 -163 -84
    l35 -12 98 27 c53 15 106 30 117 35 l20 9 -18 0 c-10 1 -64 -10 -119 -24 -60
    -15 -105 -22 -111 -16 -12 12 -3 16 83 35 358 81 482 115 477 130 -5 15 -34
    20 -39 6z"/>
    <path d="M6983 4558 c-74 -20 -100 -41 -40 -33 17 3 -71 -22 -198 -54 -271
    -70 -275 -71 -275 -81 0 -10 129 -64 137 -57 3 4 -19 17 -48 30 -35 16 -49 27
    -39 30 39 15 562 147 583 147 17 0 5 28 -15 34 -28 7 -19 8 -105 -16z m57 -18
    c-14 -4 -34 -8 -45 -8 -16 0 -15 2 5 8 14 4 34 8 45 8 16 0 15 -2 -5 -8z"/>
    <path d="M7110 4508 l-25 -10 35 -16 c19 -9 86 -40 149 -69 l114 -53 34 6 c19
    4 32 11 30 18 -3 11 -75 56 -89 56 -22 0 -3 -22 30 -37 l37 -16 -21 -4 c-12
    -2 -63 16 -115 40 -52 24 -110 51 -129 60 l-35 16 30 0 c17 0 41 -6 55 -14 29
    -16 40 -18 40 -7 0 8 -87 43 -105 41 -5 0 -21 -5 -35 -11z"/>
    <path d="M6815 4440 c-137 -38 -178 -53 -182 -66 -5 -16 229 -134 267 -134 32
    0 196 39 283 67 33 11 47 21 47 34 0 20 -34 43 -53 36 -7 -2 0 -10 16 -17 33
    -16 34 -26 5 -34 -35 -9 -41 -7 -29 8 14 17 5 24 -79 59 -36 15 -76 37 -90 48
    l-25 20 23 -11 c13 -6 28 -9 35 -7 20 7 -41 27 -81 26 -20 0 -82 -13 -137 -29z
    m260 -54 l90 -43 -37 -8 c-21 -4 -38 -11 -38 -16 0 -5 12 -7 28 -4 43 8 14 -3
    -63 -24 -38 -11 -74 -16 -80 -11 -5 4 -32 10 -60 12 -27 3 -58 8 -67 12 -11 5
    -18 4 -18 -2 0 -14 86 -46 99 -37 6 3 11 1 11 -6 0 -23 -75 0 -185 57 -115 60
    -116 63 -35 78 28 5 30 4 13 -4 -28 -12 -29 -26 -4 -40 30 -15 49 -12 27 5
    -26 20 -25 20 84 48 125 33 130 33 235 -17z"/>
    <path d="M7473 4327 c-46 -11 -83 -24 -83 -30 0 -10 8 -9 120 22 88 24 80 23
    80 12 0 -9 -69 -29 -365 -101 -250 -62 -275 -69 -275 -79 0 -10 74 -51 93 -51
    25 0 191 40 207 50 38 23 -36 16 -95 -10 -11 -4 -41 -13 -68 -19 l-47 -11 -26
    16 c-14 10 -21 21 -16 26 4 4 136 39 293 77 156 38 298 75 314 81 l30 11 -19
    15 c-25 18 -42 17 -143 -9z"/>
    <path d="M7598 4252 c-54 -14 -98 -28 -98 -32 0 -4 44 3 98 16 109 26 120 28
    107 15 -6 -5 -80 -25 -165 -45 -85 -20 -213 -52 -285 -71 -71 -19 -142 -37
    -157 -41 -38 -8 -36 -14 22 -58 l51 -39 107 28 c132 33 140 36 125 42 -6 2
    -61 -8 -121 -22 l-110 -26 -36 23 c-42 27 -44 36 -13 43 87 22 305 76 317 80
    8 2 77 19 153 39 76 19 142 37 145 41 7 6 -26 36 -37 34 -3 -1 -50 -13 -103
    -27z"/>
    <path d="M6790 4243 c0 -5 29 -23 64 -40 l65 -32 103 25 c124 30 132 33 126
    39 -3 3 -56 -7 -118 -21 l-113 -27 -56 29 c-31 16 -59 30 -63 32 -5 2 -8 0 -8
    -5z"/>
    <path d="M7722 4156 c-139 -38 -120 -51 24 -15 74 19 109 20 92 4 -3 -3 -88
    -26 -189 -50 -101 -25 -220 -54 -264 -66 -44 -11 -100 -25 -125 -31 -45 -10
    -77 -28 -49 -28 13 0 107 24 329 82 52 14 148 38 213 53 115 26 132 36 105 63
    -16 16 -39 14 -136 -12z"/>
    <path d="M6135 4340 c-38 -11 -80 -19 -92 -19 -13 -1 -23 -5 -23 -11 0 -13 -8
    -14 110 14 56 13 98 21 94 16 -10 -8 -464 -123 -561 -141 -84 -16 -97 -32 -44
    -58 22 -12 46 -21 53 -21 17 1 -33 39 -51 40 -46 0 86 37 269 75 41 9 146 34
    234 57 l159 41 -19 14 c-23 17 -43 16 -129 -7z"/>
    <path d="M6245 4286 l-20 -14 59 -26 c32 -14 61 -26 65 -26 3 0 41 -20 84 -44
    l77 -45 35 6 c48 8 44 25 -15 57 -27 15 -50 23 -50 19 0 -5 16 -17 35 -28 28
    -15 33 -20 21 -27 -10 -6 -38 3 -83 26 -37 19 -92 44 -120 56 -53 22 -69 40
    -35 40 9 0 37 -9 61 -20 67 -31 83 -23 21 10 -61 32 -106 37 -135 16z"/>
    <path d="M5275 4260 l-20 -8 15 -6 c8 -3 58 -21 110 -40 133 -49 340 -140 408
    -181 31 -19 61 -35 65 -35 29 0 311 -184 379 -246 26 -24 54 -44 62 -44 24 0
    46 11 46 24 0 14 -2 13 290 85 219 54 352 90 359 97 3 3 -4 14 -15 25 l-21 20
    -117 -30 c-65 -16 -120 -32 -123 -35 -16 -16 11 -17 54 -3 95 31 176 48 192
    41 20 -8 -145 -54 -464 -130 -120 -28 -165 -43 -179 -59 l-19 -22 -86 69
    c-177 142 -500 316 -796 429 -55 21 -99 43 -97 48 2 13 -14 13 -43 1z"/>
    <path d="M6040 4238 l-35 -10 19 -8 c25 -9 -85 -32 -165 -34 -53 -2 -89 -17
    -89 -37 0 -5 55 -36 122 -70 l121 -61 46 5 c50 6 283 61 300 72 22 13 11 45
    -20 60 -41 22 -50 11 -10 -12 53 -30 45 -36 -76 -62 -48 -11 -101 -22 -118
    -26 -23 -5 -27 -4 -15 4 11 9 2 10 -36 5 -38 -5 -59 -2 -83 11 -18 9 -35 14
    -38 12 -9 -9 41 -31 87 -38 l45 -6 -48 -2 -48 -1 -97 50 c-110 58 -111 58 -93
    69 8 5 21 0 36 -15 13 -13 30 -24 37 -24 8 1 5 6 -6 15 -21 16 -19 24 10 30
    11 2 59 13 107 24 117 28 130 27 215 -17 81 -41 88 -53 40 -66 -18 -5 -28 -10
    -21 -13 21 -8 78 13 81 30 5 25 -128 88 -203 97 l-60 7 53 2 c29 0 62 -4 74
    -10 11 -6 22 -8 25 -6 3 3 -9 13 -26 21 -34 18 -79 19 -131 4z"/>
    <path d="M6668 4115 c-2 -3 -40 -12 -84 -21 -43 -9 -83 -20 -88 -25 -14 -13
    -4 -12 109 15 55 13 104 21 109 18 6 -3 -35 -16 -90 -29 -211 -49 -515 -125
    -553 -139 -10 -3 1 -16 33 -39 l47 -33 67 19 c37 10 90 24 117 30 28 6 54 15
    60 20 14 14 -6 11 -112 -16 -117 -30 -140 -30 -172 -6 l-24 18 24 6 c217 49
    387 90 399 96 8 4 62 18 120 31 112 25 134 35 110 50 -16 10 -63 13 -72 5z"/>
    <path d="M6735 4029 c-91 -20 -140 -37 -133 -45 3 -3 56 7 118 21 112 25 151
    28 89 6 -17 -6 -118 -31 -223 -56 -286 -68 -396 -98 -396 -111 0 -15 75 -74
    94 -74 29 0 281 64 266 67 -9 2 -72 -10 -140 -26 l-125 -30 -37 26 c-21 14
    -38 29 -38 33 0 3 39 16 88 28 48 12 191 46 317 77 127 31 236 58 244 61 l14
    4 -18 20 c-21 23 -16 23 -120 -1z"/>
    <path d="M5920 4003 c0 -13 99 -63 113 -58 7 2 55 13 107 25 112 24 125 29
    117 36 -3 3 -56 -7 -117 -22 l-112 -27 -47 24 c-25 13 -49 25 -53 27 -5 2 -8
    0 -8 -5z"/>
    <path d="M5135 4170 c-16 -4 -43 -11 -58 -14 -19 -5 -27 -12 -24 -20 6 -14 -5
    -18 -278 -81 -206 -48 -216 -53 -148 -76 l36 -12 79 18 c43 10 78 22 78 27 0
    11 0 11 -81 -11 -45 -13 -78 -17 -92 -12 l-22 9 45 11 c25 7 65 18 90 26 25 7
    126 32 225 55 261 61 255 59 255 75 0 17 -53 19 -105 5z"/>
    <path d="M5216 4117 c-100 -26 -84 -34 25 -12 141 29 95 11 -74 -29 -89 -21
    -184 -45 -212 -53 -27 -8 -92 -25 -144 -38 -87 -22 -110 -31 -100 -38 10 -6
    100 -47 104 -47 18 0 -1 18 -30 29 -45 16 -44 27 3 34 20 4 96 23 167 43 72
    20 192 51 268 68 133 32 156 40 145 51 -14 15 -80 11 -152 -8z"/>
    <path d="M5373 4073 c-13 -2 -23 -7 -23 -11 0 -9 270 -142 287 -142 6 0 24 5
    39 11 l28 10 -44 25 c-24 13 -48 23 -54 21 -6 -2 6 -13 27 -23 l38 -18 -21 -8
    c-16 -6 -50 8 -141 55 -81 42 -112 63 -98 65 11 2 38 -3 60 -12 21 -9 39 -12
    39 -8 0 9 -89 43 -105 41 -5 -1 -20 -4 -32 -6z"/>
    <path d="M5163 4023 c-29 -11 -10 -19 45 -19 31 1 67 -3 80 -7 13 -5 22 -4 22
    1 0 22 -109 41 -147 25z"/>
    <path d="M5078 3971 c-59 -15 -111 -30 -115 -35 -10 -9 25 -36 46 -36 11 1 8
    5 -8 14 -31 17 -27 19 109 50 l116 27 87 -37 c99 -41 109 -50 67 -59 -32 -7
    -41 -25 -12 -25 31 0 65 30 51 46 -17 20 4 18 31 -4 l23 -18 -44 -16 c-64 -23
    -189 -51 -196 -44 -4 3 1 6 10 6 10 0 17 4 17 8 0 5 -23 4 -50 -2 -37 -7 -59
    -7 -82 2 -18 6 -34 10 -36 7 -3 -2 6 -8 19 -14 13 -5 35 -14 49 -20 l25 -11
    -36 4 c-34 4 -228 104 -229 118 0 3 17 12 38 19 20 7 31 14 24 17 -21 7 -72
    -19 -72 -37 0 -10 38 -37 104 -74 107 -59 148 -68 212 -48 16 5 73 19 126 31
    55 12 108 30 120 41 l23 19 -25 21 c-15 13 -33 19 -48 16 -13 -3 -56 10 -100
    29 -92 40 -106 41 -244 5z"/>
    <path d="M5765 3884 c-27 -7 -67 -17 -88 -23 -39 -9 -54 -18 -46 -25 2 -2 49
    7 103 20 54 14 101 22 104 19 7 -7 3 -8 -326 -89 -167 -41 -307 -78 -310 -81
    -4 -4 9 -20 28 -36 l35 -30 35 6 c80 14 214 49 200 52 -9 2 -61 -7 -117 -20
    l-102 -24 -33 20 c-18 11 -28 22 -23 23 23 8 303 79 462 117 94 23 175 46 180
    50 9 9 -24 38 -41 36 -6 -1 -33 -7 -61 -15z"/>
    <path d="M5828 3792 c-59 -15 -110 -31 -115 -36 -10 -11 42 -2 132 23 39 11
    82 21 98 21 56 0 24 -16 -80 -42 -270 -67 -536 -137 -541 -143 -3 -3 12 -24
    35 -47 l41 -41 141 34 c85 20 141 38 141 46 0 9 -8 9 -32 1 -18 -6 -79 -23
    -136 -38 l-102 -28 -30 25 c-17 13 -30 28 -30 32 0 11 103 40 335 96 163 40
    238 60 304 81 l14 4 -18 20 c-22 24 -25 24 -157 -8z"/>
    <path d="M5044 3787 c10 -7 37 -24 60 -39 22 -15 50 -28 61 -28 22 0 247 59
    255 67 9 9 -93 -9 -177 -32 l-82 -22 -58 34 c-54 30 -101 47 -59 20z"/>
    <path d="M4228 3981 c-3 -8 -225 -68 -498 -134 -96 -23 -100 -25 -80 -37 19
    -12 43 -13 36 -1 -4 5 60 26 141 46 317 77 437 111 441 123 4 14 -35 17 -40 3z"/>
    <path d="M4255 3952 l-60 -16 25 -6 c19 -5 0 -13 -80 -33 -287 -71 -405 -104
    -400 -113 2 -5 15 -15 29 -22 l25 -13 63 17 c83 22 81 35 -3 16 -43 -9 -69
    -11 -75 -5 -7 7 61 28 193 61 445 111 447 112 396 126 -31 8 -43 7 -113 -12z
    m60 -12 c-42 -11 -79 -11 -45 0 14 4 36 8 50 8 l25 0 -30 -8z"/>
    <path d="M4381 3910 c-74 -19 -89 -25 -79 -36 4 -3 36 4 73 15 37 12 77 21 89
    20 29 -1 -78 -31 -363 -103 -135 -34 -246 -66 -248 -72 -2 -5 18 -20 43 -32
    52 -26 74 -23 25 3 -36 18 -34 30 6 39 52 10 558 144 576 151 23 10 21 21 -5
    29 -29 7 -29 7 -117 -14z"/>
    <path d="M4498 3853 c-10 -2 -18 -8 -18 -11 0 -4 64 -40 143 -80 l142 -74 28
    7 c15 4 30 11 32 16 7 11 -66 60 -78 52 -10 -6 -4 -12 40 -40 l18 -12 -28 0
    c-16 -1 -42 8 -58 19 -15 12 -69 40 -119 64 l-91 43 24 5 c14 3 36 -1 48 -8
    13 -7 33 -13 44 -13 13 0 7 7 -20 20 -39 18 -71 22 -107 12z"/>
    <path d="M3540 3830 c-18 -11 -19 -11 65 -40 247 -84 661 -327 840 -493 l71
    -65 27 5 c17 3 26 11 25 21 -2 11 30 23 142 52 80 21 228 59 330 85 102 26
    189 51 194 56 6 5 3 16 -8 27 l-17 19 -72 -17 c-94 -23 -167 -48 -145 -49 10
    -1 56 8 103 19 91 21 125 25 125 12 0 -6 -101 -32 -602 -157 l-79 -19 4 -18
    c9 -33 -24 -19 -83 36 -180 166 -530 377 -800 482 -47 18 -84 38 -82 43 3 13
    -18 14 -38 1z"/>
    <path d="M4330 3803 c-33 -6 -50 -23 -24 -24 10 0 -24 -12 -76 -27 -130 -38
    -144 -48 -95 -70 35 -16 44 -14 21 3 -26 20 -25 20 94 51 118 29 138 28 233
    -15 64 -30 79 -51 37 -51 -10 0 -22 -5 -26 -12 -5 -8 2 -9 27 -4 40 8 54 20
    44 36 -11 18 -149 80 -198 90 l-42 8 38 1 c21 1 47 -4 58 -10 11 -6 25 -8 32
    -6 15 5 -59 38 -82 36 -9 -1 -27 -4 -41 -6z"/>
    <path d="M4087 3734 c-45 -25 -30 -45 83 -106 119 -65 122 -66 228 -38 172 46
    232 68 232 86 0 17 -45 47 -62 42 -7 -3 2 -13 21 -23 l34 -17 -16 -9 c-65 -37
    -289 -58 -352 -35 -16 6 -15 4 5 -13 14 -11 36 -22 50 -24 l25 -4 -28 -2 c-23
    -1 -201 83 -230 109 -5 5 7 14 27 21 20 7 36 17 36 21 0 12 -22 9 -53 -8z"/>
    <path d="M4856 3655 c-50 -12 -91 -26 -93 -32 -2 -5 36 1 84 13 95 26 113 28
    113 16 0 -4 -39 -17 -87 -29 -72 -17 -294 -74 -525 -134 -48 -12 -48 -20 2
    -53 l39 -26 102 25 c57 13 107 29 113 35 15 15 -28 13 -69 -5 -19 -7 -61 -19
    -94 -26 l-58 -11 -21 18 -21 18 37 13 c20 7 145 41 277 74 342 85 364 93 313
    116 -17 7 -48 3 -112 -12z"/>
    <path d="M4955 3572 c-125 -32 -109 -41 20 -11 69 15 99 19 107 11 8 -8 3 -13
    -18 -17 -103 -23 -634 -162 -640 -167 -2 -2 17 -24 41 -48 l45 -44 52 13 c108
    26 188 52 188 60 0 8 -117 -19 -207 -47 l-31 -10 -27 30 c-15 17 -23 34 -18
    39 8 8 71 25 506 136 137 36 152 44 120 69 -22 17 -18 17 -138 -14z"/>
    <path d="M4167 3563 c-4 -3 19 -21 51 -38 l57 -32 103 26 c132 34 133 46 1 15
    l-101 -24 -53 30 c-28 16 -55 27 -58 23z"/>
    <path d="M3385 3771 c-13 -11 -150 -49 -387 -106 -103 -25 -194 -48 -203 -51
    -24 -10 -18 -22 15 -29 36 -8 90 2 90 17 0 9 -13 8 -67 -7 -10 -3 -4 1 14 10
    30 14 293 81 468 120 90 20 118 32 110 46 -8 11 -28 12 -40 0z"/>
    <path d="M3510 3687 c-47 -11 -78 -22 -69 -24 9 -2 47 3 83 12 37 8 75 15 84
    14 17 -1 -193 -56 -466 -124 -79 -19 -148 -38 -154 -41 -9 -6 71 -64 87 -64
    18 0 -1 23 -32 39 l-38 19 25 7 c14 3 108 26 210 50 224 53 403 98 410 103 7
    5 -31 32 -44 31 -6 0 -49 -10 -96 -22z"/>
    <path d="M2667 3623 c-35 -9 -10 -26 93 -64 101 -36 340 -152 404 -194 17 -12
    74 -47 126 -79 113 -70 200 -137 292 -224 l67 -64 26 6 c20 5 25 11 20 25 l-6
    18 63 17 c35 10 171 44 303 77 132 33 255 65 273 71 35 13 40 40 9 46 -27 5
    -207 -38 -207 -50 0 -11 7 -10 120 21 86 24 90 24 90 12 0 -9 -49 -23 -415
    -115 l-250 -63 0 -19 c0 -39 -21 -32 -80 24 -114 110 -312 255 -428 313 -23
    12 -81 44 -130 71 -48 28 -142 72 -210 98 -94 36 -121 50 -119 63 3 17 -6 19
    -41 10z"/>
    <path d="M3660 3621 c0 -5 8 -11 18 -14 9 -2 26 -8 37 -12 l20 -7 -24 21 c-24
    22 -51 28 -51 12z"/>
    <path d="M3605 3611 c3 -6 40 -26 81 -46 42 -20 98 -50 126 -66 47 -28 83 -39
    63 -20 -11 10 -262 141 -271 141 -3 0 -3 -4 1 -9z"/>
    <path d="M3380 3548 c-74 -17 -145 -34 -157 -39 -33 -12 -29 -45 7 -64 34 -17
    44 -19 35 -5 -9 15 -2 13 95 -32 l91 -41 122 26 c67 14 123 22 125 18 4 -12
    72 5 89 22 l14 14 -13 10 c-28 22 -215 111 -243 115 -16 3 -91 -8 -165 -24z
    m291 -45 c110 -58 119 -67 74 -75 -20 -4 -23 -2 -14 8 8 10 3 17 -20 29 -32
    16 -44 4 -14 -14 25 -13 21 -15 -97 -39 -140 -29 -157 -28 -245 15 -83 41 -90
    51 -45 60 17 3 33 10 37 16 4 6 -8 7 -33 2 -49 -9 -54 -12 -54 -36 0 -23 -13
    -24 -35 -2 l-17 16 16 9 c23 13 247 61 253 54 4 -3 -3 -6 -15 -6 -12 0 -22 -4
    -22 -9 0 -5 18 -5 42 1 34 7 50 6 80 -8 21 -9 41 -15 44 -11 9 8 -32 27 -79
    37 l-42 8 39 1 c29 1 66 -13 147 -56z"/>
    <path d="M3879 3509 c18 -11 38 -18 45 -16 6 2 -3 11 -21 20 -45 24 -65 21
    -24 -4z"/>
    <path d="M3985 3428 c-83 -22 -91 -25 -84 -33 3 -2 40 5 83 16 43 11 88 19
    100 17 11 -2 -71 -26 -184 -55 -361 -92 -450 -117 -450 -129 0 -6 17 -23 38
    -37 l37 -26 55 15 c30 9 74 21 98 27 23 6 42 14 42 19 0 5 -10 6 -22 2 -13 -4
    -57 -15 -99 -24 l-77 -17 -27 21 -27 22 203 52 c112 29 258 66 323 83 140 35
    145 38 121 56 -23 16 -32 16 -130 -9z"/>
    <path d="M3370 3382 c0 -5 18 -17 41 -27 l41 -19 46 13 c26 7 52 17 57 23 7 8
    5 9 -6 5 -49 -17 -108 -18 -137 -3 -35 18 -42 19 -42 8z"/>
    <path d="M4083 3347 c-82 -22 -113 -37 -77 -37 10 0 59 11 107 24 48 12 90 19
    93 15 9 -15 -90 -43 -446 -128 -109 -26 -193 -55 -197 -67 -2 -6 15 -25 38
    -43 l41 -34 123 29 c68 15 122 31 120 35 -3 3 -31 0 -62 -7 -32 -8 -86 -20
    -120 -28 l-62 -13 -27 28 c-15 16 -26 31 -23 33 8 7 191 57 418 112 124 30
    227 57 230 60 3 3 0 13 -5 22 -15 24 -57 24 -151 -1z"/>
    <path d="M3310 3340 c0 -5 24 -24 52 -43 l53 -33 69 18 c67 17 92 28 67 28 -7
    0 -40 -7 -73 -16 l-60 -15 -54 36 c-30 19 -54 31 -54 25z"/>
    <path d="M2340 3515 c-277 -80 -640 -257 -640 -310 0 -8 19 -27 43 -41 23 -15
    78 -50 122 -79 171 -110 430 -261 624 -363 l114 -60 61 33 c140 77 457 194
    721 267 84 23 84 23 59 49 l-20 19 -100 -25 c-174 -45 -214 -57 -214 -66 0
    -13 7 -12 85 15 106 36 225 60 237 48 6 -6 -8 -14 -44 -22 -126 -29 -512 -166
    -637 -226 -150 -72 -141 -69 -141 -49 0 15 149 95 244 130 27 11 45 20 39 22
    -15 5 -128 -39 -215 -85 l-77 -40 -36 25 -36 24 23 18 c34 27 88 53 249 119
    135 56 182 72 449 152 l104 32 -24 18 c-16 12 -34 17 -50 14 -74 -17 -306 -86
    -314 -94 -18 -18 18 -11 141 30 67 22 140 42 162 46 61 10 51 -12 -11 -27
    -185 -44 -537 -178 -694 -264 -34 -18 -66 -30 -73 -26 -9 6 -9 10 1 18 16 14
    154 82 226 113 42 18 68 40 48 40 -11 0 -102 -43 -195 -94 l-104 -56 -34 21
    -34 21 18 13 c114 80 582 259 760 291 53 9 57 13 37 35 -23 25 -45 24 -150 -9
    -49 -16 -120 -37 -159 -47 -38 -10 -74 -23 -80 -28 -13 -12 6 -8 185 42 80 22
    154 41 164 41 44 0 -8 -20 -174 -68 -188 -54 -447 -158 -554 -223 -49 -29 -71
    -37 -83 -31 l-16 10 79 46 c43 25 105 56 137 69 47 18 74 37 52 37 -12 0 -186
    -81 -230 -107 l-51 -30 -38 24 c-21 14 -34 28 -30 33 39 38 328 164 516 225
    65 21 115 42 112 46 -2 5 -62 -12 -132 -37 -70 -25 -152 -55 -182 -65 -62 -23
    -195 -86 -283 -136 -62 -35 -77 -39 -77 -24 0 6 47 34 105 62 91 46 124 69 98
    69 -8 0 -109 -54 -179 -95 l-31 -19 -32 14 -32 13 13 13 c49 48 409 198 588
    245 25 6 39 14 33 16 -44 16 -505 -165 -628 -246 -19 -12 -35 -17 -44 -12 -15
    10 49 49 170 105 41 19 66 35 56 35 -10 1 -69 -24 -133 -55 -107 -52 -151 -62
    -142 -31 7 23 292 155 451 207 87 29 160 57 163 61 9 16 -12 10 -194 -55 -173
    -62 -257 -99 -389 -173 -35 -19 -68 -33 -75 -31 -14 5 80 63 165 103 31 15 57
    31 57 36 0 10 -138 -57 -202 -97 l-38 -24 -26 13 -26 13 89 51 c101 58 127 70
    278 125 201 73 239 85 342 109 108 25 119 32 79 50 -19 9 -39 7 -93 -8 -37
    -11 -121 -35 -185 -53 -65 -18 -118 -37 -118 -42 0 -6 8 -7 18 -3 65 26 351
    100 358 92 2 -2 -67 -23 -154 -47 -188 -53 -429 -148 -551 -219 -49 -28 -91
    -51 -95 -51 -36 0 95 86 198 130 27 11 47 23 44 25 -8 8 -126 -44 -196 -86
    -63 -39 -92 -45 -99 -23 -5 15 122 85 270 149 117 50 173 69 410 140 91 27
    106 39 59 50 -28 6 -217 -40 -286 -70 -17 -8 -40 -16 -50 -20 -10 -3 -16 -8
    -13 -11 5 -5 99 22 239 67 32 11 65 19 75 18 10 0 -74 -31 -187 -68 -238 -78
    -274 -93 -433 -178 -66 -35 -124 -63 -130 -63 -22 1 37 42 116 81 42 22 77 44
    77 49 0 15 0 15 -114 -50 -67 -38 -111 -57 -122 -53 -12 4 -15 2 -12 -8 2 -8
    49 -37 104 -64 55 -28 113 -61 129 -73 15 -12 35 -22 44 -22 10 0 26 -8 37
    -19 11 -10 40 -27 65 -38 24 -11 53 -30 63 -42 11 -11 23 -21 29 -21 5 0 39
    -20 76 -44 36 -24 75 -46 86 -50 11 -3 38 -22 59 -41 22 -19 46 -35 54 -35 22
    0 82 -48 82 -66 0 -22 -14 -17 -150 62 -30 17 -80 45 -110 61 -237 128 -614
    367 -608 385 5 15 166 112 257 154 81 38 315 121 430 153 41 11 76 23 79 26
    13 12 -41 2 -148 -30z"/>
    <path d="M2563 3359 c-35 -11 -63 -24 -63 -29 0 -13 -4 -14 73 13 110 39 102
    52 -10 16z"/>
    <path d="M2658 3291 c-48 -14 -90 -30 -95 -35 -4 -5 1 -7 12 -4 151 42 185 52
    185 60 0 11 -1 10 -102 -21z"/>
    <path d="M2765 3230 c-49 -15 -88 -31 -85 -36 5 -11 3 -11 109 24 112 38 91
    48 -24 12z"/>
    <path d="M8165 3730 l-25 -50 29 0 c20 0 31 -6 34 -17 l5 -18 1 18 c0 9 6 17
    13 17 9 0 9 3 0 12 -7 7 -12 29 -12 50 0 52 -15 48 -45 -12z m35 -10 c0 -23
    -4 -30 -20 -30 l-21 0 16 30 c9 17 18 30 20 30 3 0 5 -13 5 -30z"/>
    <path d="M8259 3764 c-7 -9 -13 -31 -13 -49 0 -59 59 -91 84 -46 35 67 -26
    149 -71 95z m59 -58 l-3 -41 -20 0 c-24 0 -34 67 -14 91 20 24 40 -3 37 -50z"/>
    <path d="M7648 3609 c-26 -15 -23 -32 3 -18 14 7 24 8 31 1 13 -13 2 -32 -18
    -32 -8 0 -14 -4 -14 -10 0 -5 9 -10 20 -10 14 0 20 -7 20 -21 l0 -21 -30 6
    c-33 6 -42 -9 -10 -19 41 -13 84 21 61 49 -6 7 -7 23 -4 36 4 16 1 27 -12 36
    -22 16 -25 17 -47 3z"/>
    <path d="M7748 3580 c-4 -42 0 -48 20 -28 17 17 45 -12 36 -36 -5 -14 -14 -17
    -35 -12 -33 6 -37 -1 -12 -19 21 -15 47 -5 63 25 15 28 -4 60 -35 60 -14 0
    -25 5 -25 10 0 6 11 10 25 10 16 0 25 6 25 15 0 10 -10 15 -29 15 l-29 0 -4
    -40z"/>
    <path d="M6727 3363 c-14 -13 -6 -25 8 -13 13 10 18 11 28 1 9 -10 7 -17 -12
    -32 -16 -13 -18 -19 -8 -19 26 0 39 -26 21 -41 -12 -10 -20 -10 -35 -1 -26 17
    -34 15 -19 -4 8 -9 25 -14 44 -12 l31 3 3 28 c2 16 -1 27 -9 27 -9 0 -9 3 1
    15 26 31 -24 77 -53 48z"/>
    <path d="M6827 3363 c-4 -3 -7 -19 -7 -34 l0 -28 30 5 c36 8 52 -18 28 -43
    l-16 -15 -22 12 -22 12 4 -14 c3 -7 19 -14 36 -16 l32 -3 12 25 11 26 -18 20
    c-10 11 -27 20 -37 20 -27 0 -17 23 13 31 l24 7 -31 1 c-17 1 -34 -2 -37 -6z"/>
    <path d="M5877 3144 c-15 -15 -6 -24 14 -13 14 7 24 8 31 1 13 -13 2 -32 -18
    -32 -21 0 -17 -17 6 -23 11 -3 20 -12 20 -21 0 -21 -28 -32 -43 -17 -17 17
    -31 13 -17 -4 30 -36 88 -6 74 37 -4 13 -8 34 -8 48 -1 19 -7 26 -26 28 -14 2
    -29 0 -33 -4z"/>
    <path d="M5980 3115 c0 -36 8 -43 27 -24 16 16 33 2 33 -27 0 -30 -24 -41 -47
    -23 l-16 14 5 -15 c6 -19 45 -25 64 -10 30 25 11 80 -28 80 -29 0 -21 28 10
    33 l27 4 -37 2 -38 1 0 -35z"/>
    <path d="M5007 2919 c-23 -14 -23 -33 1 -20 21 11 48 -2 38 -18 -4 -6 -16 -11
    -27 -11 -26 0 -24 -18 3 -22 13 -2 24 -11 26 -22 l4 -19 -38 6 -39 6 23 -19
    c19 -15 28 -17 43 -9 25 13 35 37 21 51 -6 6 -8 23 -5 39 6 32 -21 54 -50 38z"/>
    <path d="M5114 2923 c-12 -9 -25 -73 -14 -73 3 0 11 5 18 12 15 15 42 -7 42
    -35 l0 -20 -36 6 -36 6 12 -14 c26 -32 80 -11 80 30 0 27 -18 45 -47 45 -32 0
    -29 18 5 22 15 2 27 8 27 13 0 12 -36 18 -51 8z"/>
    <path d="M1605 2680 c-3 -5 -1 -10 4 -10 16 0 14 -97 -1 -103 -7 -2 -1 -6 15
    -9 15 -3 30 -1 33 3 3 5 0 9 -5 9 -7 0 -11 24 -11 60 0 46 -3 60 -14 60 -8 0
    -18 -4 -21 -10z"/>
    <path d="M1706 2668 c-35 -49 -11 -112 39 -106 l30 3 3 48 c5 73 -37 105 -72
    55z m49 -48 l0 -45 -20 0 c-15 0 -21 8 -23 33 -4 45 4 64 25 60 14 -3 18 -13
    18 -48z"/>
    <path d="M5451 2671 c-10 -17 -16 -19 -31 -11 -24 13 -40 13 -40 0 0 -24 39
    -47 115 -70 84 -24 308 -124 385 -171 25 -15 74 -45 110 -65 114 -65 353 -236
    421 -301 36 -35 71 -63 77 -63 7 0 12 -7 12 -15 0 -29 38 -14 69 27 l13 17
    -22 30 c-18 26 -80 83 -200 183 -82 69 -402 268 -523 325 -106 51 -291 122
    -335 129 l-40 6 -11 -21z m159 -63 c47 -17 116 -45 154 -64 78 -38 76 -37 76
    -24 0 5 -27 21 -60 36 -64 30 -77 44 -17 19 48 -20 248 -129 316 -172 40 -26
    51 -37 41 -43 -11 -7 -6 -13 19 -27 100 -54 401 -306 401 -335 0 -5 -7 -8 -15
    -8 -8 0 -15 5 -15 10 0 6 -7 10 -16 10 -9 0 -44 28 -78 62 -69 70 -242 210
    -287 234 -17 8 -63 37 -102 63 -120 80 -346 198 -452 236 -55 20 -102 39 -105
    41 -8 9 50 -7 140 -38z m-95 2 c13 -5 14 -9 5 -9 -8 0 -24 4 -35 9 -13 5 -14
    9 -5 9 8 0 24 -4 35 -9z m185 -12 c10 -6 7 -7 -10 -2 -14 3 -32 11 -40 16 -10
    6 -7 7 10 2 14 -3 32 -11 40 -16z m-100 -20 c10 -6 7 -7 -10 -2 -14 3 -32 11
    -40 16 -10 6 -7 7 10 2 14 -3 32 -11 40 -16z m625 -271 c125 -83 325 -255 325
    -280 0 -5 -28 20 -62 55 -66 66 -193 168 -290 233 -32 21 -58 40 -58 42 0 5
    11 -1 85 -50z"/>
    <path d="M4100 2665 l-12 -15 31 6 c38 8 45 -21 9 -36 l-23 -9 23 -7 c27 -8
    30 -44 4 -44 -10 0 -24 6 -31 13 l-13 12 4 -15 c6 -20 62 -25 77 -6 9 11 10
    20 2 35 -6 11 -8 27 -5 35 14 36 -41 61 -66 31z"/>
    <path d="M4206 2648 c-3 -17 -2 -36 4 -42 7 -7 10 -6 10 2 0 7 9 12 20 12 16
    0 20 -7 20 -30 0 -33 -24 -41 -49 -17 l-13 12 4 -15 c3 -10 17 -15 39 -15 l34
    0 0 35 0 35 -27 3 c-36 4 -38 32 -3 32 14 0 25 5 25 10 0 6 -13 10 -29 10
    l-28 0 -7 -32z"/>
    <path d="M2970 2370 c-63 -15 -168 -40 -233 -56 -65 -15 -125 -33 -134 -39
    -25 -18 -9 -45 26 -45 16 0 33 -4 36 -10 3 -6 52 -10 110 -10 57 0 107 -4 110
    -10 3 -5 9 -29 13 -52 l8 -43 25 -1 c13 -1 34 -6 46 -12 16 -9 31 -9 60 1 l38
    12 3 115 c1 63 7 119 12 124 12 12 13 43 3 49 -5 3 -60 -8 -123 -23z m114 -9
    c-5 -4 -63 -18 -129 -31 -66 -12 -156 -31 -200 -41 -84 -20 -146 -25 -85 -7
    70 20 415 96 419 92 3 -3 0 -8 -5 -13z m-14 -135 l0 -104 -16 -6 c-9 -3 -26
    -6 -39 -6 l-23 0 -4 61 c-3 46 -10 66 -24 76 l-19 15 -140 -5 -140 -6 80 20
    c98 25 260 56 298 58 l27 1 0 -104z m-151 5 c17 -11 27 -96 12 -105 -7 -5 -11
    4 -11 26 0 19 -6 43 -14 53 l-13 18 -109 -1 c-71 -1 -102 2 -89 8 26 11 206
    12 224 1z m45 -9 c3 -5 8 -33 12 -63 l7 -54 -15 13 c-10 8 -18 33 -20 62 -3
    46 3 62 16 42z"/>
    <path d="M2445 2294 c-65 -13 -121 -12 -171 2 -18 5 -44 -26 -44 -52 0 -18 88
    -37 193 -42 l118 -5 -3 53 c-3 62 -2 61 -93 44z m75 -14 c0 -5 -12 -10 -27
    -10 -16 0 -39 -3 -53 -7 -14 -3 -22 -3 -18 2 7 7 59 22 86 24 6 1 12 -3 12 -9z
    m-174 -10 l54 0 0 -16 0 -17 59 7 59 7 5 -15 c9 -22 -24 -28 -111 -21 -96 8
    -163 30 -155 51 3 8 12 13 20 10 8 -3 39 -6 69 -6z"/>
    <path d="M5799 2234 l-12 -15 26 6 c35 9 38 -21 5 -34 l-23 -9 28 -11 c37 -14
    29 -36 -12 -34 l-32 1 12 -14 c30 -36 96 6 72 46 -8 12 -9 21 -3 25 14 9 12
    21 -6 39 -20 20 -38 20 -55 0z"/>
    <path d="M5906 2234 c-18 -18 -21 -76 -6 -105 23 -42 80 -6 80 51 0 30 -25 70
    -45 70 -7 0 -21 -7 -29 -16z m49 -54 l0 -45 -20 0 c-15 0 -21 8 -23 33 -4 45
    4 64 25 60 14 -3 18 -13 18 -48z"/>
    <path d="M1972 2208 c-19 -19 -14 -29 8 -16 15 10 22 10 32 0 9 -9 4 -20 -26
    -51 -21 -22 -35 -44 -32 -50 9 -14 76 -15 76 -1 0 6 -15 10 -32 10 l-33 1 31
    27 c39 34 47 57 28 77 -19 18 -36 19 -52 3z"/>
    <path d="M2077 2213 c-4 -3 -7 -19 -7 -34 l0 -28 30 6 30 6 0 -26 c0 -28 -26
    -43 -46 -26 -11 9 -14 8 -14 -4 0 -33 52 -30 71 5 14 27 2 57 -27 64 -31 8
    -31 24 1 24 14 0 25 5 25 10 0 11 -53 14 -63 3z"/>
    <path d="M2680 2089 c-11 -8 -12 -12 -2 -16 14 -6 17 -93 2 -93 -5 0 -10 -4
    -10 -10 0 -5 10 -10 23 -10 l23 0 -4 63 c-5 69 -10 81 -32 66z"/>
    <path d="M2777 2093 c-4 -3 -7 -22 -7 -41 l0 -34 15 12 c20 17 45 5 45 -20 0
    -25 -25 -37 -44 -21 -9 7 -17 8 -20 3 -9 -15 20 -34 46 -30 14 2 26 13 33 32
    l10 28 -24 19 c-13 10 -27 16 -32 13 -5 -3 -9 2 -9 10 0 10 9 16 26 16 14 0
    23 4 19 10 -7 11 -48 14 -58 3z"/>
    </g>
  </g>
  <g id="labels" font-family="Helvetica, Arial, sans-serif" fill="#111" font-size="14" text-rendering="geometricPrecision" opacity="0" pointer-events="none">
      <a id="pos-10" href="#pos-10"><text data-pos="10" x="170" y="378" text-anchor="middle" dominant-baseline="middle" font-size="12" font-weight="600">10</text></a>
      <a id="pos-15" href="#pos-15"><text data-pos="15" x="276" y="437" text-anchor="middle" dominant-baseline="middle" font-size="12" font-weight="600">15</text></a>
      <a id="pos-25" href="#pos-25"><text data-pos="25" x="206" y="425" text-anchor="middle" dominant-baseline="middle" font-size="12" font-weight="600">25</text></a>
      <a id="pos-30" href="#pos-30"><text data-pos="30" x="587" y="421" text-anchor="middle" dominant-baseline="middle" font-size="12" font-weight="600">30</text></a>
      <a id="pos-35" href="#pos-35"><text data-pos="35" x="418" y="378" text-anchor="middle" dominant-baseline="middle" font-size="12" font-weight="600">35</text></a>
      <a id="pos-40" href="#pos-40"><text data-pos="40" x="822" y="268" text-anchor="middle" dominant-baseline="middle" font-size="12" font-weight="600">40</text></a>
  </g>
</svg>
