<svg xmlns="http://www.w3.org/2000/svg" width="960" height="640" viewBox="0 0 960 640" role="img" aria-labelledby="title desc">
  <title id="title">Mercedes parts diagram: group-008</title>
  <desc id="desc">Mercedes parts diagram: group-008</desc>
  <g id="art">
    <metadata>
    Created by potrace 1.16, written by Peter Selinger 2001-2019
    </metadata>
    <g transform="translate(0.000000,640.000000) scale(0.100000,-0.100000)"
    fill="#000000" stroke="none">
    <path d="M3825 6110 c-22 -5 -89 -21 -150 -35 -60 -15 -159 -37 -220 -51 -295
    -65 -538 -119 -720 -159 -110 -25 -285 -65 -390 -89 -104 -25 -280 -66 -390
    -91 -573 -129 -691 -158 -755 -187 -192 -86 -230 -115 -230 -176 0 -20 -10
    -71 -21 -112 -12 -41 -32 -122 -46 -180 -28 -123 -42 -156 -79 -190 -15 -14
    -35 -43 -45 -65 l-19 -40 6 -135 6 -135 -16 -30 c-9 -16 -16 -47 -16 -67 l0
    -38 38 -38 c73 -73 371 -244 511 -293 122 -43 88 -13 -44 39 -136 53 -396 205
    -451 264 -35 36 -53 78 -34 78 6 0 10 8 9 18 -3 24 11 53 22 46 6 -3 8 -13 5
    -22 -8 -27 13 -46 130 -120 152 -96 362 -202 402 -202 l16 0 -18 13 -19 14 13
    22 c7 14 9 34 4 49 l-7 27 -6 -21 -6 -22 -94 42 -95 41 -1 50 c-1 28 -5 58 -9
    67 -6 14 11 9 76 -21 97 -45 128 -55 128 -44 0 4 -28 19 -62 32 -69 25 -298
    146 -365 192 -45 31 -53 34 -53 19 0 -5 47 -35 105 -67 79 -44 103 -62 98 -73
    -4 -8 -7 -34 -6 -57 0 -24 -2 -43 -4 -43 -11 0 -152 86 -189 116 l-41 33 -6
    126 c-4 80 -2 137 5 158 12 36 95 130 103 117 16 -26 361 -228 371 -217 3 2
    -51 37 -120 76 -69 38 -146 86 -173 105 -26 20 -56 41 -66 48 l-18 13 47 190
    c25 105 48 191 49 193 1 2 19 -7 39 -19 l37 -22 -6 -76 c-3 -42 -8 -97 -11
    -123 l-6 -48 -61 -35 c-72 -40 -64 -46 16 -11 64 29 77 54 77 151 0 71 9 127
    19 120 8 -4 -13 -239 -23 -273 l-7 -21 -25 9 c-13 5 -24 6 -24 2 0 -7 221
    -122 235 -122 21 0 -23 31 -85 59 -38 18 -71 35 -74 39 -6 12 18 280 27 288 4
    4 5 -35 1 -87 l-7 -96 19 -5 c11 -3 69 8 129 23 61 15 97 28 82 28 -15 1 -66
    -9 -113 -20 -49 -13 -89 -18 -93 -13 -5 5 -5 44 -2 87 l6 77 75 -39 c170 -89
    378 -175 453 -188 20 -3 39 -9 42 -12 4 -8 -24 -333 -30 -339 -3 -3 -363 174
    -374 184 -3 3 -5 27 -5 54 0 31 -5 51 -13 54 -19 8 -26 -12 -15 -42 6 -15 20
    -103 32 -197 25 -209 46 -376 60 -475 5 -41 15 -109 20 -150 10 -77 64 -531
    80 -675 13 -115 27 -225 45 -345 9 -58 20 -145 25 -195 48 -442 60 -529 71
    -518 5 5 5 30 0 59 -5 27 -14 94 -20 149 -6 55 -16 136 -21 180 -16 125 -49
    404 -70 580 -11 88 -28 228 -39 310 -29 220 -44 365 -40 369 2 2 43 2 92 -1
    l87 -6 0 -20 c0 -48 43 -98 115 -134 83 -42 124 -45 187 -14 114 55 169 221
    112 337 -23 46 -56 71 -124 94 l-53 18 22 7 c46 14 102 8 126 -15 24 -23 55
    -97 55 -132 0 -10 7 -21 15 -24 8 -3 28 -40 44 -82 16 -43 50 -126 76 -187 26
    -60 75 -180 110 -265 35 -85 96 -231 135 -325 39 -93 102 -246 140 -340 38
    -93 101 -246 140 -340 40 -93 101 -242 137 -330 36 -88 77 -187 92 -220 16
    -33 33 -77 40 -97 7 -21 17 -38 22 -38 5 0 9 2 9 4 0 6 -100 250 -109 267 -5
    9 -28 63 -51 120 -23 57 -53 131 -67 164 -48 113 -175 420 -238 575 -35 85
    -95 232 -133 325 -38 94 -79 190 -90 215 -12 25 -43 99 -68 165 -25 66 -49
    125 -54 130 -4 6 -35 78 -68 160 -74 185 -148 364 -213 516 l-49 116 -5 129
    c-2 71 -7 149 -11 173 l-7 43 -31 13 c-17 7 -55 15 -84 19 -133 17 -457 156
    -656 283 l-76 48 6 25 c22 96 250 183 764 291 52 11 127 29 165 39 39 11 145
    35 236 54 91 20 251 56 355 80 104 25 275 63 379 86 105 22 213 47 240 55 28
    8 140 33 250 55 110 23 265 57 344 77 l143 36 77 -6 c127 -9 345 -100 491
    -204 99 -71 107 -79 148 -156 20 -39 27 -59 19 -62 -81 -26 -214 -61 -357 -95
    -96 -23 -222 -55 -280 -70 -58 -16 -204 -52 -325 -79 -121 -28 -233 -55 -250
    -60 -16 -6 -140 -37 -275 -70 -249 -61 -718 -179 -890 -224 -52 -13 -158 -39
    -235 -57 -140 -33 -170 -44 -149 -58 6 -4 19 -80 28 -172 20 -195 24 -220 38
    -220 6 0 8 11 4 25 -7 29 -47 368 -43 371 13 10 380 104 406 104 10 0 17 -37
    27 -147 3 -40 10 -73 16 -73 5 0 7 8 4 18 -2 9 -8 60 -11 113 l-7 95 68 18
    c38 10 87 24 109 31 22 8 128 34 235 60 107 25 236 57 285 70 50 14 187 48
    305 75 118 27 229 54 247 60 18 6 144 37 280 70 136 32 365 88 508 124 143 37
    265 64 271 62 13 -5 29 -88 49 -251 l13 -100 -14 -11 c-19 -15 -18 -28 1 -20
    26 10 20 -60 -7 -80 l-23 -16 23 5 c14 3 22 1 22 -8 0 -8 -10 -21 -22 -31
    l-23 -16 23 5 22 5 0 -111 c0 -67 4 -106 9 -98 6 10 10 10 16 1 8 -13 9 -12
    -27 -28 -22 -9 -28 -18 -28 -41 0 -42 -36 -66 -154 -103 -107 -33 -113 -35
    -104 -44 10 -9 188 55 263 94 l69 37 7 35 8 35 -22 23 -21 23 2 175 c2 97 -1
    181 -6 188 -5 6 -12 47 -16 91 -24 295 -61 378 -215 493 -195 145 -486 244
    -626 212z m-2019 -1184 c11 -10 38 -276 29 -285 -2 -2 -10 17 -17 43 -12 45
    -33 60 -44 31 -4 -8 3 -23 14 -33 21 -19 55 -98 47 -112 -12 -19 -74 -21 -93
    -3 -10 10 -26 23 -34 28 l-16 10 18 170 c10 94 18 171 19 172 3 6 67 -11 77
    -21z m2882 -87 c-7 -5 -20 -9 -28 -9 l-15 0 15 11 15 11 -14 5 c-10 4 -8 9 10
    19 l24 13 3 -21 c2 -11 -2 -25 -10 -29z m-3192 -160 l175 -91 -3 -27 c-4 -39
    -32 -38 -168 8 -149 50 -178 65 -184 94 -13 65 -15 107 -6 107 6 0 90 -41 186
    -91z m9 -130 c92 -32 182 -37 283 -15 l64 14 15 -37 c8 -20 19 -43 24 -52 l8
    -17 -57 -15 c-31 -9 -97 -27 -147 -41 -107 -31 -226 -35 -298 -10 l-47 16 0
    29 c0 17 7 44 16 61 l16 30 -31 29 c-19 17 -31 38 -31 53 l0 26 53 -22 c28
    -12 88 -34 132 -49z m219 15 c24 -9 19 -21 -9 -26 -19 -4 -25 -1 -25 13 0 20
    8 23 34 13z m-364 -59 c0 -8 -4 -17 -10 -20 -6 -4 -10 5 -10 20 0 15 4 24 10
    20 6 -3 10 -12 10 -20z m-477 -123 c58 -36 98 -59 187 -109 19 -11 79 -39 133
    -62 l97 -43 0 -24 c0 -18 -4 -22 -17 -17 -36 13 -266 133 -282 146 -9 8 -42
    29 -74 46 -64 36 -117 78 -117 92 0 14 6 12 73 -29z m1017 20 c0 -14 -14 -21
    -60 -31 -33 -8 -60 -17 -60 -22 0 -11 -4 -12 54 6 68 21 74 19 78 -17 2 -23
    10 -36 28 -45 13 -6 28 -21 32 -33 l8 -20 -20 10 c-28 15 -65 12 -153 -11 -95
    -26 -138 -60 -162 -127 l-17 -48 -67 4 c-110 5 -168 20 -174 43 l-6 21 37 -7
    c43 -8 42 -8 65 -6 l17 1 0 58 c0 69 -15 88 -88 113 l-46 16 -7 31 c-4 18 -5
    32 -3 32 2 0 29 -7 61 -15 89 -23 154 -18 313 24 172 46 170 46 170 23z m-840
    -22 c0 -16 -4 -30 -10 -30 -5 0 -10 14 -10 30 0 17 5 30 10 30 6 0 10 -13 10
    -30z m40 -33 c0 -10 -4 -15 -10 -12 -5 3 -10 18 -10 33 0 21 2 24 10 12 5 -8
    10 -23 10 -33z m850 -30 c0 -5 -4 -5 -10 -2 -5 3 -10 14 -10 23 l0 17 10 -15
    c5 -8 10 -19 10 -23z m-855 -25 c-9 -9 -35 8 -35 24 l0 17 20 -18 c11 -10 18
    -20 15 -23z m350 -35 c29 -15 35 -27 35 -79 0 -54 -6 -57 -62 -33 -37 15 -48
    40 -48 106 l0 29 28 -6 c15 -4 36 -11 47 -17z m404 -53 c20 -4 22 -7 10 -15
    -10 -6 -3 -9 23 -9 80 0 135 -84 125 -192 -18 -198 -235 -290 -311 -132 -10
    21 -21 33 -23 27 -3 -7 2 -26 10 -43 l15 -30 -16 9 c-29 15 -51 45 -66 88 -15
    44 -13 53 15 53 23 0 30 23 26 91 l-2 55 28 43 c31 46 78 73 117 65 14 -3 36
    -8 49 -10z m-279 -156 l68 -2 5 -22 c8 -41 -16 -56 -90 -56 -101 -1 -153 10
    -153 32 0 9 -3 31 -6 48 l-6 30 57 -13 c32 -8 88 -15 125 -17z"/>
    <path d="M1813 4072 c-95 -76 -78 -222 26 -222 96 0 154 144 88 218 -25 27
    -82 29 -114 4z m107 -19 l22 -28 -5 -49 -4 -50 -37 -33 c-44 -41 -77 -42 -106
    -5 l-22 27 5 47 c7 54 20 79 56 101 38 24 67 21 91 -10z"/>
    <path d="M7065 5758 c-8 -21 -31 -24 -38 -5 -6 14 -46 -30 -47 -51 0 -7 -7
    -15 -15 -18 -20 -8 -19 -27 3 -54 l17 -21 28 10 c21 8 27 17 25 33 l-3 23 28
    3 27 3 0 -25 0 -26 29 0 c29 0 61 22 61 41 0 5 -7 9 -15 9 -8 0 -15 9 -15 19
    0 11 -7 26 -15 35 -8 8 -15 20 -15 27 0 8 -7 6 -19 -5 l-19 -18 -5 19 -4 18
    -8 -17z m60 -57 c0 -14 6 -26 13 -29 21 -7 13 -22 -13 -22 -18 0 -25 5 -25 19
    0 26 -14 34 -50 26 -23 -5 -30 -12 -30 -30 0 -24 -25 -41 -36 -24 -3 5 1 25
    10 44 17 35 39 44 101 41 l30 -1 0 -24z"/>
    <path d="M7195 5652 c-5 -4 -10 -35 -10 -70 l0 -62 23 0 c12 0 22 5 22 10 0 6
    -4 10 -10 10 -5 0 -10 27 -12 60 -2 37 -7 57 -13 52z"/>
    <path d="M7282 5648 c-13 -13 -17 -68 -4 -68 4 0 13 5 20 12 17 17 45 -12 36
    -36 -5 -14 -14 -17 -36 -12 -21 4 -28 2 -26 -7 6 -17 46 -21 64 -7 7 7 14 26
    14 41 l0 30 -30 6 c-36 7 -40 23 -5 23 16 0 25 6 25 15 0 18 -41 20 -58 3z"/>
    <path d="M7405 5648 c-28 -16 -35 -28 -35 -68 0 -41 14 -60 46 -60 55 0 60 73
    6 78 -40 4 -38 25 2 30 15 2 26 8 23 15 -5 16 -19 18 -42 5z m33 -86 l3 -22
    -24 0 c-28 0 -41 22 -24 39 17 17 42 9 45 -17z"/>
    <path d="M7050 5574 c0 -47 4 -73 10 -69 6 3 10 15 10 25 0 14 9 20 38 23 l37
    4 -37 1 -38 2 0 45 c0 25 -4 45 -10 45 -6 0 -10 -32 -10 -76z"/>
    <path d="M7778 5553 c15 -6 17 -103 2 -103 -5 0 -10 -4 -10 -10 0 -5 11 -10
    24 -10 l23 0 -4 53 c-6 69 -9 77 -30 76 -11 0 -13 -3 -5 -6z"/>
    <path d="M7882 5515 c-27 -56 -27 -55 3 -55 16 0 25 -6 25 -15 0 -8 5 -15 10
    -15 6 0 10 6 10 14 0 8 6 17 13 20 10 5 10 7 0 12 -7 3 -13 23 -13 45 0 53
    -20 51 -48 -6z m28 -15 c0 -11 -7 -20 -15 -20 -13 0 -14 4 -5 20 6 11 13 20
    15 20 3 0 5 -9 5 -20z"/>
    <path d="M7995 5495 l0 -65 23 0 c12 0 22 5 22 10 0 6 -4 10 -10 10 -5 0 -10
    25 -10 55 0 37 -4 55 -12 55 -9 0 -13 -20 -13 -65z"/>
    <path d="M7635 5504 c8 -40 -22 -80 -52 -70 -23 7 -47 52 -33 61 13 8 13 25 0
    25 -22 0 -31 -39 -15 -70 l16 -30 39 0 39 0 16 30 c19 36 19 42 0 66 l-16 19
    6 -31z"/>
    <path d="M7020 5463 c-172 -33 -557 -127 -568 -137 -11 -12 -15 -1756 -3
    -1756 8 0 11 225 11 870 l0 870 19 -11 18 -12 -5 -753 c-4 -562 -2 -754 7
    -754 8 0 11 195 11 753 l0 754 148 32 c81 18 203 46 271 62 139 34 165 34 169
    2 2 -16 -3 -23 -25 -27 -321 -71 -465 -104 -471 -110 -4 -4 -9 -337 -12 -739
    l-5 -732 -48 -9 c-53 -9 -61 -22 -55 -97 2 -27 8 -43 15 -42 6 2 31 6 54 9
    l42 7 -7 -72 c-3 -44 -2 -71 4 -71 6 0 10 35 10 81 l0 81 -51 -7 -50 -7 3 42
    3 43 48 14 47 14 1 462 c0 514 6 988 12 994 2 2 11 1 20 -3 l16 -6 -6 -761
    c-3 -419 -7 -763 -8 -765 -1 -1 -17 4 -36 12 -19 9 -26 15 -16 16 21 0 23 16
    3 23 -19 7 -39 -17 -34 -40 2 -12 12 -18 29 -18 14 -1 41 -10 60 -21 l34 -20
    0 -651 c0 -358 3 -655 8 -659 4 -4 7 72 7 169 0 97 0 396 0 663 l0 487 -17 12
    -18 13 3 764 c2 420 5 764 7 766 2 2 41 12 86 23 46 10 100 24 119 29 127 37
    353 80 366 69 10 -8 14 -37 14 -100 l0 -89 -22 -5 c-13 -3 -43 -10 -68 -16
    -25 -6 -128 -30 -230 -53 l-185 -43 -5 -264 c-6 -338 -12 -1749 -7 -1749 2 0
    18 5 35 11 l30 10 4 42 c2 22 5 457 7 966 2 509 5 929 7 932 2 4 16 9 31 12
    16 3 138 31 273 61 135 31 251 54 258 51 8 -3 12 -28 12 -78 l0 -75 -42 -10
    c-24 -6 -96 -20 -161 -32 -70 -13 -127 -30 -140 -40 l-22 -18 -5 -179 c-3 -98
    -7 -340 -8 -538 l-2 -360 35 -24 35 -24 172 42 c95 22 209 48 253 57 l80 16
    43 41 42 41 0 499 0 500 -21 34 -22 35 -46 -6 c-25 -3 -63 -8 -83 -12 l-38 -6
    0 56 c0 101 -32 146 -104 146 l-36 0 0 86 0 86 -34 34 c-27 27 -42 34 -71 34
    l-38 0 -31 35 c-32 37 -72 49 -126 38z m106 -38 c26 -26 28 -45 6 -53 -7 -2
    -12 3 -12 11 0 7 -9 22 -20 32 -23 21 -28 20 -260 -36 -228 -56 -333 -77 -349
    -71 l-13 5 13 7 c8 4 61 17 119 30 58 12 123 28 145 35 22 7 83 23 135 34 52
    11 104 22 115 24 57 13 96 7 121 -18z m157 -86 c13 -17 17 -40 17 -110 l0 -89
    -15 0 c-11 0 -15 19 -17 91 l-3 92 -17 11 c-17 10 -129 -8 -308 -50 -30 -7
    -104 -24 -165 -38 -120 -28 -135 -30 -135 -17 0 11 78 32 320 85 113 24 214
    47 225 49 35 9 79 -2 98 -24z m136 -235 c27 -34 31 -164 6 -164 -12 0 -15 14
    -15 68 l0 69 -20 18 -20 18 -38 -11 c-41 -13 -109 -28 -287 -67 -66 -14 -148
    -32 -181 -39 -52 -11 -100 -7 -84 7 4 3 408 95 500 113 13 3 27 7 29 10 2 2
    24 4 47 4 l43 0 20 -26z m-635 -129 l19 -15 -6 -237 c-4 -131 -7 -563 -7 -960
    l0 -722 -20 -11 -20 -11 0 986 c0 542 3 985 8 985 4 0 16 -7 26 -15z m852 -46
    l19 -21 3 -492 3 -491 -44 -44 -45 -43 -223 -48 c-123 -27 -232 -51 -241 -55
    -10 -4 -30 1 -48 11 l-30 19 0 517 1 518 22 26 22 26 240 48 c280 56 295 57
    321 29z"/>
    <path d="M7518 4488 c-30 -46 -59 -110 -48 -106 15 5 84 128 72 128 -5 0 -16
    -10 -24 -22z"/>
    <path d="M7562 4428 c-54 -88 -112 -202 -106 -207 4 -3 9 -1 11 4 2 6 22 39
    43 75 63 105 91 160 81 160 -5 0 -18 -15 -29 -32z"/>
    <path d="M7347 4318 c-58 -105 -60 -111 -47 -106 6 2 27 33 47 68 19 36 39 69
    44 75 12 12 12 25 0 25 -5 0 -25 -28 -44 -62z"/>
    <path d="M7385 4253 c-11 -21 -39 -73 -63 -117 -24 -43 -41 -81 -38 -84 4 -3
    8 -3 9 -1 8 9 127 230 127 234 0 17 -18 -1 -35 -32z"/>
    <path d="M7485 4149 c-70 -129 -69 -129 -58 -129 5 0 31 39 57 88 26 48 56
    102 68 120 14 23 16 32 6 32 -7 0 -40 -50 -73 -111z"/>
    <path d="M7371 4093 c-12 -32 -60 -119 -97 -175 -27 -43 -32 -67 -10 -48 25
    20 145 250 131 250 -7 0 -18 -12 -24 -27z"/>
    <path d="M7402 5411 c-65 -19 -80 -27 -69 -37 5 -6 29 1 80 21 l17 7 0 -31 c0
    -17 5 -31 10 -31 6 0 10 15 10 33 l0 33 28 11 c46 18 -5 14 -76 -6z"/>
    <path d="M7908 5137 l-48 -10 0 -29 0 -28 25 0 c16 0 25 -6 25 -15 0 -8 -7
    -15 -15 -15 -8 0 -15 5 -15 10 0 6 -13 10 -29 10 -17 0 -33 -4 -36 -10 -9 -15
    -45 -12 -45 4 0 8 10 16 23 18 16 2 22 10 22 28 l0 25 -48 9 c-59 10 -70 2
    -57 -44 6 -19 10 -54 10 -77 l0 -43 48 0 c26 0 53 5 60 12 9 9 15 9 24 0 16
    -16 93 -15 106 1 13 16 20 159 7 162 -5 1 -31 -3 -57 -8z m48 -29 c-3 -13 -6
    -43 -6 -67 l0 -44 -60 6 c-33 3 -63 1 -66 -4 -3 -5 -23 -9 -45 -9 l-39 0 0 28
    c0 15 -4 43 -10 61 -12 43 -11 44 34 36 42 -8 48 -25 10 -25 l-26 0 6 -22 c3
    -13 6 -29 6 -35 0 -8 13 -13 30 -13 17 0 30 5 30 10 0 6 11 10 24 10 14 0 28
    -4 31 -10 11 -18 45 -11 45 9 0 11 3 26 6 35 5 12 0 16 -20 16 -36 0 -33 15 7
    28 47 15 50 14 43 -10z"/>
    <path d="M8080 5121 c0 -5 5 -13 10 -16 15 -9 12 -92 -2 -98 -7 -3 3 -6 22 -6
    19 0 30 3 23 7 -6 4 -13 32 -15 62 -2 43 -7 56 -20 58 -10 2 -18 -1 -18 -7z"/>
    <path d="M8180 5096 l0 -33 25 5 c31 6 45 -22 21 -46 -12 -13 -18 -13 -28 -4
    -17 17 -33 15 -18 -3 15 -18 51 -20 68 -3 30 30 -5 89 -44 74 -8 -3 -14 1 -14
    9 0 9 10 15 24 15 14 0 28 5 31 10 4 6 -8 10 -29 10 l-36 0 0 -34z"/>
    <path d="M8290 5121 c0 -6 5 -11 10 -11 15 0 13 -97 -2 -103 -7 -3 3 -6 22 -6
    19 0 30 3 23 7 -6 4 -13 32 -15 62 -2 43 -7 56 -20 58 -10 2 -18 -1 -18 -7z"/>
    <path d="M7565 5057 l3 -33 -46 -14 c-27 -7 -40 -15 -30 -17 20 -5 158 36 158
    47 0 5 -15 4 -32 -1 -18 -5 -34 -9 -35 -9 -2 0 -3 14 -3 30 0 17 -4 30 -9 30
    -5 0 -8 -15 -6 -33z"/>
    <path d="M2105 5014 c-246 -60 -228 -36 -203 -277 11 -111 24 -142 57 -133 54
    15 79 16 89 3 l12 -13 -75 -18 c-41 -10 -75 -22 -75 -27 0 -14 21 -11 95 12
    l67 21 34 -33 c19 -18 34 -36 34 -40 0 -4 -43 -17 -95 -30 -52 -13 -95 -27
    -95 -32 0 -4 8 -6 18 -3 159 46 212 53 212 27 0 -5 -40 -19 -88 -30 -48 -12
    -94 -26 -102 -31 l-15 -10 17 0 c26 0 142 31 153 41 25 24 62 8 123 -54 l62
    -63 0 -85 0 -86 -52 -16 c-29 -9 -81 -24 -115 -33 -35 -10 -63 -21 -63 -25 0
    -7 301 69 352 89 l27 11 661 -666 c363 -366 663 -663 666 -661 4 5 -212 224
    -1414 1437 -216 218 -397 406 -402 419 -11 26 -28 29 -37 6 -4 -10 7 -26 32
    -47 l39 -31 -25 -7 c-13 -4 -34 -7 -45 -8 l-21 -1 -13 143 c-15 178 -15 178
    38 193 l42 13 4 -22 c3 -12 10 -76 16 -142 6 -65 13 -121 15 -124 15 -14 15
    21 -1 137 -9 72 -14 137 -11 145 5 14 214 73 224 63 5 -5 22 -126 23 -159 0
    -10 4 -16 8 -13 8 5 -2 130 -13 166 -8 26 -33 25 -160 -6z m347 -824 c-7 -6
    -83 -30 -96 -30 -3 0 -6 32 -6 72 l0 72 55 -54 c30 -30 52 -57 47 -60z"/>
    <path d="M2214 4825 c-9 -24 5 -35 37 -28 l30 6 -3 -49 -3 -48 -100 -33 c-113
    -36 -105 -44 12 -12 94 25 117 47 110 101 -3 21 -1 38 3 38 13 0 18 -123 6
    -136 -6 -6 -45 -19 -86 -29 -41 -10 -82 -21 -90 -26 l-15 -8 15 -1 c9 0 48 9
    88 20 98 27 99 27 104 -21 4 -45 -3 -53 -65 -64 -20 -4 -40 -12 -44 -18 -4 -6
    4 -8 22 -3 74 19 85 19 85 2 0 -10 -11 -19 -30 -23 -17 -3 -33 -10 -36 -15 -4
    -6 1 -8 12 -5 11 3 29 8 40 12 l22 6 7 -56 c9 -72 27 -72 24 1 -2 40 1 58 12
    65 11 7 9 9 -8 9 -40 0 -26 28 20 40 23 6 53 15 67 20 14 5 71 21 128 36 56
    15 102 30 102 35 0 4 -74 -12 -164 -35 l-165 -43 -6 39 c-4 22 -4 42 0 46 4 4
    55 19 113 34 59 15 157 41 217 58 l110 30 135 -9 c74 -6 180 -13 235 -16 184
    -11 490 -35 540 -43 l50 -8 -50 -13 c-103 -26 -152 -71 -180 -164 l-12 -42
    -114 -33 c-63 -18 -220 -61 -349 -96 -420 -114 -510 -140 -510 -147 0 -7 171
    35 330 81 208 60 514 140 534 140 9 0 16 -6 16 -14 0 -28 55 -66 155 -105 115
    -45 130 -47 178 -27 78 32 137 128 137 221 0 80 -31 130 -104 167 l-29 15 43
    7 c55 9 82 -9 112 -73 17 -38 26 -48 38 -41 8 4 85 27 170 50 l155 43 75 -3
    c41 -1 86 -3 100 -5 14 -1 72 -5 130 -9 149 -9 526 -34 790 -51 124 -8 270
    -20 325 -25 55 -5 208 -16 340 -25 132 -8 261 -17 288 -20 26 -2 47 0 47 4 0
    10 -175 26 -495 46 -132 8 -332 21 -445 29 -113 8 -252 17 -310 21 -58 3 -163
    10 -235 15 -71 6 -238 17 -370 25 -132 9 -280 20 -330 25 -49 5 -173 14 -275
    20 -102 6 -306 20 -455 30 -148 11 -342 24 -430 30 -414 26 -479 30 -615 40
    -79 6 -149 15 -154 20 -14 14 -26 12 -32 -5z m369 -42 c65 -3 119 -9 122 -13
    2 -3 -49 -19 -113 -34 -64 -16 -145 -38 -180 -50 l-63 -20 -9 14 c-6 8 -10 39
    -10 69 l0 54 68 -7 c37 -3 120 -9 185 -13z m1541 -109 l89 -7 -39 -12 c-69
    -22 -229 -65 -242 -65 -7 0 -12 7 -12 16 0 9 -10 32 -22 51 l-21 35 79 -6 c43
    -3 119 -9 168 -12z m-404 -13 c0 -5 17 -12 39 -16 51 -8 87 -48 101 -109 l11
    -49 -16 -54 c-46 -158 -200 -201 -276 -78 l-19 30 0 -20 c0 -12 5 -26 12 -33
    9 -9 9 -12 0 -12 -21 0 -62 23 -62 35 0 7 -7 19 -16 26 l-17 14 8 -23 7 -24
    -20 11 c-23 13 -55 58 -48 70 3 5 25 13 49 19 l43 11 17 54 c26 84 66 123 147
    148 35 10 40 10 40 0z"/>
    <path d="M3708 4577 c-35 -15 -76 -71 -84 -112 -6 -33 17 -103 39 -117 32 -20
    79 -8 117 30 60 59 66 137 15 188 -27 27 -46 29 -87 11z m82 -27 c40 -40 20
    -135 -36 -179 -35 -28 -59 -26 -91 5 l-25 26 5 45 c10 94 96 154 147 103z"/>
    <path d="M908 4753 c-10 -2 -18 -9 -18 -14 0 -5 11 -7 25 -3 19 5 41 -4 88
    -34 101 -64 277 -153 277 -139 0 7 -28 25 -63 40 -35 15 -112 57 -172 92 -60
    36 -111 64 -114 64 -3 -1 -14 -3 -23 -6z"/>
    <path d="M1000 4534 c0 -5 242 -122 283 -137 12 -5 17 -3 15 5 -2 6 -49 30
    -104 53 -54 23 -118 51 -141 63 -44 23 -53 26 -53 16z"/>
    <path d="M7775 4335 l0 -65 23 0 c12 0 22 5 22 10 0 6 -4 10 -10 10 -5 0 -10
    25 -10 55 0 37 -4 55 -12 55 -9 0 -13 -20 -13 -65z"/>
    <path d="M7865 4390 c-4 -6 -4 -14 0 -18 4 -4 10 -1 12 6 3 6 13 12 24 12 30
    0 23 -36 -11 -60 -16 -12 -30 -30 -30 -41 l0 -19 40 0 c22 0 40 5 40 10 0 6
    -14 10 -31 10 l-31 0 32 36 c17 20 30 43 28 52 -4 20 -62 29 -73 12z"/>
    <path d="M7970 4381 c-33 -62 24 -143 68 -99 30 30 2 86 -38 75 l-20 -5 10 18
    c6 10 20 21 32 23 17 3 14 5 -9 6 -23 1 -35 -5 -43 -18z m63 -53 c7 -21 -4
    -38 -23 -38 -23 0 -34 16 -26 35 7 18 43 20 49 3z"/>
    <path d="M8478 4109 c-10 -5 -18 -14 -18 -20 0 -5 9 -4 20 3 15 10 22 10 32 0
    9 -9 4 -20 -25 -50 -48 -49 -47 -62 3 -62 22 0 40 5 40 10 0 6 -11 10 -25 10
    -33 0 -32 11 5 38 34 26 39 57 11 72 -23 12 -22 12 -43 -1z"/>
    <path d="M8600 4113 c-40 -14 -55 -87 -24 -117 18 -19 28 -20 55 -6 40 22 13
    89 -32 77 -15 -4 -19 -2 -15 10 3 8 6 17 6 19 0 2 12 4 26 4 14 0 23 4 19 10
    -7 11 -12 11 -35 3z m28 -87 c-4 -25 -36 -34 -44 -12 -8 21 13 46 32 39 8 -3
    14 -15 12 -27z"/>
    <path d="M8679 4101 l-23 -18 18 -28 c14 -21 23 -25 42 -21 13 4 24 2 24 -3 0
    -15 -29 -33 -45 -27 -9 3 -15 0 -15 -9 0 -18 30 -20 52 -2 9 6 20 28 23 49 l7
    36 -21 21 c-26 26 -33 26 -62 2z m56 -26 c0 -13 -8 -21 -22 -23 l-23 -3 0 26
    0 26 23 -3 c14 -2 22 -10 22 -23z"/>
    <path d="M8550 3889 c-101 -24 -420 -93 -555 -120 -121 -24 -135 -33 -135 -91
    l0 -39 38 7 c37 7 446 95 637 138 l100 22 3 22 c2 16 10 22 27 22 32 0 41 17
    19 41 -20 23 -35 22 -134 -2z m115 -8 c7 -12 2 -13 -180 -51 -232 -48 -424
    -90 -492 -107 -35 -8 -71 -12 -80 -8 -22 9 37 24 362 94 127 27 259 56 295 64
    82 19 88 19 95 8z m-35 -51 c0 -5 -2 -10 -4 -10 -10 0 -305 -64 -421 -91 -142
    -33 -242 -55 -292 -63 l-33 -5 0 25 0 26 15 -12 c9 -7 27 -10 43 -7 145 31
    268 59 322 72 115 28 324 73 348 74 12 0 22 -3 22 -9z"/>
    <path d="M8750 3834 c-21 -24 -77 -45 -190 -69 -58 -13 -154 -35 -215 -49 -60
    -14 -197 -44 -304 -66 -107 -22 -197 -42 -199 -45 -3 -2 -7 -25 -9 -50 -5 -58
    6 -63 105 -41 42 10 151 33 242 51 91 19 210 46 265 59 55 14 141 34 190 45
    96 22 140 46 140 77 0 10 8 27 18 37 22 22 22 44 -2 57 -25 13 -26 13 -41 -6z
    m35 -24 c0 -21 -59 -57 -121 -75 -30 -9 -139 -33 -242 -55 -199 -41 -314 -67
    -452 -99 l-85 -20 -13 13 -13 13 128 31 c128 31 202 47 448 98 174 36 258 61
    297 89 36 25 53 26 53 5z m-25 -70 c0 -20 -79 -48 -210 -74 -74 -15 -191 -41
    -260 -58 -139 -33 -398 -88 -417 -88 -27 0 -12 27 15 28 15 1 108 20 207 42
    99 23 217 50 262 60 45 10 138 30 207 44 69 14 140 32 158 40 18 8 34 15 36
    15 1 1 2 -3 2 -9z"/>
    <path d="M8903 3783 c-7 -2 -13 -12 -13 -20 l0 -16 19 17 c20 19 41 14 41 -8
    0 -7 -12 -23 -26 -37 -14 -13 -30 -32 -35 -41 l-10 -18 48 2 c37 1 40 2 16 5
    -39 5 -42 17 -9 38 61 40 34 105 -31 78z"/>
    <path d="M9027 3783 l32 -4 -24 -56 c-14 -30 -25 -57 -25 -59 0 -10 18 -3 23
    9 3 6 14 36 26 65 l21 52 -43 -2 -42 -1 32 -4z"/>
    <path d="M9125 3747 c-32 -55 -31 -57 5 -57 22 0 30 -5 31 -17 0 -14 2 -15 6
    -3 3 8 11 18 17 22 8 5 7 8 -1 8 -9 0 -13 16 -13 45 0 56 -12 57 -45 2z m31
    -33 c-3 -8 -12 -14 -21 -14 l-16 0 18 33 c13 25 18 28 21 14 2 -10 1 -25 -2
    -33z"/>
    <path d="M7474 3768 c-4 -6 -2 -14 4 -16 16 -5 16 -89 0 -95 -7 -3 1 -5 17 -5
    17 0 24 2 18 5 -9 3 -13 26 -13 64 0 56 -10 74 -26 47z"/>
    <path d="M7569 3764 l-12 -15 25 6 c34 9 44 -10 16 -30 l-23 -15 23 -6 c12 -4
    22 -13 22 -20 0 -21 -27 -29 -45 -14 -17 14 -31 8 -20 -9 3 -6 21 -11 40 -11
    36 0 56 29 36 53 -6 8 -6 18 -1 27 22 36 -33 67 -61 34z"/>
    <path d="M7689 3778 c0 -1 -1 -31 -2 -66 l-2 -62 30 0 c17 0 25 3 18 8 -6 4
    -13 32 -15 61 -2 32 -8 56 -15 59 -7 2 -13 2 -14 0z"/>
    <path d="M7070 3653 l-21 -36 15 -9 c20 -11 21 -44 1 -52 -11 -4 -15 2 -15 25
    0 17 -6 32 -15 36 -23 8 -33 -7 -12 -18 18 -11 24 -49 7 -49 -5 0 -10 -5 -10
    -11 0 -6 9 -8 20 -4 13 4 30 -1 46 -14 59 -46 100 -15 92 70 -10 99 -67 132
    -108 62z m77 -13 c16 -31 17 -102 2 -117 -8 -8 -18 -8 -34 -1 l-22 10 -6 56
    c-8 80 29 113 60 52z"/>
    <path d="M6970 3605 c0 -8 5 -15 10 -15 6 0 10 -11 10 -25 0 -14 -4 -25 -10
    -25 -5 0 -10 8 -10 18 0 24 -26 59 -36 49 -4 -4 -2 -13 4 -19 15 -15 16 -58 2
    -58 -5 0 -10 8 -10 18 0 10 -6 27 -14 37 l-13 18 -36 -29 -36 -29 36 -17 c20
    -10 45 -16 55 -12 15 4 52 11 81 13 17 2 7 70 -13 81 -16 9 -20 8 -20 -5z
    m-56 -41 c9 -22 -1 -33 -24 -27 -23 6 -24 9 -7 28 16 19 24 18 31 -1z"/>
    <path d="M7475 3584 c-5 -2 -73 -17 -150 -32 l-140 -29 0 -53 0 -54 31 -18 30
    -18 168 35 c92 19 169 35 172 35 2 0 4 25 4 56 l0 56 -40 -7 -40 -7 0 21 c0
    20 -12 25 -35 15z m25 -29 c0 -8 -4 -15 -8 -15 -8 0 -175 -33 -229 -45 l-23
    -5 0 -40 c0 -43 0 -43 -24 -34 -11 4 -16 19 -16 49 l0 43 73 16 c237 52 227
    51 227 31z m70 -49 c0 -23 -6 -36 -17 -41 -15 -5 -288 -65 -299 -65 -2 0 -4
    16 -4 35 l0 34 38 11 c45 14 240 57 265 59 13 1 17 -7 17 -33z"/>
    <path d="M7630 3540 c0 -31 -4 -40 -17 -40 -9 0 -14 -3 -10 -6 9 -9 77 5 77
    16 0 6 -7 10 -15 10 -10 0 -15 10 -15 30 0 17 -4 30 -10 30 -5 0 -10 -18 -10
    -40z"/>
    <path d="M7702 3498 l3 -33 38 -3 37 -3 0 35 c0 20 -4 36 -10 36 -5 0 -10 -11
    -10 -25 0 -18 -5 -25 -20 -25 -15 0 -20 7 -20 25 0 14 -5 25 -11 25 -6 0 -9
    -14 -7 -32z"/>
    <path d="M7901 3480 c-42 -10 -51 -23 -51 -78 l0 -44 31 -29 32 -30 46 7 c53
    7 83 35 79 73 -4 31 -22 36 -77 21 l-40 -10 -3 -33 -4 -32 -11 25 c-7 14 -12
    19 -12 12 -2 -30 -21 2 -21 35 0 27 3 33 13 25 16 -13 107 6 107 23 0 14 -33
    45 -46 44 -5 -1 -24 -5 -43 -9z m59 -20 c19 -12 12 -18 -30 -22 -40 -3 -53 14
    -18 24 32 9 31 9 48 -2z m60 -90 c0 -21 -56 -54 -72 -44 -15 10 -8 53 10 57
    42 11 62 7 62 -13z"/>
    <path d="M5230 3456 c0 -13 -3 -31 -6 -39 -4 -12 2 -15 27 -14 37 2 47 -14 23
    -37 -13 -13 -19 -14 -30 -5 -8 7 -17 9 -21 5 -7 -6 25 -35 40 -36 4 0 16 9 28
    21 29 29 21 62 -18 74 -40 11 -42 23 -5 27 38 4 34 22 -5 26 l-33 3 0 -25z"/>
    <path d="M5368 3458 c-57 -89 -56 -88 -24 -88 13 0 27 -7 30 -17 l7 -16 13 19
    c8 11 11 23 6 29 -5 6 -10 31 -12 55 l-3 45 -17 -27z m-2 -65 c-11 -11 -17 4
    -9 23 l7 19 4 -18 c2 -10 1 -21 -2 -24z"/>
    <path d="M5122 3458 c-19 -19 -14 -30 7 -17 10 7 26 9 36 5 l18 -7 -38 -39
    c-45 -46 -43 -73 7 -68 39 4 51 28 14 28 -33 0 -33 2 4 39 l31 30 -11 21 c-12
    22 -49 27 -68 8z"/>
    <path d="M6952 3458 c-13 -13 -17 -68 -4 -68 4 0 13 5 20 12 17 17 47 -14 38
    -37 -5 -13 -14 -16 -36 -11 -37 7 -40 -11 -4 -20 19 -5 31 -1 47 14 l21 21
    -12 26 c-8 17 -19 25 -38 25 -31 0 -28 23 4 28 12 2 20 8 17 13 -9 13 -39 11
    -53 -3z"/>
    <path d="M7060 3456 c-6 -8 -10 -23 -9 -33 2 -10 -1 -28 -5 -41 -10 -30 10
    -54 42 -50 34 4 51 32 35 57 -8 13 -9 21 -1 29 9 9 7 17 -7 32 -21 24 -38 25
    -55 6z m48 -23 c5 -17 -26 -29 -40 -15 -6 6 -7 15 -3 22 9 14 37 9 43 -7z m0
    -65 c3 -13 -3 -18 -22 -18 -20 0 -26 5 -26 21 0 26 43 23 48 -3z"/>
    <path d="M6850 3450 c0 -5 5 -10 10 -10 6 0 10 -20 10 -45 0 -25 -4 -45 -10
    -45 -5 0 -10 -4 -10 -10 0 -5 11 -10 25 -10 14 0 25 5 25 10 0 6 -4 10 -10 10
    -5 0 -10 25 -10 55 0 42 -3 55 -15 55 -8 0 -15 -4 -15 -10z"/>
    <path d="M8115 3420 c-11 -18 1 -22 24 -8 16 10 23 10 33 0 9 -9 4 -20 -25
    -50 -48 -49 -47 -62 3 -62 22 0 40 5 40 10 0 6 -11 10 -25 10 -32 0 -32 10 0
    40 35 33 30 64 -12 68 -17 2 -34 -2 -38 -8z"/>
    <path d="M8226 3422 c-3 -6 -5 -21 -5 -33 1 -13 -1 -31 -5 -40 -10 -23 21 -51
    52 -47 31 4 48 29 37 54 -4 11 -8 30 -9 44 l-1 25 -32 3 c-17 2 -34 -1 -37 -6z
    m60 -13 c8 -14 -14 -29 -33 -22 -7 3 -13 11 -13 19 0 17 36 19 46 3z m-1 -59
    c4 -6 1 -17 -5 -25 -16 -19 -52 -2 -44 20 7 17 40 20 49 5z"/>
    <path d="M8362 3418 c-19 -25 -41 -76 -35 -82 4 -3 17 -6 29 -6 13 0 24 -7 26
    -17 l4 -18 10 20 c14 27 6 115 -11 115 -7 0 -17 -6 -23 -12z m15 -65 c-3 -3
    -13 -3 -21 -1 l-17 3 18 25 18 25 3 -23 c2 -13 1 -26 -1 -29z"/>
    <path d="M7715 3399 c-43 -12 -55 -35 -55 -99 0 -67 11 -80 66 -80 l42 0 6 28
    c11 52 9 131 -4 147 -14 17 -13 17 -55 4z m49 -25 c15 -38 3 -129 -17 -137 -9
    -3 -12 19 -12 74 0 76 13 104 29 63z m-46 -64 c4 -62 -11 -86 -34 -55 -14 19
    -12 83 3 108 13 21 28 -5 31 -53z"/>
    <path d="M7425 3345 c-60 -13 -138 -29 -172 -36 l-63 -12 0 -72 c0 -57 4 -78
    20 -97 l19 -25 -11 -36 c-6 -21 -9 -39 -6 -42 9 -10 183 30 183 42 0 7 8 21
    17 33 l18 20 -20 0 c-11 0 -21 -4 -21 -10 -1 -5 -2 -15 -3 -22 0 -6 -36 -19
    -79 -28 l-77 -17 6 21 c11 38 29 46 139 66 61 11 129 24 153 29 48 9 47 10 27
    -29 -12 -23 -24 -30 -59 -35 -25 -4 -49 -4 -55 0 -6 3 -11 1 -11 -5 0 -6 19
    -22 43 -36 86 -51 274 -158 337 -192 36 -19 78 -44 93 -55 32 -22 27 -22 198
    27 l126 37 59 -34 c32 -19 127 -73 209 -122 83 -49 184 -106 225 -128 41 -22
    86 -48 100 -57 14 -9 68 -41 120 -70 52 -29 144 -82 203 -118 60 -35 111 -61
    114 -58 8 8 17 1 -112 76 -60 35 -162 94 -225 130 -63 37 -178 103 -255 147
    -77 44 -206 118 -287 165 l-147 85 -138 -38 c-76 -21 -143 -39 -149 -39 -21 0
    -454 250 -454 263 0 4 9 7 21 7 35 0 55 17 69 60 l13 40 -18 14 -18 13 18 10
    c13 8 18 22 18 54 l0 44 -22 3 c-16 3 -21 9 -19 24 4 29 -2 29 -127 3z m115
    -15 c0 -16 -31 -26 -140 -44 -58 -10 -116 -21 -130 -25 l-25 -8 -3 -41 c-2
    -23 -8 -42 -13 -42 -13 0 -29 44 -29 80 l0 29 53 11 c217 46 287 56 287 40z
    m38 -62 l-3 -33 -110 -18 c-60 -11 -118 -23 -127 -28 -10 -5 -29 -9 -43 -9
    l-25 0 0 33 0 33 108 18 c59 10 121 22 137 26 17 5 38 9 48 9 l18 1 -3 -32z
    m-24 -77 c7 -11 -1 -13 -169 -41 -88 -15 -148 -21 -160 -15 l-20 8 20 5 c65
    15 265 50 292 51 17 1 34 -3 37 -8z"/>
    <path d="M4135 3280 c-3 -5 -1 -10 4 -10 15 0 14 -83 -1 -98 -9 -9 -4 -12 23
    -11 18 0 28 3 22 6 -9 3 -13 26 -13 64 0 45 -3 59 -14 59 -8 0 -18 -4 -21 -10z"/>
    <path d="M4227 3283 c-26 -25 4 -80 41 -74 6 1 12 -5 12 -12 0 -16 -27 -30
    -41 -21 -5 3 -9 0 -9 -5 0 -20 49 -11 64 11 19 27 21 79 4 96 -13 13 -60 16
    -71 5z m57 -20 c5 -11 1 -22 -11 -30 l-17 -13 -15 14 -14 15 13 15 c17 21 36
    20 44 -1z"/>
    <path d="M4337 3283 c-4 -3 -7 -13 -7 -22 0 -12 3 -11 14 4 8 11 19 16 30 12
    24 -9 20 -22 -19 -61 -46 -46 -44 -56 8 -54 l42 1 -33 4 -33 4 36 40 35 40
    -10 19 c-10 19 -49 27 -63 13z"/>
    <path d="M5177 3243 c-4 -3 -7 -44 -7 -89 l0 -83 20 -6 c11 -3 29 -3 40 0 l20
    6 0 90 0 89 -33 0 c-19 0 -37 -3 -40 -7z m23 -93 c0 -35 -4 -60 -10 -60 -7 0
    -10 23 -8 60 4 78 18 78 18 0z m33 8 c-7 -78 -11 -82 -12 -10 -1 34 3 62 8 62
    4 0 6 -24 4 -52z"/>
    <path d="M4530 3205 c-16 -19 -5 -34 12 -17 7 7 18 12 25 12 23 0 14 -35 -17
    -65 -41 -39 -38 -45 18 -44 l47 2 -39 6 -38 6 36 33 c20 18 36 38 36 45 0 35
    -57 50 -80 22z"/>
    <path d="M4640 3201 c-15 -28 -12 -87 4 -101 47 -38 98 39 62 94 -20 31 -51
    34 -66 7z m56 -26 c8 -34 -3 -75 -21 -75 -23 0 -39 49 -26 77 14 30 39 29 47
    -2z"/>
    <path d="M4748 3186 l-4 -35 27 6 c32 6 48 -22 25 -45 l-15 -15 -16 13 c-18
    15 -34 5 -18 -11 6 -6 23 -9 39 -7 l29 3 3 32 c3 32 -26 62 -48 48 -6 -3 -10
    1 -10 9 0 10 9 16 25 16 14 0 25 5 25 10 0 6 -13 10 -29 10 l-29 0 -4 -34z"/>
    <path d="M5414 3200 c-13 -5 -43 -50 -77 -114 l-56 -106 14 -47 c8 -27 15 -51
    15 -54 0 -3 -36 -17 -80 -29 -110 -31 -158 -90 -117 -142 15 -20 127 -88 145
    -88 6 0 21 -9 32 -20 27 -27 46 -25 81 9 45 45 35 121 -16 121 -42 0 -37 19 7
    30 89 22 125 60 99 102 -7 11 -10 22 -8 25 3 2 -3 30 -14 60 l-19 55 25 86
    c36 124 32 138 -31 112z m12 -109 l-25 -92 15 -41 c16 -47 16 -47 -16 -50
    l-24 -3 -9 32 c-7 24 -5 48 7 91 18 66 19 75 8 68 -5 -3 -17 -32 -27 -65 l-18
    -60 17 -44 c20 -53 20 -67 1 -67 -17 0 -32 32 -41 88 l-6 37 46 97 c36 74 52
    97 69 100 12 2 23 3 25 2 1 0 -9 -42 -22 -93z m4 -215 c0 -13 -20 -26 -41 -26
    -14 0 -11 28 4 33 23 10 37 7 37 -7z m-105 -41 c-16 -8 -36 -14 -44 -15 -12 0
    -25 -10 -82 -62 -10 -10 -19 -29 -19 -43 0 -29 -7 -31 -38 -9 -29 20 -28 55 4
    88 30 29 44 33 44 11 0 -17 25 -20 35 -5 3 6 -1 10 -9 10 -9 0 -16 4 -16 8 0
    12 68 29 115 30 l40 0 -30 -13z m125 0 c0 -19 -32 -39 -94 -60 l-49 -16 -20
    19 -19 20 59 17 c32 9 69 21 83 25 36 12 40 12 40 -5z m-214 -96 c-14 -17 -26
    -43 -26 -57 0 -21 -2 -24 -10 -12 -5 8 -10 22 -10 31 0 22 38 69 57 69 11 0 8
    -8 -11 -31z m41 -12 c-18 -14 -29 -33 -30 -50 -2 -30 -12 -35 -21 -12 -12 32
    24 85 58 85 l21 0 -28 -23z m25 -30 c-12 -13 -22 -29 -22 -35 0 -7 -4 -12 -10
    -12 -5 0 -10 7 -10 16 0 28 20 54 42 54 l21 0 -21 -23z m81 -8 c12 -44 -33
    -99 -69 -85 -19 7 -18 65 3 88 22 25 59 23 66 -3z"/>
    <path d="M5574 3196 c-25 -19 -12 -31 15 -14 16 10 23 10 33 0 9 -9 4 -20 -25
    -50 -47 -49 -47 -52 11 -50 36 1 39 2 15 5 -39 5 -42 15 -9 37 30 19 42 52 26
    71 -16 19 -41 19 -66 1z"/>
    <path d="M5680 3195 l-12 -15 31 6 c38 8 45 -21 9 -36 -16 -6 -18 -9 -7 -9 25
    -1 45 -29 31 -43 -9 -9 -18 -9 -37 0 -16 7 -25 8 -25 2 0 -6 11 -16 25 -22
    l25 -11 20 18 c13 12 18 25 14 34 -4 9 -6 27 -5 40 2 45 -42 69 -69 36z"/>
    <path d="M5780 3200 c0 -5 13 -10 29 -10 l30 0 -24 -55 c-14 -30 -21 -55 -17
    -55 12 0 63 110 57 121 -8 12 -75 12 -75 -1z"/>
    <path d="M7645 3170 c-3 -5 -1 -10 6 -10 8 0 10 -17 7 -55 l-5 -55 25 0 24 0
    -12 15 c-7 8 -11 35 -8 65 l3 50 -17 0 c-9 0 -20 -4 -23 -10z"/>
    <path d="M7753 3168 c-34 -44 -17 -118 28 -118 49 0 62 57 19 80 -10 6 -26 7
    -34 4 -12 -4 -15 -2 -10 9 6 18 32 30 45 21 5 -3 9 0 9 5 0 15 -45 14 -57 -1z
    m50 -60 c7 -21 -4 -38 -23 -38 -23 0 -32 13 -24 34 7 19 40 21 47 4z"/>
    <path d="M7866 3138 c-28 -47 -26 -58 10 -58 16 0 24 -6 25 -17 0 -14 2 -15 6
    -3 3 8 11 19 17 23 8 6 7 10 -1 14 -8 2 -13 22 -13 44 0 50 -13 49 -44 -3z
    m34 -13 c0 -16 -6 -25 -15 -25 -18 0 -18 5 -5 31 14 26 20 24 20 -6z"/>
    <path d="M4265 3074 c-27 -8 -59 -19 -70 -24 -11 -5 -47 -16 -80 -25 -93 -26
    -141 -73 -168 -165 -3 -10 -33 -23 -78 -34 -41 -10 -78 -23 -84 -28 -12 -10
    -14 -138 -2 -138 4 0 7 26 7 59 l0 58 58 21 c31 11 67 23 80 27 l22 6 0 -520
    c0 -354 3 -528 11 -544 15 -32 107 -87 147 -87 25 0 35 -6 44 -26 16 -35 120
    -87 162 -81 17 2 64 14 103 26 40 11 75 21 78 21 3 0 5 -25 5 -55 l0 -54 31
    -35 c16 -19 38 -37 47 -40 13 -4 17 -17 17 -53 l0 -48 27 -3 27 -3 3 48 3 48
    95 31 95 31 5 329 5 328 25 6 25 6 -3 45 c-1 24 -4 64 -5 89 l-2 45 -22 3 -23
    3 0 234 0 235 -24 16 -25 16 -70 -20 -71 -19 0 33 c0 33 -12 44 -42 36 -16 -4
    -30 -42 -25 -72 1 -8 -2 -17 -8 -20 -6 -3 -11 33 -13 98 l-3 102 -19 0 c-13 0
    -18 5 -14 15 8 19 3 19 -84 -5 -39 -11 -74 -20 -77 -20 -3 0 -5 20 -5 44 0 35
    -5 48 -22 60 -26 19 -19 19 -83 0z m75 -19 c0 -3 -20 -10 -45 -16 -25 -6 -45
    -16 -45 -21 0 -5 8 -7 18 -4 48 14 72 17 72 9 0 -5 -54 -24 -121 -43 l-120
    -33 -28 -34 c-50 -61 -52 -80 -50 -537 1 -611 7 -649 88 -649 19 0 31 -5 31
    -14 0 -16 -40 -17 -73 -2 -13 6 -34 31 -45 55 l-22 45 0 515 0 515 25 49 c26
    51 49 69 123 90 23 7 42 17 42 22 0 4 12 8 28 9 l27 0 -17 12 -18 12 38 11
    c39 12 92 18 92 9z m-145 -35 c-3 -5 -32 -17 -63 -26 -67 -19 -128 -75 -137
    -126 -3 -18 -5 -277 -3 -576 l3 -542 -12 17 c-9 12 -13 68 -14 187 0 94 -2
    329 -5 522 -4 247 -2 364 6 394 17 64 72 115 150 139 76 23 83 24 75 11z m161
    -58 c-12 -12 -18 8 -10 35 l8 28 4 -28 c2 -16 1 -31 -2 -35z m-33 22 c12 -12
    -5 -33 -33 -39 -35 -8 -78 -47 -116 -104 l-29 -45 -5 -505 -5 -505 -33 -10
    c-20 -5 -36 -5 -42 0 -7 7 -16 902 -11 1057 2 50 55 93 156 126 96 32 108 34
    118 25z m197 -4 c0 -6 -6 -12 -12 -15 -7 -2 -59 -17 -115 -34 -112 -34 -152
    -61 -186 -125 l-22 -41 0 -562 c0 -375 -3 -559 -10 -552 -6 6 -10 212 -10 577
    l0 567 17 30 c38 69 78 93 243 140 95 28 95 28 95 15z m40 -129 c0 -84 -3
    -111 -15 -121 l-15 -12 0 99 c0 55 -3 102 -6 106 -4 3 -18 0 -33 -7 -14 -7
    -63 -23 -109 -36 -99 -27 -134 -60 -151 -140 -7 -33 -11 -221 -11 -536 l0
    -485 15 -35 c9 -23 26 -39 49 -49 l34 -14 83 24 c99 29 99 29 99 10 0 -14 -37
    -28 -152 -56 -65 -15 -111 0 -132 46 l-16 34 0 527 c0 380 3 538 12 567 21 68
    62 101 163 132 50 14 106 33 125 40 61 24 60 25 60 -94z m-56 -338 c-3 -214
    -6 -475 -7 -582 l-2 -193 -104 -34 c-58 -19 -113 -34 -123 -34 -17 0 -20 4
    -22 32 -1 6 26 19 59 28 l60 17 5 558 5 558 60 17 c33 10 63 18 67 19 4 0 5
    -173 2 -386z m146 312 c0 -24 -5 -35 -15 -35 -15 0 -22 50 -8 63 15 15 23 5
    23 -28z m-290 -510 c0 -350 -3 -535 -10 -535 -7 0 -10 185 -10 535 0 350 3
    535 10 535 7 0 10 -185 10 -535z m-40 26 l0 -499 -31 -11 c-18 -6 -36 -11 -40
    -11 -13 0 -11 903 2 937 9 23 56 83 66 83 1 0 3 -225 3 -499z m485 470 c-6 -5
    -42 -18 -81 -30 -90 -27 -149 -72 -168 -126 -14 -38 -26 -464 -26 -942 0 -89
    -4 -143 -10 -143 -14 0 -13 1003 1 1070 12 57 71 130 105 130 10 0 48 11 84
    25 66 24 112 32 95 16z m35 -34 c0 -7 -25 -18 -57 -26 -95 -21 -139 -45 -170
    -92 l-28 -43 -3 -523 -3 -523 -14 0 -15 0 0 518 0 517 19 40 c28 60 60 84 158
    115 102 33 113 35 113 17z m-1 -308 l0 -281 -34 -14 c-63 -26 -67 -70 -7 -80
    l37 -6 0 -231 c0 -128 -1 -252 -3 -277 l-2 -46 -45 -12 c-61 -16 -67 -15 -60
    7 l6 20 -52 15 c-29 9 -59 16 -66 16 l-13 0 0 505 0 506 14 32 c25 59 86 94
    223 126 1 1 2 -125 2 -280z m42 -233 c15 -16 10 -26 -11 -26 l-20 0 0 34 c0
    52 14 80 18 36 2 -19 8 -39 13 -44z m19 -55 c0 -11 -39 -21 -45 -11 -2 4 -2
    10 2 14 10 9 43 7 43 -3z m-60 -39 c0 -24 -8 -32 -26 -25 -10 4 -11 10 -3 24
    12 24 29 25 29 1z m-58 -14 c-7 -7 -12 -8 -12 -2 0 14 12 26 19 19 2 -3 -1
    -11 -7 -17z m-467 -327 c-15 -14 -75 -24 -75 -13 0 12 22 19 60 21 14 1 20 -3
    15 -8z m22 -37 c2 -7 -12 -15 -32 -18 -20 -4 -43 -10 -51 -13 -8 -3 -14 1 -14
    9 0 27 89 46 97 22z m-197 -9 c0 -16 -35 -21 -45 -6 -4 8 9 15 38 20 4 0 7 -6
    7 -14z m360 -55 c0 -9 -101 -43 -168 -56 -67 -14 -28 13 56 38 98 30 112 32
    112 18z m155 -218 c22 -1 71 6 108 17 38 10 66 14 64 8 -4 -14 -152 -57 -194
    -57 -39 0 -83 37 -83 69 0 31 23 30 45 -3 16 -25 29 -32 60 -34z m31 58 l27
    -11 -18 -19 c-10 -11 -24 -20 -30 -20 -16 0 -65 39 -65 51 0 12 52 12 86 -1z
    m-147 -45 c0 -5 -4 -3 -9 5 -5 8 -9 22 -9 30 0 16 17 -16 18 -35z m101 -110
    c0 -22 -5 -35 -13 -35 -9 0 -13 12 -13 35 1 21 6 35 13 35 8 0 13 -13 13 -35z"/>
    <path d="M4205 2937 c-5 -11 -30 -24 -66 -34 -33 -9 -59 -20 -59 -25 0 -5 8
    -7 18 -4 9 3 39 10 65 17 48 12 63 26 54 51 -3 9 -7 8 -12 -5z"/>
    <path d="M4758 1880 c-30 -54 -32 -60 -20 -60 8 0 62 91 62 104 0 19 -18 0
    -42 -44z"/>
    <path d="M4668 1810 c-20 -39 -33 -70 -28 -70 8 0 80 121 80 134 0 21 -20 -4
    -52 -64z"/>
    <path d="M4730 1729 c-65 -111 -64 -109 -52 -109 13 0 115 177 110 192 -2 6
    -28 -31 -58 -83z"/>
    <path d="M4655 1693 c-38 -71 -38 -73 -28 -73 11 0 66 106 61 119 -1 6 -16
    -15 -33 -46z"/>
    <path d="M4728 1635 c-15 -24 -23 -47 -18 -50 8 -5 60 72 60 88 0 19 -18 2
    -42 -38z"/>
    <path d="M4699 2991 c-27 -23 -20 -28 11 -9 15 10 22 10 32 0 9 -9 4 -20 -25
    -50 -48 -49 -47 -62 3 -62 22 0 40 5 40 10 0 6 -15 10 -32 10 l-33 0 38 35
    c41 38 43 50 10 72 l-20 14 -24 -20z"/>
    <path d="M4804 2996 c-11 -8 -15 -18 -10 -23 5 -4 11 -2 13 5 6 17 43 15 43
    -2 0 -8 -15 -31 -34 -52 -41 -46 -38 -54 15 -54 24 0 38 4 34 10 -3 6 -18 10
    -33 10 l-26 0 32 33 c37 38 41 62 13 77 -25 13 -23 13 -47 -4z"/>
    <path d="M4911 2992 c-10 -20 -9 -47 2 -58 4 -4 7 -2 7 4 0 17 37 15 44 -3 11
    -30 -5 -47 -37 -41 l-29 6 12 -15 c29 -35 74 -7 68 42 -2 22 -9 29 -30 31 -36
    4 -38 32 -3 32 14 0 25 5 25 10 0 18 -49 11 -59 -8z"/>
    <path d="M5200 2939 c0 -44 4 -68 10 -64 6 3 10 35 10 71 0 36 -4 64 -10 64
    -6 0 -10 -30 -10 -71z"/>
    <path d="M7245 2845 l0 -65 23 0 c12 0 22 5 22 10 0 6 -4 10 -10 10 -5 0 -10
    25 -10 55 0 37 -4 55 -12 55 -9 0 -13 -20 -13 -65z"/>
    <path d="M7335 2901 c-3 -6 7 -9 21 -8 34 3 43 -19 12 -29 l-23 -7 23 -10 c12
    -6 22 -16 22 -24 0 -19 -27 -28 -44 -14 -9 7 -17 8 -20 3 -10 -17 22 -35 49
    -28 31 8 42 32 27 56 -7 12 -7 21 0 28 18 18 1 42 -31 42 -16 0 -32 -4 -36 -9z"/>
    <path d="M7440 2891 c-5 -11 -10 -33 -10 -50 0 -58 60 -84 82 -35 15 33 0 59
    -36 59 -14 -1 -26 2 -26 5 1 14 18 28 40 33 l25 4 -32 2 c-23 1 -35 -5 -43
    -18z m60 -61 c0 -24 -26 -38 -42 -22 -16 16 -2 42 22 42 13 0 20 -7 20 -20z"/>
    <path d="M5602 2828 c-7 -7 -12 -16 -12 -22 0 -6 5 -5 12 2 16 16 48 15 48 -1
    0 -7 -16 -28 -35 -47 -46 -44 -44 -50 13 -49 l47 2 -40 6 -40 6 32 23 c17 12
    35 32 38 43 12 38 -35 65 -63 37z"/>
    <path d="M5700 2805 l0 -35 23 5 c33 9 51 -15 32 -41 l-14 -19 -21 13 -22 14
    4 -14 c6 -18 46 -22 64 -8 30 25 11 80 -28 80 -10 0 -18 5 -18 10 0 6 9 10 19
    10 11 0 23 5 26 10 4 6 -8 10 -29 10 l-36 0 0 -35z"/>
    <path d="M5815 2824 c-11 -12 -15 -30 -13 -63 l3 -46 34 0 c41 0 62 25 45 53
    -6 9 -23 17 -38 17 -14 -1 -26 5 -26 12 0 15 30 32 48 26 6 -3 12 0 12 6 0 17
    -47 13 -65 -5z m49 -63 c9 -14 -4 -41 -19 -41 -17 0 -38 27 -30 40 8 12 42 13
    49 1z"/>
    <path d="M498 2553 c-31 -65 -84 -181 -118 -258 -34 -77 -89 -198 -122 -270
    -33 -71 -74 -162 -91 -202 l-31 -72 20 -22 c10 -12 64 -61 119 -108 232 -201
    457 -356 805 -555 36 -20 72 -41 80 -46 25 -17 271 -150 275 -150 2 0 75 -34
    162 -76 190 -92 299 -136 321 -132 12 2 31 50 69 168 63 201 124 385 209 633
    35 104 64 199 64 211 l0 23 -87 32 c-188 69 -230 85 -283 108 -30 14 -86 38
    -125 53 -85 34 -429 201 -540 263 -181 100 -384 252 -557 416 -58 55 -108 101
    -110 101 -3 0 -30 -53 -60 -117z m192 -33 c116 -113 284 -238 472 -353 100
    -61 413 -219 507 -257 25 -10 86 -36 134 -59 49 -23 91 -41 93 -41 6 0 240
    -87 311 -116 l42 -17 -34 -95 c-19 -52 -60 -176 -91 -276 -31 -99 -59 -185
    -64 -191 -4 -5 -22 -57 -39 -115 -17 -58 -46 -152 -65 -210 l-34 -105 -28 1
    c-48 2 -514 229 -764 372 -238 136 -505 304 -585 369 -16 13 -64 49 -105 80
    -41 31 -123 99 -182 151 l-108 94 9 16 c23 45 105 222 122 264 10 27 32 74 48
    106 16 31 49 104 74 162 25 58 70 159 101 224 l57 120 62 -60 c34 -32 64 -61
    67 -64z"/>
    <path d="M755 2358 c-8 -18 -42 -94 -76 -168 -33 -74 -83 -184 -109 -245 -27
    -60 -60 -132 -74 -160 -14 -27 -25 -54 -25 -60 -1 -16 188 -210 196 -202 4 4
    -33 47 -81 96 -52 52 -84 91 -77 95 6 4 44 -28 86 -70 42 -42 79 -74 82 -70 4
    4 -22 36 -57 71 -35 35 -62 67 -59 69 3 3 32 -21 64 -54 33 -33 66 -60 74 -60
    9 0 -15 31 -53 69 l-68 69 50 109 c28 59 69 151 92 203 23 52 45 100 50 105
    15 20 70 159 67 169 -3 9 -107 -195 -107 -210 0 -2 -27 -62 -59 -132 -32 -70
    -71 -154 -85 -186 -14 -32 -28 -57 -31 -54 -5 5 49 138 89 216 15 29 47 101
    72 160 26 59 59 133 76 165 16 32 27 64 25 70 -5 15 -42 -58 -106 -206 -82
    -188 -179 -399 -190 -410 -40 -40 -5 58 100 278 26 55 68 150 94 210 26 61 54
    119 61 130 17 23 18 35 4 35 -6 0 -17 -15 -25 -32z"/>
    <path d="M870 1879 c1 -32 57 -213 67 -216 11 -4 -6 70 -39 174 -14 44 -28 66
    -28 42z"/>
    <path d="M1003 1827 c2 -7 12 -47 22 -90 15 -70 28 -97 41 -85 2 3 -4 31 -15
    64 -10 32 -22 74 -26 92 -3 17 -11 32 -17 32 -6 0 -8 -6 -5 -13z"/>
    <path d="M1720 1770 c1 -36 37 -154 49 -158 14 -5 14 -7 -15 93 -17 60 -34 92
    -34 65z"/>
    <path d="M860 1713 c0 -22 56 -232 64 -240 18 -19 14 17 -13 108 -17 56 -31
    110 -31 120 0 10 -4 21 -10 24 -5 3 -10 -2 -10 -12z"/>
    <path d="M1090 1711 c0 -29 45 -181 53 -181 5 0 6 7 3 16 -4 9 -13 49 -22 88
    -15 65 -34 109 -34 77z"/>
    <path d="M988 1705 c-6 -6 72 -307 83 -319 18 -20 17 1 -2 69 -11 39 -31 110
    -45 160 -27 95 -28 98 -36 90z"/>
    <path d="M1810 1665 c0 -9 28 -130 36 -154 2 -8 7 -11 10 -8 8 7 -25 148 -37
    162 -5 5 -9 5 -9 0z"/>
    <path d="M1700 1628 c0 -8 4 -28 9 -44 5 -16 14 -48 20 -71 7 -24 17 -43 22
    -43 7 0 8 7 4 18 -4 9 -14 44 -23 77 -15 60 -32 94 -32 63z"/>
    <path d="M1083 1525 c6 -25 14 -45 19 -45 10 0 10 7 -3 53 -14 53 -28 46 -16
    -8z"/>
    <path d="M981 1463 c35 -143 42 -163 51 -163 5 0 7 8 4 18 -8 26 -56 212 -56
    217 0 3 -4 5 -9 5 -5 0 0 -35 10 -77z"/>
    <path d="M1783 1526 c5 -14 11 -32 38 -138 5 -21 13 -38 18 -38 4 0 0 30 -10
    68 -9 37 -20 79 -23 95 -4 15 -11 27 -17 27 -6 0 -9 -6 -6 -14z"/>
    <path d="M1760 1387 c0 -25 32 -107 40 -102 9 6 -20 115 -32 115 -4 0 -8 -6
    -8 -13z"/>
    <path d="M1190 1290 c0 -4 6 -12 13 -18 20 -17 229 -112 225 -103 -4 12 -238
    130 -238 121z"/>
    <path d="M1131 1213 c1 -18 325 -168 544 -253 83 -32 172 -68 198 -79 51 -22
    88 -28 72 -12 -6 5 -75 34 -155 65 -184 69 -275 108 -480 207 -168 80 -180 85
    -179 72z"/>
    <path d="M1560 1102 c0 -12 381 -162 413 -162 20 0 -7 17 -48 30 -22 7 -110
    41 -196 76 -162 67 -169 69 -169 56z"/>
    <path d="M1825 960 c-5 -8 107 -50 134 -50 26 0 2 13 -64 35 -36 13 -68 19
    -70 15z"/>
    <path d="M6255 2634 c-105 -44 -140 -84 -119 -139 8 -20 55 -45 85 -45 35 0
    144 20 159 30 l14 9 -17 19 c-20 22 -23 93 -4 122 l12 21 -15 9 c-20 13 -24
    12 -115 -26z m95 8 c0 -4 -30 -18 -67 -31 -80 -28 -100 -43 -108 -82 -7 -30
    -25 -40 -25 -14 0 49 24 67 145 114 28 10 51 19 53 20 1 1 2 -2 2 -7z m0 -73
    c0 -28 -6 -46 -17 -55 l-18 -13 19 -1 c36 0 7 -13 -58 -25 -46 -9 -68 -9 -75
    -2 -15 15 -14 60 2 80 12 17 99 54 130 56 l17 1 0 -41z"/>
    <path d="M6222 2538 c-15 -15 -16 -45 -2 -53 16 -10 40 15 40 41 0 26 -19 31
    -38 12z"/>
    <path d="M873 2623 c-3 -10 -19 -47 -35 -82 -31 -71 -31 -71 -19 -71 4 0 21
    28 36 63 35 77 47 52 15 -29 -13 -30 -20 -57 -16 -61 3 -3 13 11 21 32 9 20
    19 35 22 31 3 -3 0 -19 -7 -36 -16 -38 -5 -53 11 -16 7 14 15 26 19 26 4 0 47
    -32 95 -71 175 -144 414 -283 650 -377 55 -22 125 -51 155 -65 70 -31 583
    -203 633 -212 20 -4 39 -11 42 -15 4 -7 -270 -848 -280 -858 -2 -2 -32 5 -66
    17 -35 12 -72 21 -83 21 l-21 -1 29 -16 c17 -8 57 -23 90 -33 33 -9 56 -19 50
    -22 -5 -3 -43 5 -84 18 -41 13 -78 24 -82 24 -16 0 -7 -19 10 -23 146 -38 208
    -65 190 -83 -2 -1 -48 11 -103 27 -55 16 -106 28 -115 26 -8 -2 26 -16 75 -31
    50 -15 108 -33 129 -41 22 -8 41 -13 43 -12 5 6 353 1048 353 1059 0 9 -46 25
    -195 67 -77 22 -178 54 -225 71 -47 17 -130 46 -186 65 -435 148 -767 325
    -1055 562 -85 70 -87 71 -96 46z m85 -60 c26 -21 55 -45 65 -55 10 -10 30 -26
    45 -35 15 -10 59 -41 97 -69 39 -28 97 -66 130 -84 33 -18 76 -43 95 -55 19
    -12 82 -43 140 -69 210 -96 194 -90 460 -189 80 -30 168 -62 195 -70 245 -76
    382 -119 395 -123 l15 -5 -18 -14 -18 -13 -68 18 c-38 10 -75 21 -82 25 -26
    17 -219 73 -224 65 -5 -8 73 -37 225 -82 115 -34 154 -55 80 -44 -53 8 -526
    165 -620 206 -36 15 -110 45 -165 65 -252 93 -585 292 -752 448 -55 51 -37 51
    27 0 100 -80 121 -96 193 -146 39 -26 72 -45 75 -42 7 7 5 9 -123 100 -145
    104 -211 160 -218 185 -7 27 -3 26 51 -17z m1598 -924 c-24 -79 -51 -162 -59
    -184 -8 -22 -43 -125 -77 -230 -34 -104 -72 -217 -85 -250 -12 -33 -31 -88
    -41 -122 -11 -35 -22 -63 -26 -63 -21 0 -15 50 18 142 20 57 61 177 90 268
    166 507 203 605 222 586 1 -2 -17 -68 -42 -147z m-121 -210 c-58 -173 -124
    -370 -146 -439 -37 -113 -59 -163 -59 -133 0 14 279 853 292 876 30 58 7 -24
    -87 -304z"/>
    <path d="M5459 2601 c-29 -29 -39 -81 -21 -107 13 -19 56 -44 76 -44 27 0 86
    66 86 96 0 34 -51 84 -85 84 -16 0 -38 -12 -56 -29z m29 -8 c-8 -10 -20 -27
    -26 -38 l-11 -20 -1 18 c0 9 9 26 20 37 25 25 39 27 18 3z m82 -14 c26 -47
    -20 -115 -72 -107 l-23 3 -3 41 -3 42 27 21 c34 27 60 27 74 0z"/>
    <path d="M5512 2564 c-23 -16 -30 -58 -12 -69 35 -21 78 42 48 71 l-14 14 -22
    -16z m28 -23 c0 -24 -18 -37 -32 -23 -8 8 -7 16 2 27 17 21 30 19 30 -4z"/>
    <path d="M3759 2563 c-20 -35 -19 -83 2 -96 21 -13 69 0 69 19 l0 15 -21 -15
    c-21 -14 -49 -12 -49 5 0 5 10 9 23 9 12 0 29 4 36 9 l15 10 -19 35 c-23 43
    -36 45 -56 9z m51 -34 c0 -10 -34 -12 -43 -2 -4 3 -2 12 4 20 12 14 39 1 39
    -18z"/>
    <path d="M7060 2570 c-10 -6 -11 -10 -2 -10 16 0 16 -92 0 -108 -9 -9 -5 -12
    22 -12 l33 0 -16 18 c-9 10 -17 40 -19 69 l-3 52 -15 -9z"/>
    <path d="M7155 2560 c-14 -15 -15 -23 -6 -34 8 -10 9 -16 1 -21 -38 -23 14
    -75 56 -56 23 10 33 44 15 55 -4 3 -6 17 -3 32 8 43 -32 58 -63 24z m53 -17
    c2 -8 -6 -13 -22 -13 -25 0 -33 10 -19 24 10 10 36 3 41 -11z m0 -66 c3 -12
    -3 -17 -22 -17 -25 0 -35 18 -19 34 12 12 38 2 41 -17z"/>
    <path d="M7250 2570 c0 -5 14 -10 30 -10 36 0 36 1 5 -60 -27 -54 -29 -60 -16
    -60 9 0 61 110 61 129 0 6 -17 11 -40 11 -22 0 -40 -4 -40 -10z"/>
    <path d="M3402 2558 c-19 -19 -14 -29 8 -16 14 9 22 10 31 1 8 -8 1 -21 -25
    -51 -20 -22 -36 -42 -36 -46 0 -3 21 -5 48 -5 l47 2 -40 6 -40 6 38 29 c48 37
    47 86 -3 86 -9 0 -21 -5 -28 -12z"/>
    <path d="M3500 2551 c-25 -47 -5 -111 35 -111 28 0 45 26 45 69 0 53 -57 83
    -80 42z m55 -51 l0 -45 -20 0 c-15 0 -21 8 -23 33 -4 45 4 64 25 60 14 -3 18
    -13 18 -48z"/>
    <path d="M3611 2557 c-18 -22 -24 -73 -12 -96 15 -28 66 -29 81 -2 32 61 -28
    147 -69 98z m55 -32 c9 -38 -3 -77 -24 -73 -13 2 -18 15 -20 51 l-3 47 20 0
    c14 0 23 -9 27 -25z"/>
    <path d="M5880 2546 c-159 -59 -208 -122 -143 -182 38 -35 57 -37 157 -17 l89
    18 -2 85 c-3 111 -19 126 -101 96z m55 -14 c-6 -5 -37 -19 -70 -32 -72 -28
    -102 -53 -110 -91 -7 -30 -25 -31 -25 -1 1 42 26 65 105 98 79 32 118 42 100
    26z m31 -83 l-1 -62 -40 -14 c-22 -8 -65 -15 -95 -16 l-55 -2 -3 30 c-2 17 3
    39 11 49 14 19 136 73 168 75 l16 1 -1 -61z"/>
    <path d="M5803 2433 c-7 -2 -13 -18 -13 -35 l0 -29 23 3 c17 2 22 10 22 32 0
    30 -10 38 -32 29z m27 -22 c0 -12 -20 -25 -27 -18 -7 7 6 27 18 27 5 0 9 -4 9
    -9z"/>
    <path d="M3740 2445 c0 -8 5 -15 11 -15 8 0 8 -4 -1 -15 -6 -8 -9 -19 -5 -25
    4 -6 -2 -21 -13 -33 -18 -21 -42 -60 -42 -71 0 -19 75 -48 112 -43 39 5 88 39
    88 62 0 19 -62 72 -67 58 -5 -15 -53 -18 -53 -4 0 5 14 11 30 15 21 4 30 11
    30 26 0 24 -9 26 -24 4 -7 -9 -18 -12 -29 -8 -23 8 -14 20 23 27 27 6 45 37
    20 37 -5 0 -10 -4 -10 -10 0 -5 -11 -10 -25 -10 -14 0 -25 5 -25 10 0 6 -4 10
    -10 10 -5 0 -10 -7 -10 -15z m124 -128 c24 -40 -93 -67 -139 -33 l-20 14 17
    19 c23 26 126 26 142 0z"/>
    <path d="M7512 2417 c-44 -46 -48 -127 -7 -127 8 0 15 -6 15 -12 -1 -35 -50
    -198 -70 -231 -26 -43 -31 -117 -12 -163 28 -66 135 -104 200 -70 95 50 144
    193 92 271 l-20 30 0 111 0 110 -27 26 c-16 14 -38 29 -49 32 -12 4 -24 16
    -27 26 -8 29 -67 27 -95 -3z m83 -7 c4 -6 -9 -29 -29 -50 -20 -22 -36 -44 -36
    -49 0 -5 -9 -7 -21 -4 l-21 6 6 30 c11 57 80 101 101 67z m14 -55 c-33 -18
    -53 -66 -74 -183 -12 -64 -21 -92 -31 -92 -19 0 -18 2 14 116 41 142 59 172
    102 173 8 0 3 -6 -11 -14z m75 -21 c3 -9 6 -64 6 -123 l0 -108 20 -18 c42 -38
    35 -135 -16 -201 -30 -41 -103 -77 -138 -68 -80 20 -99 110 -46 213 19 35 38
    99 51 167 15 73 29 117 42 132 24 26 72 30 81 6z m-198 -317 c-13 -26 -20 -61
    -20 -94 0 -62 -16 -56 -23 10 -6 53 27 140 50 131 l14 -5 -21 -42z"/>
    <path d="M7621 2317 c-16 -16 -14 -47 3 -47 9 0 12 7 9 20 -4 16 -2 19 11 14
    9 -3 16 -2 16 4 0 15 -26 22 -39 9z"/>
    <path d="M7581 2062 c-62 -31 -95 -107 -77 -176 7 -28 66 -67 66 -44 1 7 23
    24 50 37 48 23 61 41 74 104 4 15 11 25 16 22 21 -13 9 27 -15 50 -29 30 -66
    32 -114 7z m97 -34 c4 -34 -8 -35 -53 -5 -40 28 -35 39 15 35 l35 -3 3 -27z
    m-64 -22 c13 -12 31 -26 40 -29 19 -7 20 -21 6 -48 -10 -19 -45 -26 -52 -11
    -1 4 -16 14 -32 22 -44 23 -54 45 -32 69 25 27 42 26 70 -3z m-48 -85 l47 -29
    -21 -11 c-46 -25 -82 -4 -82 48 0 27 1 27 56 -8z"/>
    <path d="M7620 1940 c0 -11 5 -20 10 -20 6 0 10 6 10 14 0 8 6 17 13 19 6 3 2
    6 -10 6 -17 1 -23 -5 -23 -19z"/>
    <path d="M5585 2369 c-55 -18 -373 -107 -520 -146 -62 -16 -93 -33 -61 -33 19
    0 171 41 261 71 33 11 134 39 224 63 91 23 167 48 169 54 5 16 -2 15 -73 -9z"/>
    <path d="M7096 2359 c-34 -26 -49 -64 -41 -100 8 -36 78 -83 111 -75 18 5 42
    -6 99 -44 84 -57 86 -57 109 -31 34 38 18 70 -61 124 -48 32 -73 56 -73 68 0
    21 -73 79 -100 79 -10 0 -29 -10 -44 -21z m69 -9 c3 -5 2 -10 -3 -10 -19 0
    -62 -54 -62 -77 0 -36 -24 -23 -28 15 -5 51 70 109 93 72z m39 -26 c25 -9 19
    -20 -10 -19 -17 0 -34 -9 -47 -27 l-21 -28 24 -25 23 -25 -20 0 c-30 0 -44 39
    -27 78 11 27 24 37 61 51 1 1 8 -2 17 -5z m10 -43 c3 -5 -1 -14 -9 -21 -8 -7
    -15 -19 -15 -27 0 -8 -6 -13 -12 -11 -15 5 -22 33 -14 54 6 15 42 19 50 5z
    m41 -31 c3 -6 0 -17 -8 -25 -9 -8 -17 -20 -20 -27 -3 -10 -7 -10 -17 -1 l-13
    12 17 25 c17 27 31 32 41 16z m29 -55 c-28 -29 -50 -25 -34 6 6 11 21 19 35
    19 l24 0 -25 -25z m56 -2 c-1 -10 -36 -53 -44 -53 -11 0 -6 36 6 48 13 13 38
    16 38 5z m33 -37 c6 -16 -11 -36 -30 -36 -13 0 -18 32 -6 43 11 12 31 8 36 -7z"/>
    <path d="M6170 2315 c-7 -9 -9 -19 -5 -23 4 -4 10 -1 12 6 6 17 43 15 43 -3 0
    -8 -16 -29 -35 -46 -47 -43 -45 -59 5 -59 22 0 40 5 40 10 0 6 -12 10 -26 10
    l-26 0 31 35 c36 41 39 60 12 75 -27 14 -36 13 -51 -5z"/>
    <path d="M6288 2286 c-35 -55 -35 -66 2 -66 22 0 30 -5 30 -17 l0 -17 14 20
    c16 23 9 115 -9 121 -6 1 -22 -17 -37 -41z m32 -11 c0 -16 -6 -25 -15 -25 -18
    0 -18 5 -5 31 14 26 20 24 20 -6z"/>
    <path d="M6370 2320 c0 -5 13 -10 30 -10 l29 0 -19 -46 c-30 -69 -23 -86 10
    -24 41 77 39 90 -10 90 -22 0 -40 -4 -40 -10z"/>
    <path d="M7809 2264 c2 -40 -1 -59 -10 -65 -9 -6 -2 -8 21 -8 19 0 29 3 23 6
    -9 3 -13 26 -13 64 0 40 -4 59 -12 59 -9 0 -12 -16 -9 -56z"/>
    <path d="M7894 2306 c-3 -8 -4 -20 -3 -27 2 -8 -1 -24 -5 -37 -10 -30 10 -54
    42 -50 33 4 51 32 35 56 -6 11 -8 24 -3 33 5 8 4 19 -2 26 -14 17 -57 17 -64
    -1z m51 -15 c0 -8 -4 -16 -10 -18 -16 -5 -38 14 -30 26 9 16 40 9 40 -8z m0
    -65 c0 -22 -14 -29 -34 -17 -19 12 -6 43 16 39 10 -2 18 -12 18 -22z"/>
    <path d="M8000 2283 c0 -29 3 -34 12 -25 18 18 36 14 43 -9 9 -28 -19 -59 -37
    -41 -17 17 -33 15 -18 -3 20 -25 59 -19 70 11 13 34 -3 64 -36 64 -35 0 -26
    23 12 31 l29 7 -37 1 -38 1 0 -37z"/>
    <path d="M6678 2236 c-5 -27 -8 -61 -8 -77 l0 -28 45 -27 c57 -33 69 -26 16 9
    l-40 27 -3 72 -3 73 -7 -49z"/>
    <path d="M9333 2251 c-22 -21 -103 -168 -283 -512 l-113 -216 -105 -7 c-58 -3
    -161 -6 -229 -6 l-123 0 0 -41 c0 -28 16 -75 55 -157 31 -63 52 -119 48 -122
    -5 -4 -33 -12 -63 -19 -58 -13 -96 -38 -125 -83 -21 -33 -50 -414 -33 -435 6
    -7 27 -12 48 -11 20 0 42 -2 48 -6 18 -11 264 42 293 64 15 10 43 22 63 25 50
    10 70 40 85 127 l13 73 37 40 c51 55 74 93 68 116 -3 11 1 23 10 28 11 6 14
    18 11 40 -2 17 -1 31 4 31 16 0 8 49 -9 59 -14 8 -15 12 -6 22 14 14 2 44 -29
    69 l-20 16 44 89 c24 50 91 178 147 285 57 107 115 218 129 245 64 126 104
    187 115 176 18 -18 55 -13 67 8 25 48 1 80 -80 108 -45 16 -43 16 -67 -6z m42
    -11 c3 -5 1 -10 -4 -10 -15 0 -14 -47 2 -53 12 -4 -27 -88 -126 -272 -51 -95
    -156 -296 -295 -565 -316 -611 -310 -601 -347 -570 -19 16 -19 38 1 75 25 47
    200 385 279 540 40 77 97 187 127 245 30 58 85 164 123 235 185 355 219 408
    240 375z m48 -44 c-21 -28 -28 -26 -18 3 3 12 13 21 21 21 l15 0 -18 -24z m57
    -2 c0 -16 -23 -44 -35 -44 -15 0 -21 31 -8 43 8 8 43 9 43 1z m-560 -699 c0
    -4 -7 -19 -15 -35 l-16 -30 -194 0 -195 0 0 28 c0 16 3 32 7 35 8 8 413 9 413
    2z m-304 -142 c14 -32 45 -99 69 -149 l42 -90 -19 -37 c-10 -20 -22 -37 -26
    -37 -4 0 -27 46 -51 103 -25 56 -62 138 -83 182 -21 43 -38 80 -38 82 0 2 18
    3 41 3 l40 0 25 -57z m229 -13 c-19 -38 -37 -70 -39 -70 -2 0 -24 11 -49 25
    l-45 25 -27 -10 c-15 -6 -28 -9 -29 -8 -30 63 -46 100 -46 103 0 3 61 5 135 5
    l135 0 -35 -70z m171 -55 c4 -8 1 -22 -6 -30 l-12 -15 16 -6 c18 -7 22 -40 5
    -46 -9 -3 -9 -10 1 -28 l12 -23 -21 -16 c-14 -11 -18 -20 -11 -30 11 -19 -1
    -42 -53 -98 -53 -57 -84 -73 -146 -73 l-51 0 11 24 c9 18 18 23 46 22 62 -2
    102 86 60 131 l-15 18 13 18 13 18 5 -15 c12 -31 56 -31 88 0 47 45 39 114
    -15 114 l-31 1 30 24 c34 29 53 31 61 10z m-311 -9 c-11 -8 -23 -12 -28 -9
    -13 8 3 23 26 23 l21 0 -19 -14z m76 -16 c31 -17 6 -45 -41 -45 -48 0 -58 10
    -35 35 20 22 46 25 76 10z m160 -63 c-6 -14 -19 -31 -31 -37 l-20 -11 0 19 c0
    26 40 76 52 64 5 -5 5 -19 -1 -35z m43 -11 c-7 -28 -51 -69 -65 -61 -4 3 3 17
    17 32 13 15 27 37 31 50 3 15 9 21 15 15 5 -5 6 -21 2 -36z m-231 -22 l-17
    -35 -8 22 c-12 30 -3 49 22 49 l20 0 -17 -36z m-135 -29 c7 -14 12 -37 12 -51
    0 -14 5 -44 11 -68 l11 -43 -41 -81 c-23 -45 -41 -89 -41 -98 0 -27 30 -54 61
    -54 l28 0 43 80 43 80 43 0 c23 0 42 -1 42 -3 0 -16 -72 -163 -86 -178 -18
    -18 -249 -77 -260 -66 -3 2 0 76 5 163 l9 159 -19 18 c-46 43 -5 104 74 110
    l52 3 -57 2 c-46 2 -62 -2 -78 -18 -24 -24 -27 -86 -5 -110 l15 -17 -7 -154
    c-5 -97 -12 -152 -18 -149 -6 3 -9 38 -7 83 1 47 -2 77 -8 77 -6 0 -10 -28
    -10 -65 l0 -65 -21 3 c-12 1 -24 -4 -26 -11 -4 -9 2 -11 23 -6 19 5 25 4 20
    -5 -4 -6 -18 -11 -32 -11 l-25 0 6 118 c7 147 24 269 41 303 18 36 38 51 92
    65 74 20 97 18 110 -11z m252 -87 c-1 -26 -32 -68 -50 -68 -6 0 -2 12 9 26 12
    15 21 35 21 45 0 11 5 19 10 19 6 0 10 -10 10 -22z m-42 -13 c-6 -14 -15 -25
    -19 -25 -5 0 -3 11 3 25 6 14 15 25 19 25 5 0 3 -11 -3 -25z m63 -156 c-5 -24
    -12 -56 -15 -71 -8 -35 -32 -58 -62 -58 -13 0 -24 2 -24 4 0 18 67 145 83 158
    28 22 30 19 18 -33z"/>
    <path d="M8965 1470 c-3 -11 -3 -24 0 -30 9 -15 25 -2 18 15 -3 9 1 15 11 15
    9 0 16 5 16 10 0 19 -39 10 -45 -10z"/>
    <path d="M8620 820 c-11 -21 -6 -40 11 -40 6 0 7 9 4 20 -5 16 -2 20 15 20 12
    0 18 5 15 10 -10 17 -34 11 -45 -10z"/>
    <path d="M8523 1483 c-16 -6 -17 -33 -2 -33 15 0 39 26 32 34 -7 7 -12 7 -30
    -1z"/>
    <path d="M8507 1073 c-11 -11 -8 -43 4 -43 6 0 9 7 5 15 -4 10 1 15 14 15 11
    0 20 5 20 10 0 11 -33 14 -43 3z"/>
    <path d="M8830 785 c0 -8 5 -15 10 -15 6 0 10 7 10 15 0 8 -4 15 -10 15 -5 0
    -10 -7 -10 -15z"/>
    <path d="M5740 2232 c-14 -11 -19 -21 -13 -25 6 -4 16 0 23 8 13 15 40 10 40
    -9 0 -7 -16 -27 -35 -46 -45 -43 -44 -50 5 -50 22 0 40 5 40 10 0 6 -12 10
    -26 10 l-26 0 32 36 31 36 -14 21 c-19 29 -30 31 -57 9z"/>
    <path d="M5846 2238 c-12 -39 -12 -68 0 -68 7 0 15 4 19 10 11 17 35 -2 35
    -27 l0 -26 -36 6 -36 6 12 -14 c15 -18 52 -19 68 -3 27 27 7 78 -30 78 -10 0
    -18 5 -18 10 0 6 12 10 26 10 16 0 24 5 22 13 -6 17 -57 22 -62 5z"/>
    <path d="M5958 2236 c-10 -7 -18 -19 -18 -27 0 -10 3 -10 12 -1 16 16 48 15
    48 -1 0 -7 -16 -27 -35 -44 -47 -42 -44 -53 11 -53 27 0 43 4 39 10 -3 6 -18
    10 -33 10 l-26 0 32 30 c36 33 38 55 7 76 l-20 13 -17 -13z"/>
    <path d="M8126 2101 c-4 -5 -2 -12 4 -16 13 -8 13 -95 0 -95 -5 0 -10 -4 -10
    -10 0 -5 11 -10 25 -10 25 0 33 14 15 25 -5 3 -10 28 -10 55 0 47 -12 71 -24
    51z"/>
    <path d="M8220 2095 c-6 -8 -9 -23 -5 -34 3 -11 2 -29 -4 -39 -8 -15 -6 -23
    10 -38 28 -26 75 -9 71 26 -1 14 -2 36 -2 49 0 45 -43 68 -70 36z m53 -12 c11
    -10 -13 -32 -29 -26 -20 8 -17 33 4 33 10 0 22 -3 25 -7z m3 -82 c-9 -14 -43
    -14 -52 1 -4 6 1 17 12 25 l18 13 14 -14 c8 -8 11 -19 8 -25z"/>
    <path d="M8325 2090 c-20 -23 -14 -26 15 -8 15 10 22 10 32 0 9 -9 4 -20 -25
    -50 -48 -49 -47 -62 3 -62 22 0 40 5 40 10 0 6 -11 10 -25 10 -32 0 -32 15 0
    36 33 22 42 54 19 71 -25 18 -38 16 -59 -7z"/>
    <path d="M6873 2048 c-39 -28 -49 -58 -26 -76 20 -14 53 -6 70 17 15 20 37 2
    27 -22 -6 -16 -45 -23 -98 -17 l-19 2 31 -31 c40 -41 75 -41 113 0 22 23 29
    41 29 70 l0 39 -32 20 c-42 25 -56 25 -95 -2z m95 -20 c19 -19 14 -72 -8 -96
    -21 -23 -64 -30 -75 -12 -4 6 6 10 22 10 37 0 53 16 53 52 0 36 -24 46 -50 23
    -27 -25 -37 -12 -11 14 23 23 51 27 69 9z"/>
    <path d="M6510 1979 c-11 -8 -12 -12 -2 -16 16 -6 16 -90 0 -95 -17 -6 0 -28
    22 -28 25 0 34 17 16 27 -10 5 -16 28 -18 65 l-3 57 -15 -10z"/>
    <path d="M6611 1971 c-28 -28 -28 -91 -2 -115 l19 -17 21 13 c44 27 34 78 -15
    78 -13 0 -24 4 -24 9 0 15 29 33 41 25 7 -4 10 -2 7 6 -7 22 -26 22 -47 1z
    m44 -76 c0 -13 -8 -21 -22 -23 -23 -3 -33 25 -16 42 13 13 38 1 38 -19z"/>
    <path d="M6709 1971 c-13 -11 -21 -23 -17 -27 5 -4 17 1 27 10 20 18 41 14 41
    -7 0 -7 -17 -26 -37 -43 -53 -45 -26 -84 41 -58 23 9 9 24 -22 24 l-27 0 33
    31 c36 33 39 50 16 73 -20 20 -27 20 -55 -3z"/>
    <path d="M7907 1920 c-103 -31 -170 -177 -122 -269 21 -42 119 -94 160 -87 87
    17 155 108 155 208 0 69 -23 101 -94 134 -56 26 -58 26 -99 14z m63 -17 c-1
    -5 -20 -17 -43 -28 -26 -13 -53 -37 -72 -65 l-30 -45 0 -67 c0 -76 -9 -85 -31
    -33 -33 80 4 172 91 226 30 19 85 26 85 12z m10 -69 c0 -27 -4 -43 -10 -39
    -17 11 -11 85 7 85 2 0 3 -21 3 -46z m40 21 c0 -8 -4 -17 -10 -20 -6 -4 -10 5
    -10 20 0 15 4 24 10 20 6 -3 10 -12 10 -20z m46 -12 c-7 -7 -26 7 -26 19 0 6
    6 6 15 -2 9 -7 13 -15 11 -17z m-119 -20 c-3 -10 -5 -4 -5 12 0 17 2 24 5 18
    2 -7 2 -21 0 -30z m-38 -29 c-13 -24 -33 -31 -43 -15 -4 5 6 24 21 42 l28 33
    3 -18 c2 -10 -2 -29 -9 -42z m141 26 c0 -12 -40 -34 -48 -26 -3 4 3 13 14 21
    22 17 34 19 34 5z m16 -35 c-11 -8 -27 -15 -35 -15 -10 1 -7 6 9 15 33 19 50
    18 26 0z m-87 -11 c2 -2 -3 -12 -12 -22 -10 -10 -17 -26 -17 -35 0 -9 -4 -17
    -8 -17 -17 0 -21 13 -11 32 7 13 7 23 0 32 -6 7 -8 16 -4 20 6 6 42 -1 52 -10z
    m111 -15 c0 -28 -24 -89 -34 -86 -17 6 -13 77 4 88 21 12 30 11 30 -2z m-185
    -9 l20 -9 -32 0 c-17 -1 -35 4 -38 9 -7 12 22 12 50 0z m125 -25 c0 -13 -4
    -27 -10 -30 -5 -3 -10 -17 -10 -31 0 -33 -12 -30 -32 11 l-17 34 20 25 c23 29
    49 25 49 -9z m-146 -4 c3 -4 -6 -19 -19 -31 l-25 -23 0 31 c0 25 4 32 19 32
    11 0 22 -4 25 -9z m1 -61 c-16 -16 -31 -28 -34 -25 -2 3 8 19 24 35 16 16 31
    28 34 25 2 -3 -8 -19 -24 -35z m25 -15 c-19 -19 -38 -35 -44 -35 -5 0 5 16 24
    35 19 19 38 35 44 35 5 0 -5 -16 -24 -35z m134 10 c3 -8 1 -15 -4 -15 -6 0
    -10 7 -10 15 0 8 2 15 4 15 2 0 6 -7 10 -15z m-31 -43 c-31 -23 -89 -35 -109
    -24 l-18 10 33 14 c18 7 51 13 73 13 l39 0 -18 -13z"/>
    <path d="M7085 1886 c-22 -33 -10 -53 47 -82 38 -19 50 -31 55 -55 10 -53 82
    -92 129 -70 29 13 64 67 64 98 0 39 -23 74 -61 93 l-36 19 -35 -11 -34 -10
    -42 21 c-53 27 -68 26 -87 -3z m45 -4 c0 -5 -6 -16 -13 -27 -16 -20 -33 -5
    -23 20 6 16 36 21 36 7z m33 -38 c-9 -15 -19 -21 -21 -15 -6 19 6 41 23 41
    l15 0 -17 -26z m137 6 c0 -5 8 -10 18 -10 50 0 59 -80 14 -123 -50 -48 -98
    -26 -94 43 2 27 -1 39 -8 35 -5 -3 -10 -20 -10 -38 0 -23 -3 -28 -11 -20 -17
    17 -2 79 23 103 23 21 68 27 68 10z m-102 -25 c-6 -14 -15 -22 -20 -17 -12 12
    1 42 18 42 l14 0 -12 -25z"/>
    <path d="M7290 1797 c0 -15 -9 -28 -22 -35 l-23 -11 21 0 c13 -1 25 -10 29
    -23 l8 -23 4 26 c2 15 14 31 26 37 l22 11 -22 0 c-16 1 -23 7 -23 21 0 11 -4
    20 -10 20 -5 0 -10 -11 -10 -23z"/>
    <path d="M8350 1840 c0 -5 5 -10 10 -10 15 0 13 -97 -2 -103 -7 -3 3 -6 22 -6
    l35 0 -17 10 c-14 8 -18 23 -18 64 0 42 -4 55 -15 55 -8 0 -15 -4 -15 -10z"/>
    <path d="M8450 1840 c0 -5 11 -10 25 -10 30 0 30 -1 4 -51 -11 -22 -18 -46
    -16 -52 5 -12 57 93 57 113 0 6 -16 10 -35 10 -19 0 -35 -4 -35 -10z"/>
    <path d="M8560 1835 c-7 -9 -9 -19 -5 -23 4 -4 10 -1 12 6 3 6 13 12 24 12 28
    0 24 -34 -6 -54 -13 -9 -29 -25 -35 -36 l-11 -20 48 2 c37 1 40 2 16 5 -39 5
    -42 17 -9 38 29 19 39 41 31 66 -8 23 -47 25 -65 4z"/>
    <path d="M2886 1738 c-2 -7 -71 -220 -155 -473 -83 -253 -151 -465 -151 -470
    0 -27 42 -37 119 -28 l76 8 -72 5 -72 5 151 450 c82 248 151 451 153 453 1 2
    45 -5 96 -14 l94 -16 28 -30 29 -30 -4 -59 c-2 -42 1 -59 10 -59 8 0 12 20 12
    64 l0 64 -25 30 c-25 30 -96 53 -206 68 l-46 6 -16 -39 c-8 -21 -36 -104 -60
    -183 -25 -80 -64 -197 -85 -260 -22 -63 -64 -187 -92 -275 -29 -88 -54 -162
    -56 -164 -20 -21 -7 36 45 196 97 299 179 550 215 653 l33 95 36 -3 c19 -2 74
    -12 122 -22 l87 -18 32 -31 31 -31 4 -83 c2 -54 6 -75 12 -62 23 59 1 157 -46
    201 l-33 31 -100 16 c-121 20 -161 21 -166 5z"/>
    <path d="M6830 1695 c-9 -10 -9 -15 -1 -15 16 0 14 -87 -1 -93 -9 -3 -7 -7 5
    -12 9 -4 25 -4 35 0 11 5 13 9 5 12 -8 3 -13 25 -13 58 0 57 -10 74 -30 50z"/>
    <path d="M6938 1696 c-27 -20 -34 -71 -14 -101 21 -32 51 -32 72 0 l17 26 -19
    20 c-12 14 -25 18 -41 14 -13 -3 -23 -1 -23 4 0 15 29 33 45 28 8 -4 17 -2 20
    2 3 5 -2 12 -11 15 -21 8 -26 7 -46 -8z m42 -81 c0 -18 -5 -25 -19 -25 -23 0
    -35 15 -27 35 10 26 46 18 46 -10z"/>
    <path d="M7036 1688 c-32 -46 -12 -118 33 -118 20 0 41 38 41 73 0 28 -26 67
    -45 67 -8 0 -21 -10 -29 -22z m42 -7 c8 -5 12 -23 10 -47 l-3 -39 -20 0 c-15
    0 -21 8 -23 33 -5 55 7 72 36 53z"/>
    <path d="M2928 1613 c-9 -27 -39 -120 -68 -208 -28 -88 -61 -185 -72 -215 -30
    -81 -128 -374 -128 -382 0 -5 25 -8 55 -8 67 0 74 20 8 21 l-48 1 60 13 60 12
    -52 2 c-29 0 -53 2 -53 4 0 1 22 66 50 145 27 78 85 251 130 385 44 133 82
    247 84 253 3 8 25 8 82 -1 91 -14 104 -27 104 -99 0 -37 3 -47 10 -36 17 26
    11 86 -10 113 -19 24 -101 47 -171 47 l-25 0 -16 -47z"/>
    <path d="M8256 1651 c-4 -5 2 -14 11 -20 20 -11 21 -11 -30 -34 -78 -35 -92
    -170 -22 -207 84 -45 194 84 141 165 -26 40 -109 25 -136 -24 -27 -52 5 -120
    50 -106 49 16 81 88 44 102 -24 9 -64 -14 -64 -37 0 -21 33 -29 45 -10 3 6 -1
    10 -10 10 -9 0 -13 5 -10 10 7 12 45 14 45 2 0 -26 -34 -53 -63 -50 -45 4 -48
    38 -8 78 51 51 101 36 101 -30 0 -83 -103 -133 -150 -73 -40 51 -9 133 61 161
    21 8 39 20 39 27 0 18 -37 48 -44 36z"/>
    <path d="M3005 1438 c-7 -32 -182 -572 -225 -693 -45 -128 -79 -248 -74 -257
    4 -6 50 -8 123 -4 412 22 385 15 401 106 5 30 14 111 20 180 6 69 19 213 30
    320 24 235 25 272 5 310 -17 33 -19 33 -157 55 -124 19 -115 20 -123 -17z
    m144 -8 c96 -15 111 -20 122 -42 19 -35 18 -52 -41 -647 l-18 -184 -19 -18
    -18 -19 -219 -10 c-120 -6 -222 -8 -226 -3 -6 6 120 416 150 488 14 33 36 101
    91 275 61 196 55 183 88 176 14 -3 55 -11 90 -16z"/>
    <path d="M3166 1369 c-4 -19 -13 -110 -21 -204 -30 -352 -21 -330 -147 -339
    -45 -3 -101 -8 -123 -9 -22 -2 15 -4 83 -5 l124 -2 29 29 c23 23 29 38 29 73
    0 24 7 99 15 168 29 244 34 305 25 314 -5 5 -11 -5 -14 -25z"/>
    <path d="M3207 1370 c-3 -8 -8 -42 -10 -75 -5 -60 -17 -167 -38 -345 -7 -52
    -16 -103 -21 -113 -15 -30 -72 -47 -155 -48 -43 0 -96 -4 -118 -8 -30 -7 -11
    -9 80 -10 189 -2 227 29 239 191 4 51 14 160 22 241 8 82 13 156 11 165 l-4
    17 -6 -15z"/>
    <path d="M2860 849 c0 -7 27 -9 75 -8 41 2 75 7 75 11 0 4 -34 8 -75 8 -47 0
    -75 -4 -75 -11z"/>
    <path d="M3016 661 c-43 -56 -75 -105 -72 -108 3 -4 8 -4 9 -2 75 91 148 192
    145 200 -2 7 -39 -34 -82 -90z"/>
    <path d="M3011 711 c-22 -31 -27 -46 -11 -36 17 10 52 65 41 65 -5 0 -19 -13
    -30 -29z"/>
    <path d="M2934 682 c-48 -57 -58 -72 -46 -72 11 0 97 109 91 115 -3 2 -23 -17
    -45 -43z"/>
    <path d="M3071 645 c-28 -36 -46 -65 -39 -64 14 0 103 117 95 125 -2 3 -28
    -25 -56 -61z"/>
    <path d="M2916 591 c-21 -29 -35 -55 -32 -59 4 -3 10 -2 14 4 4 6 20 27 35 47
    16 20 27 42 25 48 -2 7 -21 -11 -42 -40z"/>
    <path d="M7624 1176 l-34 -34 0 -45 0 -45 31 -26 c32 -27 101 -37 114 -16 4 6
    23 0 49 -15 56 -33 84 -32 96 1 14 35 0 56 -54 84 -33 17 -46 29 -46 45 0 25
    -15 45 -50 69 -38 25 -68 20 -106 -18z m39 -15 c-20 -18 -34 -43 -39 -66 -4
    -25 -9 -33 -15 -24 -19 31 33 119 70 119 10 0 5 -10 -16 -29z m79 -3 c8 -7 18
    -21 22 -32 l6 -19 -25 17 c-31 20 -63 13 -74 -17 -10 -27 2 -54 29 -62 29 -9
    24 -25 -8 -25 -86 0 -59 139 29 149 3 1 12 -5 21 -11z m-22 -45 c-1 -14 -27
    -43 -33 -37 -8 9 11 44 23 44 6 0 10 -3 10 -7z m40 -20 c-1 -11 -26 -43 -34
    -43 -8 0 -8 35 1 43 9 9 33 9 33 0z m27 -38 c-13 -27 -22 -31 -32 -15 -8 13
    13 40 30 40 10 0 11 -5 2 -25z m43 -2 c-1 -5 -7 -19 -15 -33 l-14 -25 -6 18
    c-4 9 -2 24 5 32 13 16 30 20 30 8z m40 -37 c0 -8 -7 -19 -15 -26 l-15 -12 -6
    16 c-7 18 13 49 27 40 5 -3 9 -11 9 -18z"/>
    <path d="M4530 1089 c-40 -12 -78 -16 -101 -13 -44 7 -125 -19 -151 -49 -12
    -13 -18 -36 -18 -68 l0 -49 48 -30 c54 -34 81 -36 160 -14 176 49 202 68 202
    145 0 79 -46 105 -140 78z m74 -7 c3 -5 -49 -26 -115 -46 -130 -42 -139 -49
    -139 -115 0 -47 -2 -48 -41 -20 l-29 20 0 44 0 45 25 16 c39 25 107 42 130 32
    13 -5 41 -2 85 11 78 23 77 23 84 13z m46 -76 c0 -63 -4 -67 -90 -90 -36 -10
    -91 -27 -124 -38 -67 -23 -77 -17 -69 41 8 57 8 58 80 81 37 12 82 28 98 35
    47 20 59 23 83 24 l22 1 0 -54z"/>
    <path d="M4578 1019 c-13 -7 -18 -21 -17 -47 l2 -37 4 28 c2 15 13 32 24 37
    10 6 19 15 19 20 0 13 -10 12 -32 -1z"/>
    <path d="M4403 962 c-8 -5 -9 -18 -3 -42 l8 -35 1 33 c1 21 6 32 15 32 8 0 18
    5 21 10 7 12 -24 13 -42 2z"/>
    <path d="M3920 1005 c-7 -9 -9 -19 -5 -23 4 -4 10 -1 12 6 3 6 13 12 24 12 29
    0 23 -33 -11 -58 -16 -13 -30 -31 -30 -42 l0 -20 40 0 c22 0 40 5 40 10 0 6
    -13 10 -30 10 -38 0 -38 7 2 40 l31 26 -7 27 c-7 31 -45 37 -66 12z"/>
    <path d="M4027 1013 c-4 -3 -7 -19 -7 -34 l0 -28 30 5 c22 5 31 2 36 -11 9
    -23 -21 -54 -38 -37 -15 15 -28 16 -28 2 0 -19 48 -34 65 -20 33 27 8 101 -30
    86 -9 -3 -15 0 -15 9 0 10 10 15 30 15 17 0 30 5 30 10 0 11 -63 14 -73 3z"/>
    <path d="M4120 1010 c0 -5 14 -10 30 -10 36 0 36 0 9 -51 -11 -22 -18 -48 -16
    -57 3 -13 67 105 67 124 0 2 -20 4 -45 4 -25 0 -45 -4 -45 -10z"/>
    <path d="M7993 990 c-28 -11 -57 -55 -49 -75 7 -19 50 -19 70 0 21 22 38 18
    34 -7 l-3 -23 -55 -2 c-30 -1 -57 -2 -60 -2 -2 -1 10 -14 28 -31 60 -55 128
    -26 139 58 l5 41 -27 25 c-29 27 -46 30 -82 16z m87 -46 c22 -56 -44 -131 -87
    -99 l-18 14 38 1 37 0 11 27 c18 47 -15 80 -50 49 -28 -25 -37 -19 -11 9 31
    33 67 33 80 -1z"/>
    <path d="M7530 940 c0 -5 5 -10 10 -10 14 0 12 -84 -2 -98 -9 -9 -4 -12 23
    -11 18 0 28 3 22 6 -9 3 -13 26 -13 64 l0 59 -20 0 c-11 0 -20 -4 -20 -10z"/>
    <path d="M7648 943 c38 -5 38 0 7 -68 -34 -77 -12 -66 25 13 l29 62 -47 -2
    c-36 -1 -40 -2 -14 -5z"/>
    <path d="M7740 935 c-17 -20 -17 -80 0 -100 8 -9 24 -15 39 -13 l26 3 3 32 c4
    35 -23 58 -53 46 l-17 -6 12 22 c8 16 18 21 31 18 10 -3 19 -1 19 4 0 15 -46
    10 -60 -6z m54 -64 c3 -4 -1 -17 -9 -27 l-14 -19 -17 17 c-9 9 -13 21 -10 27
    8 13 43 15 50 2z"/>
    <path d="M8176 869 c-35 -28 -58 -83 -47 -113 11 -27 52 -56 82 -56 34 0 79
    56 79 99 0 41 -5 51 -40 74 -32 22 -42 21 -74 -4z m91 -31 c35 -28 -8 -118
    -56 -118 -22 0 -32 6 -37 23 -9 26 -6 58 7 72 5 5 9 14 9 20 -1 5 -10 -1 -20
    -14 -13 -15 -20 -18 -20 -9 0 8 4 18 10 24 14 14 91 15 107 2z"/>
    <path d="M8201 816 c-17 -20 -10 -70 10 -74 38 -7 69 68 33 82 -23 9 -30 8
    -43 -8z m39 -25 c0 -24 -18 -37 -31 -24 -13 13 -1 43 17 43 8 0 14 -9 14 -19z"/>
    <path d="M9015 850 c-3 -5 -1 -10 4 -10 14 0 14 -87 1 -95 -15 -9 -2 -25 20
    -25 l19 0 -6 58 c-2 31 -6 63 -9 70 -4 15 -20 16 -29 2z"/>
    <path d="M9128 853 c-9 -2 -21 -18 -27 -34 -18 -51 15 -103 57 -92 49 12 34
    89 -15 80 -18 -3 -23 0 -21 12 2 9 15 17 31 19 15 2 27 8 27 13 0 9 -22 10
    -52 2z m40 -81 l3 -22 -25 0 c-19 0 -26 5 -26 18 0 39 43 43 48 4z"/>
    <path d="M9216 844 c-31 -30 -12 -64 36 -64 20 0 26 -4 22 -15 -4 -8 -17 -15
    -29 -15 -32 0 -41 -17 -13 -26 17 -5 27 0 45 20 39 46 23 116 -27 116 -10 0
    -26 -7 -34 -16z m59 -23 c0 -8 -8 -19 -17 -25 -22 -13 -44 5 -34 29 7 20 51
    16 51 -4z"/>
    <path d="M4609 823 c-48 -52 -41 -115 16 -141 39 -18 54 -15 86 19 23 24 29
    40 29 74 0 50 -14 65 -67 72 l-38 5 -26 -29z m13 -22 c-9 -16 -18 -28 -21 -26
    -4 5 27 55 34 55 2 0 -4 -13 -13 -29z m97 1 c29 -55 -45 -142 -87 -100 -22 22
    -9 90 22 110 20 14 55 8 65 -10z"/>
    <path d="M4652 788 c-18 -18 -15 -65 5 -72 26 -10 57 26 49 58 -7 28 -33 35
    -54 14z m38 -27 c0 -24 -18 -37 -31 -24 -13 13 -1 43 17 43 8 0 14 -9 14 -19z"/>
    <path d="M4230 740 c-11 -20 3 -30 15 -10 3 6 13 10 21 10 24 0 16 -32 -18
    -67 -17 -18 -30 -34 -27 -36 10 -10 79 -15 79 -6 0 5 -14 9 -32 9 l-32 0 39
    40 39 39 -19 21 c-23 26 -51 26 -65 0z"/>
    <path d="M4345 736 c-10 -15 -15 -40 -13 -63 l3 -38 34 -3 c33 -3 51 9 51 35
    0 20 -32 45 -52 40 -14 -4 -18 -1 -16 11 2 10 15 18 31 20 15 2 25 8 22 13
    -11 17 -45 9 -60 -15z m50 -71 c0 -30 -39 -27 -43 3 l-4 24 24 -4 c15 -2 23
    -10 23 -23z"/>
    <path d="M4457 715 c-33 -56 -33 -55 -2 -55 13 0 28 -7 32 -15 l9 -14 12 19
    c7 12 8 20 2 20 -5 0 -10 20 -10 45 0 57 -8 57 -43 0z m33 -20 c0 -16 -6 -25
    -15 -25 -18 0 -18 5 -5 31 14 26 20 24 20 -6z"/>
    <path d="M7790 719 l-15 -9 14 0 c10 0 12 -14 9 -60 l-4 -60 23 0 c24 0 31 14
    13 25 -5 3 -10 28 -10 55 0 52 -7 64 -30 49z"/>
    <path d="M7880 720 c0 -5 13 -10 29 -10 l30 0 -26 -56 c-14 -30 -22 -58 -19
    -61 4 -5 66 119 66 133 0 2 -18 4 -40 4 -22 0 -40 -4 -40 -10z"/>
    <path d="M7994 716 l-19 -15 12 -20 c8 -13 9 -22 3 -26 -15 -9 -12 -41 5 -55
    33 -27 86 9 70 48 -5 9 -7 28 -6 41 4 38 -30 52 -65 27z m54 -23 c2 -8 -6 -13
    -22 -13 -25 0 -33 10 -19 24 10 10 36 3 41 -11z m-9 -42 c17 -11 7 -41 -13
    -41 -19 0 -29 17 -22 35 6 17 15 18 35 6z"/>
    <path d="M2105 700 c-3 -5 -1 -10 4 -10 16 0 14 -97 -1 -103 -7 -3 -1 -6 13
    -6 l26 -1 -4 53 c-3 28 -6 58 -8 65 -5 15 -21 16 -30 2z"/>
    <path d="M2195 700 c3 -5 17 -10 31 -10 29 0 29 3 4 -56 -11 -26 -18 -49 -15
    -52 7 -7 8 -5 33 55 29 69 28 73 -19 73 -24 0 -38 -4 -34 -10z"/>
    <path d="M4790 691 c-18 -35 -11 -48 48 -83 36 -21 62 -45 70 -64 16 -35 84
    -78 112 -69 65 21 91 117 44 160 -28 26 -38 29 -94 26 -23 -2 -52 7 -80 23
    -54 31 -86 33 -100 7z m40 -5 c0 -2 -3 -11 -6 -20 -9 -23 -24 -20 -24 4 0 11
    7 20 15 20 8 0 15 -2 15 -4z m40 -18 c0 -7 -7 -22 -15 -32 l-14 -19 -7 17 c-6
    16 11 46 27 46 5 0 9 -6 9 -12z m40 -15 c-1 -11 -26 -43 -34 -43 -10 0 -7 25
    6 38 13 13 28 16 28 5z m115 -13 c3 -5 -3 -10 -14 -10 -11 0 -23 5 -26 10 -3
    6 3 10 14 10 11 0 23 -4 26 -10z m-60 -20 c9 -14 -13 -50 -30 -50 -18 0 -18 2
    -3 35 12 26 23 32 33 15z m103 -44 c4 -51 -42 -99 -75 -77 -46 30 -31 107 22
    114 46 6 50 3 53 -37z m-118 -47 c0 -6 -4 -7 -10 -4 -5 3 -10 11 -10 16 0 6 5
    7 10 4 6 -3 10 -11 10 -16z"/>
    <path d="M2457 653 c-15 -14 -6 -23 17 -17 31 7 43 -12 16 -28 -26 -16 -26
    -28 1 -28 14 0 19 -5 17 -17 -3 -14 -12 -17 -38 -16 l-35 3 19 -15 c30 -23 75
    -3 76 32 0 6 -4 14 -9 17 -4 3 -6 17 -3 32 6 34 -38 61 -61 37z"/>
    <path d="M2568 649 c-34 -20 -17 -129 20 -129 27 0 52 34 52 70 0 57 -32 83
    -72 59z m47 -29 c9 -29 -4 -80 -21 -80 -24 0 -39 46 -26 75 14 30 38 33 47 5z"/>
    <path d="M1775 530 c-3 -5 -1 -10 4 -10 16 0 14 -97 -1 -103 -7 -3 3 -5 22 -5
    19 0 29 2 23 5 -9 3 -13 26 -13 64 0 45 -3 59 -14 59 -8 0 -18 -4 -21 -10z"/>
    <path d="M1870 525 c-19 -22 -3 -31 19 -11 l18 17 13 -16 12 -15 -36 -33 c-49
    -45 -47 -57 12 -55 l47 1 -38 4 -38 4 36 40 35 40 -10 19 c-13 24 -52 26 -70
    5z"/>
    <path d="M8140 530 c0 -5 5 -10 10 -10 14 0 12 -84 -2 -98 -9 -9 -4 -12 23
    -11 18 0 28 3 22 6 -9 3 -13 26 -13 64 l0 59 -20 0 c-11 0 -20 -4 -20 -10z"/>
    <path d="M8237 533 c-9 -17 -5 -108 6 -115 36 -23 86 6 71 39 -4 10 -8 32 -8
    48 l-1 30 -32 3 c-17 2 -33 -1 -36 -5z m57 -12 c9 -15 -23 -36 -36 -23 -5 5
    -7 15 -4 21 9 13 33 14 40 2z m3 -67 c8 -21 -16 -35 -40 -23 -14 8 -16 13 -6
    25 15 19 38 18 46 -2z"/>
    <path d="M8340 515 c-14 -37 -13 -57 6 -83 35 -51 96 6 77 72 l-9 31 -32 3
    -32 3 -10 -26z m58 -34 c3 -47 -12 -68 -35 -49 -26 21 -13 101 16 96 11 -2 17
    -16 19 -47z"/>
    <path d="M4530 485 c-16 -19 -5 -34 12 -17 7 7 18 12 25 12 23 0 14 -35 -17
    -65 -41 -39 -38 -45 18 -44 l47 2 -40 6 -40 6 38 29 c42 32 45 45 19 69 -23
    21 -46 22 -62 2z"/>
    <path d="M4646 481 c-12 -13 -16 -32 -14 -62 l3 -44 34 -3 c33 -3 51 9 51 35
    0 20 -32 45 -52 40 -14 -4 -18 -1 -16 11 2 10 15 18 31 20 15 2 25 8 22 13
    -10 15 -41 10 -59 -10z m52 -74 c4 -20 -25 -34 -40 -19 -15 15 -1 44 19 40 10
    -2 19 -11 21 -21z"/>
    <path d="M4750 485 c-7 -9 -9 -19 -5 -23 4 -4 10 -1 12 6 3 6 11 12 18 12 29
    0 25 -22 -9 -60 -20 -22 -36 -42 -36 -45 0 -3 21 -4 48 -4 l47 2 -40 6 -40 6
    28 19 c38 26 50 51 37 76 -13 24 -42 26 -60 5z"/>
    <path d="M2950 385 c-7 -9 -9 -19 -5 -23 4 -4 10 -1 12 6 3 6 13 12 24 12 30
    0 23 -36 -11 -60 -43 -30 -40 -60 4 -60 19 0 38 5 41 10 4 6 -7 10 -26 10
    l-33 0 32 33 c34 35 39 56 20 75 -17 17 -43 15 -58 -3z"/>
    <path d="M3055 380 c-10 -11 -13 -20 -7 -20 6 0 14 5 17 10 9 14 45 12 45 -2
    0 -7 -16 -29 -36 -49 -20 -21 -33 -42 -30 -48 9 -14 73 -14 81 -1 4 6 -7 10
    -24 10 -37 0 -40 12 -7 34 30 19 42 52 26 71 -17 21 -44 19 -65 -5z"/>
    </g>
  </g>
  <g id="labels" font-family="Helvetica, Arial, sans-serif" fill="#111" font-size="14"></g>
</svg>
